<?xml version="1.0" encoding="utf-8"?>
<svg xmlns="http://www.w3.org/2000/svg" xmlns:xlink="http://www.w3.org/1999/xlink" width="600" height="400" viewBox="0 0 2400 1600">
<defs>
  <clipPath id="clip710">
    <rect x="0" y="0" width="2400" height="1600"/>
  </clipPath>
</defs>
<path clip-path="url(#clip710)" d="M0 1600 L2400 1600 L2400 0 L0 0  Z" fill="#ffffff" fill-rule="evenodd" fill-opacity="1"/>
<defs>
  <clipPath id="clip711">
    <rect x="480" y="0" width="1681" height="1600"/>
  </clipPath>
</defs>
<path clip-path="url(#clip710)" d="M202.227 1423.18 L2352.76 1423.18 L2352.76 47.2441 L202.227 47.2441  Z" fill="#ffffff" fill-rule="evenodd" fill-opacity="1"/>
<defs>
  <clipPath id="clip712">
    <rect x="202" y="47" width="2152" height="1377"/>
  </clipPath>
</defs>
<polyline clip-path="url(#clip712)" style="stroke:#000000; stroke-linecap:round; stroke-linejoin:round; stroke-width:2; stroke-opacity:0.1; fill:none" points="554.011,1423.18 554.011,47.2441 "/>
<polyline clip-path="url(#clip712)" style="stroke:#000000; stroke-linecap:round; stroke-linejoin:round; stroke-width:2; stroke-opacity:0.1; fill:none" points="965.817,1423.18 965.817,47.2441 "/>
<polyline clip-path="url(#clip712)" style="stroke:#000000; stroke-linecap:round; stroke-linejoin:round; stroke-width:2; stroke-opacity:0.1; fill:none" points="1377.62,1423.18 1377.62,47.2441 "/>
<polyline clip-path="url(#clip712)" style="stroke:#000000; stroke-linecap:round; stroke-linejoin:round; stroke-width:2; stroke-opacity:0.1; fill:none" points="1789.43,1423.18 1789.43,47.2441 "/>
<polyline clip-path="url(#clip712)" style="stroke:#000000; stroke-linecap:round; stroke-linejoin:round; stroke-width:2; stroke-opacity:0.1; fill:none" points="2201.23,1423.18 2201.23,47.2441 "/>
<polyline clip-path="url(#clip712)" style="stroke:#000000; stroke-linecap:round; stroke-linejoin:round; stroke-width:2; stroke-opacity:0.1; fill:none" points="202.227,1240.01 2352.76,1240.01 "/>
<polyline clip-path="url(#clip712)" style="stroke:#000000; stroke-linecap:round; stroke-linejoin:round; stroke-width:2; stroke-opacity:0.1; fill:none" points="202.227,951.554 2352.76,951.554 "/>
<polyline clip-path="url(#clip712)" style="stroke:#000000; stroke-linecap:round; stroke-linejoin:round; stroke-width:2; stroke-opacity:0.1; fill:none" points="202.227,663.098 2352.76,663.098 "/>
<polyline clip-path="url(#clip712)" style="stroke:#000000; stroke-linecap:round; stroke-linejoin:round; stroke-width:2; stroke-opacity:0.1; fill:none" points="202.227,374.642 2352.76,374.642 "/>
<polyline clip-path="url(#clip712)" style="stroke:#000000; stroke-linecap:round; stroke-linejoin:round; stroke-width:2; stroke-opacity:0.1; fill:none" points="202.227,86.1857 2352.76,86.1857 "/>
<polyline clip-path="url(#clip710)" style="stroke:#000000; stroke-linecap:round; stroke-linejoin:round; stroke-width:4; stroke-opacity:1; fill:none" points="202.227,1423.18 2352.76,1423.18 "/>
<polyline clip-path="url(#clip710)" style="stroke:#000000; stroke-linecap:round; stroke-linejoin:round; stroke-width:4; stroke-opacity:1; fill:none" points="554.011,1423.18 554.011,1404.28 "/>
<polyline clip-path="url(#clip710)" style="stroke:#000000; stroke-linecap:round; stroke-linejoin:round; stroke-width:4; stroke-opacity:1; fill:none" points="965.817,1423.18 965.817,1404.28 "/>
<polyline clip-path="url(#clip710)" style="stroke:#000000; stroke-linecap:round; stroke-linejoin:round; stroke-width:4; stroke-opacity:1; fill:none" points="1377.62,1423.18 1377.62,1404.28 "/>
<polyline clip-path="url(#clip710)" style="stroke:#000000; stroke-linecap:round; stroke-linejoin:round; stroke-width:4; stroke-opacity:1; fill:none" points="1789.43,1423.18 1789.43,1404.28 "/>
<polyline clip-path="url(#clip710)" style="stroke:#000000; stroke-linecap:round; stroke-linejoin:round; stroke-width:4; stroke-opacity:1; fill:none" points="2201.23,1423.18 2201.23,1404.28 "/>
<path clip-path="url(#clip710)" d="M532.785 1481.64 L549.104 1481.64 L549.104 1485.58 L527.16 1485.58 L527.16 1481.64 Q529.822 1478.89 534.405 1474.26 Q539.011 1469.61 540.192 1468.27 Q542.437 1465.74 543.317 1464.01 Q544.22 1462.25 544.22 1460.56 Q544.22 1457.8 542.275 1456.07 Q540.354 1454.33 537.252 1454.33 Q535.053 1454.33 532.599 1455.09 Q530.169 1455.86 527.391 1457.41 L527.391 1452.69 Q530.215 1451.55 532.669 1450.97 Q535.123 1450.39 537.16 1450.39 Q542.53 1450.39 545.724 1453.08 Q548.919 1455.77 548.919 1460.26 Q548.919 1462.39 548.109 1464.31 Q547.322 1466.2 545.215 1468.8 Q544.636 1469.47 541.535 1472.69 Q538.433 1475.88 532.785 1481.64 Z" fill="#000000" fill-rule="nonzero" fill-opacity="1" /><path clip-path="url(#clip710)" d="M568.919 1454.1 Q565.308 1454.1 563.479 1457.66 Q561.673 1461.2 561.673 1468.33 Q561.673 1475.44 563.479 1479.01 Q565.308 1482.55 568.919 1482.55 Q572.553 1482.55 574.359 1479.01 Q576.187 1475.44 576.187 1468.33 Q576.187 1461.2 574.359 1457.66 Q572.553 1454.1 568.919 1454.1 M568.919 1450.39 Q574.729 1450.39 577.784 1455 Q580.863 1459.58 580.863 1468.33 Q580.863 1477.06 577.784 1481.67 Q574.729 1486.25 568.919 1486.25 Q563.109 1486.25 560.03 1481.67 Q556.974 1477.06 556.974 1468.33 Q556.974 1459.58 560.03 1455 Q563.109 1450.39 568.919 1450.39 Z" fill="#000000" fill-rule="nonzero" fill-opacity="1" /><path clip-path="url(#clip710)" d="M953.988 1455.09 L942.183 1473.54 L953.988 1473.54 L953.988 1455.09 M952.761 1451.02 L958.641 1451.02 L958.641 1473.54 L963.571 1473.54 L963.571 1477.43 L958.641 1477.43 L958.641 1485.58 L953.988 1485.58 L953.988 1477.43 L938.386 1477.43 L938.386 1472.92 L952.761 1451.02 Z" fill="#000000" fill-rule="nonzero" fill-opacity="1" /><path clip-path="url(#clip710)" d="M981.303 1454.1 Q977.692 1454.1 975.863 1457.66 Q974.057 1461.2 974.057 1468.33 Q974.057 1475.44 975.863 1479.01 Q977.692 1482.55 981.303 1482.55 Q984.937 1482.55 986.743 1479.01 Q988.571 1475.44 988.571 1468.33 Q988.571 1461.2 986.743 1457.66 Q984.937 1454.1 981.303 1454.1 M981.303 1450.39 Q987.113 1450.39 990.169 1455 Q993.247 1459.58 993.247 1468.33 Q993.247 1477.06 990.169 1481.67 Q987.113 1486.25 981.303 1486.25 Q975.493 1486.25 972.414 1481.67 Q969.358 1477.06 969.358 1468.33 Q969.358 1459.58 972.414 1455 Q975.493 1450.39 981.303 1450.39 Z" fill="#000000" fill-rule="nonzero" fill-opacity="1" /><path clip-path="url(#clip710)" d="M1363.03 1466.44 Q1359.88 1466.44 1358.03 1468.59 Q1356.2 1470.74 1356.2 1474.49 Q1356.2 1478.22 1358.03 1480.39 Q1359.88 1482.55 1363.03 1482.55 Q1366.18 1482.55 1368 1480.39 Q1369.86 1478.22 1369.86 1474.49 Q1369.86 1470.74 1368 1468.59 Q1366.18 1466.44 1363.03 1466.44 M1372.31 1451.78 L1372.31 1456.04 Q1370.55 1455.21 1368.74 1454.77 Q1366.96 1454.33 1365.2 1454.33 Q1360.57 1454.33 1358.12 1457.45 Q1355.69 1460.58 1355.34 1466.9 Q1356.71 1464.89 1358.77 1463.82 Q1360.83 1462.73 1363.31 1462.73 Q1368.51 1462.73 1371.52 1465.9 Q1374.56 1469.05 1374.56 1474.49 Q1374.56 1479.82 1371.41 1483.03 Q1368.26 1486.25 1363.03 1486.25 Q1357.03 1486.25 1353.86 1481.67 Q1350.69 1477.06 1350.69 1468.33 Q1350.69 1460.14 1354.58 1455.28 Q1358.47 1450.39 1365.02 1450.39 Q1366.78 1450.39 1368.56 1450.74 Q1370.37 1451.09 1372.31 1451.78 Z" fill="#000000" fill-rule="nonzero" fill-opacity="1" /><path clip-path="url(#clip710)" d="M1392.61 1454.1 Q1389 1454.1 1387.17 1457.66 Q1385.37 1461.2 1385.37 1468.33 Q1385.37 1475.44 1387.17 1479.01 Q1389 1482.55 1392.61 1482.55 Q1396.24 1482.55 1398.05 1479.01 Q1399.88 1475.44 1399.88 1468.33 Q1399.88 1461.2 1398.05 1457.66 Q1396.24 1454.1 1392.61 1454.1 M1392.61 1450.39 Q1398.42 1450.39 1401.48 1455 Q1404.55 1459.58 1404.55 1468.33 Q1404.55 1477.06 1401.48 1481.67 Q1398.42 1486.25 1392.61 1486.25 Q1386.8 1486.25 1383.72 1481.67 Q1380.67 1477.06 1380.67 1468.33 Q1380.67 1459.58 1383.72 1455 Q1386.8 1450.39 1392.61 1450.39 Z" fill="#000000" fill-rule="nonzero" fill-opacity="1" /><path clip-path="url(#clip710)" d="M1774.3 1469.17 Q1770.97 1469.17 1769.05 1470.95 Q1767.15 1472.73 1767.15 1475.86 Q1767.15 1478.98 1769.05 1480.77 Q1770.97 1482.55 1774.3 1482.55 Q1777.63 1482.55 1779.55 1480.77 Q1781.48 1478.96 1781.48 1475.86 Q1781.48 1472.73 1779.55 1470.95 Q1777.66 1469.17 1774.3 1469.17 M1769.62 1467.18 Q1766.62 1466.44 1764.93 1464.38 Q1763.26 1462.32 1763.26 1459.35 Q1763.26 1455.21 1766.2 1452.8 Q1769.16 1450.39 1774.3 1450.39 Q1779.46 1450.39 1782.4 1452.8 Q1785.34 1455.21 1785.34 1459.35 Q1785.34 1462.32 1783.65 1464.38 Q1781.99 1466.44 1779 1467.18 Q1782.38 1467.96 1784.25 1470.26 Q1786.15 1472.55 1786.15 1475.86 Q1786.15 1480.88 1783.07 1483.57 Q1780.02 1486.25 1774.3 1486.25 Q1768.58 1486.25 1765.5 1483.57 Q1762.45 1480.88 1762.45 1475.86 Q1762.45 1472.55 1764.35 1470.26 Q1766.24 1467.96 1769.62 1467.18 M1767.91 1459.79 Q1767.91 1462.48 1769.58 1463.98 Q1771.27 1465.49 1774.3 1465.49 Q1777.31 1465.49 1779 1463.98 Q1780.71 1462.48 1780.71 1459.79 Q1780.71 1457.11 1779 1455.6 Q1777.31 1454.1 1774.3 1454.1 Q1771.27 1454.1 1769.58 1455.6 Q1767.91 1457.11 1767.91 1459.79 Z" fill="#000000" fill-rule="nonzero" fill-opacity="1" /><path clip-path="url(#clip710)" d="M1804.46 1454.1 Q1800.85 1454.1 1799.02 1457.66 Q1797.22 1461.2 1797.22 1468.33 Q1797.22 1475.44 1799.02 1479.01 Q1800.85 1482.55 1804.46 1482.55 Q1808.1 1482.55 1809.9 1479.01 Q1811.73 1475.44 1811.73 1468.33 Q1811.73 1461.2 1809.9 1457.66 Q1808.1 1454.1 1804.46 1454.1 M1804.46 1450.39 Q1810.27 1450.39 1813.33 1455 Q1816.41 1459.58 1816.41 1468.33 Q1816.41 1477.06 1813.33 1481.67 Q1810.27 1486.25 1804.46 1486.25 Q1798.65 1486.25 1795.57 1481.67 Q1792.52 1477.06 1792.52 1468.33 Q1792.52 1459.58 1795.57 1455 Q1798.65 1450.39 1804.46 1450.39 Z" fill="#000000" fill-rule="nonzero" fill-opacity="1" /><path clip-path="url(#clip710)" d="M2160.84 1481.64 L2168.48 1481.64 L2168.48 1455.28 L2160.17 1456.95 L2160.17 1452.69 L2168.43 1451.02 L2173.11 1451.02 L2173.11 1481.64 L2180.75 1481.64 L2180.75 1485.58 L2160.84 1485.58 L2160.84 1481.64 Z" fill="#000000" fill-rule="nonzero" fill-opacity="1" /><path clip-path="url(#clip710)" d="M2200.19 1454.1 Q2196.58 1454.1 2194.75 1457.66 Q2192.95 1461.2 2192.95 1468.33 Q2192.95 1475.44 2194.75 1479.01 Q2196.58 1482.55 2200.19 1482.55 Q2203.83 1482.55 2205.63 1479.01 Q2207.46 1475.44 2207.46 1468.33 Q2207.46 1461.2 2205.63 1457.66 Q2203.83 1454.1 2200.19 1454.1 M2200.19 1450.39 Q2206 1450.39 2209.06 1455 Q2212.14 1459.58 2212.14 1468.33 Q2212.14 1477.06 2209.06 1481.67 Q2206 1486.25 2200.19 1486.25 Q2194.38 1486.25 2191.3 1481.67 Q2188.25 1477.06 2188.25 1468.33 Q2188.25 1459.58 2191.3 1455 Q2194.38 1450.39 2200.19 1450.39 Z" fill="#000000" fill-rule="nonzero" fill-opacity="1" /><path clip-path="url(#clip710)" d="M2230.35 1454.1 Q2226.74 1454.1 2224.91 1457.66 Q2223.11 1461.2 2223.11 1468.33 Q2223.11 1475.44 2224.91 1479.01 Q2226.74 1482.55 2230.35 1482.55 Q2233.99 1482.55 2235.79 1479.01 Q2237.62 1475.44 2237.62 1468.33 Q2237.62 1461.2 2235.79 1457.66 Q2233.99 1454.1 2230.35 1454.1 M2230.35 1450.39 Q2236.16 1450.39 2239.22 1455 Q2242.3 1459.58 2242.3 1468.33 Q2242.3 1477.06 2239.22 1481.67 Q2236.16 1486.25 2230.35 1486.25 Q2224.54 1486.25 2221.46 1481.67 Q2218.41 1477.06 2218.41 1468.33 Q2218.41 1459.58 2221.46 1455 Q2224.54 1450.39 2230.35 1450.39 Z" fill="#000000" fill-rule="nonzero" fill-opacity="1" /><path clip-path="url(#clip710)" d="M1084.53 1533.76 L1084.53 1539.24 Q1082.05 1537.87 1079.53 1537.2 Q1077.05 1536.5 1074.51 1536.5 Q1068.81 1536.5 1065.66 1540.13 Q1062.51 1543.73 1062.51 1550.25 Q1062.51 1556.78 1065.66 1560.4 Q1068.81 1564 1074.51 1564 Q1077.05 1564 1079.53 1563.33 Q1082.05 1562.63 1084.53 1561.26 L1084.53 1566.68 Q1082.08 1567.82 1079.44 1568.39 Q1076.83 1568.97 1073.87 1568.97 Q1065.82 1568.97 1061.07 1563.91 Q1056.33 1558.85 1056.33 1550.25 Q1056.33 1541.53 1061.11 1536.53 Q1065.91 1531.54 1074.25 1531.54 Q1076.96 1531.54 1079.53 1532.11 Q1082.11 1532.65 1084.53 1533.76 Z" fill="#000000" fill-rule="nonzero" fill-opacity="1" /><path clip-path="url(#clip710)" d="M1108.53 1536.5 Q1103.82 1536.5 1101.08 1540.19 Q1098.34 1543.85 1098.34 1550.25 Q1098.34 1556.65 1101.05 1560.34 Q1103.79 1564 1108.53 1564 Q1113.21 1564 1115.95 1560.31 Q1118.68 1556.62 1118.68 1550.25 Q1118.68 1543.92 1115.95 1540.23 Q1113.21 1536.5 1108.53 1536.5 M1108.53 1531.54 Q1116.17 1531.54 1120.53 1536.5 Q1124.89 1541.47 1124.89 1550.25 Q1124.89 1559 1120.53 1564 Q1116.17 1568.97 1108.53 1568.97 Q1100.86 1568.97 1096.5 1564 Q1092.17 1559 1092.17 1550.25 Q1092.17 1541.47 1096.5 1536.5 Q1100.86 1531.54 1108.53 1531.54 Z" fill="#000000" fill-rule="nonzero" fill-opacity="1" /><path clip-path="url(#clip710)" d="M1164.23 1546.53 L1164.23 1568.04 L1158.37 1568.04 L1158.37 1546.72 Q1158.37 1541.66 1156.4 1539.14 Q1154.43 1536.63 1150.48 1536.63 Q1145.74 1536.63 1143 1539.65 Q1140.26 1542.68 1140.26 1547.9 L1140.26 1568.04 L1134.37 1568.04 L1134.37 1532.4 L1140.26 1532.4 L1140.26 1537.93 Q1142.36 1534.72 1145.2 1533.13 Q1148.06 1531.54 1151.78 1531.54 Q1157.93 1531.54 1161.08 1535.36 Q1164.23 1539.14 1164.23 1546.53 Z" fill="#000000" fill-rule="nonzero" fill-opacity="1" /><path clip-path="url(#clip710)" d="M1201.56 1533.76 L1201.56 1539.24 Q1199.08 1537.87 1196.57 1537.2 Q1194.09 1536.5 1191.54 1536.5 Q1185.84 1536.5 1182.69 1540.13 Q1179.54 1543.73 1179.54 1550.25 Q1179.54 1556.78 1182.69 1560.4 Q1185.84 1564 1191.54 1564 Q1194.09 1564 1196.57 1563.33 Q1199.08 1562.63 1201.56 1561.26 L1201.56 1566.68 Q1199.11 1567.82 1196.47 1568.39 Q1193.86 1568.97 1190.9 1568.97 Q1182.85 1568.97 1178.11 1563.91 Q1173.36 1558.85 1173.36 1550.25 Q1173.36 1541.53 1178.14 1536.53 Q1182.95 1531.54 1191.28 1531.54 Q1193.99 1531.54 1196.57 1532.11 Q1199.15 1532.65 1201.56 1533.76 Z" fill="#000000" fill-rule="nonzero" fill-opacity="1" /><path clip-path="url(#clip710)" d="M1242.24 1548.76 L1242.24 1551.62 L1215.31 1551.62 Q1215.7 1557.67 1218.94 1560.85 Q1222.22 1564 1228.05 1564 Q1231.42 1564 1234.57 1563.17 Q1237.75 1562.35 1240.87 1560.69 L1240.87 1566.23 Q1237.72 1567.57 1234.41 1568.27 Q1231.1 1568.97 1227.7 1568.97 Q1219.17 1568.97 1214.17 1564 Q1209.2 1559.04 1209.2 1550.57 Q1209.2 1541.82 1213.91 1536.69 Q1218.66 1531.54 1226.68 1531.54 Q1233.87 1531.54 1238.04 1536.18 Q1242.24 1540.8 1242.24 1548.76 M1236.39 1547.04 Q1236.32 1542.23 1233.68 1539.37 Q1231.07 1536.5 1226.74 1536.5 Q1221.84 1536.5 1218.88 1539.27 Q1215.95 1542.04 1215.51 1547.07 L1236.39 1547.04 Z" fill="#000000" fill-rule="nonzero" fill-opacity="1" /><path clip-path="url(#clip710)" d="M1281.49 1546.53 L1281.49 1568.04 L1275.63 1568.04 L1275.63 1546.72 Q1275.63 1541.66 1273.66 1539.14 Q1271.68 1536.63 1267.74 1536.63 Q1262.99 1536.63 1260.26 1539.65 Q1257.52 1542.68 1257.52 1547.9 L1257.52 1568.04 L1251.63 1568.04 L1251.63 1532.4 L1257.52 1532.4 L1257.52 1537.93 Q1259.62 1534.72 1262.45 1533.13 Q1265.32 1531.54 1269.04 1531.54 Q1275.18 1531.54 1278.34 1535.36 Q1281.49 1539.14 1281.49 1546.53 Z" fill="#000000" fill-rule="nonzero" fill-opacity="1" /><path clip-path="url(#clip710)" d="M1298.96 1522.27 L1298.96 1532.4 L1311.02 1532.4 L1311.02 1536.95 L1298.96 1536.95 L1298.96 1556.3 Q1298.96 1560.66 1300.14 1561.9 Q1301.35 1563.14 1305.01 1563.14 L1311.02 1563.14 L1311.02 1568.04 L1305.01 1568.04 Q1298.23 1568.04 1295.65 1565.53 Q1293.07 1562.98 1293.07 1556.3 L1293.07 1536.95 L1288.77 1536.95 L1288.77 1532.4 L1293.07 1532.4 L1293.07 1522.27 L1298.96 1522.27 Z" fill="#000000" fill-rule="nonzero" fill-opacity="1" /><path clip-path="url(#clip710)" d="M1339.38 1537.87 Q1338.4 1537.3 1337.22 1537.04 Q1336.07 1536.76 1334.67 1536.76 Q1329.71 1536.76 1327.03 1540 Q1324.39 1543.22 1324.39 1549.27 L1324.39 1568.04 L1318.5 1568.04 L1318.5 1532.4 L1324.39 1532.4 L1324.39 1537.93 Q1326.24 1534.69 1329.2 1533.13 Q1332.16 1531.54 1336.39 1531.54 Q1337 1531.54 1337.73 1531.63 Q1338.46 1531.7 1339.35 1531.85 L1339.38 1537.87 Z" fill="#000000" fill-rule="nonzero" fill-opacity="1" /><path clip-path="url(#clip710)" d="M1361.73 1550.12 Q1354.63 1550.12 1351.89 1551.75 Q1349.15 1553.37 1349.15 1557.29 Q1349.15 1560.4 1351.19 1562.25 Q1353.26 1564.07 1356.79 1564.07 Q1361.66 1564.07 1364.59 1560.63 Q1367.55 1557.16 1367.55 1551.43 L1367.55 1550.12 L1361.73 1550.12 M1373.41 1547.71 L1373.41 1568.04 L1367.55 1568.04 L1367.55 1562.63 Q1365.55 1565.88 1362.55 1567.44 Q1359.56 1568.97 1355.23 1568.97 Q1349.76 1568.97 1346.51 1565.91 Q1343.3 1562.82 1343.3 1557.67 Q1343.3 1551.65 1347.31 1548.6 Q1351.35 1545.54 1359.34 1545.54 L1367.55 1545.54 L1367.55 1544.97 Q1367.55 1540.93 1364.88 1538.73 Q1362.24 1536.5 1357.43 1536.5 Q1354.37 1536.5 1351.48 1537.23 Q1348.58 1537.97 1345.91 1539.43 L1345.91 1534.02 Q1349.12 1532.78 1352.15 1532.17 Q1355.17 1531.54 1358.03 1531.54 Q1365.77 1531.54 1369.59 1535.55 Q1373.41 1539.56 1373.41 1547.71 Z" fill="#000000" fill-rule="nonzero" fill-opacity="1" /><path clip-path="url(#clip710)" d="M1391.26 1522.27 L1391.26 1532.4 L1403.33 1532.4 L1403.33 1536.95 L1391.26 1536.95 L1391.26 1556.3 Q1391.26 1560.66 1392.44 1561.9 Q1393.65 1563.14 1397.31 1563.14 L1403.33 1563.14 L1403.33 1568.04 L1397.31 1568.04 Q1390.53 1568.04 1387.95 1565.53 Q1385.37 1562.98 1385.37 1556.3 L1385.37 1536.95 L1381.08 1536.95 L1381.08 1532.4 L1385.37 1532.4 L1385.37 1522.27 L1391.26 1522.27 Z" fill="#000000" fill-rule="nonzero" fill-opacity="1" /><path clip-path="url(#clip710)" d="M1411.03 1532.4 L1416.88 1532.4 L1416.88 1568.04 L1411.03 1568.04 L1411.03 1532.4 M1411.03 1518.52 L1416.88 1518.52 L1416.88 1525.93 L1411.03 1525.93 L1411.03 1518.52 Z" fill="#000000" fill-rule="nonzero" fill-opacity="1" /><path clip-path="url(#clip710)" d="M1442.95 1536.5 Q1438.24 1536.5 1435.5 1540.19 Q1432.77 1543.85 1432.77 1550.25 Q1432.77 1556.65 1435.47 1560.34 Q1438.21 1564 1442.95 1564 Q1447.63 1564 1450.37 1560.31 Q1453.11 1556.62 1453.11 1550.25 Q1453.11 1543.92 1450.37 1540.23 Q1447.63 1536.5 1442.95 1536.5 M1442.95 1531.54 Q1450.59 1531.54 1454.95 1536.5 Q1459.31 1541.47 1459.31 1550.25 Q1459.31 1559 1454.95 1564 Q1450.59 1568.97 1442.95 1568.97 Q1435.28 1568.97 1430.92 1564 Q1426.59 1559 1426.59 1550.25 Q1426.59 1541.47 1430.92 1536.5 Q1435.28 1531.54 1442.95 1531.54 Z" fill="#000000" fill-rule="nonzero" fill-opacity="1" /><path clip-path="url(#clip710)" d="M1498.65 1546.53 L1498.65 1568.04 L1492.8 1568.04 L1492.8 1546.72 Q1492.8 1541.66 1490.82 1539.14 Q1488.85 1536.63 1484.9 1536.63 Q1480.16 1536.63 1477.42 1539.65 Q1474.69 1542.68 1474.69 1547.9 L1474.69 1568.04 L1468.8 1568.04 L1468.8 1532.4 L1474.69 1532.4 L1474.69 1537.93 Q1476.79 1534.72 1479.62 1533.13 Q1482.48 1531.54 1486.21 1531.54 Q1492.35 1531.54 1495.5 1535.36 Q1498.65 1539.14 1498.65 1546.53 Z" fill="#000000" fill-rule="nonzero" fill-opacity="1" /><polyline clip-path="url(#clip710)" style="stroke:#000000; stroke-linecap:round; stroke-linejoin:round; stroke-width:4; stroke-opacity:1; fill:none" points="202.227,1423.18 202.227,47.2441 "/>
<polyline clip-path="url(#clip710)" style="stroke:#000000; stroke-linecap:round; stroke-linejoin:round; stroke-width:4; stroke-opacity:1; fill:none" points="202.227,1240.01 221.125,1240.01 "/>
<polyline clip-path="url(#clip710)" style="stroke:#000000; stroke-linecap:round; stroke-linejoin:round; stroke-width:4; stroke-opacity:1; fill:none" points="202.227,951.554 221.125,951.554 "/>
<polyline clip-path="url(#clip710)" style="stroke:#000000; stroke-linecap:round; stroke-linejoin:round; stroke-width:4; stroke-opacity:1; fill:none" points="202.227,663.098 221.125,663.098 "/>
<polyline clip-path="url(#clip710)" style="stroke:#000000; stroke-linecap:round; stroke-linejoin:round; stroke-width:4; stroke-opacity:1; fill:none" points="202.227,374.642 221.125,374.642 "/>
<polyline clip-path="url(#clip710)" style="stroke:#000000; stroke-linecap:round; stroke-linejoin:round; stroke-width:4; stroke-opacity:1; fill:none" points="202.227,86.1857 221.125,86.1857 "/>
<path clip-path="url(#clip710)" d="M149.908 1253.36 L166.227 1253.36 L166.227 1257.29 L144.283 1257.29 L144.283 1253.36 Q146.945 1250.6 151.528 1245.97 Q156.135 1241.32 157.315 1239.98 Q159.561 1237.45 160.44 1235.72 Q161.343 1233.96 161.343 1232.27 Q161.343 1229.51 159.399 1227.78 Q157.478 1226.04 154.376 1226.04 Q152.177 1226.04 149.723 1226.8 Q147.292 1227.57 144.515 1229.12 L144.515 1224.4 Q147.339 1223.26 149.792 1222.68 Q152.246 1222.11 154.283 1222.11 Q159.653 1222.11 162.848 1224.79 Q166.042 1227.48 166.042 1231.97 Q166.042 1234.1 165.232 1236.02 Q164.445 1237.92 162.339 1240.51 Q161.76 1241.18 158.658 1244.4 Q155.556 1247.59 149.908 1253.36 Z" fill="#000000" fill-rule="nonzero" fill-opacity="1" /><path clip-path="url(#clip710)" d="M156.644 938.348 L144.839 956.797 L156.644 956.797 L156.644 938.348 M155.417 934.274 L161.297 934.274 L161.297 956.797 L166.227 956.797 L166.227 960.686 L161.297 960.686 L161.297 968.834 L156.644 968.834 L156.644 960.686 L141.042 960.686 L141.042 956.172 L155.417 934.274 Z" fill="#000000" fill-rule="nonzero" fill-opacity="1" /><path clip-path="url(#clip710)" d="M154.7 661.235 Q151.552 661.235 149.7 663.387 Q147.871 665.54 147.871 669.29 Q147.871 673.017 149.7 675.193 Q151.552 677.346 154.7 677.346 Q157.848 677.346 159.677 675.193 Q161.528 673.017 161.528 669.29 Q161.528 665.54 159.677 663.387 Q157.848 661.235 154.7 661.235 M163.982 646.582 L163.982 650.841 Q162.223 650.008 160.417 649.568 Q158.635 649.128 156.876 649.128 Q152.246 649.128 149.792 652.253 Q147.362 655.378 147.015 661.697 Q148.38 659.684 150.441 658.619 Q152.501 657.531 154.978 657.531 Q160.186 657.531 163.195 660.702 Q166.227 663.85 166.227 669.29 Q166.227 674.614 163.079 677.832 Q159.931 681.049 154.7 681.049 Q148.704 681.049 145.533 676.466 Q142.362 671.859 142.362 663.133 Q142.362 654.938 146.251 650.077 Q150.14 645.193 156.69 645.193 Q158.45 645.193 160.232 645.54 Q162.038 645.887 163.982 646.582 Z" fill="#000000" fill-rule="nonzero" fill-opacity="1" /><path clip-path="url(#clip710)" d="M154.376 375.51 Q151.042 375.51 149.121 377.292 Q147.223 379.075 147.223 382.2 Q147.223 385.325 149.121 387.107 Q151.042 388.889 154.376 388.889 Q157.709 388.889 159.63 387.107 Q161.552 385.301 161.552 382.2 Q161.552 379.075 159.63 377.292 Q157.732 375.51 154.376 375.51 M149.7 373.519 Q146.691 372.778 145.001 370.718 Q143.334 368.658 143.334 365.695 Q143.334 361.552 146.274 359.144 Q149.237 356.737 154.376 356.737 Q159.538 356.737 162.477 359.144 Q165.417 361.552 165.417 365.695 Q165.417 368.658 163.727 370.718 Q162.061 372.778 159.075 373.519 Q162.454 374.306 164.329 376.598 Q166.227 378.889 166.227 382.2 Q166.227 387.223 163.149 389.908 Q160.093 392.593 154.376 392.593 Q148.658 392.593 145.579 389.908 Q142.524 387.223 142.524 382.2 Q142.524 378.889 144.422 376.598 Q146.32 374.306 149.7 373.519 M147.987 366.135 Q147.987 368.82 149.653 370.325 Q151.343 371.829 154.376 371.829 Q157.385 371.829 159.075 370.325 Q160.788 368.82 160.788 366.135 Q160.788 363.45 159.075 361.945 Q157.385 360.44 154.376 360.44 Q151.343 360.44 149.653 361.945 Q147.987 363.45 147.987 366.135 Z" fill="#000000" fill-rule="nonzero" fill-opacity="1" /><path clip-path="url(#clip710)" d="M114.931 99.5305 L122.57 99.5305 L122.57 73.1649 L114.26 74.8316 L114.26 70.5723 L122.524 68.9057 L127.2 68.9057 L127.2 99.5305 L134.839 99.5305 L134.839 103.466 L114.931 103.466 L114.931 99.5305 Z" fill="#000000" fill-rule="nonzero" fill-opacity="1" /><path clip-path="url(#clip710)" d="M154.283 71.9844 Q150.672 71.9844 148.843 75.5492 Q147.038 79.0908 147.038 86.2204 Q147.038 93.3268 148.843 96.8916 Q150.672 100.433 154.283 100.433 Q157.917 100.433 159.723 96.8916 Q161.552 93.3268 161.552 86.2204 Q161.552 79.0908 159.723 75.5492 Q157.917 71.9844 154.283 71.9844 M154.283 68.2807 Q160.093 68.2807 163.149 72.8871 Q166.227 77.4704 166.227 86.2204 Q166.227 94.9472 163.149 99.5537 Q160.093 104.137 154.283 104.137 Q148.473 104.137 145.394 99.5537 Q142.339 94.9472 142.339 86.2204 Q142.339 77.4704 145.394 72.8871 Q148.473 68.2807 154.283 68.2807 Z" fill="#000000" fill-rule="nonzero" fill-opacity="1" /><path clip-path="url(#clip710)" d="M29.4065 801.463 L34.9447 801.463 Q33.6716 803.946 33.035 806.619 Q32.3984 809.293 32.3984 812.157 Q32.3984 816.518 33.7352 818.714 Q35.072 820.878 37.7456 820.878 Q39.7826 820.878 40.9603 819.319 Q42.1061 817.759 43.1565 813.049 L43.6021 811.043 Q44.9389 804.805 47.3897 802.195 Q49.8086 799.553 54.1691 799.553 Q59.1344 799.553 62.0308 803.5 Q64.9272 807.415 64.9272 814.29 Q64.9272 817.155 64.3543 820.274 Q63.8132 823.361 62.6992 826.799 L56.6518 826.799 Q58.3387 823.552 59.198 820.401 Q60.0256 817.25 60.0256 814.163 Q60.0256 810.025 58.6251 807.797 Q57.1929 805.569 54.6147 805.569 Q52.2276 805.569 50.9545 807.192 Q49.6813 808.784 48.5037 814.226 L48.0262 816.263 Q46.8804 821.706 44.5251 824.125 Q42.138 826.544 38.0002 826.544 Q32.9713 826.544 30.2341 822.979 Q27.4968 819.414 27.4968 812.858 Q27.4968 809.611 27.9743 806.747 Q28.4517 803.882 29.4065 801.463 Z" fill="#000000" fill-rule="nonzero" fill-opacity="1" /><path clip-path="url(#clip710)" d="M28.3562 790.228 L28.3562 784.371 L64.0042 784.371 L64.0042 790.228 L28.3562 790.228 M14.479 790.228 L14.479 784.371 L21.895 784.371 L21.895 790.228 L14.479 790.228 Z" fill="#000000" fill-rule="nonzero" fill-opacity="1" /><path clip-path="url(#clip710)" d="M45.7664 748.66 Q39.4007 748.66 35.8996 751.301 Q32.3984 753.911 32.3984 758.654 Q32.3984 763.364 35.8996 766.006 Q39.4007 768.616 45.7664 768.616 Q52.1003 768.616 55.6014 766.006 Q59.1026 763.364 59.1026 758.654 Q59.1026 753.911 55.6014 751.301 Q52.1003 748.66 45.7664 748.66 M59.58 742.803 Q68.683 742.803 73.1071 746.845 Q77.5631 750.888 77.5631 759.227 Q77.5631 762.314 77.0857 765.051 Q76.6401 767.788 75.6852 770.367 L69.9879 770.367 Q71.3884 767.788 72.0568 765.274 Q72.7252 762.76 72.7252 760.15 Q72.7252 754.389 69.7015 751.524 Q66.7096 748.66 60.6303 748.66 L57.7339 748.66 Q60.885 750.474 62.4446 753.306 Q64.0042 756.139 64.0042 760.086 Q64.0042 766.643 59.0071 770.653 Q54.01 774.663 45.7664 774.663 Q37.491 774.663 32.4939 770.653 Q27.4968 766.643 27.4968 760.086 Q27.4968 756.139 29.0564 753.306 Q30.616 750.474 33.7671 748.66 L28.3562 748.66 L28.3562 742.803 L59.58 742.803 Z" fill="#000000" fill-rule="nonzero" fill-opacity="1" /><path clip-path="url(#clip710)" d="M42.4881 701.108 L64.0042 701.108 L64.0042 706.964 L42.679 706.964 Q37.6183 706.964 35.1038 708.938 Q32.5894 710.911 32.5894 714.858 Q32.5894 719.6 35.6131 722.337 Q38.6368 725.075 43.8567 725.075 L64.0042 725.075 L64.0042 730.963 L28.3562 730.963 L28.3562 725.075 L33.8944 725.075 Q30.6797 722.974 29.0883 720.141 Q27.4968 717.277 27.4968 713.553 Q27.4968 707.41 31.3163 704.259 Q35.1038 701.108 42.4881 701.108 Z" fill="#000000" fill-rule="nonzero" fill-opacity="1" /><path clip-path="url(#clip710)" d="M46.0847 673.226 Q46.0847 680.324 47.7079 683.061 Q49.3312 685.798 53.2461 685.798 Q56.3653 685.798 58.2114 683.761 Q60.0256 681.692 60.0256 678.159 Q60.0256 673.29 56.5881 670.361 Q53.1188 667.401 47.3897 667.401 L46.0847 667.401 L46.0847 673.226 M43.6657 661.545 L64.0042 661.545 L64.0042 667.401 L58.5933 667.401 Q61.8398 669.406 63.3994 672.398 Q64.9272 675.39 64.9272 679.719 Q64.9272 685.193 61.8716 688.44 Q58.7843 691.655 53.6281 691.655 Q47.6125 691.655 44.5569 687.644 Q41.5014 683.602 41.5014 675.613 L41.5014 667.401 L40.9285 667.401 Q36.8862 667.401 34.6901 670.075 Q32.4621 672.717 32.4621 677.523 Q32.4621 680.578 33.1941 683.475 Q33.9262 686.371 35.3903 689.045 L29.9795 689.045 Q28.7381 685.83 28.1334 682.806 Q27.4968 679.783 27.4968 676.918 Q27.4968 669.184 31.5072 665.364 Q35.5176 661.545 43.6657 661.545 Z" fill="#000000" fill-rule="nonzero" fill-opacity="1" /><path clip-path="url(#clip710)" d="M14.479 649.482 L14.479 643.625 L64.0042 643.625 L64.0042 649.482 L14.479 649.482 Z" fill="#000000" fill-rule="nonzero" fill-opacity="1" /><circle clip-path="url(#clip712)" cx="263.091" cy="1384.24" r="14.4" fill="#009af9" fill-rule="evenodd" fill-opacity="1" stroke="#000000" stroke-opacity="1" stroke-width="3.2"/>
<circle clip-path="url(#clip712)" cx="476.263" cy="1240.01" r="14.4" fill="#009af9" fill-rule="evenodd" fill-opacity="1" stroke="#000000" stroke-opacity="1" stroke-width="3.2"/>
<circle clip-path="url(#clip712)" cx="484.581" cy="1240.01" r="14.4" fill="#009af9" fill-rule="evenodd" fill-opacity="1" stroke="#000000" stroke-opacity="1" stroke-width="3.2"/>
<circle clip-path="url(#clip712)" cx="593.133" cy="1095.78" r="14.4" fill="#009af9" fill-rule="evenodd" fill-opacity="1" stroke="#000000" stroke-opacity="1" stroke-width="3.2"/>
<circle clip-path="url(#clip712)" cx="804.636" cy="951.554" r="14.4" fill="#009af9" fill-rule="evenodd" fill-opacity="1" stroke="#000000" stroke-opacity="1" stroke-width="3.2"/>
<circle clip-path="url(#clip712)" cx="821.808" cy="951.554" r="14.4" fill="#009af9" fill-rule="evenodd" fill-opacity="1" stroke="#000000" stroke-opacity="1" stroke-width="3.2"/>
<circle clip-path="url(#clip712)" cx="1058.72" cy="807.326" r="14.4" fill="#009af9" fill-rule="evenodd" fill-opacity="1" stroke="#000000" stroke-opacity="1" stroke-width="3.2"/>
<circle clip-path="url(#clip712)" cx="1239.36" cy="663.098" r="14.4" fill="#009af9" fill-rule="evenodd" fill-opacity="1" stroke="#000000" stroke-opacity="1" stroke-width="3.2"/>
<circle clip-path="url(#clip712)" cx="1294.95" cy="663.098" r="14.4" fill="#009af9" fill-rule="evenodd" fill-opacity="1" stroke="#000000" stroke-opacity="1" stroke-width="3.2"/>
<circle clip-path="url(#clip712)" cx="2291.89" cy="230.414" r="14.4" fill="#009af9" fill-rule="evenodd" fill-opacity="1" stroke="#000000" stroke-opacity="1" stroke-width="3.2"/>
<polyline clip-path="url(#clip712)" style="stroke:#e26f46; stroke-linecap:round; stroke-linejoin:round; stroke-width:4; stroke-opacity:1; fill:none" points="263.091,1310.87 476.263,1187.32 484.581,1182.5 593.133,1119.59 804.636,997.012 821.808,987.06 1058.72,849.755 1239.36,745.065 1294.95,712.845 2291.89,135.059 "/>
<polyline clip-path="url(#clip712)" style="stroke:#3da44d; stroke-linecap:round; stroke-linejoin:round; stroke-width:4; stroke-opacity:1; fill:none" points="263.091,86.1857 476.263,86.1857 484.581,86.1857 593.133,86.1857 804.636,86.1857 821.808,86.1857 1058.72,86.1857 1239.36,86.1857 1294.95,86.1857 2291.89,86.1857 "/>
<path clip-path="url(#clip710)" d="M1598.73 1377.32 L2281.07 1377.32 L2281.07 1169.96 L1598.73 1169.96  Z" fill="#ffffff" fill-rule="evenodd" fill-opacity="1"/>
<polyline clip-path="url(#clip710)" style="stroke:#000000; stroke-linecap:round; stroke-linejoin:round; stroke-width:4; stroke-opacity:1; fill:none" points="1598.73,1377.32 2281.07,1377.32 2281.07,1169.96 1598.73,1169.96 1598.73,1377.32 "/>
<circle clip-path="url(#clip710)" cx="1694.31" cy="1221.8" r="20.48" fill="#009af9" fill-rule="evenodd" fill-opacity="1" stroke="#000000" stroke-opacity="1" stroke-width="4.55111"/>
<path clip-path="url(#clip710)" d="M1810.23 1218.13 Q1811.83 1215.26 1814.05 1213.89 Q1816.28 1212.52 1819.29 1212.52 Q1823.34 1212.52 1825.54 1215.37 Q1827.73 1218.2 1827.73 1223.43 L1827.73 1239.08 L1823.45 1239.08 L1823.45 1223.57 Q1823.45 1219.84 1822.13 1218.03 Q1820.81 1216.23 1818.11 1216.23 Q1814.79 1216.23 1812.87 1218.43 Q1810.95 1220.63 1810.95 1224.42 L1810.95 1239.08 L1806.67 1239.08 L1806.67 1223.57 Q1806.67 1219.82 1805.35 1218.03 Q1804.03 1216.23 1801.28 1216.23 Q1798.01 1216.23 1796.09 1218.45 Q1794.17 1220.65 1794.17 1224.42 L1794.17 1239.08 L1789.89 1239.08 L1789.89 1213.15 L1794.17 1213.15 L1794.17 1217.18 Q1795.63 1214.79 1797.67 1213.66 Q1799.7 1212.52 1802.5 1212.52 Q1805.33 1212.52 1807.3 1213.96 Q1809.29 1215.39 1810.23 1218.13 Z" fill="#000000" fill-rule="nonzero" fill-opacity="1" /><path clip-path="url(#clip710)" d="M1858.41 1225.05 L1858.41 1227.13 L1838.82 1227.13 Q1839.1 1231.53 1841.46 1233.84 Q1843.85 1236.14 1848.08 1236.14 Q1850.54 1236.14 1852.83 1235.53 Q1855.14 1234.93 1857.41 1233.73 L1857.41 1237.76 Q1855.12 1238.73 1852.71 1239.24 Q1850.3 1239.75 1847.83 1239.75 Q1841.62 1239.75 1837.99 1236.14 Q1834.38 1232.52 1834.38 1226.37 Q1834.38 1220 1837.8 1216.27 Q1841.25 1212.52 1847.09 1212.52 Q1852.32 1212.52 1855.35 1215.9 Q1858.41 1219.26 1858.41 1225.05 M1854.15 1223.8 Q1854.1 1220.3 1852.18 1218.22 Q1850.28 1216.14 1847.13 1216.14 Q1843.57 1216.14 1841.42 1218.15 Q1839.29 1220.16 1838.96 1223.82 L1854.15 1223.8 Z" fill="#000000" fill-rule="nonzero" fill-opacity="1" /><path clip-path="url(#clip710)" d="M1877.18 1226.04 Q1872.02 1226.04 1870.03 1227.22 Q1868.04 1228.4 1868.04 1231.25 Q1868.04 1233.52 1869.52 1234.86 Q1871.02 1236.18 1873.59 1236.18 Q1877.13 1236.18 1879.26 1233.68 Q1881.41 1231.16 1881.41 1226.99 L1881.41 1226.04 L1877.18 1226.04 M1885.67 1224.28 L1885.67 1239.08 L1881.41 1239.08 L1881.41 1235.14 Q1879.96 1237.5 1877.78 1238.64 Q1875.6 1239.75 1872.46 1239.75 Q1868.48 1239.75 1866.11 1237.52 Q1863.78 1235.28 1863.78 1231.53 Q1863.78 1227.15 1866.69 1224.93 Q1869.63 1222.71 1875.44 1222.71 L1881.41 1222.71 L1881.41 1222.29 Q1881.41 1219.35 1879.47 1217.76 Q1877.55 1216.14 1874.05 1216.14 Q1871.83 1216.14 1869.73 1216.67 Q1867.62 1217.2 1865.67 1218.27 L1865.67 1214.33 Q1868.01 1213.43 1870.21 1212.99 Q1872.41 1212.52 1874.49 1212.52 Q1880.12 1212.52 1882.9 1215.44 Q1885.67 1218.36 1885.67 1224.28 Z" fill="#000000" fill-rule="nonzero" fill-opacity="1" /><path clip-path="url(#clip710)" d="M1910.98 1213.91 L1910.98 1217.94 Q1909.17 1217.02 1907.23 1216.55 Q1905.28 1216.09 1903.2 1216.09 Q1900.03 1216.09 1898.43 1217.06 Q1896.85 1218.03 1896.85 1219.98 Q1896.85 1221.46 1897.99 1222.32 Q1899.12 1223.15 1902.55 1223.91 L1904.01 1224.24 Q1908.54 1225.21 1910.44 1226.99 Q1912.36 1228.75 1912.36 1231.92 Q1912.36 1235.53 1909.49 1237.64 Q1906.65 1239.75 1901.65 1239.75 Q1899.56 1239.75 1897.29 1239.33 Q1895.05 1238.94 1892.55 1238.13 L1892.55 1233.73 Q1894.91 1234.95 1897.2 1235.58 Q1899.49 1236.18 1901.74 1236.18 Q1904.75 1236.18 1906.37 1235.16 Q1907.99 1234.12 1907.99 1232.25 Q1907.99 1230.51 1906.81 1229.58 Q1905.65 1228.66 1901.69 1227.8 L1900.21 1227.46 Q1896.25 1226.62 1894.49 1224.91 Q1892.73 1223.17 1892.73 1220.16 Q1892.73 1216.51 1895.33 1214.52 Q1897.92 1212.52 1902.69 1212.52 Q1905.05 1212.52 1907.13 1212.87 Q1909.22 1213.22 1910.98 1213.91 Z" fill="#000000" fill-rule="nonzero" fill-opacity="1" /><path clip-path="url(#clip710)" d="M1918.71 1228.84 L1918.71 1213.15 L1922.97 1213.15 L1922.97 1228.68 Q1922.97 1232.36 1924.4 1234.21 Q1925.84 1236.04 1928.71 1236.04 Q1932.16 1236.04 1934.15 1233.84 Q1936.16 1231.64 1936.16 1227.85 L1936.16 1213.15 L1940.42 1213.15 L1940.42 1239.08 L1936.16 1239.08 L1936.16 1235.09 Q1934.61 1237.45 1932.55 1238.61 Q1930.51 1239.75 1927.8 1239.75 Q1923.34 1239.75 1921.02 1236.97 Q1918.71 1234.19 1918.71 1228.84 M1929.42 1212.52 L1929.42 1212.52 Z" fill="#000000" fill-rule="nonzero" fill-opacity="1" /><path clip-path="url(#clip710)" d="M1964.22 1217.13 Q1963.5 1216.71 1962.64 1216.53 Q1961.81 1216.32 1960.79 1216.32 Q1957.18 1216.32 1955.23 1218.68 Q1953.31 1221.02 1953.31 1225.42 L1953.31 1239.08 L1949.03 1239.08 L1949.03 1213.15 L1953.31 1213.15 L1953.31 1217.18 Q1954.66 1214.82 1956.81 1213.68 Q1958.96 1212.52 1962.04 1212.52 Q1962.48 1212.52 1963.01 1212.59 Q1963.54 1212.64 1964.19 1212.76 L1964.22 1217.13 Z" fill="#000000" fill-rule="nonzero" fill-opacity="1" /><path clip-path="url(#clip710)" d="M1989.82 1225.05 L1989.82 1227.13 L1970.23 1227.13 Q1970.51 1231.53 1972.87 1233.84 Q1975.26 1236.14 1979.49 1236.14 Q1981.95 1236.14 1984.24 1235.53 Q1986.55 1234.93 1988.82 1233.73 L1988.82 1237.76 Q1986.53 1238.73 1984.12 1239.24 Q1981.72 1239.75 1979.24 1239.75 Q1973.03 1239.75 1969.4 1236.14 Q1965.79 1232.52 1965.79 1226.37 Q1965.79 1220 1969.22 1216.27 Q1972.66 1212.52 1978.5 1212.52 Q1983.73 1212.52 1986.76 1215.9 Q1989.82 1219.26 1989.82 1225.05 M1985.56 1223.8 Q1985.51 1220.3 1983.59 1218.22 Q1981.69 1216.14 1978.54 1216.14 Q1974.98 1216.14 1972.83 1218.15 Q1970.7 1220.16 1970.37 1223.82 L1985.56 1223.8 Z" fill="#000000" fill-rule="nonzero" fill-opacity="1" /><path clip-path="url(#clip710)" d="M2013.87 1217.08 L2013.87 1203.06 L2018.13 1203.06 L2018.13 1239.08 L2013.87 1239.08 L2013.87 1235.19 Q2012.53 1237.5 2010.47 1238.64 Q2008.43 1239.75 2005.56 1239.75 Q2000.86 1239.75 1997.9 1236 Q1994.96 1232.25 1994.96 1226.14 Q1994.96 1220.02 1997.9 1216.27 Q2000.86 1212.52 2005.56 1212.52 Q2008.43 1212.52 2010.47 1213.66 Q2012.53 1214.77 2013.87 1217.08 M1999.35 1226.14 Q1999.35 1230.83 2001.28 1233.52 Q2003.22 1236.18 2006.6 1236.18 Q2009.98 1236.18 2011.92 1233.52 Q2013.87 1230.83 2013.87 1226.14 Q2013.87 1221.44 2011.92 1218.77 Q2009.98 1216.09 2006.6 1216.09 Q2003.22 1216.09 2001.28 1218.77 Q1999.35 1221.44 1999.35 1226.14 Z" fill="#000000" fill-rule="nonzero" fill-opacity="1" /><path clip-path="url(#clip710)" d="M2059.03 1217.08 L2059.03 1203.06 L2063.29 1203.06 L2063.29 1239.08 L2059.03 1239.08 L2059.03 1235.19 Q2057.69 1237.5 2055.63 1238.64 Q2053.59 1239.75 2050.72 1239.75 Q2046.02 1239.75 2043.06 1236 Q2040.12 1232.25 2040.12 1226.14 Q2040.12 1220.02 2043.06 1216.27 Q2046.02 1212.52 2050.72 1212.52 Q2053.59 1212.52 2055.63 1213.66 Q2057.69 1214.77 2059.03 1217.08 M2044.52 1226.14 Q2044.52 1230.83 2046.44 1233.52 Q2048.38 1236.18 2051.76 1236.18 Q2055.14 1236.18 2057.09 1233.52 Q2059.03 1230.83 2059.03 1226.14 Q2059.03 1221.44 2057.09 1218.77 Q2055.14 1216.09 2051.76 1216.09 Q2048.38 1216.09 2046.44 1218.77 Q2044.52 1221.44 2044.52 1226.14 Z" fill="#000000" fill-rule="nonzero" fill-opacity="1" /><path clip-path="url(#clip710)" d="M2083.84 1226.04 Q2078.68 1226.04 2076.69 1227.22 Q2074.7 1228.4 2074.7 1231.25 Q2074.7 1233.52 2076.18 1234.86 Q2077.69 1236.18 2080.26 1236.18 Q2083.8 1236.18 2085.93 1233.68 Q2088.08 1231.16 2088.08 1226.99 L2088.08 1226.04 L2083.84 1226.04 M2092.34 1224.28 L2092.34 1239.08 L2088.08 1239.08 L2088.08 1235.14 Q2086.62 1237.5 2084.45 1238.64 Q2082.27 1239.75 2079.12 1239.75 Q2075.14 1239.75 2072.78 1237.52 Q2070.44 1235.28 2070.44 1231.53 Q2070.44 1227.15 2073.36 1224.93 Q2076.3 1222.71 2082.11 1222.71 L2088.08 1222.71 L2088.08 1222.29 Q2088.08 1219.35 2086.14 1217.76 Q2084.21 1216.14 2080.72 1216.14 Q2078.5 1216.14 2076.39 1216.67 Q2074.28 1217.2 2072.34 1218.27 L2072.34 1214.33 Q2074.68 1213.43 2076.88 1212.99 Q2079.08 1212.52 2081.16 1212.52 Q2086.78 1212.52 2089.56 1215.44 Q2092.34 1218.36 2092.34 1224.28 Z" fill="#000000" fill-rule="nonzero" fill-opacity="1" /><path clip-path="url(#clip710)" d="M2105.33 1205.79 L2105.33 1213.15 L2114.1 1213.15 L2114.1 1216.46 L2105.33 1216.46 L2105.33 1230.53 Q2105.33 1233.7 2106.18 1234.61 Q2107.06 1235.51 2109.72 1235.51 L2114.1 1235.51 L2114.1 1239.08 L2109.72 1239.08 Q2104.79 1239.08 2102.92 1237.25 Q2101.04 1235.39 2101.04 1230.53 L2101.04 1216.46 L2097.92 1216.46 L2097.92 1213.15 L2101.04 1213.15 L2101.04 1205.79 L2105.33 1205.79 Z" fill="#000000" fill-rule="nonzero" fill-opacity="1" /><path clip-path="url(#clip710)" d="M2131.48 1226.04 Q2126.32 1226.04 2124.33 1227.22 Q2122.34 1228.4 2122.34 1231.25 Q2122.34 1233.52 2123.82 1234.86 Q2125.33 1236.18 2127.9 1236.18 Q2131.44 1236.18 2133.57 1233.68 Q2135.72 1231.16 2135.72 1226.99 L2135.72 1226.04 L2131.48 1226.04 M2139.98 1224.28 L2139.98 1239.08 L2135.72 1239.08 L2135.72 1235.14 Q2134.26 1237.5 2132.08 1238.64 Q2129.91 1239.75 2126.76 1239.75 Q2122.78 1239.75 2120.42 1237.52 Q2118.08 1235.28 2118.08 1231.53 Q2118.08 1227.15 2121 1224.93 Q2123.94 1222.71 2129.75 1222.71 L2135.72 1222.71 L2135.72 1222.29 Q2135.72 1219.35 2133.77 1217.76 Q2131.85 1216.14 2128.36 1216.14 Q2126.14 1216.14 2124.03 1216.67 Q2121.92 1217.2 2119.98 1218.27 L2119.98 1214.33 Q2122.32 1213.43 2124.52 1212.99 Q2126.71 1212.52 2128.8 1212.52 Q2134.42 1212.52 2137.2 1215.44 Q2139.98 1218.36 2139.98 1224.28 Z" fill="#000000" fill-rule="nonzero" fill-opacity="1" /><polyline clip-path="url(#clip710)" style="stroke:#e26f46; stroke-linecap:round; stroke-linejoin:round; stroke-width:4; stroke-opacity:1; fill:none" points="1622.62,1273.64 1765.99,1273.64 "/>
<path clip-path="url(#clip710)" d="M1810.23 1269.97 Q1811.83 1267.1 1814.05 1265.73 Q1816.28 1264.36 1819.29 1264.36 Q1823.34 1264.36 1825.54 1267.21 Q1827.73 1270.04 1827.73 1275.27 L1827.73 1290.92 L1823.45 1290.92 L1823.45 1275.41 Q1823.45 1271.68 1822.13 1269.87 Q1820.81 1268.07 1818.11 1268.07 Q1814.79 1268.07 1812.87 1270.27 Q1810.95 1272.47 1810.95 1276.26 L1810.95 1290.92 L1806.67 1290.92 L1806.67 1275.41 Q1806.67 1271.66 1805.35 1269.87 Q1804.03 1268.07 1801.28 1268.07 Q1798.01 1268.07 1796.09 1270.29 Q1794.17 1272.49 1794.17 1276.26 L1794.17 1290.92 L1789.89 1290.92 L1789.89 1264.99 L1794.17 1264.99 L1794.17 1269.02 Q1795.63 1266.63 1797.67 1265.5 Q1799.7 1264.36 1802.5 1264.36 Q1805.33 1264.36 1807.3 1265.8 Q1809.29 1267.23 1810.23 1269.97 Z" fill="#000000" fill-rule="nonzero" fill-opacity="1" /><path clip-path="url(#clip710)" d="M1846.28 1267.98 Q1842.85 1267.98 1840.86 1270.66 Q1838.87 1273.32 1838.87 1277.98 Q1838.87 1282.63 1840.84 1285.31 Q1842.83 1287.98 1846.28 1287.98 Q1849.68 1287.98 1851.67 1285.29 Q1853.66 1282.61 1853.66 1277.98 Q1853.66 1273.37 1851.67 1270.68 Q1849.68 1267.98 1846.28 1267.98 M1846.28 1264.36 Q1851.83 1264.36 1855 1267.98 Q1858.17 1271.59 1858.17 1277.98 Q1858.17 1284.34 1855 1287.98 Q1851.83 1291.59 1846.28 1291.59 Q1840.7 1291.59 1837.53 1287.98 Q1834.38 1284.34 1834.38 1277.98 Q1834.38 1271.59 1837.53 1267.98 Q1840.7 1264.36 1846.28 1264.36 Z" fill="#000000" fill-rule="nonzero" fill-opacity="1" /><path clip-path="url(#clip710)" d="M1882.29 1268.92 L1882.29 1254.9 L1886.55 1254.9 L1886.55 1290.92 L1882.29 1290.92 L1882.29 1287.03 Q1880.95 1289.34 1878.89 1290.48 Q1876.85 1291.59 1873.98 1291.59 Q1869.29 1291.59 1866.32 1287.84 Q1863.38 1284.09 1863.38 1277.98 Q1863.38 1271.86 1866.32 1268.11 Q1869.29 1264.36 1873.98 1264.36 Q1876.85 1264.36 1878.89 1265.5 Q1880.95 1266.61 1882.29 1268.92 M1867.78 1277.98 Q1867.78 1282.67 1869.7 1285.36 Q1871.65 1288.02 1875.03 1288.02 Q1878.41 1288.02 1880.35 1285.36 Q1882.29 1282.67 1882.29 1277.98 Q1882.29 1273.28 1880.35 1270.61 Q1878.41 1267.93 1875.03 1267.93 Q1871.65 1267.93 1869.7 1270.61 Q1867.78 1273.28 1867.78 1277.98 Z" fill="#000000" fill-rule="nonzero" fill-opacity="1" /><path clip-path="url(#clip710)" d="M1917.5 1276.89 L1917.5 1278.97 L1897.92 1278.97 Q1898.2 1283.37 1900.56 1285.68 Q1902.94 1287.98 1907.18 1287.98 Q1909.63 1287.98 1911.92 1287.37 Q1914.24 1286.77 1916.51 1285.57 L1916.51 1289.6 Q1914.22 1290.57 1911.81 1291.08 Q1909.4 1291.59 1906.92 1291.59 Q1900.72 1291.59 1897.09 1287.98 Q1893.48 1284.36 1893.48 1278.21 Q1893.48 1271.84 1896.9 1268.11 Q1900.35 1264.36 1906.18 1264.36 Q1911.41 1264.36 1914.45 1267.74 Q1917.5 1271.1 1917.5 1276.89 M1913.24 1275.64 Q1913.2 1272.14 1911.28 1270.06 Q1909.38 1267.98 1906.23 1267.98 Q1902.66 1267.98 1900.51 1269.99 Q1898.38 1272 1898.06 1275.66 L1913.24 1275.64 Z" fill="#000000" fill-rule="nonzero" fill-opacity="1" /><path clip-path="url(#clip710)" d="M1924.49 1254.9 L1928.75 1254.9 L1928.75 1290.92 L1924.49 1290.92 L1924.49 1254.9 Z" fill="#000000" fill-rule="nonzero" fill-opacity="1" /><polyline clip-path="url(#clip710)" style="stroke:#3da44d; stroke-linecap:round; stroke-linejoin:round; stroke-width:4; stroke-opacity:1; fill:none" points="1622.62,1325.48 1765.99,1325.48 "/>
<path clip-path="url(#clip710)" d="M1805.07 1320.81 Q1804.36 1320.39 1803.5 1320.21 Q1802.67 1320 1801.65 1320 Q1798.04 1320 1796.09 1322.36 Q1794.17 1324.7 1794.17 1329.1 L1794.17 1342.76 L1789.89 1342.76 L1789.89 1316.83 L1794.17 1316.83 L1794.17 1320.86 Q1795.51 1318.5 1797.67 1317.36 Q1799.82 1316.2 1802.9 1316.2 Q1803.34 1316.2 1803.87 1316.27 Q1804.4 1316.32 1805.05 1316.44 L1805.07 1320.81 Z" fill="#000000" fill-rule="nonzero" fill-opacity="1" /><path clip-path="url(#clip710)" d="M1821.32 1329.72 Q1816.16 1329.72 1814.17 1330.9 Q1812.18 1332.08 1812.18 1334.93 Q1812.18 1337.2 1813.66 1338.54 Q1815.17 1339.86 1817.73 1339.86 Q1821.28 1339.86 1823.41 1337.36 Q1825.56 1334.84 1825.56 1330.67 L1825.56 1329.72 L1821.32 1329.72 M1829.82 1327.96 L1829.82 1342.76 L1825.56 1342.76 L1825.56 1338.82 Q1824.1 1341.18 1821.92 1342.32 Q1819.75 1343.43 1816.6 1343.43 Q1812.62 1343.43 1810.26 1341.2 Q1807.92 1338.96 1807.92 1335.21 Q1807.92 1330.83 1810.84 1328.61 Q1813.78 1326.39 1819.59 1326.39 L1825.56 1326.39 L1825.56 1325.97 Q1825.56 1323.03 1823.61 1321.44 Q1821.69 1319.82 1818.2 1319.82 Q1815.98 1319.82 1813.87 1320.35 Q1811.76 1320.88 1809.82 1321.95 L1809.82 1318.01 Q1812.16 1317.11 1814.36 1316.67 Q1816.55 1316.2 1818.64 1316.2 Q1824.26 1316.2 1827.04 1319.12 Q1829.82 1322.04 1829.82 1327.96 Z" fill="#000000" fill-rule="nonzero" fill-opacity="1" /><path clip-path="url(#clip710)" d="M1860.14 1327.11 L1860.14 1342.76 L1855.88 1342.76 L1855.88 1327.25 Q1855.88 1323.57 1854.45 1321.74 Q1853.01 1319.91 1850.14 1319.91 Q1846.69 1319.91 1844.7 1322.11 Q1842.71 1324.31 1842.71 1328.1 L1842.71 1342.76 L1838.43 1342.76 L1838.43 1316.83 L1842.71 1316.83 L1842.71 1320.86 Q1844.24 1318.52 1846.3 1317.36 Q1848.38 1316.2 1851.09 1316.2 Q1855.56 1316.2 1857.85 1318.98 Q1860.14 1321.74 1860.14 1327.11 Z" fill="#000000" fill-rule="nonzero" fill-opacity="1" /><path clip-path="url(#clip710)" d="M1885.7 1320.76 L1885.7 1306.74 L1889.96 1306.74 L1889.96 1342.76 L1885.7 1342.76 L1885.7 1338.87 Q1884.35 1341.18 1882.29 1342.32 Q1880.26 1343.43 1877.39 1343.43 Q1872.69 1343.43 1869.73 1339.68 Q1866.79 1335.93 1866.79 1329.82 Q1866.79 1323.7 1869.73 1319.95 Q1872.69 1316.2 1877.39 1316.2 Q1880.26 1316.2 1882.29 1317.34 Q1884.35 1318.45 1885.7 1320.76 M1871.18 1329.82 Q1871.18 1334.51 1873.1 1337.2 Q1875.05 1339.86 1878.43 1339.86 Q1881.81 1339.86 1883.75 1337.2 Q1885.7 1334.51 1885.7 1329.82 Q1885.7 1325.12 1883.75 1322.45 Q1881.81 1319.77 1878.43 1319.77 Q1875.05 1319.77 1873.1 1322.45 Q1871.18 1325.12 1871.18 1329.82 Z" fill="#000000" fill-rule="nonzero" fill-opacity="1" /><path clip-path="url(#clip710)" d="M1908.78 1319.82 Q1905.35 1319.82 1903.36 1322.5 Q1901.37 1325.16 1901.37 1329.82 Q1901.37 1334.47 1903.34 1337.15 Q1905.33 1339.82 1908.78 1339.82 Q1912.18 1339.82 1914.17 1337.13 Q1916.16 1334.45 1916.16 1329.82 Q1916.16 1325.21 1914.17 1322.52 Q1912.18 1319.82 1908.78 1319.82 M1908.78 1316.2 Q1914.33 1316.2 1917.5 1319.82 Q1920.67 1323.43 1920.67 1329.82 Q1920.67 1336.18 1917.5 1339.82 Q1914.33 1343.43 1908.78 1343.43 Q1903.2 1343.43 1900.03 1339.82 Q1896.88 1336.18 1896.88 1329.82 Q1896.88 1323.43 1900.03 1319.82 Q1903.2 1316.2 1908.78 1316.2 Z" fill="#000000" fill-rule="nonzero" fill-opacity="1" /><path clip-path="url(#clip710)" d="M1947.92 1321.81 Q1949.52 1318.94 1951.74 1317.57 Q1953.96 1316.2 1956.97 1316.2 Q1961.02 1316.2 1963.22 1319.05 Q1965.42 1321.88 1965.42 1327.11 L1965.42 1342.76 L1961.14 1342.76 L1961.14 1327.25 Q1961.14 1323.52 1959.82 1321.71 Q1958.5 1319.91 1955.79 1319.91 Q1952.48 1319.91 1950.56 1322.11 Q1948.64 1324.31 1948.64 1328.1 L1948.64 1342.76 L1944.35 1342.76 L1944.35 1327.25 Q1944.35 1323.5 1943.04 1321.71 Q1941.72 1319.91 1938.96 1319.91 Q1935.7 1319.91 1933.78 1322.13 Q1931.85 1324.33 1931.85 1328.1 L1931.85 1342.76 L1927.57 1342.76 L1927.57 1316.83 L1931.85 1316.83 L1931.85 1320.86 Q1933.31 1318.47 1935.35 1317.34 Q1937.39 1316.2 1940.19 1316.2 Q1943.01 1316.2 1944.98 1317.64 Q1946.97 1319.07 1947.92 1321.81 Z" fill="#000000" fill-rule="nonzero" fill-opacity="1" /><path clip-path="url(#clip710)" d="M1993.1 1338.87 L1993.1 1352.62 L1988.82 1352.62 L1988.82 1316.83 L1993.1 1316.83 L1993.1 1320.76 Q1994.45 1318.45 1996.48 1317.34 Q1998.54 1316.2 2001.39 1316.2 Q2006.11 1316.2 2009.05 1319.95 Q2012.02 1323.7 2012.02 1329.82 Q2012.02 1335.93 2009.05 1339.68 Q2006.11 1343.43 2001.39 1343.43 Q1998.54 1343.43 1996.48 1342.32 Q1994.45 1341.18 1993.1 1338.87 M2007.59 1329.82 Q2007.59 1325.12 2005.65 1322.45 Q2003.73 1319.77 2000.35 1319.77 Q1996.97 1319.77 1995.03 1322.45 Q1993.1 1325.12 1993.1 1329.82 Q1993.1 1334.51 1995.03 1337.2 Q1996.97 1339.86 2000.35 1339.86 Q2003.73 1339.86 2005.65 1337.2 Q2007.59 1334.51 2007.59 1329.82 Z" fill="#000000" fill-rule="nonzero" fill-opacity="1" /><path clip-path="url(#clip710)" d="M2030.86 1329.72 Q2025.7 1329.72 2023.71 1330.9 Q2021.72 1332.08 2021.72 1334.93 Q2021.72 1337.2 2023.2 1338.54 Q2024.7 1339.86 2027.27 1339.86 Q2030.81 1339.86 2032.94 1337.36 Q2035.09 1334.84 2035.09 1330.67 L2035.09 1329.72 L2030.86 1329.72 M2039.35 1327.96 L2039.35 1342.76 L2035.09 1342.76 L2035.09 1338.82 Q2033.64 1341.18 2031.46 1342.32 Q2029.28 1343.43 2026.14 1343.43 Q2022.15 1343.43 2019.79 1341.2 Q2017.46 1338.96 2017.46 1335.21 Q2017.46 1330.83 2020.37 1328.61 Q2023.31 1326.39 2029.12 1326.39 L2035.09 1326.39 L2035.09 1325.97 Q2035.09 1323.03 2033.15 1321.44 Q2031.23 1319.82 2027.73 1319.82 Q2025.51 1319.82 2023.4 1320.35 Q2021.3 1320.88 2019.35 1321.95 L2019.35 1318.01 Q2021.69 1317.11 2023.89 1316.67 Q2026.09 1316.2 2028.17 1316.2 Q2033.8 1316.2 2036.58 1319.12 Q2039.35 1322.04 2039.35 1327.96 Z" fill="#000000" fill-rule="nonzero" fill-opacity="1" /><path clip-path="url(#clip710)" d="M2063.15 1320.81 Q2062.43 1320.39 2061.58 1320.21 Q2060.74 1320 2059.72 1320 Q2056.11 1320 2054.17 1322.36 Q2052.25 1324.7 2052.25 1329.1 L2052.25 1342.76 L2047.97 1342.76 L2047.97 1316.83 L2052.25 1316.83 L2052.25 1320.86 Q2053.59 1318.5 2055.74 1317.36 Q2057.9 1316.2 2060.97 1316.2 Q2061.41 1316.2 2061.95 1316.27 Q2062.48 1316.32 2063.13 1316.44 L2063.15 1320.81 Z" fill="#000000" fill-rule="nonzero" fill-opacity="1" /><path clip-path="url(#clip710)" d="M2079.4 1329.72 Q2074.24 1329.72 2072.25 1330.9 Q2070.26 1332.08 2070.26 1334.93 Q2070.26 1337.2 2071.74 1338.54 Q2073.24 1339.86 2075.81 1339.86 Q2079.35 1339.86 2081.48 1337.36 Q2083.64 1334.84 2083.64 1330.67 L2083.64 1329.72 L2079.4 1329.72 M2087.9 1327.96 L2087.9 1342.76 L2083.64 1342.76 L2083.64 1338.82 Q2082.18 1341.18 2080 1342.32 Q2077.83 1343.43 2074.68 1343.43 Q2070.7 1343.43 2068.34 1341.2 Q2066 1338.96 2066 1335.21 Q2066 1330.83 2068.91 1328.61 Q2071.85 1326.39 2077.66 1326.39 L2083.64 1326.39 L2083.64 1325.97 Q2083.64 1323.03 2081.69 1321.44 Q2079.77 1319.82 2076.28 1319.82 Q2074.05 1319.82 2071.95 1320.35 Q2069.84 1320.88 2067.9 1321.95 L2067.9 1318.01 Q2070.23 1317.11 2072.43 1316.67 Q2074.63 1316.2 2076.71 1316.2 Q2082.34 1316.2 2085.12 1319.12 Q2087.9 1322.04 2087.9 1327.96 Z" fill="#000000" fill-rule="nonzero" fill-opacity="1" /><path clip-path="url(#clip710)" d="M2116.85 1321.81 Q2118.45 1318.94 2120.67 1317.57 Q2122.9 1316.2 2125.9 1316.2 Q2129.96 1316.2 2132.15 1319.05 Q2134.35 1321.88 2134.35 1327.11 L2134.35 1342.76 L2130.07 1342.76 L2130.07 1327.25 Q2130.07 1323.52 2128.75 1321.71 Q2127.43 1319.91 2124.72 1319.91 Q2121.41 1319.91 2119.49 1322.11 Q2117.57 1324.31 2117.57 1328.1 L2117.57 1342.76 L2113.29 1342.76 L2113.29 1327.25 Q2113.29 1323.5 2111.97 1321.71 Q2110.65 1319.91 2107.9 1319.91 Q2104.63 1319.91 2102.71 1322.13 Q2100.79 1324.33 2100.79 1328.1 L2100.79 1342.76 L2096.51 1342.76 L2096.51 1316.83 L2100.79 1316.83 L2100.79 1320.86 Q2102.25 1318.47 2104.28 1317.34 Q2106.32 1316.2 2109.12 1316.2 Q2111.95 1316.2 2113.91 1317.64 Q2115.9 1319.07 2116.85 1321.81 Z" fill="#000000" fill-rule="nonzero" fill-opacity="1" /><path clip-path="url(#clip710)" d="M2165.02 1328.73 L2165.02 1330.81 L2145.44 1330.81 Q2145.72 1335.21 2148.08 1337.52 Q2150.46 1339.82 2154.7 1339.82 Q2157.15 1339.82 2159.45 1339.21 Q2161.76 1338.61 2164.03 1337.41 L2164.03 1341.44 Q2161.74 1342.41 2159.33 1342.92 Q2156.92 1343.43 2154.45 1343.43 Q2148.24 1343.43 2144.61 1339.82 Q2141 1336.2 2141 1330.05 Q2141 1323.68 2144.42 1319.95 Q2147.87 1316.2 2153.71 1316.2 Q2158.94 1316.2 2161.97 1319.58 Q2165.02 1322.94 2165.02 1328.73 M2160.77 1327.48 Q2160.72 1323.98 2158.8 1321.9 Q2156.9 1319.82 2153.75 1319.82 Q2150.19 1319.82 2148.03 1321.83 Q2145.9 1323.84 2145.58 1327.5 L2160.77 1327.48 Z" fill="#000000" fill-rule="nonzero" fill-opacity="1" /><path clip-path="url(#clip710)" d="M2176.23 1309.47 L2176.23 1316.83 L2185 1316.83 L2185 1320.14 L2176.23 1320.14 L2176.23 1334.21 Q2176.23 1337.38 2177.08 1338.29 Q2177.96 1339.19 2180.63 1339.19 L2185 1339.19 L2185 1342.76 L2180.63 1342.76 Q2175.7 1342.76 2173.82 1340.93 Q2171.95 1339.07 2171.95 1334.21 L2171.95 1320.14 L2168.82 1320.14 L2168.82 1316.83 L2171.95 1316.83 L2171.95 1309.47 L2176.23 1309.47 Z" fill="#000000" fill-rule="nonzero" fill-opacity="1" /><path clip-path="url(#clip710)" d="M2212.78 1328.73 L2212.78 1330.81 L2193.2 1330.81 Q2193.47 1335.21 2195.83 1337.52 Q2198.22 1339.82 2202.45 1339.82 Q2204.91 1339.82 2207.2 1339.21 Q2209.52 1338.61 2211.78 1337.41 L2211.78 1341.44 Q2209.49 1342.41 2207.08 1342.92 Q2204.68 1343.43 2202.2 1343.43 Q2196 1343.43 2192.36 1339.82 Q2188.75 1336.2 2188.75 1330.05 Q2188.75 1323.68 2192.18 1319.95 Q2195.63 1316.2 2201.46 1316.2 Q2206.69 1316.2 2209.72 1319.58 Q2212.78 1322.94 2212.78 1328.73 M2208.52 1327.48 Q2208.47 1323.98 2206.55 1321.9 Q2204.65 1319.82 2201.51 1319.82 Q2197.94 1319.82 2195.79 1321.83 Q2193.66 1323.84 2193.33 1327.5 L2208.52 1327.48 Z" fill="#000000" fill-rule="nonzero" fill-opacity="1" /><path clip-path="url(#clip710)" d="M2234.79 1320.81 Q2234.08 1320.39 2233.22 1320.21 Q2232.39 1320 2231.37 1320 Q2227.76 1320 2225.81 1322.36 Q2223.89 1324.7 2223.89 1329.1 L2223.89 1342.76 L2219.61 1342.76 L2219.61 1316.83 L2223.89 1316.83 L2223.89 1320.86 Q2225.23 1318.5 2227.39 1317.36 Q2229.54 1316.2 2232.62 1316.2 Q2233.06 1316.2 2233.59 1316.27 Q2234.12 1316.32 2234.77 1316.44 L2234.79 1320.81 Z" fill="#000000" fill-rule="nonzero" fill-opacity="1" /><path clip-path="url(#clip710)" d="M2255.79 1317.59 L2255.79 1321.62 Q2253.98 1320.7 2252.04 1320.23 Q2250.09 1319.77 2248.01 1319.77 Q2244.84 1319.77 2243.24 1320.74 Q2241.67 1321.71 2241.67 1323.66 Q2241.67 1325.14 2242.8 1326 Q2243.94 1326.83 2247.36 1327.59 L2248.82 1327.92 Q2253.36 1328.89 2255.26 1330.67 Q2257.18 1332.43 2257.18 1335.6 Q2257.18 1339.21 2254.31 1341.32 Q2251.46 1343.43 2246.46 1343.43 Q2244.38 1343.43 2242.11 1343.01 Q2239.86 1342.62 2237.36 1341.81 L2237.36 1337.41 Q2239.72 1338.63 2242.01 1339.26 Q2244.31 1339.86 2246.55 1339.86 Q2249.56 1339.86 2251.18 1338.84 Q2252.8 1337.8 2252.8 1335.93 Q2252.8 1334.19 2251.62 1333.26 Q2250.46 1332.34 2246.51 1331.48 L2245.02 1331.14 Q2241.07 1330.3 2239.31 1328.59 Q2237.55 1326.85 2237.55 1323.84 Q2237.55 1320.19 2240.14 1318.2 Q2242.73 1316.2 2247.5 1316.2 Q2249.86 1316.2 2251.95 1316.55 Q2254.03 1316.9 2255.79 1317.59 Z" fill="#000000" fill-rule="nonzero" fill-opacity="1" /></svg>
