<?xml version="1.0" encoding="utf-8"?>
<svg xmlns="http://www.w3.org/2000/svg" xmlns:xlink="http://www.w3.org/1999/xlink" width="600" height="400" viewBox="0 0 2400 1600">
<defs>
  <clipPath id="clip630">
    <rect x="0" y="0" width="2400" height="1600"/>
  </clipPath>
</defs>
<path clip-path="url(#clip630)" d="M0 1600 L2400 1600 L2400 0 L0 0  Z" fill="#ffffff" fill-rule="evenodd" fill-opacity="1"/>
<defs>
  <clipPath id="clip631">
    <rect x="480" y="0" width="1681" height="1600"/>
  </clipPath>
</defs>
<path clip-path="url(#clip630)" d="M235.283 1423.18 L2352.76 1423.18 L2352.76 47.2441 L235.283 47.2441  Z" fill="#ffffff" fill-rule="evenodd" fill-opacity="1"/>
<defs>
  <clipPath id="clip632">
    <rect x="235" y="47" width="2118" height="1377"/>
  </clipPath>
</defs>
<polyline clip-path="url(#clip632)" style="stroke:#000000; stroke-linecap:round; stroke-linejoin:round; stroke-width:2; stroke-opacity:0.1; fill:none" points="295.211,1423.18 295.211,47.2441 "/>
<polyline clip-path="url(#clip632)" style="stroke:#000000; stroke-linecap:round; stroke-linejoin:round; stroke-width:2; stroke-opacity:0.1; fill:none" points="628.147,1423.18 628.147,47.2441 "/>
<polyline clip-path="url(#clip632)" style="stroke:#000000; stroke-linecap:round; stroke-linejoin:round; stroke-width:2; stroke-opacity:0.1; fill:none" points="961.083,1423.18 961.083,47.2441 "/>
<polyline clip-path="url(#clip632)" style="stroke:#000000; stroke-linecap:round; stroke-linejoin:round; stroke-width:2; stroke-opacity:0.1; fill:none" points="1294.02,1423.18 1294.02,47.2441 "/>
<polyline clip-path="url(#clip632)" style="stroke:#000000; stroke-linecap:round; stroke-linejoin:round; stroke-width:2; stroke-opacity:0.1; fill:none" points="1626.96,1423.18 1626.96,47.2441 "/>
<polyline clip-path="url(#clip632)" style="stroke:#000000; stroke-linecap:round; stroke-linejoin:round; stroke-width:2; stroke-opacity:0.1; fill:none" points="1959.89,1423.18 1959.89,47.2441 "/>
<polyline clip-path="url(#clip632)" style="stroke:#000000; stroke-linecap:round; stroke-linejoin:round; stroke-width:2; stroke-opacity:0.1; fill:none" points="2292.83,1423.18 2292.83,47.2441 "/>
<polyline clip-path="url(#clip630)" style="stroke:#000000; stroke-linecap:round; stroke-linejoin:round; stroke-width:4; stroke-opacity:1; fill:none" points="235.283,1423.18 2352.76,1423.18 "/>
<polyline clip-path="url(#clip630)" style="stroke:#000000; stroke-linecap:round; stroke-linejoin:round; stroke-width:4; stroke-opacity:1; fill:none" points="295.211,1423.18 295.211,1404.28 "/>
<polyline clip-path="url(#clip630)" style="stroke:#000000; stroke-linecap:round; stroke-linejoin:round; stroke-width:4; stroke-opacity:1; fill:none" points="628.147,1423.18 628.147,1404.28 "/>
<polyline clip-path="url(#clip630)" style="stroke:#000000; stroke-linecap:round; stroke-linejoin:round; stroke-width:4; stroke-opacity:1; fill:none" points="961.083,1423.18 961.083,1404.28 "/>
<polyline clip-path="url(#clip630)" style="stroke:#000000; stroke-linecap:round; stroke-linejoin:round; stroke-width:4; stroke-opacity:1; fill:none" points="1294.02,1423.18 1294.02,1404.28 "/>
<polyline clip-path="url(#clip630)" style="stroke:#000000; stroke-linecap:round; stroke-linejoin:round; stroke-width:4; stroke-opacity:1; fill:none" points="1626.96,1423.18 1626.96,1404.28 "/>
<polyline clip-path="url(#clip630)" style="stroke:#000000; stroke-linecap:round; stroke-linejoin:round; stroke-width:4; stroke-opacity:1; fill:none" points="1959.89,1423.18 1959.89,1404.28 "/>
<polyline clip-path="url(#clip630)" style="stroke:#000000; stroke-linecap:round; stroke-linejoin:round; stroke-width:4; stroke-opacity:1; fill:none" points="2292.83,1423.18 2292.83,1404.28 "/>
<path clip-path="url(#clip630)" d="M249.274 1468.75 L278.95 1468.75 L278.95 1472.69 L249.274 1472.69 L249.274 1468.75 Z" fill="#000000" fill-rule="nonzero" fill-opacity="1" /><path clip-path="url(#clip630)" d="M303.209 1466.95 Q306.565 1467.66 308.44 1469.93 Q310.339 1472.2 310.339 1475.53 Q310.339 1480.65 306.82 1483.45 Q303.302 1486.25 296.82 1486.25 Q294.644 1486.25 292.329 1485.81 Q290.038 1485.39 287.584 1484.54 L287.584 1480.02 Q289.528 1481.16 291.843 1481.74 Q294.158 1482.32 296.681 1482.32 Q301.079 1482.32 303.371 1480.58 Q305.686 1478.84 305.686 1475.53 Q305.686 1472.48 303.533 1470.77 Q301.403 1469.03 297.584 1469.03 L293.556 1469.03 L293.556 1465.19 L297.769 1465.19 Q301.218 1465.19 303.047 1463.82 Q304.876 1462.43 304.876 1459.84 Q304.876 1457.18 302.977 1455.77 Q301.103 1454.33 297.584 1454.33 Q295.663 1454.33 293.464 1454.75 Q291.265 1455.16 288.626 1456.04 L288.626 1451.88 Q291.288 1451.14 293.603 1450.77 Q295.94 1450.39 298.001 1450.39 Q303.325 1450.39 306.427 1452.83 Q309.528 1455.23 309.528 1459.35 Q309.528 1462.22 307.885 1464.21 Q306.241 1466.18 303.209 1466.95 Z" fill="#000000" fill-rule="nonzero" fill-opacity="1" /><path clip-path="url(#clip630)" d="M329.204 1454.1 Q325.593 1454.1 323.764 1457.66 Q321.959 1461.2 321.959 1468.33 Q321.959 1475.44 323.764 1479.01 Q325.593 1482.55 329.204 1482.55 Q332.838 1482.55 334.644 1479.01 Q336.473 1475.44 336.473 1468.33 Q336.473 1461.2 334.644 1457.66 Q332.838 1454.1 329.204 1454.1 M329.204 1450.39 Q335.014 1450.39 338.07 1455 Q341.149 1459.58 341.149 1468.33 Q341.149 1477.06 338.07 1481.67 Q335.014 1486.25 329.204 1486.25 Q323.394 1486.25 320.315 1481.67 Q317.26 1477.06 317.26 1468.33 Q317.26 1459.58 320.315 1455 Q323.394 1450.39 329.204 1450.39 Z" fill="#000000" fill-rule="nonzero" fill-opacity="1" /><path clip-path="url(#clip630)" d="M582.21 1468.75 L611.886 1468.75 L611.886 1472.69 L582.21 1472.69 L582.21 1468.75 Z" fill="#000000" fill-rule="nonzero" fill-opacity="1" /><path clip-path="url(#clip630)" d="M626.006 1481.64 L642.326 1481.64 L642.326 1485.58 L620.381 1485.58 L620.381 1481.64 Q623.043 1478.89 627.627 1474.26 Q632.233 1469.61 633.414 1468.27 Q635.659 1465.74 636.539 1464.01 Q637.441 1462.25 637.441 1460.56 Q637.441 1457.8 635.497 1456.07 Q633.576 1454.33 630.474 1454.33 Q628.275 1454.33 625.821 1455.09 Q623.39 1455.86 620.613 1457.41 L620.613 1452.69 Q623.437 1451.55 625.89 1450.97 Q628.344 1450.39 630.381 1450.39 Q635.751 1450.39 638.946 1453.08 Q642.14 1455.77 642.14 1460.26 Q642.14 1462.39 641.33 1464.31 Q640.543 1466.2 638.437 1468.8 Q637.858 1469.47 634.756 1472.69 Q631.654 1475.88 626.006 1481.64 Z" fill="#000000" fill-rule="nonzero" fill-opacity="1" /><path clip-path="url(#clip630)" d="M662.14 1454.1 Q658.529 1454.1 656.7 1457.66 Q654.895 1461.2 654.895 1468.33 Q654.895 1475.44 656.7 1479.01 Q658.529 1482.55 662.14 1482.55 Q665.774 1482.55 667.58 1479.01 Q669.409 1475.44 669.409 1468.33 Q669.409 1461.2 667.58 1457.66 Q665.774 1454.1 662.14 1454.1 M662.14 1450.39 Q667.95 1450.39 671.006 1455 Q674.085 1459.58 674.085 1468.33 Q674.085 1477.06 671.006 1481.67 Q667.95 1486.25 662.14 1486.25 Q656.33 1486.25 653.251 1481.67 Q650.196 1477.06 650.196 1468.33 Q650.196 1459.58 653.251 1455 Q656.33 1450.39 662.14 1450.39 Z" fill="#000000" fill-rule="nonzero" fill-opacity="1" /><path clip-path="url(#clip630)" d="M915.146 1468.75 L944.822 1468.75 L944.822 1472.69 L915.146 1472.69 L915.146 1468.75 Z" fill="#000000" fill-rule="nonzero" fill-opacity="1" /><path clip-path="url(#clip630)" d="M955.725 1481.64 L963.363 1481.64 L963.363 1455.28 L955.053 1456.95 L955.053 1452.69 L963.317 1451.02 L967.993 1451.02 L967.993 1481.64 L975.632 1481.64 L975.632 1485.58 L955.725 1485.58 L955.725 1481.64 Z" fill="#000000" fill-rule="nonzero" fill-opacity="1" /><path clip-path="url(#clip630)" d="M995.076 1454.1 Q991.465 1454.1 989.636 1457.66 Q987.831 1461.2 987.831 1468.33 Q987.831 1475.44 989.636 1479.01 Q991.465 1482.55 995.076 1482.55 Q998.71 1482.55 1000.52 1479.01 Q1002.34 1475.44 1002.34 1468.33 Q1002.34 1461.2 1000.52 1457.66 Q998.71 1454.1 995.076 1454.1 M995.076 1450.39 Q1000.89 1450.39 1003.94 1455 Q1007.02 1459.58 1007.02 1468.33 Q1007.02 1477.06 1003.94 1481.67 Q1000.89 1486.25 995.076 1486.25 Q989.266 1486.25 986.187 1481.67 Q983.132 1477.06 983.132 1468.33 Q983.132 1459.58 986.187 1455 Q989.266 1450.39 995.076 1450.39 Z" fill="#000000" fill-rule="nonzero" fill-opacity="1" /><path clip-path="url(#clip630)" d="M1294.02 1454.1 Q1290.41 1454.1 1288.58 1457.66 Q1286.77 1461.2 1286.77 1468.33 Q1286.77 1475.44 1288.58 1479.01 Q1290.41 1482.55 1294.02 1482.55 Q1297.65 1482.55 1299.46 1479.01 Q1301.29 1475.44 1301.29 1468.33 Q1301.29 1461.2 1299.46 1457.66 Q1297.65 1454.1 1294.02 1454.1 M1294.02 1450.39 Q1299.83 1450.39 1302.89 1455 Q1305.96 1459.58 1305.96 1468.33 Q1305.96 1477.06 1302.89 1481.67 Q1299.83 1486.25 1294.02 1486.25 Q1288.21 1486.25 1285.13 1481.67 Q1282.07 1477.06 1282.07 1468.33 Q1282.07 1459.58 1285.13 1455 Q1288.21 1450.39 1294.02 1450.39 Z" fill="#000000" fill-rule="nonzero" fill-opacity="1" /><path clip-path="url(#clip630)" d="M1601.64 1481.64 L1609.28 1481.64 L1609.28 1455.28 L1600.97 1456.95 L1600.97 1452.69 L1609.24 1451.02 L1613.91 1451.02 L1613.91 1481.64 L1621.55 1481.64 L1621.55 1485.58 L1601.64 1485.58 L1601.64 1481.64 Z" fill="#000000" fill-rule="nonzero" fill-opacity="1" /><path clip-path="url(#clip630)" d="M1640.99 1454.1 Q1637.38 1454.1 1635.55 1457.66 Q1633.75 1461.2 1633.75 1468.33 Q1633.75 1475.44 1635.55 1479.01 Q1637.38 1482.55 1640.99 1482.55 Q1644.63 1482.55 1646.43 1479.01 Q1648.26 1475.44 1648.26 1468.33 Q1648.26 1461.2 1646.43 1457.66 Q1644.63 1454.1 1640.99 1454.1 M1640.99 1450.39 Q1646.8 1450.39 1649.86 1455 Q1652.94 1459.58 1652.94 1468.33 Q1652.94 1477.06 1649.86 1481.67 Q1646.8 1486.25 1640.99 1486.25 Q1635.18 1486.25 1632.11 1481.67 Q1629.05 1477.06 1629.05 1468.33 Q1629.05 1459.58 1632.11 1455 Q1635.18 1450.39 1640.99 1450.39 Z" fill="#000000" fill-rule="nonzero" fill-opacity="1" /><path clip-path="url(#clip630)" d="M1938.66 1481.64 L1954.98 1481.64 L1954.98 1485.58 L1933.04 1485.58 L1933.04 1481.64 Q1935.7 1478.89 1940.29 1474.26 Q1944.89 1469.61 1946.07 1468.27 Q1948.32 1465.74 1949.2 1464.01 Q1950.1 1462.25 1950.1 1460.56 Q1950.1 1457.8 1948.16 1456.07 Q1946.23 1454.33 1943.13 1454.33 Q1940.93 1454.33 1938.48 1455.09 Q1936.05 1455.86 1933.27 1457.41 L1933.27 1452.69 Q1936.1 1451.55 1938.55 1450.97 Q1941 1450.39 1943.04 1450.39 Q1948.41 1450.39 1951.6 1453.08 Q1954.8 1455.77 1954.8 1460.26 Q1954.8 1462.39 1953.99 1464.31 Q1953.2 1466.2 1951.1 1468.8 Q1950.52 1469.47 1947.41 1472.69 Q1944.31 1475.88 1938.66 1481.64 Z" fill="#000000" fill-rule="nonzero" fill-opacity="1" /><path clip-path="url(#clip630)" d="M1974.8 1454.1 Q1971.19 1454.1 1969.36 1457.66 Q1967.55 1461.2 1967.55 1468.33 Q1967.55 1475.44 1969.36 1479.01 Q1971.19 1482.55 1974.8 1482.55 Q1978.43 1482.55 1980.24 1479.01 Q1982.07 1475.44 1982.07 1468.33 Q1982.07 1461.2 1980.24 1457.66 Q1978.43 1454.1 1974.8 1454.1 M1974.8 1450.39 Q1980.61 1450.39 1983.66 1455 Q1986.74 1459.58 1986.74 1468.33 Q1986.74 1477.06 1983.66 1481.67 Q1980.61 1486.25 1974.8 1486.25 Q1968.99 1486.25 1965.91 1481.67 Q1962.85 1477.06 1962.85 1468.33 Q1962.85 1459.58 1965.91 1455 Q1968.99 1450.39 1974.8 1450.39 Z" fill="#000000" fill-rule="nonzero" fill-opacity="1" /><path clip-path="url(#clip630)" d="M2281.67 1466.95 Q2285.03 1467.66 2286.9 1469.93 Q2288.8 1472.2 2288.8 1475.53 Q2288.8 1480.65 2285.28 1483.45 Q2281.76 1486.25 2275.28 1486.25 Q2273.11 1486.25 2270.79 1485.81 Q2268.5 1485.39 2266.05 1484.54 L2266.05 1480.02 Q2267.99 1481.16 2270.3 1481.74 Q2272.62 1482.32 2275.14 1482.32 Q2279.54 1482.32 2281.83 1480.58 Q2284.15 1478.84 2284.15 1475.53 Q2284.15 1472.48 2281.99 1470.77 Q2279.86 1469.03 2276.05 1469.03 L2272.02 1469.03 L2272.02 1465.19 L2276.23 1465.19 Q2279.68 1465.19 2281.51 1463.82 Q2283.34 1462.43 2283.34 1459.84 Q2283.34 1457.18 2281.44 1455.77 Q2279.56 1454.33 2276.05 1454.33 Q2274.12 1454.33 2271.92 1454.75 Q2269.73 1455.16 2267.09 1456.04 L2267.09 1451.88 Q2269.75 1451.14 2272.06 1450.77 Q2274.4 1450.39 2276.46 1450.39 Q2281.79 1450.39 2284.89 1452.83 Q2287.99 1455.23 2287.99 1459.35 Q2287.99 1462.22 2286.35 1464.21 Q2284.7 1466.18 2281.67 1466.95 Z" fill="#000000" fill-rule="nonzero" fill-opacity="1" /><path clip-path="url(#clip630)" d="M2307.67 1454.1 Q2304.05 1454.1 2302.23 1457.66 Q2300.42 1461.2 2300.42 1468.33 Q2300.42 1475.44 2302.23 1479.01 Q2304.05 1482.55 2307.67 1482.55 Q2311.3 1482.55 2313.11 1479.01 Q2314.93 1475.44 2314.93 1468.33 Q2314.93 1461.2 2313.11 1457.66 Q2311.3 1454.1 2307.67 1454.1 M2307.67 1450.39 Q2313.48 1450.39 2316.53 1455 Q2319.61 1459.58 2319.61 1468.33 Q2319.61 1477.06 2316.53 1481.67 Q2313.48 1486.25 2307.67 1486.25 Q2301.86 1486.25 2298.78 1481.67 Q2295.72 1477.06 2295.72 1468.33 Q2295.72 1459.58 2298.78 1455 Q2301.86 1450.39 2307.67 1450.39 Z" fill="#000000" fill-rule="nonzero" fill-opacity="1" /><path clip-path="url(#clip630)" d="M1194.79 1532.4 L1181.9 1549.74 L1195.46 1568.04 L1188.56 1568.04 L1178.18 1554.04 L1167.8 1568.04 L1160.9 1568.04 L1174.74 1549.39 L1162.07 1532.4 L1168.98 1532.4 L1178.43 1545.1 L1187.89 1532.4 L1194.79 1532.4 Z" fill="#000000" fill-rule="nonzero" fill-opacity="1" /><path clip-path="url(#clip630)" d="M1220.26 1532.4 L1226.46 1532.4 L1237.6 1562.31 L1248.74 1532.4 L1254.95 1532.4 L1241.58 1568.04 L1233.62 1568.04 L1220.26 1532.4 Z" fill="#000000" fill-rule="nonzero" fill-opacity="1" /><path clip-path="url(#clip630)" d="M1279.24 1550.12 Q1272.14 1550.12 1269.4 1551.75 Q1266.66 1553.37 1266.66 1557.29 Q1266.66 1560.4 1268.7 1562.25 Q1270.77 1564.07 1274.3 1564.07 Q1279.17 1564.07 1282.1 1560.63 Q1285.06 1557.16 1285.06 1551.43 L1285.06 1550.12 L1279.24 1550.12 M1290.92 1547.71 L1290.92 1568.04 L1285.06 1568.04 L1285.06 1562.63 Q1283.05 1565.88 1280.06 1567.44 Q1277.07 1568.97 1272.74 1568.97 Q1267.27 1568.97 1264.02 1565.91 Q1260.81 1562.82 1260.81 1557.67 Q1260.81 1551.65 1264.82 1548.6 Q1268.86 1545.54 1276.85 1545.54 L1285.06 1545.54 L1285.06 1544.97 Q1285.06 1540.93 1282.39 1538.73 Q1279.74 1536.5 1274.94 1536.5 Q1271.88 1536.5 1268.99 1537.23 Q1266.09 1537.97 1263.42 1539.43 L1263.42 1534.02 Q1266.63 1532.78 1269.65 1532.17 Q1272.68 1531.54 1275.54 1531.54 Q1283.28 1531.54 1287.1 1535.55 Q1290.92 1539.56 1290.92 1547.71 Z" fill="#000000" fill-rule="nonzero" fill-opacity="1" /><path clip-path="url(#clip630)" d="M1302.98 1518.52 L1308.84 1518.52 L1308.84 1568.04 L1302.98 1568.04 L1302.98 1518.52 Z" fill="#000000" fill-rule="nonzero" fill-opacity="1" /><path clip-path="url(#clip630)" d="M1320.48 1553.98 L1320.48 1532.4 L1326.34 1532.4 L1326.34 1553.75 Q1326.34 1558.81 1328.31 1561.36 Q1330.29 1563.87 1334.23 1563.87 Q1338.98 1563.87 1341.71 1560.85 Q1344.48 1557.83 1344.48 1552.61 L1344.48 1532.4 L1350.34 1532.4 L1350.34 1568.04 L1344.48 1568.04 L1344.48 1562.57 Q1342.35 1565.82 1339.52 1567.41 Q1336.72 1568.97 1332.99 1568.97 Q1326.85 1568.97 1323.67 1565.15 Q1320.48 1561.33 1320.48 1553.98 M1335.22 1531.54 L1335.22 1531.54 Z" fill="#000000" fill-rule="nonzero" fill-opacity="1" /><path clip-path="url(#clip630)" d="M1392.89 1548.76 L1392.89 1551.62 L1365.97 1551.62 Q1366.35 1557.67 1369.6 1560.85 Q1372.87 1564 1378.7 1564 Q1382.07 1564 1385.22 1563.17 Q1388.41 1562.35 1391.53 1560.69 L1391.53 1566.23 Q1388.38 1567.57 1385.06 1568.27 Q1381.75 1568.97 1378.35 1568.97 Q1369.82 1568.97 1364.82 1564 Q1359.86 1559.04 1359.86 1550.57 Q1359.86 1541.82 1364.57 1536.69 Q1369.31 1531.54 1377.33 1531.54 Q1384.52 1531.54 1388.69 1536.18 Q1392.89 1540.8 1392.89 1548.76 M1387.04 1547.04 Q1386.97 1542.23 1384.33 1539.37 Q1381.72 1536.5 1377.39 1536.5 Q1372.49 1536.5 1369.53 1539.27 Q1366.6 1542.04 1366.16 1547.07 L1387.04 1547.04 Z" fill="#000000" fill-rule="nonzero" fill-opacity="1" /><path clip-path="url(#clip630)" d="M1425.23 1533.45 L1425.23 1538.98 Q1422.75 1537.71 1420.08 1537.07 Q1417.4 1536.44 1414.54 1536.44 Q1410.18 1536.44 1407.98 1537.77 Q1405.82 1539.11 1405.82 1541.79 Q1405.82 1543.82 1407.38 1545 Q1408.94 1546.15 1413.65 1547.2 L1415.65 1547.64 Q1421.89 1548.98 1424.5 1551.43 Q1427.14 1553.85 1427.14 1558.21 Q1427.14 1563.17 1423.2 1566.07 Q1419.28 1568.97 1412.41 1568.97 Q1409.54 1568.97 1406.42 1568.39 Q1403.33 1567.85 1399.9 1566.74 L1399.9 1560.69 Q1403.14 1562.38 1406.29 1563.24 Q1409.45 1564.07 1412.53 1564.07 Q1416.67 1564.07 1418.9 1562.66 Q1421.13 1561.23 1421.13 1558.65 Q1421.13 1556.27 1419.5 1554.99 Q1417.91 1553.72 1412.47 1552.54 L1410.43 1552.07 Q1404.99 1550.92 1402.57 1548.56 Q1400.15 1546.18 1400.15 1542.04 Q1400.15 1537.01 1403.72 1534.27 Q1407.28 1531.54 1413.84 1531.54 Q1417.08 1531.54 1419.95 1532.01 Q1422.81 1532.49 1425.23 1533.45 Z" fill="#000000" fill-rule="nonzero" fill-opacity="1" /><polyline clip-path="url(#clip632)" style="stroke:#000000; stroke-linecap:round; stroke-linejoin:round; stroke-width:2; stroke-opacity:0.1; fill:none" points="235.283,1348.18 2352.76,1348.18 "/>
<polyline clip-path="url(#clip632)" style="stroke:#000000; stroke-linecap:round; stroke-linejoin:round; stroke-width:2; stroke-opacity:0.1; fill:none" points="235.283,1059.73 2352.76,1059.73 "/>
<polyline clip-path="url(#clip632)" style="stroke:#000000; stroke-linecap:round; stroke-linejoin:round; stroke-width:2; stroke-opacity:0.1; fill:none" points="235.283,771.269 2352.76,771.269 "/>
<polyline clip-path="url(#clip632)" style="stroke:#000000; stroke-linecap:round; stroke-linejoin:round; stroke-width:2; stroke-opacity:0.1; fill:none" points="235.283,482.813 2352.76,482.813 "/>
<polyline clip-path="url(#clip632)" style="stroke:#000000; stroke-linecap:round; stroke-linejoin:round; stroke-width:2; stroke-opacity:0.1; fill:none" points="235.283,194.357 2352.76,194.357 "/>
<polyline clip-path="url(#clip630)" style="stroke:#000000; stroke-linecap:round; stroke-linejoin:round; stroke-width:4; stroke-opacity:1; fill:none" points="235.283,1423.18 235.283,47.2441 "/>
<polyline clip-path="url(#clip630)" style="stroke:#000000; stroke-linecap:round; stroke-linejoin:round; stroke-width:4; stroke-opacity:1; fill:none" points="235.283,1348.18 254.18,1348.18 "/>
<polyline clip-path="url(#clip630)" style="stroke:#000000; stroke-linecap:round; stroke-linejoin:round; stroke-width:4; stroke-opacity:1; fill:none" points="235.283,1059.73 254.18,1059.73 "/>
<polyline clip-path="url(#clip630)" style="stroke:#000000; stroke-linecap:round; stroke-linejoin:round; stroke-width:4; stroke-opacity:1; fill:none" points="235.283,771.269 254.18,771.269 "/>
<polyline clip-path="url(#clip630)" style="stroke:#000000; stroke-linecap:round; stroke-linejoin:round; stroke-width:4; stroke-opacity:1; fill:none" points="235.283,482.813 254.18,482.813 "/>
<polyline clip-path="url(#clip630)" style="stroke:#000000; stroke-linecap:round; stroke-linejoin:round; stroke-width:4; stroke-opacity:1; fill:none" points="235.283,194.357 254.18,194.357 "/>
<path clip-path="url(#clip630)" d="M187.338 1333.98 Q183.727 1333.98 181.899 1337.54 Q180.093 1341.09 180.093 1348.22 Q180.093 1355.32 181.899 1358.89 Q183.727 1362.43 187.338 1362.43 Q190.973 1362.43 192.778 1358.89 Q194.607 1355.32 194.607 1348.22 Q194.607 1341.09 192.778 1337.54 Q190.973 1333.98 187.338 1333.98 M187.338 1330.28 Q193.149 1330.28 196.204 1334.88 Q199.283 1339.47 199.283 1348.22 Q199.283 1356.94 196.204 1361.55 Q193.149 1366.13 187.338 1366.13 Q181.528 1366.13 178.45 1361.55 Q175.394 1356.94 175.394 1348.22 Q175.394 1339.47 178.45 1334.88 Q181.528 1330.28 187.338 1330.28 Z" fill="#000000" fill-rule="nonzero" fill-opacity="1" /><path clip-path="url(#clip630)" d="M121.043 1073.07 L137.362 1073.07 L137.362 1077.01 L115.418 1077.01 L115.418 1073.07 Q118.08 1070.32 122.663 1065.69 Q127.269 1061.03 128.45 1059.69 Q130.695 1057.17 131.575 1055.43 Q132.478 1053.67 132.478 1051.98 Q132.478 1049.23 130.533 1047.49 Q128.612 1045.76 125.51 1045.76 Q123.311 1045.76 120.857 1046.52 Q118.427 1047.28 115.649 1048.83 L115.649 1044.11 Q118.473 1042.98 120.927 1042.4 Q123.38 1041.82 125.418 1041.82 Q130.788 1041.82 133.982 1044.51 Q137.177 1047.19 137.177 1051.68 Q137.177 1053.81 136.367 1055.73 Q135.579 1057.63 133.473 1060.22 Q132.894 1060.89 129.792 1064.11 Q126.691 1067.31 121.043 1073.07 Z" fill="#000000" fill-rule="nonzero" fill-opacity="1" /><path clip-path="url(#clip630)" d="M157.177 1045.52 Q153.566 1045.52 151.737 1049.09 Q149.931 1052.63 149.931 1059.76 Q149.931 1066.87 151.737 1070.43 Q153.566 1073.97 157.177 1073.97 Q160.811 1073.97 162.616 1070.43 Q164.445 1066.87 164.445 1059.76 Q164.445 1052.63 162.616 1049.09 Q160.811 1045.52 157.177 1045.52 M157.177 1041.82 Q162.987 1041.82 166.042 1046.43 Q169.121 1051.01 169.121 1059.76 Q169.121 1068.49 166.042 1073.09 Q162.987 1077.68 157.177 1077.68 Q151.366 1077.68 148.288 1073.09 Q145.232 1068.49 145.232 1059.76 Q145.232 1051.01 148.288 1046.43 Q151.366 1041.82 157.177 1041.82 Z" fill="#000000" fill-rule="nonzero" fill-opacity="1" /><path clip-path="url(#clip630)" d="M187.338 1045.52 Q183.727 1045.52 181.899 1049.09 Q180.093 1052.63 180.093 1059.76 Q180.093 1066.87 181.899 1070.43 Q183.727 1073.97 187.338 1073.97 Q190.973 1073.97 192.778 1070.43 Q194.607 1066.87 194.607 1059.76 Q194.607 1052.63 192.778 1049.09 Q190.973 1045.52 187.338 1045.52 M187.338 1041.82 Q193.149 1041.82 196.204 1046.43 Q199.283 1051.01 199.283 1059.76 Q199.283 1068.49 196.204 1073.09 Q193.149 1077.68 187.338 1077.68 Q181.528 1077.68 178.45 1073.09 Q175.394 1068.49 175.394 1059.76 Q175.394 1051.01 178.45 1046.43 Q181.528 1041.82 187.338 1041.82 Z" fill="#000000" fill-rule="nonzero" fill-opacity="1" /><path clip-path="url(#clip630)" d="M129.862 758.063 L118.056 776.512 L129.862 776.512 L129.862 758.063 M128.635 753.989 L134.515 753.989 L134.515 776.512 L139.445 776.512 L139.445 780.401 L134.515 780.401 L134.515 788.549 L129.862 788.549 L129.862 780.401 L114.26 780.401 L114.26 775.887 L128.635 753.989 Z" fill="#000000" fill-rule="nonzero" fill-opacity="1" /><path clip-path="url(#clip630)" d="M157.177 757.068 Q153.566 757.068 151.737 760.632 Q149.931 764.174 149.931 771.304 Q149.931 778.41 151.737 781.975 Q153.566 785.517 157.177 785.517 Q160.811 785.517 162.616 781.975 Q164.445 778.41 164.445 771.304 Q164.445 764.174 162.616 760.632 Q160.811 757.068 157.177 757.068 M157.177 753.364 Q162.987 753.364 166.042 757.97 Q169.121 762.554 169.121 771.304 Q169.121 780.031 166.042 784.637 Q162.987 789.22 157.177 789.22 Q151.366 789.22 148.288 784.637 Q145.232 780.031 145.232 771.304 Q145.232 762.554 148.288 757.97 Q151.366 753.364 157.177 753.364 Z" fill="#000000" fill-rule="nonzero" fill-opacity="1" /><path clip-path="url(#clip630)" d="M187.338 757.068 Q183.727 757.068 181.899 760.632 Q180.093 764.174 180.093 771.304 Q180.093 778.41 181.899 781.975 Q183.727 785.517 187.338 785.517 Q190.973 785.517 192.778 781.975 Q194.607 778.41 194.607 771.304 Q194.607 764.174 192.778 760.632 Q190.973 757.068 187.338 757.068 M187.338 753.364 Q193.149 753.364 196.204 757.97 Q199.283 762.554 199.283 771.304 Q199.283 780.031 196.204 784.637 Q193.149 789.22 187.338 789.22 Q181.528 789.22 178.45 784.637 Q175.394 780.031 175.394 771.304 Q175.394 762.554 178.45 757.97 Q181.528 753.364 187.338 753.364 Z" fill="#000000" fill-rule="nonzero" fill-opacity="1" /><path clip-path="url(#clip630)" d="M127.593 480.949 Q124.445 480.949 122.593 483.102 Q120.765 485.255 120.765 489.005 Q120.765 492.732 122.593 494.908 Q124.445 497.06 127.593 497.06 Q130.742 497.06 132.57 494.908 Q134.422 492.732 134.422 489.005 Q134.422 485.255 132.57 483.102 Q130.742 480.949 127.593 480.949 M136.876 466.297 L136.876 470.556 Q135.117 469.723 133.311 469.283 Q131.529 468.843 129.769 468.843 Q125.14 468.843 122.686 471.968 Q120.255 475.093 119.908 481.412 Q121.274 479.399 123.334 478.334 Q125.394 477.246 127.871 477.246 Q133.08 477.246 136.089 480.417 Q139.121 483.565 139.121 489.005 Q139.121 494.329 135.973 497.547 Q132.825 500.764 127.593 500.764 Q121.598 500.764 118.427 496.181 Q115.256 491.574 115.256 482.848 Q115.256 474.653 119.144 469.792 Q123.033 464.908 129.584 464.908 Q131.343 464.908 133.126 465.255 Q134.931 465.602 136.876 466.297 Z" fill="#000000" fill-rule="nonzero" fill-opacity="1" /><path clip-path="url(#clip630)" d="M157.177 468.612 Q153.566 468.612 151.737 472.176 Q149.931 475.718 149.931 482.848 Q149.931 489.954 151.737 493.519 Q153.566 497.06 157.177 497.06 Q160.811 497.06 162.616 493.519 Q164.445 489.954 164.445 482.848 Q164.445 475.718 162.616 472.176 Q160.811 468.612 157.177 468.612 M157.177 464.908 Q162.987 464.908 166.042 469.514 Q169.121 474.098 169.121 482.848 Q169.121 491.574 166.042 496.181 Q162.987 500.764 157.177 500.764 Q151.366 500.764 148.288 496.181 Q145.232 491.574 145.232 482.848 Q145.232 474.098 148.288 469.514 Q151.366 464.908 157.177 464.908 Z" fill="#000000" fill-rule="nonzero" fill-opacity="1" /><path clip-path="url(#clip630)" d="M187.338 468.612 Q183.727 468.612 181.899 472.176 Q180.093 475.718 180.093 482.848 Q180.093 489.954 181.899 493.519 Q183.727 497.06 187.338 497.06 Q190.973 497.06 192.778 493.519 Q194.607 489.954 194.607 482.848 Q194.607 475.718 192.778 472.176 Q190.973 468.612 187.338 468.612 M187.338 464.908 Q193.149 464.908 196.204 469.514 Q199.283 474.098 199.283 482.848 Q199.283 491.574 196.204 496.181 Q193.149 500.764 187.338 500.764 Q181.528 500.764 178.45 496.181 Q175.394 491.574 175.394 482.848 Q175.394 474.098 178.45 469.514 Q181.528 464.908 187.338 464.908 Z" fill="#000000" fill-rule="nonzero" fill-opacity="1" /><path clip-path="url(#clip630)" d="M127.015 195.225 Q123.681 195.225 121.76 197.007 Q119.862 198.79 119.862 201.915 Q119.862 205.04 121.76 206.822 Q123.681 208.604 127.015 208.604 Q130.348 208.604 132.269 206.822 Q134.191 205.016 134.191 201.915 Q134.191 198.79 132.269 197.007 Q130.371 195.225 127.015 195.225 M122.339 193.234 Q119.33 192.493 117.64 190.433 Q115.973 188.373 115.973 185.41 Q115.973 181.267 118.913 178.859 Q121.876 176.452 127.015 176.452 Q132.177 176.452 135.117 178.859 Q138.056 181.267 138.056 185.41 Q138.056 188.373 136.367 190.433 Q134.7 192.493 131.714 193.234 Q135.093 194.021 136.968 196.313 Q138.867 198.604 138.867 201.915 Q138.867 206.938 135.788 209.623 Q132.732 212.308 127.015 212.308 Q121.297 212.308 118.218 209.623 Q115.163 206.938 115.163 201.915 Q115.163 198.604 117.061 196.313 Q118.959 194.021 122.339 193.234 M120.626 185.85 Q120.626 188.535 122.293 190.04 Q123.982 191.544 127.015 191.544 Q130.024 191.544 131.714 190.04 Q133.427 188.535 133.427 185.85 Q133.427 183.165 131.714 181.66 Q130.024 180.155 127.015 180.155 Q123.982 180.155 122.293 181.66 Q120.626 183.165 120.626 185.85 Z" fill="#000000" fill-rule="nonzero" fill-opacity="1" /><path clip-path="url(#clip630)" d="M157.177 180.155 Q153.566 180.155 151.737 183.72 Q149.931 187.262 149.931 194.391 Q149.931 201.498 151.737 205.063 Q153.566 208.604 157.177 208.604 Q160.811 208.604 162.616 205.063 Q164.445 201.498 164.445 194.391 Q164.445 187.262 162.616 183.72 Q160.811 180.155 157.177 180.155 M157.177 176.452 Q162.987 176.452 166.042 181.058 Q169.121 185.641 169.121 194.391 Q169.121 203.118 166.042 207.725 Q162.987 212.308 157.177 212.308 Q151.366 212.308 148.288 207.725 Q145.232 203.118 145.232 194.391 Q145.232 185.641 148.288 181.058 Q151.366 176.452 157.177 176.452 Z" fill="#000000" fill-rule="nonzero" fill-opacity="1" /><path clip-path="url(#clip630)" d="M187.338 180.155 Q183.727 180.155 181.899 183.72 Q180.093 187.262 180.093 194.391 Q180.093 201.498 181.899 205.063 Q183.727 208.604 187.338 208.604 Q190.973 208.604 192.778 205.063 Q194.607 201.498 194.607 194.391 Q194.607 187.262 192.778 183.72 Q190.973 180.155 187.338 180.155 M187.338 176.452 Q193.149 176.452 196.204 181.058 Q199.283 185.641 199.283 194.391 Q199.283 203.118 196.204 207.725 Q193.149 212.308 187.338 212.308 Q181.528 212.308 178.45 207.725 Q175.394 203.118 175.394 194.391 Q175.394 185.641 178.45 181.058 Q181.528 176.452 187.338 176.452 Z" fill="#000000" fill-rule="nonzero" fill-opacity="1" /><path clip-path="url(#clip630)" d="M14.479 765.163 L19.3487 765.163 L19.3487 770.764 Q19.3487 773.915 20.6219 775.157 Q21.895 776.366 25.2052 776.366 L28.3562 776.366 L28.3562 766.722 L32.9077 766.722 L32.9077 776.366 L64.0042 776.366 L64.0042 782.255 L32.9077 782.255 L32.9077 787.856 L28.3562 787.856 L28.3562 782.255 L25.8736 782.255 Q19.9216 782.255 17.2162 779.485 Q14.479 776.716 14.479 770.701 L14.479 765.163 Z" fill="#000000" fill-rule="nonzero" fill-opacity="1" /><path clip-path="url(#clip630)" d="M14.5426 746.193 Q21.8632 750.458 29.0246 752.527 Q36.186 754.596 43.5384 754.596 Q50.8908 754.596 58.1159 752.527 Q65.3091 750.426 72.5979 746.193 L72.5979 751.285 Q65.1182 756.06 57.8931 758.447 Q50.668 760.802 43.5384 760.802 Q36.4406 760.802 29.2474 758.447 Q22.0542 756.091 14.5426 751.285 L14.5426 746.193 Z" fill="#000000" fill-rule="nonzero" fill-opacity="1" /><path clip-path="url(#clip630)" d="M28.3562 705.198 L45.7028 718.088 L64.0042 704.529 L64.0042 711.436 L49.9996 721.812 L64.0042 732.188 L64.0042 739.095 L45.3526 725.25 L28.3562 737.917 L28.3562 731.011 L41.0558 721.558 L28.3562 712.104 L28.3562 705.198 Z" fill="#000000" fill-rule="nonzero" fill-opacity="1" /><path clip-path="url(#clip630)" d="M14.5426 697.177 L14.5426 692.084 Q22.0542 687.31 29.2474 684.955 Q36.4406 682.568 43.5384 682.568 Q50.668 682.568 57.8931 684.955 Q65.1182 687.31 72.5979 692.084 L72.5979 697.177 Q65.3091 692.944 58.1159 690.875 Q50.8908 688.774 43.5384 688.774 Q36.186 688.774 29.0246 690.875 Q21.8632 692.944 14.5426 697.177 Z" fill="#000000" fill-rule="nonzero" fill-opacity="1" /><polyline clip-path="url(#clip632)" style="stroke:#009af9; stroke-linecap:round; stroke-linejoin:round; stroke-width:4; stroke-opacity:1; fill:none" points="295.211,86.1857 298.541,94.8249 301.87,103.435 305.199,112.017 308.529,120.57 311.858,129.094 315.187,137.589 318.517,146.055 321.846,154.492 325.176,162.901 328.505,171.28 331.834,179.631 335.164,187.953 338.493,196.246 341.822,204.51 345.152,212.746 348.481,220.952 351.81,229.13 355.14,237.279 358.469,245.399 361.799,253.49 365.128,261.553 368.457,269.586 371.787,277.591 375.116,285.567 378.445,293.514 381.775,301.432 385.104,309.321 388.433,317.181 391.763,325.013 395.092,332.816 398.421,340.59 401.751,348.335 405.08,356.051 408.41,363.738 411.739,371.397 415.068,379.026 418.398,386.627 421.727,394.199 425.056,401.742 428.386,409.257 431.715,416.742 435.044,424.199 438.374,431.626 441.703,439.025 445.033,446.395 448.362,453.736 451.691,461.049 455.021,468.332 458.35,475.587 461.679,482.813 465.009,490.01 468.338,497.178 471.667,504.317 474.997,511.428 478.326,518.509 481.656,525.562 484.985,532.586 488.314,539.581 491.644,546.547 494.973,553.485 498.302,560.393 501.632,567.273 504.961,574.124 508.29,580.946 511.62,587.739 514.949,594.503 518.278,601.239 521.608,607.945 524.937,614.623 528.267,621.272 531.596,627.892 534.925,634.483 538.255,641.045 541.584,647.579 544.913,654.084 548.243,660.56 551.572,667.007 554.901,673.425 558.231,679.814 561.56,686.174 564.89,692.506 568.219,698.809 571.548,705.083 574.878,711.328 578.207,717.544 581.536,723.731 584.866,729.89 588.195,736.02 591.524,742.12 594.854,748.192 598.183,754.236 601.512,760.25 604.842,766.235 608.171,772.192 611.501,778.12 614.83,784.019 618.159,789.889 621.489,795.73 624.818,801.542 628.147,807.326 631.477,813.081 634.806,818.807 638.135,824.504 641.465,830.172 644.794,835.811 648.124,841.422 651.453,847.003 654.782,852.556 658.112,858.08 661.441,863.575 664.77,869.041 668.1,874.479 671.429,879.887 674.758,885.267 678.088,890.618 681.417,895.94 684.746,901.233 688.076,906.497 691.405,911.733 694.735,916.939 698.064,922.117 701.393,927.266 704.723,932.386 708.052,937.477 711.381,942.54 714.711,947.573 718.04,952.578 721.369,957.554 724.699,962.501 728.028,967.419 731.358,972.308 734.687,977.169 738.016,982.001 741.346,986.803 744.675,991.577 748.004,996.322 751.334,1001.04 754.663,1005.73 757.992,1010.38 761.322,1015.01 764.651,1019.62 767.98,1024.19 771.31,1028.73 774.639,1033.24 777.969,1037.73 781.298,1042.19 784.627,1046.61 787.957,1051.01 791.286,1055.38 794.615,1059.73 797.945,1064.04 801.274,1068.32 804.603,1072.58 807.933,1076.8 811.262,1081 814.592,1085.17 817.921,1089.31 821.25,1093.42 824.58,1097.5 827.909,1101.55 831.238,1105.58 834.568,1109.57 837.897,1113.54 841.226,1117.47 844.556,1121.38 847.885,1125.26 851.214,1129.11 854.544,1132.94 857.873,1136.73 861.203,1140.49 864.532,1144.23 867.861,1147.94 871.191,1151.61 874.52,1155.26 877.849,1158.88 881.179,1162.47 884.508,1166.04 887.837,1169.57 891.167,1173.07 894.496,1176.55 897.826,1180 901.155,1183.42 904.484,1186.8 907.814,1190.16 911.143,1193.5 914.472,1196.8 917.802,1200.07 921.131,1203.32 924.46,1206.53 927.79,1209.72 931.119,1212.88 934.448,1216.01 937.778,1219.11 941.107,1222.18 944.437,1225.23 947.766,1228.24 951.095,1231.23 954.425,1234.18 957.754,1237.11 961.083,1240.01 964.413,1242.88 967.742,1245.72 971.071,1248.53 974.401,1251.32 977.73,1254.07 981.06,1256.8 984.389,1259.5 987.718,1262.16 991.048,1264.8 994.377,1267.41 997.706,1270 1001.04,1272.55 1004.37,1275.07 1007.69,1277.57 1011.02,1280.03 1014.35,1282.47 1017.68,1284.88 1021.01,1287.26 1024.34,1289.61 1027.67,1291.93 1031,1294.23 1034.33,1296.49 1037.66,1298.73 1040.99,1300.93 1044.32,1303.11 1047.65,1305.26 1050.98,1307.38 1054.31,1309.47 1057.63,1311.53 1060.96,1313.57 1064.29,1315.57 1067.62,1317.55 1070.95,1319.49 1074.28,1321.41 1077.61,1323.3 1080.94,1325.16 1084.27,1326.99 1087.6,1328.8 1090.93,1330.57 1094.26,1332.32 1097.59,1334.03 1100.92,1335.72 1104.25,1337.38 1107.58,1339.01 1110.9,1340.61 1114.23,1342.18 1117.56,1343.72 1120.89,1345.24 1124.22,1346.72 1127.55,1348.18 1130.88,1349.61 1134.21,1351.01 1137.54,1352.38 1140.87,1353.72 1144.2,1355.03 1147.53,1356.32 1150.86,1357.57 1154.19,1358.8 1157.52,1359.99 1160.84,1361.16 1164.17,1362.3 1167.5,1363.41 1170.83,1364.49 1174.16,1365.55 1177.49,1366.57 1180.82,1367.57 1184.15,1368.53 1187.48,1369.47 1190.81,1370.38 1194.14,1371.26 1197.47,1372.11 1200.8,1372.93 1204.13,1373.72 1207.46,1374.49 1210.79,1375.22 1214.11,1375.93 1217.44,1376.61 1220.77,1377.26 1224.1,1377.88 1227.43,1378.47 1230.76,1379.03 1234.09,1379.57 1237.42,1380.07 1240.75,1380.55 1244.08,1380.99 1247.41,1381.41 1250.74,1381.8 1254.07,1382.16 1257.4,1382.49 1260.73,1382.8 1264.06,1383.07 1267.38,1383.32 1270.71,1383.53 1274.04,1383.72 1277.37,1383.88 1280.7,1384.01 1284.03,1384.11 1287.36,1384.18 1290.69,1384.22 1294.02,1384.24 1297.35,1384.22 1300.68,1384.18 1304.01,1384.11 1307.34,1384.01 1310.67,1383.88 1314,1383.72 1317.32,1383.53 1320.65,1383.32 1323.98,1383.07 1327.31,1382.8 1330.64,1382.49 1333.97,1382.16 1337.3,1381.8 1340.63,1381.41 1343.96,1380.99 1347.29,1380.55 1350.62,1380.07 1353.95,1379.57 1357.28,1379.03 1360.61,1378.47 1363.94,1377.88 1367.27,1377.26 1370.59,1376.61 1373.92,1375.93 1377.25,1375.22 1380.58,1374.49 1383.91,1373.72 1387.24,1372.93 1390.57,1372.11 1393.9,1371.26 1397.23,1370.38 1400.56,1369.47 1403.89,1368.53 1407.22,1367.57 1410.55,1366.57 1413.88,1365.55 1417.21,1364.49 1420.54,1363.41 1423.86,1362.3 1427.19,1361.16 1430.52,1359.99 1433.85,1358.8 1437.18,1357.57 1440.51,1356.32 1443.84,1355.03 1447.17,1353.72 1450.5,1352.38 1453.83,1351.01 1457.16,1349.61 1460.49,1348.18 1463.82,1346.72 1467.15,1345.24 1470.48,1343.72 1473.8,1342.18 1477.13,1340.61 1480.46,1339.01 1483.79,1337.38 1487.12,1335.72 1490.45,1334.03 1493.78,1332.32 1497.11,1330.57 1500.44,1328.8 1503.77,1326.99 1507.1,1325.16 1510.43,1323.3 1513.76,1321.41 1517.09,1319.49 1520.42,1317.55 1523.75,1315.57 1527.07,1313.57 1530.4,1311.53 1533.73,1309.47 1537.06,1307.38 1540.39,1305.26 1543.72,1303.11 1547.05,1300.93 1550.38,1298.73 1553.71,1296.49 1557.04,1294.23 1560.37,1291.93 1563.7,1289.61 1567.03,1287.26 1570.36,1284.88 1573.69,1282.47 1577.01,1280.03 1580.34,1277.57 1583.67,1275.07 1587,1272.55 1590.33,1270 1593.66,1267.41 1596.99,1264.8 1600.32,1262.16 1603.65,1259.5 1606.98,1256.8 1610.31,1254.07 1613.64,1251.32 1616.97,1248.53 1620.3,1245.72 1623.63,1242.88 1626.96,1240.01 1630.28,1237.11 1633.61,1234.18 1636.94,1231.23 1640.27,1228.24 1643.6,1225.23 1646.93,1222.18 1650.26,1219.11 1653.59,1216.01 1656.92,1212.88 1660.25,1209.72 1663.58,1206.53 1666.91,1203.32 1670.24,1200.07 1673.57,1196.8 1676.9,1193.5 1680.23,1190.16 1683.55,1186.8 1686.88,1183.42 1690.21,1180 1693.54,1176.55 1696.87,1173.07 1700.2,1169.57 1703.53,1166.04 1706.86,1162.47 1710.19,1158.88 1713.52,1155.26 1716.85,1151.61 1720.18,1147.94 1723.51,1144.23 1726.84,1140.49 1730.17,1136.73 1733.49,1132.94 1736.82,1129.11 1740.15,1125.26 1743.48,1121.38 1746.81,1117.47 1750.14,1113.54 1753.47,1109.57 1756.8,1105.58 1760.13,1101.55 1763.46,1097.5 1766.79,1093.42 1770.12,1089.31 1773.45,1085.17 1776.78,1081 1780.11,1076.8 1783.44,1072.58 1786.76,1068.32 1790.09,1064.04 1793.42,1059.73 1796.75,1055.38 1800.08,1051.01 1803.41,1046.61 1806.74,1042.19 1810.07,1037.73 1813.4,1033.24 1816.73,1028.73 1820.06,1024.19 1823.39,1019.62 1826.72,1015.01 1830.05,1010.38 1833.38,1005.73 1836.71,1001.04 1840.03,996.322 1843.36,991.577 1846.69,986.803 1850.02,982.001 1853.35,977.169 1856.68,972.308 1860.01,967.419 1863.34,962.501 1866.67,957.554 1870,952.578 1873.33,947.573 1876.66,942.54 1879.99,937.477 1883.32,932.386 1886.65,927.266 1889.97,922.117 1893.3,916.939 1896.63,911.733 1899.96,906.497 1903.29,901.233 1906.62,895.94 1909.95,890.618 1913.28,885.267 1916.61,879.887 1919.94,874.479 1923.27,869.041 1926.6,863.575 1929.93,858.08 1933.26,852.556 1936.59,847.003 1939.92,841.422 1943.24,835.811 1946.57,830.172 1949.9,824.504 1953.23,818.807 1956.56,813.081 1959.89,807.326 1963.22,801.542 1966.55,795.73 1969.88,789.889 1973.21,784.019 1976.54,778.12 1979.87,772.192 1983.2,766.235 1986.53,760.25 1989.86,754.236 1993.19,748.192 1996.51,742.12 1999.84,736.02 2003.17,729.89 2006.5,723.731 2009.83,717.544 2013.16,711.328 2016.49,705.083 2019.82,698.809 2023.15,692.506 2026.48,686.174 2029.81,679.814 2033.14,673.425 2036.47,667.007 2039.8,660.56 2043.13,654.084 2046.45,647.579 2049.78,641.045 2053.11,634.483 2056.44,627.892 2059.77,621.272 2063.1,614.623 2066.43,607.945 2069.76,601.239 2073.09,594.503 2076.42,587.739 2079.75,580.946 2083.08,574.124 2086.41,567.273 2089.74,560.393 2093.07,553.485 2096.4,546.547 2099.72,539.581 2103.05,532.586 2106.38,525.562 2109.71,518.509 2113.04,511.428 2116.37,504.317 2119.7,497.178 2123.03,490.01 2126.36,482.813 2129.69,475.587 2133.02,468.332 2136.35,461.049 2139.68,453.736 2143.01,446.395 2146.34,439.025 2149.66,431.626 2152.99,424.199 2156.32,416.742 2159.65,409.257 2162.98,401.742 2166.31,394.199 2169.64,386.627 2172.97,379.026 2176.3,371.397 2179.63,363.738 2182.96,356.051 2186.29,348.335 2189.62,340.59 2192.95,332.816 2196.28,325.013 2199.61,317.181 2202.93,309.321 2206.26,301.432 2209.59,293.514 2212.92,285.567 2216.25,277.591 2219.58,269.586 2222.91,261.553 2226.24,253.49 2229.57,245.399 2232.9,237.279 2236.23,229.13 2239.56,220.952 2242.89,212.746 2246.22,204.51 2249.55,196.246 2252.88,187.953 2256.2,179.631 2259.53,171.28 2262.86,162.901 2266.19,154.492 2269.52,146.055 2272.85,137.589 2276.18,129.094 2279.51,120.57 2282.84,112.017 2286.17,103.435 2289.5,94.8249 2292.83,86.1857 "/>
<polyline clip-path="url(#clip632)" style="stroke:#e26f46; stroke-linecap:round; stroke-linejoin:round; stroke-width:4; stroke-opacity:1; fill:none" points="961.083,1348.18 1626.96,1348.18 "/>
<circle clip-path="url(#clip632)" cx="1294.02" cy="1384.24" r="14.4" fill="#3da44d" fill-rule="evenodd" fill-opacity="1" stroke="#000000" stroke-opacity="1" stroke-width="3.2"/>
<circle clip-path="url(#clip632)" cx="2126.36" cy="482.813" r="14.4" fill="#3da44d" fill-rule="evenodd" fill-opacity="1" stroke="#000000" stroke-opacity="1" stroke-width="3.2"/>
<path clip-path="url(#clip630)" d="M1775.96 1377.32 L2282.17 1377.32 L2282.17 1169.96 L1775.96 1169.96  Z" fill="#ffffff" fill-rule="evenodd" fill-opacity="1"/>
<polyline clip-path="url(#clip630)" style="stroke:#000000; stroke-linecap:round; stroke-linejoin:round; stroke-width:4; stroke-opacity:1; fill:none" points="1775.96,1377.32 2282.17,1377.32 2282.17,1169.96 1775.96,1169.96 1775.96,1377.32 "/>
<polyline clip-path="url(#clip630)" style="stroke:#009af9; stroke-linecap:round; stroke-linejoin:round; stroke-width:4; stroke-opacity:1; fill:none" points="1799.49,1221.8 1940.65,1221.8 "/>
<path clip-path="url(#clip630)" d="M1971.59 1205.79 L1971.59 1213.15 L1980.36 1213.15 L1980.36 1216.46 L1971.59 1216.46 L1971.59 1230.53 Q1971.59 1233.7 1972.44 1234.61 Q1973.32 1235.51 1975.99 1235.51 L1980.36 1235.51 L1980.36 1239.08 L1975.99 1239.08 Q1971.05 1239.08 1969.18 1237.25 Q1967.3 1235.39 1967.3 1230.53 L1967.3 1216.46 L1964.18 1216.46 L1964.18 1213.15 L1967.3 1213.15 L1967.3 1205.79 L1971.59 1205.79 Z" fill="#000000" fill-rule="nonzero" fill-opacity="1" /><path clip-path="url(#clip630)" d="M2008.14 1225.05 L2008.14 1227.13 L1988.55 1227.13 Q1988.83 1231.53 1991.19 1233.84 Q1993.58 1236.14 1997.81 1236.14 Q2000.27 1236.14 2002.56 1235.53 Q2004.87 1234.93 2007.14 1233.73 L2007.14 1237.76 Q2004.85 1238.73 2002.44 1239.24 Q2000.04 1239.75 1997.56 1239.75 Q1991.36 1239.75 1987.72 1236.14 Q1984.11 1232.52 1984.11 1226.37 Q1984.11 1220 1987.54 1216.27 Q1990.99 1212.52 1996.82 1212.52 Q2002.05 1212.52 2005.08 1215.9 Q2008.14 1219.26 2008.14 1225.05 M2003.88 1223.8 Q2003.83 1220.3 2001.91 1218.22 Q2000.01 1216.14 1996.86 1216.14 Q1993.3 1216.14 1991.15 1218.15 Q1989.02 1220.16 1988.69 1223.82 L2003.88 1223.8 Z" fill="#000000" fill-rule="nonzero" fill-opacity="1" /><path clip-path="url(#clip630)" d="M2031.66 1213.91 L2031.66 1217.94 Q2029.85 1217.02 2027.91 1216.55 Q2025.96 1216.09 2023.88 1216.09 Q2020.71 1216.09 2019.11 1217.06 Q2017.54 1218.03 2017.54 1219.98 Q2017.54 1221.46 2018.67 1222.32 Q2019.8 1223.15 2023.23 1223.91 L2024.69 1224.24 Q2029.23 1225.21 2031.12 1226.99 Q2033.05 1228.75 2033.05 1231.92 Q2033.05 1235.53 2030.17 1237.64 Q2027.33 1239.75 2022.33 1239.75 Q2020.24 1239.75 2017.98 1239.33 Q2015.73 1238.94 2013.23 1238.13 L2013.23 1233.73 Q2015.59 1234.95 2017.88 1235.58 Q2020.18 1236.18 2022.42 1236.18 Q2025.43 1236.18 2027.05 1235.16 Q2028.67 1234.12 2028.67 1232.25 Q2028.67 1230.51 2027.49 1229.58 Q2026.33 1228.66 2022.37 1227.8 L2020.89 1227.46 Q2016.93 1226.62 2015.18 1224.91 Q2013.42 1223.17 2013.42 1220.16 Q2013.42 1216.51 2016.01 1214.52 Q2018.6 1212.52 2023.37 1212.52 Q2025.73 1212.52 2027.81 1212.87 Q2029.9 1213.22 2031.66 1213.91 Z" fill="#000000" fill-rule="nonzero" fill-opacity="1" /><path clip-path="url(#clip630)" d="M2044.04 1205.79 L2044.04 1213.15 L2052.81 1213.15 L2052.81 1216.46 L2044.04 1216.46 L2044.04 1230.53 Q2044.04 1233.7 2044.9 1234.61 Q2045.78 1235.51 2048.44 1235.51 L2052.81 1235.51 L2052.81 1239.08 L2048.44 1239.08 Q2043.51 1239.08 2041.63 1237.25 Q2039.76 1235.39 2039.76 1230.53 L2039.76 1216.46 L2036.63 1216.46 L2036.63 1213.15 L2039.76 1213.15 L2039.76 1205.79 L2044.04 1205.79 Z" fill="#000000" fill-rule="nonzero" fill-opacity="1" /><path clip-path="url(#clip630)" d="M2086.61 1203.06 L2086.61 1206.6 L2082.54 1206.6 Q2080.24 1206.6 2079.34 1207.52 Q2078.46 1208.45 2078.46 1210.86 L2078.46 1213.15 L2085.48 1213.15 L2085.48 1216.46 L2078.46 1216.46 L2078.46 1239.08 L2074.18 1239.08 L2074.18 1216.46 L2070.11 1216.46 L2070.11 1213.15 L2074.18 1213.15 L2074.18 1211.34 Q2074.18 1207.02 2076.19 1205.05 Q2078.21 1203.06 2082.58 1203.06 L2086.61 1203.06 Z" fill="#000000" fill-rule="nonzero" fill-opacity="1" /><path clip-path="url(#clip630)" d="M2089.73 1228.84 L2089.73 1213.15 L2093.99 1213.15 L2093.99 1228.68 Q2093.99 1232.36 2095.43 1234.21 Q2096.86 1236.04 2099.73 1236.04 Q2103.18 1236.04 2105.17 1233.84 Q2107.19 1231.64 2107.19 1227.85 L2107.19 1213.15 L2111.45 1213.15 L2111.45 1239.08 L2107.19 1239.08 L2107.19 1235.09 Q2105.64 1237.45 2103.58 1238.61 Q2101.54 1239.75 2098.83 1239.75 Q2094.36 1239.75 2092.05 1236.97 Q2089.73 1234.19 2089.73 1228.84 M2100.45 1212.52 L2100.45 1212.52 Z" fill="#000000" fill-rule="nonzero" fill-opacity="1" /><path clip-path="url(#clip630)" d="M2141.77 1223.43 L2141.77 1239.08 L2137.51 1239.08 L2137.51 1223.57 Q2137.51 1219.89 2136.08 1218.06 Q2134.64 1216.23 2131.77 1216.23 Q2128.32 1216.23 2126.33 1218.43 Q2124.34 1220.63 2124.34 1224.42 L2124.34 1239.08 L2120.06 1239.08 L2120.06 1213.15 L2124.34 1213.15 L2124.34 1217.18 Q2125.87 1214.84 2127.93 1213.68 Q2130.01 1212.52 2132.72 1212.52 Q2137.19 1212.52 2139.48 1215.3 Q2141.77 1218.06 2141.77 1223.43 Z" fill="#000000" fill-rule="nonzero" fill-opacity="1" /><path clip-path="url(#clip630)" d="M2168.92 1214.14 L2168.92 1218.13 Q2167.12 1217.13 2165.29 1216.64 Q2163.48 1216.14 2161.63 1216.14 Q2157.49 1216.14 2155.2 1218.77 Q2152.91 1221.39 2152.91 1226.14 Q2152.91 1230.88 2155.2 1233.52 Q2157.49 1236.14 2161.63 1236.14 Q2163.48 1236.14 2165.29 1235.65 Q2167.12 1235.14 2168.92 1234.14 L2168.92 1238.08 Q2167.14 1238.91 2165.22 1239.33 Q2163.32 1239.75 2161.17 1239.75 Q2155.31 1239.75 2151.86 1236.07 Q2148.42 1232.39 2148.42 1226.14 Q2148.42 1219.79 2151.89 1216.16 Q2155.38 1212.52 2161.45 1212.52 Q2163.42 1212.52 2165.29 1212.94 Q2167.17 1213.33 2168.92 1214.14 Z" fill="#000000" fill-rule="nonzero" fill-opacity="1" /><path clip-path="url(#clip630)" d="M2180.54 1205.79 L2180.54 1213.15 L2189.32 1213.15 L2189.32 1216.46 L2180.54 1216.46 L2180.54 1230.53 Q2180.54 1233.7 2181.4 1234.61 Q2182.28 1235.51 2184.94 1235.51 L2189.32 1235.51 L2189.32 1239.08 L2184.94 1239.08 Q2180.01 1239.08 2178.14 1237.25 Q2176.26 1235.39 2176.26 1230.53 L2176.26 1216.46 L2173.14 1216.46 L2173.14 1213.15 L2176.26 1213.15 L2176.26 1205.79 L2180.54 1205.79 Z" fill="#000000" fill-rule="nonzero" fill-opacity="1" /><path clip-path="url(#clip630)" d="M2194.92 1213.15 L2199.18 1213.15 L2199.18 1239.08 L2194.92 1239.08 L2194.92 1213.15 M2194.92 1203.06 L2199.18 1203.06 L2199.18 1208.45 L2194.92 1208.45 L2194.92 1203.06 Z" fill="#000000" fill-rule="nonzero" fill-opacity="1" /><path clip-path="url(#clip630)" d="M2218.14 1216.14 Q2214.71 1216.14 2212.72 1218.82 Q2210.73 1221.48 2210.73 1226.14 Q2210.73 1230.79 2212.7 1233.47 Q2214.69 1236.14 2218.14 1236.14 Q2221.54 1236.14 2223.53 1233.45 Q2225.52 1230.77 2225.52 1226.14 Q2225.52 1221.53 2223.53 1218.84 Q2221.54 1216.14 2218.14 1216.14 M2218.14 1212.52 Q2223.69 1212.52 2226.86 1216.14 Q2230.04 1219.75 2230.04 1226.14 Q2230.04 1232.5 2226.86 1236.14 Q2223.69 1239.75 2218.14 1239.75 Q2212.56 1239.75 2209.39 1236.14 Q2206.24 1232.5 2206.24 1226.14 Q2206.24 1219.75 2209.39 1216.14 Q2212.56 1212.52 2218.14 1212.52 Z" fill="#000000" fill-rule="nonzero" fill-opacity="1" /><path clip-path="url(#clip630)" d="M2258.65 1223.43 L2258.65 1239.08 L2254.39 1239.08 L2254.39 1223.57 Q2254.39 1219.89 2252.95 1218.06 Q2251.52 1216.23 2248.65 1216.23 Q2245.2 1216.23 2243.21 1218.43 Q2241.22 1220.63 2241.22 1224.42 L2241.22 1239.08 L2236.93 1239.08 L2236.93 1213.15 L2241.22 1213.15 L2241.22 1217.18 Q2242.74 1214.84 2244.8 1213.68 Q2246.89 1212.52 2249.6 1212.52 Q2254.06 1212.52 2256.35 1215.3 Q2258.65 1218.06 2258.65 1223.43 Z" fill="#000000" fill-rule="nonzero" fill-opacity="1" /><polyline clip-path="url(#clip630)" style="stroke:#e26f46; stroke-linecap:round; stroke-linejoin:round; stroke-width:4; stroke-opacity:1; fill:none" points="1799.49,1273.64 1940.65,1273.64 "/>
<path clip-path="url(#clip630)" d="M1980.68 1254.9 L1980.68 1258.44 L1976.61 1258.44 Q1974.32 1258.44 1973.42 1259.36 Q1972.54 1260.29 1972.54 1262.7 L1972.54 1264.99 L1979.55 1264.99 L1979.55 1268.3 L1972.54 1268.3 L1972.54 1290.92 L1968.25 1290.92 L1968.25 1268.3 L1964.18 1268.3 L1964.18 1264.99 L1968.25 1264.99 L1968.25 1263.18 Q1968.25 1258.86 1970.27 1256.89 Q1972.28 1254.9 1976.66 1254.9 L1980.68 1254.9 Z" fill="#000000" fill-rule="nonzero" fill-opacity="1" /><path clip-path="url(#clip630)" d="M1994.48 1254.94 Q1991.38 1260.27 1989.87 1265.48 Q1988.37 1270.68 1988.37 1276.03 Q1988.37 1281.38 1989.87 1286.63 Q1991.4 1291.86 1994.48 1297.17 L1990.78 1297.17 Q1987.3 1291.73 1985.57 1286.47 Q1983.86 1281.22 1983.86 1276.03 Q1983.86 1270.87 1985.57 1265.64 Q1987.28 1260.41 1990.78 1254.94 L1994.48 1254.94 Z" fill="#000000" fill-rule="nonzero" fill-opacity="1" /><path clip-path="url(#clip630)" d="M2024.3 1264.99 L2014.92 1277.61 L2024.78 1290.92 L2019.76 1290.92 L2012.21 1280.73 L2004.67 1290.92 L1999.64 1290.92 L2009.71 1277.35 L2000.5 1264.99 L2005.52 1264.99 L2012.4 1274.23 L2019.27 1264.99 L2024.3 1264.99 Z" fill="#000000" fill-rule="nonzero" fill-opacity="1" /><path clip-path="url(#clip630)" d="M2030.13 1254.94 L2033.83 1254.94 Q2037.3 1260.41 2039.02 1265.64 Q2040.75 1270.87 2040.75 1276.03 Q2040.75 1281.22 2039.02 1286.47 Q2037.3 1291.73 2033.83 1297.17 L2030.13 1297.17 Q2033.21 1291.86 2034.71 1286.63 Q2036.24 1281.38 2036.24 1276.03 Q2036.24 1270.68 2034.71 1265.48 Q2033.21 1260.27 2030.13 1254.94 Z" fill="#000000" fill-rule="nonzero" fill-opacity="1" /><path clip-path="url(#clip630)" d="M2064.92 1269.39 L2094.6 1269.39 L2094.6 1273.28 L2064.92 1273.28 L2064.92 1269.39 M2064.92 1278.83 L2094.6 1278.83 L2094.6 1282.77 L2064.92 1282.77 L2064.92 1278.83 Z" fill="#000000" fill-rule="nonzero" fill-opacity="1" /><path clip-path="url(#clip630)" d="M2129.76 1259.43 Q2126.15 1259.43 2124.32 1263 Q2122.51 1266.54 2122.51 1273.67 Q2122.51 1280.78 2124.32 1284.34 Q2126.15 1287.88 2129.76 1287.88 Q2133.39 1287.88 2135.2 1284.34 Q2137.03 1280.78 2137.03 1273.67 Q2137.03 1266.54 2135.2 1263 Q2133.39 1259.43 2129.76 1259.43 M2129.76 1255.73 Q2135.57 1255.73 2138.62 1260.34 Q2141.7 1264.92 2141.7 1273.67 Q2141.7 1282.4 2138.62 1287 Q2135.57 1291.59 2129.76 1291.59 Q2123.95 1291.59 2120.87 1287 Q2117.81 1282.4 2117.81 1273.67 Q2117.81 1264.92 2120.87 1260.34 Q2123.95 1255.73 2129.76 1255.73 Z" fill="#000000" fill-rule="nonzero" fill-opacity="1" /><circle clip-path="url(#clip630)" cx="1870.07" cy="1325.48" r="20.48" fill="#3da44d" fill-rule="evenodd" fill-opacity="1" stroke="#000000" stroke-opacity="1" stroke-width="4.55111"/>
<path clip-path="url(#clip630)" d="M1982.95 1329.82 Q1982.95 1325.12 1981.01 1322.45 Q1979.09 1319.77 1975.71 1319.77 Q1972.33 1319.77 1970.38 1322.45 Q1968.46 1325.12 1968.46 1329.82 Q1968.46 1334.51 1970.38 1337.2 Q1972.33 1339.86 1975.71 1339.86 Q1979.09 1339.86 1981.01 1337.2 Q1982.95 1334.51 1982.95 1329.82 M1968.46 1320.76 Q1969.8 1318.45 1971.84 1317.34 Q1973.9 1316.2 1976.75 1316.2 Q1981.47 1316.2 1984.41 1319.95 Q1987.37 1323.7 1987.37 1329.82 Q1987.37 1335.93 1984.41 1339.68 Q1981.47 1343.43 1976.75 1343.43 Q1973.9 1343.43 1971.84 1342.32 Q1969.8 1341.18 1968.46 1338.87 L1968.46 1342.76 L1964.18 1342.76 L1964.18 1306.74 L1968.46 1306.74 L1968.46 1320.76 Z" fill="#000000" fill-rule="nonzero" fill-opacity="1" /><path clip-path="url(#clip630)" d="M2004.48 1319.82 Q2001.05 1319.82 1999.06 1322.5 Q1997.07 1325.16 1997.07 1329.82 Q1997.07 1334.47 1999.04 1337.15 Q2001.03 1339.82 2004.48 1339.82 Q2007.88 1339.82 2009.87 1337.13 Q2011.86 1334.45 2011.86 1329.82 Q2011.86 1325.21 2009.87 1322.52 Q2007.88 1319.82 2004.48 1319.82 M2004.48 1316.2 Q2010.04 1316.2 2013.21 1319.82 Q2016.38 1323.43 2016.38 1329.82 Q2016.38 1336.18 2013.21 1339.82 Q2010.04 1343.43 2004.48 1343.43 Q1998.9 1343.43 1995.73 1339.82 Q1992.58 1336.18 1992.58 1329.82 Q1992.58 1323.43 1995.73 1319.82 Q1998.9 1316.2 2004.48 1316.2 Z" fill="#000000" fill-rule="nonzero" fill-opacity="1" /><path clip-path="url(#clip630)" d="M2023 1332.52 L2023 1316.83 L2027.26 1316.83 L2027.26 1332.36 Q2027.26 1336.04 2028.69 1337.89 Q2030.13 1339.72 2033 1339.72 Q2036.45 1339.72 2038.44 1337.52 Q2040.45 1335.32 2040.45 1331.53 L2040.45 1316.83 L2044.71 1316.83 L2044.71 1342.76 L2040.45 1342.76 L2040.45 1338.77 Q2038.9 1341.13 2036.84 1342.29 Q2034.8 1343.43 2032.1 1343.43 Q2027.63 1343.43 2025.31 1340.65 Q2023 1337.87 2023 1332.52 M2033.72 1316.2 L2033.72 1316.2 Z" fill="#000000" fill-rule="nonzero" fill-opacity="1" /><path clip-path="url(#clip630)" d="M2075.04 1327.11 L2075.04 1342.76 L2070.78 1342.76 L2070.78 1327.25 Q2070.78 1323.57 2069.34 1321.74 Q2067.91 1319.91 2065.04 1319.91 Q2061.59 1319.91 2059.6 1322.11 Q2057.61 1324.31 2057.61 1328.1 L2057.61 1342.76 L2053.32 1342.76 L2053.32 1316.83 L2057.61 1316.83 L2057.61 1320.86 Q2059.13 1318.52 2061.19 1317.36 Q2063.28 1316.2 2065.98 1316.2 Q2070.45 1316.2 2072.74 1318.98 Q2075.04 1321.74 2075.04 1327.11 Z" fill="#000000" fill-rule="nonzero" fill-opacity="1" /><path clip-path="url(#clip630)" d="M2100.59 1320.76 L2100.59 1306.74 L2104.85 1306.74 L2104.85 1342.76 L2100.59 1342.76 L2100.59 1338.87 Q2099.25 1341.18 2097.19 1342.32 Q2095.15 1343.43 2092.28 1343.43 Q2087.58 1343.43 2084.62 1339.68 Q2081.68 1335.93 2081.68 1329.82 Q2081.68 1323.7 2084.62 1319.95 Q2087.58 1316.2 2092.28 1316.2 Q2095.15 1316.2 2097.19 1317.34 Q2099.25 1318.45 2100.59 1320.76 M2086.08 1329.82 Q2086.08 1334.51 2088 1337.2 Q2089.94 1339.86 2093.32 1339.86 Q2096.7 1339.86 2098.65 1337.2 Q2100.59 1334.51 2100.59 1329.82 Q2100.59 1325.12 2098.65 1322.45 Q2096.7 1319.77 2093.32 1319.77 Q2089.94 1319.77 2088 1322.45 Q2086.08 1325.12 2086.08 1329.82 Z" fill="#000000" fill-rule="nonzero" fill-opacity="1" /><path clip-path="url(#clip630)" d="M2130.15 1317.59 L2130.15 1321.62 Q2128.35 1320.7 2126.4 1320.23 Q2124.46 1319.77 2122.37 1319.77 Q2119.2 1319.77 2117.61 1320.74 Q2116.03 1321.71 2116.03 1323.66 Q2116.03 1325.14 2117.17 1326 Q2118.3 1326.83 2121.73 1327.59 L2123.18 1327.92 Q2127.72 1328.89 2129.62 1330.67 Q2131.54 1332.43 2131.54 1335.6 Q2131.54 1339.21 2128.67 1341.32 Q2125.82 1343.43 2120.82 1343.43 Q2118.74 1343.43 2116.47 1343.01 Q2114.23 1342.62 2111.73 1341.81 L2111.73 1337.41 Q2114.09 1338.63 2116.38 1339.26 Q2118.67 1339.86 2120.92 1339.86 Q2123.92 1339.86 2125.54 1338.84 Q2127.17 1337.8 2127.17 1335.93 Q2127.17 1334.19 2125.98 1333.26 Q2124.83 1332.34 2120.87 1331.48 L2119.39 1331.14 Q2115.43 1330.3 2113.67 1328.59 Q2111.91 1326.85 2111.91 1323.84 Q2111.91 1320.19 2114.5 1318.2 Q2117.1 1316.2 2121.86 1316.2 Q2124.23 1316.2 2126.31 1316.55 Q2128.39 1316.9 2130.15 1317.59 Z" fill="#000000" fill-rule="nonzero" fill-opacity="1" /></svg>
