<?xml version="1.0" encoding="utf-8"?>
<svg xmlns="http://www.w3.org/2000/svg" xmlns:xlink="http://www.w3.org/1999/xlink" width="600" height="400" viewBox="0 0 2400 1600">
<defs>
  <clipPath id="clip980">
    <rect x="0" y="0" width="2400" height="1600"/>
  </clipPath>
</defs>
<path clip-path="url(#clip980)" d="M0 1600 L2400 1600 L2400 0 L0 0  Z" fill="#ffffff" fill-rule="evenodd" fill-opacity="1"/>
<defs>
  <clipPath id="clip981">
    <rect x="480" y="0" width="1681" height="1600"/>
  </clipPath>
</defs>
<path clip-path="url(#clip980)" d="M205.121 1423.18 L2352.76 1423.18 L2352.76 47.2441 L205.121 47.2441  Z" fill="#ffffff" fill-rule="evenodd" fill-opacity="1"/>
<defs>
  <clipPath id="clip982">
    <rect x="205" y="47" width="2149" height="1377"/>
  </clipPath>
</defs>
<polyline clip-path="url(#clip982)" style="stroke:#000000; stroke-linecap:round; stroke-linejoin:round; stroke-width:2; stroke-opacity:0.1; fill:none" points="265.903,1423.18 265.903,47.2441 "/>
<polyline clip-path="url(#clip982)" style="stroke:#000000; stroke-linecap:round; stroke-linejoin:round; stroke-width:2; stroke-opacity:0.1; fill:none" points="772.421,1423.18 772.421,47.2441 "/>
<polyline clip-path="url(#clip982)" style="stroke:#000000; stroke-linecap:round; stroke-linejoin:round; stroke-width:2; stroke-opacity:0.1; fill:none" points="1278.94,1423.18 1278.94,47.2441 "/>
<polyline clip-path="url(#clip982)" style="stroke:#000000; stroke-linecap:round; stroke-linejoin:round; stroke-width:2; stroke-opacity:0.1; fill:none" points="1785.46,1423.18 1785.46,47.2441 "/>
<polyline clip-path="url(#clip982)" style="stroke:#000000; stroke-linecap:round; stroke-linejoin:round; stroke-width:2; stroke-opacity:0.1; fill:none" points="2291.97,1423.18 2291.97,47.2441 "/>
<polyline clip-path="url(#clip982)" style="stroke:#000000; stroke-linecap:round; stroke-linejoin:round; stroke-width:2; stroke-opacity:0.1; fill:none" points="205.121,1267.41 2352.76,1267.41 "/>
<polyline clip-path="url(#clip982)" style="stroke:#000000; stroke-linecap:round; stroke-linejoin:round; stroke-width:2; stroke-opacity:0.1; fill:none" points="205.121,1007.8 2352.76,1007.8 "/>
<polyline clip-path="url(#clip982)" style="stroke:#000000; stroke-linecap:round; stroke-linejoin:round; stroke-width:2; stroke-opacity:0.1; fill:none" points="205.121,748.192 2352.76,748.192 "/>
<polyline clip-path="url(#clip982)" style="stroke:#000000; stroke-linecap:round; stroke-linejoin:round; stroke-width:2; stroke-opacity:0.1; fill:none" points="205.121,488.582 2352.76,488.582 "/>
<polyline clip-path="url(#clip982)" style="stroke:#000000; stroke-linecap:round; stroke-linejoin:round; stroke-width:2; stroke-opacity:0.1; fill:none" points="205.121,228.971 2352.76,228.971 "/>
<polyline clip-path="url(#clip980)" style="stroke:#000000; stroke-linecap:round; stroke-linejoin:round; stroke-width:4; stroke-opacity:1; fill:none" points="205.121,1423.18 2352.76,1423.18 "/>
<polyline clip-path="url(#clip980)" style="stroke:#000000; stroke-linecap:round; stroke-linejoin:round; stroke-width:4; stroke-opacity:1; fill:none" points="265.903,1423.18 265.903,1404.28 "/>
<polyline clip-path="url(#clip980)" style="stroke:#000000; stroke-linecap:round; stroke-linejoin:round; stroke-width:4; stroke-opacity:1; fill:none" points="772.421,1423.18 772.421,1404.28 "/>
<polyline clip-path="url(#clip980)" style="stroke:#000000; stroke-linecap:round; stroke-linejoin:round; stroke-width:4; stroke-opacity:1; fill:none" points="1278.94,1423.18 1278.94,1404.28 "/>
<polyline clip-path="url(#clip980)" style="stroke:#000000; stroke-linecap:round; stroke-linejoin:round; stroke-width:4; stroke-opacity:1; fill:none" points="1785.46,1423.18 1785.46,1404.28 "/>
<polyline clip-path="url(#clip980)" style="stroke:#000000; stroke-linecap:round; stroke-linejoin:round; stroke-width:4; stroke-opacity:1; fill:none" points="2291.97,1423.18 2291.97,1404.28 "/>
<path clip-path="url(#clip980)" d="M219.966 1468.75 L249.642 1468.75 L249.642 1472.69 L219.966 1472.69 L219.966 1468.75 Z" fill="#000000" fill-rule="nonzero" fill-opacity="1" /><path clip-path="url(#clip980)" d="M260.544 1481.64 L268.183 1481.64 L268.183 1455.28 L259.873 1456.95 L259.873 1452.69 L268.137 1451.02 L272.813 1451.02 L272.813 1481.64 L280.452 1481.64 L280.452 1485.58 L260.544 1485.58 L260.544 1481.64 Z" fill="#000000" fill-rule="nonzero" fill-opacity="1" /><path clip-path="url(#clip980)" d="M299.896 1454.1 Q296.285 1454.1 294.456 1457.66 Q292.651 1461.2 292.651 1468.33 Q292.651 1475.44 294.456 1479.01 Q296.285 1482.55 299.896 1482.55 Q303.53 1482.55 305.336 1479.01 Q307.164 1475.44 307.164 1468.33 Q307.164 1461.2 305.336 1457.66 Q303.53 1454.1 299.896 1454.1 M299.896 1450.39 Q305.706 1450.39 308.762 1455 Q311.84 1459.58 311.84 1468.33 Q311.84 1477.06 308.762 1481.67 Q305.706 1486.25 299.896 1486.25 Q294.086 1486.25 291.007 1481.67 Q287.952 1477.06 287.952 1468.33 Q287.952 1459.58 291.007 1455 Q294.086 1450.39 299.896 1450.39 Z" fill="#000000" fill-rule="nonzero" fill-opacity="1" /><path clip-path="url(#clip980)" d="M742.062 1468.75 L771.738 1468.75 L771.738 1472.69 L742.062 1472.69 L742.062 1468.75 Z" fill="#000000" fill-rule="nonzero" fill-opacity="1" /><path clip-path="url(#clip980)" d="M781.877 1451.02 L800.233 1451.02 L800.233 1454.96 L786.159 1454.96 L786.159 1463.43 Q787.178 1463.08 788.196 1462.92 Q789.215 1462.73 790.233 1462.73 Q796.02 1462.73 799.4 1465.9 Q802.779 1469.08 802.779 1474.49 Q802.779 1480.07 799.307 1483.17 Q795.835 1486.25 789.516 1486.25 Q787.34 1486.25 785.071 1485.88 Q782.826 1485.51 780.418 1484.77 L780.418 1480.07 Q782.502 1481.2 784.724 1481.76 Q786.946 1482.32 789.423 1482.32 Q793.428 1482.32 795.766 1480.21 Q798.104 1478.1 798.104 1474.49 Q798.104 1470.88 795.766 1468.77 Q793.428 1466.67 789.423 1466.67 Q787.548 1466.67 785.673 1467.08 Q783.821 1467.5 781.877 1468.38 L781.877 1451.02 Z" fill="#000000" fill-rule="nonzero" fill-opacity="1" /><path clip-path="url(#clip980)" d="M1278.94 1454.1 Q1275.33 1454.1 1273.5 1457.66 Q1271.69 1461.2 1271.69 1468.33 Q1271.69 1475.44 1273.5 1479.01 Q1275.33 1482.55 1278.94 1482.55 Q1282.57 1482.55 1284.38 1479.01 Q1286.21 1475.44 1286.21 1468.33 Q1286.21 1461.2 1284.38 1457.66 Q1282.57 1454.1 1278.94 1454.1 M1278.94 1450.39 Q1284.75 1450.39 1287.8 1455 Q1290.88 1459.58 1290.88 1468.33 Q1290.88 1477.06 1287.8 1481.67 Q1284.75 1486.25 1278.94 1486.25 Q1273.13 1486.25 1270.05 1481.67 Q1266.99 1477.06 1266.99 1468.33 Q1266.99 1459.58 1270.05 1455 Q1273.13 1450.39 1278.94 1450.39 Z" fill="#000000" fill-rule="nonzero" fill-opacity="1" /><path clip-path="url(#clip980)" d="M1775.73 1451.02 L1794.09 1451.02 L1794.09 1454.96 L1780.02 1454.96 L1780.02 1463.43 Q1781.03 1463.08 1782.05 1462.92 Q1783.07 1462.73 1784.09 1462.73 Q1789.88 1462.73 1793.26 1465.9 Q1796.64 1469.08 1796.64 1474.49 Q1796.64 1480.07 1793.16 1483.17 Q1789.69 1486.25 1783.37 1486.25 Q1781.2 1486.25 1778.93 1485.88 Q1776.68 1485.51 1774.28 1484.77 L1774.28 1480.07 Q1776.36 1481.2 1778.58 1481.76 Q1780.8 1482.32 1783.28 1482.32 Q1787.28 1482.32 1789.62 1480.21 Q1791.96 1478.1 1791.96 1474.49 Q1791.96 1470.88 1789.62 1468.77 Q1787.28 1466.67 1783.28 1466.67 Q1781.41 1466.67 1779.53 1467.08 Q1777.68 1467.5 1775.73 1468.38 L1775.73 1451.02 Z" fill="#000000" fill-rule="nonzero" fill-opacity="1" /><path clip-path="url(#clip980)" d="M2266.66 1481.64 L2274.3 1481.64 L2274.3 1455.28 L2265.99 1456.95 L2265.99 1452.69 L2274.25 1451.02 L2278.93 1451.02 L2278.93 1481.64 L2286.57 1481.64 L2286.57 1485.58 L2266.66 1485.58 L2266.66 1481.64 Z" fill="#000000" fill-rule="nonzero" fill-opacity="1" /><path clip-path="url(#clip980)" d="M2306.01 1454.1 Q2302.4 1454.1 2300.57 1457.66 Q2298.77 1461.2 2298.77 1468.33 Q2298.77 1475.44 2300.57 1479.01 Q2302.4 1482.55 2306.01 1482.55 Q2309.65 1482.55 2311.45 1479.01 Q2313.28 1475.44 2313.28 1468.33 Q2313.28 1461.2 2311.45 1457.66 Q2309.65 1454.1 2306.01 1454.1 M2306.01 1450.39 Q2311.82 1450.39 2314.88 1455 Q2317.96 1459.58 2317.96 1468.33 Q2317.96 1477.06 2314.88 1481.67 Q2311.82 1486.25 2306.01 1486.25 Q2300.2 1486.25 2297.12 1481.67 Q2294.07 1477.06 2294.07 1468.33 Q2294.07 1459.58 2297.12 1455 Q2300.2 1450.39 2306.01 1450.39 Z" fill="#000000" fill-rule="nonzero" fill-opacity="1" /><path clip-path="url(#clip980)" d="M1179.71 1532.4 L1166.82 1549.74 L1180.38 1568.04 L1173.47 1568.04 L1163.1 1554.04 L1152.72 1568.04 L1145.82 1568.04 L1159.66 1549.39 L1146.99 1532.4 L1153.9 1532.4 L1163.35 1545.1 L1172.81 1532.4 L1179.71 1532.4 Z" fill="#000000" fill-rule="nonzero" fill-opacity="1" /><path clip-path="url(#clip980)" d="M1205.18 1532.4 L1211.38 1532.4 L1222.52 1562.31 L1233.66 1532.4 L1239.87 1532.4 L1226.5 1568.04 L1218.54 1568.04 L1205.18 1532.4 Z" fill="#000000" fill-rule="nonzero" fill-opacity="1" /><path clip-path="url(#clip980)" d="M1264.15 1550.12 Q1257.06 1550.12 1254.32 1551.75 Q1251.58 1553.37 1251.58 1557.29 Q1251.58 1560.4 1253.62 1562.25 Q1255.69 1564.07 1259.22 1564.07 Q1264.09 1564.07 1267.02 1560.63 Q1269.98 1557.16 1269.98 1551.43 L1269.98 1550.12 L1264.15 1550.12 M1275.84 1547.71 L1275.84 1568.04 L1269.98 1568.04 L1269.98 1562.63 Q1267.97 1565.88 1264.98 1567.44 Q1261.99 1568.97 1257.66 1568.97 Q1252.19 1568.97 1248.94 1565.91 Q1245.73 1562.82 1245.73 1557.67 Q1245.73 1551.65 1249.74 1548.6 Q1253.78 1545.54 1261.77 1545.54 L1269.98 1545.54 L1269.98 1544.97 Q1269.98 1540.93 1267.31 1538.73 Q1264.66 1536.5 1259.86 1536.5 Q1256.8 1536.5 1253.91 1537.23 Q1251.01 1537.97 1248.34 1539.43 L1248.34 1534.02 Q1251.55 1532.78 1254.57 1532.17 Q1257.6 1531.54 1260.46 1531.54 Q1268.2 1531.54 1272.02 1535.55 Q1275.84 1539.56 1275.84 1547.71 Z" fill="#000000" fill-rule="nonzero" fill-opacity="1" /><path clip-path="url(#clip980)" d="M1287.9 1518.52 L1293.75 1518.52 L1293.75 1568.04 L1287.9 1568.04 L1287.9 1518.52 Z" fill="#000000" fill-rule="nonzero" fill-opacity="1" /><path clip-path="url(#clip980)" d="M1305.4 1553.98 L1305.4 1532.4 L1311.26 1532.4 L1311.26 1553.75 Q1311.26 1558.81 1313.23 1561.36 Q1315.21 1563.87 1319.15 1563.87 Q1323.9 1563.87 1326.63 1560.85 Q1329.4 1557.83 1329.4 1552.61 L1329.4 1532.4 L1335.26 1532.4 L1335.26 1568.04 L1329.4 1568.04 L1329.4 1562.57 Q1327.27 1565.82 1324.44 1567.41 Q1321.64 1568.97 1317.91 1568.97 Q1311.77 1568.97 1308.59 1565.15 Q1305.4 1561.33 1305.4 1553.98 M1320.14 1531.54 L1320.14 1531.54 Z" fill="#000000" fill-rule="nonzero" fill-opacity="1" /><path clip-path="url(#clip980)" d="M1377.81 1548.76 L1377.81 1551.62 L1350.89 1551.62 Q1351.27 1557.67 1354.52 1560.85 Q1357.79 1564 1363.62 1564 Q1366.99 1564 1370.14 1563.17 Q1373.33 1562.35 1376.45 1560.69 L1376.45 1566.23 Q1373.29 1567.57 1369.98 1568.27 Q1366.67 1568.97 1363.27 1568.97 Q1354.74 1568.97 1349.74 1564 Q1344.78 1559.04 1344.78 1550.57 Q1344.78 1541.82 1349.49 1536.69 Q1354.23 1531.54 1362.25 1531.54 Q1369.44 1531.54 1373.61 1536.18 Q1377.81 1540.8 1377.81 1548.76 M1371.96 1547.04 Q1371.89 1542.23 1369.25 1539.37 Q1366.64 1536.5 1362.31 1536.5 Q1357.41 1536.5 1354.45 1539.27 Q1351.52 1542.04 1351.08 1547.07 L1371.96 1547.04 Z" fill="#000000" fill-rule="nonzero" fill-opacity="1" /><path clip-path="url(#clip980)" d="M1410.15 1533.45 L1410.15 1538.98 Q1407.67 1537.71 1405 1537.07 Q1402.32 1536.44 1399.46 1536.44 Q1395.1 1536.44 1392.9 1537.77 Q1390.74 1539.11 1390.74 1541.79 Q1390.74 1543.82 1392.3 1545 Q1393.86 1546.15 1398.57 1547.2 L1400.57 1547.64 Q1406.81 1548.98 1409.42 1551.43 Q1412.06 1553.85 1412.06 1558.21 Q1412.06 1563.17 1408.11 1566.07 Q1404.2 1568.97 1397.32 1568.97 Q1394.46 1568.97 1391.34 1568.39 Q1388.25 1567.85 1384.82 1566.74 L1384.82 1560.69 Q1388.06 1562.38 1391.21 1563.24 Q1394.36 1564.07 1397.45 1564.07 Q1401.59 1564.07 1403.82 1562.66 Q1406.05 1561.23 1406.05 1558.65 Q1406.05 1556.27 1404.42 1554.99 Q1402.83 1553.72 1397.39 1552.54 L1395.35 1552.07 Q1389.91 1550.92 1387.49 1548.56 Q1385.07 1546.18 1385.07 1542.04 Q1385.07 1537.01 1388.64 1534.27 Q1392.2 1531.54 1398.76 1531.54 Q1402 1531.54 1404.87 1532.01 Q1407.73 1532.49 1410.15 1533.45 Z" fill="#000000" fill-rule="nonzero" fill-opacity="1" /><polyline clip-path="url(#clip980)" style="stroke:#000000; stroke-linecap:round; stroke-linejoin:round; stroke-width:4; stroke-opacity:1; fill:none" points="205.121,1423.18 205.121,47.2441 "/>
<polyline clip-path="url(#clip980)" style="stroke:#000000; stroke-linecap:round; stroke-linejoin:round; stroke-width:4; stroke-opacity:1; fill:none" points="205.121,1267.41 224.019,1267.41 "/>
<polyline clip-path="url(#clip980)" style="stroke:#000000; stroke-linecap:round; stroke-linejoin:round; stroke-width:4; stroke-opacity:1; fill:none" points="205.121,1007.8 224.019,1007.8 "/>
<polyline clip-path="url(#clip980)" style="stroke:#000000; stroke-linecap:round; stroke-linejoin:round; stroke-width:4; stroke-opacity:1; fill:none" points="205.121,748.192 224.019,748.192 "/>
<polyline clip-path="url(#clip980)" style="stroke:#000000; stroke-linecap:round; stroke-linejoin:round; stroke-width:4; stroke-opacity:1; fill:none" points="205.121,488.582 224.019,488.582 "/>
<polyline clip-path="url(#clip980)" style="stroke:#000000; stroke-linecap:round; stroke-linejoin:round; stroke-width:4; stroke-opacity:1; fill:none" points="205.121,228.971 224.019,228.971 "/>
<path clip-path="url(#clip980)" d="M157.177 1253.21 Q153.566 1253.21 151.737 1256.78 Q149.931 1260.32 149.931 1267.45 Q149.931 1274.55 151.737 1278.12 Q153.566 1281.66 157.177 1281.66 Q160.811 1281.66 162.616 1278.12 Q164.445 1274.55 164.445 1267.45 Q164.445 1260.32 162.616 1256.78 Q160.811 1253.21 157.177 1253.21 M157.177 1249.51 Q162.987 1249.51 166.042 1254.11 Q169.121 1258.7 169.121 1267.45 Q169.121 1276.18 166.042 1280.78 Q162.987 1285.36 157.177 1285.36 Q151.366 1285.36 148.288 1280.78 Q145.232 1276.18 145.232 1267.45 Q145.232 1258.7 148.288 1254.11 Q151.366 1249.51 157.177 1249.51 Z" fill="#000000" fill-rule="nonzero" fill-opacity="1" /><path clip-path="url(#clip980)" d="M121.043 1021.15 L137.362 1021.15 L137.362 1025.08 L115.418 1025.08 L115.418 1021.15 Q118.08 1018.39 122.663 1013.76 Q127.269 1009.11 128.45 1007.77 Q130.695 1005.25 131.575 1003.51 Q132.478 1001.75 132.478 1000.06 Q132.478 997.305 130.533 995.569 Q128.612 993.833 125.51 993.833 Q123.311 993.833 120.857 994.597 Q118.427 995.361 115.649 996.912 L115.649 992.19 Q118.473 991.055 120.927 990.477 Q123.38 989.898 125.418 989.898 Q130.788 989.898 133.982 992.583 Q137.177 995.268 137.177 999.759 Q137.177 1001.89 136.367 1003.81 Q135.579 1005.71 133.473 1008.3 Q132.894 1008.97 129.792 1012.19 Q126.691 1015.38 121.043 1021.15 Z" fill="#000000" fill-rule="nonzero" fill-opacity="1" /><path clip-path="url(#clip980)" d="M157.177 993.602 Q153.566 993.602 151.737 997.166 Q149.931 1000.71 149.931 1007.84 Q149.931 1014.94 151.737 1018.51 Q153.566 1022.05 157.177 1022.05 Q160.811 1022.05 162.616 1018.51 Q164.445 1014.94 164.445 1007.84 Q164.445 1000.71 162.616 997.166 Q160.811 993.602 157.177 993.602 M157.177 989.898 Q162.987 989.898 166.042 994.504 Q169.121 999.088 169.121 1007.84 Q169.121 1016.56 166.042 1021.17 Q162.987 1025.75 157.177 1025.75 Q151.366 1025.75 148.288 1021.17 Q145.232 1016.56 145.232 1007.84 Q145.232 999.088 148.288 994.504 Q151.366 989.898 157.177 989.898 Z" fill="#000000" fill-rule="nonzero" fill-opacity="1" /><path clip-path="url(#clip980)" d="M129.862 734.987 L118.056 753.436 L129.862 753.436 L129.862 734.987 M128.635 730.912 L134.515 730.912 L134.515 753.436 L139.445 753.436 L139.445 757.324 L134.515 757.324 L134.515 765.472 L129.862 765.472 L129.862 757.324 L114.26 757.324 L114.26 752.811 L128.635 730.912 Z" fill="#000000" fill-rule="nonzero" fill-opacity="1" /><path clip-path="url(#clip980)" d="M157.177 733.991 Q153.566 733.991 151.737 737.556 Q149.931 741.098 149.931 748.227 Q149.931 755.334 151.737 758.898 Q153.566 762.44 157.177 762.44 Q160.811 762.44 162.616 758.898 Q164.445 755.334 164.445 748.227 Q164.445 741.098 162.616 737.556 Q160.811 733.991 157.177 733.991 M157.177 730.287 Q162.987 730.287 166.042 734.894 Q169.121 739.477 169.121 748.227 Q169.121 756.954 166.042 761.56 Q162.987 766.144 157.177 766.144 Q151.366 766.144 148.288 761.56 Q145.232 756.954 145.232 748.227 Q145.232 739.477 148.288 734.894 Q151.366 730.287 157.177 730.287 Z" fill="#000000" fill-rule="nonzero" fill-opacity="1" /><path clip-path="url(#clip980)" d="M127.593 486.719 Q124.445 486.719 122.593 488.871 Q120.765 491.024 120.765 494.774 Q120.765 498.501 122.593 500.677 Q124.445 502.83 127.593 502.83 Q130.742 502.83 132.57 500.677 Q134.422 498.501 134.422 494.774 Q134.422 491.024 132.57 488.871 Q130.742 486.719 127.593 486.719 M136.876 472.066 L136.876 476.325 Q135.117 475.492 133.311 475.052 Q131.529 474.612 129.769 474.612 Q125.14 474.612 122.686 477.737 Q120.255 480.862 119.908 487.182 Q121.274 485.168 123.334 484.103 Q125.394 483.015 127.871 483.015 Q133.08 483.015 136.089 486.186 Q139.121 489.334 139.121 494.774 Q139.121 500.098 135.973 503.316 Q132.825 506.533 127.593 506.533 Q121.598 506.533 118.427 501.95 Q115.256 497.344 115.256 488.617 Q115.256 480.422 119.144 475.561 Q123.033 470.677 129.584 470.677 Q131.343 470.677 133.126 471.024 Q134.931 471.371 136.876 472.066 Z" fill="#000000" fill-rule="nonzero" fill-opacity="1" /><path clip-path="url(#clip980)" d="M157.177 474.381 Q153.566 474.381 151.737 477.945 Q149.931 481.487 149.931 488.617 Q149.931 495.723 151.737 499.288 Q153.566 502.83 157.177 502.83 Q160.811 502.83 162.616 499.288 Q164.445 495.723 164.445 488.617 Q164.445 481.487 162.616 477.945 Q160.811 474.381 157.177 474.381 M157.177 470.677 Q162.987 470.677 166.042 475.283 Q169.121 479.867 169.121 488.617 Q169.121 497.344 166.042 501.95 Q162.987 506.533 157.177 506.533 Q151.366 506.533 148.288 501.95 Q145.232 497.344 145.232 488.617 Q145.232 479.867 148.288 475.283 Q151.366 470.677 157.177 470.677 Z" fill="#000000" fill-rule="nonzero" fill-opacity="1" /><path clip-path="url(#clip980)" d="M127.015 229.84 Q123.681 229.84 121.76 231.622 Q119.862 233.404 119.862 236.529 Q119.862 239.654 121.76 241.437 Q123.681 243.219 127.015 243.219 Q130.348 243.219 132.269 241.437 Q134.191 239.631 134.191 236.529 Q134.191 233.404 132.269 231.622 Q130.371 229.84 127.015 229.84 M122.339 227.849 Q119.33 227.108 117.64 225.048 Q115.973 222.988 115.973 220.025 Q115.973 215.881 118.913 213.474 Q121.876 211.066 127.015 211.066 Q132.177 211.066 135.117 213.474 Q138.056 215.881 138.056 220.025 Q138.056 222.988 136.367 225.048 Q134.7 227.108 131.714 227.849 Q135.093 228.636 136.968 230.927 Q138.867 233.219 138.867 236.529 Q138.867 241.552 135.788 244.238 Q132.732 246.923 127.015 246.923 Q121.297 246.923 118.218 244.238 Q115.163 241.552 115.163 236.529 Q115.163 233.219 117.061 230.927 Q118.959 228.636 122.339 227.849 M120.626 220.465 Q120.626 223.15 122.293 224.654 Q123.982 226.159 127.015 226.159 Q130.024 226.159 131.714 224.654 Q133.427 223.15 133.427 220.465 Q133.427 217.779 131.714 216.275 Q130.024 214.77 127.015 214.77 Q123.982 214.77 122.293 216.275 Q120.626 217.779 120.626 220.465 Z" fill="#000000" fill-rule="nonzero" fill-opacity="1" /><path clip-path="url(#clip980)" d="M157.177 214.77 Q153.566 214.77 151.737 218.335 Q149.931 221.877 149.931 229.006 Q149.931 236.113 151.737 239.677 Q153.566 243.219 157.177 243.219 Q160.811 243.219 162.616 239.677 Q164.445 236.113 164.445 229.006 Q164.445 221.877 162.616 218.335 Q160.811 214.77 157.177 214.77 M157.177 211.066 Q162.987 211.066 166.042 215.673 Q169.121 220.256 169.121 229.006 Q169.121 237.733 166.042 242.339 Q162.987 246.923 157.177 246.923 Q151.366 246.923 148.288 242.339 Q145.232 237.733 145.232 229.006 Q145.232 220.256 148.288 215.673 Q151.366 211.066 157.177 211.066 Z" fill="#000000" fill-rule="nonzero" fill-opacity="1" /><path clip-path="url(#clip980)" d="M14.479 765.163 L19.3487 765.163 L19.3487 770.764 Q19.3487 773.915 20.6219 775.157 Q21.895 776.366 25.2052 776.366 L28.3562 776.366 L28.3562 766.722 L32.9077 766.722 L32.9077 776.366 L64.0042 776.366 L64.0042 782.255 L32.9077 782.255 L32.9077 787.856 L28.3562 787.856 L28.3562 782.255 L25.8736 782.255 Q19.9216 782.255 17.2162 779.485 Q14.479 776.716 14.479 770.701 L14.479 765.163 Z" fill="#000000" fill-rule="nonzero" fill-opacity="1" /><path clip-path="url(#clip980)" d="M14.5426 746.193 Q21.8632 750.458 29.0246 752.527 Q36.186 754.596 43.5384 754.596 Q50.8908 754.596 58.1159 752.527 Q65.3091 750.426 72.5979 746.193 L72.5979 751.285 Q65.1182 756.06 57.8931 758.447 Q50.668 760.802 43.5384 760.802 Q36.4406 760.802 29.2474 758.447 Q22.0542 756.091 14.5426 751.285 L14.5426 746.193 Z" fill="#000000" fill-rule="nonzero" fill-opacity="1" /><path clip-path="url(#clip980)" d="M28.3562 705.198 L45.7028 718.088 L64.0042 704.529 L64.0042 711.436 L49.9996 721.812 L64.0042 732.188 L64.0042 739.095 L45.3526 725.25 L28.3562 737.917 L28.3562 731.011 L41.0558 721.558 L28.3562 712.104 L28.3562 705.198 Z" fill="#000000" fill-rule="nonzero" fill-opacity="1" /><path clip-path="url(#clip980)" d="M14.5426 697.177 L14.5426 692.084 Q22.0542 687.31 29.2474 684.955 Q36.4406 682.568 43.5384 682.568 Q50.668 682.568 57.8931 684.955 Q65.1182 687.31 72.5979 692.084 L72.5979 697.177 Q65.3091 692.944 58.1159 690.875 Q50.8908 688.774 43.5384 688.774 Q36.186 688.774 29.0246 690.875 Q21.8632 692.944 14.5426 697.177 Z" fill="#000000" fill-rule="nonzero" fill-opacity="1" /><polyline clip-path="url(#clip982)" style="stroke:#009af9; stroke-linecap:round; stroke-linejoin:round; stroke-width:4; stroke-opacity:1; fill:none" points="265.903,86.1857 276.033,112.017 286.164,137.589 296.294,162.901 306.425,187.953 316.555,212.746 326.685,237.279 336.816,261.553 346.946,285.567 357.076,309.321 367.207,332.816 377.337,356.051 387.467,379.026 397.598,401.742 407.728,424.199 417.858,446.395 427.989,468.332 438.119,490.01 448.249,511.428 458.38,532.586 468.51,553.485 478.641,574.124 488.771,594.503 498.901,614.623 509.032,634.483 519.162,654.084 529.292,673.425 539.423,692.506 549.553,711.328 559.683,729.89 569.814,748.192 579.944,766.235 590.074,784.019 600.205,801.542 610.335,818.807 620.465,835.811 630.596,852.556 640.726,869.041 650.857,885.267 660.987,901.233 671.117,916.939 681.248,932.386 691.378,947.573 701.508,962.501 711.639,977.169 721.769,991.577 731.899,1005.73 742.03,1019.62 752.16,1033.24 762.29,1046.61 772.421,1059.73 782.551,1072.58 792.681,1085.17 802.812,1097.5 812.942,1109.57 823.073,1121.38 833.203,1132.94 843.333,1144.23 853.464,1155.26 863.594,1166.04 873.724,1176.55 883.855,1186.8 893.985,1196.8 904.115,1206.53 914.246,1216.01 924.376,1225.23 934.506,1234.18 944.637,1242.88 954.767,1251.32 964.897,1259.5 975.028,1267.41 985.158,1275.07 995.289,1282.47 1005.42,1289.61 1015.55,1296.49 1025.68,1303.11 1035.81,1309.47 1045.94,1315.57 1056.07,1321.41 1066.2,1326.99 1076.33,1332.32 1086.46,1337.38 1096.59,1342.18 1106.72,1346.72 1116.85,1351.01 1126.98,1355.03 1137.11,1358.8 1147.24,1362.3 1157.37,1365.55 1167.5,1368.53 1177.63,1371.26 1187.77,1373.72 1197.9,1375.93 1208.03,1377.88 1218.16,1379.57 1228.29,1380.99 1238.42,1382.16 1248.55,1383.07 1258.68,1383.72 1268.81,1384.11 1278.94,1384.24 1289.07,1384.11 1299.2,1383.72 1309.33,1383.07 1319.46,1382.16 1329.59,1380.99 1339.72,1379.57 1349.85,1377.88 1359.98,1375.93 1370.11,1373.72 1380.24,1371.26 1390.37,1368.53 1400.5,1365.55 1410.63,1362.3 1420.76,1358.8 1430.89,1355.03 1441.02,1351.01 1451.15,1346.72 1461.28,1342.18 1471.42,1337.38 1481.55,1332.32 1491.68,1326.99 1501.81,1321.41 1511.94,1315.57 1522.07,1309.47 1532.2,1303.11 1542.33,1296.49 1552.46,1289.61 1562.59,1282.47 1572.72,1275.07 1582.85,1267.41 1592.98,1259.5 1603.11,1251.32 1613.24,1242.88 1623.37,1234.18 1633.5,1225.23 1643.63,1216.01 1653.76,1206.53 1663.89,1196.8 1674.02,1186.8 1684.15,1176.55 1694.28,1166.04 1704.41,1155.26 1714.54,1144.23 1724.67,1132.94 1734.8,1121.38 1744.93,1109.57 1755.07,1097.5 1765.2,1085.17 1775.33,1072.58 1785.46,1059.73 1795.59,1046.61 1805.72,1033.24 1815.85,1019.62 1825.98,1005.73 1836.11,991.577 1846.24,977.169 1856.37,962.501 1866.5,947.573 1876.63,932.386 1886.76,916.939 1896.89,901.233 1907.02,885.267 1917.15,869.041 1927.28,852.556 1937.41,835.811 1947.54,818.807 1957.67,801.542 1967.8,784.019 1977.93,766.235 1988.06,748.192 1998.19,729.89 2008.32,711.328 2018.45,692.506 2028.58,673.425 2038.71,654.084 2048.85,634.483 2058.98,614.623 2069.11,594.503 2079.24,574.124 2089.37,553.485 2099.5,532.586 2109.63,511.428 2119.76,490.01 2129.89,468.332 2140.02,446.395 2150.15,424.199 2160.28,401.742 2170.41,379.026 2180.54,356.051 2190.67,332.816 2200.8,309.321 2210.93,285.567 2221.06,261.553 2231.19,237.279 2241.32,212.746 2251.45,187.953 2261.58,162.901 2271.71,137.589 2281.84,112.017 2291.97,86.1857 "/>
<polyline clip-path="url(#clip982)" style="stroke:#e26f46; stroke-linecap:round; stroke-linejoin:round; stroke-width:4; stroke-opacity:1; fill:none" points="265.903,1267.41 2291.97,1267.41 "/>
<circle clip-path="url(#clip982)" cx="1329.59" cy="1380.99" r="14.4" fill="#3da44d" fill-rule="evenodd" fill-opacity="1" stroke="#000000" stroke-opacity="1" stroke-width="3.2"/>
<circle clip-path="url(#clip982)" cx="772.421" cy="1059.73" r="14.4" fill="#c271d2" fill-rule="evenodd" fill-opacity="1" stroke="#000000" stroke-opacity="1" stroke-width="3.2"/>
<circle clip-path="url(#clip982)" cx="969.4" cy="1263.05" r="14.4" fill="#ac8d18" fill-rule="evenodd" fill-opacity="1" stroke="#000000" stroke-opacity="1" stroke-width="3.2"/>
<circle clip-path="url(#clip982)" cx="973.631" cy="1266.34" r="14.4" fill="#00a9ad" fill-rule="evenodd" fill-opacity="1" stroke="#000000" stroke-opacity="1" stroke-width="3.2"/>
<path clip-path="url(#clip980)" d="M1660.69 1377.32 L2281.17 1377.32 L2281.17 1014.44 L1660.69 1014.44  Z" fill="#ffffff" fill-rule="evenodd" fill-opacity="1"/>
<polyline clip-path="url(#clip980)" style="stroke:#000000; stroke-linecap:round; stroke-linejoin:round; stroke-width:4; stroke-opacity:1; fill:none" points="1660.69,1377.32 2281.17,1377.32 2281.17,1014.44 1660.69,1014.44 1660.69,1377.32 "/>
<polyline clip-path="url(#clip980)" style="stroke:#009af9; stroke-linecap:round; stroke-linejoin:round; stroke-width:4; stroke-opacity:1; fill:none" points="1684.55,1066.28 1827.73,1066.28 "/>
<path clip-path="url(#clip980)" d="M1851.59 1049 L1873.44 1049 L1873.44 1052.93 L1856.27 1052.93 L1856.27 1063.16 L1872.72 1063.16 L1872.72 1067.1 L1856.27 1067.1 L1856.27 1079.62 L1873.86 1079.62 L1873.86 1083.56 L1851.59 1083.56 L1851.59 1049 Z" fill="#000000" fill-rule="nonzero" fill-opacity="1" /><path clip-path="url(#clip980)" d="M1902.91 1057.63 L1893.53 1070.25 L1903.4 1083.56 L1898.37 1083.56 L1890.83 1073.37 L1883.28 1083.56 L1878.26 1083.56 L1888.33 1069.99 L1879.11 1057.63 L1884.14 1057.63 L1891.01 1066.87 L1897.89 1057.63 L1902.91 1057.63 Z" fill="#000000" fill-rule="nonzero" fill-opacity="1" /><path clip-path="url(#clip980)" d="M1921.2 1070.52 Q1916.03 1070.52 1914.04 1071.7 Q1912.05 1072.88 1912.05 1075.73 Q1912.05 1078 1913.53 1079.34 Q1915.04 1080.66 1917.61 1080.66 Q1921.15 1080.66 1923.28 1078.16 Q1925.43 1075.64 1925.43 1071.47 L1925.43 1070.52 L1921.2 1070.52 M1929.69 1068.76 L1929.69 1083.56 L1925.43 1083.56 L1925.43 1079.62 Q1923.97 1081.98 1921.8 1083.12 Q1919.62 1084.23 1916.47 1084.23 Q1912.49 1084.23 1910.13 1082 Q1907.79 1079.76 1907.79 1076.01 Q1907.79 1071.63 1910.71 1069.41 Q1913.65 1067.19 1919.46 1067.19 L1925.43 1067.19 L1925.43 1066.77 Q1925.43 1063.83 1923.49 1062.24 Q1921.57 1060.62 1918.07 1060.62 Q1915.85 1060.62 1913.74 1061.15 Q1911.64 1061.68 1909.69 1062.75 L1909.69 1058.81 Q1912.03 1057.91 1914.23 1057.47 Q1916.43 1057 1918.51 1057 Q1924.14 1057 1926.91 1059.92 Q1929.69 1062.84 1929.69 1068.76 Z" fill="#000000" fill-rule="nonzero" fill-opacity="1" /><path clip-path="url(#clip980)" d="M1958.65 1062.61 Q1960.25 1059.74 1962.47 1058.37 Q1964.69 1057 1967.7 1057 Q1971.75 1057 1973.95 1059.85 Q1976.15 1062.68 1976.15 1067.91 L1976.15 1083.56 L1971.87 1083.56 L1971.87 1068.05 Q1971.87 1064.32 1970.55 1062.51 Q1969.23 1060.71 1966.52 1060.71 Q1963.21 1060.71 1961.29 1062.91 Q1959.37 1065.11 1959.37 1068.9 L1959.37 1083.56 L1955.08 1083.56 L1955.08 1068.05 Q1955.08 1064.3 1953.77 1062.51 Q1952.45 1060.71 1949.69 1060.71 Q1946.43 1060.71 1944.51 1062.93 Q1942.58 1065.13 1942.58 1068.9 L1942.58 1083.56 L1938.3 1083.56 L1938.3 1057.63 L1942.58 1057.63 L1942.58 1061.66 Q1944.04 1059.27 1946.08 1058.14 Q1948.12 1057 1950.92 1057 Q1953.74 1057 1955.71 1058.44 Q1957.7 1059.87 1958.65 1062.61 Z" fill="#000000" fill-rule="nonzero" fill-opacity="1" /><path clip-path="url(#clip980)" d="M1988.77 1079.67 L1988.77 1093.42 L1984.48 1093.42 L1984.48 1057.63 L1988.77 1057.63 L1988.77 1061.56 Q1990.11 1059.25 1992.14 1058.14 Q1994.21 1057 1997.05 1057 Q2001.77 1057 2004.71 1060.75 Q2007.68 1064.5 2007.68 1070.62 Q2007.68 1076.73 2004.71 1080.48 Q2001.77 1084.23 1997.05 1084.23 Q1994.21 1084.23 1992.14 1083.12 Q1990.11 1081.98 1988.77 1079.67 M2003.26 1070.62 Q2003.26 1065.92 2001.31 1063.25 Q1999.39 1060.57 1996.01 1060.57 Q1992.63 1060.57 1990.69 1063.25 Q1988.77 1065.92 1988.77 1070.62 Q1988.77 1075.31 1990.69 1078 Q1992.63 1080.66 1996.01 1080.66 Q1999.39 1080.66 2001.31 1078 Q2003.26 1075.31 2003.26 1070.62 Z" fill="#000000" fill-rule="nonzero" fill-opacity="1" /><path clip-path="url(#clip980)" d="M2014.74 1047.54 L2019 1047.54 L2019 1083.56 L2014.74 1083.56 L2014.74 1047.54 Z" fill="#000000" fill-rule="nonzero" fill-opacity="1" /><path clip-path="url(#clip980)" d="M2050.08 1069.53 L2050.08 1071.61 L2030.5 1071.61 Q2030.78 1076.01 2033.14 1078.32 Q2035.52 1080.62 2039.76 1080.62 Q2042.21 1080.62 2044.51 1080.01 Q2046.82 1079.41 2049.09 1078.21 L2049.09 1082.24 Q2046.8 1083.21 2044.39 1083.72 Q2041.98 1084.23 2039.51 1084.23 Q2033.3 1084.23 2029.67 1080.62 Q2026.06 1077 2026.06 1070.85 Q2026.06 1064.48 2029.48 1060.75 Q2032.93 1057 2038.76 1057 Q2044 1057 2047.03 1060.38 Q2050.08 1063.74 2050.08 1069.53 M2045.83 1068.28 Q2045.78 1064.78 2043.86 1062.7 Q2041.96 1060.62 2038.81 1060.62 Q2035.25 1060.62 2033.09 1062.63 Q2030.96 1064.64 2030.64 1068.3 L2045.83 1068.28 Z" fill="#000000" fill-rule="nonzero" fill-opacity="1" /><path clip-path="url(#clip980)" d="M2085.27 1047.54 L2085.27 1051.08 L2081.2 1051.08 Q2078.9 1051.08 2078 1052 Q2077.12 1052.93 2077.12 1055.34 L2077.12 1057.63 L2084.14 1057.63 L2084.14 1060.94 L2077.12 1060.94 L2077.12 1083.56 L2072.84 1083.56 L2072.84 1060.94 L2068.76 1060.94 L2068.76 1057.63 L2072.84 1057.63 L2072.84 1055.82 Q2072.84 1051.5 2074.85 1049.53 Q2076.87 1047.54 2081.24 1047.54 L2085.27 1047.54 Z" fill="#000000" fill-rule="nonzero" fill-opacity="1" /><path clip-path="url(#clip980)" d="M2088.39 1073.32 L2088.39 1057.63 L2092.65 1057.63 L2092.65 1073.16 Q2092.65 1076.84 2094.09 1078.69 Q2095.52 1080.52 2098.39 1080.52 Q2101.84 1080.52 2103.83 1078.32 Q2105.85 1076.12 2105.85 1072.33 L2105.85 1057.63 L2110.11 1057.63 L2110.11 1083.56 L2105.85 1083.56 L2105.85 1079.57 Q2104.3 1081.93 2102.24 1083.09 Q2100.2 1084.23 2097.49 1084.23 Q2093.02 1084.23 2090.71 1081.45 Q2088.39 1078.67 2088.39 1073.32 M2099.11 1057 L2099.11 1057 Z" fill="#000000" fill-rule="nonzero" fill-opacity="1" /><path clip-path="url(#clip980)" d="M2140.43 1067.91 L2140.43 1083.56 L2136.17 1083.56 L2136.17 1068.05 Q2136.17 1064.37 2134.74 1062.54 Q2133.3 1060.71 2130.43 1060.71 Q2126.98 1060.71 2124.99 1062.91 Q2123 1065.11 2123 1068.9 L2123 1083.56 L2118.72 1083.56 L2118.72 1057.63 L2123 1057.63 L2123 1061.66 Q2124.53 1059.32 2126.59 1058.16 Q2128.67 1057 2131.38 1057 Q2135.85 1057 2138.14 1059.78 Q2140.43 1062.54 2140.43 1067.91 Z" fill="#000000" fill-rule="nonzero" fill-opacity="1" /><path clip-path="url(#clip980)" d="M2167.58 1058.62 L2167.58 1062.61 Q2165.78 1061.61 2163.95 1061.12 Q2162.14 1060.62 2160.29 1060.62 Q2156.15 1060.62 2153.86 1063.25 Q2151.57 1065.87 2151.57 1070.62 Q2151.57 1075.36 2153.86 1078 Q2156.15 1080.62 2160.29 1080.62 Q2162.14 1080.62 2163.95 1080.13 Q2165.78 1079.62 2167.58 1078.62 L2167.58 1082.56 Q2165.8 1083.39 2163.88 1083.81 Q2161.98 1084.23 2159.83 1084.23 Q2153.97 1084.23 2150.52 1080.55 Q2147.07 1076.87 2147.07 1070.62 Q2147.07 1064.27 2150.55 1060.64 Q2154.04 1057 2160.11 1057 Q2162.07 1057 2163.95 1057.42 Q2165.82 1057.81 2167.58 1058.62 Z" fill="#000000" fill-rule="nonzero" fill-opacity="1" /><path clip-path="url(#clip980)" d="M2179.2 1050.27 L2179.2 1057.63 L2187.98 1057.63 L2187.98 1060.94 L2179.2 1060.94 L2179.2 1075.01 Q2179.2 1078.18 2180.06 1079.09 Q2180.94 1079.99 2183.6 1079.99 L2187.98 1079.99 L2187.98 1083.56 L2183.6 1083.56 Q2178.67 1083.56 2176.8 1081.73 Q2174.92 1079.87 2174.92 1075.01 L2174.92 1060.94 L2171.8 1060.94 L2171.8 1057.63 L2174.92 1057.63 L2174.92 1050.27 L2179.2 1050.27 Z" fill="#000000" fill-rule="nonzero" fill-opacity="1" /><path clip-path="url(#clip980)" d="M2193.58 1057.63 L2197.84 1057.63 L2197.84 1083.56 L2193.58 1083.56 L2193.58 1057.63 M2193.58 1047.54 L2197.84 1047.54 L2197.84 1052.93 L2193.58 1052.93 L2193.58 1047.54 Z" fill="#000000" fill-rule="nonzero" fill-opacity="1" /><path clip-path="url(#clip980)" d="M2216.8 1060.62 Q2213.37 1060.62 2211.38 1063.3 Q2209.39 1065.96 2209.39 1070.62 Q2209.39 1075.27 2211.36 1077.95 Q2213.35 1080.62 2216.8 1080.62 Q2220.2 1080.62 2222.19 1077.93 Q2224.18 1075.25 2224.18 1070.62 Q2224.18 1066.01 2222.19 1063.32 Q2220.2 1060.62 2216.8 1060.62 M2216.8 1057 Q2222.35 1057 2225.52 1060.62 Q2228.69 1064.23 2228.69 1070.62 Q2228.69 1076.98 2225.52 1080.62 Q2222.35 1084.23 2216.8 1084.23 Q2211.22 1084.23 2208.05 1080.62 Q2204.9 1076.98 2204.9 1070.62 Q2204.9 1064.23 2208.05 1060.62 Q2211.22 1057 2216.8 1057 Z" fill="#000000" fill-rule="nonzero" fill-opacity="1" /><path clip-path="url(#clip980)" d="M2257.31 1067.91 L2257.31 1083.56 L2253.05 1083.56 L2253.05 1068.05 Q2253.05 1064.37 2251.61 1062.54 Q2250.18 1060.71 2247.31 1060.71 Q2243.86 1060.71 2241.87 1062.91 Q2239.88 1065.11 2239.88 1068.9 L2239.88 1083.56 L2235.59 1083.56 L2235.59 1057.63 L2239.88 1057.63 L2239.88 1061.66 Q2241.4 1059.32 2243.46 1058.16 Q2245.55 1057 2248.25 1057 Q2252.72 1057 2255.01 1059.78 Q2257.31 1062.54 2257.31 1067.91 Z" fill="#000000" fill-rule="nonzero" fill-opacity="1" /><polyline clip-path="url(#clip980)" style="stroke:#e26f46; stroke-linecap:round; stroke-linejoin:round; stroke-width:4; stroke-opacity:1; fill:none" points="1684.55,1118.12 1827.73,1118.12 "/>
<path clip-path="url(#clip980)" d="M1868.09 1099.38 L1868.09 1102.92 L1864.02 1102.92 Q1861.73 1102.92 1860.83 1103.84 Q1859.95 1104.77 1859.95 1107.18 L1859.95 1109.47 L1866.96 1109.47 L1866.96 1112.78 L1859.95 1112.78 L1859.95 1135.4 L1855.66 1135.4 L1855.66 1112.78 L1851.59 1112.78 L1851.59 1109.47 L1855.66 1109.47 L1855.66 1107.66 Q1855.66 1103.34 1857.68 1101.37 Q1859.69 1099.38 1864.07 1099.38 L1868.09 1099.38 Z" fill="#000000" fill-rule="nonzero" fill-opacity="1" /><path clip-path="url(#clip980)" d="M1881.89 1099.42 Q1878.79 1104.75 1877.28 1109.96 Q1875.78 1115.16 1875.78 1120.51 Q1875.78 1125.86 1877.28 1131.11 Q1878.81 1136.34 1881.89 1141.65 L1878.19 1141.65 Q1874.71 1136.21 1872.98 1130.95 Q1871.27 1125.7 1871.27 1120.51 Q1871.27 1115.35 1872.98 1110.12 Q1874.69 1104.89 1878.19 1099.42 L1881.89 1099.42 Z" fill="#000000" fill-rule="nonzero" fill-opacity="1" /><path clip-path="url(#clip980)" d="M1911.71 1109.47 L1902.33 1122.09 L1912.19 1135.4 L1907.17 1135.4 L1899.62 1125.21 L1892.08 1135.4 L1887.05 1135.4 L1897.12 1121.83 L1887.91 1109.47 L1892.93 1109.47 L1899.81 1118.71 L1906.68 1109.47 L1911.71 1109.47 Z" fill="#000000" fill-rule="nonzero" fill-opacity="1" /><path clip-path="url(#clip980)" d="M1917.54 1099.42 L1921.24 1099.42 Q1924.71 1104.89 1926.43 1110.12 Q1928.16 1115.35 1928.16 1120.51 Q1928.16 1125.7 1926.43 1130.95 Q1924.71 1136.21 1921.24 1141.65 L1917.54 1141.65 Q1920.62 1136.34 1922.12 1131.11 Q1923.65 1125.86 1923.65 1120.51 Q1923.65 1115.16 1922.12 1109.96 Q1920.62 1104.75 1917.54 1099.42 Z" fill="#000000" fill-rule="nonzero" fill-opacity="1" /><path clip-path="url(#clip980)" d="M1952.33 1113.87 L1982.01 1113.87 L1982.01 1117.76 L1952.33 1117.76 L1952.33 1113.87 M1952.33 1123.31 L1982.01 1123.31 L1982.01 1127.25 L1952.33 1127.25 L1952.33 1123.31 Z" fill="#000000" fill-rule="nonzero" fill-opacity="1" /><path clip-path="url(#clip980)" d="M2017.17 1103.91 Q2013.56 1103.91 2011.73 1107.48 Q2009.92 1111.02 2009.92 1118.15 Q2009.92 1125.26 2011.73 1128.82 Q2013.56 1132.36 2017.17 1132.36 Q2020.8 1132.36 2022.61 1128.82 Q2024.44 1125.26 2024.44 1118.15 Q2024.44 1111.02 2022.61 1107.48 Q2020.8 1103.91 2017.17 1103.91 M2017.17 1100.21 Q2022.98 1100.21 2026.03 1104.82 Q2029.11 1109.4 2029.11 1118.15 Q2029.11 1126.88 2026.03 1131.48 Q2022.98 1136.07 2017.17 1136.07 Q2011.36 1136.07 2008.28 1131.48 Q2005.22 1126.88 2005.22 1118.15 Q2005.22 1109.4 2008.28 1104.82 Q2011.36 1100.21 2017.17 1100.21 Z" fill="#000000" fill-rule="nonzero" fill-opacity="1" /><circle clip-path="url(#clip980)" cx="1756.14" cy="1169.96" r="20.48" fill="#3da44d" fill-rule="evenodd" fill-opacity="1" stroke="#000000" stroke-opacity="1" stroke-width="4.55111"/>
<path clip-path="url(#clip980)" d="M1868.09 1151.22 L1868.09 1154.76 L1864.02 1154.76 Q1861.73 1154.76 1860.83 1155.68 Q1859.95 1156.61 1859.95 1159.02 L1859.95 1161.31 L1866.96 1161.31 L1866.96 1164.62 L1859.95 1164.62 L1859.95 1187.24 L1855.66 1187.24 L1855.66 1164.62 L1851.59 1164.62 L1851.59 1161.31 L1855.66 1161.31 L1855.66 1159.5 Q1855.66 1155.18 1857.68 1153.21 Q1859.69 1151.22 1864.07 1151.22 L1868.09 1151.22 Z" fill="#000000" fill-rule="nonzero" fill-opacity="1" /><path clip-path="url(#clip980)" d="M1881.89 1151.26 Q1878.79 1156.59 1877.28 1161.8 Q1875.78 1167 1875.78 1172.35 Q1875.78 1177.7 1877.28 1182.95 Q1878.81 1188.18 1881.89 1193.49 L1878.19 1193.49 Q1874.71 1188.05 1872.98 1182.79 Q1871.27 1177.54 1871.27 1172.35 Q1871.27 1167.19 1872.98 1161.96 Q1874.69 1156.73 1878.19 1151.26 L1881.89 1151.26 Z" fill="#000000" fill-rule="nonzero" fill-opacity="1" /><path clip-path="url(#clip980)" d="M1900.76 1155.75 Q1897.15 1155.75 1895.32 1159.32 Q1893.51 1162.86 1893.51 1169.99 Q1893.51 1177.1 1895.32 1180.66 Q1897.15 1184.2 1900.76 1184.2 Q1904.39 1184.2 1906.2 1180.66 Q1908.02 1177.1 1908.02 1169.99 Q1908.02 1162.86 1906.2 1159.32 Q1904.39 1155.75 1900.76 1155.75 M1900.76 1152.05 Q1906.57 1152.05 1909.62 1156.66 Q1912.7 1161.24 1912.7 1169.99 Q1912.7 1178.72 1909.62 1183.32 Q1906.57 1187.91 1900.76 1187.91 Q1894.95 1187.91 1891.87 1183.32 Q1888.81 1178.72 1888.81 1169.99 Q1888.81 1161.24 1891.87 1156.66 Q1894.95 1152.05 1900.76 1152.05 Z" fill="#000000" fill-rule="nonzero" fill-opacity="1" /><path clip-path="url(#clip980)" d="M1920.92 1181.36 L1925.8 1181.36 L1925.8 1187.24 L1920.92 1187.24 L1920.92 1181.36 Z" fill="#000000" fill-rule="nonzero" fill-opacity="1" /><path clip-path="url(#clip980)" d="M1936.03 1152.68 L1954.39 1152.68 L1954.39 1156.61 L1940.32 1156.61 L1940.32 1165.08 Q1941.33 1164.74 1942.35 1164.57 Q1943.37 1164.39 1944.39 1164.39 Q1950.18 1164.39 1953.56 1167.56 Q1956.94 1170.73 1956.94 1176.15 Q1956.94 1181.73 1953.46 1184.83 Q1949.99 1187.91 1943.67 1187.91 Q1941.5 1187.91 1939.23 1187.54 Q1936.98 1187.17 1934.58 1186.43 L1934.58 1181.73 Q1936.66 1182.86 1938.88 1183.42 Q1941.1 1183.97 1943.58 1183.97 Q1947.58 1183.97 1949.92 1181.86 Q1952.26 1179.76 1952.26 1176.15 Q1952.26 1172.54 1949.92 1170.43 Q1947.58 1168.32 1943.58 1168.32 Q1941.71 1168.32 1939.83 1168.74 Q1937.98 1169.16 1936.03 1170.04 L1936.03 1152.68 Z" fill="#000000" fill-rule="nonzero" fill-opacity="1" /><path clip-path="url(#clip980)" d="M1964.88 1151.26 L1968.58 1151.26 Q1972.05 1156.73 1973.77 1161.96 Q1975.5 1167.19 1975.5 1172.35 Q1975.5 1177.54 1973.77 1182.79 Q1972.05 1188.05 1968.58 1193.49 L1964.88 1193.49 Q1967.96 1188.18 1969.46 1182.95 Q1970.99 1177.7 1970.99 1172.35 Q1970.99 1167 1969.46 1161.8 Q1967.96 1156.59 1964.88 1151.26 Z" fill="#000000" fill-rule="nonzero" fill-opacity="1" /><circle clip-path="url(#clip980)" cx="1756.14" cy="1221.8" r="20.48" fill="#c271d2" fill-rule="evenodd" fill-opacity="1" stroke="#000000" stroke-opacity="1" stroke-width="4.55111"/>
<path clip-path="url(#clip980)" d="M1868.09 1203.06 L1868.09 1206.6 L1864.02 1206.6 Q1861.73 1206.6 1860.83 1207.52 Q1859.95 1208.45 1859.95 1210.86 L1859.95 1213.15 L1866.96 1213.15 L1866.96 1216.46 L1859.95 1216.46 L1859.95 1239.08 L1855.66 1239.08 L1855.66 1216.46 L1851.59 1216.46 L1851.59 1213.15 L1855.66 1213.15 L1855.66 1211.34 Q1855.66 1207.02 1857.68 1205.05 Q1859.69 1203.06 1864.07 1203.06 L1868.09 1203.06 Z" fill="#000000" fill-rule="nonzero" fill-opacity="1" /><path clip-path="url(#clip980)" d="M1881.89 1203.1 Q1878.79 1208.43 1877.28 1213.64 Q1875.78 1218.84 1875.78 1224.19 Q1875.78 1229.54 1877.28 1234.79 Q1878.81 1240.02 1881.89 1245.33 L1878.19 1245.33 Q1874.71 1239.89 1872.98 1234.63 Q1871.27 1229.38 1871.27 1224.19 Q1871.27 1219.03 1872.98 1213.8 Q1874.69 1208.57 1878.19 1203.1 L1881.89 1203.1 Z" fill="#000000" fill-rule="nonzero" fill-opacity="1" /><path clip-path="url(#clip980)" d="M1888 1224.19 L1900.48 1224.19 L1900.48 1227.99 L1888 1227.99 L1888 1224.19 Z" fill="#000000" fill-rule="nonzero" fill-opacity="1" /><path clip-path="url(#clip980)" d="M1907.91 1204.52 L1926.27 1204.52 L1926.27 1208.45 L1912.19 1208.45 L1912.19 1216.92 Q1913.21 1216.58 1914.23 1216.41 Q1915.25 1216.23 1916.27 1216.23 Q1922.05 1216.23 1925.43 1219.4 Q1928.81 1222.57 1928.81 1227.99 Q1928.81 1233.57 1925.34 1236.67 Q1921.87 1239.75 1915.55 1239.75 Q1913.37 1239.75 1911.1 1239.38 Q1908.86 1239.01 1906.45 1238.27 L1906.45 1233.57 Q1908.53 1234.7 1910.76 1235.26 Q1912.98 1235.81 1915.46 1235.81 Q1919.46 1235.81 1921.8 1233.7 Q1924.14 1231.6 1924.14 1227.99 Q1924.14 1224.38 1921.8 1222.27 Q1919.46 1220.16 1915.46 1220.16 Q1913.58 1220.16 1911.71 1220.58 Q1909.85 1221 1907.91 1221.88 L1907.91 1204.52 Z" fill="#000000" fill-rule="nonzero" fill-opacity="1" /><path clip-path="url(#clip980)" d="M1936.75 1203.1 L1940.46 1203.1 Q1943.93 1208.57 1945.64 1213.8 Q1947.38 1219.03 1947.38 1224.19 Q1947.38 1229.38 1945.64 1234.63 Q1943.93 1239.89 1940.46 1245.33 L1936.75 1245.33 Q1939.83 1240.02 1941.33 1234.79 Q1942.86 1229.54 1942.86 1224.19 Q1942.86 1218.84 1941.33 1213.64 Q1939.83 1208.43 1936.75 1203.1 Z" fill="#000000" fill-rule="nonzero" fill-opacity="1" /><circle clip-path="url(#clip980)" cx="1756.14" cy="1273.64" r="20.48" fill="#ac8d18" fill-rule="evenodd" fill-opacity="1" stroke="#000000" stroke-opacity="1" stroke-width="4.55111"/>
<path clip-path="url(#clip980)" d="M1868.09 1254.9 L1868.09 1258.44 L1864.02 1258.44 Q1861.73 1258.44 1860.83 1259.36 Q1859.95 1260.29 1859.95 1262.7 L1859.95 1264.99 L1866.96 1264.99 L1866.96 1268.3 L1859.95 1268.3 L1859.95 1290.92 L1855.66 1290.92 L1855.66 1268.3 L1851.59 1268.3 L1851.59 1264.99 L1855.66 1264.99 L1855.66 1263.18 Q1855.66 1258.86 1857.68 1256.89 Q1859.69 1254.9 1864.07 1254.9 L1868.09 1254.9 Z" fill="#000000" fill-rule="nonzero" fill-opacity="1" /><path clip-path="url(#clip980)" d="M1881.89 1254.94 Q1878.79 1260.27 1877.28 1265.48 Q1875.78 1270.68 1875.78 1276.03 Q1875.78 1281.38 1877.28 1286.63 Q1878.81 1291.86 1881.89 1297.17 L1878.19 1297.17 Q1874.71 1291.73 1872.98 1286.47 Q1871.27 1281.22 1871.27 1276.03 Q1871.27 1270.87 1872.98 1265.64 Q1874.69 1260.41 1878.19 1254.94 L1881.89 1254.94 Z" fill="#000000" fill-rule="nonzero" fill-opacity="1" /><path clip-path="url(#clip980)" d="M1911.71 1264.99 L1902.33 1277.61 L1912.19 1290.92 L1907.17 1290.92 L1899.62 1280.73 L1892.08 1290.92 L1887.05 1290.92 L1897.12 1277.35 L1887.91 1264.99 L1892.93 1264.99 L1899.81 1274.23 L1906.68 1264.99 L1911.71 1264.99 Z" fill="#000000" fill-rule="nonzero" fill-opacity="1" /><path clip-path="url(#clip980)" d="M1937.91 1298.79 L1937.91 1302.1 L1913.28 1302.1 L1913.28 1298.79 L1937.91 1298.79 Z" fill="#000000" fill-rule="nonzero" fill-opacity="1" /><path clip-path="url(#clip980)" d="M1963.46 1275.27 L1963.46 1290.92 L1959.21 1290.92 L1959.21 1275.41 Q1959.21 1271.73 1957.77 1269.9 Q1956.33 1268.07 1953.46 1268.07 Q1950.02 1268.07 1948.02 1270.27 Q1946.03 1272.47 1946.03 1276.26 L1946.03 1290.92 L1941.75 1290.92 L1941.75 1264.99 L1946.03 1264.99 L1946.03 1269.02 Q1947.56 1266.68 1949.62 1265.52 Q1951.71 1264.36 1954.41 1264.36 Q1958.88 1264.36 1961.17 1267.14 Q1963.46 1269.9 1963.46 1275.27 Z" fill="#000000" fill-rule="nonzero" fill-opacity="1" /><path clip-path="url(#clip980)" d="M1976.59 1286.98 L1992.91 1286.98 L1992.91 1290.92 L1970.96 1290.92 L1970.96 1286.98 Q1973.63 1284.23 1978.21 1279.6 Q1982.82 1274.94 1984 1273.6 Q1986.24 1271.08 1987.12 1269.34 Q1988.02 1267.58 1988.02 1265.89 Q1988.02 1263.14 1986.08 1261.4 Q1984.16 1259.67 1981.06 1259.67 Q1978.86 1259.67 1976.4 1260.43 Q1973.97 1261.19 1971.2 1262.74 L1971.2 1258.02 Q1974.02 1256.89 1976.47 1256.31 Q1978.93 1255.73 1980.96 1255.73 Q1986.33 1255.73 1989.53 1258.42 Q1992.72 1261.1 1992.72 1265.59 Q1992.72 1267.72 1991.91 1269.64 Q1991.13 1271.54 1989.02 1274.13 Q1988.44 1274.8 1985.34 1278.02 Q1982.24 1281.22 1976.59 1286.98 Z" fill="#000000" fill-rule="nonzero" fill-opacity="1" /><path clip-path="url(#clip980)" d="M2001.45 1254.94 L2005.15 1254.94 Q2008.63 1260.41 2010.34 1265.64 Q2012.08 1270.87 2012.08 1276.03 Q2012.08 1281.22 2010.34 1286.47 Q2008.63 1291.73 2005.15 1297.17 L2001.45 1297.17 Q2004.53 1291.86 2006.03 1286.63 Q2007.56 1281.38 2007.56 1276.03 Q2007.56 1270.68 2006.03 1265.48 Q2004.53 1260.27 2001.45 1254.94 Z" fill="#000000" fill-rule="nonzero" fill-opacity="1" /><circle clip-path="url(#clip980)" cx="1756.14" cy="1325.48" r="20.48" fill="#00a9ad" fill-rule="evenodd" fill-opacity="1" stroke="#000000" stroke-opacity="1" stroke-width="4.55111"/>
<path clip-path="url(#clip980)" d="M1868.09 1306.74 L1868.09 1310.28 L1864.02 1310.28 Q1861.73 1310.28 1860.83 1311.2 Q1859.95 1312.13 1859.95 1314.54 L1859.95 1316.83 L1866.96 1316.83 L1866.96 1320.14 L1859.95 1320.14 L1859.95 1342.76 L1855.66 1342.76 L1855.66 1320.14 L1851.59 1320.14 L1851.59 1316.83 L1855.66 1316.83 L1855.66 1315.02 Q1855.66 1310.7 1857.68 1308.73 Q1859.69 1306.74 1864.07 1306.74 L1868.09 1306.74 Z" fill="#000000" fill-rule="nonzero" fill-opacity="1" /><path clip-path="url(#clip980)" d="M1881.89 1306.78 Q1878.79 1312.11 1877.28 1317.32 Q1875.78 1322.52 1875.78 1327.87 Q1875.78 1333.22 1877.28 1338.47 Q1878.81 1343.7 1881.89 1349.01 L1878.19 1349.01 Q1874.71 1343.57 1872.98 1338.31 Q1871.27 1333.06 1871.27 1327.87 Q1871.27 1322.71 1872.98 1317.48 Q1874.69 1312.25 1878.19 1306.78 L1881.89 1306.78 Z" fill="#000000" fill-rule="nonzero" fill-opacity="1" /><path clip-path="url(#clip980)" d="M1911.71 1316.83 L1902.33 1329.45 L1912.19 1342.76 L1907.17 1342.76 L1899.62 1332.57 L1892.08 1342.76 L1887.05 1342.76 L1897.12 1329.19 L1887.91 1316.83 L1892.93 1316.83 L1899.81 1326.07 L1906.68 1316.83 L1911.71 1316.83 Z" fill="#000000" fill-rule="nonzero" fill-opacity="1" /><path clip-path="url(#clip980)" d="M1937.91 1350.63 L1937.91 1353.94 L1913.28 1353.94 L1913.28 1350.63 L1937.91 1350.63 Z" fill="#000000" fill-rule="nonzero" fill-opacity="1" /><path clip-path="url(#clip980)" d="M1963.46 1327.11 L1963.46 1342.76 L1959.21 1342.76 L1959.21 1327.25 Q1959.21 1323.57 1957.77 1321.74 Q1956.33 1319.91 1953.46 1319.91 Q1950.02 1319.91 1948.02 1322.11 Q1946.03 1324.31 1946.03 1328.1 L1946.03 1342.76 L1941.75 1342.76 L1941.75 1316.83 L1946.03 1316.83 L1946.03 1320.86 Q1947.56 1318.52 1949.62 1317.36 Q1951.71 1316.2 1954.41 1316.2 Q1958.88 1316.2 1961.17 1318.98 Q1963.46 1321.74 1963.46 1327.11 Z" fill="#000000" fill-rule="nonzero" fill-opacity="1" /><path clip-path="url(#clip980)" d="M1986.73 1324.12 Q1990.08 1324.84 1991.96 1327.11 Q1993.86 1329.38 1993.86 1332.71 Q1993.86 1337.82 1990.34 1340.63 Q1986.82 1343.43 1980.34 1343.43 Q1978.16 1343.43 1975.85 1342.99 Q1973.56 1342.57 1971.1 1341.71 L1971.1 1337.2 Q1973.05 1338.33 1975.36 1338.91 Q1977.68 1339.49 1980.2 1339.49 Q1984.6 1339.49 1986.89 1337.76 Q1989.21 1336.02 1989.21 1332.71 Q1989.21 1329.65 1987.05 1327.94 Q1984.92 1326.2 1981.1 1326.2 L1977.08 1326.2 L1977.08 1322.36 L1981.29 1322.36 Q1984.74 1322.36 1986.57 1321 Q1988.39 1319.61 1988.39 1317.01 Q1988.39 1314.35 1986.5 1312.94 Q1984.62 1311.51 1981.1 1311.51 Q1979.18 1311.51 1976.98 1311.92 Q1974.78 1312.34 1972.14 1313.22 L1972.14 1309.05 Q1974.81 1308.31 1977.12 1307.94 Q1979.46 1307.57 1981.52 1307.57 Q1986.84 1307.57 1989.95 1310 Q1993.05 1312.41 1993.05 1316.53 Q1993.05 1319.4 1991.4 1321.39 Q1989.76 1323.36 1986.73 1324.12 Z" fill="#000000" fill-rule="nonzero" fill-opacity="1" /><path clip-path="url(#clip980)" d="M2001.45 1306.78 L2005.15 1306.78 Q2008.63 1312.25 2010.34 1317.48 Q2012.08 1322.71 2012.08 1327.87 Q2012.08 1333.06 2010.34 1338.31 Q2008.63 1343.57 2005.15 1349.01 L2001.45 1349.01 Q2004.53 1343.7 2006.03 1338.47 Q2007.56 1333.22 2007.56 1327.87 Q2007.56 1322.52 2006.03 1317.32 Q2004.53 1312.11 2001.45 1306.78 Z" fill="#000000" fill-rule="nonzero" fill-opacity="1" /></svg>
