<?xml version="1.0" encoding="utf-8"?>
<svg xmlns="http://www.w3.org/2000/svg" xmlns:xlink="http://www.w3.org/1999/xlink" width="600" height="400" viewBox="0 0 2400 1600">
<defs>
  <clipPath id="clip050">
    <rect x="0" y="0" width="2400" height="1600"/>
  </clipPath>
</defs>
<path clip-path="url(#clip050)" d="M0 1600 L2400 1600 L2400 0 L0 0  Z" fill="#ffffff" fill-rule="evenodd" fill-opacity="1"/>
<defs>
  <clipPath id="clip051">
    <rect x="480" y="0" width="1681" height="1600"/>
  </clipPath>
</defs>
<path clip-path="url(#clip050)" d="M276.274 1486.45 L2352.76 1486.45 L2352.76 47.2441 L276.274 47.2441  Z" fill="#ffffff" fill-rule="evenodd" fill-opacity="1"/>
<defs>
  <clipPath id="clip052">
    <rect x="276" y="47" width="2077" height="1440"/>
  </clipPath>
</defs>
<polyline clip-path="url(#clip052)" style="stroke:#000000; stroke-linecap:round; stroke-linejoin:round; stroke-width:2; stroke-opacity:0.1; fill:none" points="296.514,1486.45 296.514,47.2441 "/>
<polyline clip-path="url(#clip052)" style="stroke:#000000; stroke-linecap:round; stroke-linejoin:round; stroke-width:2; stroke-opacity:0.1; fill:none" points="609.745,1486.45 609.745,47.2441 "/>
<polyline clip-path="url(#clip052)" style="stroke:#000000; stroke-linecap:round; stroke-linejoin:round; stroke-width:2; stroke-opacity:0.1; fill:none" points="922.976,1486.45 922.976,47.2441 "/>
<polyline clip-path="url(#clip052)" style="stroke:#000000; stroke-linecap:round; stroke-linejoin:round; stroke-width:2; stroke-opacity:0.1; fill:none" points="1236.21,1486.45 1236.21,47.2441 "/>
<polyline clip-path="url(#clip052)" style="stroke:#000000; stroke-linecap:round; stroke-linejoin:round; stroke-width:2; stroke-opacity:0.1; fill:none" points="1549.44,1486.45 1549.44,47.2441 "/>
<polyline clip-path="url(#clip052)" style="stroke:#000000; stroke-linecap:round; stroke-linejoin:round; stroke-width:2; stroke-opacity:0.1; fill:none" points="1862.67,1486.45 1862.67,47.2441 "/>
<polyline clip-path="url(#clip052)" style="stroke:#000000; stroke-linecap:round; stroke-linejoin:round; stroke-width:2; stroke-opacity:0.1; fill:none" points="2175.9,1486.45 2175.9,47.2441 "/>
<polyline clip-path="url(#clip050)" style="stroke:#000000; stroke-linecap:round; stroke-linejoin:round; stroke-width:4; stroke-opacity:1; fill:none" points="276.274,1486.45 2352.76,1486.45 "/>
<polyline clip-path="url(#clip050)" style="stroke:#000000; stroke-linecap:round; stroke-linejoin:round; stroke-width:4; stroke-opacity:1; fill:none" points="296.514,1486.45 296.514,1467.55 "/>
<polyline clip-path="url(#clip050)" style="stroke:#000000; stroke-linecap:round; stroke-linejoin:round; stroke-width:4; stroke-opacity:1; fill:none" points="609.745,1486.45 609.745,1467.55 "/>
<polyline clip-path="url(#clip050)" style="stroke:#000000; stroke-linecap:round; stroke-linejoin:round; stroke-width:4; stroke-opacity:1; fill:none" points="922.976,1486.45 922.976,1467.55 "/>
<polyline clip-path="url(#clip050)" style="stroke:#000000; stroke-linecap:round; stroke-linejoin:round; stroke-width:4; stroke-opacity:1; fill:none" points="1236.21,1486.45 1236.21,1467.55 "/>
<polyline clip-path="url(#clip050)" style="stroke:#000000; stroke-linecap:round; stroke-linejoin:round; stroke-width:4; stroke-opacity:1; fill:none" points="1549.44,1486.45 1549.44,1467.55 "/>
<polyline clip-path="url(#clip050)" style="stroke:#000000; stroke-linecap:round; stroke-linejoin:round; stroke-width:4; stroke-opacity:1; fill:none" points="1862.67,1486.45 1862.67,1467.55 "/>
<polyline clip-path="url(#clip050)" style="stroke:#000000; stroke-linecap:round; stroke-linejoin:round; stroke-width:4; stroke-opacity:1; fill:none" points="2175.9,1486.45 2175.9,1467.55 "/>
<path clip-path="url(#clip050)" d="M296.514 1517.37 Q292.903 1517.37 291.075 1520.93 Q289.269 1524.47 289.269 1531.6 Q289.269 1538.71 291.075 1542.27 Q292.903 1545.82 296.514 1545.82 Q300.149 1545.82 301.954 1542.27 Q303.783 1538.71 303.783 1531.6 Q303.783 1524.47 301.954 1520.93 Q300.149 1517.37 296.514 1517.37 M296.514 1513.66 Q302.325 1513.66 305.38 1518.27 Q308.459 1522.85 308.459 1531.6 Q308.459 1540.33 305.38 1544.94 Q302.325 1549.52 296.514 1549.52 Q290.704 1549.52 287.626 1544.94 Q284.57 1540.33 284.57 1531.6 Q284.57 1522.85 287.626 1518.27 Q290.704 1513.66 296.514 1513.66 Z" fill="#000000" fill-rule="nonzero" fill-opacity="1" /><path clip-path="url(#clip050)" d="M604.398 1544.91 L620.717 1544.91 L620.717 1548.85 L598.773 1548.85 L598.773 1544.91 Q601.435 1542.16 606.018 1537.53 Q610.625 1532.88 611.806 1531.53 Q614.051 1529.01 614.93 1527.27 Q615.833 1525.51 615.833 1523.82 Q615.833 1521.07 613.889 1519.33 Q611.968 1517.6 608.866 1517.6 Q606.667 1517.6 604.213 1518.36 Q601.782 1519.13 599.005 1520.68 L599.005 1515.95 Q601.829 1514.82 604.282 1514.24 Q606.736 1513.66 608.773 1513.66 Q614.143 1513.66 617.338 1516.35 Q620.532 1519.03 620.532 1523.52 Q620.532 1525.65 619.722 1527.57 Q618.935 1529.47 616.829 1532.07 Q616.25 1532.74 613.148 1535.95 Q610.046 1539.15 604.398 1544.91 Z" fill="#000000" fill-rule="nonzero" fill-opacity="1" /><path clip-path="url(#clip050)" d="M925.985 1518.36 L914.18 1536.81 L925.985 1536.81 L925.985 1518.36 M924.759 1514.29 L930.638 1514.29 L930.638 1536.81 L935.569 1536.81 L935.569 1540.7 L930.638 1540.7 L930.638 1548.85 L925.985 1548.85 L925.985 1540.7 L910.384 1540.7 L910.384 1536.19 L924.759 1514.29 Z" fill="#000000" fill-rule="nonzero" fill-opacity="1" /><path clip-path="url(#clip050)" d="M1236.61 1529.7 Q1233.46 1529.7 1231.61 1531.86 Q1229.78 1534.01 1229.78 1537.76 Q1229.78 1541.49 1231.61 1543.66 Q1233.46 1545.82 1236.61 1545.82 Q1239.76 1545.82 1241.59 1543.66 Q1243.44 1541.49 1243.44 1537.76 Q1243.44 1534.01 1241.59 1531.86 Q1239.76 1529.7 1236.61 1529.7 M1245.89 1515.05 L1245.89 1519.31 Q1244.14 1518.48 1242.33 1518.04 Q1240.55 1517.6 1238.79 1517.6 Q1234.16 1517.6 1231.7 1520.72 Q1229.27 1523.85 1228.93 1530.17 Q1230.29 1528.15 1232.35 1527.09 Q1234.41 1526 1236.89 1526 Q1242.1 1526 1245.11 1529.17 Q1248.14 1532.32 1248.14 1537.76 Q1248.14 1543.08 1244.99 1546.3 Q1241.84 1549.52 1236.61 1549.52 Q1230.62 1549.52 1227.45 1544.94 Q1224.27 1540.33 1224.27 1531.6 Q1224.27 1523.41 1228.16 1518.55 Q1232.05 1513.66 1238.6 1513.66 Q1240.36 1513.66 1242.14 1514.01 Q1243.95 1514.36 1245.89 1515.05 Z" fill="#000000" fill-rule="nonzero" fill-opacity="1" /><path clip-path="url(#clip050)" d="M1549.44 1532.44 Q1546.1 1532.44 1544.18 1534.22 Q1542.29 1536 1542.29 1539.13 Q1542.29 1542.25 1544.18 1544.03 Q1546.1 1545.82 1549.44 1545.82 Q1552.77 1545.82 1554.69 1544.03 Q1556.61 1542.23 1556.61 1539.13 Q1556.61 1536 1554.69 1534.22 Q1552.79 1532.44 1549.44 1532.44 M1544.76 1530.45 Q1541.75 1529.7 1540.06 1527.64 Q1538.4 1525.58 1538.4 1522.62 Q1538.4 1518.48 1541.34 1516.07 Q1544.3 1513.66 1549.44 1513.66 Q1554.6 1513.66 1557.54 1516.07 Q1560.48 1518.48 1560.48 1522.62 Q1560.48 1525.58 1558.79 1527.64 Q1557.12 1529.7 1554.14 1530.45 Q1557.52 1531.23 1559.39 1533.52 Q1561.29 1535.82 1561.29 1539.13 Q1561.29 1544.15 1558.21 1546.83 Q1555.16 1549.52 1549.44 1549.52 Q1543.72 1549.52 1540.64 1546.83 Q1537.59 1544.15 1537.59 1539.13 Q1537.59 1535.82 1539.48 1533.52 Q1541.38 1531.23 1544.76 1530.45 M1543.05 1523.06 Q1543.05 1525.75 1544.72 1527.25 Q1546.41 1528.76 1549.44 1528.76 Q1552.45 1528.76 1554.14 1527.25 Q1555.85 1525.75 1555.85 1523.06 Q1555.85 1520.38 1554.14 1518.87 Q1552.45 1517.37 1549.44 1517.37 Q1546.41 1517.37 1544.72 1518.87 Q1543.05 1520.38 1543.05 1523.06 Z" fill="#000000" fill-rule="nonzero" fill-opacity="1" /><path clip-path="url(#clip050)" d="M1837.36 1544.91 L1845 1544.91 L1845 1518.55 L1836.69 1520.21 L1836.69 1515.95 L1844.95 1514.29 L1849.62 1514.29 L1849.62 1544.91 L1857.26 1544.91 L1857.26 1548.85 L1837.36 1548.85 L1837.36 1544.91 Z" fill="#000000" fill-rule="nonzero" fill-opacity="1" /><path clip-path="url(#clip050)" d="M1876.71 1517.37 Q1873.1 1517.37 1871.27 1520.93 Q1869.46 1524.47 1869.46 1531.6 Q1869.46 1538.71 1871.27 1542.27 Q1873.1 1545.82 1876.71 1545.82 Q1880.34 1545.82 1882.15 1542.27 Q1883.98 1538.71 1883.98 1531.6 Q1883.98 1524.47 1882.15 1520.93 Q1880.34 1517.37 1876.71 1517.37 M1876.71 1513.66 Q1882.52 1513.66 1885.57 1518.27 Q1888.65 1522.85 1888.65 1531.6 Q1888.65 1540.33 1885.57 1544.94 Q1882.52 1549.52 1876.71 1549.52 Q1870.9 1549.52 1867.82 1544.94 Q1864.76 1540.33 1864.76 1531.6 Q1864.76 1522.85 1867.82 1518.27 Q1870.9 1513.66 1876.71 1513.66 Z" fill="#000000" fill-rule="nonzero" fill-opacity="1" /><path clip-path="url(#clip050)" d="M2151.39 1544.91 L2159.02 1544.91 L2159.02 1518.55 L2150.71 1520.21 L2150.71 1515.95 L2158.98 1514.29 L2163.65 1514.29 L2163.65 1544.91 L2171.29 1544.91 L2171.29 1548.85 L2151.39 1548.85 L2151.39 1544.91 Z" fill="#000000" fill-rule="nonzero" fill-opacity="1" /><path clip-path="url(#clip050)" d="M2184.77 1544.91 L2201.08 1544.91 L2201.08 1548.85 L2179.14 1548.85 L2179.14 1544.91 Q2181.8 1542.16 2186.39 1537.53 Q2190.99 1532.88 2192.17 1531.53 Q2194.42 1529.01 2195.3 1527.27 Q2196.2 1525.51 2196.2 1523.82 Q2196.2 1521.07 2194.26 1519.33 Q2192.33 1517.6 2189.23 1517.6 Q2187.03 1517.6 2184.58 1518.36 Q2182.15 1519.13 2179.37 1520.68 L2179.37 1515.95 Q2182.2 1514.82 2184.65 1514.24 Q2187.1 1513.66 2189.14 1513.66 Q2194.51 1513.66 2197.7 1516.35 Q2200.9 1519.03 2200.9 1523.52 Q2200.9 1525.65 2200.09 1527.57 Q2199.3 1529.47 2197.2 1532.07 Q2196.62 1532.74 2193.52 1535.95 Q2190.41 1539.15 2184.77 1544.91 Z" fill="#000000" fill-rule="nonzero" fill-opacity="1" /><polyline clip-path="url(#clip052)" style="stroke:#000000; stroke-linecap:round; stroke-linejoin:round; stroke-width:2; stroke-opacity:0.1; fill:none" points="276.274,1486.45 2352.76,1486.45 "/>
<polyline clip-path="url(#clip052)" style="stroke:#000000; stroke-linecap:round; stroke-linejoin:round; stroke-width:2; stroke-opacity:0.1; fill:none" points="276.274,1118.39 2352.76,1118.39 "/>
<polyline clip-path="url(#clip052)" style="stroke:#000000; stroke-linecap:round; stroke-linejoin:round; stroke-width:2; stroke-opacity:0.1; fill:none" points="276.274,750.339 2352.76,750.339 "/>
<polyline clip-path="url(#clip052)" style="stroke:#000000; stroke-linecap:round; stroke-linejoin:round; stroke-width:2; stroke-opacity:0.1; fill:none" points="276.274,382.284 2352.76,382.284 "/>
<polyline clip-path="url(#clip050)" style="stroke:#000000; stroke-linecap:round; stroke-linejoin:round; stroke-width:4; stroke-opacity:1; fill:none" points="276.274,1486.45 276.274,47.2441 "/>
<polyline clip-path="url(#clip050)" style="stroke:#000000; stroke-linecap:round; stroke-linejoin:round; stroke-width:4; stroke-opacity:1; fill:none" points="276.274,1486.45 295.171,1486.45 "/>
<polyline clip-path="url(#clip050)" style="stroke:#000000; stroke-linecap:round; stroke-linejoin:round; stroke-width:4; stroke-opacity:1; fill:none" points="276.274,1118.39 295.171,1118.39 "/>
<polyline clip-path="url(#clip050)" style="stroke:#000000; stroke-linecap:round; stroke-linejoin:round; stroke-width:4; stroke-opacity:1; fill:none" points="276.274,750.339 295.171,750.339 "/>
<polyline clip-path="url(#clip050)" style="stroke:#000000; stroke-linecap:round; stroke-linejoin:round; stroke-width:4; stroke-opacity:1; fill:none" points="276.274,382.284 295.171,382.284 "/>
<path clip-path="url(#clip050)" d="M228.329 1472.25 Q224.718 1472.25 222.889 1475.81 Q221.084 1479.35 221.084 1486.48 Q221.084 1493.59 222.889 1497.15 Q224.718 1500.7 228.329 1500.7 Q231.963 1500.7 233.769 1497.15 Q235.598 1493.59 235.598 1486.48 Q235.598 1479.35 233.769 1475.81 Q231.963 1472.25 228.329 1472.25 M228.329 1468.54 Q234.139 1468.54 237.195 1473.15 Q240.274 1477.73 240.274 1486.48 Q240.274 1495.21 237.195 1499.82 Q234.139 1504.4 228.329 1504.4 Q222.519 1504.4 219.44 1499.82 Q216.385 1495.21 216.385 1486.48 Q216.385 1477.73 219.44 1473.15 Q222.519 1468.54 228.329 1468.54 Z" fill="#000000" fill-rule="nonzero" fill-opacity="1" /><path clip-path="url(#clip050)" d="M53.3995 1138.19 L61.0384 1138.19 L61.0384 1111.82 L52.7282 1113.49 L52.7282 1109.23 L60.9921 1107.56 L65.668 1107.56 L65.668 1138.19 L73.3068 1138.19 L73.3068 1142.12 L53.3995 1142.12 L53.3995 1138.19 Z" fill="#000000" fill-rule="nonzero" fill-opacity="1" /><path clip-path="url(#clip050)" d="M82.7512 1136.24 L87.6354 1136.24 L87.6354 1142.12 L82.7512 1142.12 L82.7512 1136.24 Z" fill="#000000" fill-rule="nonzero" fill-opacity="1" /><path clip-path="url(#clip050)" d="M107.821 1110.64 Q104.209 1110.64 102.381 1114.2 Q100.575 1117.75 100.575 1124.88 Q100.575 1131.98 102.381 1135.55 Q104.209 1139.09 107.821 1139.09 Q111.455 1139.09 113.26 1135.55 Q115.089 1131.98 115.089 1124.88 Q115.089 1117.75 113.26 1114.2 Q111.455 1110.64 107.821 1110.64 M107.821 1106.94 Q113.631 1106.94 116.686 1111.54 Q119.765 1116.13 119.765 1124.88 Q119.765 1133.6 116.686 1138.21 Q113.631 1142.79 107.821 1142.79 Q102.01 1142.79 98.9317 1138.21 Q95.8761 1133.6 95.8761 1124.88 Q95.8761 1116.13 98.9317 1111.54 Q102.01 1106.94 107.821 1106.94 Z" fill="#000000" fill-rule="nonzero" fill-opacity="1" /><path clip-path="url(#clip050)" d="M156.154 1116.66 L145.575 1127.28 L156.154 1137.86 L153.399 1140.66 L142.774 1130.04 L132.149 1140.66 L129.418 1137.86 L139.973 1127.28 L129.418 1116.66 L132.149 1113.86 L142.774 1124.48 L153.399 1113.86 L156.154 1116.66 Z" fill="#000000" fill-rule="nonzero" fill-opacity="1" /><path clip-path="url(#clip050)" d="M168.515 1138.19 L176.153 1138.19 L176.153 1111.82 L167.843 1113.49 L167.843 1109.23 L176.107 1107.56 L180.783 1107.56 L180.783 1138.19 L188.422 1138.19 L188.422 1142.12 L168.515 1142.12 L168.515 1138.19 Z" fill="#000000" fill-rule="nonzero" fill-opacity="1" /><path clip-path="url(#clip050)" d="M207.866 1110.64 Q204.255 1110.64 202.426 1114.2 Q200.621 1117.75 200.621 1124.88 Q200.621 1131.98 202.426 1135.55 Q204.255 1139.09 207.866 1139.09 Q211.501 1139.09 213.306 1135.55 Q215.135 1131.98 215.135 1124.88 Q215.135 1117.75 213.306 1114.2 Q211.501 1110.64 207.866 1110.64 M207.866 1106.94 Q213.676 1106.94 216.732 1111.54 Q219.811 1116.13 219.811 1124.88 Q219.811 1133.6 216.732 1138.21 Q213.676 1142.79 207.866 1142.79 Q202.056 1142.79 198.977 1138.21 Q195.922 1133.6 195.922 1124.88 Q195.922 1116.13 198.977 1111.54 Q202.056 1106.94 207.866 1106.94 Z" fill="#000000" fill-rule="nonzero" fill-opacity="1" /><path clip-path="url(#clip050)" d="M232.487 1089.94 L222.895 1104.93 L232.487 1104.93 L232.487 1089.94 M231.49 1086.63 L236.267 1086.63 L236.267 1104.93 L240.274 1104.93 L240.274 1108.09 L236.267 1108.09 L236.267 1114.71 L232.487 1114.71 L232.487 1108.09 L219.811 1108.09 L219.811 1104.42 L231.49 1086.63 Z" fill="#000000" fill-rule="nonzero" fill-opacity="1" /><path clip-path="url(#clip050)" d="M56.6171 770.131 L72.9365 770.131 L72.9365 774.066 L50.9921 774.066 L50.9921 770.131 Q53.6541 767.377 58.2375 762.747 Q62.8439 758.094 64.0245 756.752 Q66.2698 754.228 67.1494 752.492 Q68.0522 750.733 68.0522 749.043 Q68.0522 746.289 66.1078 744.553 Q64.1865 742.817 61.0847 742.817 Q58.8856 742.817 56.4319 743.58 Q54.0014 744.344 51.2236 745.895 L51.2236 741.173 Q54.0477 740.039 56.5014 739.46 Q58.955 738.881 60.9921 738.881 Q66.3624 738.881 69.5568 741.567 Q72.7513 744.252 72.7513 748.742 Q72.7513 750.872 71.9411 752.793 Q71.1541 754.691 69.0476 757.284 Q68.4689 757.955 65.367 761.173 Q62.2652 764.367 56.6171 770.131 Z" fill="#000000" fill-rule="nonzero" fill-opacity="1" /><path clip-path="url(#clip050)" d="M82.7512 768.187 L87.6354 768.187 L87.6354 774.066 L82.7512 774.066 L82.7512 768.187 Z" fill="#000000" fill-rule="nonzero" fill-opacity="1" /><path clip-path="url(#clip050)" d="M107.821 742.585 Q104.209 742.585 102.381 746.15 Q100.575 749.691 100.575 756.821 Q100.575 763.928 102.381 767.492 Q104.209 771.034 107.821 771.034 Q111.455 771.034 113.26 767.492 Q115.089 763.928 115.089 756.821 Q115.089 749.691 113.26 746.15 Q111.455 742.585 107.821 742.585 M107.821 738.881 Q113.631 738.881 116.686 743.488 Q119.765 748.071 119.765 756.821 Q119.765 765.548 116.686 770.154 Q113.631 774.738 107.821 774.738 Q102.01 774.738 98.9317 770.154 Q95.8761 765.548 95.8761 756.821 Q95.8761 748.071 98.9317 743.488 Q102.01 738.881 107.821 738.881 Z" fill="#000000" fill-rule="nonzero" fill-opacity="1" /><path clip-path="url(#clip050)" d="M156.154 748.604 L145.575 759.228 L156.154 769.807 L153.399 772.608 L142.774 761.983 L132.149 772.608 L129.418 769.807 L139.973 759.228 L129.418 748.604 L132.149 745.803 L142.774 756.428 L153.399 745.803 L156.154 748.604 Z" fill="#000000" fill-rule="nonzero" fill-opacity="1" /><path clip-path="url(#clip050)" d="M168.515 770.131 L176.153 770.131 L176.153 743.766 L167.843 745.432 L167.843 741.173 L176.107 739.506 L180.783 739.506 L180.783 770.131 L188.422 770.131 L188.422 774.066 L168.515 774.066 L168.515 770.131 Z" fill="#000000" fill-rule="nonzero" fill-opacity="1" /><path clip-path="url(#clip050)" d="M207.866 742.585 Q204.255 742.585 202.426 746.15 Q200.621 749.691 200.621 756.821 Q200.621 763.928 202.426 767.492 Q204.255 771.034 207.866 771.034 Q211.501 771.034 213.306 767.492 Q215.135 763.928 215.135 756.821 Q215.135 749.691 213.306 746.15 Q211.501 742.585 207.866 742.585 M207.866 738.881 Q213.676 738.881 216.732 743.488 Q219.811 748.071 219.811 756.821 Q219.811 765.548 216.732 770.154 Q213.676 774.738 207.866 774.738 Q202.056 774.738 198.977 770.154 Q195.922 765.548 195.922 756.821 Q195.922 748.071 198.977 743.488 Q202.056 738.881 207.866 738.881 Z" fill="#000000" fill-rule="nonzero" fill-opacity="1" /><path clip-path="url(#clip050)" d="M232.487 721.886 L222.895 736.876 L232.487 736.876 L232.487 721.886 M231.49 718.576 L236.267 718.576 L236.267 736.876 L240.274 736.876 L240.274 740.036 L236.267 740.036 L236.267 746.656 L232.487 746.656 L232.487 740.036 L219.811 740.036 L219.811 736.368 L231.49 718.576 Z" fill="#000000" fill-rule="nonzero" fill-opacity="1" /><path clip-path="url(#clip050)" d="M66.7559 387.378 Q70.1124 388.095 71.9874 390.364 Q73.8855 392.632 73.8855 395.966 Q73.8855 401.081 70.367 403.882 Q66.8485 406.683 60.3671 406.683 Q58.1912 406.683 55.8764 406.243 Q53.5847 405.827 51.131 404.97 L51.131 400.456 Q53.0754 401.59 55.3903 402.169 Q57.7051 402.748 60.2282 402.748 Q64.6263 402.748 66.918 401.012 Q69.2328 399.276 69.2328 395.966 Q69.2328 392.91 67.08 391.197 Q64.9504 389.461 61.131 389.461 L57.1032 389.461 L57.1032 385.618 L61.3161 385.618 Q64.7652 385.618 66.5939 384.253 Q68.4226 382.864 68.4226 380.271 Q68.4226 377.609 66.5245 376.197 Q64.6495 374.762 61.131 374.762 Q59.2097 374.762 57.0106 375.179 Q54.8115 375.595 52.1727 376.475 L52.1727 372.308 Q54.8347 371.568 57.1495 371.197 Q59.4875 370.827 61.5476 370.827 Q66.8717 370.827 69.9735 373.257 Q73.0753 375.665 73.0753 379.785 Q73.0753 382.655 71.4318 384.646 Q69.7883 386.614 66.7559 387.378 Z" fill="#000000" fill-rule="nonzero" fill-opacity="1" /><path clip-path="url(#clip050)" d="M82.7512 400.132 L87.6354 400.132 L87.6354 406.012 L82.7512 406.012 L82.7512 400.132 Z" fill="#000000" fill-rule="nonzero" fill-opacity="1" /><path clip-path="url(#clip050)" d="M107.821 374.53 Q104.209 374.53 102.381 378.095 Q100.575 381.637 100.575 388.766 Q100.575 395.873 102.381 399.438 Q104.209 402.979 107.821 402.979 Q111.455 402.979 113.26 399.438 Q115.089 395.873 115.089 388.766 Q115.089 381.637 113.26 378.095 Q111.455 374.53 107.821 374.53 M107.821 370.827 Q113.631 370.827 116.686 375.433 Q119.765 380.017 119.765 388.766 Q119.765 397.493 116.686 402.1 Q113.631 406.683 107.821 406.683 Q102.01 406.683 98.9317 402.1 Q95.8761 397.493 95.8761 388.766 Q95.8761 380.017 98.9317 375.433 Q102.01 370.827 107.821 370.827 Z" fill="#000000" fill-rule="nonzero" fill-opacity="1" /><path clip-path="url(#clip050)" d="M156.154 380.549 L145.575 391.174 L156.154 401.753 L153.399 404.553 L142.774 393.928 L132.149 404.553 L129.418 401.753 L139.973 391.174 L129.418 380.549 L132.149 377.748 L142.774 388.373 L153.399 377.748 L156.154 380.549 Z" fill="#000000" fill-rule="nonzero" fill-opacity="1" /><path clip-path="url(#clip050)" d="M168.515 402.077 L176.153 402.077 L176.153 375.711 L167.843 377.378 L167.843 373.118 L176.107 371.452 L180.783 371.452 L180.783 402.077 L188.422 402.077 L188.422 406.012 L168.515 406.012 L168.515 402.077 Z" fill="#000000" fill-rule="nonzero" fill-opacity="1" /><path clip-path="url(#clip050)" d="M207.866 374.53 Q204.255 374.53 202.426 378.095 Q200.621 381.637 200.621 388.766 Q200.621 395.873 202.426 399.438 Q204.255 402.979 207.866 402.979 Q211.501 402.979 213.306 399.438 Q215.135 395.873 215.135 388.766 Q215.135 381.637 213.306 378.095 Q211.501 374.53 207.866 374.53 M207.866 370.827 Q213.676 370.827 216.732 375.433 Q219.811 380.017 219.811 388.766 Q219.811 397.493 216.732 402.1 Q213.676 406.683 207.866 406.683 Q202.056 406.683 198.977 402.1 Q195.922 397.493 195.922 388.766 Q195.922 380.017 198.977 375.433 Q202.056 370.827 207.866 370.827 Z" fill="#000000" fill-rule="nonzero" fill-opacity="1" /><path clip-path="url(#clip050)" d="M232.487 353.832 L222.895 368.821 L232.487 368.821 L232.487 353.832 M231.49 350.521 L236.267 350.521 L236.267 368.821 L240.274 368.821 L240.274 371.981 L236.267 371.981 L236.267 378.601 L232.487 378.601 L232.487 371.981 L219.811 371.981 L219.811 368.314 L231.49 350.521 Z" fill="#000000" fill-rule="nonzero" fill-opacity="1" /><path clip-path="url(#clip052)" d="M390.484 67.3767 L390.484 1486.45 L515.776 1486.45 L515.776 67.3767 L390.484 67.3767 L390.484 67.3767  Z" fill="#009af9" fill-rule="evenodd" fill-opacity="1"/>
<polyline clip-path="url(#clip052)" style="stroke:#000000; stroke-linecap:round; stroke-linejoin:round; stroke-width:4; stroke-opacity:1; fill:none" points="390.484,67.3767 390.484,1486.45 515.776,1486.45 515.776,67.3767 390.484,67.3767 "/>
<path clip-path="url(#clip052)" d="M547.099 585.745 L547.099 1486.45 L672.391 1486.45 L672.391 585.745 L547.099 585.745 L547.099 585.745  Z" fill="#009af9" fill-rule="evenodd" fill-opacity="1"/>
<polyline clip-path="url(#clip052)" style="stroke:#000000; stroke-linecap:round; stroke-linejoin:round; stroke-width:4; stroke-opacity:1; fill:none" points="547.099,585.745 547.099,1486.45 672.391,1486.45 672.391,585.745 547.099,585.745 "/>
<path clip-path="url(#clip052)" d="M703.715 950.708 L703.715 1486.45 L829.007 1486.45 L829.007 950.708 L703.715 950.708 L703.715 950.708  Z" fill="#009af9" fill-rule="evenodd" fill-opacity="1"/>
<polyline clip-path="url(#clip052)" style="stroke:#000000; stroke-linecap:round; stroke-linejoin:round; stroke-width:4; stroke-opacity:1; fill:none" points="703.715,950.708 703.715,1486.45 829.007,1486.45 829.007,950.708 703.715,950.708 "/>
<path clip-path="url(#clip052)" d="M860.33 821.741 L860.33 1486.45 L985.622 1486.45 L985.622 821.741 L860.33 821.741 L860.33 821.741  Z" fill="#009af9" fill-rule="evenodd" fill-opacity="1"/>
<polyline clip-path="url(#clip052)" style="stroke:#000000; stroke-linecap:round; stroke-linejoin:round; stroke-width:4; stroke-opacity:1; fill:none" points="860.33,821.741 860.33,1486.45 985.622,1486.45 985.622,821.741 860.33,821.741 "/>
<path clip-path="url(#clip052)" d="M1016.95 766.938 L1016.95 1486.45 L1142.24 1486.45 L1142.24 766.938 L1016.95 766.938 L1016.95 766.938  Z" fill="#009af9" fill-rule="evenodd" fill-opacity="1"/>
<polyline clip-path="url(#clip052)" style="stroke:#000000; stroke-linecap:round; stroke-linejoin:round; stroke-width:4; stroke-opacity:1; fill:none" points="1016.95,766.938 1016.95,1486.45 1142.24,1486.45 1142.24,766.938 1016.95,766.938 "/>
<path clip-path="url(#clip052)" d="M1173.56 1187.51 L1173.56 1486.45 L1298.85 1486.45 L1298.85 1187.51 L1173.56 1187.51 L1173.56 1187.51  Z" fill="#009af9" fill-rule="evenodd" fill-opacity="1"/>
<polyline clip-path="url(#clip052)" style="stroke:#000000; stroke-linecap:round; stroke-linejoin:round; stroke-width:4; stroke-opacity:1; fill:none" points="1173.56,1187.51 1173.56,1486.45 1298.85,1486.45 1298.85,1187.51 1173.56,1187.51 "/>
<path clip-path="url(#clip052)" d="M1330.18 435.983 L1330.18 1486.45 L1455.47 1486.45 L1455.47 435.983 L1330.18 435.983 L1330.18 435.983  Z" fill="#009af9" fill-rule="evenodd" fill-opacity="1"/>
<polyline clip-path="url(#clip052)" style="stroke:#000000; stroke-linecap:round; stroke-linejoin:round; stroke-width:4; stroke-opacity:1; fill:none" points="1330.18,435.983 1330.18,1486.45 1455.47,1486.45 1455.47,435.983 1330.18,435.983 "/>
<path clip-path="url(#clip052)" d="M1486.79 1196.42 L1486.79 1486.45 L1612.08 1486.45 L1612.08 1196.42 L1486.79 1196.42 L1486.79 1196.42  Z" fill="#009af9" fill-rule="evenodd" fill-opacity="1"/>
<polyline clip-path="url(#clip052)" style="stroke:#000000; stroke-linecap:round; stroke-linejoin:round; stroke-width:4; stroke-opacity:1; fill:none" points="1486.79,1196.42 1486.79,1486.45 1612.08,1486.45 1612.08,1196.42 1486.79,1196.42 "/>
<path clip-path="url(#clip052)" d="M1643.41 1365.62 L1643.41 1486.45 L1768.7 1486.45 L1768.7 1365.62 L1643.41 1365.62 L1643.41 1365.62  Z" fill="#009af9" fill-rule="evenodd" fill-opacity="1"/>
<polyline clip-path="url(#clip052)" style="stroke:#000000; stroke-linecap:round; stroke-linejoin:round; stroke-width:4; stroke-opacity:1; fill:none" points="1643.41,1365.62 1643.41,1486.45 1768.7,1486.45 1768.7,1365.62 1643.41,1365.62 "/>
<path clip-path="url(#clip052)" d="M1800.02 1334.26 L1800.02 1486.45 L1925.31 1486.45 L1925.31 1334.26 L1800.02 1334.26 L1800.02 1334.26  Z" fill="#009af9" fill-rule="evenodd" fill-opacity="1"/>
<polyline clip-path="url(#clip052)" style="stroke:#000000; stroke-linecap:round; stroke-linejoin:round; stroke-width:4; stroke-opacity:1; fill:none" points="1800.02,1334.26 1800.02,1486.45 1925.31,1486.45 1925.31,1334.26 1800.02,1334.26 "/>
<path clip-path="url(#clip052)" d="M1956.64 1193.73 L1956.64 1486.45 L2081.93 1486.45 L2081.93 1193.73 L1956.64 1193.73 L1956.64 1193.73  Z" fill="#009af9" fill-rule="evenodd" fill-opacity="1"/>
<polyline clip-path="url(#clip052)" style="stroke:#000000; stroke-linecap:round; stroke-linejoin:round; stroke-width:4; stroke-opacity:1; fill:none" points="1956.64,1193.73 1956.64,1486.45 2081.93,1486.45 2081.93,1193.73 1956.64,1193.73 "/>
<path clip-path="url(#clip052)" d="M2113.25 1417.11 L2113.25 1486.45 L2238.55 1486.45 L2238.55 1417.11 L2113.25 1417.11 L2113.25 1417.11  Z" fill="#009af9" fill-rule="evenodd" fill-opacity="1"/>
<polyline clip-path="url(#clip052)" style="stroke:#000000; stroke-linecap:round; stroke-linejoin:round; stroke-width:4; stroke-opacity:1; fill:none" points="2113.25,1417.11 2113.25,1486.45 2238.55,1486.45 2238.55,1417.11 2113.25,1417.11 "/>
<circle clip-path="url(#clip052)" style="fill:#009af9; stroke:none; fill-opacity:0" cx="453.13" cy="67.3767" r="2"/>
<circle clip-path="url(#clip052)" style="fill:#009af9; stroke:none; fill-opacity:0" cx="609.745" cy="585.745" r="2"/>
<circle clip-path="url(#clip052)" style="fill:#009af9; stroke:none; fill-opacity:0" cx="766.361" cy="950.708" r="2"/>
<circle clip-path="url(#clip052)" style="fill:#009af9; stroke:none; fill-opacity:0" cx="922.976" cy="821.741" r="2"/>
<circle clip-path="url(#clip052)" style="fill:#009af9; stroke:none; fill-opacity:0" cx="1079.59" cy="766.938" r="2"/>
<circle clip-path="url(#clip052)" style="fill:#009af9; stroke:none; fill-opacity:0" cx="1236.21" cy="1187.51" r="2"/>
<circle clip-path="url(#clip052)" style="fill:#009af9; stroke:none; fill-opacity:0" cx="1392.82" cy="435.983" r="2"/>
<circle clip-path="url(#clip052)" style="fill:#009af9; stroke:none; fill-opacity:0" cx="1549.44" cy="1196.42" r="2"/>
<circle clip-path="url(#clip052)" style="fill:#009af9; stroke:none; fill-opacity:0" cx="1706.05" cy="1365.62" r="2"/>
<circle clip-path="url(#clip052)" style="fill:#009af9; stroke:none; fill-opacity:0" cx="1862.67" cy="1334.26" r="2"/>
<circle clip-path="url(#clip052)" style="fill:#009af9; stroke:none; fill-opacity:0" cx="2019.28" cy="1193.73" r="2"/>
<circle clip-path="url(#clip052)" style="fill:#009af9; stroke:none; fill-opacity:0" cx="2175.9" cy="1417.11" r="2"/>
<path clip-path="url(#clip052)" d="M390.484 743.787 L390.484 1486.45 L515.776 1486.45 L515.776 743.787 L390.484 743.787 L390.484 743.787  Z" fill="#e26f46" fill-rule="evenodd" fill-opacity="1"/>
<polyline clip-path="url(#clip052)" style="stroke:#000000; stroke-linecap:round; stroke-linejoin:round; stroke-width:4; stroke-opacity:1; fill:none" points="390.484,743.787 390.484,1486.45 515.776,1486.45 515.776,743.787 390.484,743.787 "/>
<path clip-path="url(#clip052)" d="M547.099 620.195 L547.099 1486.45 L672.391 1486.45 L672.391 620.195 L547.099 620.195 L547.099 620.195  Z" fill="#e26f46" fill-rule="evenodd" fill-opacity="1"/>
<polyline clip-path="url(#clip052)" style="stroke:#000000; stroke-linecap:round; stroke-linejoin:round; stroke-width:4; stroke-opacity:1; fill:none" points="547.099,620.195 547.099,1486.45 672.391,1486.45 672.391,620.195 547.099,620.195 "/>
<path clip-path="url(#clip052)" d="M703.715 214.414 L703.715 1486.45 L829.007 1486.45 L829.007 214.414 L703.715 214.414 L703.715 214.414  Z" fill="#e26f46" fill-rule="evenodd" fill-opacity="1"/>
<polyline clip-path="url(#clip052)" style="stroke:#000000; stroke-linecap:round; stroke-linejoin:round; stroke-width:4; stroke-opacity:1; fill:none" points="703.715,214.414 703.715,1486.45 829.007,1486.45 829.007,214.414 703.715,214.414 "/>
<path clip-path="url(#clip052)" d="M860.33 110.108 L860.33 1486.45 L985.622 1486.45 L985.622 110.108 L860.33 110.108 L860.33 110.108  Z" fill="#e26f46" fill-rule="evenodd" fill-opacity="1"/>
<polyline clip-path="url(#clip052)" style="stroke:#000000; stroke-linecap:round; stroke-linejoin:round; stroke-width:4; stroke-opacity:1; fill:none" points="860.33,110.108 860.33,1486.45 985.622,1486.45 985.622,110.108 860.33,110.108 "/>
<path clip-path="url(#clip052)" d="M1016.95 158.801 L1016.95 1486.45 L1142.24 1486.45 L1142.24 158.801 L1016.95 158.801 L1016.95 158.801  Z" fill="#e26f46" fill-rule="evenodd" fill-opacity="1"/>
<polyline clip-path="url(#clip052)" style="stroke:#000000; stroke-linecap:round; stroke-linejoin:round; stroke-width:4; stroke-opacity:1; fill:none" points="1016.95,158.801 1016.95,1486.45 1142.24,1486.45 1142.24,158.801 1016.95,158.801 "/>
<path clip-path="url(#clip052)" d="M1173.56 299.95 L1173.56 1486.45 L1298.85 1486.45 L1298.85 299.95 L1173.56 299.95 L1173.56 299.95  Z" fill="#e26f46" fill-rule="evenodd" fill-opacity="1"/>
<polyline clip-path="url(#clip052)" style="stroke:#000000; stroke-linecap:round; stroke-linejoin:round; stroke-width:4; stroke-opacity:1; fill:none" points="1173.56,299.95 1173.56,1486.45 1298.85,1486.45 1298.85,299.95 1173.56,299.95 "/>
<path clip-path="url(#clip052)" d="M1330.18 801.977 L1330.18 1486.45 L1455.47 1486.45 L1455.47 801.977 L1330.18 801.977 L1330.18 801.977  Z" fill="#e26f46" fill-rule="evenodd" fill-opacity="1"/>
<polyline clip-path="url(#clip052)" style="stroke:#000000; stroke-linecap:round; stroke-linejoin:round; stroke-width:4; stroke-opacity:1; fill:none" points="1330.18,801.977 1330.18,1486.45 1455.47,1486.45 1455.47,801.977 1330.18,801.977 "/>
<path clip-path="url(#clip052)" d="M1486.79 1140.18 L1486.79 1486.45 L1612.08 1486.45 L1612.08 1140.18 L1486.79 1140.18 L1486.79 1140.18  Z" fill="#e26f46" fill-rule="evenodd" fill-opacity="1"/>
<polyline clip-path="url(#clip052)" style="stroke:#000000; stroke-linecap:round; stroke-linejoin:round; stroke-width:4; stroke-opacity:1; fill:none" points="1486.79,1140.18 1486.79,1486.45 1612.08,1486.45 1612.08,1140.18 1486.79,1140.18 "/>
<path clip-path="url(#clip052)" d="M1643.41 1265.43 L1643.41 1486.45 L1768.7 1486.45 L1768.7 1265.43 L1643.41 1265.43 L1643.41 1265.43  Z" fill="#e26f46" fill-rule="evenodd" fill-opacity="1"/>
<polyline clip-path="url(#clip052)" style="stroke:#000000; stroke-linecap:round; stroke-linejoin:round; stroke-width:4; stroke-opacity:1; fill:none" points="1643.41,1265.43 1643.41,1486.45 1768.7,1486.45 1768.7,1265.43 1643.41,1265.43 "/>
<path clip-path="url(#clip052)" d="M1800.02 1255.75 L1800.02 1486.45 L1925.31 1486.45 L1925.31 1255.75 L1800.02 1255.75 L1800.02 1255.75  Z" fill="#e26f46" fill-rule="evenodd" fill-opacity="1"/>
<polyline clip-path="url(#clip052)" style="stroke:#000000; stroke-linecap:round; stroke-linejoin:round; stroke-width:4; stroke-opacity:1; fill:none" points="1800.02,1255.75 1800.02,1486.45 1925.31,1486.45 1925.31,1255.75 1800.02,1255.75 "/>
<path clip-path="url(#clip052)" d="M1956.64 1156.56 L1956.64 1486.45 L2081.93 1486.45 L2081.93 1156.56 L1956.64 1156.56 L1956.64 1156.56  Z" fill="#e26f46" fill-rule="evenodd" fill-opacity="1"/>
<polyline clip-path="url(#clip052)" style="stroke:#000000; stroke-linecap:round; stroke-linejoin:round; stroke-width:4; stroke-opacity:1; fill:none" points="1956.64,1156.56 1956.64,1486.45 2081.93,1486.45 2081.93,1156.56 1956.64,1156.56 "/>
<path clip-path="url(#clip052)" d="M2113.25 975.515 L2113.25 1486.45 L2238.55 1486.45 L2238.55 975.515 L2113.25 975.515 L2113.25 975.515  Z" fill="#e26f46" fill-rule="evenodd" fill-opacity="1"/>
<polyline clip-path="url(#clip052)" style="stroke:#000000; stroke-linecap:round; stroke-linejoin:round; stroke-width:4; stroke-opacity:1; fill:none" points="2113.25,975.515 2113.25,1486.45 2238.55,1486.45 2238.55,975.515 2113.25,975.515 "/>
<circle clip-path="url(#clip052)" style="fill:#e26f46; stroke:none; fill-opacity:0" cx="453.13" cy="743.787" r="2"/>
<circle clip-path="url(#clip052)" style="fill:#e26f46; stroke:none; fill-opacity:0" cx="609.745" cy="620.195" r="2"/>
<circle clip-path="url(#clip052)" style="fill:#e26f46; stroke:none; fill-opacity:0" cx="766.361" cy="214.414" r="2"/>
<circle clip-path="url(#clip052)" style="fill:#e26f46; stroke:none; fill-opacity:0" cx="922.976" cy="110.108" r="2"/>
<circle clip-path="url(#clip052)" style="fill:#e26f46; stroke:none; fill-opacity:0" cx="1079.59" cy="158.801" r="2"/>
<circle clip-path="url(#clip052)" style="fill:#e26f46; stroke:none; fill-opacity:0" cx="1236.21" cy="299.95" r="2"/>
<circle clip-path="url(#clip052)" style="fill:#e26f46; stroke:none; fill-opacity:0" cx="1392.82" cy="801.977" r="2"/>
<circle clip-path="url(#clip052)" style="fill:#e26f46; stroke:none; fill-opacity:0" cx="1549.44" cy="1140.18" r="2"/>
<circle clip-path="url(#clip052)" style="fill:#e26f46; stroke:none; fill-opacity:0" cx="1706.05" cy="1265.43" r="2"/>
<circle clip-path="url(#clip052)" style="fill:#e26f46; stroke:none; fill-opacity:0" cx="1862.67" cy="1255.75" r="2"/>
<circle clip-path="url(#clip052)" style="fill:#e26f46; stroke:none; fill-opacity:0" cx="2019.28" cy="1156.56" r="2"/>
<circle clip-path="url(#clip052)" style="fill:#e26f46; stroke:none; fill-opacity:0" cx="2175.9" cy="975.515" r="2"/>
<path clip-path="url(#clip052)" d="M390.484 119.493 L390.484 1486.45 L515.776 1486.45 L515.776 119.493 L390.484 119.493 L390.484 119.493  Z" fill="#3da44d" fill-rule="evenodd" fill-opacity="1"/>
<polyline clip-path="url(#clip052)" style="stroke:#000000; stroke-linecap:round; stroke-linejoin:round; stroke-width:4; stroke-opacity:1; fill:none" points="390.484,119.493 390.484,1486.45 515.776,1486.45 515.776,119.493 390.484,119.493 "/>
<path clip-path="url(#clip052)" d="M547.099 302.453 L547.099 1486.45 L672.391 1486.45 L672.391 302.453 L547.099 302.453 L547.099 302.453  Z" fill="#3da44d" fill-rule="evenodd" fill-opacity="1"/>
<polyline clip-path="url(#clip052)" style="stroke:#000000; stroke-linecap:round; stroke-linejoin:round; stroke-width:4; stroke-opacity:1; fill:none" points="547.099,302.453 547.099,1486.45 672.391,1486.45 672.391,302.453 547.099,302.453 "/>
<path clip-path="url(#clip052)" d="M703.715 105.029 L703.715 1486.45 L829.007 1486.45 L829.007 105.029 L703.715 105.029 L703.715 105.029  Z" fill="#3da44d" fill-rule="evenodd" fill-opacity="1"/>
<polyline clip-path="url(#clip052)" style="stroke:#000000; stroke-linecap:round; stroke-linejoin:round; stroke-width:4; stroke-opacity:1; fill:none" points="703.715,105.029 703.715,1486.45 829.007,1486.45 829.007,105.029 703.715,105.029 "/>
<path clip-path="url(#clip052)" d="M860.33 47.2441 L860.33 1486.45 L985.622 1486.45 L985.622 47.2441 L860.33 47.2441 L860.33 47.2441  Z" fill="#3da44d" fill-rule="evenodd" fill-opacity="1"/>
<polyline clip-path="url(#clip052)" style="stroke:#000000; stroke-linecap:round; stroke-linejoin:round; stroke-width:4; stroke-opacity:1; fill:none" points="860.33,47.2441 860.33,1486.45 985.622,1486.45 985.622,47.2441 860.33,47.2441 "/>
<path clip-path="url(#clip052)" d="M1016.95 262.887 L1016.95 1486.45 L1142.24 1486.45 L1142.24 262.887 L1016.95 262.887 L1016.95 262.887  Z" fill="#3da44d" fill-rule="evenodd" fill-opacity="1"/>
<polyline clip-path="url(#clip052)" style="stroke:#000000; stroke-linecap:round; stroke-linejoin:round; stroke-width:4; stroke-opacity:1; fill:none" points="1016.95,262.887 1016.95,1486.45 1142.24,1486.45 1142.24,262.887 1016.95,262.887 "/>
<path clip-path="url(#clip052)" d="M1173.56 630.022 L1173.56 1486.45 L1298.85 1486.45 L1298.85 630.022 L1173.56 630.022 L1173.56 630.022  Z" fill="#3da44d" fill-rule="evenodd" fill-opacity="1"/>
<polyline clip-path="url(#clip052)" style="stroke:#000000; stroke-linecap:round; stroke-linejoin:round; stroke-width:4; stroke-opacity:1; fill:none" points="1173.56,630.022 1173.56,1486.45 1298.85,1486.45 1298.85,630.022 1173.56,630.022 "/>
<path clip-path="url(#clip052)" d="M1330.18 870.435 L1330.18 1486.45 L1455.47 1486.45 L1455.47 870.435 L1330.18 870.435 L1330.18 870.435  Z" fill="#3da44d" fill-rule="evenodd" fill-opacity="1"/>
<polyline clip-path="url(#clip052)" style="stroke:#000000; stroke-linecap:round; stroke-linejoin:round; stroke-width:4; stroke-opacity:1; fill:none" points="1330.18,870.435 1330.18,1486.45 1455.47,1486.45 1455.47,870.435 1330.18,870.435 "/>
<path clip-path="url(#clip052)" d="M1486.79 1287.29 L1486.79 1486.45 L1612.08 1486.45 L1612.08 1287.29 L1486.79 1287.29 L1486.79 1287.29  Z" fill="#3da44d" fill-rule="evenodd" fill-opacity="1"/>
<polyline clip-path="url(#clip052)" style="stroke:#000000; stroke-linecap:round; stroke-linejoin:round; stroke-width:4; stroke-opacity:1; fill:none" points="1486.79,1287.29 1486.79,1486.45 1612.08,1486.45 1612.08,1287.29 1486.79,1287.29 "/>
<path clip-path="url(#clip052)" d="M1643.41 1360.02 L1643.41 1486.45 L1768.7 1486.45 L1768.7 1360.02 L1643.41 1360.02 L1643.41 1360.02  Z" fill="#3da44d" fill-rule="evenodd" fill-opacity="1"/>
<polyline clip-path="url(#clip052)" style="stroke:#000000; stroke-linecap:round; stroke-linejoin:round; stroke-width:4; stroke-opacity:1; fill:none" points="1643.41,1360.02 1643.41,1486.45 1768.7,1486.45 1768.7,1360.02 1643.41,1360.02 "/>
<path clip-path="url(#clip052)" d="M1800.02 1263.7 L1800.02 1486.45 L1925.31 1486.45 L1925.31 1263.7 L1800.02 1263.7 L1800.02 1263.7  Z" fill="#3da44d" fill-rule="evenodd" fill-opacity="1"/>
<polyline clip-path="url(#clip052)" style="stroke:#000000; stroke-linecap:round; stroke-linejoin:round; stroke-width:4; stroke-opacity:1; fill:none" points="1800.02,1263.7 1800.02,1486.45 1925.31,1486.45 1925.31,1263.7 1800.02,1263.7 "/>
<path clip-path="url(#clip052)" d="M1956.64 1014.42 L1956.64 1486.45 L2081.93 1486.45 L2081.93 1014.42 L1956.64 1014.42 L1956.64 1014.42  Z" fill="#3da44d" fill-rule="evenodd" fill-opacity="1"/>
<polyline clip-path="url(#clip052)" style="stroke:#000000; stroke-linecap:round; stroke-linejoin:round; stroke-width:4; stroke-opacity:1; fill:none" points="1956.64,1014.42 1956.64,1486.45 2081.93,1486.45 2081.93,1014.42 1956.64,1014.42 "/>
<path clip-path="url(#clip052)" d="M2113.25 627.703 L2113.25 1486.45 L2238.55 1486.45 L2238.55 627.703 L2113.25 627.703 L2113.25 627.703  Z" fill="#3da44d" fill-rule="evenodd" fill-opacity="1"/>
<polyline clip-path="url(#clip052)" style="stroke:#000000; stroke-linecap:round; stroke-linejoin:round; stroke-width:4; stroke-opacity:1; fill:none" points="2113.25,627.703 2113.25,1486.45 2238.55,1486.45 2238.55,627.703 2113.25,627.703 "/>
<circle clip-path="url(#clip052)" style="fill:#3da44d; stroke:none; fill-opacity:0" cx="453.13" cy="119.493" r="2"/>
<circle clip-path="url(#clip052)" style="fill:#3da44d; stroke:none; fill-opacity:0" cx="609.745" cy="302.453" r="2"/>
<circle clip-path="url(#clip052)" style="fill:#3da44d; stroke:none; fill-opacity:0" cx="766.361" cy="105.029" r="2"/>
<circle clip-path="url(#clip052)" style="fill:#3da44d; stroke:none; fill-opacity:0" cx="922.976" cy="47.2441" r="2"/>
<circle clip-path="url(#clip052)" style="fill:#3da44d; stroke:none; fill-opacity:0" cx="1079.59" cy="262.887" r="2"/>
<circle clip-path="url(#clip052)" style="fill:#3da44d; stroke:none; fill-opacity:0" cx="1236.21" cy="630.022" r="2"/>
<circle clip-path="url(#clip052)" style="fill:#3da44d; stroke:none; fill-opacity:0" cx="1392.82" cy="870.435" r="2"/>
<circle clip-path="url(#clip052)" style="fill:#3da44d; stroke:none; fill-opacity:0" cx="1549.44" cy="1287.29" r="2"/>
<circle clip-path="url(#clip052)" style="fill:#3da44d; stroke:none; fill-opacity:0" cx="1706.05" cy="1360.02" r="2"/>
<circle clip-path="url(#clip052)" style="fill:#3da44d; stroke:none; fill-opacity:0" cx="1862.67" cy="1263.7" r="2"/>
<circle clip-path="url(#clip052)" style="fill:#3da44d; stroke:none; fill-opacity:0" cx="2019.28" cy="1014.42" r="2"/>
<circle clip-path="url(#clip052)" style="fill:#3da44d; stroke:none; fill-opacity:0" cx="2175.9" cy="627.703" r="2"/>
<path clip-path="url(#clip050)" d="M1817.24 302.578 L2283.54 302.578 L2283.54 95.2176 L1817.24 95.2176  Z" fill="#ffffff" fill-rule="evenodd" fill-opacity="1"/>
<polyline clip-path="url(#clip050)" style="stroke:#000000; stroke-linecap:round; stroke-linejoin:round; stroke-width:4; stroke-opacity:1; fill:none" points="1817.24,302.578 2283.54,302.578 2283.54,95.2176 1817.24,95.2176 1817.24,302.578 "/>
<path clip-path="url(#clip050)" d="M1840.31 167.794 L1978.74 167.794 L1978.74 126.322 L1840.31 126.322 L1840.31 167.794  Z" fill="#009af9" fill-rule="evenodd" fill-opacity="1"/>
<polyline clip-path="url(#clip050)" style="stroke:#000000; stroke-linecap:round; stroke-linejoin:round; stroke-width:4; stroke-opacity:1; fill:none" points="1840.31,167.794 1978.74,167.794 1978.74,126.322 1840.31,126.322 1840.31,167.794 "/>
<path clip-path="url(#clip050)" d="M2022.16 143.389 Q2023.76 140.518 2025.98 139.153 Q2028.2 137.787 2031.21 137.787 Q2035.26 137.787 2037.46 140.634 Q2039.66 143.458 2039.66 148.689 L2039.66 164.338 L2035.38 164.338 L2035.38 148.828 Q2035.38 145.102 2034.06 143.296 Q2032.74 141.49 2030.03 141.49 Q2026.72 141.49 2024.8 143.69 Q2022.88 145.889 2022.88 149.685 L2022.88 164.338 L2018.59 164.338 L2018.59 148.828 Q2018.59 145.078 2017.27 143.296 Q2015.96 141.49 2013.2 141.49 Q2009.94 141.49 2008.02 143.713 Q2006.09 145.912 2006.09 149.685 L2006.09 164.338 L2001.81 164.338 L2001.81 138.412 L2006.09 138.412 L2006.09 142.44 Q2007.55 140.055 2009.59 138.921 Q2011.63 137.787 2014.43 137.787 Q2017.25 137.787 2019.22 139.222 Q2021.21 140.657 2022.16 143.389 Z" fill="#000000" fill-rule="nonzero" fill-opacity="1" /><path clip-path="url(#clip050)" d="M2070.33 150.31 L2070.33 152.393 L2050.75 152.393 Q2051.02 156.791 2053.39 159.106 Q2055.77 161.398 2060.01 161.398 Q2062.46 161.398 2064.75 160.796 Q2067.07 160.194 2069.33 158.99 L2069.33 163.018 Q2067.04 163.99 2064.64 164.5 Q2062.23 165.009 2059.75 165.009 Q2053.55 165.009 2049.91 161.398 Q2046.3 157.787 2046.3 151.629 Q2046.3 145.264 2049.73 141.537 Q2053.18 137.787 2059.01 137.787 Q2064.24 137.787 2067.27 141.166 Q2070.33 144.523 2070.33 150.31 M2066.07 149.06 Q2066.02 145.565 2064.1 143.481 Q2062.2 141.398 2059.06 141.398 Q2055.49 141.398 2053.34 143.412 Q2051.21 145.426 2050.89 149.083 L2066.07 149.06 Z" fill="#000000" fill-rule="nonzero" fill-opacity="1" /><path clip-path="url(#clip050)" d="M2089.1 151.305 Q2083.94 151.305 2081.95 152.486 Q2079.96 153.666 2079.96 156.514 Q2079.96 158.782 2081.44 160.125 Q2082.95 161.444 2085.52 161.444 Q2089.06 161.444 2091.19 158.944 Q2093.34 156.421 2093.34 152.254 L2093.34 151.305 L2089.1 151.305 M2097.6 149.546 L2097.6 164.338 L2093.34 164.338 L2093.34 160.402 Q2091.88 162.763 2089.7 163.898 Q2087.53 165.009 2084.38 165.009 Q2080.4 165.009 2078.04 162.787 Q2075.7 160.541 2075.7 156.791 Q2075.7 152.416 2078.62 150.194 Q2081.56 147.972 2087.37 147.972 L2093.34 147.972 L2093.34 147.555 Q2093.34 144.615 2091.39 143.018 Q2089.47 141.398 2085.98 141.398 Q2083.76 141.398 2081.65 141.93 Q2079.54 142.463 2077.6 143.527 L2077.6 139.592 Q2079.94 138.69 2082.14 138.25 Q2084.33 137.787 2086.42 137.787 Q2092.04 137.787 2094.82 140.703 Q2097.6 143.62 2097.6 149.546 Z" fill="#000000" fill-rule="nonzero" fill-opacity="1" /><path clip-path="url(#clip050)" d="M2122.9 139.176 L2122.9 143.203 Q2121.09 142.277 2119.15 141.815 Q2117.2 141.352 2115.12 141.352 Q2111.95 141.352 2110.35 142.324 Q2108.78 143.296 2108.78 145.24 Q2108.78 146.722 2109.91 147.578 Q2111.05 148.412 2114.47 149.176 L2115.93 149.5 Q2120.47 150.472 2122.37 152.254 Q2124.29 154.014 2124.29 157.185 Q2124.29 160.796 2121.42 162.902 Q2118.57 165.009 2113.57 165.009 Q2111.49 165.009 2109.22 164.592 Q2106.97 164.199 2104.47 163.388 L2104.47 158.99 Q2106.83 160.217 2109.13 160.842 Q2111.42 161.444 2113.66 161.444 Q2116.67 161.444 2118.29 160.426 Q2119.91 159.384 2119.91 157.509 Q2119.91 155.773 2118.73 154.847 Q2117.58 153.921 2113.62 153.064 L2112.14 152.717 Q2108.18 151.884 2106.42 150.171 Q2104.66 148.435 2104.66 145.426 Q2104.66 141.768 2107.25 139.778 Q2109.84 137.787 2114.61 137.787 Q2116.97 137.787 2119.06 138.134 Q2121.14 138.481 2122.9 139.176 Z" fill="#000000" fill-rule="nonzero" fill-opacity="1" /><path clip-path="url(#clip050)" d="M2131.07 128.319 L2135.33 128.319 L2135.33 164.338 L2131.07 164.338 L2131.07 128.319 Z" fill="#000000" fill-rule="nonzero" fill-opacity="1" /><path clip-path="url(#clip050)" d="M2166.42 150.31 L2166.42 152.393 L2146.83 152.393 Q2147.11 156.791 2149.47 159.106 Q2151.86 161.398 2156.09 161.398 Q2158.55 161.398 2160.84 160.796 Q2163.15 160.194 2165.42 158.99 L2165.42 163.018 Q2163.13 163.99 2160.72 164.5 Q2158.32 165.009 2155.84 165.009 Q2149.64 165.009 2146 161.398 Q2142.39 157.787 2142.39 151.629 Q2142.39 145.264 2145.82 141.537 Q2149.26 137.787 2155.1 137.787 Q2160.33 137.787 2163.36 141.166 Q2166.42 144.523 2166.42 150.31 M2162.16 149.06 Q2162.11 145.565 2160.19 143.481 Q2158.29 141.398 2155.14 141.398 Q2151.58 141.398 2149.43 143.412 Q2147.3 145.426 2146.97 149.083 L2162.16 149.06 Z" fill="#000000" fill-rule="nonzero" fill-opacity="1" /><path clip-path="url(#clip050)" d="M2189.94 139.176 L2189.94 143.203 Q2188.13 142.277 2186.19 141.815 Q2184.24 141.352 2182.16 141.352 Q2178.99 141.352 2177.39 142.324 Q2175.82 143.296 2175.82 145.24 Q2175.82 146.722 2176.95 147.578 Q2178.08 148.412 2181.51 149.176 L2182.97 149.5 Q2187.51 150.472 2189.4 152.254 Q2191.32 154.014 2191.32 157.185 Q2191.32 160.796 2188.45 162.902 Q2185.61 165.009 2180.61 165.009 Q2178.52 165.009 2176.26 164.592 Q2174.01 164.199 2171.51 163.388 L2171.51 158.99 Q2173.87 160.217 2176.16 160.842 Q2178.45 161.444 2180.7 161.444 Q2183.71 161.444 2185.33 160.426 Q2186.95 159.384 2186.95 157.509 Q2186.95 155.773 2185.77 154.847 Q2184.61 153.921 2180.65 153.064 L2179.17 152.717 Q2175.21 151.884 2173.45 150.171 Q2171.7 148.435 2171.7 145.426 Q2171.7 141.768 2174.29 139.778 Q2176.88 137.787 2181.65 137.787 Q2184.01 137.787 2186.09 138.134 Q2188.18 138.481 2189.94 139.176 Z" fill="#000000" fill-rule="nonzero" fill-opacity="1" /><path clip-path="url(#clip050)" d="M1840.31 219.634 L1978.74 219.634 L1978.74 178.162 L1840.31 178.162 L1840.31 219.634  Z" fill="#e26f46" fill-rule="evenodd" fill-opacity="1"/>
<polyline clip-path="url(#clip050)" style="stroke:#000000; stroke-linecap:round; stroke-linejoin:round; stroke-width:4; stroke-opacity:1; fill:none" points="1840.31,219.634 1978.74,219.634 1978.74,178.162 1840.31,178.162 1840.31,219.634 "/>
<path clip-path="url(#clip050)" d="M2022.16 195.229 Q2023.76 192.358 2025.98 190.993 Q2028.2 189.627 2031.21 189.627 Q2035.26 189.627 2037.46 192.474 Q2039.66 195.298 2039.66 200.529 L2039.66 216.178 L2035.38 216.178 L2035.38 200.668 Q2035.38 196.942 2034.06 195.136 Q2032.74 193.33 2030.03 193.33 Q2026.72 193.33 2024.8 195.53 Q2022.88 197.729 2022.88 201.525 L2022.88 216.178 L2018.59 216.178 L2018.59 200.668 Q2018.59 196.918 2017.27 195.136 Q2015.96 193.33 2013.2 193.33 Q2009.94 193.33 2008.02 195.553 Q2006.09 197.752 2006.09 201.525 L2006.09 216.178 L2001.81 216.178 L2001.81 190.252 L2006.09 190.252 L2006.09 194.28 Q2007.55 191.895 2009.59 190.761 Q2011.63 189.627 2014.43 189.627 Q2017.25 189.627 2019.22 191.062 Q2021.21 192.497 2022.16 195.229 Z" fill="#000000" fill-rule="nonzero" fill-opacity="1" /><path clip-path="url(#clip050)" d="M2047.71 205.946 L2047.71 190.252 L2051.97 190.252 L2051.97 205.784 Q2051.97 209.465 2053.41 211.316 Q2054.84 213.145 2057.71 213.145 Q2061.16 213.145 2063.15 210.946 Q2065.17 208.747 2065.17 204.951 L2065.17 190.252 L2069.43 190.252 L2069.43 216.178 L2065.17 216.178 L2065.17 212.196 Q2063.62 214.557 2061.56 215.715 Q2059.52 216.849 2056.81 216.849 Q2052.34 216.849 2050.03 214.071 Q2047.71 211.293 2047.71 205.946 M2058.43 189.627 L2058.43 189.627 Z" fill="#000000" fill-rule="nonzero" fill-opacity="1" /><path clip-path="url(#clip050)" d="M2098.39 195.229 Q2099.98 192.358 2102.2 190.993 Q2104.43 189.627 2107.44 189.627 Q2111.49 189.627 2113.69 192.474 Q2115.89 195.298 2115.89 200.529 L2115.89 216.178 L2111.6 216.178 L2111.6 200.668 Q2111.6 196.942 2110.28 195.136 Q2108.96 193.33 2106.26 193.33 Q2102.95 193.33 2101.02 195.53 Q2099.1 197.729 2099.1 201.525 L2099.1 216.178 L2094.82 216.178 L2094.82 200.668 Q2094.82 196.918 2093.5 195.136 Q2092.18 193.33 2089.43 193.33 Q2086.16 193.33 2084.24 195.553 Q2082.32 197.752 2082.32 201.525 L2082.32 216.178 L2078.04 216.178 L2078.04 190.252 L2082.32 190.252 L2082.32 194.28 Q2083.78 191.895 2085.82 190.761 Q2087.85 189.627 2090.65 189.627 Q2093.48 189.627 2095.45 191.062 Q2097.44 192.497 2098.39 195.229 Z" fill="#000000" fill-rule="nonzero" fill-opacity="1" /><path clip-path="url(#clip050)" d="M2128.5 212.289 L2128.5 226.039 L2124.22 226.039 L2124.22 190.252 L2128.5 190.252 L2128.5 194.187 Q2129.84 191.872 2131.88 190.761 Q2133.94 189.627 2136.79 189.627 Q2141.51 189.627 2144.45 193.377 Q2147.41 197.127 2147.41 203.238 Q2147.41 209.349 2144.45 213.099 Q2141.51 216.849 2136.79 216.849 Q2133.94 216.849 2131.88 215.738 Q2129.84 214.603 2128.5 212.289 M2142.99 203.238 Q2142.99 198.539 2141.05 195.877 Q2139.13 193.192 2135.75 193.192 Q2132.37 193.192 2130.42 195.877 Q2128.5 198.539 2128.5 203.238 Q2128.5 207.937 2130.42 210.622 Q2132.37 213.284 2135.75 213.284 Q2139.13 213.284 2141.05 210.622 Q2142.99 207.937 2142.99 203.238 Z" fill="#000000" fill-rule="nonzero" fill-opacity="1" /><path clip-path="url(#clip050)" d="M2171 191.016 L2171 195.043 Q2169.2 194.117 2167.25 193.655 Q2165.31 193.192 2163.22 193.192 Q2160.05 193.192 2158.45 194.164 Q2156.88 195.136 2156.88 197.08 Q2156.88 198.562 2158.01 199.418 Q2159.15 200.252 2162.57 201.016 L2164.03 201.34 Q2168.57 202.312 2170.47 204.094 Q2172.39 205.854 2172.39 209.025 Q2172.39 212.636 2169.52 214.742 Q2166.67 216.849 2161.67 216.849 Q2159.59 216.849 2157.32 216.432 Q2155.07 216.039 2152.57 215.228 L2152.57 210.83 Q2154.94 212.057 2157.23 212.682 Q2159.52 213.284 2161.76 213.284 Q2164.77 213.284 2166.39 212.266 Q2168.01 211.224 2168.01 209.349 Q2168.01 207.613 2166.83 206.687 Q2165.68 205.761 2161.72 204.904 L2160.24 204.557 Q2156.28 203.724 2154.52 202.011 Q2152.76 200.275 2152.76 197.266 Q2152.76 193.608 2155.35 191.618 Q2157.95 189.627 2162.71 189.627 Q2165.07 189.627 2167.16 189.974 Q2169.24 190.321 2171 191.016 Z" fill="#000000" fill-rule="nonzero" fill-opacity="1" /><path clip-path="url(#clip050)" d="M1840.31 271.474 L1978.74 271.474 L1978.74 230.002 L1840.31 230.002 L1840.31 271.474  Z" fill="#3da44d" fill-rule="evenodd" fill-opacity="1"/>
<polyline clip-path="url(#clip050)" style="stroke:#000000; stroke-linecap:round; stroke-linejoin:round; stroke-width:4; stroke-opacity:1; fill:none" points="1840.31,271.474 1978.74,271.474 1978.74,230.002 1840.31,230.002 1840.31,271.474 "/>
<path clip-path="url(#clip050)" d="M2022.32 243.087 L2022.32 247.069 Q2020.52 246.073 2018.69 245.587 Q2016.88 245.078 2015.03 245.078 Q2010.89 245.078 2008.59 247.717 Q2006.3 250.332 2006.3 255.078 Q2006.3 259.823 2008.59 262.462 Q2010.89 265.078 2015.03 265.078 Q2016.88 265.078 2018.69 264.592 Q2020.52 264.082 2022.32 263.087 L2022.32 267.022 Q2020.54 267.856 2018.62 268.272 Q2016.72 268.689 2014.57 268.689 Q2008.71 268.689 2005.26 265.008 Q2001.81 261.328 2001.81 255.078 Q2001.81 248.735 2005.28 245.101 Q2008.78 241.467 2014.84 241.467 Q2016.81 241.467 2018.69 241.883 Q2020.56 242.277 2022.32 243.087 Z" fill="#000000" fill-rule="nonzero" fill-opacity="1" /><path clip-path="url(#clip050)" d="M2051.28 252.369 L2051.28 268.018 L2047.02 268.018 L2047.02 252.508 Q2047.02 248.828 2045.58 246.999 Q2044.15 245.17 2041.28 245.17 Q2037.83 245.17 2035.84 247.37 Q2033.85 249.569 2033.85 253.365 L2033.85 268.018 L2029.57 268.018 L2029.57 231.999 L2033.85 231.999 L2033.85 246.12 Q2035.38 243.782 2037.44 242.624 Q2039.52 241.467 2042.23 241.467 Q2046.7 241.467 2048.99 244.245 Q2051.28 246.999 2051.28 252.369 Z" fill="#000000" fill-rule="nonzero" fill-opacity="1" /><path clip-path="url(#clip050)" d="M2059.77 242.092 L2064.03 242.092 L2064.03 268.018 L2059.77 268.018 L2059.77 242.092 M2059.77 231.999 L2064.03 231.999 L2064.03 237.393 L2059.77 237.393 L2059.77 231.999 Z" fill="#000000" fill-rule="nonzero" fill-opacity="1" /><path clip-path="url(#clip050)" d="M2091.6 243.087 L2091.6 247.069 Q2089.8 246.073 2087.97 245.587 Q2086.16 245.078 2084.31 245.078 Q2080.17 245.078 2077.88 247.717 Q2075.58 250.332 2075.58 255.078 Q2075.58 259.823 2077.88 262.462 Q2080.17 265.078 2084.31 265.078 Q2086.16 265.078 2087.97 264.592 Q2089.8 264.082 2091.6 263.087 L2091.6 267.022 Q2089.82 267.856 2087.9 268.272 Q2086 268.689 2083.85 268.689 Q2077.99 268.689 2074.54 265.008 Q2071.09 261.328 2071.09 255.078 Q2071.09 248.735 2074.57 245.101 Q2078.06 241.467 2084.13 241.467 Q2086.09 241.467 2087.97 241.883 Q2089.84 242.277 2091.6 243.087 Z" fill="#000000" fill-rule="nonzero" fill-opacity="1" /><path clip-path="url(#clip050)" d="M2098.85 231.999 L2103.13 231.999 L2103.13 253.272 L2115.84 242.092 L2121.28 242.092 L2107.53 254.221 L2121.86 268.018 L2116.3 268.018 L2103.13 255.356 L2103.13 268.018 L2098.85 268.018 L2098.85 231.999 Z" fill="#000000" fill-rule="nonzero" fill-opacity="1" /><path clip-path="url(#clip050)" d="M2146.95 253.99 L2146.95 256.073 L2127.37 256.073 Q2127.64 260.471 2130.01 262.786 Q2132.39 265.078 2136.63 265.078 Q2139.08 265.078 2141.37 264.476 Q2143.69 263.874 2145.95 262.67 L2145.95 266.698 Q2143.66 267.67 2141.26 268.18 Q2138.85 268.689 2136.37 268.689 Q2130.17 268.689 2126.53 265.078 Q2122.92 261.467 2122.92 255.309 Q2122.92 248.944 2126.35 245.217 Q2129.8 241.467 2135.63 241.467 Q2140.86 241.467 2143.89 244.846 Q2146.95 248.203 2146.95 253.99 M2142.69 252.74 Q2142.64 249.245 2140.72 247.161 Q2138.82 245.078 2135.68 245.078 Q2132.11 245.078 2129.96 247.092 Q2127.83 249.106 2127.51 252.763 L2142.69 252.74 Z" fill="#000000" fill-rule="nonzero" fill-opacity="1" /><path clip-path="url(#clip050)" d="M2175.49 252.369 L2175.49 268.018 L2171.23 268.018 L2171.23 252.508 Q2171.23 248.828 2169.8 246.999 Q2168.36 245.17 2165.49 245.17 Q2162.04 245.17 2160.05 247.37 Q2158.06 249.569 2158.06 253.365 L2158.06 268.018 L2153.78 268.018 L2153.78 242.092 L2158.06 242.092 L2158.06 246.12 Q2159.59 243.782 2161.65 242.624 Q2163.73 241.467 2166.44 241.467 Q2170.91 241.467 2173.2 244.245 Q2175.49 246.999 2175.49 252.369 Z" fill="#000000" fill-rule="nonzero" fill-opacity="1" /><path clip-path="url(#clip050)" d="M2188.85 237.3 L2188.85 250.286 L2194.73 250.286 Q2197.99 250.286 2199.77 248.596 Q2201.56 246.907 2201.56 243.782 Q2201.56 240.68 2199.77 238.99 Q2197.99 237.3 2194.73 237.3 L2188.85 237.3 M2184.17 233.458 L2194.73 233.458 Q2200.54 233.458 2203.5 236.096 Q2206.49 238.712 2206.49 243.782 Q2206.49 248.897 2203.5 251.513 Q2200.54 254.129 2194.73 254.129 L2188.85 254.129 L2188.85 268.018 L2184.17 268.018 L2184.17 233.458 Z" fill="#000000" fill-rule="nonzero" fill-opacity="1" /><path clip-path="url(#clip050)" d="M2220.93 245.078 Q2217.51 245.078 2215.51 247.763 Q2213.52 250.425 2213.52 255.078 Q2213.52 259.731 2215.49 262.416 Q2217.48 265.078 2220.93 265.078 Q2224.33 265.078 2226.32 262.393 Q2228.32 259.707 2228.32 255.078 Q2228.32 250.471 2226.32 247.786 Q2224.33 245.078 2220.93 245.078 M2220.93 241.467 Q2226.49 241.467 2229.66 245.078 Q2232.83 248.689 2232.83 255.078 Q2232.83 261.444 2229.66 265.078 Q2226.49 268.689 2220.93 268.689 Q2215.35 268.689 2212.18 265.078 Q2209.03 261.444 2209.03 255.078 Q2209.03 248.689 2212.18 245.078 Q2215.35 241.467 2220.93 241.467 Z" fill="#000000" fill-rule="nonzero" fill-opacity="1" /><path clip-path="url(#clip050)" d="M2259.98 242.092 L2250.61 254.707 L2260.47 268.018 L2255.44 268.018 L2247.9 257.832 L2240.35 268.018 L2235.33 268.018 L2245.4 254.453 L2236.19 242.092 L2241.21 242.092 L2248.08 251.328 L2254.96 242.092 L2259.98 242.092 Z" fill="#000000" fill-rule="nonzero" fill-opacity="1" /></svg>
