<?xml version="1.0" encoding="utf-8"?>
<svg xmlns="http://www.w3.org/2000/svg" xmlns:xlink="http://www.w3.org/1999/xlink" width="600" height="400" viewBox="0 0 2400 1600">
<defs>
  <clipPath id="clip950">
    <rect x="0" y="0" width="2400" height="1600"/>
  </clipPath>
</defs>
<path clip-path="url(#clip950)" d="M0 1600 L2400 1600 L2400 0 L0 0  Z" fill="#ffffff" fill-rule="evenodd" fill-opacity="1"/>
<defs>
  <clipPath id="clip951">
    <rect x="480" y="0" width="1681" height="1600"/>
  </clipPath>
</defs>
<path clip-path="url(#clip950)" d="M202.227 1423.18 L2352.76 1423.18 L2352.76 47.2441 L202.227 47.2441  Z" fill="#ffffff" fill-rule="evenodd" fill-opacity="1"/>
<defs>
  <clipPath id="clip952">
    <rect x="202" y="47" width="2152" height="1377"/>
  </clipPath>
</defs>
<polyline clip-path="url(#clip952)" style="stroke:#000000; stroke-linecap:round; stroke-linejoin:round; stroke-width:2; stroke-opacity:0.1; fill:none" points="219.775,1423.18 219.775,47.2441 "/>
<polyline clip-path="url(#clip952)" style="stroke:#000000; stroke-linecap:round; stroke-linejoin:round; stroke-width:2; stroke-opacity:0.1; fill:none" points="723.45,1423.18 723.45,47.2441 "/>
<polyline clip-path="url(#clip952)" style="stroke:#000000; stroke-linecap:round; stroke-linejoin:round; stroke-width:2; stroke-opacity:0.1; fill:none" points="1227.12,1423.18 1227.12,47.2441 "/>
<polyline clip-path="url(#clip952)" style="stroke:#000000; stroke-linecap:round; stroke-linejoin:round; stroke-width:2; stroke-opacity:0.1; fill:none" points="1730.8,1423.18 1730.8,47.2441 "/>
<polyline clip-path="url(#clip952)" style="stroke:#000000; stroke-linecap:round; stroke-linejoin:round; stroke-width:2; stroke-opacity:0.1; fill:none" points="2234.47,1423.18 2234.47,47.2441 "/>
<polyline clip-path="url(#clip952)" style="stroke:#000000; stroke-linecap:round; stroke-linejoin:round; stroke-width:2; stroke-opacity:0.1; fill:none" points="202.227,1423.18 2352.76,1423.18 "/>
<polyline clip-path="url(#clip952)" style="stroke:#000000; stroke-linecap:round; stroke-linejoin:round; stroke-width:2; stroke-opacity:0.1; fill:none" points="202.227,1061.09 2352.76,1061.09 "/>
<polyline clip-path="url(#clip952)" style="stroke:#000000; stroke-linecap:round; stroke-linejoin:round; stroke-width:2; stroke-opacity:0.1; fill:none" points="202.227,699.003 2352.76,699.003 "/>
<polyline clip-path="url(#clip952)" style="stroke:#000000; stroke-linecap:round; stroke-linejoin:round; stroke-width:2; stroke-opacity:0.1; fill:none" points="202.227,336.915 2352.76,336.915 "/>
<polyline clip-path="url(#clip950)" style="stroke:#000000; stroke-linecap:round; stroke-linejoin:round; stroke-width:4; stroke-opacity:1; fill:none" points="202.227,1423.18 2352.76,1423.18 "/>
<polyline clip-path="url(#clip950)" style="stroke:#000000; stroke-linecap:round; stroke-linejoin:round; stroke-width:4; stroke-opacity:1; fill:none" points="219.775,1423.18 219.775,1404.28 "/>
<polyline clip-path="url(#clip950)" style="stroke:#000000; stroke-linecap:round; stroke-linejoin:round; stroke-width:4; stroke-opacity:1; fill:none" points="723.45,1423.18 723.45,1404.28 "/>
<polyline clip-path="url(#clip950)" style="stroke:#000000; stroke-linecap:round; stroke-linejoin:round; stroke-width:4; stroke-opacity:1; fill:none" points="1227.12,1423.18 1227.12,1404.28 "/>
<polyline clip-path="url(#clip950)" style="stroke:#000000; stroke-linecap:round; stroke-linejoin:round; stroke-width:4; stroke-opacity:1; fill:none" points="1730.8,1423.18 1730.8,1404.28 "/>
<polyline clip-path="url(#clip950)" style="stroke:#000000; stroke-linecap:round; stroke-linejoin:round; stroke-width:4; stroke-opacity:1; fill:none" points="2234.47,1423.18 2234.47,1404.28 "/>
<path clip-path="url(#clip950)" d="M222.785 1455.09 L210.979 1473.54 L222.785 1473.54 L222.785 1455.09 M221.558 1451.02 L227.437 1451.02 L227.437 1473.54 L232.368 1473.54 L232.368 1477.43 L227.437 1477.43 L227.437 1485.58 L222.785 1485.58 L222.785 1477.43 L207.183 1477.43 L207.183 1472.92 L221.558 1451.02 Z" fill="#000000" fill-rule="nonzero" fill-opacity="1" /><path clip-path="url(#clip950)" d="M713.728 1451.02 L732.084 1451.02 L732.084 1454.96 L718.01 1454.96 L718.01 1463.43 Q719.029 1463.08 720.047 1462.92 Q721.066 1462.73 722.084 1462.73 Q727.871 1462.73 731.251 1465.9 Q734.63 1469.08 734.63 1474.49 Q734.63 1480.07 731.158 1483.17 Q727.686 1486.25 721.367 1486.25 Q719.191 1486.25 716.922 1485.88 Q714.677 1485.51 712.269 1484.77 L712.269 1480.07 Q714.353 1481.2 716.575 1481.76 Q718.797 1482.32 721.274 1482.32 Q725.279 1482.32 727.617 1480.21 Q729.954 1478.1 729.954 1474.49 Q729.954 1470.88 727.617 1468.77 Q725.279 1466.67 721.274 1466.67 Q719.399 1466.67 717.524 1467.08 Q715.672 1467.5 713.728 1468.38 L713.728 1451.02 Z" fill="#000000" fill-rule="nonzero" fill-opacity="1" /><path clip-path="url(#clip950)" d="M1227.53 1466.44 Q1224.38 1466.44 1222.53 1468.59 Q1220.7 1470.74 1220.7 1474.49 Q1220.7 1478.22 1222.53 1480.39 Q1224.38 1482.55 1227.53 1482.55 Q1230.68 1482.55 1232.51 1480.39 Q1234.36 1478.22 1234.36 1474.49 Q1234.36 1470.74 1232.51 1468.59 Q1230.68 1466.44 1227.53 1466.44 M1236.81 1451.78 L1236.81 1456.04 Q1235.05 1455.21 1233.25 1454.77 Q1231.46 1454.33 1229.71 1454.33 Q1225.08 1454.33 1222.62 1457.45 Q1220.19 1460.58 1219.84 1466.9 Q1221.21 1464.89 1223.27 1463.82 Q1225.33 1462.73 1227.81 1462.73 Q1233.02 1462.73 1236.02 1465.9 Q1239.06 1469.05 1239.06 1474.49 Q1239.06 1479.82 1235.91 1483.03 Q1232.76 1486.25 1227.53 1486.25 Q1221.53 1486.25 1218.36 1481.67 Q1215.19 1477.06 1215.19 1468.33 Q1215.19 1460.14 1219.08 1455.28 Q1222.97 1450.39 1229.52 1450.39 Q1231.28 1450.39 1233.06 1450.74 Q1234.87 1451.09 1236.81 1451.78 Z" fill="#000000" fill-rule="nonzero" fill-opacity="1" /><path clip-path="url(#clip950)" d="M1719.69 1451.02 L1741.91 1451.02 L1741.91 1453.01 L1729.36 1485.58 L1724.48 1485.58 L1736.28 1454.96 L1719.69 1454.96 L1719.69 1451.02 Z" fill="#000000" fill-rule="nonzero" fill-opacity="1" /><path clip-path="url(#clip950)" d="M2234.47 1469.17 Q2231.14 1469.17 2229.22 1470.95 Q2227.32 1472.73 2227.32 1475.86 Q2227.32 1478.98 2229.22 1480.77 Q2231.14 1482.55 2234.47 1482.55 Q2237.81 1482.55 2239.73 1480.77 Q2241.65 1478.96 2241.65 1475.86 Q2241.65 1472.73 2239.73 1470.95 Q2237.83 1469.17 2234.47 1469.17 M2229.8 1467.18 Q2226.79 1466.44 2225.1 1464.38 Q2223.43 1462.32 2223.43 1459.35 Q2223.43 1455.21 2226.37 1452.8 Q2229.33 1450.39 2234.47 1450.39 Q2239.64 1450.39 2242.57 1452.8 Q2245.51 1455.21 2245.51 1459.35 Q2245.51 1462.32 2243.82 1464.38 Q2242.16 1466.44 2239.17 1467.18 Q2242.55 1467.96 2244.43 1470.26 Q2246.32 1472.55 2246.32 1475.86 Q2246.32 1480.88 2243.25 1483.57 Q2240.19 1486.25 2234.47 1486.25 Q2228.76 1486.25 2225.68 1483.57 Q2222.62 1480.88 2222.62 1475.86 Q2222.62 1472.55 2224.52 1470.26 Q2226.42 1467.96 2229.8 1467.18 M2228.08 1459.79 Q2228.08 1462.48 2229.75 1463.98 Q2231.44 1465.49 2234.47 1465.49 Q2237.48 1465.49 2239.17 1463.98 Q2240.89 1462.48 2240.89 1459.79 Q2240.89 1457.11 2239.17 1455.6 Q2237.48 1454.1 2234.47 1454.1 Q2231.44 1454.1 2229.75 1455.6 Q2228.08 1457.11 2228.08 1459.79 Z" fill="#000000" fill-rule="nonzero" fill-opacity="1" /><path clip-path="url(#clip950)" d="M1127.85 1522.08 L1127.85 1528.35 Q1124.19 1526.6 1120.94 1525.74 Q1117.7 1524.88 1114.67 1524.88 Q1109.42 1524.88 1106.56 1526.92 Q1103.72 1528.96 1103.72 1532.71 Q1103.72 1535.87 1105.6 1537.49 Q1107.51 1539.08 1112.79 1540.07 L1116.68 1540.86 Q1123.87 1542.23 1127.28 1545.7 Q1130.71 1549.14 1130.71 1554.93 Q1130.71 1561.84 1126.07 1565.4 Q1121.45 1568.97 1112.51 1568.97 Q1109.13 1568.97 1105.32 1568.2 Q1101.53 1567.44 1097.45 1565.94 L1097.45 1559.32 Q1101.37 1561.52 1105.12 1562.63 Q1108.88 1563.75 1112.51 1563.75 Q1118.01 1563.75 1121.01 1561.58 Q1124 1559.42 1124 1555.41 Q1124 1551.91 1121.83 1549.93 Q1119.7 1547.96 1114.8 1546.97 L1110.89 1546.21 Q1103.69 1544.78 1100.48 1541.72 Q1097.26 1538.67 1097.26 1533.22 Q1097.26 1526.92 1101.69 1523.29 Q1106.14 1519.66 1113.94 1519.66 Q1117.28 1519.66 1120.75 1520.27 Q1124.22 1520.87 1127.85 1522.08 Z" fill="#000000" fill-rule="nonzero" fill-opacity="1" /><path clip-path="url(#clip950)" d="M1170.98 1548.76 L1170.98 1551.62 L1144.05 1551.62 Q1144.43 1557.67 1147.68 1560.85 Q1150.96 1564 1156.78 1564 Q1160.16 1564 1163.31 1563.17 Q1166.49 1562.35 1169.61 1560.69 L1169.61 1566.23 Q1166.46 1567.57 1163.15 1568.27 Q1159.84 1568.97 1156.43 1568.97 Q1147.9 1568.97 1142.9 1564 Q1137.94 1559.04 1137.94 1550.57 Q1137.94 1541.82 1142.65 1536.69 Q1147.39 1531.54 1155.41 1531.54 Q1162.61 1531.54 1166.78 1536.18 Q1170.98 1540.8 1170.98 1548.76 M1165.12 1547.04 Q1165.06 1542.23 1162.42 1539.37 Q1159.81 1536.5 1155.48 1536.5 Q1150.58 1536.5 1147.62 1539.27 Q1144.69 1542.04 1144.24 1547.07 L1165.12 1547.04 Z" fill="#000000" fill-rule="nonzero" fill-opacity="1" /><path clip-path="url(#clip950)" d="M1186.26 1562.7 L1186.26 1581.6 L1180.37 1581.6 L1180.37 1532.4 L1186.26 1532.4 L1186.26 1537.81 Q1188.1 1534.62 1190.9 1533.1 Q1193.73 1531.54 1197.65 1531.54 Q1204.14 1531.54 1208.19 1536.69 Q1212.26 1541.85 1212.26 1550.25 Q1212.26 1558.65 1208.19 1563.81 Q1204.14 1568.97 1197.65 1568.97 Q1193.73 1568.97 1190.9 1567.44 Q1188.1 1565.88 1186.26 1562.7 M1206.18 1550.25 Q1206.18 1543.79 1203.51 1540.13 Q1200.86 1536.44 1196.22 1536.44 Q1191.57 1536.44 1188.9 1540.13 Q1186.26 1543.79 1186.26 1550.25 Q1186.26 1556.71 1188.9 1560.4 Q1191.57 1564.07 1196.22 1564.07 Q1200.86 1564.07 1203.51 1560.4 Q1206.18 1556.71 1206.18 1550.25 Z" fill="#000000" fill-rule="nonzero" fill-opacity="1" /><path clip-path="url(#clip950)" d="M1238.17 1550.12 Q1231.07 1550.12 1228.33 1551.75 Q1225.6 1553.37 1225.6 1557.29 Q1225.6 1560.4 1227.63 1562.25 Q1229.7 1564.07 1233.23 1564.07 Q1238.1 1564.07 1241.03 1560.63 Q1243.99 1557.16 1243.99 1551.43 L1243.99 1550.12 L1238.17 1550.12 M1249.85 1547.71 L1249.85 1568.04 L1243.99 1568.04 L1243.99 1562.63 Q1241.99 1565.88 1239 1567.44 Q1236 1568.97 1231.67 1568.97 Q1226.2 1568.97 1222.95 1565.91 Q1219.74 1562.82 1219.74 1557.67 Q1219.74 1551.65 1223.75 1548.6 Q1227.79 1545.54 1235.78 1545.54 L1243.99 1545.54 L1243.99 1544.97 Q1243.99 1540.93 1241.32 1538.73 Q1238.68 1536.5 1233.87 1536.5 Q1230.82 1536.5 1227.92 1537.23 Q1225.02 1537.97 1222.35 1539.43 L1222.35 1534.02 Q1225.56 1532.78 1228.59 1532.17 Q1231.61 1531.54 1234.48 1531.54 Q1242.21 1531.54 1246.03 1535.55 Q1249.85 1539.56 1249.85 1547.71 Z" fill="#000000" fill-rule="nonzero" fill-opacity="1" /><path clip-path="url(#clip950)" d="M1261.91 1518.52 L1267.77 1518.52 L1267.77 1568.04 L1261.91 1568.04 L1261.91 1518.52 Z" fill="#000000" fill-rule="nonzero" fill-opacity="1" /><path clip-path="url(#clip950)" d="M1276.04 1520.52 L1282.54 1520.52 L1292.53 1560.69 L1302.49 1520.52 L1309.72 1520.52 L1319.71 1560.69 L1329.67 1520.52 L1336.2 1520.52 L1324.26 1568.04 L1316.18 1568.04 L1306.15 1526.79 L1296.03 1568.04 L1287.95 1568.04 L1276.04 1520.52 Z" fill="#000000" fill-rule="nonzero" fill-opacity="1" /><path clip-path="url(#clip950)" d="M1343.04 1532.4 L1348.9 1532.4 L1348.9 1568.04 L1343.04 1568.04 L1343.04 1532.4 M1343.04 1518.52 L1348.9 1518.52 L1348.9 1525.93 L1343.04 1525.93 L1343.04 1518.52 Z" fill="#000000" fill-rule="nonzero" fill-opacity="1" /><path clip-path="url(#clip950)" d="M1384.61 1537.81 L1384.61 1518.52 L1390.47 1518.52 L1390.47 1568.04 L1384.61 1568.04 L1384.61 1562.7 Q1382.76 1565.88 1379.93 1567.44 Q1377.13 1568.97 1373.18 1568.97 Q1366.72 1568.97 1362.65 1563.81 Q1358.61 1558.65 1358.61 1550.25 Q1358.61 1541.85 1362.65 1536.69 Q1366.72 1531.54 1373.18 1531.54 Q1377.13 1531.54 1379.93 1533.1 Q1382.76 1534.62 1384.61 1537.81 M1364.65 1550.25 Q1364.65 1556.71 1367.3 1560.4 Q1369.97 1564.07 1374.62 1564.07 Q1379.26 1564.07 1381.94 1560.4 Q1384.61 1556.71 1384.61 1550.25 Q1384.61 1543.79 1381.94 1540.13 Q1379.26 1536.44 1374.62 1536.44 Q1369.97 1536.44 1367.3 1540.13 Q1364.65 1543.79 1364.65 1550.25 Z" fill="#000000" fill-rule="nonzero" fill-opacity="1" /><path clip-path="url(#clip950)" d="M1408.32 1522.27 L1408.32 1532.4 L1420.39 1532.4 L1420.39 1536.95 L1408.32 1536.95 L1408.32 1556.3 Q1408.32 1560.66 1409.5 1561.9 Q1410.71 1563.14 1414.37 1563.14 L1420.39 1563.14 L1420.39 1568.04 L1414.37 1568.04 Q1407.59 1568.04 1405.01 1565.53 Q1402.43 1562.98 1402.43 1556.3 L1402.43 1536.95 L1398.14 1536.95 L1398.14 1532.4 L1402.43 1532.4 L1402.43 1522.27 L1408.32 1522.27 Z" fill="#000000" fill-rule="nonzero" fill-opacity="1" /><path clip-path="url(#clip950)" d="M1457.72 1546.53 L1457.72 1568.04 L1451.86 1568.04 L1451.86 1546.72 Q1451.86 1541.66 1449.89 1539.14 Q1447.92 1536.63 1443.97 1536.63 Q1439.23 1536.63 1436.49 1539.65 Q1433.75 1542.68 1433.75 1547.9 L1433.75 1568.04 L1427.87 1568.04 L1427.87 1518.52 L1433.75 1518.52 L1433.75 1537.93 Q1435.85 1534.72 1438.69 1533.13 Q1441.55 1531.54 1445.28 1531.54 Q1451.42 1531.54 1454.57 1535.36 Q1457.72 1539.14 1457.72 1546.53 Z" fill="#000000" fill-rule="nonzero" fill-opacity="1" /><polyline clip-path="url(#clip950)" style="stroke:#000000; stroke-linecap:round; stroke-linejoin:round; stroke-width:4; stroke-opacity:1; fill:none" points="202.227,1423.18 202.227,47.2441 "/>
<polyline clip-path="url(#clip950)" style="stroke:#000000; stroke-linecap:round; stroke-linejoin:round; stroke-width:4; stroke-opacity:1; fill:none" points="202.227,1423.18 221.125,1423.18 "/>
<polyline clip-path="url(#clip950)" style="stroke:#000000; stroke-linecap:round; stroke-linejoin:round; stroke-width:4; stroke-opacity:1; fill:none" points="202.227,1061.09 221.125,1061.09 "/>
<polyline clip-path="url(#clip950)" style="stroke:#000000; stroke-linecap:round; stroke-linejoin:round; stroke-width:4; stroke-opacity:1; fill:none" points="202.227,699.003 221.125,699.003 "/>
<polyline clip-path="url(#clip950)" style="stroke:#000000; stroke-linecap:round; stroke-linejoin:round; stroke-width:4; stroke-opacity:1; fill:none" points="202.227,336.915 221.125,336.915 "/>
<path clip-path="url(#clip950)" d="M154.283 1408.98 Q150.672 1408.98 148.843 1412.54 Q147.038 1416.08 147.038 1423.21 Q147.038 1430.32 148.843 1433.89 Q150.672 1437.43 154.283 1437.43 Q157.917 1437.43 159.723 1433.89 Q161.552 1430.32 161.552 1423.21 Q161.552 1416.08 159.723 1412.54 Q157.917 1408.98 154.283 1408.98 M154.283 1405.27 Q160.093 1405.27 163.149 1409.88 Q166.227 1414.46 166.227 1423.21 Q166.227 1431.94 163.149 1436.55 Q160.093 1441.13 154.283 1441.13 Q148.473 1441.13 145.394 1436.55 Q142.339 1431.94 142.339 1423.21 Q142.339 1414.46 145.394 1409.88 Q148.473 1405.27 154.283 1405.27 Z" fill="#000000" fill-rule="nonzero" fill-opacity="1" /><path clip-path="url(#clip950)" d="M145.325 1043.81 L163.681 1043.81 L163.681 1047.75 L149.607 1047.75 L149.607 1056.22 Q150.626 1055.87 151.644 1055.71 Q152.663 1055.52 153.681 1055.52 Q159.468 1055.52 162.848 1058.7 Q166.227 1061.87 166.227 1067.28 Q166.227 1072.86 162.755 1075.96 Q159.283 1079.04 152.964 1079.04 Q150.788 1079.04 148.519 1078.67 Q146.274 1078.3 143.866 1077.56 L143.866 1072.86 Q145.95 1074 148.172 1074.55 Q150.394 1075.11 152.871 1075.11 Q156.876 1075.11 159.214 1073 Q161.552 1070.89 161.552 1067.28 Q161.552 1063.67 159.214 1061.57 Q156.876 1059.46 152.871 1059.46 Q150.996 1059.46 149.121 1059.88 Q147.269 1060.29 145.325 1061.17 L145.325 1043.81 Z" fill="#000000" fill-rule="nonzero" fill-opacity="1" /><path clip-path="url(#clip950)" d="M114.931 712.348 L122.57 712.348 L122.57 685.982 L114.26 687.649 L114.26 683.39 L122.524 681.723 L127.2 681.723 L127.2 712.348 L134.839 712.348 L134.839 716.283 L114.931 716.283 L114.931 712.348 Z" fill="#000000" fill-rule="nonzero" fill-opacity="1" /><path clip-path="url(#clip950)" d="M154.283 684.802 Q150.672 684.802 148.843 688.367 Q147.038 691.908 147.038 699.038 Q147.038 706.144 148.843 709.709 Q150.672 713.251 154.283 713.251 Q157.917 713.251 159.723 709.709 Q161.552 706.144 161.552 699.038 Q161.552 691.908 159.723 688.367 Q157.917 684.802 154.283 684.802 M154.283 681.098 Q160.093 681.098 163.149 685.705 Q166.227 690.288 166.227 699.038 Q166.227 707.765 163.149 712.371 Q160.093 716.954 154.283 716.954 Q148.473 716.954 145.394 712.371 Q142.339 707.765 142.339 699.038 Q142.339 690.288 145.394 685.705 Q148.473 681.098 154.283 681.098 Z" fill="#000000" fill-rule="nonzero" fill-opacity="1" /><path clip-path="url(#clip950)" d="M115.927 350.26 L123.566 350.26 L123.566 323.894 L115.256 325.561 L115.256 321.301 L123.519 319.635 L128.195 319.635 L128.195 350.26 L135.834 350.26 L135.834 354.195 L115.927 354.195 L115.927 350.26 Z" fill="#000000" fill-rule="nonzero" fill-opacity="1" /><path clip-path="url(#clip950)" d="M145.325 319.635 L163.681 319.635 L163.681 323.57 L149.607 323.57 L149.607 332.042 Q150.626 331.695 151.644 331.533 Q152.663 331.348 153.681 331.348 Q159.468 331.348 162.848 334.519 Q166.227 337.69 166.227 343.107 Q166.227 348.686 162.755 351.787 Q159.283 354.866 152.964 354.866 Q150.788 354.866 148.519 354.496 Q146.274 354.125 143.866 353.385 L143.866 348.686 Q145.95 349.82 148.172 350.375 Q150.394 350.931 152.871 350.931 Q156.876 350.931 159.214 348.824 Q161.552 346.718 161.552 343.107 Q161.552 339.496 159.214 337.389 Q156.876 335.283 152.871 335.283 Q150.996 335.283 149.121 335.7 Q147.269 336.116 145.325 336.996 L145.325 319.635 Z" fill="#000000" fill-rule="nonzero" fill-opacity="1" /><path clip-path="url(#clip950)" d="M16.4842 899.415 L16.4842 872.106 L21.895 872.106 L21.895 892.986 L35.8996 892.986 L35.8996 874.144 L41.3104 874.144 L41.3104 892.986 L64.0042 892.986 L64.0042 899.415 L16.4842 899.415 Z" fill="#000000" fill-rule="nonzero" fill-opacity="1" /><path clip-path="url(#clip950)" d="M33.8307 846.262 Q33.2578 847.248 33.0032 848.426 Q32.7167 849.572 32.7167 850.972 Q32.7167 855.938 35.9632 858.611 Q39.1779 861.253 45.2253 861.253 L64.0042 861.253 L64.0042 867.141 L28.3562 867.141 L28.3562 861.253 L33.8944 861.253 Q30.6479 859.407 29.0883 856.447 Q27.4968 853.487 27.4968 849.254 Q27.4968 848.649 27.5923 847.917 Q27.656 847.185 27.8151 846.294 L33.8307 846.262 Z" fill="#000000" fill-rule="nonzero" fill-opacity="1" /><path clip-path="url(#clip950)" d="M44.7161 811.059 L47.5806 811.059 L47.5806 837.986 Q53.6281 837.604 56.8109 834.358 Q59.9619 831.08 59.9619 825.255 Q59.9619 821.881 59.1344 818.73 Q58.3069 815.547 56.6518 812.428 L62.1899 812.428 Q63.5267 815.579 64.227 818.889 Q64.9272 822.199 64.9272 825.605 Q64.9272 834.135 59.9619 839.132 Q54.9967 844.097 46.5303 844.097 Q37.7774 844.097 32.6531 839.387 Q27.4968 834.644 27.4968 826.624 Q27.4968 819.43 32.1438 815.261 Q36.7589 811.059 44.7161 811.059 M42.9973 816.916 Q38.1912 816.979 35.3266 819.621 Q32.4621 822.231 32.4621 826.56 Q32.4621 831.461 35.2312 834.422 Q38.0002 837.35 43.0292 837.795 L42.9973 816.916 Z" fill="#000000" fill-rule="nonzero" fill-opacity="1" /><path clip-path="url(#clip950)" d="M46.212 797.946 Q52.6732 797.946 56.3653 795.304 Q60.0256 792.631 60.0256 787.984 Q60.0256 783.337 56.3653 780.663 Q52.6732 777.99 46.212 777.99 Q39.7508 777.99 36.0905 780.663 Q32.3984 783.337 32.3984 787.984 Q32.3984 792.631 36.0905 795.304 Q39.7508 797.946 46.212 797.946 M58.657 777.99 Q61.8398 779.836 63.3994 782.668 Q64.9272 785.469 64.9272 789.416 Q64.9272 795.877 59.771 799.951 Q54.6147 803.993 46.212 803.993 Q37.8093 803.993 32.6531 799.951 Q27.4968 795.877 27.4968 789.416 Q27.4968 785.469 29.0564 782.668 Q30.5842 779.836 33.7671 777.99 L28.3562 777.99 L28.3562 772.133 L77.5631 772.133 L77.5631 777.99 L58.657 777.99 Z" fill="#000000" fill-rule="nonzero" fill-opacity="1" /><path clip-path="url(#clip950)" d="M49.9359 760.675 L28.3562 760.675 L28.3562 754.818 L49.7131 754.818 Q54.7739 754.818 57.3202 752.845 Q59.8346 750.872 59.8346 746.925 Q59.8346 742.182 56.8109 739.445 Q53.7872 736.676 48.5673 736.676 L28.3562 736.676 L28.3562 730.82 L64.0042 730.82 L64.0042 736.676 L58.5296 736.676 Q61.7762 738.809 63.3676 741.641 Q64.9272 744.442 64.9272 748.166 Q64.9272 754.309 61.1078 757.492 Q57.2883 760.675 49.9359 760.675 M27.4968 745.938 L27.4968 745.938 Z" fill="#000000" fill-rule="nonzero" fill-opacity="1" /><path clip-path="url(#clip950)" d="M44.7161 688.265 L47.5806 688.265 L47.5806 715.192 Q53.6281 714.81 56.8109 711.563 Q59.9619 708.285 59.9619 702.46 Q59.9619 699.087 59.1344 695.936 Q58.3069 692.753 56.6518 689.634 L62.1899 689.634 Q63.5267 692.785 64.227 696.095 Q64.9272 699.405 64.9272 702.811 Q64.9272 711.341 59.9619 716.338 Q54.9967 721.303 46.5303 721.303 Q37.7774 721.303 32.6531 716.592 Q27.4968 711.85 27.4968 703.829 Q27.4968 696.636 32.1438 692.466 Q36.7589 688.265 44.7161 688.265 M42.9973 694.121 Q38.1912 694.185 35.3266 696.827 Q32.4621 699.437 32.4621 703.765 Q32.4621 708.667 35.2312 711.627 Q38.0002 714.555 43.0292 715.001 L42.9973 694.121 Z" fill="#000000" fill-rule="nonzero" fill-opacity="1" /><path clip-path="url(#clip950)" d="M42.4881 649.02 L64.0042 649.02 L64.0042 654.877 L42.679 654.877 Q37.6183 654.877 35.1038 656.85 Q32.5894 658.823 32.5894 662.77 Q32.5894 667.513 35.6131 670.25 Q38.6368 672.987 43.8567 672.987 L64.0042 672.987 L64.0042 678.875 L28.3562 678.875 L28.3562 672.987 L33.8944 672.987 Q30.6797 670.887 29.0883 668.054 Q27.4968 665.189 27.4968 661.465 Q27.4968 655.322 31.3163 652.171 Q35.1038 649.02 42.4881 649.02 Z" fill="#000000" fill-rule="nonzero" fill-opacity="1" /><path clip-path="url(#clip950)" d="M29.7248 611.685 L35.1993 611.685 Q33.8307 614.168 33.1623 616.683 Q32.4621 619.165 32.4621 621.711 Q32.4621 627.409 36.0905 630.56 Q39.6872 633.711 46.212 633.711 Q52.7369 633.711 56.3653 630.56 Q59.9619 627.409 59.9619 621.711 Q59.9619 619.165 59.2935 616.683 Q58.5933 614.168 57.2247 611.685 L62.6355 611.685 Q63.7814 614.136 64.3543 616.778 Q64.9272 619.388 64.9272 622.348 Q64.9272 630.401 59.8664 635.143 Q54.8057 639.886 46.212 639.886 Q37.491 639.886 32.4939 635.111 Q27.4968 630.305 27.4968 621.966 Q27.4968 619.261 28.0697 616.683 Q28.6108 614.104 29.7248 611.685 Z" fill="#000000" fill-rule="nonzero" fill-opacity="1" /><path clip-path="url(#clip950)" d="M67.3143 586.668 Q73.68 589.151 75.6216 591.506 Q77.5631 593.861 77.5631 597.808 L77.5631 602.487 L72.6615 602.487 L72.6615 599.05 Q72.6615 596.631 71.5157 595.294 Q70.3699 593.957 66.1048 592.334 L63.4312 591.283 L28.3562 605.702 L28.3562 599.495 L56.238 588.355 L28.3562 577.215 L28.3562 571.009 L67.3143 586.668 Z" fill="#000000" fill-rule="nonzero" fill-opacity="1" /><path clip-path="url(#clip952)" d="M320.51 1350.76 L320.51 1423.18 L421.245 1423.18 L421.245 1350.76 L320.51 1350.76 L320.51 1350.76  Z" fill="#009af9" fill-rule="evenodd" fill-opacity="1"/>
<polyline clip-path="url(#clip952)" style="stroke:#000000; stroke-linecap:round; stroke-linejoin:round; stroke-width:4; stroke-opacity:1; fill:none" points="320.51,1350.76 320.51,1423.18 421.245,1423.18 421.245,1350.76 320.51,1350.76 "/>
<path clip-path="url(#clip952)" d="M421.245 1133.51 L421.245 1423.18 L521.98 1423.18 L521.98 1133.51 L421.245 1133.51 L421.245 1133.51  Z" fill="#009af9" fill-rule="evenodd" fill-opacity="1"/>
<polyline clip-path="url(#clip952)" style="stroke:#000000; stroke-linecap:round; stroke-linejoin:round; stroke-width:4; stroke-opacity:1; fill:none" points="421.245,1133.51 421.245,1423.18 521.98,1423.18 521.98,1133.51 421.245,1133.51 "/>
<path clip-path="url(#clip952)" d="M521.98 988.674 L521.98 1423.18 L622.715 1423.18 L622.715 988.674 L521.98 988.674 L521.98 988.674  Z" fill="#009af9" fill-rule="evenodd" fill-opacity="1"/>
<polyline clip-path="url(#clip952)" style="stroke:#000000; stroke-linecap:round; stroke-linejoin:round; stroke-width:4; stroke-opacity:1; fill:none" points="521.98,988.674 521.98,1423.18 622.715,1423.18 622.715,988.674 521.98,988.674 "/>
<path clip-path="url(#clip952)" d="M622.715 626.585 L622.715 1423.18 L723.45 1423.18 L723.45 626.585 L622.715 626.585 L622.715 626.585  Z" fill="#009af9" fill-rule="evenodd" fill-opacity="1"/>
<polyline clip-path="url(#clip952)" style="stroke:#000000; stroke-linecap:round; stroke-linejoin:round; stroke-width:4; stroke-opacity:1; fill:none" points="622.715,626.585 622.715,1423.18 723.45,1423.18 723.45,626.585 622.715,626.585 "/>
<path clip-path="url(#clip952)" d="M723.45 47.2441 L723.45 1423.18 L824.185 1423.18 L824.185 47.2441 L723.45 47.2441 L723.45 47.2441  Z" fill="#009af9" fill-rule="evenodd" fill-opacity="1"/>
<polyline clip-path="url(#clip952)" style="stroke:#000000; stroke-linecap:round; stroke-linejoin:round; stroke-width:4; stroke-opacity:1; fill:none" points="723.45,47.2441 723.45,1423.18 824.185,1423.18 824.185,47.2441 723.45,47.2441 "/>
<path clip-path="url(#clip952)" d="M824.185 1061.09 L824.185 1423.18 L924.92 1423.18 L924.92 1061.09 L824.185 1061.09 L824.185 1061.09  Z" fill="#009af9" fill-rule="evenodd" fill-opacity="1"/>
<polyline clip-path="url(#clip952)" style="stroke:#000000; stroke-linecap:round; stroke-linejoin:round; stroke-width:4; stroke-opacity:1; fill:none" points="824.185,1061.09 824.185,1423.18 924.92,1423.18 924.92,1061.09 824.185,1061.09 "/>
<path clip-path="url(#clip952)" d="M924.92 481.75 L924.92 1423.18 L1025.65 1423.18 L1025.65 481.75 L924.92 481.75 L924.92 481.75  Z" fill="#009af9" fill-rule="evenodd" fill-opacity="1"/>
<polyline clip-path="url(#clip952)" style="stroke:#000000; stroke-linecap:round; stroke-linejoin:round; stroke-width:4; stroke-opacity:1; fill:none" points="924.92,481.75 924.92,1423.18 1025.65,1423.18 1025.65,481.75 924.92,481.75 "/>
<path clip-path="url(#clip952)" d="M1025.65 409.332 L1025.65 1423.18 L1126.39 1423.18 L1126.39 409.332 L1025.65 409.332 L1025.65 409.332  Z" fill="#009af9" fill-rule="evenodd" fill-opacity="1"/>
<polyline clip-path="url(#clip952)" style="stroke:#000000; stroke-linecap:round; stroke-linejoin:round; stroke-width:4; stroke-opacity:1; fill:none" points="1025.65,409.332 1025.65,1423.18 1126.39,1423.18 1126.39,409.332 1025.65,409.332 "/>
<path clip-path="url(#clip952)" d="M1126.39 699.003 L1126.39 1423.18 L1227.12 1423.18 L1227.12 699.003 L1126.39 699.003 L1126.39 699.003  Z" fill="#009af9" fill-rule="evenodd" fill-opacity="1"/>
<polyline clip-path="url(#clip952)" style="stroke:#000000; stroke-linecap:round; stroke-linejoin:round; stroke-width:4; stroke-opacity:1; fill:none" points="1126.39,699.003 1126.39,1423.18 1227.12,1423.18 1227.12,699.003 1126.39,699.003 "/>
<path clip-path="url(#clip952)" d="M1227.12 554.168 L1227.12 1423.18 L1327.86 1423.18 L1327.86 554.168 L1227.12 554.168 L1227.12 554.168  Z" fill="#009af9" fill-rule="evenodd" fill-opacity="1"/>
<polyline clip-path="url(#clip952)" style="stroke:#000000; stroke-linecap:round; stroke-linejoin:round; stroke-width:4; stroke-opacity:1; fill:none" points="1227.12,554.168 1227.12,1423.18 1327.86,1423.18 1327.86,554.168 1227.12,554.168 "/>
<path clip-path="url(#clip952)" d="M1327.86 481.75 L1327.86 1423.18 L1428.59 1423.18 L1428.59 481.75 L1327.86 481.75 L1327.86 481.75  Z" fill="#009af9" fill-rule="evenodd" fill-opacity="1"/>
<polyline clip-path="url(#clip952)" style="stroke:#000000; stroke-linecap:round; stroke-linejoin:round; stroke-width:4; stroke-opacity:1; fill:none" points="1327.86,481.75 1327.86,1423.18 1428.59,1423.18 1428.59,481.75 1327.86,481.75 "/>
<path clip-path="url(#clip952)" d="M1428.59 409.332 L1428.59 1423.18 L1529.33 1423.18 L1529.33 409.332 L1428.59 409.332 L1428.59 409.332  Z" fill="#009af9" fill-rule="evenodd" fill-opacity="1"/>
<polyline clip-path="url(#clip952)" style="stroke:#000000; stroke-linecap:round; stroke-linejoin:round; stroke-width:4; stroke-opacity:1; fill:none" points="1428.59,409.332 1428.59,1423.18 1529.33,1423.18 1529.33,409.332 1428.59,409.332 "/>
<path clip-path="url(#clip952)" d="M1529.33 843.838 L1529.33 1423.18 L1630.06 1423.18 L1630.06 843.838 L1529.33 843.838 L1529.33 843.838  Z" fill="#009af9" fill-rule="evenodd" fill-opacity="1"/>
<polyline clip-path="url(#clip952)" style="stroke:#000000; stroke-linecap:round; stroke-linejoin:round; stroke-width:4; stroke-opacity:1; fill:none" points="1529.33,843.838 1529.33,1423.18 1630.06,1423.18 1630.06,843.838 1529.33,843.838 "/>
<path clip-path="url(#clip952)" d="M1630.06 916.256 L1630.06 1423.18 L1730.8 1423.18 L1730.8 916.256 L1630.06 916.256 L1630.06 916.256  Z" fill="#009af9" fill-rule="evenodd" fill-opacity="1"/>
<polyline clip-path="url(#clip952)" style="stroke:#000000; stroke-linecap:round; stroke-linejoin:round; stroke-width:4; stroke-opacity:1; fill:none" points="1630.06,916.256 1630.06,1423.18 1730.8,1423.18 1730.8,916.256 1630.06,916.256 "/>
<path clip-path="url(#clip952)" d="M1730.8 1278.34 L1730.8 1423.18 L1831.53 1423.18 L1831.53 1278.34 L1730.8 1278.34 L1730.8 1278.34  Z" fill="#009af9" fill-rule="evenodd" fill-opacity="1"/>
<polyline clip-path="url(#clip952)" style="stroke:#000000; stroke-linecap:round; stroke-linejoin:round; stroke-width:4; stroke-opacity:1; fill:none" points="1730.8,1278.34 1730.8,1423.18 1831.53,1423.18 1831.53,1278.34 1730.8,1278.34 "/>
<path clip-path="url(#clip952)" d="M1831.53 1133.51 L1831.53 1423.18 L1932.27 1423.18 L1932.27 1133.51 L1831.53 1133.51 L1831.53 1133.51  Z" fill="#009af9" fill-rule="evenodd" fill-opacity="1"/>
<polyline clip-path="url(#clip952)" style="stroke:#000000; stroke-linecap:round; stroke-linejoin:round; stroke-width:4; stroke-opacity:1; fill:none" points="1831.53,1133.51 1831.53,1423.18 1932.27,1423.18 1932.27,1133.51 1831.53,1133.51 "/>
<path clip-path="url(#clip952)" d="M1932.27 1278.34 L1932.27 1423.18 L2033 1423.18 L2033 1278.34 L1932.27 1278.34 L1932.27 1278.34  Z" fill="#009af9" fill-rule="evenodd" fill-opacity="1"/>
<polyline clip-path="url(#clip952)" style="stroke:#000000; stroke-linecap:round; stroke-linejoin:round; stroke-width:4; stroke-opacity:1; fill:none" points="1932.27,1278.34 1932.27,1423.18 2033,1423.18 2033,1278.34 1932.27,1278.34 "/>
<path clip-path="url(#clip952)" d="M2033 1133.51 L2033 1423.18 L2133.74 1423.18 L2133.74 1133.51 L2033 1133.51 L2033 1133.51  Z" fill="#009af9" fill-rule="evenodd" fill-opacity="1"/>
<polyline clip-path="url(#clip952)" style="stroke:#000000; stroke-linecap:round; stroke-linejoin:round; stroke-width:4; stroke-opacity:1; fill:none" points="2033,1133.51 2033,1423.18 2133.74,1423.18 2133.74,1133.51 2033,1133.51 "/>
<path clip-path="url(#clip952)" d="M2133.74 1350.76 L2133.74 1423.18 L2234.47 1423.18 L2234.47 1350.76 L2133.74 1350.76 L2133.74 1350.76  Z" fill="#009af9" fill-rule="evenodd" fill-opacity="1"/>
<polyline clip-path="url(#clip952)" style="stroke:#000000; stroke-linecap:round; stroke-linejoin:round; stroke-width:4; stroke-opacity:1; fill:none" points="2133.74,1350.76 2133.74,1423.18 2234.47,1423.18 2234.47,1350.76 2133.74,1350.76 "/>
<circle clip-path="url(#clip952)" style="fill:#009af9; stroke:none; fill-opacity:0" cx="370.878" cy="1350.76" r="2"/>
<circle clip-path="url(#clip952)" style="fill:#009af9; stroke:none; fill-opacity:0" cx="471.613" cy="1133.51" r="2"/>
<circle clip-path="url(#clip952)" style="fill:#009af9; stroke:none; fill-opacity:0" cx="572.348" cy="988.674" r="2"/>
<circle clip-path="url(#clip952)" style="fill:#009af9; stroke:none; fill-opacity:0" cx="673.082" cy="626.585" r="2"/>
<circle clip-path="url(#clip952)" style="fill:#009af9; stroke:none; fill-opacity:0" cx="773.817" cy="47.2441" r="2"/>
<circle clip-path="url(#clip952)" style="fill:#009af9; stroke:none; fill-opacity:0" cx="874.552" cy="1061.09" r="2"/>
<circle clip-path="url(#clip952)" style="fill:#009af9; stroke:none; fill-opacity:0" cx="975.287" cy="481.75" r="2"/>
<circle clip-path="url(#clip952)" style="fill:#009af9; stroke:none; fill-opacity:0" cx="1076.02" cy="409.332" r="2"/>
<circle clip-path="url(#clip952)" style="fill:#009af9; stroke:none; fill-opacity:0" cx="1176.76" cy="699.003" r="2"/>
<circle clip-path="url(#clip952)" style="fill:#009af9; stroke:none; fill-opacity:0" cx="1277.49" cy="554.168" r="2"/>
<circle clip-path="url(#clip952)" style="fill:#009af9; stroke:none; fill-opacity:0" cx="1378.23" cy="481.75" r="2"/>
<circle clip-path="url(#clip952)" style="fill:#009af9; stroke:none; fill-opacity:0" cx="1478.96" cy="409.332" r="2"/>
<circle clip-path="url(#clip952)" style="fill:#009af9; stroke:none; fill-opacity:0" cx="1579.7" cy="843.838" r="2"/>
<circle clip-path="url(#clip952)" style="fill:#009af9; stroke:none; fill-opacity:0" cx="1680.43" cy="916.256" r="2"/>
<circle clip-path="url(#clip952)" style="fill:#009af9; stroke:none; fill-opacity:0" cx="1781.17" cy="1278.34" r="2"/>
<circle clip-path="url(#clip952)" style="fill:#009af9; stroke:none; fill-opacity:0" cx="1881.9" cy="1133.51" r="2"/>
<circle clip-path="url(#clip952)" style="fill:#009af9; stroke:none; fill-opacity:0" cx="1982.64" cy="1278.34" r="2"/>
<circle clip-path="url(#clip952)" style="fill:#009af9; stroke:none; fill-opacity:0" cx="2083.37" cy="1133.51" r="2"/>
<circle clip-path="url(#clip952)" style="fill:#009af9; stroke:none; fill-opacity:0" cx="2184.11" cy="1350.76" r="2"/>
</svg>
