<?xml version="1.0" encoding="utf-8"?>
<svg xmlns="http://www.w3.org/2000/svg" xmlns:xlink="http://www.w3.org/1999/xlink" width="600" height="400" viewBox="0 0 2400 1600">
<defs>
  <clipPath id="clip750">
    <rect x="0" y="0" width="2400" height="1600"/>
  </clipPath>
</defs>
<path clip-path="url(#clip750)" d="M0 1600 L2400 1600 L2400 0 L0 0  Z" fill="#ffffff" fill-rule="evenodd" fill-opacity="1"/>
<defs>
  <clipPath id="clip751">
    <rect x="480" y="0" width="1681" height="1600"/>
  </clipPath>
</defs>
<path clip-path="url(#clip750)" d="M276.274 1486.45 L2352.76 1486.45 L2352.76 47.2441 L276.274 47.2441  Z" fill="#ffffff" fill-rule="evenodd" fill-opacity="1"/>
<defs>
  <clipPath id="clip752">
    <rect x="276" y="47" width="2077" height="1440"/>
  </clipPath>
</defs>
<polyline clip-path="url(#clip752)" style="stroke:#000000; stroke-linecap:round; stroke-linejoin:round; stroke-width:2; stroke-opacity:0.1; fill:none" points="293.903,1486.45 293.903,47.2441 "/>
<polyline clip-path="url(#clip752)" style="stroke:#000000; stroke-linecap:round; stroke-linejoin:round; stroke-width:2; stroke-opacity:0.1; fill:none" points="607.938,1486.45 607.938,47.2441 "/>
<polyline clip-path="url(#clip752)" style="stroke:#000000; stroke-linecap:round; stroke-linejoin:round; stroke-width:2; stroke-opacity:0.1; fill:none" points="921.972,1486.45 921.972,47.2441 "/>
<polyline clip-path="url(#clip752)" style="stroke:#000000; stroke-linecap:round; stroke-linejoin:round; stroke-width:2; stroke-opacity:0.1; fill:none" points="1236.01,1486.45 1236.01,47.2441 "/>
<polyline clip-path="url(#clip752)" style="stroke:#000000; stroke-linecap:round; stroke-linejoin:round; stroke-width:2; stroke-opacity:0.1; fill:none" points="1550.04,1486.45 1550.04,47.2441 "/>
<polyline clip-path="url(#clip752)" style="stroke:#000000; stroke-linecap:round; stroke-linejoin:round; stroke-width:2; stroke-opacity:0.1; fill:none" points="1864.07,1486.45 1864.07,47.2441 "/>
<polyline clip-path="url(#clip752)" style="stroke:#000000; stroke-linecap:round; stroke-linejoin:round; stroke-width:2; stroke-opacity:0.1; fill:none" points="2178.11,1486.45 2178.11,47.2441 "/>
<polyline clip-path="url(#clip750)" style="stroke:#000000; stroke-linecap:round; stroke-linejoin:round; stroke-width:4; stroke-opacity:1; fill:none" points="276.274,1486.45 2352.76,1486.45 "/>
<polyline clip-path="url(#clip750)" style="stroke:#000000; stroke-linecap:round; stroke-linejoin:round; stroke-width:4; stroke-opacity:1; fill:none" points="293.903,1486.45 293.903,1467.55 "/>
<polyline clip-path="url(#clip750)" style="stroke:#000000; stroke-linecap:round; stroke-linejoin:round; stroke-width:4; stroke-opacity:1; fill:none" points="607.938,1486.45 607.938,1467.55 "/>
<polyline clip-path="url(#clip750)" style="stroke:#000000; stroke-linecap:round; stroke-linejoin:round; stroke-width:4; stroke-opacity:1; fill:none" points="921.972,1486.45 921.972,1467.55 "/>
<polyline clip-path="url(#clip750)" style="stroke:#000000; stroke-linecap:round; stroke-linejoin:round; stroke-width:4; stroke-opacity:1; fill:none" points="1236.01,1486.45 1236.01,1467.55 "/>
<polyline clip-path="url(#clip750)" style="stroke:#000000; stroke-linecap:round; stroke-linejoin:round; stroke-width:4; stroke-opacity:1; fill:none" points="1550.04,1486.45 1550.04,1467.55 "/>
<polyline clip-path="url(#clip750)" style="stroke:#000000; stroke-linecap:round; stroke-linejoin:round; stroke-width:4; stroke-opacity:1; fill:none" points="1864.07,1486.45 1864.07,1467.55 "/>
<polyline clip-path="url(#clip750)" style="stroke:#000000; stroke-linecap:round; stroke-linejoin:round; stroke-width:4; stroke-opacity:1; fill:none" points="2178.11,1486.45 2178.11,1467.55 "/>
<path clip-path="url(#clip750)" d="M293.903 1517.37 Q290.292 1517.37 288.464 1520.93 Q286.658 1524.47 286.658 1531.6 Q286.658 1538.71 288.464 1542.27 Q290.292 1545.82 293.903 1545.82 Q297.538 1545.82 299.343 1542.27 Q301.172 1538.71 301.172 1531.6 Q301.172 1524.47 299.343 1520.93 Q297.538 1517.37 293.903 1517.37 M293.903 1513.66 Q299.714 1513.66 302.769 1518.27 Q305.848 1522.85 305.848 1531.6 Q305.848 1540.33 302.769 1544.94 Q299.714 1549.52 293.903 1549.52 Q288.093 1549.52 285.015 1544.94 Q281.959 1540.33 281.959 1531.6 Q281.959 1522.85 285.015 1518.27 Q288.093 1513.66 293.903 1513.66 Z" fill="#000000" fill-rule="nonzero" fill-opacity="1" /><path clip-path="url(#clip750)" d="M602.59 1544.91 L618.91 1544.91 L618.91 1548.85 L596.965 1548.85 L596.965 1544.91 Q599.628 1542.16 604.211 1537.53 Q608.817 1532.88 609.998 1531.53 Q612.243 1529.01 613.123 1527.27 Q614.026 1525.51 614.026 1523.82 Q614.026 1521.07 612.081 1519.33 Q610.16 1517.6 607.058 1517.6 Q604.859 1517.6 602.405 1518.36 Q599.975 1519.13 597.197 1520.68 L597.197 1515.95 Q600.021 1514.82 602.475 1514.24 Q604.928 1513.66 606.965 1513.66 Q612.336 1513.66 615.53 1516.35 Q618.725 1519.03 618.725 1523.52 Q618.725 1525.65 617.914 1527.57 Q617.127 1529.47 615.021 1532.07 Q614.442 1532.74 611.34 1535.95 Q608.239 1539.15 602.59 1544.91 Z" fill="#000000" fill-rule="nonzero" fill-opacity="1" /><path clip-path="url(#clip750)" d="M924.981 1518.36 L913.176 1536.81 L924.981 1536.81 L924.981 1518.36 M923.754 1514.29 L929.634 1514.29 L929.634 1536.81 L934.564 1536.81 L934.564 1540.7 L929.634 1540.7 L929.634 1548.85 L924.981 1548.85 L924.981 1540.7 L909.379 1540.7 L909.379 1536.19 L923.754 1514.29 Z" fill="#000000" fill-rule="nonzero" fill-opacity="1" /><path clip-path="url(#clip750)" d="M1236.41 1529.7 Q1233.26 1529.7 1231.41 1531.86 Q1229.58 1534.01 1229.58 1537.76 Q1229.58 1541.49 1231.41 1543.66 Q1233.26 1545.82 1236.41 1545.82 Q1239.56 1545.82 1241.39 1543.66 Q1243.24 1541.49 1243.24 1537.76 Q1243.24 1534.01 1241.39 1531.86 Q1239.56 1529.7 1236.41 1529.7 M1245.69 1515.05 L1245.69 1519.31 Q1243.93 1518.48 1242.13 1518.04 Q1240.35 1517.6 1238.59 1517.6 Q1233.96 1517.6 1231.5 1520.72 Q1229.07 1523.85 1228.73 1530.17 Q1230.09 1528.15 1232.15 1527.09 Q1234.21 1526 1236.69 1526 Q1241.9 1526 1244.91 1529.17 Q1247.94 1532.32 1247.94 1537.76 Q1247.94 1543.08 1244.79 1546.3 Q1241.64 1549.52 1236.41 1549.52 Q1230.42 1549.52 1227.24 1544.94 Q1224.07 1540.33 1224.07 1531.6 Q1224.07 1523.41 1227.96 1518.55 Q1231.85 1513.66 1238.4 1513.66 Q1240.16 1513.66 1241.94 1514.01 Q1243.75 1514.36 1245.69 1515.05 Z" fill="#000000" fill-rule="nonzero" fill-opacity="1" /><path clip-path="url(#clip750)" d="M1550.04 1532.44 Q1546.71 1532.44 1544.79 1534.22 Q1542.89 1536 1542.89 1539.13 Q1542.89 1542.25 1544.79 1544.03 Q1546.71 1545.82 1550.04 1545.82 Q1553.37 1545.82 1555.3 1544.03 Q1557.22 1542.23 1557.22 1539.13 Q1557.22 1536 1555.3 1534.22 Q1553.4 1532.44 1550.04 1532.44 M1545.36 1530.45 Q1542.36 1529.7 1540.67 1527.64 Q1539 1525.58 1539 1522.62 Q1539 1518.48 1541.94 1516.07 Q1544.9 1513.66 1550.04 1513.66 Q1555.2 1513.66 1558.14 1516.07 Q1561.08 1518.48 1561.08 1522.62 Q1561.08 1525.58 1559.39 1527.64 Q1557.73 1529.7 1554.74 1530.45 Q1558.12 1531.23 1559.99 1533.52 Q1561.89 1535.82 1561.89 1539.13 Q1561.89 1544.15 1558.81 1546.83 Q1555.76 1549.52 1550.04 1549.52 Q1544.32 1549.52 1541.24 1546.83 Q1538.19 1544.15 1538.19 1539.13 Q1538.19 1535.82 1540.09 1533.52 Q1541.98 1531.23 1545.36 1530.45 M1543.65 1523.06 Q1543.65 1525.75 1545.32 1527.25 Q1547.01 1528.76 1550.04 1528.76 Q1553.05 1528.76 1554.74 1527.25 Q1556.45 1525.75 1556.45 1523.06 Q1556.45 1520.38 1554.74 1518.87 Q1553.05 1517.37 1550.04 1517.37 Q1547.01 1517.37 1545.32 1518.87 Q1543.65 1520.38 1543.65 1523.06 Z" fill="#000000" fill-rule="nonzero" fill-opacity="1" /><path clip-path="url(#clip750)" d="M1838.76 1544.91 L1846.4 1544.91 L1846.4 1518.55 L1838.09 1520.21 L1838.09 1515.95 L1846.35 1514.29 L1851.03 1514.29 L1851.03 1544.91 L1858.67 1544.91 L1858.67 1548.85 L1838.76 1548.85 L1838.76 1544.91 Z" fill="#000000" fill-rule="nonzero" fill-opacity="1" /><path clip-path="url(#clip750)" d="M1878.11 1517.37 Q1874.5 1517.37 1872.67 1520.93 Q1870.87 1524.47 1870.87 1531.6 Q1870.87 1538.71 1872.67 1542.27 Q1874.5 1545.82 1878.11 1545.82 Q1881.75 1545.82 1883.55 1542.27 Q1885.38 1538.71 1885.38 1531.6 Q1885.38 1524.47 1883.55 1520.93 Q1881.75 1517.37 1878.11 1517.37 M1878.11 1513.66 Q1883.92 1513.66 1886.98 1518.27 Q1890.06 1522.85 1890.06 1531.6 Q1890.06 1540.33 1886.98 1544.94 Q1883.92 1549.52 1878.11 1549.52 Q1872.3 1549.52 1869.23 1544.94 Q1866.17 1540.33 1866.17 1531.6 Q1866.17 1522.85 1869.23 1518.27 Q1872.3 1513.66 1878.11 1513.66 Z" fill="#000000" fill-rule="nonzero" fill-opacity="1" /><path clip-path="url(#clip750)" d="M2153.6 1544.91 L2161.23 1544.91 L2161.23 1518.55 L2152.92 1520.21 L2152.92 1515.95 L2161.19 1514.29 L2165.86 1514.29 L2165.86 1544.91 L2173.5 1544.91 L2173.5 1548.85 L2153.6 1548.85 L2153.6 1544.91 Z" fill="#000000" fill-rule="nonzero" fill-opacity="1" /><path clip-path="url(#clip750)" d="M2186.97 1544.91 L2203.29 1544.91 L2203.29 1548.85 L2181.35 1548.85 L2181.35 1544.91 Q2184.01 1542.16 2188.59 1537.53 Q2193.2 1532.88 2194.38 1531.53 Q2196.63 1529.01 2197.51 1527.27 Q2198.41 1525.51 2198.41 1523.82 Q2198.41 1521.07 2196.47 1519.33 Q2194.54 1517.6 2191.44 1517.6 Q2189.24 1517.6 2186.79 1518.36 Q2184.36 1519.13 2181.58 1520.68 L2181.58 1515.95 Q2184.41 1514.82 2186.86 1514.24 Q2189.31 1513.66 2191.35 1513.66 Q2196.72 1513.66 2199.91 1516.35 Q2203.11 1519.03 2203.11 1523.52 Q2203.11 1525.65 2202.3 1527.57 Q2201.51 1529.47 2199.41 1532.07 Q2198.83 1532.74 2195.72 1535.95 Q2192.62 1539.15 2186.97 1544.91 Z" fill="#000000" fill-rule="nonzero" fill-opacity="1" /><polyline clip-path="url(#clip752)" style="stroke:#000000; stroke-linecap:round; stroke-linejoin:round; stroke-width:2; stroke-opacity:0.1; fill:none" points="276.274,1486.45 2352.76,1486.45 "/>
<polyline clip-path="url(#clip752)" style="stroke:#000000; stroke-linecap:round; stroke-linejoin:round; stroke-width:2; stroke-opacity:0.1; fill:none" points="276.274,1118.39 2352.76,1118.39 "/>
<polyline clip-path="url(#clip752)" style="stroke:#000000; stroke-linecap:round; stroke-linejoin:round; stroke-width:2; stroke-opacity:0.1; fill:none" points="276.274,750.339 2352.76,750.339 "/>
<polyline clip-path="url(#clip752)" style="stroke:#000000; stroke-linecap:round; stroke-linejoin:round; stroke-width:2; stroke-opacity:0.1; fill:none" points="276.274,382.284 2352.76,382.284 "/>
<polyline clip-path="url(#clip750)" style="stroke:#000000; stroke-linecap:round; stroke-linejoin:round; stroke-width:4; stroke-opacity:1; fill:none" points="276.274,1486.45 276.274,47.2441 "/>
<polyline clip-path="url(#clip750)" style="stroke:#000000; stroke-linecap:round; stroke-linejoin:round; stroke-width:4; stroke-opacity:1; fill:none" points="276.274,1486.45 295.171,1486.45 "/>
<polyline clip-path="url(#clip750)" style="stroke:#000000; stroke-linecap:round; stroke-linejoin:round; stroke-width:4; stroke-opacity:1; fill:none" points="276.274,1118.39 295.171,1118.39 "/>
<polyline clip-path="url(#clip750)" style="stroke:#000000; stroke-linecap:round; stroke-linejoin:round; stroke-width:4; stroke-opacity:1; fill:none" points="276.274,750.339 295.171,750.339 "/>
<polyline clip-path="url(#clip750)" style="stroke:#000000; stroke-linecap:round; stroke-linejoin:round; stroke-width:4; stroke-opacity:1; fill:none" points="276.274,382.284 295.171,382.284 "/>
<path clip-path="url(#clip750)" d="M228.329 1472.25 Q224.718 1472.25 222.889 1475.81 Q221.084 1479.35 221.084 1486.48 Q221.084 1493.59 222.889 1497.15 Q224.718 1500.7 228.329 1500.7 Q231.963 1500.7 233.769 1497.15 Q235.598 1493.59 235.598 1486.48 Q235.598 1479.35 233.769 1475.81 Q231.963 1472.25 228.329 1472.25 M228.329 1468.54 Q234.139 1468.54 237.195 1473.15 Q240.274 1477.73 240.274 1486.48 Q240.274 1495.21 237.195 1499.82 Q234.139 1504.4 228.329 1504.4 Q222.519 1504.4 219.44 1499.82 Q216.385 1495.21 216.385 1486.48 Q216.385 1477.73 219.44 1473.15 Q222.519 1468.54 228.329 1468.54 Z" fill="#000000" fill-rule="nonzero" fill-opacity="1" /><path clip-path="url(#clip750)" d="M53.3995 1138.19 L61.0384 1138.19 L61.0384 1111.82 L52.7282 1113.49 L52.7282 1109.23 L60.9921 1107.56 L65.668 1107.56 L65.668 1138.19 L73.3068 1138.19 L73.3068 1142.12 L53.3995 1142.12 L53.3995 1138.19 Z" fill="#000000" fill-rule="nonzero" fill-opacity="1" /><path clip-path="url(#clip750)" d="M82.7512 1136.24 L87.6354 1136.24 L87.6354 1142.12 L82.7512 1142.12 L82.7512 1136.24 Z" fill="#000000" fill-rule="nonzero" fill-opacity="1" /><path clip-path="url(#clip750)" d="M107.821 1110.64 Q104.209 1110.64 102.381 1114.2 Q100.575 1117.75 100.575 1124.88 Q100.575 1131.98 102.381 1135.55 Q104.209 1139.09 107.821 1139.09 Q111.455 1139.09 113.26 1135.55 Q115.089 1131.98 115.089 1124.88 Q115.089 1117.75 113.26 1114.2 Q111.455 1110.64 107.821 1110.64 M107.821 1106.94 Q113.631 1106.94 116.686 1111.54 Q119.765 1116.13 119.765 1124.88 Q119.765 1133.6 116.686 1138.21 Q113.631 1142.79 107.821 1142.79 Q102.01 1142.79 98.9317 1138.21 Q95.8761 1133.6 95.8761 1124.88 Q95.8761 1116.13 98.9317 1111.54 Q102.01 1106.94 107.821 1106.94 Z" fill="#000000" fill-rule="nonzero" fill-opacity="1" /><path clip-path="url(#clip750)" d="M156.154 1116.66 L145.575 1127.28 L156.154 1137.86 L153.399 1140.66 L142.774 1130.04 L132.149 1140.66 L129.418 1137.86 L139.973 1127.28 L129.418 1116.66 L132.149 1113.86 L142.774 1124.48 L153.399 1113.86 L156.154 1116.66 Z" fill="#000000" fill-rule="nonzero" fill-opacity="1" /><path clip-path="url(#clip750)" d="M168.515 1138.19 L176.153 1138.19 L176.153 1111.82 L167.843 1113.49 L167.843 1109.23 L176.107 1107.56 L180.783 1107.56 L180.783 1138.19 L188.422 1138.19 L188.422 1142.12 L168.515 1142.12 L168.515 1138.19 Z" fill="#000000" fill-rule="nonzero" fill-opacity="1" /><path clip-path="url(#clip750)" d="M207.866 1110.64 Q204.255 1110.64 202.426 1114.2 Q200.621 1117.75 200.621 1124.88 Q200.621 1131.98 202.426 1135.55 Q204.255 1139.09 207.866 1139.09 Q211.501 1139.09 213.306 1135.55 Q215.135 1131.98 215.135 1124.88 Q215.135 1117.75 213.306 1114.2 Q211.501 1110.64 207.866 1110.64 M207.866 1106.94 Q213.676 1106.94 216.732 1111.54 Q219.811 1116.13 219.811 1124.88 Q219.811 1133.6 216.732 1138.21 Q213.676 1142.79 207.866 1142.79 Q202.056 1142.79 198.977 1138.21 Q195.922 1133.6 195.922 1124.88 Q195.922 1116.13 198.977 1111.54 Q202.056 1106.94 207.866 1106.94 Z" fill="#000000" fill-rule="nonzero" fill-opacity="1" /><path clip-path="url(#clip750)" d="M232.487 1089.94 L222.895 1104.93 L232.487 1104.93 L232.487 1089.94 M231.49 1086.63 L236.267 1086.63 L236.267 1104.93 L240.274 1104.93 L240.274 1108.09 L236.267 1108.09 L236.267 1114.71 L232.487 1114.71 L232.487 1108.09 L219.811 1108.09 L219.811 1104.42 L231.49 1086.63 Z" fill="#000000" fill-rule="nonzero" fill-opacity="1" /><path clip-path="url(#clip750)" d="M56.6171 770.131 L72.9365 770.131 L72.9365 774.066 L50.9921 774.066 L50.9921 770.131 Q53.6541 767.377 58.2375 762.747 Q62.8439 758.094 64.0245 756.752 Q66.2698 754.228 67.1494 752.492 Q68.0522 750.733 68.0522 749.043 Q68.0522 746.289 66.1078 744.553 Q64.1865 742.817 61.0847 742.817 Q58.8856 742.817 56.4319 743.58 Q54.0014 744.344 51.2236 745.895 L51.2236 741.173 Q54.0477 740.039 56.5014 739.46 Q58.955 738.881 60.9921 738.881 Q66.3624 738.881 69.5568 741.567 Q72.7513 744.252 72.7513 748.742 Q72.7513 750.872 71.9411 752.793 Q71.1541 754.691 69.0476 757.284 Q68.4689 757.955 65.367 761.173 Q62.2652 764.367 56.6171 770.131 Z" fill="#000000" fill-rule="nonzero" fill-opacity="1" /><path clip-path="url(#clip750)" d="M82.7512 768.187 L87.6354 768.187 L87.6354 774.066 L82.7512 774.066 L82.7512 768.187 Z" fill="#000000" fill-rule="nonzero" fill-opacity="1" /><path clip-path="url(#clip750)" d="M107.821 742.585 Q104.209 742.585 102.381 746.15 Q100.575 749.691 100.575 756.821 Q100.575 763.928 102.381 767.492 Q104.209 771.034 107.821 771.034 Q111.455 771.034 113.26 767.492 Q115.089 763.928 115.089 756.821 Q115.089 749.691 113.26 746.15 Q111.455 742.585 107.821 742.585 M107.821 738.881 Q113.631 738.881 116.686 743.488 Q119.765 748.071 119.765 756.821 Q119.765 765.548 116.686 770.154 Q113.631 774.738 107.821 774.738 Q102.01 774.738 98.9317 770.154 Q95.8761 765.548 95.8761 756.821 Q95.8761 748.071 98.9317 743.488 Q102.01 738.881 107.821 738.881 Z" fill="#000000" fill-rule="nonzero" fill-opacity="1" /><path clip-path="url(#clip750)" d="M156.154 748.604 L145.575 759.228 L156.154 769.807 L153.399 772.608 L142.774 761.983 L132.149 772.608 L129.418 769.807 L139.973 759.228 L129.418 748.604 L132.149 745.803 L142.774 756.428 L153.399 745.803 L156.154 748.604 Z" fill="#000000" fill-rule="nonzero" fill-opacity="1" /><path clip-path="url(#clip750)" d="M168.515 770.131 L176.153 770.131 L176.153 743.766 L167.843 745.432 L167.843 741.173 L176.107 739.506 L180.783 739.506 L180.783 770.131 L188.422 770.131 L188.422 774.066 L168.515 774.066 L168.515 770.131 Z" fill="#000000" fill-rule="nonzero" fill-opacity="1" /><path clip-path="url(#clip750)" d="M207.866 742.585 Q204.255 742.585 202.426 746.15 Q200.621 749.691 200.621 756.821 Q200.621 763.928 202.426 767.492 Q204.255 771.034 207.866 771.034 Q211.501 771.034 213.306 767.492 Q215.135 763.928 215.135 756.821 Q215.135 749.691 213.306 746.15 Q211.501 742.585 207.866 742.585 M207.866 738.881 Q213.676 738.881 216.732 743.488 Q219.811 748.071 219.811 756.821 Q219.811 765.548 216.732 770.154 Q213.676 774.738 207.866 774.738 Q202.056 774.738 198.977 770.154 Q195.922 765.548 195.922 756.821 Q195.922 748.071 198.977 743.488 Q202.056 738.881 207.866 738.881 Z" fill="#000000" fill-rule="nonzero" fill-opacity="1" /><path clip-path="url(#clip750)" d="M232.487 721.886 L222.895 736.876 L232.487 736.876 L232.487 721.886 M231.49 718.576 L236.267 718.576 L236.267 736.876 L240.274 736.876 L240.274 740.036 L236.267 740.036 L236.267 746.656 L232.487 746.656 L232.487 740.036 L219.811 740.036 L219.811 736.368 L231.49 718.576 Z" fill="#000000" fill-rule="nonzero" fill-opacity="1" /><path clip-path="url(#clip750)" d="M66.7559 387.378 Q70.1124 388.095 71.9874 390.364 Q73.8855 392.632 73.8855 395.966 Q73.8855 401.081 70.367 403.882 Q66.8485 406.683 60.3671 406.683 Q58.1912 406.683 55.8764 406.243 Q53.5847 405.827 51.131 404.97 L51.131 400.456 Q53.0754 401.59 55.3903 402.169 Q57.7051 402.748 60.2282 402.748 Q64.6263 402.748 66.918 401.012 Q69.2328 399.276 69.2328 395.966 Q69.2328 392.91 67.08 391.197 Q64.9504 389.461 61.131 389.461 L57.1032 389.461 L57.1032 385.618 L61.3161 385.618 Q64.7652 385.618 66.5939 384.253 Q68.4226 382.864 68.4226 380.271 Q68.4226 377.609 66.5245 376.197 Q64.6495 374.762 61.131 374.762 Q59.2097 374.762 57.0106 375.179 Q54.8115 375.595 52.1727 376.475 L52.1727 372.308 Q54.8347 371.568 57.1495 371.197 Q59.4875 370.827 61.5476 370.827 Q66.8717 370.827 69.9735 373.257 Q73.0753 375.665 73.0753 379.785 Q73.0753 382.655 71.4318 384.646 Q69.7883 386.614 66.7559 387.378 Z" fill="#000000" fill-rule="nonzero" fill-opacity="1" /><path clip-path="url(#clip750)" d="M82.7512 400.132 L87.6354 400.132 L87.6354 406.012 L82.7512 406.012 L82.7512 400.132 Z" fill="#000000" fill-rule="nonzero" fill-opacity="1" /><path clip-path="url(#clip750)" d="M107.821 374.53 Q104.209 374.53 102.381 378.095 Q100.575 381.637 100.575 388.766 Q100.575 395.873 102.381 399.438 Q104.209 402.979 107.821 402.979 Q111.455 402.979 113.26 399.438 Q115.089 395.873 115.089 388.766 Q115.089 381.637 113.26 378.095 Q111.455 374.53 107.821 374.53 M107.821 370.827 Q113.631 370.827 116.686 375.433 Q119.765 380.017 119.765 388.766 Q119.765 397.493 116.686 402.1 Q113.631 406.683 107.821 406.683 Q102.01 406.683 98.9317 402.1 Q95.8761 397.493 95.8761 388.766 Q95.8761 380.017 98.9317 375.433 Q102.01 370.827 107.821 370.827 Z" fill="#000000" fill-rule="nonzero" fill-opacity="1" /><path clip-path="url(#clip750)" d="M156.154 380.549 L145.575 391.174 L156.154 401.753 L153.399 404.553 L142.774 393.928 L132.149 404.553 L129.418 401.753 L139.973 391.174 L129.418 380.549 L132.149 377.748 L142.774 388.373 L153.399 377.748 L156.154 380.549 Z" fill="#000000" fill-rule="nonzero" fill-opacity="1" /><path clip-path="url(#clip750)" d="M168.515 402.077 L176.153 402.077 L176.153 375.711 L167.843 377.378 L167.843 373.118 L176.107 371.452 L180.783 371.452 L180.783 402.077 L188.422 402.077 L188.422 406.012 L168.515 406.012 L168.515 402.077 Z" fill="#000000" fill-rule="nonzero" fill-opacity="1" /><path clip-path="url(#clip750)" d="M207.866 374.53 Q204.255 374.53 202.426 378.095 Q200.621 381.637 200.621 388.766 Q200.621 395.873 202.426 399.438 Q204.255 402.979 207.866 402.979 Q211.501 402.979 213.306 399.438 Q215.135 395.873 215.135 388.766 Q215.135 381.637 213.306 378.095 Q211.501 374.53 207.866 374.53 M207.866 370.827 Q213.676 370.827 216.732 375.433 Q219.811 380.017 219.811 388.766 Q219.811 397.493 216.732 402.1 Q213.676 406.683 207.866 406.683 Q202.056 406.683 198.977 402.1 Q195.922 397.493 195.922 388.766 Q195.922 380.017 198.977 375.433 Q202.056 370.827 207.866 370.827 Z" fill="#000000" fill-rule="nonzero" fill-opacity="1" /><path clip-path="url(#clip750)" d="M232.487 353.832 L222.895 368.821 L232.487 368.821 L232.487 353.832 M231.49 350.521 L236.267 350.521 L236.267 368.821 L240.274 368.821 L240.274 371.981 L236.267 371.981 L236.267 378.601 L232.487 378.601 L232.487 371.981 L219.811 371.981 L219.811 368.314 L231.49 350.521 Z" fill="#000000" fill-rule="nonzero" fill-opacity="1" /><path clip-path="url(#clip752)" d="M388.114 67.3767 L388.114 1486.45 L429.985 1486.45 L429.985 67.3767 L388.114 67.3767 L388.114 67.3767  Z" fill="#009af9" fill-rule="evenodd" fill-opacity="1"/>
<polyline clip-path="url(#clip752)" style="stroke:#000000; stroke-linecap:round; stroke-linejoin:round; stroke-width:4; stroke-opacity:1; fill:none" points="388.114,67.3767 388.114,1486.45 429.985,1486.45 429.985,67.3767 388.114,67.3767 "/>
<path clip-path="url(#clip752)" d="M545.131 585.745 L545.131 1486.45 L587.002 1486.45 L587.002 585.745 L545.131 585.745 L545.131 585.745  Z" fill="#009af9" fill-rule="evenodd" fill-opacity="1"/>
<polyline clip-path="url(#clip752)" style="stroke:#000000; stroke-linecap:round; stroke-linejoin:round; stroke-width:4; stroke-opacity:1; fill:none" points="545.131,585.745 545.131,1486.45 587.002,1486.45 587.002,585.745 545.131,585.745 "/>
<path clip-path="url(#clip752)" d="M702.148 950.708 L702.148 1486.45 L744.019 1486.45 L744.019 950.708 L702.148 950.708 L702.148 950.708  Z" fill="#009af9" fill-rule="evenodd" fill-opacity="1"/>
<polyline clip-path="url(#clip752)" style="stroke:#000000; stroke-linecap:round; stroke-linejoin:round; stroke-width:4; stroke-opacity:1; fill:none" points="702.148,950.708 702.148,1486.45 744.019,1486.45 744.019,950.708 702.148,950.708 "/>
<path clip-path="url(#clip752)" d="M859.165 821.741 L859.165 1486.45 L901.036 1486.45 L901.036 821.741 L859.165 821.741 L859.165 821.741  Z" fill="#009af9" fill-rule="evenodd" fill-opacity="1"/>
<polyline clip-path="url(#clip752)" style="stroke:#000000; stroke-linecap:round; stroke-linejoin:round; stroke-width:4; stroke-opacity:1; fill:none" points="859.165,821.741 859.165,1486.45 901.036,1486.45 901.036,821.741 859.165,821.741 "/>
<path clip-path="url(#clip752)" d="M1016.18 766.938 L1016.18 1486.45 L1058.05 1486.45 L1058.05 766.938 L1016.18 766.938 L1016.18 766.938  Z" fill="#009af9" fill-rule="evenodd" fill-opacity="1"/>
<polyline clip-path="url(#clip752)" style="stroke:#000000; stroke-linecap:round; stroke-linejoin:round; stroke-width:4; stroke-opacity:1; fill:none" points="1016.18,766.938 1016.18,1486.45 1058.05,1486.45 1058.05,766.938 1016.18,766.938 "/>
<path clip-path="url(#clip752)" d="M1173.2 1187.51 L1173.2 1486.45 L1215.07 1486.45 L1215.07 1187.51 L1173.2 1187.51 L1173.2 1187.51  Z" fill="#009af9" fill-rule="evenodd" fill-opacity="1"/>
<polyline clip-path="url(#clip752)" style="stroke:#000000; stroke-linecap:round; stroke-linejoin:round; stroke-width:4; stroke-opacity:1; fill:none" points="1173.2,1187.51 1173.2,1486.45 1215.07,1486.45 1215.07,1187.51 1173.2,1187.51 "/>
<path clip-path="url(#clip752)" d="M1330.22 435.983 L1330.22 1486.45 L1372.09 1486.45 L1372.09 435.983 L1330.22 435.983 L1330.22 435.983  Z" fill="#009af9" fill-rule="evenodd" fill-opacity="1"/>
<polyline clip-path="url(#clip752)" style="stroke:#000000; stroke-linecap:round; stroke-linejoin:round; stroke-width:4; stroke-opacity:1; fill:none" points="1330.22,435.983 1330.22,1486.45 1372.09,1486.45 1372.09,435.983 1330.22,435.983 "/>
<path clip-path="url(#clip752)" d="M1487.23 1196.42 L1487.23 1486.45 L1529.1 1486.45 L1529.1 1196.42 L1487.23 1196.42 L1487.23 1196.42  Z" fill="#009af9" fill-rule="evenodd" fill-opacity="1"/>
<polyline clip-path="url(#clip752)" style="stroke:#000000; stroke-linecap:round; stroke-linejoin:round; stroke-width:4; stroke-opacity:1; fill:none" points="1487.23,1196.42 1487.23,1486.45 1529.1,1486.45 1529.1,1196.42 1487.23,1196.42 "/>
<path clip-path="url(#clip752)" d="M1644.25 1365.62 L1644.25 1486.45 L1686.12 1486.45 L1686.12 1365.62 L1644.25 1365.62 L1644.25 1365.62  Z" fill="#009af9" fill-rule="evenodd" fill-opacity="1"/>
<polyline clip-path="url(#clip752)" style="stroke:#000000; stroke-linecap:round; stroke-linejoin:round; stroke-width:4; stroke-opacity:1; fill:none" points="1644.25,1365.62 1644.25,1486.45 1686.12,1486.45 1686.12,1365.62 1644.25,1365.62 "/>
<path clip-path="url(#clip752)" d="M1801.27 1334.26 L1801.27 1486.45 L1843.14 1486.45 L1843.14 1334.26 L1801.27 1334.26 L1801.27 1334.26  Z" fill="#009af9" fill-rule="evenodd" fill-opacity="1"/>
<polyline clip-path="url(#clip752)" style="stroke:#000000; stroke-linecap:round; stroke-linejoin:round; stroke-width:4; stroke-opacity:1; fill:none" points="1801.27,1334.26 1801.27,1486.45 1843.14,1486.45 1843.14,1334.26 1801.27,1334.26 "/>
<path clip-path="url(#clip752)" d="M1958.28 1193.73 L1958.28 1486.45 L2000.16 1486.45 L2000.16 1193.73 L1958.28 1193.73 L1958.28 1193.73  Z" fill="#009af9" fill-rule="evenodd" fill-opacity="1"/>
<polyline clip-path="url(#clip752)" style="stroke:#000000; stroke-linecap:round; stroke-linejoin:round; stroke-width:4; stroke-opacity:1; fill:none" points="1958.28,1193.73 1958.28,1486.45 2000.16,1486.45 2000.16,1193.73 1958.28,1193.73 "/>
<path clip-path="url(#clip752)" d="M2115.3 1417.11 L2115.3 1486.45 L2157.17 1486.45 L2157.17 1417.11 L2115.3 1417.11 L2115.3 1417.11  Z" fill="#009af9" fill-rule="evenodd" fill-opacity="1"/>
<polyline clip-path="url(#clip752)" style="stroke:#000000; stroke-linecap:round; stroke-linejoin:round; stroke-width:4; stroke-opacity:1; fill:none" points="2115.3,1417.11 2115.3,1486.45 2157.17,1486.45 2157.17,1417.11 2115.3,1417.11 "/>
<circle clip-path="url(#clip752)" style="fill:#009af9; stroke:none; fill-opacity:0" cx="409.049" cy="67.3767" r="2"/>
<circle clip-path="url(#clip752)" style="fill:#009af9; stroke:none; fill-opacity:0" cx="566.066" cy="585.745" r="2"/>
<circle clip-path="url(#clip752)" style="fill:#009af9; stroke:none; fill-opacity:0" cx="723.084" cy="950.708" r="2"/>
<circle clip-path="url(#clip752)" style="fill:#009af9; stroke:none; fill-opacity:0" cx="880.101" cy="821.741" r="2"/>
<circle clip-path="url(#clip752)" style="fill:#009af9; stroke:none; fill-opacity:0" cx="1037.12" cy="766.938" r="2"/>
<circle clip-path="url(#clip752)" style="fill:#009af9; stroke:none; fill-opacity:0" cx="1194.13" cy="1187.51" r="2"/>
<circle clip-path="url(#clip752)" style="fill:#009af9; stroke:none; fill-opacity:0" cx="1351.15" cy="435.983" r="2"/>
<circle clip-path="url(#clip752)" style="fill:#009af9; stroke:none; fill-opacity:0" cx="1508.17" cy="1196.42" r="2"/>
<circle clip-path="url(#clip752)" style="fill:#009af9; stroke:none; fill-opacity:0" cx="1665.19" cy="1365.62" r="2"/>
<circle clip-path="url(#clip752)" style="fill:#009af9; stroke:none; fill-opacity:0" cx="1822.2" cy="1334.26" r="2"/>
<circle clip-path="url(#clip752)" style="fill:#009af9; stroke:none; fill-opacity:0" cx="1979.22" cy="1193.73" r="2"/>
<circle clip-path="url(#clip752)" style="fill:#009af9; stroke:none; fill-opacity:0" cx="2136.24" cy="1417.11" r="2"/>
<path clip-path="url(#clip752)" d="M429.985 743.787 L429.985 1486.45 L471.856 1486.45 L471.856 743.787 L429.985 743.787 L429.985 743.787  Z" fill="#e26f46" fill-rule="evenodd" fill-opacity="1"/>
<polyline clip-path="url(#clip752)" style="stroke:#000000; stroke-linecap:round; stroke-linejoin:round; stroke-width:4; stroke-opacity:1; fill:none" points="429.985,743.787 429.985,1486.45 471.856,1486.45 471.856,743.787 429.985,743.787 "/>
<path clip-path="url(#clip752)" d="M587.002 620.195 L587.002 1486.45 L628.873 1486.45 L628.873 620.195 L587.002 620.195 L587.002 620.195  Z" fill="#e26f46" fill-rule="evenodd" fill-opacity="1"/>
<polyline clip-path="url(#clip752)" style="stroke:#000000; stroke-linecap:round; stroke-linejoin:round; stroke-width:4; stroke-opacity:1; fill:none" points="587.002,620.195 587.002,1486.45 628.873,1486.45 628.873,620.195 587.002,620.195 "/>
<path clip-path="url(#clip752)" d="M744.019 214.414 L744.019 1486.45 L785.89 1486.45 L785.89 214.414 L744.019 214.414 L744.019 214.414  Z" fill="#e26f46" fill-rule="evenodd" fill-opacity="1"/>
<polyline clip-path="url(#clip752)" style="stroke:#000000; stroke-linecap:round; stroke-linejoin:round; stroke-width:4; stroke-opacity:1; fill:none" points="744.019,214.414 744.019,1486.45 785.89,1486.45 785.89,214.414 744.019,214.414 "/>
<path clip-path="url(#clip752)" d="M901.036 110.108 L901.036 1486.45 L942.908 1486.45 L942.908 110.108 L901.036 110.108 L901.036 110.108  Z" fill="#e26f46" fill-rule="evenodd" fill-opacity="1"/>
<polyline clip-path="url(#clip752)" style="stroke:#000000; stroke-linecap:round; stroke-linejoin:round; stroke-width:4; stroke-opacity:1; fill:none" points="901.036,110.108 901.036,1486.45 942.908,1486.45 942.908,110.108 901.036,110.108 "/>
<path clip-path="url(#clip752)" d="M1058.05 158.801 L1058.05 1486.45 L1099.92 1486.45 L1099.92 158.801 L1058.05 158.801 L1058.05 158.801  Z" fill="#e26f46" fill-rule="evenodd" fill-opacity="1"/>
<polyline clip-path="url(#clip752)" style="stroke:#000000; stroke-linecap:round; stroke-linejoin:round; stroke-width:4; stroke-opacity:1; fill:none" points="1058.05,158.801 1058.05,1486.45 1099.92,1486.45 1099.92,158.801 1058.05,158.801 "/>
<path clip-path="url(#clip752)" d="M1215.07 299.95 L1215.07 1486.45 L1256.94 1486.45 L1256.94 299.95 L1215.07 299.95 L1215.07 299.95  Z" fill="#e26f46" fill-rule="evenodd" fill-opacity="1"/>
<polyline clip-path="url(#clip752)" style="stroke:#000000; stroke-linecap:round; stroke-linejoin:round; stroke-width:4; stroke-opacity:1; fill:none" points="1215.07,299.95 1215.07,1486.45 1256.94,1486.45 1256.94,299.95 1215.07,299.95 "/>
<path clip-path="url(#clip752)" d="M1372.09 801.977 L1372.09 1486.45 L1413.96 1486.45 L1413.96 801.977 L1372.09 801.977 L1372.09 801.977  Z" fill="#e26f46" fill-rule="evenodd" fill-opacity="1"/>
<polyline clip-path="url(#clip752)" style="stroke:#000000; stroke-linecap:round; stroke-linejoin:round; stroke-width:4; stroke-opacity:1; fill:none" points="1372.09,801.977 1372.09,1486.45 1413.96,1486.45 1413.96,801.977 1372.09,801.977 "/>
<path clip-path="url(#clip752)" d="M1529.1 1140.18 L1529.1 1486.45 L1570.98 1486.45 L1570.98 1140.18 L1529.1 1140.18 L1529.1 1140.18  Z" fill="#e26f46" fill-rule="evenodd" fill-opacity="1"/>
<polyline clip-path="url(#clip752)" style="stroke:#000000; stroke-linecap:round; stroke-linejoin:round; stroke-width:4; stroke-opacity:1; fill:none" points="1529.1,1140.18 1529.1,1486.45 1570.98,1486.45 1570.98,1140.18 1529.1,1140.18 "/>
<path clip-path="url(#clip752)" d="M1686.12 1265.43 L1686.12 1486.45 L1727.99 1486.45 L1727.99 1265.43 L1686.12 1265.43 L1686.12 1265.43  Z" fill="#e26f46" fill-rule="evenodd" fill-opacity="1"/>
<polyline clip-path="url(#clip752)" style="stroke:#000000; stroke-linecap:round; stroke-linejoin:round; stroke-width:4; stroke-opacity:1; fill:none" points="1686.12,1265.43 1686.12,1486.45 1727.99,1486.45 1727.99,1265.43 1686.12,1265.43 "/>
<path clip-path="url(#clip752)" d="M1843.14 1255.75 L1843.14 1486.45 L1885.01 1486.45 L1885.01 1255.75 L1843.14 1255.75 L1843.14 1255.75  Z" fill="#e26f46" fill-rule="evenodd" fill-opacity="1"/>
<polyline clip-path="url(#clip752)" style="stroke:#000000; stroke-linecap:round; stroke-linejoin:round; stroke-width:4; stroke-opacity:1; fill:none" points="1843.14,1255.75 1843.14,1486.45 1885.01,1486.45 1885.01,1255.75 1843.14,1255.75 "/>
<path clip-path="url(#clip752)" d="M2000.16 1156.56 L2000.16 1486.45 L2042.03 1486.45 L2042.03 1156.56 L2000.16 1156.56 L2000.16 1156.56  Z" fill="#e26f46" fill-rule="evenodd" fill-opacity="1"/>
<polyline clip-path="url(#clip752)" style="stroke:#000000; stroke-linecap:round; stroke-linejoin:round; stroke-width:4; stroke-opacity:1; fill:none" points="2000.16,1156.56 2000.16,1486.45 2042.03,1486.45 2042.03,1156.56 2000.16,1156.56 "/>
<path clip-path="url(#clip752)" d="M2157.17 975.515 L2157.17 1486.45 L2199.04 1486.45 L2199.04 975.515 L2157.17 975.515 L2157.17 975.515  Z" fill="#e26f46" fill-rule="evenodd" fill-opacity="1"/>
<polyline clip-path="url(#clip752)" style="stroke:#000000; stroke-linecap:round; stroke-linejoin:round; stroke-width:4; stroke-opacity:1; fill:none" points="2157.17,975.515 2157.17,1486.45 2199.04,1486.45 2199.04,975.515 2157.17,975.515 "/>
<circle clip-path="url(#clip752)" style="fill:#e26f46; stroke:none; fill-opacity:0" cx="450.921" cy="743.787" r="2"/>
<circle clip-path="url(#clip752)" style="fill:#e26f46; stroke:none; fill-opacity:0" cx="607.938" cy="620.195" r="2"/>
<circle clip-path="url(#clip752)" style="fill:#e26f46; stroke:none; fill-opacity:0" cx="764.955" cy="214.414" r="2"/>
<circle clip-path="url(#clip752)" style="fill:#e26f46; stroke:none; fill-opacity:0" cx="921.972" cy="110.108" r="2"/>
<circle clip-path="url(#clip752)" style="fill:#e26f46; stroke:none; fill-opacity:0" cx="1078.99" cy="158.801" r="2"/>
<circle clip-path="url(#clip752)" style="fill:#e26f46; stroke:none; fill-opacity:0" cx="1236.01" cy="299.95" r="2"/>
<circle clip-path="url(#clip752)" style="fill:#e26f46; stroke:none; fill-opacity:0" cx="1393.02" cy="801.977" r="2"/>
<circle clip-path="url(#clip752)" style="fill:#e26f46; stroke:none; fill-opacity:0" cx="1550.04" cy="1140.18" r="2"/>
<circle clip-path="url(#clip752)" style="fill:#e26f46; stroke:none; fill-opacity:0" cx="1707.06" cy="1265.43" r="2"/>
<circle clip-path="url(#clip752)" style="fill:#e26f46; stroke:none; fill-opacity:0" cx="1864.07" cy="1255.75" r="2"/>
<circle clip-path="url(#clip752)" style="fill:#e26f46; stroke:none; fill-opacity:0" cx="2021.09" cy="1156.56" r="2"/>
<circle clip-path="url(#clip752)" style="fill:#e26f46; stroke:none; fill-opacity:0" cx="2178.11" cy="975.515" r="2"/>
<path clip-path="url(#clip752)" d="M471.856 119.493 L471.856 1486.45 L513.727 1486.45 L513.727 119.493 L471.856 119.493 L471.856 119.493  Z" fill="#3da44d" fill-rule="evenodd" fill-opacity="1"/>
<polyline clip-path="url(#clip752)" style="stroke:#000000; stroke-linecap:round; stroke-linejoin:round; stroke-width:4; stroke-opacity:1; fill:none" points="471.856,119.493 471.856,1486.45 513.727,1486.45 513.727,119.493 471.856,119.493 "/>
<path clip-path="url(#clip752)" d="M628.873 302.453 L628.873 1486.45 L670.745 1486.45 L670.745 302.453 L628.873 302.453 L628.873 302.453  Z" fill="#3da44d" fill-rule="evenodd" fill-opacity="1"/>
<polyline clip-path="url(#clip752)" style="stroke:#000000; stroke-linecap:round; stroke-linejoin:round; stroke-width:4; stroke-opacity:1; fill:none" points="628.873,302.453 628.873,1486.45 670.745,1486.45 670.745,302.453 628.873,302.453 "/>
<path clip-path="url(#clip752)" d="M785.89 105.029 L785.89 1486.45 L827.762 1486.45 L827.762 105.029 L785.89 105.029 L785.89 105.029  Z" fill="#3da44d" fill-rule="evenodd" fill-opacity="1"/>
<polyline clip-path="url(#clip752)" style="stroke:#000000; stroke-linecap:round; stroke-linejoin:round; stroke-width:4; stroke-opacity:1; fill:none" points="785.89,105.029 785.89,1486.45 827.762,1486.45 827.762,105.029 785.89,105.029 "/>
<path clip-path="url(#clip752)" d="M942.908 47.2441 L942.908 1486.45 L984.779 1486.45 L984.779 47.2441 L942.908 47.2441 L942.908 47.2441  Z" fill="#3da44d" fill-rule="evenodd" fill-opacity="1"/>
<polyline clip-path="url(#clip752)" style="stroke:#000000; stroke-linecap:round; stroke-linejoin:round; stroke-width:4; stroke-opacity:1; fill:none" points="942.908,47.2441 942.908,1486.45 984.779,1486.45 984.779,47.2441 942.908,47.2441 "/>
<path clip-path="url(#clip752)" d="M1099.92 262.887 L1099.92 1486.45 L1141.8 1486.45 L1141.8 262.887 L1099.92 262.887 L1099.92 262.887  Z" fill="#3da44d" fill-rule="evenodd" fill-opacity="1"/>
<polyline clip-path="url(#clip752)" style="stroke:#000000; stroke-linecap:round; stroke-linejoin:round; stroke-width:4; stroke-opacity:1; fill:none" points="1099.92,262.887 1099.92,1486.45 1141.8,1486.45 1141.8,262.887 1099.92,262.887 "/>
<path clip-path="url(#clip752)" d="M1256.94 630.022 L1256.94 1486.45 L1298.81 1486.45 L1298.81 630.022 L1256.94 630.022 L1256.94 630.022  Z" fill="#3da44d" fill-rule="evenodd" fill-opacity="1"/>
<polyline clip-path="url(#clip752)" style="stroke:#000000; stroke-linecap:round; stroke-linejoin:round; stroke-width:4; stroke-opacity:1; fill:none" points="1256.94,630.022 1256.94,1486.45 1298.81,1486.45 1298.81,630.022 1256.94,630.022 "/>
<path clip-path="url(#clip752)" d="M1413.96 870.435 L1413.96 1486.45 L1455.83 1486.45 L1455.83 870.435 L1413.96 870.435 L1413.96 870.435  Z" fill="#3da44d" fill-rule="evenodd" fill-opacity="1"/>
<polyline clip-path="url(#clip752)" style="stroke:#000000; stroke-linecap:round; stroke-linejoin:round; stroke-width:4; stroke-opacity:1; fill:none" points="1413.96,870.435 1413.96,1486.45 1455.83,1486.45 1455.83,870.435 1413.96,870.435 "/>
<path clip-path="url(#clip752)" d="M1570.98 1287.29 L1570.98 1486.45 L1612.85 1486.45 L1612.85 1287.29 L1570.98 1287.29 L1570.98 1287.29  Z" fill="#3da44d" fill-rule="evenodd" fill-opacity="1"/>
<polyline clip-path="url(#clip752)" style="stroke:#000000; stroke-linecap:round; stroke-linejoin:round; stroke-width:4; stroke-opacity:1; fill:none" points="1570.98,1287.29 1570.98,1486.45 1612.85,1486.45 1612.85,1287.29 1570.98,1287.29 "/>
<path clip-path="url(#clip752)" d="M1727.99 1360.02 L1727.99 1486.45 L1769.86 1486.45 L1769.86 1360.02 L1727.99 1360.02 L1727.99 1360.02  Z" fill="#3da44d" fill-rule="evenodd" fill-opacity="1"/>
<polyline clip-path="url(#clip752)" style="stroke:#000000; stroke-linecap:round; stroke-linejoin:round; stroke-width:4; stroke-opacity:1; fill:none" points="1727.99,1360.02 1727.99,1486.45 1769.86,1486.45 1769.86,1360.02 1727.99,1360.02 "/>
<path clip-path="url(#clip752)" d="M1885.01 1263.7 L1885.01 1486.45 L1926.88 1486.45 L1926.88 1263.7 L1885.01 1263.7 L1885.01 1263.7  Z" fill="#3da44d" fill-rule="evenodd" fill-opacity="1"/>
<polyline clip-path="url(#clip752)" style="stroke:#000000; stroke-linecap:round; stroke-linejoin:round; stroke-width:4; stroke-opacity:1; fill:none" points="1885.01,1263.7 1885.01,1486.45 1926.88,1486.45 1926.88,1263.7 1885.01,1263.7 "/>
<path clip-path="url(#clip752)" d="M2042.03 1014.42 L2042.03 1486.45 L2083.9 1486.45 L2083.9 1014.42 L2042.03 1014.42 L2042.03 1014.42  Z" fill="#3da44d" fill-rule="evenodd" fill-opacity="1"/>
<polyline clip-path="url(#clip752)" style="stroke:#000000; stroke-linecap:round; stroke-linejoin:round; stroke-width:4; stroke-opacity:1; fill:none" points="2042.03,1014.42 2042.03,1486.45 2083.9,1486.45 2083.9,1014.42 2042.03,1014.42 "/>
<path clip-path="url(#clip752)" d="M2199.04 627.703 L2199.04 1486.45 L2240.92 1486.45 L2240.92 627.703 L2199.04 627.703 L2199.04 627.703  Z" fill="#3da44d" fill-rule="evenodd" fill-opacity="1"/>
<polyline clip-path="url(#clip752)" style="stroke:#000000; stroke-linecap:round; stroke-linejoin:round; stroke-width:4; stroke-opacity:1; fill:none" points="2199.04,627.703 2199.04,1486.45 2240.92,1486.45 2240.92,627.703 2199.04,627.703 "/>
<circle clip-path="url(#clip752)" style="fill:#3da44d; stroke:none; fill-opacity:0" cx="492.792" cy="119.493" r="2"/>
<circle clip-path="url(#clip752)" style="fill:#3da44d; stroke:none; fill-opacity:0" cx="649.809" cy="302.453" r="2"/>
<circle clip-path="url(#clip752)" style="fill:#3da44d; stroke:none; fill-opacity:0" cx="806.826" cy="105.029" r="2"/>
<circle clip-path="url(#clip752)" style="fill:#3da44d; stroke:none; fill-opacity:0" cx="963.843" cy="47.2441" r="2"/>
<circle clip-path="url(#clip752)" style="fill:#3da44d; stroke:none; fill-opacity:0" cx="1120.86" cy="262.887" r="2"/>
<circle clip-path="url(#clip752)" style="fill:#3da44d; stroke:none; fill-opacity:0" cx="1277.88" cy="630.022" r="2"/>
<circle clip-path="url(#clip752)" style="fill:#3da44d; stroke:none; fill-opacity:0" cx="1434.89" cy="870.435" r="2"/>
<circle clip-path="url(#clip752)" style="fill:#3da44d; stroke:none; fill-opacity:0" cx="1591.91" cy="1287.29" r="2"/>
<circle clip-path="url(#clip752)" style="fill:#3da44d; stroke:none; fill-opacity:0" cx="1748.93" cy="1360.02" r="2"/>
<circle clip-path="url(#clip752)" style="fill:#3da44d; stroke:none; fill-opacity:0" cx="1905.95" cy="1263.7" r="2"/>
<circle clip-path="url(#clip752)" style="fill:#3da44d; stroke:none; fill-opacity:0" cx="2062.96" cy="1014.42" r="2"/>
<circle clip-path="url(#clip752)" style="fill:#3da44d; stroke:none; fill-opacity:0" cx="2219.98" cy="627.703" r="2"/>
<path clip-path="url(#clip750)" d="M2022.88 302.578 L2283.54 302.578 L2283.54 95.2176 L2022.88 95.2176  Z" fill="#ffffff" fill-rule="evenodd" fill-opacity="1"/>
<polyline clip-path="url(#clip750)" style="stroke:#000000; stroke-linecap:round; stroke-linejoin:round; stroke-width:4; stroke-opacity:1; fill:none" points="2022.88,302.578 2283.54,302.578 2283.54,95.2176 2022.88,95.2176 2022.88,302.578 "/>
<path clip-path="url(#clip750)" d="M2045.95 167.794 L2184.39 167.794 L2184.39 126.322 L2045.95 126.322 L2045.95 167.794  Z" fill="#009af9" fill-rule="evenodd" fill-opacity="1"/>
<polyline clip-path="url(#clip750)" style="stroke:#000000; stroke-linecap:round; stroke-linejoin:round; stroke-width:4; stroke-opacity:1; fill:none" points="2045.95,167.794 2184.39,167.794 2184.39,126.322 2045.95,126.322 2045.95,167.794 "/>
<path clip-path="url(#clip750)" d="M2221.3 166.745 Q2219.5 171.375 2217.78 172.787 Q2216.07 174.199 2213.2 174.199 L2209.8 174.199 L2209.8 170.634 L2212.3 170.634 Q2214.06 170.634 2215.03 169.8 Q2216 168.967 2217.18 165.865 L2217.94 163.921 L2207.46 138.412 L2211.97 138.412 L2220.07 158.689 L2228.18 138.412 L2232.69 138.412 L2221.3 166.745 Z" fill="#000000" fill-rule="nonzero" fill-opacity="1" /><path clip-path="url(#clip750)" d="M2239.98 160.402 L2247.62 160.402 L2247.62 134.037 L2239.31 135.703 L2239.31 131.444 L2247.57 129.778 L2252.25 129.778 L2252.25 160.402 L2259.89 160.402 L2259.89 164.338 L2239.98 164.338 L2239.98 160.402 Z" fill="#000000" fill-rule="nonzero" fill-opacity="1" /><path clip-path="url(#clip750)" d="M2045.95 219.634 L2184.39 219.634 L2184.39 178.162 L2045.95 178.162 L2045.95 219.634  Z" fill="#e26f46" fill-rule="evenodd" fill-opacity="1"/>
<polyline clip-path="url(#clip750)" style="stroke:#000000; stroke-linecap:round; stroke-linejoin:round; stroke-width:4; stroke-opacity:1; fill:none" points="2045.95,219.634 2184.39,219.634 2184.39,178.162 2045.95,178.162 2045.95,219.634 "/>
<path clip-path="url(#clip750)" d="M2221.3 218.585 Q2219.5 223.215 2217.78 224.627 Q2216.07 226.039 2213.2 226.039 L2209.8 226.039 L2209.8 222.474 L2212.3 222.474 Q2214.06 222.474 2215.03 221.64 Q2216 220.807 2217.18 217.705 L2217.94 215.761 L2207.46 190.252 L2211.97 190.252 L2220.07 210.529 L2228.18 190.252 L2232.69 190.252 L2221.3 218.585 Z" fill="#000000" fill-rule="nonzero" fill-opacity="1" /><path clip-path="url(#clip750)" d="M2243.2 212.242 L2259.52 212.242 L2259.52 216.178 L2237.57 216.178 L2237.57 212.242 Q2240.24 209.488 2244.82 204.858 Q2249.43 200.205 2250.61 198.863 Q2252.85 196.34 2253.73 194.604 Q2254.63 192.844 2254.63 191.155 Q2254.63 188.4 2252.69 186.664 Q2250.77 184.928 2247.67 184.928 Q2245.47 184.928 2243.01 185.692 Q2240.58 186.455 2237.81 188.006 L2237.81 183.284 Q2240.63 182.15 2243.08 181.571 Q2245.54 180.993 2247.57 180.993 Q2252.94 180.993 2256.14 183.678 Q2259.33 186.363 2259.33 190.854 Q2259.33 192.983 2258.52 194.905 Q2257.74 196.803 2255.63 199.395 Q2255.05 200.067 2251.95 203.284 Q2248.85 206.479 2243.2 212.242 Z" fill="#000000" fill-rule="nonzero" fill-opacity="1" /><path clip-path="url(#clip750)" d="M2045.95 271.474 L2184.39 271.474 L2184.39 230.002 L2045.95 230.002 L2045.95 271.474  Z" fill="#3da44d" fill-rule="evenodd" fill-opacity="1"/>
<polyline clip-path="url(#clip750)" style="stroke:#000000; stroke-linecap:round; stroke-linejoin:round; stroke-width:4; stroke-opacity:1; fill:none" points="2045.95,271.474 2184.39,271.474 2184.39,230.002 2045.95,230.002 2045.95,271.474 "/>
<path clip-path="url(#clip750)" d="M2221.3 270.425 Q2219.5 275.055 2217.78 276.467 Q2216.07 277.879 2213.2 277.879 L2209.8 277.879 L2209.8 274.314 L2212.3 274.314 Q2214.06 274.314 2215.03 273.48 Q2216 272.647 2217.18 269.545 L2217.94 267.601 L2207.46 242.092 L2211.97 242.092 L2220.07 262.369 L2228.18 242.092 L2232.69 242.092 L2221.3 270.425 Z" fill="#000000" fill-rule="nonzero" fill-opacity="1" /><path clip-path="url(#clip750)" d="M2253.34 249.383 Q2256.69 250.101 2258.57 252.369 Q2260.47 254.638 2260.47 257.971 Q2260.47 263.087 2256.95 265.888 Q2253.43 268.689 2246.95 268.689 Q2244.77 268.689 2242.46 268.249 Q2240.17 267.832 2237.71 266.976 L2237.71 262.462 Q2239.66 263.596 2241.97 264.175 Q2244.29 264.754 2246.81 264.754 Q2251.21 264.754 2253.5 263.018 Q2255.82 261.281 2255.82 257.971 Q2255.82 254.916 2253.66 253.203 Q2251.53 251.467 2247.71 251.467 L2243.69 251.467 L2243.69 247.624 L2247.9 247.624 Q2251.35 247.624 2253.18 246.258 Q2255 244.87 2255 242.277 Q2255 239.615 2253.11 238.203 Q2251.23 236.768 2247.71 236.768 Q2245.79 236.768 2243.59 237.184 Q2241.39 237.601 2238.75 238.481 L2238.75 234.314 Q2241.42 233.573 2243.73 233.203 Q2246.07 232.833 2248.13 232.833 Q2253.45 232.833 2256.56 235.263 Q2259.66 237.67 2259.66 241.791 Q2259.66 244.661 2258.01 246.652 Q2256.37 248.62 2253.34 249.383 Z" fill="#000000" fill-rule="nonzero" fill-opacity="1" /></svg>
