<?xml version="1.0" encoding="utf-8"?>
<svg xmlns="http://www.w3.org/2000/svg" xmlns:xlink="http://www.w3.org/1999/xlink" width="600" height="400" viewBox="0 0 2400 1600">
<defs>
  <clipPath id="clip330">
    <rect x="0" y="0" width="2400" height="1600"/>
  </clipPath>
</defs>
<path clip-path="url(#clip330)" d="M0 1600 L2400 1600 L2400 0 L0 0  Z" fill="#ffffff" fill-rule="evenodd" fill-opacity="1"/>
<defs>
  <clipPath id="clip331">
    <rect x="480" y="0" width="1681" height="1600"/>
  </clipPath>
</defs>
<path clip-path="url(#clip330)" d="M202.714 1423.18 L2352.76 1423.18 L2352.76 47.2441 L202.714 47.2441  Z" fill="#ffffff" fill-rule="evenodd" fill-opacity="1"/>
<defs>
  <clipPath id="clip332">
    <rect x="202" y="47" width="2151" height="1377"/>
  </clipPath>
</defs>
<polyline clip-path="url(#clip332)" style="stroke:#000000; stroke-linecap:round; stroke-linejoin:round; stroke-width:2; stroke-opacity:0.1; fill:none" points="263.486,1423.18 263.486,47.2441 "/>
<polyline clip-path="url(#clip332)" style="stroke:#000000; stroke-linecap:round; stroke-linejoin:round; stroke-width:2; stroke-opacity:0.1; fill:none" points="770.699,1423.18 770.699,47.2441 "/>
<polyline clip-path="url(#clip332)" style="stroke:#000000; stroke-linecap:round; stroke-linejoin:round; stroke-width:2; stroke-opacity:0.1; fill:none" points="1277.91,1423.18 1277.91,47.2441 "/>
<polyline clip-path="url(#clip332)" style="stroke:#000000; stroke-linecap:round; stroke-linejoin:round; stroke-width:2; stroke-opacity:0.1; fill:none" points="1785.13,1423.18 1785.13,47.2441 "/>
<polyline clip-path="url(#clip332)" style="stroke:#000000; stroke-linecap:round; stroke-linejoin:round; stroke-width:2; stroke-opacity:0.1; fill:none" points="2292.34,1423.18 2292.34,47.2441 "/>
<polyline clip-path="url(#clip330)" style="stroke:#000000; stroke-linecap:round; stroke-linejoin:round; stroke-width:4; stroke-opacity:1; fill:none" points="202.714,1423.18 2352.76,1423.18 "/>
<polyline clip-path="url(#clip330)" style="stroke:#000000; stroke-linecap:round; stroke-linejoin:round; stroke-width:4; stroke-opacity:1; fill:none" points="263.486,1423.18 263.486,1404.28 "/>
<polyline clip-path="url(#clip330)" style="stroke:#000000; stroke-linecap:round; stroke-linejoin:round; stroke-width:4; stroke-opacity:1; fill:none" points="770.699,1423.18 770.699,1404.28 "/>
<polyline clip-path="url(#clip330)" style="stroke:#000000; stroke-linecap:round; stroke-linejoin:round; stroke-width:4; stroke-opacity:1; fill:none" points="1277.91,1423.18 1277.91,1404.28 "/>
<polyline clip-path="url(#clip330)" style="stroke:#000000; stroke-linecap:round; stroke-linejoin:round; stroke-width:4; stroke-opacity:1; fill:none" points="1785.13,1423.18 1785.13,1404.28 "/>
<polyline clip-path="url(#clip330)" style="stroke:#000000; stroke-linecap:round; stroke-linejoin:round; stroke-width:4; stroke-opacity:1; fill:none" points="2292.34,1423.18 2292.34,1404.28 "/>
<path clip-path="url(#clip330)" d="M210.014 1468.75 L239.69 1468.75 L239.69 1472.69 L210.014 1472.69 L210.014 1468.75 Z" fill="#000000" fill-rule="nonzero" fill-opacity="1" /><path clip-path="url(#clip330)" d="M250.593 1481.64 L258.231 1481.64 L258.231 1455.28 L249.921 1456.95 L249.921 1452.69 L258.185 1451.02 L262.861 1451.02 L262.861 1481.64 L270.5 1481.64 L270.5 1485.58 L250.593 1485.58 L250.593 1481.64 Z" fill="#000000" fill-rule="nonzero" fill-opacity="1" /><path clip-path="url(#clip330)" d="M279.944 1479.7 L284.828 1479.7 L284.828 1485.58 L279.944 1485.58 L279.944 1479.7 Z" fill="#000000" fill-rule="nonzero" fill-opacity="1" /><path clip-path="url(#clip330)" d="M305.014 1454.1 Q301.402 1454.1 299.574 1457.66 Q297.768 1461.2 297.768 1468.33 Q297.768 1475.44 299.574 1479.01 Q301.402 1482.55 305.014 1482.55 Q308.648 1482.55 310.453 1479.01 Q312.282 1475.44 312.282 1468.33 Q312.282 1461.2 310.453 1457.66 Q308.648 1454.1 305.014 1454.1 M305.014 1450.39 Q310.824 1450.39 313.879 1455 Q316.958 1459.58 316.958 1468.33 Q316.958 1477.06 313.879 1481.67 Q310.824 1486.25 305.014 1486.25 Q299.203 1486.25 296.125 1481.67 Q293.069 1477.06 293.069 1468.33 Q293.069 1459.58 296.125 1455 Q299.203 1450.39 305.014 1450.39 Z" fill="#000000" fill-rule="nonzero" fill-opacity="1" /><path clip-path="url(#clip330)" d="M717.725 1468.75 L747.401 1468.75 L747.401 1472.69 L717.725 1472.69 L717.725 1468.75 Z" fill="#000000" fill-rule="nonzero" fill-opacity="1" /><path clip-path="url(#clip330)" d="M767.493 1454.1 Q763.882 1454.1 762.053 1457.66 Q760.248 1461.2 760.248 1468.33 Q760.248 1475.44 762.053 1479.01 Q763.882 1482.55 767.493 1482.55 Q771.127 1482.55 772.933 1479.01 Q774.762 1475.44 774.762 1468.33 Q774.762 1461.2 772.933 1457.66 Q771.127 1454.1 767.493 1454.1 M767.493 1450.39 Q773.303 1450.39 776.359 1455 Q779.437 1459.58 779.437 1468.33 Q779.437 1477.06 776.359 1481.67 Q773.303 1486.25 767.493 1486.25 Q761.683 1486.25 758.604 1481.67 Q755.549 1477.06 755.549 1468.33 Q755.549 1459.58 758.604 1455 Q761.683 1450.39 767.493 1450.39 Z" fill="#000000" fill-rule="nonzero" fill-opacity="1" /><path clip-path="url(#clip330)" d="M787.655 1479.7 L792.539 1479.7 L792.539 1485.58 L787.655 1485.58 L787.655 1479.7 Z" fill="#000000" fill-rule="nonzero" fill-opacity="1" /><path clip-path="url(#clip330)" d="M802.771 1451.02 L821.127 1451.02 L821.127 1454.96 L807.053 1454.96 L807.053 1463.43 Q808.072 1463.08 809.09 1462.92 Q810.109 1462.73 811.127 1462.73 Q816.914 1462.73 820.294 1465.9 Q823.673 1469.08 823.673 1474.49 Q823.673 1480.07 820.201 1483.17 Q816.729 1486.25 810.409 1486.25 Q808.234 1486.25 805.965 1485.88 Q803.72 1485.51 801.312 1484.77 L801.312 1480.07 Q803.396 1481.2 805.618 1481.76 Q807.84 1482.32 810.317 1482.32 Q814.321 1482.32 816.659 1480.21 Q818.997 1478.1 818.997 1474.49 Q818.997 1470.88 816.659 1468.77 Q814.321 1466.67 810.317 1466.67 Q808.442 1466.67 806.567 1467.08 Q804.715 1467.5 802.771 1468.38 L802.771 1451.02 Z" fill="#000000" fill-rule="nonzero" fill-opacity="1" /><path clip-path="url(#clip330)" d="M1255.3 1454.1 Q1251.69 1454.1 1249.86 1457.66 Q1248.05 1461.2 1248.05 1468.33 Q1248.05 1475.44 1249.86 1479.01 Q1251.69 1482.55 1255.3 1482.55 Q1258.93 1482.55 1260.74 1479.01 Q1262.56 1475.44 1262.56 1468.33 Q1262.56 1461.2 1260.74 1457.66 Q1258.93 1454.1 1255.3 1454.1 M1255.3 1450.39 Q1261.11 1450.39 1264.16 1455 Q1267.24 1459.58 1267.24 1468.33 Q1267.24 1477.06 1264.16 1481.67 Q1261.11 1486.25 1255.3 1486.25 Q1249.49 1486.25 1246.41 1481.67 Q1243.35 1477.06 1243.35 1468.33 Q1243.35 1459.58 1246.41 1455 Q1249.49 1450.39 1255.3 1450.39 Z" fill="#000000" fill-rule="nonzero" fill-opacity="1" /><path clip-path="url(#clip330)" d="M1275.46 1479.7 L1280.34 1479.7 L1280.34 1485.58 L1275.46 1485.58 L1275.46 1479.7 Z" fill="#000000" fill-rule="nonzero" fill-opacity="1" /><path clip-path="url(#clip330)" d="M1300.53 1454.1 Q1296.92 1454.1 1295.09 1457.66 Q1293.28 1461.2 1293.28 1468.33 Q1293.28 1475.44 1295.09 1479.01 Q1296.92 1482.55 1300.53 1482.55 Q1304.16 1482.55 1305.97 1479.01 Q1307.8 1475.44 1307.8 1468.33 Q1307.8 1461.2 1305.97 1457.66 Q1304.16 1454.1 1300.53 1454.1 M1300.53 1450.39 Q1306.34 1450.39 1309.39 1455 Q1312.47 1459.58 1312.47 1468.33 Q1312.47 1477.06 1309.39 1481.67 Q1306.34 1486.25 1300.53 1486.25 Q1294.72 1486.25 1291.64 1481.67 Q1288.58 1477.06 1288.58 1468.33 Q1288.58 1459.58 1291.64 1455 Q1294.72 1450.39 1300.53 1450.39 Z" fill="#000000" fill-rule="nonzero" fill-opacity="1" /><path clip-path="url(#clip330)" d="M1763.01 1454.1 Q1759.4 1454.1 1757.57 1457.66 Q1755.76 1461.2 1755.76 1468.33 Q1755.76 1475.44 1757.57 1479.01 Q1759.4 1482.55 1763.01 1482.55 Q1766.64 1482.55 1768.45 1479.01 Q1770.28 1475.44 1770.28 1468.33 Q1770.28 1461.2 1768.45 1457.66 Q1766.64 1454.1 1763.01 1454.1 M1763.01 1450.39 Q1768.82 1450.39 1771.87 1455 Q1774.95 1459.58 1774.95 1468.33 Q1774.95 1477.06 1771.87 1481.67 Q1768.82 1486.25 1763.01 1486.25 Q1757.2 1486.25 1754.12 1481.67 Q1751.06 1477.06 1751.06 1468.33 Q1751.06 1459.58 1754.12 1455 Q1757.2 1450.39 1763.01 1450.39 Z" fill="#000000" fill-rule="nonzero" fill-opacity="1" /><path clip-path="url(#clip330)" d="M1783.17 1479.7 L1788.05 1479.7 L1788.05 1485.58 L1783.17 1485.58 L1783.17 1479.7 Z" fill="#000000" fill-rule="nonzero" fill-opacity="1" /><path clip-path="url(#clip330)" d="M1798.28 1451.02 L1816.64 1451.02 L1816.64 1454.96 L1802.57 1454.96 L1802.57 1463.43 Q1803.59 1463.08 1804.6 1462.92 Q1805.62 1462.73 1806.64 1462.73 Q1812.43 1462.73 1815.81 1465.9 Q1819.19 1469.08 1819.19 1474.49 Q1819.19 1480.07 1815.72 1483.17 Q1812.24 1486.25 1805.92 1486.25 Q1803.75 1486.25 1801.48 1485.88 Q1799.23 1485.51 1796.83 1484.77 L1796.83 1480.07 Q1798.91 1481.2 1801.13 1481.76 Q1803.35 1482.32 1805.83 1482.32 Q1809.84 1482.32 1812.17 1480.21 Q1814.51 1478.1 1814.51 1474.49 Q1814.51 1470.88 1812.17 1468.77 Q1809.84 1466.67 1805.83 1466.67 Q1803.96 1466.67 1802.08 1467.08 Q1800.23 1467.5 1798.28 1468.38 L1798.28 1451.02 Z" fill="#000000" fill-rule="nonzero" fill-opacity="1" /><path clip-path="url(#clip330)" d="M2259.49 1481.64 L2267.13 1481.64 L2267.13 1455.28 L2258.82 1456.95 L2258.82 1452.69 L2267.08 1451.02 L2271.76 1451.02 L2271.76 1481.64 L2279.4 1481.64 L2279.4 1485.58 L2259.49 1485.58 L2259.49 1481.64 Z" fill="#000000" fill-rule="nonzero" fill-opacity="1" /><path clip-path="url(#clip330)" d="M2288.84 1479.7 L2293.73 1479.7 L2293.73 1485.58 L2288.84 1485.58 L2288.84 1479.7 Z" fill="#000000" fill-rule="nonzero" fill-opacity="1" /><path clip-path="url(#clip330)" d="M2313.91 1454.1 Q2310.3 1454.1 2308.47 1457.66 Q2306.67 1461.2 2306.67 1468.33 Q2306.67 1475.44 2308.47 1479.01 Q2310.3 1482.55 2313.91 1482.55 Q2317.55 1482.55 2319.35 1479.01 Q2321.18 1475.44 2321.18 1468.33 Q2321.18 1461.2 2319.35 1457.66 Q2317.55 1454.1 2313.91 1454.1 M2313.91 1450.39 Q2319.72 1450.39 2322.78 1455 Q2325.86 1459.58 2325.86 1468.33 Q2325.86 1477.06 2322.78 1481.67 Q2319.72 1486.25 2313.91 1486.25 Q2308.1 1486.25 2305.02 1481.67 Q2301.97 1477.06 2301.97 1468.33 Q2301.97 1459.58 2305.02 1455 Q2308.1 1450.39 2313.91 1450.39 Z" fill="#000000" fill-rule="nonzero" fill-opacity="1" /><path clip-path="url(#clip330)" d="M1216.23 1533.45 L1216.23 1538.98 Q1213.74 1537.71 1211.07 1537.07 Q1208.4 1536.44 1205.53 1536.44 Q1201.17 1536.44 1198.98 1537.77 Q1196.81 1539.11 1196.81 1541.79 Q1196.81 1543.82 1198.37 1545 Q1199.93 1546.15 1204.64 1547.2 L1206.65 1547.64 Q1212.88 1548.98 1215.49 1551.43 Q1218.14 1553.85 1218.14 1558.21 Q1218.14 1563.17 1214.19 1566.07 Q1210.27 1568.97 1203.4 1568.97 Q1200.53 1568.97 1197.42 1568.39 Q1194.33 1567.85 1190.89 1566.74 L1190.89 1560.69 Q1194.14 1562.38 1197.29 1563.24 Q1200.44 1564.07 1203.53 1564.07 Q1207.66 1564.07 1209.89 1562.66 Q1212.12 1561.23 1212.12 1558.65 Q1212.12 1556.27 1210.5 1554.99 Q1208.91 1553.72 1203.46 1552.54 L1201.43 1552.07 Q1195.98 1550.92 1193.56 1548.56 Q1191.15 1546.18 1191.15 1542.04 Q1191.15 1537.01 1194.71 1534.27 Q1198.27 1531.54 1204.83 1531.54 Q1208.08 1531.54 1210.94 1532.01 Q1213.81 1532.49 1216.23 1533.45 Z" fill="#000000" fill-rule="nonzero" fill-opacity="1" /><path clip-path="url(#clip330)" d="M1227.46 1532.4 L1233.32 1532.4 L1233.32 1568.04 L1227.46 1568.04 L1227.46 1532.4 M1227.46 1518.52 L1233.32 1518.52 L1233.32 1525.93 L1227.46 1525.93 L1227.46 1518.52 Z" fill="#000000" fill-rule="nonzero" fill-opacity="1" /><path clip-path="url(#clip330)" d="M1275.2 1546.53 L1275.2 1568.04 L1269.35 1568.04 L1269.35 1546.72 Q1269.35 1541.66 1267.37 1539.14 Q1265.4 1536.63 1261.45 1536.63 Q1256.71 1536.63 1253.97 1539.65 Q1251.24 1542.68 1251.24 1547.9 L1251.24 1568.04 L1245.35 1568.04 L1245.35 1532.4 L1251.24 1532.4 L1251.24 1537.93 Q1253.34 1534.72 1256.17 1533.13 Q1259.04 1531.54 1262.76 1531.54 Q1268.9 1531.54 1272.05 1535.36 Q1275.2 1539.14 1275.2 1546.53 Z" fill="#000000" fill-rule="nonzero" fill-opacity="1" /><path clip-path="url(#clip330)" d="M1300.95 1518.58 Q1296.69 1525.9 1294.62 1533.06 Q1292.55 1540.23 1292.55 1547.58 Q1292.55 1554.93 1294.62 1562.16 Q1296.72 1569.35 1300.95 1576.64 L1295.86 1576.64 Q1291.09 1569.16 1288.7 1561.93 Q1286.34 1554.71 1286.34 1547.58 Q1286.34 1540.48 1288.7 1533.29 Q1291.05 1526.09 1295.86 1518.58 L1300.95 1518.58 Z" fill="#000000" fill-rule="nonzero" fill-opacity="1" /><path clip-path="url(#clip330)" d="M1327.15 1571.35 Q1324.67 1577.72 1322.31 1579.66 Q1319.96 1581.6 1316.01 1581.6 L1311.33 1581.6 L1311.33 1576.7 L1314.77 1576.7 Q1317.19 1576.7 1318.52 1575.56 Q1319.86 1574.41 1321.48 1570.14 L1322.53 1567.47 L1308.12 1532.4 L1314.32 1532.4 L1325.46 1560.28 L1336.6 1532.4 L1342.81 1532.4 L1327.15 1571.35 Z" fill="#000000" fill-rule="nonzero" fill-opacity="1" /><path clip-path="url(#clip330)" d="M1349.97 1518.58 L1355.06 1518.58 Q1359.84 1526.09 1362.19 1533.29 Q1364.58 1540.48 1364.58 1547.58 Q1364.58 1554.71 1362.19 1561.93 Q1359.84 1569.16 1355.06 1576.64 L1349.97 1576.64 Q1354.2 1569.35 1356.27 1562.16 Q1358.37 1554.93 1358.37 1547.58 Q1358.37 1540.23 1356.27 1533.06 Q1354.2 1525.9 1349.97 1518.58 Z" fill="#000000" fill-rule="nonzero" fill-opacity="1" /><polyline clip-path="url(#clip332)" style="stroke:#000000; stroke-linecap:round; stroke-linejoin:round; stroke-width:2; stroke-opacity:0.1; fill:none" points="202.714,1291.52 2352.76,1291.52 "/>
<polyline clip-path="url(#clip332)" style="stroke:#000000; stroke-linecap:round; stroke-linejoin:round; stroke-width:2; stroke-opacity:0.1; fill:none" points="202.714,1106.08 2352.76,1106.08 "/>
<polyline clip-path="url(#clip332)" style="stroke:#000000; stroke-linecap:round; stroke-linejoin:round; stroke-width:2; stroke-opacity:0.1; fill:none" points="202.714,920.648 2352.76,920.648 "/>
<polyline clip-path="url(#clip332)" style="stroke:#000000; stroke-linecap:round; stroke-linejoin:round; stroke-width:2; stroke-opacity:0.1; fill:none" points="202.714,735.212 2352.76,735.212 "/>
<polyline clip-path="url(#clip332)" style="stroke:#000000; stroke-linecap:round; stroke-linejoin:round; stroke-width:2; stroke-opacity:0.1; fill:none" points="202.714,549.776 2352.76,549.776 "/>
<polyline clip-path="url(#clip332)" style="stroke:#000000; stroke-linecap:round; stroke-linejoin:round; stroke-width:2; stroke-opacity:0.1; fill:none" points="202.714,364.34 2352.76,364.34 "/>
<polyline clip-path="url(#clip332)" style="stroke:#000000; stroke-linecap:round; stroke-linejoin:round; stroke-width:2; stroke-opacity:0.1; fill:none" points="202.714,178.904 2352.76,178.904 "/>
<polyline clip-path="url(#clip330)" style="stroke:#000000; stroke-linecap:round; stroke-linejoin:round; stroke-width:4; stroke-opacity:1; fill:none" points="202.714,1423.18 202.714,47.2441 "/>
<polyline clip-path="url(#clip330)" style="stroke:#000000; stroke-linecap:round; stroke-linejoin:round; stroke-width:4; stroke-opacity:1; fill:none" points="202.714,1291.52 221.611,1291.52 "/>
<polyline clip-path="url(#clip330)" style="stroke:#000000; stroke-linecap:round; stroke-linejoin:round; stroke-width:4; stroke-opacity:1; fill:none" points="202.714,1106.08 221.611,1106.08 "/>
<polyline clip-path="url(#clip330)" style="stroke:#000000; stroke-linecap:round; stroke-linejoin:round; stroke-width:4; stroke-opacity:1; fill:none" points="202.714,920.648 221.611,920.648 "/>
<polyline clip-path="url(#clip330)" style="stroke:#000000; stroke-linecap:round; stroke-linejoin:round; stroke-width:4; stroke-opacity:1; fill:none" points="202.714,735.212 221.611,735.212 "/>
<polyline clip-path="url(#clip330)" style="stroke:#000000; stroke-linecap:round; stroke-linejoin:round; stroke-width:4; stroke-opacity:1; fill:none" points="202.714,549.776 221.611,549.776 "/>
<polyline clip-path="url(#clip330)" style="stroke:#000000; stroke-linecap:round; stroke-linejoin:round; stroke-width:4; stroke-opacity:1; fill:none" points="202.714,364.34 221.611,364.34 "/>
<polyline clip-path="url(#clip330)" style="stroke:#000000; stroke-linecap:round; stroke-linejoin:round; stroke-width:4; stroke-opacity:1; fill:none" points="202.714,178.904 221.611,178.904 "/>
<path clip-path="url(#clip330)" d="M150.394 1304.87 L166.714 1304.87 L166.714 1308.8 L144.769 1308.8 L144.769 1304.87 Q147.431 1302.11 152.015 1297.48 Q156.621 1292.83 157.802 1291.49 Q160.047 1288.96 160.927 1287.23 Q161.829 1285.47 161.829 1283.78 Q161.829 1281.02 159.885 1279.29 Q157.964 1277.55 154.862 1277.55 Q152.663 1277.55 150.209 1278.31 Q147.778 1279.08 145.001 1280.63 L145.001 1275.91 Q147.825 1274.77 150.278 1274.19 Q152.732 1273.62 154.769 1273.62 Q160.14 1273.62 163.334 1276.3 Q166.528 1278.99 166.528 1283.48 Q166.528 1285.61 165.718 1287.53 Q164.931 1289.43 162.825 1292.02 Q162.246 1292.69 159.144 1295.91 Q156.042 1299.1 150.394 1304.87 Z" fill="#000000" fill-rule="nonzero" fill-opacity="1" /><path clip-path="url(#clip330)" d="M157.13 1092.88 L145.325 1111.33 L157.13 1111.33 L157.13 1092.88 M155.903 1088.8 L161.783 1088.8 L161.783 1111.33 L166.714 1111.33 L166.714 1115.22 L161.783 1115.22 L161.783 1123.36 L157.13 1123.36 L157.13 1115.22 L141.529 1115.22 L141.529 1110.7 L155.903 1088.8 Z" fill="#000000" fill-rule="nonzero" fill-opacity="1" /><path clip-path="url(#clip330)" d="M155.186 918.785 Q152.038 918.785 150.186 920.937 Q148.357 923.09 148.357 926.84 Q148.357 930.567 150.186 932.743 Q152.038 934.896 155.186 934.896 Q158.334 934.896 160.163 932.743 Q162.015 930.567 162.015 926.84 Q162.015 923.09 160.163 920.937 Q158.334 918.785 155.186 918.785 M164.468 904.132 L164.468 908.391 Q162.709 907.558 160.903 907.118 Q159.121 906.678 157.362 906.678 Q152.732 906.678 150.278 909.803 Q147.848 912.928 147.501 919.248 Q148.866 917.234 150.927 916.169 Q152.987 915.081 155.464 915.081 Q160.672 915.081 163.681 918.252 Q166.714 921.4 166.714 926.84 Q166.714 932.164 163.565 935.382 Q160.417 938.599 155.186 938.599 Q149.191 938.599 146.019 934.016 Q142.848 929.41 142.848 920.683 Q142.848 912.488 146.737 907.627 Q150.626 902.743 157.177 902.743 Q158.936 902.743 160.718 903.09 Q162.524 903.437 164.468 904.132 Z" fill="#000000" fill-rule="nonzero" fill-opacity="1" /><path clip-path="url(#clip330)" d="M154.862 736.08 Q151.528 736.08 149.607 737.862 Q147.709 739.645 147.709 742.77 Q147.709 745.895 149.607 747.677 Q151.528 749.46 154.862 749.46 Q158.195 749.46 160.116 747.677 Q162.038 745.872 162.038 742.77 Q162.038 739.645 160.116 737.862 Q158.218 736.08 154.862 736.08 M150.186 734.089 Q147.177 733.349 145.487 731.288 Q143.82 729.228 143.82 726.265 Q143.82 722.122 146.76 719.714 Q149.723 717.307 154.862 717.307 Q160.024 717.307 162.964 719.714 Q165.903 722.122 165.903 726.265 Q165.903 729.228 164.214 731.288 Q162.547 733.349 159.561 734.089 Q162.94 734.876 164.815 737.168 Q166.714 739.46 166.714 742.77 Q166.714 747.793 163.635 750.478 Q160.579 753.163 154.862 753.163 Q149.144 753.163 146.066 750.478 Q143.01 747.793 143.01 742.77 Q143.01 739.46 144.908 737.168 Q146.806 734.876 150.186 734.089 M148.473 726.705 Q148.473 729.39 150.14 730.895 Q151.829 732.399 154.862 732.399 Q157.871 732.399 159.561 730.895 Q161.274 729.39 161.274 726.705 Q161.274 724.02 159.561 722.515 Q157.871 721.011 154.862 721.011 Q151.829 721.011 150.14 722.515 Q148.473 724.02 148.473 726.705 Z" fill="#000000" fill-rule="nonzero" fill-opacity="1" /><path clip-path="url(#clip330)" d="M115.418 563.121 L123.056 563.121 L123.056 536.755 L114.746 538.422 L114.746 534.163 L123.01 532.496 L127.686 532.496 L127.686 563.121 L135.325 563.121 L135.325 567.056 L115.418 567.056 L115.418 563.121 Z" fill="#000000" fill-rule="nonzero" fill-opacity="1" /><path clip-path="url(#clip330)" d="M154.769 535.575 Q151.158 535.575 149.329 539.139 Q147.524 542.681 147.524 549.811 Q147.524 556.917 149.329 560.482 Q151.158 564.023 154.769 564.023 Q158.403 564.023 160.209 560.482 Q162.038 556.917 162.038 549.811 Q162.038 542.681 160.209 539.139 Q158.403 535.575 154.769 535.575 M154.769 531.871 Q160.579 531.871 163.635 536.477 Q166.714 541.061 166.714 549.811 Q166.714 558.537 163.635 563.144 Q160.579 567.727 154.769 567.727 Q148.959 567.727 145.88 563.144 Q142.825 558.537 142.825 549.811 Q142.825 541.061 145.88 536.477 Q148.959 531.871 154.769 531.871 Z" fill="#000000" fill-rule="nonzero" fill-opacity="1" /><path clip-path="url(#clip330)" d="M117.015 377.685 L124.654 377.685 L124.654 351.319 L116.343 352.986 L116.343 348.726 L124.607 347.06 L129.283 347.06 L129.283 377.685 L136.922 377.685 L136.922 381.62 L117.015 381.62 L117.015 377.685 Z" fill="#000000" fill-rule="nonzero" fill-opacity="1" /><path clip-path="url(#clip330)" d="M150.394 377.685 L166.714 377.685 L166.714 381.62 L144.769 381.62 L144.769 377.685 Q147.431 374.93 152.015 370.3 Q156.621 365.648 157.802 364.305 Q160.047 361.782 160.927 360.046 Q161.829 358.287 161.829 356.597 Q161.829 353.842 159.885 352.106 Q157.964 350.37 154.862 350.37 Q152.663 350.37 150.209 351.134 Q147.778 351.898 145.001 353.449 L145.001 348.726 Q147.825 347.592 150.278 347.014 Q152.732 346.435 154.769 346.435 Q160.14 346.435 163.334 349.12 Q166.528 351.805 166.528 356.296 Q166.528 358.425 165.718 360.347 Q164.931 362.245 162.825 364.837 Q162.246 365.509 159.144 368.726 Q156.042 371.921 150.394 377.685 Z" fill="#000000" fill-rule="nonzero" fill-opacity="1" /><path clip-path="url(#clip330)" d="M114.931 192.249 L122.57 192.249 L122.57 165.883 L114.26 167.55 L114.26 163.29 L122.524 161.624 L127.2 161.624 L127.2 192.249 L134.839 192.249 L134.839 196.184 L114.931 196.184 L114.931 192.249 Z" fill="#000000" fill-rule="nonzero" fill-opacity="1" /><path clip-path="url(#clip330)" d="M157.13 165.698 L145.325 184.147 L157.13 184.147 L157.13 165.698 M155.903 161.624 L161.783 161.624 L161.783 184.147 L166.714 184.147 L166.714 188.036 L161.783 188.036 L161.783 196.184 L157.13 196.184 L157.13 188.036 L141.529 188.036 L141.529 183.522 L155.903 161.624 Z" fill="#000000" fill-rule="nonzero" fill-opacity="1" /><path clip-path="url(#clip330)" d="M67.3143 849.27 Q73.68 851.752 75.6216 854.107 Q77.5631 856.463 77.5631 860.41 L77.5631 865.088 L72.6615 865.088 L72.6615 861.651 Q72.6615 859.232 71.5157 857.895 Q70.3699 856.558 66.1048 854.935 L63.4312 853.885 L28.3562 868.303 L28.3562 862.096 L56.238 850.956 L28.3562 839.816 L28.3562 833.61 L67.3143 849.27 Z" fill="#000000" fill-rule="nonzero" fill-opacity="1" /><path clip-path="url(#clip330)" d="M28.3562 809.006 L28.3562 802.8 L58.275 791.66 L28.3562 780.52 L28.3562 774.313 L64.0042 787.681 L64.0042 795.638 L28.3562 809.006 Z" fill="#000000" fill-rule="nonzero" fill-opacity="1" /><path clip-path="url(#clip330)" d="M46.0847 750.028 Q46.0847 757.126 47.7079 759.863 Q49.3312 762.6 53.2461 762.6 Q56.3653 762.6 58.2114 760.563 Q60.0256 758.495 60.0256 754.962 Q60.0256 750.092 56.5881 747.164 Q53.1188 744.204 47.3897 744.204 L46.0847 744.204 L46.0847 750.028 M43.6657 738.347 L64.0042 738.347 L64.0042 744.204 L58.5933 744.204 Q61.8398 746.209 63.3994 749.201 Q64.9272 752.192 64.9272 756.521 Q64.9272 761.996 61.8716 765.242 Q58.7843 768.457 53.6281 768.457 Q47.6125 768.457 44.5569 764.446 Q41.5014 760.404 41.5014 752.415 L41.5014 744.204 L40.9285 744.204 Q36.8862 744.204 34.6901 746.877 Q32.4621 749.519 32.4621 754.325 Q32.4621 757.381 33.1941 760.277 Q33.9262 763.173 35.3903 765.847 L29.9795 765.847 Q28.7381 762.632 28.1334 759.609 Q27.4968 756.585 27.4968 753.72 Q27.4968 745.986 31.5072 742.167 Q35.5176 738.347 43.6657 738.347 Z" fill="#000000" fill-rule="nonzero" fill-opacity="1" /><path clip-path="url(#clip330)" d="M14.479 726.284 L14.479 720.428 L64.0042 720.428 L64.0042 726.284 L14.479 726.284 Z" fill="#000000" fill-rule="nonzero" fill-opacity="1" /><path clip-path="url(#clip330)" d="M49.9359 708.778 L28.3562 708.778 L28.3562 702.922 L49.7131 702.922 Q54.7739 702.922 57.3202 700.949 Q59.8346 698.975 59.8346 695.028 Q59.8346 690.286 56.8109 687.549 Q53.7872 684.78 48.5673 684.78 L28.3562 684.78 L28.3562 678.923 L64.0042 678.923 L64.0042 684.78 L58.5296 684.78 Q61.7762 686.912 63.3676 689.745 Q64.9272 692.546 64.9272 696.27 Q64.9272 702.413 61.1078 705.596 Q57.2883 708.778 49.9359 708.778 M27.4968 694.042 L27.4968 694.042 Z" fill="#000000" fill-rule="nonzero" fill-opacity="1" /><path clip-path="url(#clip330)" d="M44.7161 636.368 L47.5806 636.368 L47.5806 663.295 Q53.6281 662.913 56.8109 659.667 Q59.9619 656.389 59.9619 650.564 Q59.9619 647.19 59.1344 644.039 Q58.3069 640.856 56.6518 637.737 L62.1899 637.737 Q63.5267 640.888 64.227 644.198 Q64.9272 647.508 64.9272 650.914 Q64.9272 659.444 59.9619 664.441 Q54.9967 669.406 46.5303 669.406 Q37.7774 669.406 32.6531 664.696 Q27.4968 659.953 27.4968 651.933 Q27.4968 644.739 32.1438 640.57 Q36.7589 636.368 44.7161 636.368 M42.9973 642.225 Q38.1912 642.289 35.3266 644.93 Q32.4621 647.54 32.4621 651.869 Q32.4621 656.771 35.2312 659.731 Q38.0002 662.659 43.0292 663.104 L42.9973 642.225 Z" fill="#000000" fill-rule="nonzero" fill-opacity="1" /><path clip-path="url(#clip330)" d="M29.4065 604.031 L34.9447 604.031 Q33.6716 606.513 33.035 609.187 Q32.3984 611.86 32.3984 614.725 Q32.3984 619.086 33.7352 621.282 Q35.072 623.446 37.7456 623.446 Q39.7826 623.446 40.9603 621.886 Q42.1061 620.327 43.1565 615.616 L43.6021 613.611 Q44.9389 607.373 47.3897 604.763 Q49.8086 602.121 54.1691 602.121 Q59.1344 602.121 62.0308 606.068 Q64.9272 609.983 64.9272 616.858 Q64.9272 619.722 64.3543 622.841 Q63.8132 625.929 62.6992 629.366 L56.6518 629.366 Q58.3387 626.12 59.198 622.969 Q60.0256 619.818 60.0256 616.73 Q60.0256 612.593 58.6251 610.365 Q57.1929 608.137 54.6147 608.137 Q52.2276 608.137 50.9545 609.76 Q49.6813 611.351 48.5037 616.794 L48.0262 618.831 Q46.8804 624.274 44.5251 626.693 Q42.138 629.112 38.0002 629.112 Q32.9713 629.112 30.2341 625.547 Q27.4968 621.982 27.4968 615.425 Q27.4968 612.179 27.9743 609.314 Q28.4517 606.45 29.4065 604.031 Z" fill="#000000" fill-rule="nonzero" fill-opacity="1" /><circle clip-path="url(#clip332)" cx="2131.52" cy="1384.24" r="14.4" fill="#009af9" fill-rule="evenodd" fill-opacity="1" stroke="#000000" stroke-opacity="1" stroke-width="3.2"/>
<circle clip-path="url(#clip332)" cx="2181.98" cy="1374.97" r="14.4" fill="#009af9" fill-rule="evenodd" fill-opacity="1" stroke="#000000" stroke-opacity="1" stroke-width="3.2"/>
<circle clip-path="url(#clip332)" cx="2223.4" cy="1365.69" r="14.4" fill="#009af9" fill-rule="evenodd" fill-opacity="1" stroke="#000000" stroke-opacity="1" stroke-width="3.2"/>
<circle clip-path="url(#clip332)" cx="2255.37" cy="1356.42" r="14.4" fill="#009af9" fill-rule="evenodd" fill-opacity="1" stroke="#000000" stroke-opacity="1" stroke-width="3.2"/>
<circle clip-path="url(#clip332)" cx="2277.58" cy="1347.15" r="14.4" fill="#009af9" fill-rule="evenodd" fill-opacity="1" stroke="#000000" stroke-opacity="1" stroke-width="3.2"/>
<circle clip-path="url(#clip332)" cx="2289.8" cy="1337.88" r="14.4" fill="#009af9" fill-rule="evenodd" fill-opacity="1" stroke="#000000" stroke-opacity="1" stroke-width="3.2"/>
<circle clip-path="url(#clip332)" cx="2291.91" cy="1328.61" r="14.4" fill="#009af9" fill-rule="evenodd" fill-opacity="1" stroke="#000000" stroke-opacity="1" stroke-width="3.2"/>
<circle clip-path="url(#clip332)" cx="2283.88" cy="1319.34" r="14.4" fill="#009af9" fill-rule="evenodd" fill-opacity="1" stroke="#000000" stroke-opacity="1" stroke-width="3.2"/>
<circle clip-path="url(#clip332)" cx="2265.81" cy="1310.06" r="14.4" fill="#009af9" fill-rule="evenodd" fill-opacity="1" stroke="#000000" stroke-opacity="1" stroke-width="3.2"/>
<circle clip-path="url(#clip332)" cx="2237.86" cy="1300.79" r="14.4" fill="#009af9" fill-rule="evenodd" fill-opacity="1" stroke="#000000" stroke-opacity="1" stroke-width="3.2"/>
<circle clip-path="url(#clip332)" cx="2200.33" cy="1291.52" r="14.4" fill="#009af9" fill-rule="evenodd" fill-opacity="1" stroke="#000000" stroke-opacity="1" stroke-width="3.2"/>
<circle clip-path="url(#clip332)" cx="2153.57" cy="1282.25" r="14.4" fill="#009af9" fill-rule="evenodd" fill-opacity="1" stroke="#000000" stroke-opacity="1" stroke-width="3.2"/>
<circle clip-path="url(#clip332)" cx="2098.07" cy="1272.98" r="14.4" fill="#009af9" fill-rule="evenodd" fill-opacity="1" stroke="#000000" stroke-opacity="1" stroke-width="3.2"/>
<circle clip-path="url(#clip332)" cx="2034.37" cy="1263.7" r="14.4" fill="#009af9" fill-rule="evenodd" fill-opacity="1" stroke="#000000" stroke-opacity="1" stroke-width="3.2"/>
<circle clip-path="url(#clip332)" cx="1963.12" cy="1254.43" r="14.4" fill="#009af9" fill-rule="evenodd" fill-opacity="1" stroke="#000000" stroke-opacity="1" stroke-width="3.2"/>
<circle clip-path="url(#clip332)" cx="1885.02" cy="1245.16" r="14.4" fill="#009af9" fill-rule="evenodd" fill-opacity="1" stroke="#000000" stroke-opacity="1" stroke-width="3.2"/>
<circle clip-path="url(#clip332)" cx="1800.85" cy="1235.89" r="14.4" fill="#009af9" fill-rule="evenodd" fill-opacity="1" stroke="#000000" stroke-opacity="1" stroke-width="3.2"/>
<circle clip-path="url(#clip332)" cx="1711.46" cy="1226.62" r="14.4" fill="#009af9" fill-rule="evenodd" fill-opacity="1" stroke="#000000" stroke-opacity="1" stroke-width="3.2"/>
<circle clip-path="url(#clip332)" cx="1617.73" cy="1217.35" r="14.4" fill="#009af9" fill-rule="evenodd" fill-opacity="1" stroke="#000000" stroke-opacity="1" stroke-width="3.2"/>
<circle clip-path="url(#clip332)" cx="1520.61" cy="1208.07" r="14.4" fill="#009af9" fill-rule="evenodd" fill-opacity="1" stroke="#000000" stroke-opacity="1" stroke-width="3.2"/>
<circle clip-path="url(#clip332)" cx="1421.07" cy="1198.8" r="14.4" fill="#009af9" fill-rule="evenodd" fill-opacity="1" stroke="#000000" stroke-opacity="1" stroke-width="3.2"/>
<circle clip-path="url(#clip332)" cx="1320.09" cy="1189.53" r="14.4" fill="#009af9" fill-rule="evenodd" fill-opacity="1" stroke="#000000" stroke-opacity="1" stroke-width="3.2"/>
<circle clip-path="url(#clip332)" cx="1218.7" cy="1180.26" r="14.4" fill="#009af9" fill-rule="evenodd" fill-opacity="1" stroke="#000000" stroke-opacity="1" stroke-width="3.2"/>
<circle clip-path="url(#clip332)" cx="1117.89" cy="1170.99" r="14.4" fill="#009af9" fill-rule="evenodd" fill-opacity="1" stroke="#000000" stroke-opacity="1" stroke-width="3.2"/>
<circle clip-path="url(#clip332)" cx="1018.68" cy="1161.71" r="14.4" fill="#009af9" fill-rule="evenodd" fill-opacity="1" stroke="#000000" stroke-opacity="1" stroke-width="3.2"/>
<circle clip-path="url(#clip332)" cx="922.068" cy="1152.44" r="14.4" fill="#009af9" fill-rule="evenodd" fill-opacity="1" stroke="#000000" stroke-opacity="1" stroke-width="3.2"/>
<circle clip-path="url(#clip332)" cx="829.008" cy="1143.17" r="14.4" fill="#009af9" fill-rule="evenodd" fill-opacity="1" stroke="#000000" stroke-opacity="1" stroke-width="3.2"/>
<circle clip-path="url(#clip332)" cx="740.432" cy="1133.9" r="14.4" fill="#009af9" fill-rule="evenodd" fill-opacity="1" stroke="#000000" stroke-opacity="1" stroke-width="3.2"/>
<circle clip-path="url(#clip332)" cx="657.227" cy="1124.63" r="14.4" fill="#009af9" fill-rule="evenodd" fill-opacity="1" stroke="#000000" stroke-opacity="1" stroke-width="3.2"/>
<circle clip-path="url(#clip332)" cx="580.224" cy="1115.36" r="14.4" fill="#009af9" fill-rule="evenodd" fill-opacity="1" stroke="#000000" stroke-opacity="1" stroke-width="3.2"/>
<circle clip-path="url(#clip332)" cx="510.192" cy="1106.08" r="14.4" fill="#009af9" fill-rule="evenodd" fill-opacity="1" stroke="#000000" stroke-opacity="1" stroke-width="3.2"/>
<circle clip-path="url(#clip332)" cx="447.83" cy="1096.81" r="14.4" fill="#009af9" fill-rule="evenodd" fill-opacity="1" stroke="#000000" stroke-opacity="1" stroke-width="3.2"/>
<circle clip-path="url(#clip332)" cx="393.763" cy="1087.54" r="14.4" fill="#009af9" fill-rule="evenodd" fill-opacity="1" stroke="#000000" stroke-opacity="1" stroke-width="3.2"/>
<circle clip-path="url(#clip332)" cx="348.529" cy="1078.27" r="14.4" fill="#009af9" fill-rule="evenodd" fill-opacity="1" stroke="#000000" stroke-opacity="1" stroke-width="3.2"/>
<circle clip-path="url(#clip332)" cx="312.582" cy="1069" r="14.4" fill="#009af9" fill-rule="evenodd" fill-opacity="1" stroke="#000000" stroke-opacity="1" stroke-width="3.2"/>
<circle clip-path="url(#clip332)" cx="286.28" cy="1059.73" r="14.4" fill="#009af9" fill-rule="evenodd" fill-opacity="1" stroke="#000000" stroke-opacity="1" stroke-width="3.2"/>
<circle clip-path="url(#clip332)" cx="269.886" cy="1050.45" r="14.4" fill="#009af9" fill-rule="evenodd" fill-opacity="1" stroke="#000000" stroke-opacity="1" stroke-width="3.2"/>
<circle clip-path="url(#clip332)" cx="263.564" cy="1041.18" r="14.4" fill="#009af9" fill-rule="evenodd" fill-opacity="1" stroke="#000000" stroke-opacity="1" stroke-width="3.2"/>
<circle clip-path="url(#clip332)" cx="267.377" cy="1031.91" r="14.4" fill="#009af9" fill-rule="evenodd" fill-opacity="1" stroke="#000000" stroke-opacity="1" stroke-width="3.2"/>
<circle clip-path="url(#clip332)" cx="281.287" cy="1022.64" r="14.4" fill="#009af9" fill-rule="evenodd" fill-opacity="1" stroke="#000000" stroke-opacity="1" stroke-width="3.2"/>
<circle clip-path="url(#clip332)" cx="305.154" cy="1013.37" r="14.4" fill="#009af9" fill-rule="evenodd" fill-opacity="1" stroke="#000000" stroke-opacity="1" stroke-width="3.2"/>
<circle clip-path="url(#clip332)" cx="338.742" cy="1004.09" r="14.4" fill="#009af9" fill-rule="evenodd" fill-opacity="1" stroke="#000000" stroke-opacity="1" stroke-width="3.2"/>
<circle clip-path="url(#clip332)" cx="381.713" cy="994.822" r="14.4" fill="#009af9" fill-rule="evenodd" fill-opacity="1" stroke="#000000" stroke-opacity="1" stroke-width="3.2"/>
<circle clip-path="url(#clip332)" cx="433.638" cy="985.551" r="14.4" fill="#009af9" fill-rule="evenodd" fill-opacity="1" stroke="#000000" stroke-opacity="1" stroke-width="3.2"/>
<circle clip-path="url(#clip332)" cx="494" cy="976.279" r="14.4" fill="#009af9" fill-rule="evenodd" fill-opacity="1" stroke="#000000" stroke-opacity="1" stroke-width="3.2"/>
<circle clip-path="url(#clip332)" cx="562.194" cy="967.007" r="14.4" fill="#009af9" fill-rule="evenodd" fill-opacity="1" stroke="#000000" stroke-opacity="1" stroke-width="3.2"/>
<circle clip-path="url(#clip332)" cx="637.539" cy="957.735" r="14.4" fill="#009af9" fill-rule="evenodd" fill-opacity="1" stroke="#000000" stroke-opacity="1" stroke-width="3.2"/>
<circle clip-path="url(#clip332)" cx="719.282" cy="948.463" r="14.4" fill="#009af9" fill-rule="evenodd" fill-opacity="1" stroke="#000000" stroke-opacity="1" stroke-width="3.2"/>
<circle clip-path="url(#clip332)" cx="806.608" cy="939.192" r="14.4" fill="#009af9" fill-rule="evenodd" fill-opacity="1" stroke="#000000" stroke-opacity="1" stroke-width="3.2"/>
<circle clip-path="url(#clip332)" cx="898.642" cy="929.92" r="14.4" fill="#009af9" fill-rule="evenodd" fill-opacity="1" stroke="#000000" stroke-opacity="1" stroke-width="3.2"/>
<circle clip-path="url(#clip332)" cx="994.466" cy="920.648" r="14.4" fill="#009af9" fill-rule="evenodd" fill-opacity="1" stroke="#000000" stroke-opacity="1" stroke-width="3.2"/>
<circle clip-path="url(#clip332)" cx="1093.12" cy="911.376" r="14.4" fill="#009af9" fill-rule="evenodd" fill-opacity="1" stroke="#000000" stroke-opacity="1" stroke-width="3.2"/>
<circle clip-path="url(#clip332)" cx="1193.62" cy="902.104" r="14.4" fill="#009af9" fill-rule="evenodd" fill-opacity="1" stroke="#000000" stroke-opacity="1" stroke-width="3.2"/>
<circle clip-path="url(#clip332)" cx="1294.97" cy="892.833" r="14.4" fill="#009af9" fill-rule="evenodd" fill-opacity="1" stroke="#000000" stroke-opacity="1" stroke-width="3.2"/>
<circle clip-path="url(#clip332)" cx="1396.14" cy="883.561" r="14.4" fill="#009af9" fill-rule="evenodd" fill-opacity="1" stroke="#000000" stroke-opacity="1" stroke-width="3.2"/>
<circle clip-path="url(#clip332)" cx="1496.14" cy="874.289" r="14.4" fill="#009af9" fill-rule="evenodd" fill-opacity="1" stroke="#000000" stroke-opacity="1" stroke-width="3.2"/>
<circle clip-path="url(#clip332)" cx="1593.95" cy="865.017" r="14.4" fill="#009af9" fill-rule="evenodd" fill-opacity="1" stroke="#000000" stroke-opacity="1" stroke-width="3.2"/>
<circle clip-path="url(#clip332)" cx="1688.6" cy="855.745" r="14.4" fill="#009af9" fill-rule="evenodd" fill-opacity="1" stroke="#000000" stroke-opacity="1" stroke-width="3.2"/>
<circle clip-path="url(#clip332)" cx="1779.15" cy="846.474" r="14.4" fill="#009af9" fill-rule="evenodd" fill-opacity="1" stroke="#000000" stroke-opacity="1" stroke-width="3.2"/>
<circle clip-path="url(#clip332)" cx="1864.7" cy="837.202" r="14.4" fill="#009af9" fill-rule="evenodd" fill-opacity="1" stroke="#000000" stroke-opacity="1" stroke-width="3.2"/>
<circle clip-path="url(#clip332)" cx="1944.38" cy="827.93" r="14.4" fill="#009af9" fill-rule="evenodd" fill-opacity="1" stroke="#000000" stroke-opacity="1" stroke-width="3.2"/>
<circle clip-path="url(#clip332)" cx="2017.4" cy="818.658" r="14.4" fill="#009af9" fill-rule="evenodd" fill-opacity="1" stroke="#000000" stroke-opacity="1" stroke-width="3.2"/>
<circle clip-path="url(#clip332)" cx="2083.03" cy="809.386" r="14.4" fill="#009af9" fill-rule="evenodd" fill-opacity="1" stroke="#000000" stroke-opacity="1" stroke-width="3.2"/>
<circle clip-path="url(#clip332)" cx="2140.62" cy="800.115" r="14.4" fill="#009af9" fill-rule="evenodd" fill-opacity="1" stroke="#000000" stroke-opacity="1" stroke-width="3.2"/>
<circle clip-path="url(#clip332)" cx="2189.59" cy="790.843" r="14.4" fill="#009af9" fill-rule="evenodd" fill-opacity="1" stroke="#000000" stroke-opacity="1" stroke-width="3.2"/>
<circle clip-path="url(#clip332)" cx="2229.44" cy="781.571" r="14.4" fill="#009af9" fill-rule="evenodd" fill-opacity="1" stroke="#000000" stroke-opacity="1" stroke-width="3.2"/>
<circle clip-path="url(#clip332)" cx="2259.8" cy="772.299" r="14.4" fill="#009af9" fill-rule="evenodd" fill-opacity="1" stroke="#000000" stroke-opacity="1" stroke-width="3.2"/>
<circle clip-path="url(#clip332)" cx="2280.34" cy="763.027" r="14.4" fill="#009af9" fill-rule="evenodd" fill-opacity="1" stroke="#000000" stroke-opacity="1" stroke-width="3.2"/>
<circle clip-path="url(#clip332)" cx="2290.86" cy="753.756" r="14.4" fill="#009af9" fill-rule="evenodd" fill-opacity="1" stroke="#000000" stroke-opacity="1" stroke-width="3.2"/>
<circle clip-path="url(#clip332)" cx="2291.26" cy="744.484" r="14.4" fill="#009af9" fill-rule="evenodd" fill-opacity="1" stroke="#000000" stroke-opacity="1" stroke-width="3.2"/>
<circle clip-path="url(#clip332)" cx="2281.54" cy="735.212" r="14.4" fill="#009af9" fill-rule="evenodd" fill-opacity="1" stroke="#000000" stroke-opacity="1" stroke-width="3.2"/>
<circle clip-path="url(#clip332)" cx="2261.79" cy="725.94" r="14.4" fill="#009af9" fill-rule="evenodd" fill-opacity="1" stroke="#000000" stroke-opacity="1" stroke-width="3.2"/>
<circle clip-path="url(#clip332)" cx="2232.21" cy="716.668" r="14.4" fill="#009af9" fill-rule="evenodd" fill-opacity="1" stroke="#000000" stroke-opacity="1" stroke-width="3.2"/>
<circle clip-path="url(#clip332)" cx="2193.1" cy="707.397" r="14.4" fill="#009af9" fill-rule="evenodd" fill-opacity="1" stroke="#000000" stroke-opacity="1" stroke-width="3.2"/>
<circle clip-path="url(#clip332)" cx="2144.84" cy="698.125" r="14.4" fill="#009af9" fill-rule="evenodd" fill-opacity="1" stroke="#000000" stroke-opacity="1" stroke-width="3.2"/>
<circle clip-path="url(#clip332)" cx="2087.92" cy="688.853" r="14.4" fill="#009af9" fill-rule="evenodd" fill-opacity="1" stroke="#000000" stroke-opacity="1" stroke-width="3.2"/>
<circle clip-path="url(#clip332)" cx="2022.9" cy="679.581" r="14.4" fill="#009af9" fill-rule="evenodd" fill-opacity="1" stroke="#000000" stroke-opacity="1" stroke-width="3.2"/>
<circle clip-path="url(#clip332)" cx="1950.45" cy="670.309" r="14.4" fill="#009af9" fill-rule="evenodd" fill-opacity="1" stroke="#000000" stroke-opacity="1" stroke-width="3.2"/>
<circle clip-path="url(#clip332)" cx="1871.27" cy="661.038" r="14.4" fill="#009af9" fill-rule="evenodd" fill-opacity="1" stroke="#000000" stroke-opacity="1" stroke-width="3.2"/>
<circle clip-path="url(#clip332)" cx="1786.16" cy="651.766" r="14.4" fill="#009af9" fill-rule="evenodd" fill-opacity="1" stroke="#000000" stroke-opacity="1" stroke-width="3.2"/>
<circle clip-path="url(#clip332)" cx="1695.98" cy="642.494" r="14.4" fill="#009af9" fill-rule="evenodd" fill-opacity="1" stroke="#000000" stroke-opacity="1" stroke-width="3.2"/>
<circle clip-path="url(#clip332)" cx="1601.61" cy="633.222" r="14.4" fill="#009af9" fill-rule="evenodd" fill-opacity="1" stroke="#000000" stroke-opacity="1" stroke-width="3.2"/>
<circle clip-path="url(#clip332)" cx="1504.02" cy="623.95" r="14.4" fill="#009af9" fill-rule="evenodd" fill-opacity="1" stroke="#000000" stroke-opacity="1" stroke-width="3.2"/>
<circle clip-path="url(#clip332)" cx="1404.16" cy="614.679" r="14.4" fill="#009af9" fill-rule="evenodd" fill-opacity="1" stroke="#000000" stroke-opacity="1" stroke-width="3.2"/>
<circle clip-path="url(#clip332)" cx="1303.04" cy="605.407" r="14.4" fill="#009af9" fill-rule="evenodd" fill-opacity="1" stroke="#000000" stroke-opacity="1" stroke-width="3.2"/>
<circle clip-path="url(#clip332)" cx="1201.68" cy="596.135" r="14.4" fill="#009af9" fill-rule="evenodd" fill-opacity="1" stroke="#000000" stroke-opacity="1" stroke-width="3.2"/>
<circle clip-path="url(#clip332)" cx="1101.07" cy="586.863" r="14.4" fill="#009af9" fill-rule="evenodd" fill-opacity="1" stroke="#000000" stroke-opacity="1" stroke-width="3.2"/>
<circle clip-path="url(#clip332)" cx="1002.23" cy="577.591" r="14.4" fill="#009af9" fill-rule="evenodd" fill-opacity="1" stroke="#000000" stroke-opacity="1" stroke-width="3.2"/>
<circle clip-path="url(#clip332)" cx="906.146" cy="568.319" r="14.4" fill="#009af9" fill-rule="evenodd" fill-opacity="1" stroke="#000000" stroke-opacity="1" stroke-width="3.2"/>
<circle clip-path="url(#clip332)" cx="813.776" cy="559.048" r="14.4" fill="#009af9" fill-rule="evenodd" fill-opacity="1" stroke="#000000" stroke-opacity="1" stroke-width="3.2"/>
<circle clip-path="url(#clip332)" cx="726.043" cy="549.776" r="14.4" fill="#009af9" fill-rule="evenodd" fill-opacity="1" stroke="#000000" stroke-opacity="1" stroke-width="3.2"/>
<circle clip-path="url(#clip332)" cx="2131.52" cy="920.648" r="14.4" fill="#e26f46" fill-rule="evenodd" fill-opacity="1" stroke="#000000" stroke-opacity="1" stroke-width="3.2"/>
<circle clip-path="url(#clip332)" cx="2181.98" cy="911.376" r="14.4" fill="#e26f46" fill-rule="evenodd" fill-opacity="1" stroke="#000000" stroke-opacity="1" stroke-width="3.2"/>
<circle clip-path="url(#clip332)" cx="2223.4" cy="902.104" r="14.4" fill="#e26f46" fill-rule="evenodd" fill-opacity="1" stroke="#000000" stroke-opacity="1" stroke-width="3.2"/>
<circle clip-path="url(#clip332)" cx="2255.37" cy="892.833" r="14.4" fill="#e26f46" fill-rule="evenodd" fill-opacity="1" stroke="#000000" stroke-opacity="1" stroke-width="3.2"/>
<circle clip-path="url(#clip332)" cx="2277.58" cy="883.561" r="14.4" fill="#e26f46" fill-rule="evenodd" fill-opacity="1" stroke="#000000" stroke-opacity="1" stroke-width="3.2"/>
<circle clip-path="url(#clip332)" cx="2289.8" cy="874.289" r="14.4" fill="#e26f46" fill-rule="evenodd" fill-opacity="1" stroke="#000000" stroke-opacity="1" stroke-width="3.2"/>
<circle clip-path="url(#clip332)" cx="2291.91" cy="865.017" r="14.4" fill="#e26f46" fill-rule="evenodd" fill-opacity="1" stroke="#000000" stroke-opacity="1" stroke-width="3.2"/>
<circle clip-path="url(#clip332)" cx="2283.88" cy="855.745" r="14.4" fill="#e26f46" fill-rule="evenodd" fill-opacity="1" stroke="#000000" stroke-opacity="1" stroke-width="3.2"/>
<circle clip-path="url(#clip332)" cx="2265.81" cy="846.474" r="14.4" fill="#e26f46" fill-rule="evenodd" fill-opacity="1" stroke="#000000" stroke-opacity="1" stroke-width="3.2"/>
<circle clip-path="url(#clip332)" cx="2237.86" cy="837.202" r="14.4" fill="#e26f46" fill-rule="evenodd" fill-opacity="1" stroke="#000000" stroke-opacity="1" stroke-width="3.2"/>
<circle clip-path="url(#clip332)" cx="2200.33" cy="827.93" r="14.4" fill="#e26f46" fill-rule="evenodd" fill-opacity="1" stroke="#000000" stroke-opacity="1" stroke-width="3.2"/>
<circle clip-path="url(#clip332)" cx="2153.57" cy="818.658" r="14.4" fill="#e26f46" fill-rule="evenodd" fill-opacity="1" stroke="#000000" stroke-opacity="1" stroke-width="3.2"/>
<circle clip-path="url(#clip332)" cx="2098.07" cy="809.386" r="14.4" fill="#e26f46" fill-rule="evenodd" fill-opacity="1" stroke="#000000" stroke-opacity="1" stroke-width="3.2"/>
<circle clip-path="url(#clip332)" cx="2034.37" cy="800.115" r="14.4" fill="#e26f46" fill-rule="evenodd" fill-opacity="1" stroke="#000000" stroke-opacity="1" stroke-width="3.2"/>
<circle clip-path="url(#clip332)" cx="1963.12" cy="790.843" r="14.4" fill="#e26f46" fill-rule="evenodd" fill-opacity="1" stroke="#000000" stroke-opacity="1" stroke-width="3.2"/>
<circle clip-path="url(#clip332)" cx="1885.02" cy="781.571" r="14.4" fill="#e26f46" fill-rule="evenodd" fill-opacity="1" stroke="#000000" stroke-opacity="1" stroke-width="3.2"/>
<circle clip-path="url(#clip332)" cx="1800.85" cy="772.299" r="14.4" fill="#e26f46" fill-rule="evenodd" fill-opacity="1" stroke="#000000" stroke-opacity="1" stroke-width="3.2"/>
<circle clip-path="url(#clip332)" cx="1711.46" cy="763.027" r="14.4" fill="#e26f46" fill-rule="evenodd" fill-opacity="1" stroke="#000000" stroke-opacity="1" stroke-width="3.2"/>
<circle clip-path="url(#clip332)" cx="1617.73" cy="753.756" r="14.4" fill="#e26f46" fill-rule="evenodd" fill-opacity="1" stroke="#000000" stroke-opacity="1" stroke-width="3.2"/>
<circle clip-path="url(#clip332)" cx="1520.61" cy="744.484" r="14.4" fill="#e26f46" fill-rule="evenodd" fill-opacity="1" stroke="#000000" stroke-opacity="1" stroke-width="3.2"/>
<circle clip-path="url(#clip332)" cx="1421.07" cy="735.212" r="14.4" fill="#e26f46" fill-rule="evenodd" fill-opacity="1" stroke="#000000" stroke-opacity="1" stroke-width="3.2"/>
<circle clip-path="url(#clip332)" cx="1320.09" cy="725.94" r="14.4" fill="#e26f46" fill-rule="evenodd" fill-opacity="1" stroke="#000000" stroke-opacity="1" stroke-width="3.2"/>
<circle clip-path="url(#clip332)" cx="1218.7" cy="716.668" r="14.4" fill="#e26f46" fill-rule="evenodd" fill-opacity="1" stroke="#000000" stroke-opacity="1" stroke-width="3.2"/>
<circle clip-path="url(#clip332)" cx="1117.89" cy="707.397" r="14.4" fill="#e26f46" fill-rule="evenodd" fill-opacity="1" stroke="#000000" stroke-opacity="1" stroke-width="3.2"/>
<circle clip-path="url(#clip332)" cx="1018.68" cy="698.125" r="14.4" fill="#e26f46" fill-rule="evenodd" fill-opacity="1" stroke="#000000" stroke-opacity="1" stroke-width="3.2"/>
<circle clip-path="url(#clip332)" cx="922.068" cy="688.853" r="14.4" fill="#e26f46" fill-rule="evenodd" fill-opacity="1" stroke="#000000" stroke-opacity="1" stroke-width="3.2"/>
<circle clip-path="url(#clip332)" cx="829.008" cy="679.581" r="14.4" fill="#e26f46" fill-rule="evenodd" fill-opacity="1" stroke="#000000" stroke-opacity="1" stroke-width="3.2"/>
<circle clip-path="url(#clip332)" cx="740.432" cy="670.309" r="14.4" fill="#e26f46" fill-rule="evenodd" fill-opacity="1" stroke="#000000" stroke-opacity="1" stroke-width="3.2"/>
<circle clip-path="url(#clip332)" cx="657.227" cy="661.038" r="14.4" fill="#e26f46" fill-rule="evenodd" fill-opacity="1" stroke="#000000" stroke-opacity="1" stroke-width="3.2"/>
<circle clip-path="url(#clip332)" cx="580.224" cy="651.766" r="14.4" fill="#e26f46" fill-rule="evenodd" fill-opacity="1" stroke="#000000" stroke-opacity="1" stroke-width="3.2"/>
<circle clip-path="url(#clip332)" cx="510.192" cy="642.494" r="14.4" fill="#e26f46" fill-rule="evenodd" fill-opacity="1" stroke="#000000" stroke-opacity="1" stroke-width="3.2"/>
<circle clip-path="url(#clip332)" cx="447.83" cy="633.222" r="14.4" fill="#e26f46" fill-rule="evenodd" fill-opacity="1" stroke="#000000" stroke-opacity="1" stroke-width="3.2"/>
<circle clip-path="url(#clip332)" cx="393.763" cy="623.95" r="14.4" fill="#e26f46" fill-rule="evenodd" fill-opacity="1" stroke="#000000" stroke-opacity="1" stroke-width="3.2"/>
<circle clip-path="url(#clip332)" cx="348.529" cy="614.679" r="14.4" fill="#e26f46" fill-rule="evenodd" fill-opacity="1" stroke="#000000" stroke-opacity="1" stroke-width="3.2"/>
<circle clip-path="url(#clip332)" cx="312.582" cy="605.407" r="14.4" fill="#e26f46" fill-rule="evenodd" fill-opacity="1" stroke="#000000" stroke-opacity="1" stroke-width="3.2"/>
<circle clip-path="url(#clip332)" cx="286.28" cy="596.135" r="14.4" fill="#e26f46" fill-rule="evenodd" fill-opacity="1" stroke="#000000" stroke-opacity="1" stroke-width="3.2"/>
<circle clip-path="url(#clip332)" cx="269.886" cy="586.863" r="14.4" fill="#e26f46" fill-rule="evenodd" fill-opacity="1" stroke="#000000" stroke-opacity="1" stroke-width="3.2"/>
<circle clip-path="url(#clip332)" cx="263.564" cy="577.591" r="14.4" fill="#e26f46" fill-rule="evenodd" fill-opacity="1" stroke="#000000" stroke-opacity="1" stroke-width="3.2"/>
<circle clip-path="url(#clip332)" cx="267.377" cy="568.319" r="14.4" fill="#e26f46" fill-rule="evenodd" fill-opacity="1" stroke="#000000" stroke-opacity="1" stroke-width="3.2"/>
<circle clip-path="url(#clip332)" cx="281.287" cy="559.048" r="14.4" fill="#e26f46" fill-rule="evenodd" fill-opacity="1" stroke="#000000" stroke-opacity="1" stroke-width="3.2"/>
<circle clip-path="url(#clip332)" cx="305.154" cy="549.776" r="14.4" fill="#e26f46" fill-rule="evenodd" fill-opacity="1" stroke="#000000" stroke-opacity="1" stroke-width="3.2"/>
<circle clip-path="url(#clip332)" cx="338.742" cy="540.504" r="14.4" fill="#e26f46" fill-rule="evenodd" fill-opacity="1" stroke="#000000" stroke-opacity="1" stroke-width="3.2"/>
<circle clip-path="url(#clip332)" cx="381.713" cy="531.232" r="14.4" fill="#e26f46" fill-rule="evenodd" fill-opacity="1" stroke="#000000" stroke-opacity="1" stroke-width="3.2"/>
<circle clip-path="url(#clip332)" cx="433.638" cy="521.96" r="14.4" fill="#e26f46" fill-rule="evenodd" fill-opacity="1" stroke="#000000" stroke-opacity="1" stroke-width="3.2"/>
<circle clip-path="url(#clip332)" cx="494" cy="512.689" r="14.4" fill="#e26f46" fill-rule="evenodd" fill-opacity="1" stroke="#000000" stroke-opacity="1" stroke-width="3.2"/>
<circle clip-path="url(#clip332)" cx="562.194" cy="503.417" r="14.4" fill="#e26f46" fill-rule="evenodd" fill-opacity="1" stroke="#000000" stroke-opacity="1" stroke-width="3.2"/>
<circle clip-path="url(#clip332)" cx="637.539" cy="494.145" r="14.4" fill="#e26f46" fill-rule="evenodd" fill-opacity="1" stroke="#000000" stroke-opacity="1" stroke-width="3.2"/>
<circle clip-path="url(#clip332)" cx="719.282" cy="484.873" r="14.4" fill="#e26f46" fill-rule="evenodd" fill-opacity="1" stroke="#000000" stroke-opacity="1" stroke-width="3.2"/>
<circle clip-path="url(#clip332)" cx="806.608" cy="475.601" r="14.4" fill="#e26f46" fill-rule="evenodd" fill-opacity="1" stroke="#000000" stroke-opacity="1" stroke-width="3.2"/>
<circle clip-path="url(#clip332)" cx="898.642" cy="466.33" r="14.4" fill="#e26f46" fill-rule="evenodd" fill-opacity="1" stroke="#000000" stroke-opacity="1" stroke-width="3.2"/>
<circle clip-path="url(#clip332)" cx="994.466" cy="457.058" r="14.4" fill="#e26f46" fill-rule="evenodd" fill-opacity="1" stroke="#000000" stroke-opacity="1" stroke-width="3.2"/>
<circle clip-path="url(#clip332)" cx="1093.12" cy="447.786" r="14.4" fill="#e26f46" fill-rule="evenodd" fill-opacity="1" stroke="#000000" stroke-opacity="1" stroke-width="3.2"/>
<circle clip-path="url(#clip332)" cx="1193.62" cy="438.514" r="14.4" fill="#e26f46" fill-rule="evenodd" fill-opacity="1" stroke="#000000" stroke-opacity="1" stroke-width="3.2"/>
<circle clip-path="url(#clip332)" cx="1294.97" cy="429.242" r="14.4" fill="#e26f46" fill-rule="evenodd" fill-opacity="1" stroke="#000000" stroke-opacity="1" stroke-width="3.2"/>
<circle clip-path="url(#clip332)" cx="1396.14" cy="419.971" r="14.4" fill="#e26f46" fill-rule="evenodd" fill-opacity="1" stroke="#000000" stroke-opacity="1" stroke-width="3.2"/>
<circle clip-path="url(#clip332)" cx="1496.14" cy="410.699" r="14.4" fill="#e26f46" fill-rule="evenodd" fill-opacity="1" stroke="#000000" stroke-opacity="1" stroke-width="3.2"/>
<circle clip-path="url(#clip332)" cx="1593.95" cy="401.427" r="14.4" fill="#e26f46" fill-rule="evenodd" fill-opacity="1" stroke="#000000" stroke-opacity="1" stroke-width="3.2"/>
<circle clip-path="url(#clip332)" cx="1688.6" cy="392.155" r="14.4" fill="#e26f46" fill-rule="evenodd" fill-opacity="1" stroke="#000000" stroke-opacity="1" stroke-width="3.2"/>
<circle clip-path="url(#clip332)" cx="1779.15" cy="382.883" r="14.4" fill="#e26f46" fill-rule="evenodd" fill-opacity="1" stroke="#000000" stroke-opacity="1" stroke-width="3.2"/>
<circle clip-path="url(#clip332)" cx="1864.7" cy="373.612" r="14.4" fill="#e26f46" fill-rule="evenodd" fill-opacity="1" stroke="#000000" stroke-opacity="1" stroke-width="3.2"/>
<circle clip-path="url(#clip332)" cx="1944.38" cy="364.34" r="14.4" fill="#e26f46" fill-rule="evenodd" fill-opacity="1" stroke="#000000" stroke-opacity="1" stroke-width="3.2"/>
<circle clip-path="url(#clip332)" cx="2017.4" cy="355.068" r="14.4" fill="#e26f46" fill-rule="evenodd" fill-opacity="1" stroke="#000000" stroke-opacity="1" stroke-width="3.2"/>
<circle clip-path="url(#clip332)" cx="2083.03" cy="345.796" r="14.4" fill="#e26f46" fill-rule="evenodd" fill-opacity="1" stroke="#000000" stroke-opacity="1" stroke-width="3.2"/>
<circle clip-path="url(#clip332)" cx="2140.62" cy="336.524" r="14.4" fill="#e26f46" fill-rule="evenodd" fill-opacity="1" stroke="#000000" stroke-opacity="1" stroke-width="3.2"/>
<circle clip-path="url(#clip332)" cx="2189.59" cy="327.253" r="14.4" fill="#e26f46" fill-rule="evenodd" fill-opacity="1" stroke="#000000" stroke-opacity="1" stroke-width="3.2"/>
<circle clip-path="url(#clip332)" cx="2229.44" cy="317.981" r="14.4" fill="#e26f46" fill-rule="evenodd" fill-opacity="1" stroke="#000000" stroke-opacity="1" stroke-width="3.2"/>
<circle clip-path="url(#clip332)" cx="2259.8" cy="308.709" r="14.4" fill="#e26f46" fill-rule="evenodd" fill-opacity="1" stroke="#000000" stroke-opacity="1" stroke-width="3.2"/>
<circle clip-path="url(#clip332)" cx="2280.34" cy="299.437" r="14.4" fill="#e26f46" fill-rule="evenodd" fill-opacity="1" stroke="#000000" stroke-opacity="1" stroke-width="3.2"/>
<circle clip-path="url(#clip332)" cx="2290.86" cy="290.165" r="14.4" fill="#e26f46" fill-rule="evenodd" fill-opacity="1" stroke="#000000" stroke-opacity="1" stroke-width="3.2"/>
<circle clip-path="url(#clip332)" cx="2291.26" cy="280.894" r="14.4" fill="#e26f46" fill-rule="evenodd" fill-opacity="1" stroke="#000000" stroke-opacity="1" stroke-width="3.2"/>
<circle clip-path="url(#clip332)" cx="2281.54" cy="271.622" r="14.4" fill="#e26f46" fill-rule="evenodd" fill-opacity="1" stroke="#000000" stroke-opacity="1" stroke-width="3.2"/>
<circle clip-path="url(#clip332)" cx="2261.79" cy="262.35" r="14.4" fill="#e26f46" fill-rule="evenodd" fill-opacity="1" stroke="#000000" stroke-opacity="1" stroke-width="3.2"/>
<circle clip-path="url(#clip332)" cx="2232.21" cy="253.078" r="14.4" fill="#e26f46" fill-rule="evenodd" fill-opacity="1" stroke="#000000" stroke-opacity="1" stroke-width="3.2"/>
<circle clip-path="url(#clip332)" cx="2193.1" cy="243.806" r="14.4" fill="#e26f46" fill-rule="evenodd" fill-opacity="1" stroke="#000000" stroke-opacity="1" stroke-width="3.2"/>
<circle clip-path="url(#clip332)" cx="2144.84" cy="234.535" r="14.4" fill="#e26f46" fill-rule="evenodd" fill-opacity="1" stroke="#000000" stroke-opacity="1" stroke-width="3.2"/>
<circle clip-path="url(#clip332)" cx="2087.92" cy="225.263" r="14.4" fill="#e26f46" fill-rule="evenodd" fill-opacity="1" stroke="#000000" stroke-opacity="1" stroke-width="3.2"/>
<circle clip-path="url(#clip332)" cx="2022.9" cy="215.991" r="14.4" fill="#e26f46" fill-rule="evenodd" fill-opacity="1" stroke="#000000" stroke-opacity="1" stroke-width="3.2"/>
<circle clip-path="url(#clip332)" cx="1950.45" cy="206.719" r="14.4" fill="#e26f46" fill-rule="evenodd" fill-opacity="1" stroke="#000000" stroke-opacity="1" stroke-width="3.2"/>
<circle clip-path="url(#clip332)" cx="1871.27" cy="197.447" r="14.4" fill="#e26f46" fill-rule="evenodd" fill-opacity="1" stroke="#000000" stroke-opacity="1" stroke-width="3.2"/>
<circle clip-path="url(#clip332)" cx="1786.16" cy="188.176" r="14.4" fill="#e26f46" fill-rule="evenodd" fill-opacity="1" stroke="#000000" stroke-opacity="1" stroke-width="3.2"/>
<circle clip-path="url(#clip332)" cx="1695.98" cy="178.904" r="14.4" fill="#e26f46" fill-rule="evenodd" fill-opacity="1" stroke="#000000" stroke-opacity="1" stroke-width="3.2"/>
<circle clip-path="url(#clip332)" cx="1601.61" cy="169.632" r="14.4" fill="#e26f46" fill-rule="evenodd" fill-opacity="1" stroke="#000000" stroke-opacity="1" stroke-width="3.2"/>
<circle clip-path="url(#clip332)" cx="1504.02" cy="160.36" r="14.4" fill="#e26f46" fill-rule="evenodd" fill-opacity="1" stroke="#000000" stroke-opacity="1" stroke-width="3.2"/>
<circle clip-path="url(#clip332)" cx="1404.16" cy="151.088" r="14.4" fill="#e26f46" fill-rule="evenodd" fill-opacity="1" stroke="#000000" stroke-opacity="1" stroke-width="3.2"/>
<circle clip-path="url(#clip332)" cx="1303.04" cy="141.816" r="14.4" fill="#e26f46" fill-rule="evenodd" fill-opacity="1" stroke="#000000" stroke-opacity="1" stroke-width="3.2"/>
<circle clip-path="url(#clip332)" cx="1201.68" cy="132.545" r="14.4" fill="#e26f46" fill-rule="evenodd" fill-opacity="1" stroke="#000000" stroke-opacity="1" stroke-width="3.2"/>
<circle clip-path="url(#clip332)" cx="1101.07" cy="123.273" r="14.4" fill="#e26f46" fill-rule="evenodd" fill-opacity="1" stroke="#000000" stroke-opacity="1" stroke-width="3.2"/>
<circle clip-path="url(#clip332)" cx="1002.23" cy="114.001" r="14.4" fill="#e26f46" fill-rule="evenodd" fill-opacity="1" stroke="#000000" stroke-opacity="1" stroke-width="3.2"/>
<circle clip-path="url(#clip332)" cx="906.146" cy="104.729" r="14.4" fill="#e26f46" fill-rule="evenodd" fill-opacity="1" stroke="#000000" stroke-opacity="1" stroke-width="3.2"/>
<circle clip-path="url(#clip332)" cx="813.776" cy="95.4575" r="14.4" fill="#e26f46" fill-rule="evenodd" fill-opacity="1" stroke="#000000" stroke-opacity="1" stroke-width="3.2"/>
<circle clip-path="url(#clip332)" cx="726.043" cy="86.1857" r="14.4" fill="#e26f46" fill-rule="evenodd" fill-opacity="1" stroke="#000000" stroke-opacity="1" stroke-width="3.2"/>
<path clip-path="url(#clip330)" d="M274.382 248.629 L702.139 248.629 L702.139 93.1086 L274.382 93.1086  Z" fill="#ffffff" fill-rule="evenodd" fill-opacity="1"/>
<polyline clip-path="url(#clip330)" style="stroke:#000000; stroke-linecap:round; stroke-linejoin:round; stroke-width:4; stroke-opacity:1; fill:none" points="274.382,248.629 702.139,248.629 702.139,93.1086 274.382,93.1086 274.382,248.629 "/>
<circle clip-path="url(#clip330)" cx="369.939" cy="144.949" r="20.48" fill="#009af9" fill-rule="evenodd" fill-opacity="1" stroke="#000000" stroke-opacity="1" stroke-width="4.55111"/>
<path clip-path="url(#clip330)" d="M486.006 137.298 L486.006 141.28 Q484.2 140.284 482.371 139.798 Q480.566 139.289 478.714 139.289 Q474.571 139.289 472.279 141.928 Q469.987 144.544 469.987 149.289 Q469.987 154.034 472.279 156.673 Q474.571 159.289 478.714 159.289 Q480.566 159.289 482.371 158.803 Q484.2 158.293 486.006 157.298 L486.006 161.233 Q484.223 162.067 482.302 162.483 Q480.404 162.9 478.251 162.9 Q472.395 162.9 468.946 159.219 Q465.497 155.539 465.497 149.289 Q465.497 142.946 468.969 139.312 Q472.464 135.678 478.529 135.678 Q480.496 135.678 482.371 136.095 Q484.246 136.488 486.006 137.298 Z" fill="#000000" fill-rule="nonzero" fill-opacity="1" /><path clip-path="url(#clip330)" d="M503.459 139.289 Q500.033 139.289 498.043 141.974 Q496.052 144.636 496.052 149.289 Q496.052 153.942 498.02 156.627 Q500.01 159.289 503.459 159.289 Q506.862 159.289 508.853 156.604 Q510.844 153.918 510.844 149.289 Q510.844 144.682 508.853 141.997 Q506.862 139.289 503.459 139.289 M503.459 135.678 Q509.015 135.678 512.186 139.289 Q515.357 142.9 515.357 149.289 Q515.357 155.655 512.186 159.289 Q509.015 162.9 503.459 162.9 Q497.881 162.9 494.709 159.289 Q491.561 155.655 491.561 149.289 Q491.561 142.9 494.709 139.289 Q497.881 135.678 503.459 135.678 Z" fill="#000000" fill-rule="nonzero" fill-opacity="1" /><path clip-path="url(#clip330)" d="M522.418 126.21 L526.677 126.21 L526.677 162.229 L522.418 162.229 L522.418 126.21 Z" fill="#000000" fill-rule="nonzero" fill-opacity="1" /><path clip-path="url(#clip330)" d="M535.149 151.997 L535.149 136.303 L539.408 136.303 L539.408 151.835 Q539.408 155.516 540.843 157.368 Q542.279 159.196 545.149 159.196 Q548.598 159.196 550.589 156.997 Q552.603 154.798 552.603 151.002 L552.603 136.303 L556.862 136.303 L556.862 162.229 L552.603 162.229 L552.603 158.247 Q551.052 160.608 548.991 161.766 Q546.954 162.9 544.246 162.9 Q539.779 162.9 537.464 160.122 Q535.149 157.344 535.149 151.997 M545.866 135.678 L545.866 135.678 Z" fill="#000000" fill-rule="nonzero" fill-opacity="1" /><path clip-path="url(#clip330)" d="M585.82 141.28 Q587.417 138.409 589.639 137.044 Q591.862 135.678 594.871 135.678 Q598.922 135.678 601.121 138.525 Q603.32 141.349 603.32 146.581 L603.32 162.229 L599.037 162.229 L599.037 146.719 Q599.037 142.993 597.718 141.187 Q596.399 139.382 593.69 139.382 Q590.38 139.382 588.459 141.581 Q586.538 143.78 586.538 147.576 L586.538 162.229 L582.255 162.229 L582.255 146.719 Q582.255 142.969 580.936 141.187 Q579.616 139.382 576.862 139.382 Q573.598 139.382 571.677 141.604 Q569.755 143.803 569.755 147.576 L569.755 162.229 L565.473 162.229 L565.473 136.303 L569.755 136.303 L569.755 140.331 Q571.214 137.946 573.251 136.812 Q575.288 135.678 578.089 135.678 Q580.913 135.678 582.88 137.113 Q584.871 138.548 585.82 141.28 Z" fill="#000000" fill-rule="nonzero" fill-opacity="1" /><path clip-path="url(#clip330)" d="M633.366 146.581 L633.366 162.229 L629.107 162.229 L629.107 146.719 Q629.107 143.039 627.672 141.21 Q626.236 139.382 623.366 139.382 Q619.917 139.382 617.926 141.581 Q615.936 143.78 615.936 147.576 L615.936 162.229 L611.653 162.229 L611.653 136.303 L615.936 136.303 L615.936 140.331 Q617.463 137.993 619.523 136.835 Q621.607 135.678 624.315 135.678 Q628.783 135.678 631.074 138.456 Q633.366 141.21 633.366 146.581 Z" fill="#000000" fill-rule="nonzero" fill-opacity="1" /><path clip-path="url(#clip330)" d="M658.343 158.293 L665.982 158.293 L665.982 131.928 L657.671 133.595 L657.671 129.335 L665.935 127.669 L670.611 127.669 L670.611 158.293 L678.25 158.293 L678.25 162.229 L658.343 162.229 L658.343 158.293 Z" fill="#000000" fill-rule="nonzero" fill-opacity="1" /><circle clip-path="url(#clip330)" cx="369.939" cy="196.789" r="20.48" fill="#e26f46" fill-rule="evenodd" fill-opacity="1" stroke="#000000" stroke-opacity="1" stroke-width="4.55111"/>
<path clip-path="url(#clip330)" d="M486.006 189.138 L486.006 193.12 Q484.2 192.124 482.371 191.638 Q480.566 191.129 478.714 191.129 Q474.571 191.129 472.279 193.768 Q469.987 196.384 469.987 201.129 Q469.987 205.874 472.279 208.513 Q474.571 211.129 478.714 211.129 Q480.566 211.129 482.371 210.643 Q484.2 210.133 486.006 209.138 L486.006 213.073 Q484.223 213.907 482.302 214.323 Q480.404 214.74 478.251 214.74 Q472.395 214.74 468.946 211.059 Q465.497 207.379 465.497 201.129 Q465.497 194.786 468.969 191.152 Q472.464 187.518 478.529 187.518 Q480.496 187.518 482.371 187.935 Q484.246 188.328 486.006 189.138 Z" fill="#000000" fill-rule="nonzero" fill-opacity="1" /><path clip-path="url(#clip330)" d="M503.459 191.129 Q500.033 191.129 498.043 193.814 Q496.052 196.476 496.052 201.129 Q496.052 205.782 498.02 208.467 Q500.01 211.129 503.459 211.129 Q506.862 211.129 508.853 208.444 Q510.844 205.758 510.844 201.129 Q510.844 196.522 508.853 193.837 Q506.862 191.129 503.459 191.129 M503.459 187.518 Q509.015 187.518 512.186 191.129 Q515.357 194.74 515.357 201.129 Q515.357 207.495 512.186 211.129 Q509.015 214.74 503.459 214.74 Q497.881 214.74 494.709 211.129 Q491.561 207.495 491.561 201.129 Q491.561 194.74 494.709 191.129 Q497.881 187.518 503.459 187.518 Z" fill="#000000" fill-rule="nonzero" fill-opacity="1" /><path clip-path="url(#clip330)" d="M522.418 178.05 L526.677 178.05 L526.677 214.069 L522.418 214.069 L522.418 178.05 Z" fill="#000000" fill-rule="nonzero" fill-opacity="1" /><path clip-path="url(#clip330)" d="M535.149 203.837 L535.149 188.143 L539.408 188.143 L539.408 203.675 Q539.408 207.356 540.843 209.208 Q542.279 211.036 545.149 211.036 Q548.598 211.036 550.589 208.837 Q552.603 206.638 552.603 202.842 L552.603 188.143 L556.862 188.143 L556.862 214.069 L552.603 214.069 L552.603 210.087 Q551.052 212.448 548.991 213.606 Q546.954 214.74 544.246 214.74 Q539.779 214.74 537.464 211.962 Q535.149 209.184 535.149 203.837 M545.866 187.518 L545.866 187.518 Z" fill="#000000" fill-rule="nonzero" fill-opacity="1" /><path clip-path="url(#clip330)" d="M585.82 193.12 Q587.417 190.249 589.639 188.884 Q591.862 187.518 594.871 187.518 Q598.922 187.518 601.121 190.365 Q603.32 193.189 603.32 198.421 L603.32 214.069 L599.037 214.069 L599.037 198.559 Q599.037 194.833 597.718 193.027 Q596.399 191.222 593.69 191.222 Q590.38 191.222 588.459 193.421 Q586.538 195.62 586.538 199.416 L586.538 214.069 L582.255 214.069 L582.255 198.559 Q582.255 194.809 580.936 193.027 Q579.616 191.222 576.862 191.222 Q573.598 191.222 571.677 193.444 Q569.755 195.643 569.755 199.416 L569.755 214.069 L565.473 214.069 L565.473 188.143 L569.755 188.143 L569.755 192.171 Q571.214 189.786 573.251 188.652 Q575.288 187.518 578.089 187.518 Q580.913 187.518 582.88 188.953 Q584.871 190.388 585.82 193.12 Z" fill="#000000" fill-rule="nonzero" fill-opacity="1" /><path clip-path="url(#clip330)" d="M633.366 198.421 L633.366 214.069 L629.107 214.069 L629.107 198.559 Q629.107 194.879 627.672 193.05 Q626.236 191.222 623.366 191.222 Q619.917 191.222 617.926 193.421 Q615.936 195.62 615.936 199.416 L615.936 214.069 L611.653 214.069 L611.653 188.143 L615.936 188.143 L615.936 192.171 Q617.463 189.833 619.523 188.675 Q621.607 187.518 624.315 187.518 Q628.783 187.518 631.074 190.296 Q633.366 193.05 633.366 198.421 Z" fill="#000000" fill-rule="nonzero" fill-opacity="1" /><path clip-path="url(#clip330)" d="M661.56 210.133 L677.88 210.133 L677.88 214.069 L655.935 214.069 L655.935 210.133 Q658.597 207.379 663.181 202.749 Q667.787 198.096 668.968 196.754 Q671.213 194.231 672.093 192.495 Q672.995 190.735 672.995 189.046 Q672.995 186.291 671.051 184.555 Q669.13 182.819 666.028 182.819 Q663.829 182.819 661.375 183.583 Q658.945 184.347 656.167 185.897 L656.167 181.175 Q658.991 180.041 661.445 179.462 Q663.898 178.884 665.935 178.884 Q671.306 178.884 674.5 181.569 Q677.694 184.254 677.694 188.745 Q677.694 190.874 676.884 192.796 Q676.097 194.694 673.991 197.286 Q673.412 197.958 670.31 201.175 Q667.208 204.37 661.56 210.133 Z" fill="#000000" fill-rule="nonzero" fill-opacity="1" /></svg>
