<?xml version="1.0" encoding="utf-8"?>
<svg xmlns="http://www.w3.org/2000/svg" xmlns:xlink="http://www.w3.org/1999/xlink" width="600" height="400" viewBox="0 0 2400 1600">
<defs>
  <clipPath id="clip770">
    <rect x="0" y="0" width="2400" height="1600"/>
  </clipPath>
</defs>
<path clip-path="url(#clip770)" d="M0 1600 L2400 1600 L2400 0 L0 0  Z" fill="#ffffff" fill-rule="evenodd" fill-opacity="1"/>
<defs>
  <clipPath id="clip771">
    <rect x="480" y="0" width="1681" height="1600"/>
  </clipPath>
</defs>
<path clip-path="url(#clip770)" d="M219.866 1423.18 L2352.76 1423.18 L2352.76 47.2441 L219.866 47.2441  Z" fill="#ffffff" fill-rule="evenodd" fill-opacity="1"/>
<defs>
  <clipPath id="clip772">
    <rect x="219" y="47" width="2134" height="1377"/>
  </clipPath>
</defs>
<polyline clip-path="url(#clip772)" style="stroke:#000000; stroke-linecap:round; stroke-linejoin:round; stroke-width:2; stroke-opacity:0.1; fill:none" points="304.591,1423.18 304.591,47.2441 "/>
<polyline clip-path="url(#clip772)" style="stroke:#000000; stroke-linecap:round; stroke-linejoin:round; stroke-width:2; stroke-opacity:0.1; fill:none" points="629.395,1423.18 629.395,47.2441 "/>
<polyline clip-path="url(#clip772)" style="stroke:#000000; stroke-linecap:round; stroke-linejoin:round; stroke-width:2; stroke-opacity:0.1; fill:none" points="954.199,1423.18 954.199,47.2441 "/>
<polyline clip-path="url(#clip772)" style="stroke:#000000; stroke-linecap:round; stroke-linejoin:round; stroke-width:2; stroke-opacity:0.1; fill:none" points="1279,1423.18 1279,47.2441 "/>
<polyline clip-path="url(#clip772)" style="stroke:#000000; stroke-linecap:round; stroke-linejoin:round; stroke-width:2; stroke-opacity:0.1; fill:none" points="1603.81,1423.18 1603.81,47.2441 "/>
<polyline clip-path="url(#clip772)" style="stroke:#000000; stroke-linecap:round; stroke-linejoin:round; stroke-width:2; stroke-opacity:0.1; fill:none" points="1928.61,1423.18 1928.61,47.2441 "/>
<polyline clip-path="url(#clip772)" style="stroke:#000000; stroke-linecap:round; stroke-linejoin:round; stroke-width:2; stroke-opacity:0.1; fill:none" points="2253.41,1423.18 2253.41,47.2441 "/>
<polyline clip-path="url(#clip770)" style="stroke:#000000; stroke-linecap:round; stroke-linejoin:round; stroke-width:4; stroke-opacity:1; fill:none" points="219.866,1423.18 2352.76,1423.18 "/>
<polyline clip-path="url(#clip770)" style="stroke:#000000; stroke-linecap:round; stroke-linejoin:round; stroke-width:4; stroke-opacity:1; fill:none" points="304.591,1423.18 304.591,1404.28 "/>
<polyline clip-path="url(#clip770)" style="stroke:#000000; stroke-linecap:round; stroke-linejoin:round; stroke-width:4; stroke-opacity:1; fill:none" points="629.395,1423.18 629.395,1404.28 "/>
<polyline clip-path="url(#clip770)" style="stroke:#000000; stroke-linecap:round; stroke-linejoin:round; stroke-width:4; stroke-opacity:1; fill:none" points="954.199,1423.18 954.199,1404.28 "/>
<polyline clip-path="url(#clip770)" style="stroke:#000000; stroke-linecap:round; stroke-linejoin:round; stroke-width:4; stroke-opacity:1; fill:none" points="1279,1423.18 1279,1404.28 "/>
<polyline clip-path="url(#clip770)" style="stroke:#000000; stroke-linecap:round; stroke-linejoin:round; stroke-width:4; stroke-opacity:1; fill:none" points="1603.81,1423.18 1603.81,1404.28 "/>
<polyline clip-path="url(#clip770)" style="stroke:#000000; stroke-linecap:round; stroke-linejoin:round; stroke-width:4; stroke-opacity:1; fill:none" points="1928.61,1423.18 1928.61,1404.28 "/>
<polyline clip-path="url(#clip770)" style="stroke:#000000; stroke-linecap:round; stroke-linejoin:round; stroke-width:4; stroke-opacity:1; fill:none" points="2253.41,1423.18 2253.41,1404.28 "/>
<path clip-path="url(#clip770)" d="M299.244 1481.64 L315.564 1481.64 L315.564 1485.58 L293.619 1485.58 L293.619 1481.64 Q296.281 1478.89 300.865 1474.26 Q305.471 1469.61 306.652 1468.27 Q308.897 1465.74 309.777 1464.01 Q310.679 1462.25 310.679 1460.56 Q310.679 1457.8 308.735 1456.07 Q306.814 1454.33 303.712 1454.33 Q301.513 1454.33 299.059 1455.09 Q296.628 1455.86 293.851 1457.41 L293.851 1452.69 Q296.675 1451.55 299.128 1450.97 Q301.582 1450.39 303.619 1450.39 Q308.989 1450.39 312.184 1453.08 Q315.378 1455.77 315.378 1460.26 Q315.378 1462.39 314.568 1464.31 Q313.781 1466.2 311.675 1468.8 Q311.096 1469.47 307.994 1472.69 Q304.892 1475.88 299.244 1481.64 Z" fill="#000000" fill-rule="nonzero" fill-opacity="1" /><path clip-path="url(#clip770)" d="M633.643 1466.95 Q636.999 1467.66 638.874 1469.93 Q640.772 1472.2 640.772 1475.53 Q640.772 1480.65 637.254 1483.45 Q633.735 1486.25 627.254 1486.25 Q625.078 1486.25 622.763 1485.81 Q620.472 1485.39 618.018 1484.54 L618.018 1480.02 Q619.962 1481.16 622.277 1481.74 Q624.592 1482.32 627.115 1482.32 Q631.513 1482.32 633.805 1480.58 Q636.12 1478.84 636.12 1475.53 Q636.12 1472.48 633.967 1470.77 Q631.837 1469.03 628.018 1469.03 L623.99 1469.03 L623.99 1465.19 L628.203 1465.19 Q631.652 1465.19 633.481 1463.82 Q635.31 1462.43 635.31 1459.84 Q635.31 1457.18 633.411 1455.77 Q631.536 1454.33 628.018 1454.33 Q626.097 1454.33 623.898 1454.75 Q621.699 1455.16 619.06 1456.04 L619.06 1451.88 Q621.722 1451.14 624.036 1450.77 Q626.374 1450.39 628.435 1450.39 Q633.759 1450.39 636.86 1452.83 Q639.962 1455.23 639.962 1459.35 Q639.962 1462.22 638.319 1464.21 Q636.675 1466.18 633.643 1466.95 Z" fill="#000000" fill-rule="nonzero" fill-opacity="1" /><path clip-path="url(#clip770)" d="M957.208 1455.09 L945.403 1473.54 L957.208 1473.54 L957.208 1455.09 M955.982 1451.02 L961.861 1451.02 L961.861 1473.54 L966.792 1473.54 L966.792 1477.43 L961.861 1477.43 L961.861 1485.58 L957.208 1485.58 L957.208 1477.43 L941.607 1477.43 L941.607 1472.92 L955.982 1451.02 Z" fill="#000000" fill-rule="nonzero" fill-opacity="1" /><path clip-path="url(#clip770)" d="M1269.28 1451.02 L1287.64 1451.02 L1287.64 1454.96 L1273.56 1454.96 L1273.56 1463.43 Q1274.58 1463.08 1275.6 1462.92 Q1276.62 1462.73 1277.64 1462.73 Q1283.42 1462.73 1286.8 1465.9 Q1290.18 1469.08 1290.18 1474.49 Q1290.18 1480.07 1286.71 1483.17 Q1283.24 1486.25 1276.92 1486.25 Q1274.74 1486.25 1272.48 1485.88 Q1270.23 1485.51 1267.82 1484.77 L1267.82 1480.07 Q1269.91 1481.2 1272.13 1481.76 Q1274.35 1482.32 1276.83 1482.32 Q1280.83 1482.32 1283.17 1480.21 Q1285.51 1478.1 1285.51 1474.49 Q1285.51 1470.88 1283.17 1468.77 Q1280.83 1466.67 1276.83 1466.67 Q1274.95 1466.67 1273.08 1467.08 Q1271.23 1467.5 1269.28 1468.38 L1269.28 1451.02 Z" fill="#000000" fill-rule="nonzero" fill-opacity="1" /><path clip-path="url(#clip770)" d="M1604.21 1466.44 Q1601.06 1466.44 1599.21 1468.59 Q1597.38 1470.74 1597.38 1474.49 Q1597.38 1478.22 1599.21 1480.39 Q1601.06 1482.55 1604.21 1482.55 Q1607.36 1482.55 1609.19 1480.39 Q1611.04 1478.22 1611.04 1474.49 Q1611.04 1470.74 1609.19 1468.59 Q1607.36 1466.44 1604.21 1466.44 M1613.49 1451.78 L1613.49 1456.04 Q1611.74 1455.21 1609.93 1454.77 Q1608.15 1454.33 1606.39 1454.33 Q1601.76 1454.33 1599.3 1457.45 Q1596.87 1460.58 1596.53 1466.9 Q1597.89 1464.89 1599.95 1463.82 Q1602.01 1462.73 1604.49 1462.73 Q1609.7 1462.73 1612.71 1465.9 Q1615.74 1469.05 1615.74 1474.49 Q1615.74 1479.82 1612.59 1483.03 Q1609.44 1486.25 1604.21 1486.25 Q1598.22 1486.25 1595.05 1481.67 Q1591.87 1477.06 1591.87 1468.33 Q1591.87 1460.14 1595.76 1455.28 Q1599.65 1450.39 1606.2 1450.39 Q1607.96 1450.39 1609.74 1450.74 Q1611.55 1451.09 1613.49 1451.78 Z" fill="#000000" fill-rule="nonzero" fill-opacity="1" /><path clip-path="url(#clip770)" d="M1917.5 1451.02 L1939.72 1451.02 L1939.72 1453.01 L1927.18 1485.58 L1922.29 1485.58 L1934.1 1454.96 L1917.5 1454.96 L1917.5 1451.02 Z" fill="#000000" fill-rule="nonzero" fill-opacity="1" /><path clip-path="url(#clip770)" d="M2253.41 1469.17 Q2250.08 1469.17 2248.16 1470.95 Q2246.26 1472.73 2246.26 1475.86 Q2246.26 1478.98 2248.16 1480.77 Q2250.08 1482.55 2253.41 1482.55 Q2256.75 1482.55 2258.67 1480.77 Q2260.59 1478.96 2260.59 1475.86 Q2260.59 1472.73 2258.67 1470.95 Q2256.77 1469.17 2253.41 1469.17 M2248.74 1467.18 Q2245.73 1466.44 2244.04 1464.38 Q2242.37 1462.32 2242.37 1459.35 Q2242.37 1455.21 2245.31 1452.8 Q2248.28 1450.39 2253.41 1450.39 Q2258.58 1450.39 2261.52 1452.8 Q2264.46 1455.21 2264.46 1459.35 Q2264.46 1462.32 2262.77 1464.38 Q2261.1 1466.44 2258.11 1467.18 Q2261.49 1467.96 2263.37 1470.26 Q2265.27 1472.55 2265.27 1475.86 Q2265.27 1480.88 2262.19 1483.57 Q2259.13 1486.25 2253.41 1486.25 Q2247.7 1486.25 2244.62 1483.57 Q2241.56 1480.88 2241.56 1475.86 Q2241.56 1472.55 2243.46 1470.26 Q2245.36 1467.96 2248.74 1467.18 M2247.03 1459.79 Q2247.03 1462.48 2248.69 1463.98 Q2250.38 1465.49 2253.41 1465.49 Q2256.42 1465.49 2258.11 1463.98 Q2259.83 1462.48 2259.83 1459.79 Q2259.83 1457.11 2258.11 1455.6 Q2256.42 1454.1 2253.41 1454.1 Q2250.38 1454.1 2248.69 1455.6 Q2247.03 1457.11 2247.03 1459.79 Z" fill="#000000" fill-rule="nonzero" fill-opacity="1" /><path clip-path="url(#clip770)" d="M1228.48 1545.35 L1228.48 1562.76 L1238.79 1562.76 Q1243.98 1562.76 1246.46 1560.63 Q1248.98 1558.46 1248.98 1554.04 Q1248.98 1549.58 1246.46 1547.48 Q1243.98 1545.35 1238.79 1545.35 L1228.48 1545.35 M1228.48 1525.81 L1228.48 1540.13 L1238 1540.13 Q1242.71 1540.13 1245 1538.38 Q1247.32 1536.6 1247.32 1532.97 Q1247.32 1529.37 1245 1527.59 Q1242.71 1525.81 1238 1525.81 L1228.48 1525.81 M1222.05 1520.52 L1238.47 1520.52 Q1245.83 1520.52 1249.8 1523.58 Q1253.78 1526.63 1253.78 1532.27 Q1253.78 1536.63 1251.75 1539.21 Q1249.71 1541.79 1245.76 1542.42 Q1250.5 1543.44 1253.11 1546.69 Q1255.76 1549.9 1255.76 1554.74 Q1255.76 1561.11 1251.43 1564.57 Q1247.1 1568.04 1239.11 1568.04 L1222.05 1568.04 L1222.05 1520.52 Z" fill="#000000" fill-rule="nonzero" fill-opacity="1" /><path clip-path="url(#clip770)" d="M1266.51 1532.4 L1272.37 1532.4 L1272.37 1568.04 L1266.51 1568.04 L1266.51 1532.4 M1266.51 1518.52 L1272.37 1518.52 L1272.37 1525.93 L1266.51 1525.93 L1266.51 1518.52 Z" fill="#000000" fill-rule="nonzero" fill-opacity="1" /><path clip-path="url(#clip770)" d="M1314.26 1546.53 L1314.26 1568.04 L1308.4 1568.04 L1308.4 1546.72 Q1308.4 1541.66 1306.43 1539.14 Q1304.45 1536.63 1300.51 1536.63 Q1295.76 1536.63 1293.03 1539.65 Q1290.29 1542.68 1290.29 1547.9 L1290.29 1568.04 L1284.4 1568.04 L1284.4 1532.4 L1290.29 1532.4 L1290.29 1537.93 Q1292.39 1534.72 1295.22 1533.13 Q1298.09 1531.54 1301.81 1531.54 Q1307.95 1531.54 1311.11 1535.36 Q1314.26 1539.14 1314.26 1546.53 Z" fill="#000000" fill-rule="nonzero" fill-opacity="1" /><path clip-path="url(#clip770)" d="M1348.66 1533.45 L1348.66 1538.98 Q1346.18 1537.71 1343.51 1537.07 Q1340.83 1536.44 1337.97 1536.44 Q1333.61 1536.44 1331.41 1537.77 Q1329.25 1539.11 1329.25 1541.79 Q1329.25 1543.82 1330.81 1545 Q1332.37 1546.15 1337.08 1547.2 L1339.08 1547.64 Q1345.32 1548.98 1347.93 1551.43 Q1350.57 1553.85 1350.57 1558.21 Q1350.57 1563.17 1346.63 1566.07 Q1342.71 1568.97 1335.84 1568.97 Q1332.97 1568.97 1329.85 1568.39 Q1326.77 1567.85 1323.33 1566.74 L1323.33 1560.69 Q1326.57 1562.38 1329.73 1563.24 Q1332.88 1564.07 1335.96 1564.07 Q1340.1 1564.07 1342.33 1562.66 Q1344.56 1561.23 1344.56 1558.65 Q1344.56 1556.27 1342.93 1554.99 Q1341.34 1553.72 1335.9 1552.54 L1333.86 1552.07 Q1328.42 1550.92 1326 1548.56 Q1323.58 1546.18 1323.58 1542.04 Q1323.58 1537.01 1327.15 1534.27 Q1330.71 1531.54 1337.27 1531.54 Q1340.52 1531.54 1343.38 1532.01 Q1346.24 1532.49 1348.66 1533.45 Z" fill="#000000" fill-rule="nonzero" fill-opacity="1" /><polyline clip-path="url(#clip772)" style="stroke:#000000; stroke-linecap:round; stroke-linejoin:round; stroke-width:2; stroke-opacity:0.1; fill:none" points="219.866,1423.18 2352.76,1423.18 "/>
<polyline clip-path="url(#clip772)" style="stroke:#000000; stroke-linecap:round; stroke-linejoin:round; stroke-width:2; stroke-opacity:0.1; fill:none" points="219.866,1119.66 2352.76,1119.66 "/>
<polyline clip-path="url(#clip772)" style="stroke:#000000; stroke-linecap:round; stroke-linejoin:round; stroke-width:2; stroke-opacity:0.1; fill:none" points="219.866,816.149 2352.76,816.149 "/>
<polyline clip-path="url(#clip772)" style="stroke:#000000; stroke-linecap:round; stroke-linejoin:round; stroke-width:2; stroke-opacity:0.1; fill:none" points="219.866,512.634 2352.76,512.634 "/>
<polyline clip-path="url(#clip772)" style="stroke:#000000; stroke-linecap:round; stroke-linejoin:round; stroke-width:2; stroke-opacity:0.1; fill:none" points="219.866,209.119 2352.76,209.119 "/>
<polyline clip-path="url(#clip770)" style="stroke:#000000; stroke-linecap:round; stroke-linejoin:round; stroke-width:4; stroke-opacity:1; fill:none" points="219.866,1423.18 219.866,47.2441 "/>
<polyline clip-path="url(#clip770)" style="stroke:#000000; stroke-linecap:round; stroke-linejoin:round; stroke-width:4; stroke-opacity:1; fill:none" points="219.866,1423.18 238.764,1423.18 "/>
<polyline clip-path="url(#clip770)" style="stroke:#000000; stroke-linecap:round; stroke-linejoin:round; stroke-width:4; stroke-opacity:1; fill:none" points="219.866,1119.66 238.764,1119.66 "/>
<polyline clip-path="url(#clip770)" style="stroke:#000000; stroke-linecap:round; stroke-linejoin:round; stroke-width:4; stroke-opacity:1; fill:none" points="219.866,816.149 238.764,816.149 "/>
<polyline clip-path="url(#clip770)" style="stroke:#000000; stroke-linecap:round; stroke-linejoin:round; stroke-width:4; stroke-opacity:1; fill:none" points="219.866,512.634 238.764,512.634 "/>
<polyline clip-path="url(#clip770)" style="stroke:#000000; stroke-linecap:round; stroke-linejoin:round; stroke-width:4; stroke-opacity:1; fill:none" points="219.866,209.119 238.764,209.119 "/>
<path clip-path="url(#clip770)" d="M126.691 1408.98 Q123.08 1408.98 121.251 1412.54 Q119.445 1416.08 119.445 1423.21 Q119.445 1430.32 121.251 1433.89 Q123.08 1437.43 126.691 1437.43 Q130.325 1437.43 132.13 1433.89 Q133.959 1430.32 133.959 1423.21 Q133.959 1416.08 132.13 1412.54 Q130.325 1408.98 126.691 1408.98 M126.691 1405.27 Q132.501 1405.27 135.556 1409.88 Q138.635 1414.46 138.635 1423.21 Q138.635 1431.94 135.556 1436.55 Q132.501 1441.13 126.691 1441.13 Q120.88 1441.13 117.802 1436.55 Q114.746 1431.94 114.746 1423.21 Q114.746 1414.46 117.802 1409.88 Q120.88 1405.27 126.691 1405.27 Z" fill="#000000" fill-rule="nonzero" fill-opacity="1" /><path clip-path="url(#clip770)" d="M146.853 1434.58 L151.737 1434.58 L151.737 1440.46 L146.853 1440.46 L146.853 1434.58 Z" fill="#000000" fill-rule="nonzero" fill-opacity="1" /><path clip-path="url(#clip770)" d="M171.922 1408.98 Q168.311 1408.98 166.482 1412.54 Q164.677 1416.08 164.677 1423.21 Q164.677 1430.32 166.482 1433.89 Q168.311 1437.43 171.922 1437.43 Q175.556 1437.43 177.362 1433.89 Q179.19 1430.32 179.19 1423.21 Q179.19 1416.08 177.362 1412.54 Q175.556 1408.98 171.922 1408.98 M171.922 1405.27 Q177.732 1405.27 180.788 1409.88 Q183.866 1414.46 183.866 1423.21 Q183.866 1431.94 180.788 1436.55 Q177.732 1441.13 171.922 1441.13 Q166.112 1441.13 163.033 1436.55 Q159.978 1431.94 159.978 1423.21 Q159.978 1414.46 163.033 1409.88 Q166.112 1405.27 171.922 1405.27 Z" fill="#000000" fill-rule="nonzero" fill-opacity="1" /><path clip-path="url(#clip770)" d="M127.917 1105.46 Q124.306 1105.46 122.478 1109.03 Q120.672 1112.57 120.672 1119.7 Q120.672 1126.81 122.478 1130.37 Q124.306 1133.91 127.917 1133.91 Q131.552 1133.91 133.357 1130.37 Q135.186 1126.81 135.186 1119.7 Q135.186 1112.57 133.357 1109.03 Q131.552 1105.46 127.917 1105.46 M127.917 1101.76 Q133.728 1101.76 136.783 1106.37 Q139.862 1110.95 139.862 1119.7 Q139.862 1128.43 136.783 1133.03 Q133.728 1137.62 127.917 1137.62 Q122.107 1137.62 119.029 1133.03 Q115.973 1128.43 115.973 1119.7 Q115.973 1110.95 119.029 1106.37 Q122.107 1101.76 127.917 1101.76 Z" fill="#000000" fill-rule="nonzero" fill-opacity="1" /><path clip-path="url(#clip770)" d="M148.079 1131.07 L152.964 1131.07 L152.964 1136.94 L148.079 1136.94 L148.079 1131.07 Z" fill="#000000" fill-rule="nonzero" fill-opacity="1" /><path clip-path="url(#clip770)" d="M163.959 1133.01 L171.598 1133.01 L171.598 1106.64 L163.288 1108.31 L163.288 1104.05 L171.552 1102.38 L176.227 1102.38 L176.227 1133.01 L183.866 1133.01 L183.866 1136.94 L163.959 1136.94 L163.959 1133.01 Z" fill="#000000" fill-rule="nonzero" fill-opacity="1" /><path clip-path="url(#clip770)" d="M128.288 801.948 Q124.677 801.948 122.848 805.513 Q121.043 809.054 121.043 816.184 Q121.043 823.291 122.848 826.855 Q124.677 830.397 128.288 830.397 Q131.922 830.397 133.728 826.855 Q135.556 823.291 135.556 816.184 Q135.556 809.054 133.728 805.513 Q131.922 801.948 128.288 801.948 M128.288 798.244 Q134.098 798.244 137.154 802.851 Q140.232 807.434 140.232 816.184 Q140.232 824.911 137.154 829.517 Q134.098 834.101 128.288 834.101 Q122.478 834.101 119.399 829.517 Q116.343 824.911 116.343 816.184 Q116.343 807.434 119.399 802.851 Q122.478 798.244 128.288 798.244 Z" fill="#000000" fill-rule="nonzero" fill-opacity="1" /><path clip-path="url(#clip770)" d="M148.45 827.55 L153.334 827.55 L153.334 833.429 L148.45 833.429 L148.45 827.55 Z" fill="#000000" fill-rule="nonzero" fill-opacity="1" /><path clip-path="url(#clip770)" d="M167.547 829.494 L183.866 829.494 L183.866 833.429 L161.922 833.429 L161.922 829.494 Q164.584 826.74 169.167 822.11 Q173.774 817.457 174.954 816.115 Q177.2 813.592 178.079 811.855 Q178.982 810.096 178.982 808.406 Q178.982 805.652 177.038 803.916 Q175.116 802.18 172.014 802.18 Q169.815 802.18 167.362 802.943 Q164.931 803.707 162.153 805.258 L162.153 800.536 Q164.977 799.402 167.431 798.823 Q169.885 798.244 171.922 798.244 Q177.292 798.244 180.487 800.93 Q183.681 803.615 183.681 808.105 Q183.681 810.235 182.871 812.156 Q182.084 814.054 179.977 816.647 Q179.399 817.318 176.297 820.536 Q173.195 823.73 167.547 829.494 Z" fill="#000000" fill-rule="nonzero" fill-opacity="1" /><path clip-path="url(#clip770)" d="M127.339 498.433 Q123.728 498.433 121.899 501.998 Q120.093 505.539 120.093 512.669 Q120.093 519.775 121.899 523.34 Q123.728 526.882 127.339 526.882 Q130.973 526.882 132.779 523.34 Q134.607 519.775 134.607 512.669 Q134.607 505.539 132.779 501.998 Q130.973 498.433 127.339 498.433 M127.339 494.729 Q133.149 494.729 136.204 499.336 Q139.283 503.919 139.283 512.669 Q139.283 521.396 136.204 526.002 Q133.149 530.585 127.339 530.585 Q121.529 530.585 118.45 526.002 Q115.394 521.396 115.394 512.669 Q115.394 503.919 118.45 499.336 Q121.529 494.729 127.339 494.729 Z" fill="#000000" fill-rule="nonzero" fill-opacity="1" /><path clip-path="url(#clip770)" d="M147.501 524.035 L152.385 524.035 L152.385 529.914 L147.501 529.914 L147.501 524.035 Z" fill="#000000" fill-rule="nonzero" fill-opacity="1" /><path clip-path="url(#clip770)" d="M176.737 511.28 Q180.093 511.998 181.968 514.266 Q183.866 516.535 183.866 519.868 Q183.866 524.984 180.348 527.785 Q176.829 530.585 170.348 530.585 Q168.172 530.585 165.857 530.146 Q163.565 529.729 161.112 528.872 L161.112 524.359 Q163.056 525.493 165.371 526.072 Q167.686 526.65 170.209 526.65 Q174.607 526.65 176.899 524.914 Q179.214 523.178 179.214 519.868 Q179.214 516.812 177.061 515.099 Q174.931 513.363 171.112 513.363 L167.084 513.363 L167.084 509.521 L171.297 509.521 Q174.746 509.521 176.575 508.155 Q178.403 506.766 178.403 504.174 Q178.403 501.512 176.505 500.099 Q174.63 498.664 171.112 498.664 Q169.19 498.664 166.991 499.081 Q164.792 499.498 162.153 500.377 L162.153 496.211 Q164.815 495.47 167.13 495.099 Q169.468 494.729 171.528 494.729 Q176.852 494.729 179.954 497.16 Q183.056 499.567 183.056 503.687 Q183.056 506.558 181.413 508.549 Q179.769 510.516 176.737 511.28 Z" fill="#000000" fill-rule="nonzero" fill-opacity="1" /><path clip-path="url(#clip770)" d="M126.205 194.918 Q122.593 194.918 120.765 198.482 Q118.959 202.024 118.959 209.154 Q118.959 216.26 120.765 219.825 Q122.593 223.366 126.205 223.366 Q129.839 223.366 131.644 219.825 Q133.473 216.26 133.473 209.154 Q133.473 202.024 131.644 198.482 Q129.839 194.918 126.205 194.918 M126.205 191.214 Q132.015 191.214 135.07 195.82 Q138.149 200.404 138.149 209.154 Q138.149 217.88 135.07 222.487 Q132.015 227.07 126.205 227.07 Q120.394 227.07 117.316 222.487 Q114.26 217.88 114.26 209.154 Q114.26 200.404 117.316 195.82 Q120.394 191.214 126.205 191.214 Z" fill="#000000" fill-rule="nonzero" fill-opacity="1" /><path clip-path="url(#clip770)" d="M146.366 220.519 L151.251 220.519 L151.251 226.399 L146.366 226.399 L146.366 220.519 Z" fill="#000000" fill-rule="nonzero" fill-opacity="1" /><path clip-path="url(#clip770)" d="M174.283 195.913 L162.477 214.362 L174.283 214.362 L174.283 195.913 M173.056 191.839 L178.936 191.839 L178.936 214.362 L183.866 214.362 L183.866 218.251 L178.936 218.251 L178.936 226.399 L174.283 226.399 L174.283 218.251 L158.681 218.251 L158.681 213.737 L173.056 191.839 Z" fill="#000000" fill-rule="nonzero" fill-opacity="1" /><path clip-path="url(#clip770)" d="M16.4842 899.415 L16.4842 872.106 L21.895 872.106 L21.895 892.986 L35.8996 892.986 L35.8996 874.144 L41.3104 874.144 L41.3104 892.986 L64.0042 892.986 L64.0042 899.415 L16.4842 899.415 Z" fill="#000000" fill-rule="nonzero" fill-opacity="1" /><path clip-path="url(#clip770)" d="M33.8307 846.262 Q33.2578 847.248 33.0032 848.426 Q32.7167 849.572 32.7167 850.972 Q32.7167 855.938 35.9632 858.611 Q39.1779 861.253 45.2253 861.253 L64.0042 861.253 L64.0042 867.141 L28.3562 867.141 L28.3562 861.253 L33.8944 861.253 Q30.6479 859.407 29.0883 856.447 Q27.4968 853.487 27.4968 849.254 Q27.4968 848.649 27.5923 847.917 Q27.656 847.185 27.8151 846.294 L33.8307 846.262 Z" fill="#000000" fill-rule="nonzero" fill-opacity="1" /><path clip-path="url(#clip770)" d="M44.7161 811.059 L47.5806 811.059 L47.5806 837.986 Q53.6281 837.604 56.8109 834.358 Q59.9619 831.08 59.9619 825.255 Q59.9619 821.881 59.1344 818.73 Q58.3069 815.547 56.6518 812.428 L62.1899 812.428 Q63.5267 815.579 64.227 818.889 Q64.9272 822.199 64.9272 825.605 Q64.9272 834.135 59.9619 839.132 Q54.9967 844.097 46.5303 844.097 Q37.7774 844.097 32.6531 839.387 Q27.4968 834.644 27.4968 826.624 Q27.4968 819.43 32.1438 815.261 Q36.7589 811.059 44.7161 811.059 M42.9973 816.916 Q38.1912 816.979 35.3266 819.621 Q32.4621 822.231 32.4621 826.56 Q32.4621 831.461 35.2312 834.422 Q38.0002 837.35 43.0292 837.795 L42.9973 816.916 Z" fill="#000000" fill-rule="nonzero" fill-opacity="1" /><path clip-path="url(#clip770)" d="M46.212 797.946 Q52.6732 797.946 56.3653 795.304 Q60.0256 792.631 60.0256 787.984 Q60.0256 783.337 56.3653 780.663 Q52.6732 777.99 46.212 777.99 Q39.7508 777.99 36.0905 780.663 Q32.3984 783.337 32.3984 787.984 Q32.3984 792.631 36.0905 795.304 Q39.7508 797.946 46.212 797.946 M58.657 777.99 Q61.8398 779.836 63.3994 782.668 Q64.9272 785.469 64.9272 789.416 Q64.9272 795.877 59.771 799.951 Q54.6147 803.993 46.212 803.993 Q37.8093 803.993 32.6531 799.951 Q27.4968 795.877 27.4968 789.416 Q27.4968 785.469 29.0564 782.668 Q30.5842 779.836 33.7671 777.99 L28.3562 777.99 L28.3562 772.133 L77.5631 772.133 L77.5631 777.99 L58.657 777.99 Z" fill="#000000" fill-rule="nonzero" fill-opacity="1" /><path clip-path="url(#clip770)" d="M49.9359 760.675 L28.3562 760.675 L28.3562 754.818 L49.7131 754.818 Q54.7739 754.818 57.3202 752.845 Q59.8346 750.872 59.8346 746.925 Q59.8346 742.182 56.8109 739.445 Q53.7872 736.676 48.5673 736.676 L28.3562 736.676 L28.3562 730.82 L64.0042 730.82 L64.0042 736.676 L58.5296 736.676 Q61.7762 738.809 63.3676 741.641 Q64.9272 744.442 64.9272 748.166 Q64.9272 754.309 61.1078 757.492 Q57.2883 760.675 49.9359 760.675 M27.4968 745.938 L27.4968 745.938 Z" fill="#000000" fill-rule="nonzero" fill-opacity="1" /><path clip-path="url(#clip770)" d="M44.7161 688.265 L47.5806 688.265 L47.5806 715.192 Q53.6281 714.81 56.8109 711.563 Q59.9619 708.285 59.9619 702.46 Q59.9619 699.087 59.1344 695.936 Q58.3069 692.753 56.6518 689.634 L62.1899 689.634 Q63.5267 692.785 64.227 696.095 Q64.9272 699.405 64.9272 702.811 Q64.9272 711.341 59.9619 716.338 Q54.9967 721.303 46.5303 721.303 Q37.7774 721.303 32.6531 716.592 Q27.4968 711.85 27.4968 703.829 Q27.4968 696.636 32.1438 692.466 Q36.7589 688.265 44.7161 688.265 M42.9973 694.121 Q38.1912 694.185 35.3266 696.827 Q32.4621 699.437 32.4621 703.765 Q32.4621 708.667 35.2312 711.627 Q38.0002 714.555 43.0292 715.001 L42.9973 694.121 Z" fill="#000000" fill-rule="nonzero" fill-opacity="1" /><path clip-path="url(#clip770)" d="M42.4881 649.02 L64.0042 649.02 L64.0042 654.877 L42.679 654.877 Q37.6183 654.877 35.1038 656.85 Q32.5894 658.823 32.5894 662.77 Q32.5894 667.513 35.6131 670.25 Q38.6368 672.987 43.8567 672.987 L64.0042 672.987 L64.0042 678.875 L28.3562 678.875 L28.3562 672.987 L33.8944 672.987 Q30.6797 670.887 29.0883 668.054 Q27.4968 665.189 27.4968 661.465 Q27.4968 655.322 31.3163 652.171 Q35.1038 649.02 42.4881 649.02 Z" fill="#000000" fill-rule="nonzero" fill-opacity="1" /><path clip-path="url(#clip770)" d="M29.7248 611.685 L35.1993 611.685 Q33.8307 614.168 33.1623 616.683 Q32.4621 619.165 32.4621 621.711 Q32.4621 627.409 36.0905 630.56 Q39.6872 633.711 46.212 633.711 Q52.7369 633.711 56.3653 630.56 Q59.9619 627.409 59.9619 621.711 Q59.9619 619.165 59.2935 616.683 Q58.5933 614.168 57.2247 611.685 L62.6355 611.685 Q63.7814 614.136 64.3543 616.778 Q64.9272 619.388 64.9272 622.348 Q64.9272 630.401 59.8664 635.143 Q54.8057 639.886 46.212 639.886 Q37.491 639.886 32.4939 635.111 Q27.4968 630.305 27.4968 621.966 Q27.4968 619.261 28.0697 616.683 Q28.6108 614.104 29.7248 611.685 Z" fill="#000000" fill-rule="nonzero" fill-opacity="1" /><path clip-path="url(#clip770)" d="M67.3143 586.668 Q73.68 589.151 75.6216 591.506 Q77.5631 593.861 77.5631 597.808 L77.5631 602.487 L72.6615 602.487 L72.6615 599.05 Q72.6615 596.631 71.5157 595.294 Q70.3699 593.957 66.1048 592.334 L63.4312 591.283 L28.3562 605.702 L28.3562 599.495 L56.238 588.355 L28.3562 577.215 L28.3562 571.009 L67.3143 586.668 Z" fill="#000000" fill-rule="nonzero" fill-opacity="1" /><path clip-path="url(#clip772)" d="M954.199 1342.24 L954.199 1423.18 L1116.6 1423.18 L1116.6 1342.24 L954.199 1342.24 L954.199 1342.24  Z" fill="#009af9" fill-rule="evenodd" fill-opacity="1"/>
<polyline clip-path="url(#clip772)" style="stroke:#000000; stroke-linecap:round; stroke-linejoin:round; stroke-width:4; stroke-opacity:1; fill:none" points="954.199,1342.24 954.199,1423.18 1116.6,1423.18 1116.6,1342.24 954.199,1342.24 "/>
<path clip-path="url(#clip772)" d="M1116.6 1058.96 L1116.6 1423.18 L1279 1423.18 L1279 1058.96 L1116.6 1058.96 L1116.6 1058.96  Z" fill="#009af9" fill-rule="evenodd" fill-opacity="1"/>
<polyline clip-path="url(#clip772)" style="stroke:#000000; stroke-linecap:round; stroke-linejoin:round; stroke-width:4; stroke-opacity:1; fill:none" points="1116.6,1058.96 1116.6,1423.18 1279,1423.18 1279,1058.96 1116.6,1058.96 "/>
<path clip-path="url(#clip772)" d="M1279 816.149 L1279 1423.18 L1441.4 1423.18 L1441.4 816.149 L1279 816.149 L1279 816.149  Z" fill="#009af9" fill-rule="evenodd" fill-opacity="1"/>
<polyline clip-path="url(#clip772)" style="stroke:#000000; stroke-linecap:round; stroke-linejoin:round; stroke-width:4; stroke-opacity:1; fill:none" points="1279,816.149 1279,1423.18 1441.4,1423.18 1441.4,816.149 1279,816.149 "/>
<path clip-path="url(#clip772)" d="M1441.4 795.915 L1441.4 1423.18 L1603.81 1423.18 L1603.81 795.915 L1441.4 795.915 L1441.4 795.915  Z" fill="#009af9" fill-rule="evenodd" fill-opacity="1"/>
<polyline clip-path="url(#clip772)" style="stroke:#000000; stroke-linecap:round; stroke-linejoin:round; stroke-width:4; stroke-opacity:1; fill:none" points="1441.4,795.915 1441.4,1423.18 1603.81,1423.18 1603.81,795.915 1441.4,795.915 "/>
<path clip-path="url(#clip772)" d="M1603.81 775.681 L1603.81 1423.18 L1766.21 1423.18 L1766.21 775.681 L1603.81 775.681 L1603.81 775.681  Z" fill="#009af9" fill-rule="evenodd" fill-opacity="1"/>
<polyline clip-path="url(#clip772)" style="stroke:#000000; stroke-linecap:round; stroke-linejoin:round; stroke-width:4; stroke-opacity:1; fill:none" points="1603.81,775.681 1603.81,1423.18 1766.21,1423.18 1766.21,775.681 1603.81,775.681 "/>
<path clip-path="url(#clip772)" d="M1766.21 978.024 L1766.21 1423.18 L1928.61 1423.18 L1928.61 978.024 L1766.21 978.024 L1766.21 978.024  Z" fill="#009af9" fill-rule="evenodd" fill-opacity="1"/>
<polyline clip-path="url(#clip772)" style="stroke:#000000; stroke-linecap:round; stroke-linejoin:round; stroke-width:4; stroke-opacity:1; fill:none" points="1766.21,978.024 1766.21,1423.18 1928.61,1423.18 1928.61,978.024 1766.21,978.024 "/>
<path clip-path="url(#clip772)" d="M1928.61 1281.54 L1928.61 1423.18 L2091.01 1423.18 L2091.01 1281.54 L1928.61 1281.54 L1928.61 1281.54  Z" fill="#009af9" fill-rule="evenodd" fill-opacity="1"/>
<polyline clip-path="url(#clip772)" style="stroke:#000000; stroke-linecap:round; stroke-linejoin:round; stroke-width:4; stroke-opacity:1; fill:none" points="1928.61,1281.54 1928.61,1423.18 2091.01,1423.18 2091.01,1281.54 1928.61,1281.54 "/>
<path clip-path="url(#clip772)" d="M2091.01 1301.77 L2091.01 1423.18 L2253.41 1423.18 L2253.41 1301.77 L2091.01 1301.77 L2091.01 1301.77  Z" fill="#009af9" fill-rule="evenodd" fill-opacity="1"/>
<polyline clip-path="url(#clip772)" style="stroke:#000000; stroke-linecap:round; stroke-linejoin:round; stroke-width:4; stroke-opacity:1; fill:none" points="2091.01,1301.77 2091.01,1423.18 2253.41,1423.18 2253.41,1301.77 2091.01,1301.77 "/>
<circle clip-path="url(#clip772)" style="fill:#009af9; stroke:none; fill-opacity:0" cx="1035.4" cy="1342.24" r="2"/>
<circle clip-path="url(#clip772)" style="fill:#009af9; stroke:none; fill-opacity:0" cx="1197.8" cy="1058.96" r="2"/>
<circle clip-path="url(#clip772)" style="fill:#009af9; stroke:none; fill-opacity:0" cx="1360.2" cy="816.149" r="2"/>
<circle clip-path="url(#clip772)" style="fill:#009af9; stroke:none; fill-opacity:0" cx="1522.61" cy="795.915" r="2"/>
<circle clip-path="url(#clip772)" style="fill:#009af9; stroke:none; fill-opacity:0" cx="1685.01" cy="775.681" r="2"/>
<circle clip-path="url(#clip772)" style="fill:#009af9; stroke:none; fill-opacity:0" cx="1847.41" cy="978.024" r="2"/>
<circle clip-path="url(#clip772)" style="fill:#009af9; stroke:none; fill-opacity:0" cx="2009.81" cy="1281.54" r="2"/>
<circle clip-path="url(#clip772)" style="fill:#009af9; stroke:none; fill-opacity:0" cx="2172.21" cy="1301.77" r="2"/>
<path clip-path="url(#clip772)" d="M304.591 1200.6 L304.591 1423.18 L466.993 1423.18 L466.993 1200.6 L304.591 1200.6 L304.591 1200.6  Z" fill="#e26f46" fill-rule="evenodd" fill-opacity="0.6"/>
<polyline clip-path="url(#clip772)" style="stroke:#000000; stroke-linecap:round; stroke-linejoin:round; stroke-width:4; stroke-opacity:1; fill:none" points="304.591,1200.6 304.591,1423.18 466.993,1423.18 466.993,1200.6 304.591,1200.6 "/>
<path clip-path="url(#clip772)" d="M466.993 492.4 L466.993 1423.18 L629.395 1423.18 L629.395 492.4 L466.993 492.4 L466.993 492.4  Z" fill="#e26f46" fill-rule="evenodd" fill-opacity="0.6"/>
<polyline clip-path="url(#clip772)" style="stroke:#000000; stroke-linecap:round; stroke-linejoin:round; stroke-width:4; stroke-opacity:1; fill:none" points="466.993,492.4 466.993,1423.18 629.395,1423.18 629.395,492.4 466.993,492.4 "/>
<path clip-path="url(#clip772)" d="M629.395 47.2441 L629.395 1423.18 L791.797 1423.18 L791.797 47.2441 L629.395 47.2441 L629.395 47.2441  Z" fill="#e26f46" fill-rule="evenodd" fill-opacity="0.6"/>
<polyline clip-path="url(#clip772)" style="stroke:#000000; stroke-linecap:round; stroke-linejoin:round; stroke-width:4; stroke-opacity:1; fill:none" points="629.395,47.2441 629.395,1423.18 791.797,1423.18 791.797,47.2441 629.395,47.2441 "/>
<path clip-path="url(#clip772)" d="M791.797 998.259 L791.797 1423.18 L954.199 1423.18 L954.199 998.259 L791.797 998.259 L791.797 998.259  Z" fill="#e26f46" fill-rule="evenodd" fill-opacity="0.6"/>
<polyline clip-path="url(#clip772)" style="stroke:#000000; stroke-linecap:round; stroke-linejoin:round; stroke-width:4; stroke-opacity:1; fill:none" points="791.797,998.259 791.797,1423.18 954.199,1423.18 954.199,998.259 791.797,998.259 "/>
<path clip-path="url(#clip772)" d="M954.199 1342.24 L954.199 1423.18 L1116.6 1423.18 L1116.6 1342.24 L954.199 1342.24 L954.199 1342.24  Z" fill="#e26f46" fill-rule="evenodd" fill-opacity="0.6"/>
<polyline clip-path="url(#clip772)" style="stroke:#000000; stroke-linecap:round; stroke-linejoin:round; stroke-width:4; stroke-opacity:1; fill:none" points="954.199,1342.24 954.199,1423.18 1116.6,1423.18 1116.6,1342.24 954.199,1342.24 "/>
<circle clip-path="url(#clip772)" style="fill:#e26f46; stroke:none; fill-opacity:0" cx="385.792" cy="1200.6" r="2"/>
<circle clip-path="url(#clip772)" style="fill:#e26f46; stroke:none; fill-opacity:0" cx="548.194" cy="492.4" r="2"/>
<circle clip-path="url(#clip772)" style="fill:#e26f46; stroke:none; fill-opacity:0" cx="710.596" cy="47.2441" r="2"/>
<circle clip-path="url(#clip772)" style="fill:#e26f46; stroke:none; fill-opacity:0" cx="872.998" cy="998.259" r="2"/>
<circle clip-path="url(#clip772)" style="fill:#e26f46; stroke:none; fill-opacity:0" cx="1035.4" cy="1342.24" r="2"/>
<path clip-path="url(#clip770)" d="M1765.36 248.629 L2281.66 248.629 L2281.66 93.1086 L1765.36 93.1086  Z" fill="#ffffff" fill-rule="evenodd" fill-opacity="1"/>
<polyline clip-path="url(#clip770)" style="stroke:#000000; stroke-linecap:round; stroke-linejoin:round; stroke-width:4; stroke-opacity:1; fill:none" points="1765.36,248.629 2281.66,248.629 2281.66,93.1086 1765.36,93.1086 1765.36,248.629 "/>
<path clip-path="url(#clip770)" d="M1789.06 165.685 L1931.25 165.685 L1931.25 124.213 L1789.06 124.213 L1789.06 165.685  Z" fill="#009af9" fill-rule="evenodd" fill-opacity="1"/>
<polyline clip-path="url(#clip770)" style="stroke:#000000; stroke-linecap:round; stroke-linejoin:round; stroke-width:4; stroke-opacity:1; fill:none" points="1789.06,165.685 1931.25,165.685 1931.25,124.213 1789.06,124.213 1789.06,165.685 "/>
<path clip-path="url(#clip770)" d="M1977.2 128.803 L1977.2 133.363 Q1974.54 132.09 1972.18 131.465 Q1969.81 130.84 1967.62 130.84 Q1963.8 130.84 1961.71 132.321 Q1959.65 133.803 1959.65 136.534 Q1959.65 138.826 1961.02 140.007 Q1962.41 141.164 1966.25 141.882 L1969.07 142.46 Q1974.3 143.456 1976.78 145.979 Q1979.28 148.479 1979.28 152.692 Q1979.28 157.715 1975.9 160.307 Q1972.55 162.9 1966.04 162.9 Q1963.59 162.9 1960.81 162.344 Q1958.06 161.789 1955.09 160.701 L1955.09 155.886 Q1957.94 157.483 1960.67 158.293 Q1963.4 159.104 1966.04 159.104 Q1970.05 159.104 1972.22 157.53 Q1974.4 155.956 1974.4 153.039 Q1974.4 150.493 1972.82 149.057 Q1971.27 147.622 1967.71 146.905 L1964.86 146.349 Q1959.63 145.307 1957.29 143.085 Q1954.95 140.863 1954.95 136.905 Q1954.95 132.321 1958.17 129.682 Q1961.41 127.044 1967.08 127.044 Q1969.51 127.044 1972.04 127.483 Q1974.56 127.923 1977.2 128.803 Z" fill="#000000" fill-rule="nonzero" fill-opacity="1" /><path clip-path="url(#clip770)" d="M2008.56 148.201 L2008.56 150.284 L1988.98 150.284 Q1989.26 154.682 1991.62 156.997 Q1994 159.289 1998.24 159.289 Q2000.69 159.289 2002.99 158.687 Q2005.3 158.085 2007.57 156.881 L2007.57 160.909 Q2005.28 161.881 2002.87 162.391 Q2000.46 162.9 1997.99 162.9 Q1991.78 162.9 1988.15 159.289 Q1984.54 155.678 1984.54 149.52 Q1984.54 143.155 1987.96 139.428 Q1991.41 135.678 1997.24 135.678 Q2002.48 135.678 2005.51 139.057 Q2008.56 142.414 2008.56 148.201 M2004.3 146.951 Q2004.26 143.456 2002.34 141.372 Q2000.44 139.289 1997.29 139.289 Q1993.73 139.289 1991.57 141.303 Q1989.44 143.317 1989.12 146.974 L2004.3 146.951 Z" fill="#000000" fill-rule="nonzero" fill-opacity="1" /><path clip-path="url(#clip770)" d="M2019.68 158.34 L2019.68 172.09 L2015.39 172.09 L2015.39 136.303 L2019.68 136.303 L2019.68 140.238 Q2021.02 137.923 2023.05 136.812 Q2025.11 135.678 2027.96 135.678 Q2032.68 135.678 2035.62 139.428 Q2038.59 143.178 2038.59 149.289 Q2038.59 155.4 2035.62 159.15 Q2032.68 162.9 2027.96 162.9 Q2025.11 162.9 2023.05 161.789 Q2021.02 160.655 2019.68 158.34 M2034.17 149.289 Q2034.17 144.59 2032.22 141.928 Q2030.3 139.243 2026.92 139.243 Q2023.54 139.243 2021.6 141.928 Q2019.68 144.59 2019.68 149.289 Q2019.68 153.988 2021.6 156.673 Q2023.54 159.335 2026.92 159.335 Q2030.3 159.335 2032.22 156.673 Q2034.17 153.988 2034.17 149.289 Z" fill="#000000" fill-rule="nonzero" fill-opacity="1" /><path clip-path="url(#clip770)" d="M2057.43 149.196 Q2052.27 149.196 2050.28 150.377 Q2048.29 151.557 2048.29 154.405 Q2048.29 156.673 2049.77 158.016 Q2051.27 159.335 2053.84 159.335 Q2057.38 159.335 2059.51 156.835 Q2061.67 154.312 2061.67 150.145 L2061.67 149.196 L2057.43 149.196 M2065.92 147.437 L2065.92 162.229 L2061.67 162.229 L2061.67 158.293 Q2060.21 160.655 2058.03 161.789 Q2055.86 162.9 2052.71 162.9 Q2048.73 162.9 2046.36 160.678 Q2044.03 158.432 2044.03 154.682 Q2044.03 150.307 2046.94 148.085 Q2049.88 145.863 2055.69 145.863 L2061.67 145.863 L2061.67 145.446 Q2061.67 142.507 2059.72 140.909 Q2057.8 139.289 2054.3 139.289 Q2052.08 139.289 2049.98 139.821 Q2047.87 140.354 2045.92 141.419 L2045.92 137.483 Q2048.26 136.581 2050.46 136.141 Q2052.66 135.678 2054.74 135.678 Q2060.37 135.678 2063.15 138.594 Q2065.92 141.511 2065.92 147.437 Z" fill="#000000" fill-rule="nonzero" fill-opacity="1" /><path clip-path="url(#clip770)" d="M2074.7 126.21 L2078.96 126.21 L2078.96 162.229 L2074.7 162.229 L2074.7 126.21 Z" fill="#000000" fill-rule="nonzero" fill-opacity="1" /><path clip-path="url(#clip770)" d="M2103.12 127.669 L2107.8 127.669 L2107.8 158.293 L2124.63 158.293 L2124.63 162.229 L2103.12 162.229 L2103.12 127.669 Z" fill="#000000" fill-rule="nonzero" fill-opacity="1" /><path clip-path="url(#clip770)" d="M2150.69 148.201 L2150.69 150.284 L2131.11 150.284 Q2131.39 154.682 2133.75 156.997 Q2136.13 159.289 2140.37 159.289 Q2142.82 159.289 2145.11 158.687 Q2147.43 158.085 2149.7 156.881 L2149.7 160.909 Q2147.41 161.881 2145 162.391 Q2142.59 162.9 2140.11 162.9 Q2133.91 162.9 2130.28 159.289 Q2126.67 155.678 2126.67 149.52 Q2126.67 143.155 2130.09 139.428 Q2133.54 135.678 2139.37 135.678 Q2144.6 135.678 2147.64 139.057 Q2150.69 142.414 2150.69 148.201 M2146.43 146.951 Q2146.39 143.456 2144.47 141.372 Q2142.57 139.289 2139.42 139.289 Q2135.85 139.289 2133.7 141.303 Q2131.57 143.317 2131.25 146.974 L2146.43 146.951 Z" fill="#000000" fill-rule="nonzero" fill-opacity="1" /><path clip-path="url(#clip770)" d="M2179.23 146.581 L2179.23 162.229 L2174.98 162.229 L2174.98 146.719 Q2174.98 143.039 2173.54 141.21 Q2172.1 139.382 2169.23 139.382 Q2165.79 139.382 2163.79 141.581 Q2161.8 143.78 2161.8 147.576 L2161.8 162.229 L2157.52 162.229 L2157.52 136.303 L2161.8 136.303 L2161.8 140.331 Q2163.33 137.993 2165.39 136.835 Q2167.48 135.678 2170.18 135.678 Q2174.65 135.678 2176.94 138.456 Q2179.23 141.21 2179.23 146.581 Z" fill="#000000" fill-rule="nonzero" fill-opacity="1" /><path clip-path="url(#clip770)" d="M2204.79 148.965 Q2204.79 144.335 2202.87 141.789 Q2200.97 139.243 2197.52 139.243 Q2194.1 139.243 2192.17 141.789 Q2190.28 144.335 2190.28 148.965 Q2190.28 153.571 2192.17 156.118 Q2194.1 158.664 2197.52 158.664 Q2200.97 158.664 2202.87 156.118 Q2204.79 153.571 2204.79 148.965 M2209.05 159.011 Q2209.05 165.631 2206.11 168.849 Q2203.17 172.09 2197.1 172.09 Q2194.86 172.09 2192.87 171.742 Q2190.88 171.418 2189 170.724 L2189 166.58 Q2190.88 167.599 2192.71 168.085 Q2194.54 168.571 2196.43 168.571 Q2200.62 168.571 2202.71 166.372 Q2204.79 164.196 2204.79 159.775 L2204.79 157.668 Q2203.47 159.96 2201.41 161.094 Q2199.35 162.229 2196.48 162.229 Q2191.71 162.229 2188.79 158.594 Q2185.88 154.96 2185.88 148.965 Q2185.88 142.946 2188.79 139.312 Q2191.71 135.678 2196.48 135.678 Q2199.35 135.678 2201.41 136.812 Q2203.47 137.946 2204.79 140.238 L2204.79 136.303 L2209.05 136.303 L2209.05 159.011 Z" fill="#000000" fill-rule="nonzero" fill-opacity="1" /><path clip-path="url(#clip770)" d="M2222.04 128.942 L2222.04 136.303 L2230.81 136.303 L2230.81 139.613 L2222.04 139.613 L2222.04 153.687 Q2222.04 156.858 2222.89 157.761 Q2223.77 158.664 2226.43 158.664 L2230.81 158.664 L2230.81 162.229 L2226.43 162.229 Q2221.5 162.229 2219.63 160.4 Q2217.75 158.548 2217.75 153.687 L2217.75 139.613 L2214.63 139.613 L2214.63 136.303 L2217.75 136.303 L2217.75 128.942 L2222.04 128.942 Z" fill="#000000" fill-rule="nonzero" fill-opacity="1" /><path clip-path="url(#clip770)" d="M2257.96 146.581 L2257.96 162.229 L2253.7 162.229 L2253.7 146.719 Q2253.7 143.039 2252.27 141.21 Q2250.83 139.382 2247.96 139.382 Q2244.51 139.382 2242.52 141.581 Q2240.53 143.78 2240.53 147.576 L2240.53 162.229 L2236.25 162.229 L2236.25 126.21 L2240.53 126.21 L2240.53 140.331 Q2242.06 137.993 2244.12 136.835 Q2246.2 135.678 2248.91 135.678 Q2253.38 135.678 2255.67 138.456 Q2257.96 141.21 2257.96 146.581 Z" fill="#000000" fill-rule="nonzero" fill-opacity="1" /><path clip-path="url(#clip770)" d="M1789.06 217.525 L1931.25 217.525 L1931.25 176.053 L1789.06 176.053 L1789.06 217.525  Z" fill="#e26f46" fill-rule="evenodd" fill-opacity="0.6"/>
<polyline clip-path="url(#clip770)" style="stroke:#000000; stroke-linecap:round; stroke-linejoin:round; stroke-width:4; stroke-opacity:1; fill:none" points="1789.06,217.525 1931.25,217.525 1931.25,176.053 1789.06,176.053 1789.06,217.525 "/>
<path clip-path="url(#clip770)" d="M1977.2 180.643 L1977.2 185.203 Q1974.54 183.93 1972.18 183.305 Q1969.81 182.68 1967.62 182.68 Q1963.8 182.68 1961.71 184.161 Q1959.65 185.643 1959.65 188.374 Q1959.65 190.666 1961.02 191.847 Q1962.41 193.004 1966.25 193.722 L1969.07 194.3 Q1974.3 195.296 1976.78 197.819 Q1979.28 200.319 1979.28 204.532 Q1979.28 209.555 1975.9 212.147 Q1972.55 214.74 1966.04 214.74 Q1963.59 214.74 1960.81 214.184 Q1958.06 213.629 1955.09 212.541 L1955.09 207.726 Q1957.94 209.323 1960.67 210.133 Q1963.4 210.944 1966.04 210.944 Q1970.05 210.944 1972.22 209.37 Q1974.4 207.796 1974.4 204.879 Q1974.4 202.333 1972.82 200.897 Q1971.27 199.462 1967.71 198.745 L1964.86 198.189 Q1959.63 197.147 1957.29 194.925 Q1954.95 192.703 1954.95 188.745 Q1954.95 184.161 1958.17 181.522 Q1961.41 178.884 1967.08 178.884 Q1969.51 178.884 1972.04 179.323 Q1974.56 179.763 1977.2 180.643 Z" fill="#000000" fill-rule="nonzero" fill-opacity="1" /><path clip-path="url(#clip770)" d="M2008.56 200.041 L2008.56 202.124 L1988.98 202.124 Q1989.26 206.522 1991.62 208.837 Q1994 211.129 1998.24 211.129 Q2000.69 211.129 2002.99 210.527 Q2005.3 209.925 2007.57 208.721 L2007.57 212.749 Q2005.28 213.721 2002.87 214.231 Q2000.46 214.74 1997.99 214.74 Q1991.78 214.74 1988.15 211.129 Q1984.54 207.518 1984.54 201.36 Q1984.54 194.995 1987.96 191.268 Q1991.41 187.518 1997.24 187.518 Q2002.48 187.518 2005.51 190.897 Q2008.56 194.254 2008.56 200.041 M2004.3 198.791 Q2004.26 195.296 2002.34 193.212 Q2000.44 191.129 1997.29 191.129 Q1993.73 191.129 1991.57 193.143 Q1989.44 195.157 1989.12 198.814 L2004.3 198.791 Z" fill="#000000" fill-rule="nonzero" fill-opacity="1" /><path clip-path="url(#clip770)" d="M2019.68 210.18 L2019.68 223.93 L2015.39 223.93 L2015.39 188.143 L2019.68 188.143 L2019.68 192.078 Q2021.02 189.763 2023.05 188.652 Q2025.11 187.518 2027.96 187.518 Q2032.68 187.518 2035.62 191.268 Q2038.59 195.018 2038.59 201.129 Q2038.59 207.24 2035.62 210.99 Q2032.68 214.74 2027.96 214.74 Q2025.11 214.74 2023.05 213.629 Q2021.02 212.495 2019.68 210.18 M2034.17 201.129 Q2034.17 196.43 2032.22 193.768 Q2030.3 191.083 2026.92 191.083 Q2023.54 191.083 2021.6 193.768 Q2019.68 196.43 2019.68 201.129 Q2019.68 205.828 2021.6 208.513 Q2023.54 211.175 2026.92 211.175 Q2030.3 211.175 2032.22 208.513 Q2034.17 205.828 2034.17 201.129 Z" fill="#000000" fill-rule="nonzero" fill-opacity="1" /><path clip-path="url(#clip770)" d="M2057.43 201.036 Q2052.27 201.036 2050.28 202.217 Q2048.29 203.397 2048.29 206.245 Q2048.29 208.513 2049.77 209.856 Q2051.27 211.175 2053.84 211.175 Q2057.38 211.175 2059.51 208.675 Q2061.67 206.152 2061.67 201.985 L2061.67 201.036 L2057.43 201.036 M2065.92 199.277 L2065.92 214.069 L2061.67 214.069 L2061.67 210.133 Q2060.21 212.495 2058.03 213.629 Q2055.86 214.74 2052.71 214.74 Q2048.73 214.74 2046.36 212.518 Q2044.03 210.272 2044.03 206.522 Q2044.03 202.147 2046.94 199.925 Q2049.88 197.703 2055.69 197.703 L2061.67 197.703 L2061.67 197.286 Q2061.67 194.347 2059.72 192.749 Q2057.8 191.129 2054.3 191.129 Q2052.08 191.129 2049.98 191.661 Q2047.87 192.194 2045.92 193.259 L2045.92 189.323 Q2048.26 188.421 2050.46 187.981 Q2052.66 187.518 2054.74 187.518 Q2060.37 187.518 2063.15 190.434 Q2065.92 193.351 2065.92 199.277 Z" fill="#000000" fill-rule="nonzero" fill-opacity="1" /><path clip-path="url(#clip770)" d="M2074.7 178.05 L2078.96 178.05 L2078.96 214.069 L2074.7 214.069 L2074.7 178.05 Z" fill="#000000" fill-rule="nonzero" fill-opacity="1" /><path clip-path="url(#clip770)" d="M2100.04 179.509 L2104.77 179.509 L2112.04 208.721 L2119.28 179.509 L2124.54 179.509 L2131.8 208.721 L2139.05 179.509 L2143.79 179.509 L2135.11 214.069 L2129.23 214.069 L2121.94 184.069 L2114.58 214.069 L2108.7 214.069 L2100.04 179.509 Z" fill="#000000" fill-rule="nonzero" fill-opacity="1" /><path clip-path="url(#clip770)" d="M2148.77 188.143 L2153.03 188.143 L2153.03 214.069 L2148.77 214.069 L2148.77 188.143 M2148.77 178.05 L2153.03 178.05 L2153.03 183.444 L2148.77 183.444 L2148.77 178.05 Z" fill="#000000" fill-rule="nonzero" fill-opacity="1" /><path clip-path="url(#clip770)" d="M2179 192.078 L2179 178.05 L2183.26 178.05 L2183.26 214.069 L2179 214.069 L2179 210.18 Q2177.66 212.495 2175.6 213.629 Q2173.56 214.74 2170.69 214.74 Q2165.99 214.74 2163.03 210.99 Q2160.09 207.24 2160.09 201.129 Q2160.09 195.018 2163.03 191.268 Q2165.99 187.518 2170.69 187.518 Q2173.56 187.518 2175.6 188.652 Q2177.66 189.763 2179 192.078 M2164.49 201.129 Q2164.49 205.828 2166.41 208.513 Q2168.35 211.175 2171.73 211.175 Q2175.11 211.175 2177.06 208.513 Q2179 205.828 2179 201.129 Q2179 196.43 2177.06 193.768 Q2175.11 191.083 2171.73 191.083 Q2168.35 191.083 2166.41 193.768 Q2164.49 196.43 2164.49 201.129 Z" fill="#000000" fill-rule="nonzero" fill-opacity="1" /><path clip-path="url(#clip770)" d="M2196.25 180.782 L2196.25 188.143 L2205.02 188.143 L2205.02 191.453 L2196.25 191.453 L2196.25 205.527 Q2196.25 208.698 2197.1 209.601 Q2197.98 210.504 2200.65 210.504 L2205.02 210.504 L2205.02 214.069 L2200.65 214.069 Q2195.72 214.069 2193.84 212.24 Q2191.97 210.388 2191.97 205.527 L2191.97 191.453 L2188.84 191.453 L2188.84 188.143 L2191.97 188.143 L2191.97 180.782 L2196.25 180.782 Z" fill="#000000" fill-rule="nonzero" fill-opacity="1" /><path clip-path="url(#clip770)" d="M2232.17 198.421 L2232.17 214.069 L2227.91 214.069 L2227.91 198.559 Q2227.91 194.879 2226.48 193.05 Q2225.04 191.222 2222.17 191.222 Q2218.72 191.222 2216.73 193.421 Q2214.74 195.62 2214.74 199.416 L2214.74 214.069 L2210.46 214.069 L2210.46 178.05 L2214.74 178.05 L2214.74 192.171 Q2216.27 189.833 2218.33 188.675 Q2220.41 187.518 2223.12 187.518 Q2227.59 187.518 2229.88 190.296 Q2232.17 193.05 2232.17 198.421 Z" fill="#000000" fill-rule="nonzero" fill-opacity="1" /></svg>
