<?xml version="1.0" encoding="utf-8"?>
<svg xmlns="http://www.w3.org/2000/svg" xmlns:xlink="http://www.w3.org/1999/xlink" width="600" height="400" viewBox="0 0 2400 1600">
<defs>
  <clipPath id="clip030">
    <rect x="0" y="0" width="2400" height="1600"/>
  </clipPath>
</defs>
<path clip-path="url(#clip030)" d="M0 1600 L2400 1600 L2400 0 L0 0  Z" fill="#ffffff" fill-rule="evenodd" fill-opacity="1"/>
<defs>
  <clipPath id="clip031">
    <rect x="480" y="0" width="1681" height="1600"/>
  </clipPath>
</defs>
<path clip-path="url(#clip030)" d="M205.121 1423.18 L2352.76 1423.18 L2352.76 47.2441 L205.121 47.2441  Z" fill="#ffffff" fill-rule="evenodd" fill-opacity="1"/>
<defs>
  <clipPath id="clip032">
    <rect x="205" y="47" width="2149" height="1377"/>
  </clipPath>
</defs>
<polyline clip-path="url(#clip032)" style="stroke:#000000; stroke-linecap:round; stroke-linejoin:round; stroke-width:2; stroke-opacity:0.1; fill:none" points="290.432,1423.18 290.432,47.2441 "/>
<polyline clip-path="url(#clip032)" style="stroke:#000000; stroke-linecap:round; stroke-linejoin:round; stroke-width:2; stroke-opacity:0.1; fill:none" points="617.481,1423.18 617.481,47.2441 "/>
<polyline clip-path="url(#clip032)" style="stroke:#000000; stroke-linecap:round; stroke-linejoin:round; stroke-width:2; stroke-opacity:0.1; fill:none" points="944.53,1423.18 944.53,47.2441 "/>
<polyline clip-path="url(#clip032)" style="stroke:#000000; stroke-linecap:round; stroke-linejoin:round; stroke-width:2; stroke-opacity:0.1; fill:none" points="1271.58,1423.18 1271.58,47.2441 "/>
<polyline clip-path="url(#clip032)" style="stroke:#000000; stroke-linecap:round; stroke-linejoin:round; stroke-width:2; stroke-opacity:0.1; fill:none" points="1598.63,1423.18 1598.63,47.2441 "/>
<polyline clip-path="url(#clip032)" style="stroke:#000000; stroke-linecap:round; stroke-linejoin:round; stroke-width:2; stroke-opacity:0.1; fill:none" points="1925.68,1423.18 1925.68,47.2441 "/>
<polyline clip-path="url(#clip032)" style="stroke:#000000; stroke-linecap:round; stroke-linejoin:round; stroke-width:2; stroke-opacity:0.1; fill:none" points="2252.73,1423.18 2252.73,47.2441 "/>
<polyline clip-path="url(#clip032)" style="stroke:#000000; stroke-linecap:round; stroke-linejoin:round; stroke-width:2; stroke-opacity:0.1; fill:none" points="205.121,1423.18 2352.76,1423.18 "/>
<polyline clip-path="url(#clip032)" style="stroke:#000000; stroke-linecap:round; stroke-linejoin:round; stroke-width:2; stroke-opacity:0.1; fill:none" points="205.121,1220.84 2352.76,1220.84 "/>
<polyline clip-path="url(#clip032)" style="stroke:#000000; stroke-linecap:round; stroke-linejoin:round; stroke-width:2; stroke-opacity:0.1; fill:none" points="205.121,1018.49 2352.76,1018.49 "/>
<polyline clip-path="url(#clip032)" style="stroke:#000000; stroke-linecap:round; stroke-linejoin:round; stroke-width:2; stroke-opacity:0.1; fill:none" points="205.121,816.149 2352.76,816.149 "/>
<polyline clip-path="url(#clip032)" style="stroke:#000000; stroke-linecap:round; stroke-linejoin:round; stroke-width:2; stroke-opacity:0.1; fill:none" points="205.121,613.806 2352.76,613.806 "/>
<polyline clip-path="url(#clip032)" style="stroke:#000000; stroke-linecap:round; stroke-linejoin:round; stroke-width:2; stroke-opacity:0.1; fill:none" points="205.121,411.462 2352.76,411.462 "/>
<polyline clip-path="url(#clip032)" style="stroke:#000000; stroke-linecap:round; stroke-linejoin:round; stroke-width:2; stroke-opacity:0.1; fill:none" points="205.121,209.119 2352.76,209.119 "/>
<polyline clip-path="url(#clip030)" style="stroke:#000000; stroke-linecap:round; stroke-linejoin:round; stroke-width:4; stroke-opacity:1; fill:none" points="205.121,1423.18 2352.76,1423.18 "/>
<polyline clip-path="url(#clip030)" style="stroke:#000000; stroke-linecap:round; stroke-linejoin:round; stroke-width:4; stroke-opacity:1; fill:none" points="290.432,1423.18 290.432,1404.28 "/>
<polyline clip-path="url(#clip030)" style="stroke:#000000; stroke-linecap:round; stroke-linejoin:round; stroke-width:4; stroke-opacity:1; fill:none" points="617.481,1423.18 617.481,1404.28 "/>
<polyline clip-path="url(#clip030)" style="stroke:#000000; stroke-linecap:round; stroke-linejoin:round; stroke-width:4; stroke-opacity:1; fill:none" points="944.53,1423.18 944.53,1404.28 "/>
<polyline clip-path="url(#clip030)" style="stroke:#000000; stroke-linecap:round; stroke-linejoin:round; stroke-width:4; stroke-opacity:1; fill:none" points="1271.58,1423.18 1271.58,1404.28 "/>
<polyline clip-path="url(#clip030)" style="stroke:#000000; stroke-linecap:round; stroke-linejoin:round; stroke-width:4; stroke-opacity:1; fill:none" points="1598.63,1423.18 1598.63,1404.28 "/>
<polyline clip-path="url(#clip030)" style="stroke:#000000; stroke-linecap:round; stroke-linejoin:round; stroke-width:4; stroke-opacity:1; fill:none" points="1925.68,1423.18 1925.68,1404.28 "/>
<polyline clip-path="url(#clip030)" style="stroke:#000000; stroke-linecap:round; stroke-linejoin:round; stroke-width:4; stroke-opacity:1; fill:none" points="2252.73,1423.18 2252.73,1404.28 "/>
<path clip-path="url(#clip030)" d="M285.085 1481.64 L301.404 1481.64 L301.404 1485.58 L279.46 1485.58 L279.46 1481.64 Q282.122 1478.89 286.705 1474.26 Q291.311 1469.61 292.492 1468.27 Q294.737 1465.74 295.617 1464.01 Q296.52 1462.25 296.52 1460.56 Q296.52 1457.8 294.575 1456.07 Q292.654 1454.33 289.552 1454.33 Q287.353 1454.33 284.899 1455.09 Q282.469 1455.86 279.691 1457.41 L279.691 1452.69 Q282.515 1451.55 284.969 1450.97 Q287.423 1450.39 289.46 1450.39 Q294.83 1450.39 298.024 1453.08 Q301.219 1455.77 301.219 1460.26 Q301.219 1462.39 300.409 1464.31 Q299.622 1466.2 297.515 1468.8 Q296.936 1469.47 293.835 1472.69 Q290.733 1475.88 285.085 1481.64 Z" fill="#000000" fill-rule="nonzero" fill-opacity="1" /><path clip-path="url(#clip030)" d="M621.729 1466.95 Q625.085 1467.66 626.96 1469.93 Q628.858 1472.2 628.858 1475.53 Q628.858 1480.65 625.34 1483.45 Q621.821 1486.25 615.34 1486.25 Q613.164 1486.25 610.849 1485.81 Q608.558 1485.39 606.104 1484.54 L606.104 1480.02 Q608.048 1481.16 610.363 1481.74 Q612.678 1482.32 615.201 1482.32 Q619.599 1482.32 621.891 1480.58 Q624.206 1478.84 624.206 1475.53 Q624.206 1472.48 622.053 1470.77 Q619.923 1469.03 616.104 1469.03 L612.076 1469.03 L612.076 1465.19 L616.289 1465.19 Q619.738 1465.19 621.567 1463.82 Q623.395 1462.43 623.395 1459.84 Q623.395 1457.18 621.497 1455.77 Q619.622 1454.33 616.104 1454.33 Q614.183 1454.33 611.983 1454.75 Q609.784 1455.16 607.146 1456.04 L607.146 1451.88 Q609.808 1451.14 612.122 1450.77 Q614.46 1450.39 616.52 1450.39 Q621.845 1450.39 624.946 1452.83 Q628.048 1455.23 628.048 1459.35 Q628.048 1462.22 626.405 1464.21 Q624.761 1466.18 621.729 1466.95 Z" fill="#000000" fill-rule="nonzero" fill-opacity="1" /><path clip-path="url(#clip030)" d="M947.54 1455.09 L935.734 1473.54 L947.54 1473.54 L947.54 1455.09 M946.313 1451.02 L952.192 1451.02 L952.192 1473.54 L957.123 1473.54 L957.123 1477.43 L952.192 1477.43 L952.192 1485.58 L947.54 1485.58 L947.54 1477.43 L931.938 1477.43 L931.938 1472.92 L946.313 1451.02 Z" fill="#000000" fill-rule="nonzero" fill-opacity="1" /><path clip-path="url(#clip030)" d="M1261.86 1451.02 L1280.21 1451.02 L1280.21 1454.96 L1266.14 1454.96 L1266.14 1463.43 Q1267.16 1463.08 1268.18 1462.92 Q1269.2 1462.73 1270.21 1462.73 Q1276 1462.73 1279.38 1465.9 Q1282.76 1469.08 1282.76 1474.49 Q1282.76 1480.07 1279.29 1483.17 Q1275.82 1486.25 1269.5 1486.25 Q1267.32 1486.25 1265.05 1485.88 Q1262.81 1485.51 1260.4 1484.77 L1260.4 1480.07 Q1262.48 1481.2 1264.7 1481.76 Q1266.93 1482.32 1269.4 1482.32 Q1273.41 1482.32 1275.75 1480.21 Q1278.08 1478.1 1278.08 1474.49 Q1278.08 1470.88 1275.75 1468.77 Q1273.41 1466.67 1269.4 1466.67 Q1267.53 1466.67 1265.65 1467.08 Q1263.8 1467.5 1261.86 1468.38 L1261.86 1451.02 Z" fill="#000000" fill-rule="nonzero" fill-opacity="1" /><path clip-path="url(#clip030)" d="M1599.03 1466.44 Q1595.89 1466.44 1594.03 1468.59 Q1592.21 1470.74 1592.21 1474.49 Q1592.21 1478.22 1594.03 1480.39 Q1595.89 1482.55 1599.03 1482.55 Q1602.18 1482.55 1604.01 1480.39 Q1605.86 1478.22 1605.86 1474.49 Q1605.86 1470.74 1604.01 1468.59 Q1602.18 1466.44 1599.03 1466.44 M1608.32 1451.78 L1608.32 1456.04 Q1606.56 1455.21 1604.75 1454.77 Q1602.97 1454.33 1601.21 1454.33 Q1596.58 1454.33 1594.13 1457.45 Q1591.7 1460.58 1591.35 1466.9 Q1592.71 1464.89 1594.78 1463.82 Q1596.84 1462.73 1599.31 1462.73 Q1604.52 1462.73 1607.53 1465.9 Q1610.56 1469.05 1610.56 1474.49 Q1610.56 1479.82 1607.41 1483.03 Q1604.27 1486.25 1599.03 1486.25 Q1593.04 1486.25 1589.87 1481.67 Q1586.7 1477.06 1586.7 1468.33 Q1586.7 1460.14 1590.59 1455.28 Q1594.47 1450.39 1601.02 1450.39 Q1602.78 1450.39 1604.57 1450.74 Q1606.37 1451.09 1608.32 1451.78 Z" fill="#000000" fill-rule="nonzero" fill-opacity="1" /><path clip-path="url(#clip030)" d="M1914.57 1451.02 L1936.79 1451.02 L1936.79 1453.01 L1924.24 1485.58 L1919.36 1485.58 L1931.16 1454.96 L1914.57 1454.96 L1914.57 1451.02 Z" fill="#000000" fill-rule="nonzero" fill-opacity="1" /><path clip-path="url(#clip030)" d="M2252.73 1469.17 Q2249.39 1469.17 2247.47 1470.95 Q2245.58 1472.73 2245.58 1475.86 Q2245.58 1478.98 2247.47 1480.77 Q2249.39 1482.55 2252.73 1482.55 Q2256.06 1482.55 2257.98 1480.77 Q2259.9 1478.96 2259.9 1475.86 Q2259.9 1472.73 2257.98 1470.95 Q2256.08 1469.17 2252.73 1469.17 M2248.05 1467.18 Q2245.04 1466.44 2243.35 1464.38 Q2241.69 1462.32 2241.69 1459.35 Q2241.69 1455.21 2244.63 1452.8 Q2247.59 1450.39 2252.73 1450.39 Q2257.89 1450.39 2260.83 1452.8 Q2263.77 1455.21 2263.77 1459.35 Q2263.77 1462.32 2262.08 1464.38 Q2260.41 1466.44 2257.43 1467.18 Q2260.81 1467.96 2262.68 1470.26 Q2264.58 1472.55 2264.58 1475.86 Q2264.58 1480.88 2261.5 1483.57 Q2258.45 1486.25 2252.73 1486.25 Q2247.01 1486.25 2243.93 1483.57 Q2240.88 1480.88 2240.88 1475.86 Q2240.88 1472.55 2242.77 1470.26 Q2244.67 1467.96 2248.05 1467.18 M2246.34 1459.79 Q2246.34 1462.48 2248.01 1463.98 Q2249.7 1465.49 2252.73 1465.49 Q2255.74 1465.49 2257.43 1463.98 Q2259.14 1462.48 2259.14 1459.79 Q2259.14 1457.11 2257.43 1455.6 Q2255.74 1454.1 2252.73 1454.1 Q2249.7 1454.1 2248.01 1455.6 Q2246.34 1457.11 2246.34 1459.79 Z" fill="#000000" fill-rule="nonzero" fill-opacity="1" /><path clip-path="url(#clip030)" d="M1221.11 1545.35 L1221.11 1562.76 L1231.42 1562.76 Q1236.61 1562.76 1239.09 1560.63 Q1241.6 1558.46 1241.6 1554.04 Q1241.6 1549.58 1239.09 1547.48 Q1236.61 1545.35 1231.42 1545.35 L1221.11 1545.35 M1221.11 1525.81 L1221.11 1540.13 L1230.62 1540.13 Q1235.33 1540.13 1237.63 1538.38 Q1239.95 1536.6 1239.95 1532.97 Q1239.95 1529.37 1237.63 1527.59 Q1235.33 1525.81 1230.62 1525.81 L1221.11 1525.81 M1214.68 1520.52 L1231.1 1520.52 Q1238.45 1520.52 1242.43 1523.58 Q1246.41 1526.63 1246.41 1532.27 Q1246.41 1536.63 1244.37 1539.21 Q1242.34 1541.79 1238.39 1542.42 Q1243.13 1543.44 1245.74 1546.69 Q1248.38 1549.9 1248.38 1554.74 Q1248.38 1561.11 1244.05 1564.57 Q1239.73 1568.04 1231.74 1568.04 L1214.68 1568.04 L1214.68 1520.52 Z" fill="#000000" fill-rule="nonzero" fill-opacity="1" /><path clip-path="url(#clip030)" d="M1259.14 1532.4 L1265 1532.4 L1265 1568.04 L1259.14 1568.04 L1259.14 1532.4 M1259.14 1518.52 L1265 1518.52 L1265 1525.93 L1259.14 1525.93 L1259.14 1518.52 Z" fill="#000000" fill-rule="nonzero" fill-opacity="1" /><path clip-path="url(#clip030)" d="M1306.88 1546.53 L1306.88 1568.04 L1301.03 1568.04 L1301.03 1546.72 Q1301.03 1541.66 1299.05 1539.14 Q1297.08 1536.63 1293.13 1536.63 Q1288.39 1536.63 1285.65 1539.65 Q1282.92 1542.68 1282.92 1547.9 L1282.92 1568.04 L1277.03 1568.04 L1277.03 1532.4 L1282.92 1532.4 L1282.92 1537.93 Q1285.02 1534.72 1287.85 1533.13 Q1290.71 1531.54 1294.44 1531.54 Q1300.58 1531.54 1303.73 1535.36 Q1306.88 1539.14 1306.88 1546.53 Z" fill="#000000" fill-rule="nonzero" fill-opacity="1" /><path clip-path="url(#clip030)" d="M1341.29 1533.45 L1341.29 1538.98 Q1338.81 1537.71 1336.13 1537.07 Q1333.46 1536.44 1330.6 1536.44 Q1326.24 1536.44 1324.04 1537.77 Q1321.88 1539.11 1321.88 1541.79 Q1321.88 1543.82 1323.43 1545 Q1324.99 1546.15 1329.7 1547.2 L1331.71 1547.64 Q1337.95 1548.98 1340.56 1551.43 Q1343.2 1553.85 1343.2 1558.21 Q1343.2 1563.17 1339.25 1566.07 Q1335.34 1568.97 1328.46 1568.97 Q1325.6 1568.97 1322.48 1568.39 Q1319.39 1567.85 1315.96 1566.74 L1315.96 1560.69 Q1319.2 1562.38 1322.35 1563.24 Q1325.5 1564.07 1328.59 1564.07 Q1332.73 1564.07 1334.96 1562.66 Q1337.18 1561.23 1337.18 1558.65 Q1337.18 1556.27 1335.56 1554.99 Q1333.97 1553.72 1328.53 1552.54 L1326.49 1552.07 Q1321.05 1550.92 1318.63 1548.56 Q1316.21 1546.18 1316.21 1542.04 Q1316.21 1537.01 1319.77 1534.27 Q1323.34 1531.54 1329.9 1531.54 Q1333.14 1531.54 1336.01 1532.01 Q1338.87 1532.49 1341.29 1533.45 Z" fill="#000000" fill-rule="nonzero" fill-opacity="1" /><polyline clip-path="url(#clip030)" style="stroke:#000000; stroke-linecap:round; stroke-linejoin:round; stroke-width:4; stroke-opacity:1; fill:none" points="205.121,1423.18 205.121,47.2441 "/>
<polyline clip-path="url(#clip030)" style="stroke:#000000; stroke-linecap:round; stroke-linejoin:round; stroke-width:4; stroke-opacity:1; fill:none" points="205.121,1423.18 224.019,1423.18 "/>
<polyline clip-path="url(#clip030)" style="stroke:#000000; stroke-linecap:round; stroke-linejoin:round; stroke-width:4; stroke-opacity:1; fill:none" points="205.121,1220.84 224.019,1220.84 "/>
<polyline clip-path="url(#clip030)" style="stroke:#000000; stroke-linecap:round; stroke-linejoin:round; stroke-width:4; stroke-opacity:1; fill:none" points="205.121,1018.49 224.019,1018.49 "/>
<polyline clip-path="url(#clip030)" style="stroke:#000000; stroke-linecap:round; stroke-linejoin:round; stroke-width:4; stroke-opacity:1; fill:none" points="205.121,816.149 224.019,816.149 "/>
<polyline clip-path="url(#clip030)" style="stroke:#000000; stroke-linecap:round; stroke-linejoin:round; stroke-width:4; stroke-opacity:1; fill:none" points="205.121,613.806 224.019,613.806 "/>
<polyline clip-path="url(#clip030)" style="stroke:#000000; stroke-linecap:round; stroke-linejoin:round; stroke-width:4; stroke-opacity:1; fill:none" points="205.121,411.462 224.019,411.462 "/>
<polyline clip-path="url(#clip030)" style="stroke:#000000; stroke-linecap:round; stroke-linejoin:round; stroke-width:4; stroke-opacity:1; fill:none" points="205.121,209.119 224.019,209.119 "/>
<path clip-path="url(#clip030)" d="M157.177 1408.98 Q153.566 1408.98 151.737 1412.54 Q149.931 1416.08 149.931 1423.21 Q149.931 1430.32 151.737 1433.89 Q153.566 1437.43 157.177 1437.43 Q160.811 1437.43 162.616 1433.89 Q164.445 1430.32 164.445 1423.21 Q164.445 1416.08 162.616 1412.54 Q160.811 1408.98 157.177 1408.98 M157.177 1405.27 Q162.987 1405.27 166.042 1409.88 Q169.121 1414.46 169.121 1423.21 Q169.121 1431.94 166.042 1436.55 Q162.987 1441.13 157.177 1441.13 Q151.366 1441.13 148.288 1436.55 Q145.232 1431.94 145.232 1423.21 Q145.232 1414.46 148.288 1409.88 Q151.366 1405.27 157.177 1405.27 Z" fill="#000000" fill-rule="nonzero" fill-opacity="1" /><path clip-path="url(#clip030)" d="M117.825 1234.18 L125.464 1234.18 L125.464 1207.82 L117.154 1209.48 L117.154 1205.22 L125.418 1203.56 L130.093 1203.56 L130.093 1234.18 L137.732 1234.18 L137.732 1238.12 L117.825 1238.12 L117.825 1234.18 Z" fill="#000000" fill-rule="nonzero" fill-opacity="1" /><path clip-path="url(#clip030)" d="M157.177 1206.64 Q153.566 1206.64 151.737 1210.2 Q149.931 1213.74 149.931 1220.87 Q149.931 1227.98 151.737 1231.54 Q153.566 1235.08 157.177 1235.08 Q160.811 1235.08 162.616 1231.54 Q164.445 1227.98 164.445 1220.87 Q164.445 1213.74 162.616 1210.2 Q160.811 1206.64 157.177 1206.64 M157.177 1202.93 Q162.987 1202.93 166.042 1207.54 Q169.121 1212.12 169.121 1220.87 Q169.121 1229.6 166.042 1234.2 Q162.987 1238.79 157.177 1238.79 Q151.366 1238.79 148.288 1234.2 Q145.232 1229.6 145.232 1220.87 Q145.232 1212.12 148.288 1207.54 Q151.366 1202.93 157.177 1202.93 Z" fill="#000000" fill-rule="nonzero" fill-opacity="1" /><path clip-path="url(#clip030)" d="M121.043 1031.84 L137.362 1031.84 L137.362 1035.77 L115.418 1035.77 L115.418 1031.84 Q118.08 1029.08 122.663 1024.45 Q127.269 1019.8 128.45 1018.46 Q130.695 1015.94 131.575 1014.2 Q132.478 1012.44 132.478 1010.75 Q132.478 1008 130.533 1006.26 Q128.612 1004.52 125.51 1004.52 Q123.311 1004.52 120.857 1005.29 Q118.427 1006.05 115.649 1007.6 L115.649 1002.88 Q118.473 1001.75 120.927 1001.17 Q123.38 1000.59 125.418 1000.59 Q130.788 1000.59 133.982 1003.27 Q137.177 1005.96 137.177 1010.45 Q137.177 1012.58 136.367 1014.5 Q135.579 1016.4 133.473 1018.99 Q132.894 1019.66 129.792 1022.88 Q126.691 1026.07 121.043 1031.84 Z" fill="#000000" fill-rule="nonzero" fill-opacity="1" /><path clip-path="url(#clip030)" d="M157.177 1004.29 Q153.566 1004.29 151.737 1007.86 Q149.931 1011.4 149.931 1018.53 Q149.931 1025.63 151.737 1029.2 Q153.566 1032.74 157.177 1032.74 Q160.811 1032.74 162.616 1029.2 Q164.445 1025.63 164.445 1018.53 Q164.445 1011.4 162.616 1007.86 Q160.811 1004.29 157.177 1004.29 M157.177 1000.59 Q162.987 1000.59 166.042 1005.19 Q169.121 1009.78 169.121 1018.53 Q169.121 1027.25 166.042 1031.86 Q162.987 1036.44 157.177 1036.44 Q151.366 1036.44 148.288 1031.86 Q145.232 1027.25 145.232 1018.53 Q145.232 1009.78 148.288 1005.19 Q151.366 1000.59 157.177 1000.59 Z" fill="#000000" fill-rule="nonzero" fill-opacity="1" /><path clip-path="url(#clip030)" d="M131.181 814.795 Q134.538 815.513 136.413 817.781 Q138.311 820.05 138.311 823.383 Q138.311 828.499 134.792 831.3 Q131.274 834.101 124.793 834.101 Q122.617 834.101 120.302 833.661 Q118.01 833.244 115.556 832.388 L115.556 827.874 Q117.501 829.008 119.816 829.587 Q122.13 830.165 124.654 830.165 Q129.052 830.165 131.343 828.429 Q133.658 826.693 133.658 823.383 Q133.658 820.328 131.505 818.615 Q129.376 816.879 125.556 816.879 L121.529 816.879 L121.529 813.036 L125.742 813.036 Q129.191 813.036 131.019 811.67 Q132.848 810.281 132.848 807.689 Q132.848 805.027 130.95 803.615 Q129.075 802.18 125.556 802.18 Q123.635 802.18 121.436 802.596 Q119.237 803.013 116.598 803.892 L116.598 799.726 Q119.26 798.985 121.575 798.615 Q123.913 798.244 125.973 798.244 Q131.297 798.244 134.399 800.675 Q137.501 803.082 137.501 807.203 Q137.501 810.073 135.857 812.064 Q134.214 814.031 131.181 814.795 Z" fill="#000000" fill-rule="nonzero" fill-opacity="1" /><path clip-path="url(#clip030)" d="M157.177 801.948 Q153.566 801.948 151.737 805.513 Q149.931 809.054 149.931 816.184 Q149.931 823.291 151.737 826.855 Q153.566 830.397 157.177 830.397 Q160.811 830.397 162.616 826.855 Q164.445 823.291 164.445 816.184 Q164.445 809.054 162.616 805.513 Q160.811 801.948 157.177 801.948 M157.177 798.244 Q162.987 798.244 166.042 802.851 Q169.121 807.434 169.121 816.184 Q169.121 824.911 166.042 829.517 Q162.987 834.101 157.177 834.101 Q151.366 834.101 148.288 829.517 Q145.232 824.911 145.232 816.184 Q145.232 807.434 148.288 802.851 Q151.366 798.244 157.177 798.244 Z" fill="#000000" fill-rule="nonzero" fill-opacity="1" /><path clip-path="url(#clip030)" d="M129.862 600.6 L118.056 619.049 L129.862 619.049 L129.862 600.6 M128.635 596.526 L134.515 596.526 L134.515 619.049 L139.445 619.049 L139.445 622.938 L134.515 622.938 L134.515 631.086 L129.862 631.086 L129.862 622.938 L114.26 622.938 L114.26 618.424 L128.635 596.526 Z" fill="#000000" fill-rule="nonzero" fill-opacity="1" /><path clip-path="url(#clip030)" d="M157.177 599.605 Q153.566 599.605 151.737 603.169 Q149.931 606.711 149.931 613.841 Q149.931 620.947 151.737 624.512 Q153.566 628.053 157.177 628.053 Q160.811 628.053 162.616 624.512 Q164.445 620.947 164.445 613.841 Q164.445 606.711 162.616 603.169 Q160.811 599.605 157.177 599.605 M157.177 595.901 Q162.987 595.901 166.042 600.507 Q169.121 605.091 169.121 613.841 Q169.121 622.567 166.042 627.174 Q162.987 631.757 157.177 631.757 Q151.366 631.757 148.288 627.174 Q145.232 622.567 145.232 613.841 Q145.232 605.091 148.288 600.507 Q151.366 595.901 157.177 595.901 Z" fill="#000000" fill-rule="nonzero" fill-opacity="1" /><path clip-path="url(#clip030)" d="M117.061 394.182 L135.417 394.182 L135.417 398.118 L121.343 398.118 L121.343 406.59 Q122.362 406.243 123.38 406.08 Q124.399 405.895 125.418 405.895 Q131.205 405.895 134.584 409.067 Q137.964 412.238 137.964 417.654 Q137.964 423.233 134.492 426.335 Q131.019 429.414 124.7 429.414 Q122.524 429.414 120.255 429.043 Q118.01 428.673 115.603 427.932 L115.603 423.233 Q117.686 424.367 119.908 424.923 Q122.13 425.479 124.607 425.479 Q128.612 425.479 130.95 423.372 Q133.288 421.266 133.288 417.654 Q133.288 414.043 130.95 411.937 Q128.612 409.83 124.607 409.83 Q122.732 409.83 120.857 410.247 Q119.006 410.664 117.061 411.543 L117.061 394.182 Z" fill="#000000" fill-rule="nonzero" fill-opacity="1" /><path clip-path="url(#clip030)" d="M157.177 397.261 Q153.566 397.261 151.737 400.826 Q149.931 404.368 149.931 411.497 Q149.931 418.604 151.737 422.168 Q153.566 425.71 157.177 425.71 Q160.811 425.71 162.616 422.168 Q164.445 418.604 164.445 411.497 Q164.445 404.368 162.616 400.826 Q160.811 397.261 157.177 397.261 M157.177 393.557 Q162.987 393.557 166.042 398.164 Q169.121 402.747 169.121 411.497 Q169.121 420.224 166.042 424.83 Q162.987 429.414 157.177 429.414 Q151.366 429.414 148.288 424.83 Q145.232 420.224 145.232 411.497 Q145.232 402.747 148.288 398.164 Q151.366 393.557 157.177 393.557 Z" fill="#000000" fill-rule="nonzero" fill-opacity="1" /><path clip-path="url(#clip030)" d="M127.593 207.255 Q124.445 207.255 122.593 209.408 Q120.765 211.561 120.765 215.311 Q120.765 219.038 122.593 221.214 Q124.445 223.366 127.593 223.366 Q130.742 223.366 132.57 221.214 Q134.422 219.038 134.422 215.311 Q134.422 211.561 132.57 209.408 Q130.742 207.255 127.593 207.255 M136.876 192.603 L136.876 196.862 Q135.117 196.029 133.311 195.589 Q131.529 195.149 129.769 195.149 Q125.14 195.149 122.686 198.274 Q120.255 201.399 119.908 207.718 Q121.274 205.705 123.334 204.64 Q125.394 203.552 127.871 203.552 Q133.08 203.552 136.089 206.723 Q139.121 209.871 139.121 215.311 Q139.121 220.635 135.973 223.853 Q132.825 227.07 127.593 227.07 Q121.598 227.07 118.427 222.487 Q115.256 217.88 115.256 209.154 Q115.256 200.959 119.144 196.098 Q123.033 191.214 129.584 191.214 Q131.343 191.214 133.126 191.561 Q134.931 191.908 136.876 192.603 Z" fill="#000000" fill-rule="nonzero" fill-opacity="1" /><path clip-path="url(#clip030)" d="M157.177 194.918 Q153.566 194.918 151.737 198.482 Q149.931 202.024 149.931 209.154 Q149.931 216.26 151.737 219.825 Q153.566 223.366 157.177 223.366 Q160.811 223.366 162.616 219.825 Q164.445 216.26 164.445 209.154 Q164.445 202.024 162.616 198.482 Q160.811 194.918 157.177 194.918 M157.177 191.214 Q162.987 191.214 166.042 195.82 Q169.121 200.404 169.121 209.154 Q169.121 217.88 166.042 222.487 Q162.987 227.07 157.177 227.07 Q151.366 227.07 148.288 222.487 Q145.232 217.88 145.232 209.154 Q145.232 200.404 148.288 195.82 Q151.366 191.214 157.177 191.214 Z" fill="#000000" fill-rule="nonzero" fill-opacity="1" /><path clip-path="url(#clip030)" d="M16.4842 899.415 L16.4842 872.106 L21.895 872.106 L21.895 892.986 L35.8996 892.986 L35.8996 874.144 L41.3104 874.144 L41.3104 892.986 L64.0042 892.986 L64.0042 899.415 L16.4842 899.415 Z" fill="#000000" fill-rule="nonzero" fill-opacity="1" /><path clip-path="url(#clip030)" d="M33.8307 846.262 Q33.2578 847.248 33.0032 848.426 Q32.7167 849.572 32.7167 850.972 Q32.7167 855.938 35.9632 858.611 Q39.1779 861.253 45.2253 861.253 L64.0042 861.253 L64.0042 867.141 L28.3562 867.141 L28.3562 861.253 L33.8944 861.253 Q30.6479 859.407 29.0883 856.447 Q27.4968 853.487 27.4968 849.254 Q27.4968 848.649 27.5923 847.917 Q27.656 847.185 27.8151 846.294 L33.8307 846.262 Z" fill="#000000" fill-rule="nonzero" fill-opacity="1" /><path clip-path="url(#clip030)" d="M44.7161 811.059 L47.5806 811.059 L47.5806 837.986 Q53.6281 837.604 56.8109 834.358 Q59.9619 831.08 59.9619 825.255 Q59.9619 821.881 59.1344 818.73 Q58.3069 815.547 56.6518 812.428 L62.1899 812.428 Q63.5267 815.579 64.227 818.889 Q64.9272 822.199 64.9272 825.605 Q64.9272 834.135 59.9619 839.132 Q54.9967 844.097 46.5303 844.097 Q37.7774 844.097 32.6531 839.387 Q27.4968 834.644 27.4968 826.624 Q27.4968 819.43 32.1438 815.261 Q36.7589 811.059 44.7161 811.059 M42.9973 816.916 Q38.1912 816.979 35.3266 819.621 Q32.4621 822.231 32.4621 826.56 Q32.4621 831.461 35.2312 834.422 Q38.0002 837.35 43.0292 837.795 L42.9973 816.916 Z" fill="#000000" fill-rule="nonzero" fill-opacity="1" /><path clip-path="url(#clip030)" d="M46.212 797.946 Q52.6732 797.946 56.3653 795.304 Q60.0256 792.631 60.0256 787.984 Q60.0256 783.337 56.3653 780.663 Q52.6732 777.99 46.212 777.99 Q39.7508 777.99 36.0905 780.663 Q32.3984 783.337 32.3984 787.984 Q32.3984 792.631 36.0905 795.304 Q39.7508 797.946 46.212 797.946 M58.657 777.99 Q61.8398 779.836 63.3994 782.668 Q64.9272 785.469 64.9272 789.416 Q64.9272 795.877 59.771 799.951 Q54.6147 803.993 46.212 803.993 Q37.8093 803.993 32.6531 799.951 Q27.4968 795.877 27.4968 789.416 Q27.4968 785.469 29.0564 782.668 Q30.5842 779.836 33.7671 777.99 L28.3562 777.99 L28.3562 772.133 L77.5631 772.133 L77.5631 777.99 L58.657 777.99 Z" fill="#000000" fill-rule="nonzero" fill-opacity="1" /><path clip-path="url(#clip030)" d="M49.9359 760.675 L28.3562 760.675 L28.3562 754.818 L49.7131 754.818 Q54.7739 754.818 57.3202 752.845 Q59.8346 750.872 59.8346 746.925 Q59.8346 742.182 56.8109 739.445 Q53.7872 736.676 48.5673 736.676 L28.3562 736.676 L28.3562 730.82 L64.0042 730.82 L64.0042 736.676 L58.5296 736.676 Q61.7762 738.809 63.3676 741.641 Q64.9272 744.442 64.9272 748.166 Q64.9272 754.309 61.1078 757.492 Q57.2883 760.675 49.9359 760.675 M27.4968 745.938 L27.4968 745.938 Z" fill="#000000" fill-rule="nonzero" fill-opacity="1" /><path clip-path="url(#clip030)" d="M44.7161 688.265 L47.5806 688.265 L47.5806 715.192 Q53.6281 714.81 56.8109 711.563 Q59.9619 708.285 59.9619 702.46 Q59.9619 699.087 59.1344 695.936 Q58.3069 692.753 56.6518 689.634 L62.1899 689.634 Q63.5267 692.785 64.227 696.095 Q64.9272 699.405 64.9272 702.811 Q64.9272 711.341 59.9619 716.338 Q54.9967 721.303 46.5303 721.303 Q37.7774 721.303 32.6531 716.592 Q27.4968 711.85 27.4968 703.829 Q27.4968 696.636 32.1438 692.466 Q36.7589 688.265 44.7161 688.265 M42.9973 694.121 Q38.1912 694.185 35.3266 696.827 Q32.4621 699.437 32.4621 703.765 Q32.4621 708.667 35.2312 711.627 Q38.0002 714.555 43.0292 715.001 L42.9973 694.121 Z" fill="#000000" fill-rule="nonzero" fill-opacity="1" /><path clip-path="url(#clip030)" d="M42.4881 649.02 L64.0042 649.02 L64.0042 654.877 L42.679 654.877 Q37.6183 654.877 35.1038 656.85 Q32.5894 658.823 32.5894 662.77 Q32.5894 667.513 35.6131 670.25 Q38.6368 672.987 43.8567 672.987 L64.0042 672.987 L64.0042 678.875 L28.3562 678.875 L28.3562 672.987 L33.8944 672.987 Q30.6797 670.887 29.0883 668.054 Q27.4968 665.189 27.4968 661.465 Q27.4968 655.322 31.3163 652.171 Q35.1038 649.02 42.4881 649.02 Z" fill="#000000" fill-rule="nonzero" fill-opacity="1" /><path clip-path="url(#clip030)" d="M29.7248 611.685 L35.1993 611.685 Q33.8307 614.168 33.1623 616.683 Q32.4621 619.165 32.4621 621.711 Q32.4621 627.409 36.0905 630.56 Q39.6872 633.711 46.212 633.711 Q52.7369 633.711 56.3653 630.56 Q59.9619 627.409 59.9619 621.711 Q59.9619 619.165 59.2935 616.683 Q58.5933 614.168 57.2247 611.685 L62.6355 611.685 Q63.7814 614.136 64.3543 616.778 Q64.9272 619.388 64.9272 622.348 Q64.9272 630.401 59.8664 635.143 Q54.8057 639.886 46.212 639.886 Q37.491 639.886 32.4939 635.111 Q27.4968 630.305 27.4968 621.966 Q27.4968 619.261 28.0697 616.683 Q28.6108 614.104 29.7248 611.685 Z" fill="#000000" fill-rule="nonzero" fill-opacity="1" /><path clip-path="url(#clip030)" d="M67.3143 586.668 Q73.68 589.151 75.6216 591.506 Q77.5631 593.861 77.5631 597.808 L77.5631 602.487 L72.6615 602.487 L72.6615 599.05 Q72.6615 596.631 71.5157 595.294 Q70.3699 593.957 66.1048 592.334 L63.4312 591.283 L28.3562 605.702 L28.3562 599.495 L56.238 588.355 L28.3562 577.215 L28.3562 571.009 L67.3143 586.668 Z" fill="#000000" fill-rule="nonzero" fill-opacity="1" /><path clip-path="url(#clip032)" d="M944.53 1342.24 L944.53 1423.18 L1108.06 1423.18 L1108.06 1342.24 L944.53 1342.24 L944.53 1342.24  Z" fill="#009af9" fill-rule="evenodd" fill-opacity="1"/>
<polyline clip-path="url(#clip032)" style="stroke:#000000; stroke-linecap:round; stroke-linejoin:round; stroke-width:4; stroke-opacity:1; fill:none" points="944.53,1342.24 944.53,1423.18 1108.06,1423.18 1108.06,1342.24 944.53,1342.24 "/>
<path clip-path="url(#clip032)" d="M1108.06 1058.96 L1108.06 1423.18 L1271.58 1423.18 L1271.58 1058.96 L1108.06 1058.96 L1108.06 1058.96  Z" fill="#009af9" fill-rule="evenodd" fill-opacity="1"/>
<polyline clip-path="url(#clip032)" style="stroke:#000000; stroke-linecap:round; stroke-linejoin:round; stroke-width:4; stroke-opacity:1; fill:none" points="1108.06,1058.96 1108.06,1423.18 1271.58,1423.18 1271.58,1058.96 1108.06,1058.96 "/>
<path clip-path="url(#clip032)" d="M1271.58 816.149 L1271.58 1423.18 L1435.1 1423.18 L1435.1 816.149 L1271.58 816.149 L1271.58 816.149  Z" fill="#009af9" fill-rule="evenodd" fill-opacity="1"/>
<polyline clip-path="url(#clip032)" style="stroke:#000000; stroke-linecap:round; stroke-linejoin:round; stroke-width:4; stroke-opacity:1; fill:none" points="1271.58,816.149 1271.58,1423.18 1435.1,1423.18 1435.1,816.149 1271.58,816.149 "/>
<path clip-path="url(#clip032)" d="M1435.1 795.915 L1435.1 1423.18 L1598.63 1423.18 L1598.63 795.915 L1435.1 795.915 L1435.1 795.915  Z" fill="#009af9" fill-rule="evenodd" fill-opacity="1"/>
<polyline clip-path="url(#clip032)" style="stroke:#000000; stroke-linecap:round; stroke-linejoin:round; stroke-width:4; stroke-opacity:1; fill:none" points="1435.1,795.915 1435.1,1423.18 1598.63,1423.18 1598.63,795.915 1435.1,795.915 "/>
<path clip-path="url(#clip032)" d="M1598.63 775.681 L1598.63 1423.18 L1762.15 1423.18 L1762.15 775.681 L1598.63 775.681 L1598.63 775.681  Z" fill="#009af9" fill-rule="evenodd" fill-opacity="1"/>
<polyline clip-path="url(#clip032)" style="stroke:#000000; stroke-linecap:round; stroke-linejoin:round; stroke-width:4; stroke-opacity:1; fill:none" points="1598.63,775.681 1598.63,1423.18 1762.15,1423.18 1762.15,775.681 1598.63,775.681 "/>
<path clip-path="url(#clip032)" d="M1762.15 978.024 L1762.15 1423.18 L1925.68 1423.18 L1925.68 978.024 L1762.15 978.024 L1762.15 978.024  Z" fill="#009af9" fill-rule="evenodd" fill-opacity="1"/>
<polyline clip-path="url(#clip032)" style="stroke:#000000; stroke-linecap:round; stroke-linejoin:round; stroke-width:4; stroke-opacity:1; fill:none" points="1762.15,978.024 1762.15,1423.18 1925.68,1423.18 1925.68,978.024 1762.15,978.024 "/>
<path clip-path="url(#clip032)" d="M1925.68 1281.54 L1925.68 1423.18 L2089.2 1423.18 L2089.2 1281.54 L1925.68 1281.54 L1925.68 1281.54  Z" fill="#009af9" fill-rule="evenodd" fill-opacity="1"/>
<polyline clip-path="url(#clip032)" style="stroke:#000000; stroke-linecap:round; stroke-linejoin:round; stroke-width:4; stroke-opacity:1; fill:none" points="1925.68,1281.54 1925.68,1423.18 2089.2,1423.18 2089.2,1281.54 1925.68,1281.54 "/>
<path clip-path="url(#clip032)" d="M2089.2 1301.77 L2089.2 1423.18 L2252.73 1423.18 L2252.73 1301.77 L2089.2 1301.77 L2089.2 1301.77  Z" fill="#009af9" fill-rule="evenodd" fill-opacity="1"/>
<polyline clip-path="url(#clip032)" style="stroke:#000000; stroke-linecap:round; stroke-linejoin:round; stroke-width:4; stroke-opacity:1; fill:none" points="2089.2,1301.77 2089.2,1423.18 2252.73,1423.18 2252.73,1301.77 2089.2,1301.77 "/>
<circle clip-path="url(#clip032)" style="fill:#009af9; stroke:none; fill-opacity:0" cx="1026.29" cy="1342.24" r="2"/>
<circle clip-path="url(#clip032)" style="fill:#009af9; stroke:none; fill-opacity:0" cx="1189.82" cy="1058.96" r="2"/>
<circle clip-path="url(#clip032)" style="fill:#009af9; stroke:none; fill-opacity:0" cx="1353.34" cy="816.149" r="2"/>
<circle clip-path="url(#clip032)" style="fill:#009af9; stroke:none; fill-opacity:0" cx="1516.87" cy="795.915" r="2"/>
<circle clip-path="url(#clip032)" style="fill:#009af9; stroke:none; fill-opacity:0" cx="1680.39" cy="775.681" r="2"/>
<circle clip-path="url(#clip032)" style="fill:#009af9; stroke:none; fill-opacity:0" cx="1843.92" cy="978.024" r="2"/>
<circle clip-path="url(#clip032)" style="fill:#009af9; stroke:none; fill-opacity:0" cx="2007.44" cy="1281.54" r="2"/>
<circle clip-path="url(#clip032)" style="fill:#009af9; stroke:none; fill-opacity:0" cx="2170.97" cy="1301.77" r="2"/>
<path clip-path="url(#clip032)" d="M290.432 1200.6 L290.432 1423.18 L453.956 1423.18 L453.956 1200.6 L290.432 1200.6 L290.432 1200.6  Z" fill="#e26f46" fill-rule="evenodd" fill-opacity="1"/>
<polyline clip-path="url(#clip032)" style="stroke:#000000; stroke-linecap:round; stroke-linejoin:round; stroke-width:4; stroke-opacity:1; fill:none" points="290.432,1200.6 290.432,1423.18 453.956,1423.18 453.956,1200.6 290.432,1200.6 "/>
<path clip-path="url(#clip032)" d="M453.956 492.4 L453.956 1423.18 L617.481 1423.18 L617.481 492.4 L453.956 492.4 L453.956 492.4  Z" fill="#e26f46" fill-rule="evenodd" fill-opacity="1"/>
<polyline clip-path="url(#clip032)" style="stroke:#000000; stroke-linecap:round; stroke-linejoin:round; stroke-width:4; stroke-opacity:1; fill:none" points="453.956,492.4 453.956,1423.18 617.481,1423.18 617.481,492.4 453.956,492.4 "/>
<path clip-path="url(#clip032)" d="M617.481 47.2441 L617.481 1423.18 L781.006 1423.18 L781.006 47.2441 L617.481 47.2441 L617.481 47.2441  Z" fill="#e26f46" fill-rule="evenodd" fill-opacity="1"/>
<polyline clip-path="url(#clip032)" style="stroke:#000000; stroke-linecap:round; stroke-linejoin:round; stroke-width:4; stroke-opacity:1; fill:none" points="617.481,47.2441 617.481,1423.18 781.006,1423.18 781.006,47.2441 617.481,47.2441 "/>
<path clip-path="url(#clip032)" d="M781.006 998.259 L781.006 1423.18 L944.53 1423.18 L944.53 998.259 L781.006 998.259 L781.006 998.259  Z" fill="#e26f46" fill-rule="evenodd" fill-opacity="1"/>
<polyline clip-path="url(#clip032)" style="stroke:#000000; stroke-linecap:round; stroke-linejoin:round; stroke-width:4; stroke-opacity:1; fill:none" points="781.006,998.259 781.006,1423.18 944.53,1423.18 944.53,998.259 781.006,998.259 "/>
<path clip-path="url(#clip032)" d="M944.53 1342.24 L944.53 1423.18 L1108.06 1423.18 L1108.06 1342.24 L944.53 1342.24 L944.53 1342.24  Z" fill="#e26f46" fill-rule="evenodd" fill-opacity="1"/>
<polyline clip-path="url(#clip032)" style="stroke:#000000; stroke-linecap:round; stroke-linejoin:round; stroke-width:4; stroke-opacity:1; fill:none" points="944.53,1342.24 944.53,1423.18 1108.06,1423.18 1108.06,1342.24 944.53,1342.24 "/>
<circle clip-path="url(#clip032)" style="fill:#e26f46; stroke:none; fill-opacity:0" cx="372.194" cy="1200.6" r="2"/>
<circle clip-path="url(#clip032)" style="fill:#e26f46; stroke:none; fill-opacity:0" cx="535.719" cy="492.4" r="2"/>
<circle clip-path="url(#clip032)" style="fill:#e26f46; stroke:none; fill-opacity:0" cx="699.243" cy="47.2441" r="2"/>
<circle clip-path="url(#clip032)" style="fill:#e26f46; stroke:none; fill-opacity:0" cx="862.768" cy="998.259" r="2"/>
<circle clip-path="url(#clip032)" style="fill:#e26f46; stroke:none; fill-opacity:0" cx="1026.29" cy="1342.24" r="2"/>
<path clip-path="url(#clip030)" d="M1763.4 248.629 L2281.17 248.629 L2281.17 93.1086 L1763.4 93.1086  Z" fill="#ffffff" fill-rule="evenodd" fill-opacity="1"/>
<polyline clip-path="url(#clip030)" style="stroke:#000000; stroke-linecap:round; stroke-linejoin:round; stroke-width:4; stroke-opacity:1; fill:none" points="1763.4,248.629 2281.17,248.629 2281.17,93.1086 1763.4,93.1086 1763.4,248.629 "/>
<path clip-path="url(#clip030)" d="M1787.26 165.685 L1930.44 165.685 L1930.44 124.213 L1787.26 124.213 L1787.26 165.685  Z" fill="#009af9" fill-rule="evenodd" fill-opacity="1"/>
<polyline clip-path="url(#clip030)" style="stroke:#000000; stroke-linecap:round; stroke-linejoin:round; stroke-width:4; stroke-opacity:1; fill:none" points="1787.26,165.685 1930.44,165.685 1930.44,124.213 1787.26,124.213 1787.26,165.685 "/>
<path clip-path="url(#clip030)" d="M1976.54 128.803 L1976.54 133.363 Q1973.88 132.09 1971.52 131.465 Q1969.16 130.84 1966.96 130.84 Q1963.14 130.84 1961.06 132.321 Q1959 133.803 1959 136.534 Q1959 138.826 1960.36 140.007 Q1961.75 141.164 1965.59 141.882 L1968.42 142.46 Q1973.65 143.456 1976.13 145.979 Q1978.63 148.479 1978.63 152.692 Q1978.63 157.715 1975.25 160.307 Q1971.89 162.9 1965.39 162.9 Q1962.93 162.9 1960.15 162.344 Q1957.4 161.789 1954.44 160.701 L1954.44 155.886 Q1957.28 157.483 1960.02 158.293 Q1962.75 159.104 1965.39 159.104 Q1969.39 159.104 1971.57 157.53 Q1973.74 155.956 1973.74 153.039 Q1973.74 150.493 1972.17 149.057 Q1970.62 147.622 1967.05 146.905 L1964.21 146.349 Q1958.97 145.307 1956.64 143.085 Q1954.3 140.863 1954.3 136.905 Q1954.3 132.321 1957.52 129.682 Q1960.76 127.044 1966.43 127.044 Q1968.86 127.044 1971.38 127.483 Q1973.9 127.923 1976.54 128.803 Z" fill="#000000" fill-rule="nonzero" fill-opacity="1" /><path clip-path="url(#clip030)" d="M2007.91 148.201 L2007.91 150.284 L1988.33 150.284 Q1988.6 154.682 1990.96 156.997 Q1993.35 159.289 1997.58 159.289 Q2000.04 159.289 2002.33 158.687 Q2004.64 158.085 2006.91 156.881 L2006.91 160.909 Q2004.62 161.881 2002.21 162.391 Q1999.81 162.9 1997.33 162.9 Q1991.13 162.9 1987.49 159.289 Q1983.88 155.678 1983.88 149.52 Q1983.88 143.155 1987.31 139.428 Q1990.76 135.678 1996.59 135.678 Q2001.82 135.678 2004.85 139.057 Q2007.91 142.414 2007.91 148.201 M2003.65 146.951 Q2003.6 143.456 2001.68 141.372 Q1999.78 139.289 1996.64 139.289 Q1993.07 139.289 1990.92 141.303 Q1988.79 143.317 1988.46 146.974 L2003.65 146.951 Z" fill="#000000" fill-rule="nonzero" fill-opacity="1" /><path clip-path="url(#clip030)" d="M2019.02 158.34 L2019.02 172.09 L2014.74 172.09 L2014.74 136.303 L2019.02 136.303 L2019.02 140.238 Q2020.36 137.923 2022.4 136.812 Q2024.46 135.678 2027.31 135.678 Q2032.03 135.678 2034.97 139.428 Q2037.93 143.178 2037.93 149.289 Q2037.93 155.4 2034.97 159.15 Q2032.03 162.9 2027.31 162.9 Q2024.46 162.9 2022.4 161.789 Q2020.36 160.655 2019.02 158.34 M2033.51 149.289 Q2033.51 144.59 2031.57 141.928 Q2029.64 139.243 2026.27 139.243 Q2022.89 139.243 2020.94 141.928 Q2019.02 144.59 2019.02 149.289 Q2019.02 153.988 2020.94 156.673 Q2022.89 159.335 2026.27 159.335 Q2029.64 159.335 2031.57 156.673 Q2033.51 153.988 2033.51 149.289 Z" fill="#000000" fill-rule="nonzero" fill-opacity="1" /><path clip-path="url(#clip030)" d="M2056.77 149.196 Q2051.61 149.196 2049.62 150.377 Q2047.63 151.557 2047.63 154.405 Q2047.63 156.673 2049.11 158.016 Q2050.62 159.335 2053.19 159.335 Q2056.73 159.335 2058.86 156.835 Q2061.01 154.312 2061.01 150.145 L2061.01 149.196 L2056.77 149.196 M2065.27 147.437 L2065.27 162.229 L2061.01 162.229 L2061.01 158.293 Q2059.55 160.655 2057.38 161.789 Q2055.2 162.9 2052.05 162.9 Q2048.07 162.9 2045.71 160.678 Q2043.37 158.432 2043.37 154.682 Q2043.37 150.307 2046.29 148.085 Q2049.23 145.863 2055.04 145.863 L2061.01 145.863 L2061.01 145.446 Q2061.01 142.507 2059.07 140.909 Q2057.14 139.289 2053.65 139.289 Q2051.43 139.289 2049.32 139.821 Q2047.21 140.354 2045.27 141.419 L2045.27 137.483 Q2047.61 136.581 2049.81 136.141 Q2052.01 135.678 2054.09 135.678 Q2059.71 135.678 2062.49 138.594 Q2065.27 141.511 2065.27 147.437 Z" fill="#000000" fill-rule="nonzero" fill-opacity="1" /><path clip-path="url(#clip030)" d="M2074.04 126.21 L2078.3 126.21 L2078.3 162.229 L2074.04 162.229 L2074.04 126.21 Z" fill="#000000" fill-rule="nonzero" fill-opacity="1" /><path clip-path="url(#clip030)" d="M2102.47 127.669 L2107.14 127.669 L2107.14 158.293 L2123.97 158.293 L2123.97 162.229 L2102.47 162.229 L2102.47 127.669 Z" fill="#000000" fill-rule="nonzero" fill-opacity="1" /><path clip-path="url(#clip030)" d="M2150.04 148.201 L2150.04 150.284 L2130.45 150.284 Q2130.73 154.682 2133.09 156.997 Q2135.48 159.289 2139.71 159.289 Q2142.17 159.289 2144.46 158.687 Q2146.77 158.085 2149.04 156.881 L2149.04 160.909 Q2146.75 161.881 2144.34 162.391 Q2141.94 162.9 2139.46 162.9 Q2133.26 162.9 2129.62 159.289 Q2126.01 155.678 2126.01 149.52 Q2126.01 143.155 2129.44 139.428 Q2132.88 135.678 2138.72 135.678 Q2143.95 135.678 2146.98 139.057 Q2150.04 142.414 2150.04 148.201 M2145.78 146.951 Q2145.73 143.456 2143.81 141.372 Q2141.91 139.289 2138.76 139.289 Q2135.2 139.289 2133.05 141.303 Q2130.92 143.317 2130.59 146.974 L2145.78 146.951 Z" fill="#000000" fill-rule="nonzero" fill-opacity="1" /><path clip-path="url(#clip030)" d="M2178.58 146.581 L2178.58 162.229 L2174.32 162.229 L2174.32 146.719 Q2174.32 143.039 2172.88 141.21 Q2171.45 139.382 2168.58 139.382 Q2165.13 139.382 2163.14 141.581 Q2161.15 143.78 2161.15 147.576 L2161.15 162.229 L2156.87 162.229 L2156.87 136.303 L2161.15 136.303 L2161.15 140.331 Q2162.68 137.993 2164.74 136.835 Q2166.82 135.678 2169.53 135.678 Q2174 135.678 2176.29 138.456 Q2178.58 141.21 2178.58 146.581 Z" fill="#000000" fill-rule="nonzero" fill-opacity="1" /><path clip-path="url(#clip030)" d="M2204.13 148.965 Q2204.13 144.335 2202.21 141.789 Q2200.32 139.243 2196.87 139.243 Q2193.44 139.243 2191.52 141.789 Q2189.62 144.335 2189.62 148.965 Q2189.62 153.571 2191.52 156.118 Q2193.44 158.664 2196.87 158.664 Q2200.32 158.664 2202.21 156.118 Q2204.13 153.571 2204.13 148.965 M2208.39 159.011 Q2208.39 165.631 2205.45 168.849 Q2202.51 172.09 2196.45 172.09 Q2194.2 172.09 2192.21 171.742 Q2190.22 171.418 2188.35 170.724 L2188.35 166.58 Q2190.22 167.599 2192.05 168.085 Q2193.88 168.571 2195.78 168.571 Q2199.97 168.571 2202.05 166.372 Q2204.13 164.196 2204.13 159.775 L2204.13 157.668 Q2202.82 159.96 2200.75 161.094 Q2198.69 162.229 2195.82 162.229 Q2191.06 162.229 2188.14 158.594 Q2185.22 154.96 2185.22 148.965 Q2185.22 142.946 2188.14 139.312 Q2191.06 135.678 2195.82 135.678 Q2198.69 135.678 2200.75 136.812 Q2202.82 137.946 2204.13 140.238 L2204.13 136.303 L2208.39 136.303 L2208.39 159.011 Z" fill="#000000" fill-rule="nonzero" fill-opacity="1" /><path clip-path="url(#clip030)" d="M2221.38 128.942 L2221.38 136.303 L2230.15 136.303 L2230.15 139.613 L2221.38 139.613 L2221.38 153.687 Q2221.38 156.858 2222.24 157.761 Q2223.12 158.664 2225.78 158.664 L2230.15 158.664 L2230.15 162.229 L2225.78 162.229 Q2220.85 162.229 2218.97 160.4 Q2217.1 158.548 2217.1 153.687 L2217.1 139.613 L2213.97 139.613 L2213.97 136.303 L2217.1 136.303 L2217.1 128.942 L2221.38 128.942 Z" fill="#000000" fill-rule="nonzero" fill-opacity="1" /><path clip-path="url(#clip030)" d="M2257.31 146.581 L2257.31 162.229 L2253.05 162.229 L2253.05 146.719 Q2253.05 143.039 2251.61 141.21 Q2250.18 139.382 2247.31 139.382 Q2243.86 139.382 2241.87 141.581 Q2239.88 143.78 2239.88 147.576 L2239.88 162.229 L2235.59 162.229 L2235.59 126.21 L2239.88 126.21 L2239.88 140.331 Q2241.4 137.993 2243.46 136.835 Q2245.55 135.678 2248.25 135.678 Q2252.72 135.678 2255.01 138.456 Q2257.31 141.21 2257.31 146.581 Z" fill="#000000" fill-rule="nonzero" fill-opacity="1" /><path clip-path="url(#clip030)" d="M1787.26 217.525 L1930.44 217.525 L1930.44 176.053 L1787.26 176.053 L1787.26 217.525  Z" fill="#e26f46" fill-rule="evenodd" fill-opacity="1"/>
<polyline clip-path="url(#clip030)" style="stroke:#000000; stroke-linecap:round; stroke-linejoin:round; stroke-width:4; stroke-opacity:1; fill:none" points="1787.26,217.525 1930.44,217.525 1930.44,176.053 1787.26,176.053 1787.26,217.525 "/>
<path clip-path="url(#clip030)" d="M1976.54 180.643 L1976.54 185.203 Q1973.88 183.93 1971.52 183.305 Q1969.16 182.68 1966.96 182.68 Q1963.14 182.68 1961.06 184.161 Q1959 185.643 1959 188.374 Q1959 190.666 1960.36 191.847 Q1961.75 193.004 1965.59 193.722 L1968.42 194.3 Q1973.65 195.296 1976.13 197.819 Q1978.63 200.319 1978.63 204.532 Q1978.63 209.555 1975.25 212.147 Q1971.89 214.74 1965.39 214.74 Q1962.93 214.74 1960.15 214.184 Q1957.4 213.629 1954.44 212.541 L1954.44 207.726 Q1957.28 209.323 1960.02 210.133 Q1962.75 210.944 1965.39 210.944 Q1969.39 210.944 1971.57 209.37 Q1973.74 207.796 1973.74 204.879 Q1973.74 202.333 1972.17 200.897 Q1970.62 199.462 1967.05 198.745 L1964.21 198.189 Q1958.97 197.147 1956.64 194.925 Q1954.3 192.703 1954.3 188.745 Q1954.3 184.161 1957.52 181.522 Q1960.76 178.884 1966.43 178.884 Q1968.86 178.884 1971.38 179.323 Q1973.9 179.763 1976.54 180.643 Z" fill="#000000" fill-rule="nonzero" fill-opacity="1" /><path clip-path="url(#clip030)" d="M2007.91 200.041 L2007.91 202.124 L1988.33 202.124 Q1988.6 206.522 1990.96 208.837 Q1993.35 211.129 1997.58 211.129 Q2000.04 211.129 2002.33 210.527 Q2004.64 209.925 2006.91 208.721 L2006.91 212.749 Q2004.62 213.721 2002.21 214.231 Q1999.81 214.74 1997.33 214.74 Q1991.13 214.74 1987.49 211.129 Q1983.88 207.518 1983.88 201.36 Q1983.88 194.995 1987.31 191.268 Q1990.76 187.518 1996.59 187.518 Q2001.82 187.518 2004.85 190.897 Q2007.91 194.254 2007.91 200.041 M2003.65 198.791 Q2003.6 195.296 2001.68 193.212 Q1999.78 191.129 1996.64 191.129 Q1993.07 191.129 1990.92 193.143 Q1988.79 195.157 1988.46 198.814 L2003.65 198.791 Z" fill="#000000" fill-rule="nonzero" fill-opacity="1" /><path clip-path="url(#clip030)" d="M2019.02 210.18 L2019.02 223.93 L2014.74 223.93 L2014.74 188.143 L2019.02 188.143 L2019.02 192.078 Q2020.36 189.763 2022.4 188.652 Q2024.46 187.518 2027.31 187.518 Q2032.03 187.518 2034.97 191.268 Q2037.93 195.018 2037.93 201.129 Q2037.93 207.24 2034.97 210.99 Q2032.03 214.74 2027.31 214.74 Q2024.46 214.74 2022.4 213.629 Q2020.36 212.495 2019.02 210.18 M2033.51 201.129 Q2033.51 196.43 2031.57 193.768 Q2029.64 191.083 2026.27 191.083 Q2022.89 191.083 2020.94 193.768 Q2019.02 196.43 2019.02 201.129 Q2019.02 205.828 2020.94 208.513 Q2022.89 211.175 2026.27 211.175 Q2029.64 211.175 2031.57 208.513 Q2033.51 205.828 2033.51 201.129 Z" fill="#000000" fill-rule="nonzero" fill-opacity="1" /><path clip-path="url(#clip030)" d="M2056.77 201.036 Q2051.61 201.036 2049.62 202.217 Q2047.63 203.397 2047.63 206.245 Q2047.63 208.513 2049.11 209.856 Q2050.62 211.175 2053.19 211.175 Q2056.73 211.175 2058.86 208.675 Q2061.01 206.152 2061.01 201.985 L2061.01 201.036 L2056.77 201.036 M2065.27 199.277 L2065.27 214.069 L2061.01 214.069 L2061.01 210.133 Q2059.55 212.495 2057.38 213.629 Q2055.2 214.74 2052.05 214.74 Q2048.07 214.74 2045.71 212.518 Q2043.37 210.272 2043.37 206.522 Q2043.37 202.147 2046.29 199.925 Q2049.23 197.703 2055.04 197.703 L2061.01 197.703 L2061.01 197.286 Q2061.01 194.347 2059.07 192.749 Q2057.14 191.129 2053.65 191.129 Q2051.43 191.129 2049.32 191.661 Q2047.21 192.194 2045.27 193.259 L2045.27 189.323 Q2047.61 188.421 2049.81 187.981 Q2052.01 187.518 2054.09 187.518 Q2059.71 187.518 2062.49 190.434 Q2065.27 193.351 2065.27 199.277 Z" fill="#000000" fill-rule="nonzero" fill-opacity="1" /><path clip-path="url(#clip030)" d="M2074.04 178.05 L2078.3 178.05 L2078.3 214.069 L2074.04 214.069 L2074.04 178.05 Z" fill="#000000" fill-rule="nonzero" fill-opacity="1" /><path clip-path="url(#clip030)" d="M2099.39 179.509 L2104.11 179.509 L2111.38 208.721 L2118.63 179.509 L2123.88 179.509 L2131.15 208.721 L2138.39 179.509 L2143.14 179.509 L2134.46 214.069 L2128.58 214.069 L2121.29 184.069 L2113.93 214.069 L2108.05 214.069 L2099.39 179.509 Z" fill="#000000" fill-rule="nonzero" fill-opacity="1" /><path clip-path="url(#clip030)" d="M2148.12 188.143 L2152.38 188.143 L2152.38 214.069 L2148.12 214.069 L2148.12 188.143 M2148.12 178.05 L2152.38 178.05 L2152.38 183.444 L2148.12 183.444 L2148.12 178.05 Z" fill="#000000" fill-rule="nonzero" fill-opacity="1" /><path clip-path="url(#clip030)" d="M2178.35 192.078 L2178.35 178.05 L2182.61 178.05 L2182.61 214.069 L2178.35 214.069 L2178.35 210.18 Q2177 212.495 2174.94 213.629 Q2172.91 214.74 2170.04 214.74 Q2165.34 214.74 2162.38 210.99 Q2159.44 207.24 2159.44 201.129 Q2159.44 195.018 2162.38 191.268 Q2165.34 187.518 2170.04 187.518 Q2172.91 187.518 2174.94 188.652 Q2177 189.763 2178.35 192.078 M2163.83 201.129 Q2163.83 205.828 2165.76 208.513 Q2167.7 211.175 2171.08 211.175 Q2174.46 211.175 2176.4 208.513 Q2178.35 205.828 2178.35 201.129 Q2178.35 196.43 2176.4 193.768 Q2174.46 191.083 2171.08 191.083 Q2167.7 191.083 2165.76 193.768 Q2163.83 196.43 2163.83 201.129 Z" fill="#000000" fill-rule="nonzero" fill-opacity="1" /><path clip-path="url(#clip030)" d="M2195.59 180.782 L2195.59 188.143 L2204.37 188.143 L2204.37 191.453 L2195.59 191.453 L2195.59 205.527 Q2195.59 208.698 2196.45 209.601 Q2197.33 210.504 2199.99 210.504 L2204.37 210.504 L2204.37 214.069 L2199.99 214.069 Q2195.06 214.069 2193.19 212.24 Q2191.31 210.388 2191.31 205.527 L2191.31 191.453 L2188.19 191.453 L2188.19 188.143 L2191.31 188.143 L2191.31 180.782 L2195.59 180.782 Z" fill="#000000" fill-rule="nonzero" fill-opacity="1" /><path clip-path="url(#clip030)" d="M2231.52 198.421 L2231.52 214.069 L2227.26 214.069 L2227.26 198.559 Q2227.26 194.879 2225.82 193.05 Q2224.39 191.222 2221.52 191.222 Q2218.07 191.222 2216.08 193.421 Q2214.09 195.62 2214.09 199.416 L2214.09 214.069 L2209.81 214.069 L2209.81 178.05 L2214.09 178.05 L2214.09 192.171 Q2215.62 189.833 2217.68 188.675 Q2219.76 187.518 2222.47 187.518 Q2226.94 187.518 2229.23 190.296 Q2231.52 193.05 2231.52 198.421 Z" fill="#000000" fill-rule="nonzero" fill-opacity="1" /></svg>
