<?xml version="1.0" encoding="utf-8"?>
<svg xmlns="http://www.w3.org/2000/svg" xmlns:xlink="http://www.w3.org/1999/xlink" width="600" height="400" viewBox="0 0 2400 1600">
<defs>
  <clipPath id="clip840">
    <rect x="0" y="0" width="2400" height="1600"/>
  </clipPath>
</defs>
<path clip-path="url(#clip840)" d="M0 1600 L2400 1600 L2400 0 L0 0  Z" fill="#ffffff" fill-rule="evenodd" fill-opacity="1"/>
<defs>
  <clipPath id="clip841">
    <rect x="480" y="0" width="1681" height="1600"/>
  </clipPath>
</defs>
<path clip-path="url(#clip840)" d="M203.964 1423.18 L2352.76 1423.18 L2352.76 47.2441 L203.964 47.2441  Z" fill="#ffffff" fill-rule="evenodd" fill-opacity="1"/>
<defs>
  <clipPath id="clip842">
    <rect x="203" y="47" width="2150" height="1377"/>
  </clipPath>
</defs>
<polyline clip-path="url(#clip842)" style="stroke:#000000; stroke-linecap:round; stroke-linejoin:round; stroke-width:2; stroke-opacity:0.1; fill:none" points="322.151,1423.18 322.151,47.2441 "/>
<polyline clip-path="url(#clip842)" style="stroke:#000000; stroke-linecap:round; stroke-linejoin:round; stroke-width:2; stroke-opacity:0.1; fill:none" points="800.255,1423.18 800.255,47.2441 "/>
<polyline clip-path="url(#clip842)" style="stroke:#000000; stroke-linecap:round; stroke-linejoin:round; stroke-width:2; stroke-opacity:0.1; fill:none" points="1278.36,1423.18 1278.36,47.2441 "/>
<polyline clip-path="url(#clip842)" style="stroke:#000000; stroke-linecap:round; stroke-linejoin:round; stroke-width:2; stroke-opacity:0.1; fill:none" points="1756.46,1423.18 1756.46,47.2441 "/>
<polyline clip-path="url(#clip842)" style="stroke:#000000; stroke-linecap:round; stroke-linejoin:round; stroke-width:2; stroke-opacity:0.1; fill:none" points="2234.57,1423.18 2234.57,47.2441 "/>
<polyline clip-path="url(#clip840)" style="stroke:#000000; stroke-linecap:round; stroke-linejoin:round; stroke-width:4; stroke-opacity:1; fill:none" points="203.964,1423.18 2352.76,1423.18 "/>
<polyline clip-path="url(#clip840)" style="stroke:#000000; stroke-linecap:round; stroke-linejoin:round; stroke-width:4; stroke-opacity:1; fill:none" points="322.151,1423.18 322.151,1404.28 "/>
<polyline clip-path="url(#clip840)" style="stroke:#000000; stroke-linecap:round; stroke-linejoin:round; stroke-width:4; stroke-opacity:1; fill:none" points="800.255,1423.18 800.255,1404.28 "/>
<polyline clip-path="url(#clip840)" style="stroke:#000000; stroke-linecap:round; stroke-linejoin:round; stroke-width:4; stroke-opacity:1; fill:none" points="1278.36,1423.18 1278.36,1404.28 "/>
<polyline clip-path="url(#clip840)" style="stroke:#000000; stroke-linecap:round; stroke-linejoin:round; stroke-width:4; stroke-opacity:1; fill:none" points="1756.46,1423.18 1756.46,1404.28 "/>
<polyline clip-path="url(#clip840)" style="stroke:#000000; stroke-linecap:round; stroke-linejoin:round; stroke-width:4; stroke-opacity:1; fill:none" points="2234.57,1423.18 2234.57,1404.28 "/>
<path clip-path="url(#clip840)" d="M325.16 1455.09 L313.355 1473.54 L325.16 1473.54 L325.16 1455.09 M323.933 1451.02 L329.813 1451.02 L329.813 1473.54 L334.744 1473.54 L334.744 1477.43 L329.813 1477.43 L329.813 1485.58 L325.16 1485.58 L325.16 1477.43 L309.558 1477.43 L309.558 1472.92 L323.933 1451.02 Z" fill="#000000" fill-rule="nonzero" fill-opacity="1" /><path clip-path="url(#clip840)" d="M790.533 1451.02 L808.89 1451.02 L808.89 1454.96 L794.816 1454.96 L794.816 1463.43 Q795.834 1463.08 796.853 1462.92 Q797.871 1462.73 798.89 1462.73 Q804.677 1462.73 808.056 1465.9 Q811.436 1469.08 811.436 1474.49 Q811.436 1480.07 807.964 1483.17 Q804.491 1486.25 798.172 1486.25 Q795.996 1486.25 793.728 1485.88 Q791.482 1485.51 789.075 1484.77 L789.075 1480.07 Q791.158 1481.2 793.38 1481.76 Q795.603 1482.32 798.079 1482.32 Q802.084 1482.32 804.422 1480.21 Q806.76 1478.1 806.76 1474.49 Q806.76 1470.88 804.422 1468.77 Q802.084 1466.67 798.079 1466.67 Q796.204 1466.67 794.329 1467.08 Q792.478 1467.5 790.533 1468.38 L790.533 1451.02 Z" fill="#000000" fill-rule="nonzero" fill-opacity="1" /><path clip-path="url(#clip840)" d="M1278.76 1466.44 Q1275.62 1466.44 1273.76 1468.59 Q1271.94 1470.74 1271.94 1474.49 Q1271.94 1478.22 1273.76 1480.39 Q1275.62 1482.55 1278.76 1482.55 Q1281.91 1482.55 1283.74 1480.39 Q1285.59 1478.22 1285.59 1474.49 Q1285.59 1470.74 1283.74 1468.59 Q1281.91 1466.44 1278.76 1466.44 M1288.05 1451.78 L1288.05 1456.04 Q1286.29 1455.21 1284.48 1454.77 Q1282.7 1454.33 1280.94 1454.33 Q1276.31 1454.33 1273.86 1457.45 Q1271.43 1460.58 1271.08 1466.9 Q1272.45 1464.89 1274.51 1463.82 Q1276.57 1462.73 1279.04 1462.73 Q1284.25 1462.73 1287.26 1465.9 Q1290.29 1469.05 1290.29 1474.49 Q1290.29 1479.82 1287.14 1483.03 Q1284 1486.25 1278.76 1486.25 Q1272.77 1486.25 1269.6 1481.67 Q1266.43 1477.06 1266.43 1468.33 Q1266.43 1460.14 1270.32 1455.28 Q1274.2 1450.39 1280.76 1450.39 Q1282.51 1450.39 1284.3 1450.74 Q1286.1 1451.09 1288.05 1451.78 Z" fill="#000000" fill-rule="nonzero" fill-opacity="1" /><path clip-path="url(#clip840)" d="M1745.35 1451.02 L1767.58 1451.02 L1767.58 1453.01 L1755.03 1485.58 L1750.14 1485.58 L1761.95 1454.96 L1745.35 1454.96 L1745.35 1451.02 Z" fill="#000000" fill-rule="nonzero" fill-opacity="1" /><path clip-path="url(#clip840)" d="M2234.57 1469.17 Q2231.24 1469.17 2229.31 1470.95 Q2227.42 1472.73 2227.42 1475.86 Q2227.42 1478.98 2229.31 1480.77 Q2231.24 1482.55 2234.57 1482.55 Q2237.9 1482.55 2239.82 1480.77 Q2241.74 1478.96 2241.74 1475.86 Q2241.74 1472.73 2239.82 1470.95 Q2237.92 1469.17 2234.57 1469.17 M2229.89 1467.18 Q2226.88 1466.44 2225.19 1464.38 Q2223.53 1462.32 2223.53 1459.35 Q2223.53 1455.21 2226.47 1452.8 Q2229.43 1450.39 2234.57 1450.39 Q2239.73 1450.39 2242.67 1452.8 Q2245.61 1455.21 2245.61 1459.35 Q2245.61 1462.32 2243.92 1464.38 Q2242.25 1466.44 2239.27 1467.18 Q2242.65 1467.96 2244.52 1470.26 Q2246.42 1472.55 2246.42 1475.86 Q2246.42 1480.88 2243.34 1483.57 Q2240.29 1486.25 2234.57 1486.25 Q2228.85 1486.25 2225.77 1483.57 Q2222.72 1480.88 2222.72 1475.86 Q2222.72 1472.55 2224.61 1470.26 Q2226.51 1467.96 2229.89 1467.18 M2228.18 1459.79 Q2228.18 1462.48 2229.85 1463.98 Q2231.54 1465.49 2234.57 1465.49 Q2237.58 1465.49 2239.27 1463.98 Q2240.98 1462.48 2240.98 1459.79 Q2240.98 1457.11 2239.27 1455.6 Q2237.58 1454.1 2234.57 1454.1 Q2231.54 1454.1 2229.85 1455.6 Q2228.18 1457.11 2228.18 1459.79 Z" fill="#000000" fill-rule="nonzero" fill-opacity="1" /><path clip-path="url(#clip840)" d="M1128.72 1522.08 L1128.72 1528.35 Q1125.06 1526.6 1121.81 1525.74 Q1118.56 1524.88 1115.54 1524.88 Q1110.29 1524.88 1107.42 1526.92 Q1104.59 1528.96 1104.59 1532.71 Q1104.59 1535.87 1106.47 1537.49 Q1108.38 1539.08 1113.66 1540.07 L1117.55 1540.86 Q1124.74 1542.23 1128.14 1545.7 Q1131.58 1549.14 1131.58 1554.93 Q1131.58 1561.84 1126.94 1565.4 Q1122.32 1568.97 1113.38 1568.97 Q1110 1568.97 1106.18 1568.2 Q1102.4 1567.44 1098.32 1565.94 L1098.32 1559.32 Q1102.24 1561.52 1105.99 1562.63 Q1109.75 1563.75 1113.38 1563.75 Q1118.88 1563.75 1121.87 1561.58 Q1124.87 1559.42 1124.87 1555.41 Q1124.87 1551.91 1122.7 1549.93 Q1120.57 1547.96 1115.67 1546.97 L1111.75 1546.21 Q1104.56 1544.78 1101.35 1541.72 Q1098.13 1538.67 1098.13 1533.22 Q1098.13 1526.92 1102.55 1523.29 Q1107.01 1519.66 1114.81 1519.66 Q1118.15 1519.66 1121.62 1520.27 Q1125.09 1520.87 1128.72 1522.08 Z" fill="#000000" fill-rule="nonzero" fill-opacity="1" /><path clip-path="url(#clip840)" d="M1171.85 1548.76 L1171.85 1551.62 L1144.92 1551.62 Q1145.3 1557.67 1148.55 1560.85 Q1151.83 1564 1157.65 1564 Q1161.02 1564 1164.17 1563.17 Q1167.36 1562.35 1170.48 1560.69 L1170.48 1566.23 Q1167.33 1567.57 1164.02 1568.27 Q1160.71 1568.97 1157.3 1568.97 Q1148.77 1568.97 1143.77 1564 Q1138.81 1559.04 1138.81 1550.57 Q1138.81 1541.82 1143.52 1536.69 Q1148.26 1531.54 1156.28 1531.54 Q1163.47 1531.54 1167.64 1536.18 Q1171.85 1540.8 1171.85 1548.76 M1165.99 1547.04 Q1165.93 1542.23 1163.28 1539.37 Q1160.67 1536.5 1156.35 1536.5 Q1151.44 1536.5 1148.48 1539.27 Q1145.56 1542.04 1145.11 1547.07 L1165.99 1547.04 Z" fill="#000000" fill-rule="nonzero" fill-opacity="1" /><path clip-path="url(#clip840)" d="M1187.12 1562.7 L1187.12 1581.6 L1181.23 1581.6 L1181.23 1532.4 L1187.12 1532.4 L1187.12 1537.81 Q1188.97 1534.62 1191.77 1533.1 Q1194.6 1531.54 1198.52 1531.54 Q1205.01 1531.54 1209.05 1536.69 Q1213.13 1541.85 1213.13 1550.25 Q1213.13 1558.65 1209.05 1563.81 Q1205.01 1568.97 1198.52 1568.97 Q1194.6 1568.97 1191.77 1567.44 Q1188.97 1565.88 1187.12 1562.7 M1207.05 1550.25 Q1207.05 1543.79 1204.37 1540.13 Q1201.73 1536.44 1197.09 1536.44 Q1192.44 1536.44 1189.77 1540.13 Q1187.12 1543.79 1187.12 1550.25 Q1187.12 1556.71 1189.77 1560.4 Q1192.44 1564.07 1197.09 1564.07 Q1201.73 1564.07 1204.37 1560.4 Q1207.05 1556.71 1207.05 1550.25 Z" fill="#000000" fill-rule="nonzero" fill-opacity="1" /><path clip-path="url(#clip840)" d="M1239.04 1550.12 Q1231.94 1550.12 1229.2 1551.75 Q1226.46 1553.37 1226.46 1557.29 Q1226.46 1560.4 1228.5 1562.25 Q1230.57 1564.07 1234.1 1564.07 Q1238.97 1564.07 1241.9 1560.63 Q1244.86 1557.16 1244.86 1551.43 L1244.86 1550.12 L1239.04 1550.12 M1250.72 1547.71 L1250.72 1568.04 L1244.86 1568.04 L1244.86 1562.63 Q1242.86 1565.88 1239.86 1567.44 Q1236.87 1568.97 1232.54 1568.97 Q1227.07 1568.97 1223.82 1565.91 Q1220.61 1562.82 1220.61 1557.67 Q1220.61 1551.65 1224.62 1548.6 Q1228.66 1545.54 1236.65 1545.54 L1244.86 1545.54 L1244.86 1544.97 Q1244.86 1540.93 1242.19 1538.73 Q1239.54 1536.5 1234.74 1536.5 Q1231.68 1536.5 1228.79 1537.23 Q1225.89 1537.97 1223.22 1539.43 L1223.22 1534.02 Q1226.43 1532.78 1229.46 1532.17 Q1232.48 1531.54 1235.34 1531.54 Q1243.08 1531.54 1246.9 1535.55 Q1250.72 1539.56 1250.72 1547.71 Z" fill="#000000" fill-rule="nonzero" fill-opacity="1" /><path clip-path="url(#clip840)" d="M1262.78 1518.52 L1268.64 1518.52 L1268.64 1568.04 L1262.78 1568.04 L1262.78 1518.52 Z" fill="#000000" fill-rule="nonzero" fill-opacity="1" /><path clip-path="url(#clip840)" d="M1276.91 1520.52 L1283.4 1520.52 L1293.4 1560.69 L1303.36 1520.52 L1310.59 1520.52 L1320.58 1560.69 L1330.54 1520.52 L1337.07 1520.52 L1325.13 1568.04 L1317.05 1568.04 L1307.02 1526.79 L1296.9 1568.04 L1288.82 1568.04 L1276.91 1520.52 Z" fill="#000000" fill-rule="nonzero" fill-opacity="1" /><path clip-path="url(#clip840)" d="M1343.91 1532.4 L1349.77 1532.4 L1349.77 1568.04 L1343.91 1568.04 L1343.91 1532.4 M1343.91 1518.52 L1349.77 1518.52 L1349.77 1525.93 L1343.91 1525.93 L1343.91 1518.52 Z" fill="#000000" fill-rule="nonzero" fill-opacity="1" /><path clip-path="url(#clip840)" d="M1385.48 1537.81 L1385.48 1518.52 L1391.34 1518.52 L1391.34 1568.04 L1385.48 1568.04 L1385.48 1562.7 Q1383.63 1565.88 1380.8 1567.44 Q1378 1568.97 1374.05 1568.97 Q1367.59 1568.97 1363.52 1563.81 Q1359.47 1558.65 1359.47 1550.25 Q1359.47 1541.85 1363.52 1536.69 Q1367.59 1531.54 1374.05 1531.54 Q1378 1531.54 1380.8 1533.1 Q1383.63 1534.62 1385.48 1537.81 M1365.52 1550.25 Q1365.52 1556.71 1368.16 1560.4 Q1370.84 1564.07 1375.48 1564.07 Q1380.13 1564.07 1382.81 1560.4 Q1385.48 1556.71 1385.48 1550.25 Q1385.48 1543.79 1382.81 1540.13 Q1380.13 1536.44 1375.48 1536.44 Q1370.84 1536.44 1368.16 1540.13 Q1365.52 1543.79 1365.52 1550.25 Z" fill="#000000" fill-rule="nonzero" fill-opacity="1" /><path clip-path="url(#clip840)" d="M1409.19 1522.27 L1409.19 1532.4 L1421.25 1532.4 L1421.25 1536.95 L1409.19 1536.95 L1409.19 1556.3 Q1409.19 1560.66 1410.37 1561.9 Q1411.58 1563.14 1415.24 1563.14 L1421.25 1563.14 L1421.25 1568.04 L1415.24 1568.04 Q1408.46 1568.04 1405.88 1565.53 Q1403.3 1562.98 1403.3 1556.3 L1403.3 1536.95 L1399.01 1536.95 L1399.01 1532.4 L1403.3 1532.4 L1403.3 1522.27 L1409.19 1522.27 Z" fill="#000000" fill-rule="nonzero" fill-opacity="1" /><path clip-path="url(#clip840)" d="M1458.59 1546.53 L1458.59 1568.04 L1452.73 1568.04 L1452.73 1546.72 Q1452.73 1541.66 1450.76 1539.14 Q1448.79 1536.63 1444.84 1536.63 Q1440.1 1536.63 1437.36 1539.65 Q1434.62 1542.68 1434.62 1547.9 L1434.62 1568.04 L1428.73 1568.04 L1428.73 1518.52 L1434.62 1518.52 L1434.62 1537.93 Q1436.72 1534.72 1439.56 1533.13 Q1442.42 1531.54 1446.14 1531.54 Q1452.29 1531.54 1455.44 1535.36 Q1458.59 1539.14 1458.59 1546.53 Z" fill="#000000" fill-rule="nonzero" fill-opacity="1" /><polyline clip-path="url(#clip842)" style="stroke:#000000; stroke-linecap:round; stroke-linejoin:round; stroke-width:2; stroke-opacity:0.1; fill:none" points="203.964,1423.18 2352.76,1423.18 "/>
<polyline clip-path="url(#clip842)" style="stroke:#000000; stroke-linecap:round; stroke-linejoin:round; stroke-width:2; stroke-opacity:0.1; fill:none" points="203.964,993.2 2352.76,993.2 "/>
<polyline clip-path="url(#clip842)" style="stroke:#000000; stroke-linecap:round; stroke-linejoin:round; stroke-width:2; stroke-opacity:0.1; fill:none" points="203.964,563.22 2352.76,563.22 "/>
<polyline clip-path="url(#clip842)" style="stroke:#000000; stroke-linecap:round; stroke-linejoin:round; stroke-width:2; stroke-opacity:0.1; fill:none" points="203.964,133.24 2352.76,133.24 "/>
<polyline clip-path="url(#clip840)" style="stroke:#000000; stroke-linecap:round; stroke-linejoin:round; stroke-width:4; stroke-opacity:1; fill:none" points="203.964,1423.18 203.964,47.2441 "/>
<polyline clip-path="url(#clip840)" style="stroke:#000000; stroke-linecap:round; stroke-linejoin:round; stroke-width:4; stroke-opacity:1; fill:none" points="203.964,1423.18 222.861,1423.18 "/>
<polyline clip-path="url(#clip840)" style="stroke:#000000; stroke-linecap:round; stroke-linejoin:round; stroke-width:4; stroke-opacity:1; fill:none" points="203.964,993.2 222.861,993.2 "/>
<polyline clip-path="url(#clip840)" style="stroke:#000000; stroke-linecap:round; stroke-linejoin:round; stroke-width:4; stroke-opacity:1; fill:none" points="203.964,563.22 222.861,563.22 "/>
<polyline clip-path="url(#clip840)" style="stroke:#000000; stroke-linecap:round; stroke-linejoin:round; stroke-width:4; stroke-opacity:1; fill:none" points="203.964,133.24 222.861,133.24 "/>
<path clip-path="url(#clip840)" d="M156.019 1408.98 Q152.408 1408.98 150.579 1412.54 Q148.774 1416.08 148.774 1423.21 Q148.774 1430.32 150.579 1433.89 Q152.408 1437.43 156.019 1437.43 Q159.653 1437.43 161.459 1433.89 Q163.288 1430.32 163.288 1423.21 Q163.288 1416.08 161.459 1412.54 Q159.653 1408.98 156.019 1408.98 M156.019 1405.27 Q161.829 1405.27 164.885 1409.88 Q167.964 1414.46 167.964 1423.21 Q167.964 1431.94 164.885 1436.55 Q161.829 1441.13 156.019 1441.13 Q150.209 1441.13 147.13 1436.55 Q144.075 1431.94 144.075 1423.21 Q144.075 1414.46 147.13 1409.88 Q150.209 1405.27 156.019 1405.27 Z" fill="#000000" fill-rule="nonzero" fill-opacity="1" /><path clip-path="url(#clip840)" d="M116.668 1006.54 L124.306 1006.54 L124.306 980.179 L115.996 981.846 L115.996 977.587 L124.26 975.92 L128.936 975.92 L128.936 1006.54 L136.575 1006.54 L136.575 1010.48 L116.668 1010.48 L116.668 1006.54 Z" fill="#000000" fill-rule="nonzero" fill-opacity="1" /><path clip-path="url(#clip840)" d="M156.019 978.999 Q152.408 978.999 150.579 982.563 Q148.774 986.105 148.774 993.235 Q148.774 1000.34 150.579 1003.91 Q152.408 1007.45 156.019 1007.45 Q159.653 1007.45 161.459 1003.91 Q163.288 1000.34 163.288 993.235 Q163.288 986.105 161.459 982.563 Q159.653 978.999 156.019 978.999 M156.019 975.295 Q161.829 975.295 164.885 979.901 Q167.964 984.485 167.964 993.235 Q167.964 1001.96 164.885 1006.57 Q161.829 1011.15 156.019 1011.15 Q150.209 1011.15 147.13 1006.57 Q144.075 1001.96 144.075 993.235 Q144.075 984.485 147.13 979.901 Q150.209 975.295 156.019 975.295 Z" fill="#000000" fill-rule="nonzero" fill-opacity="1" /><path clip-path="url(#clip840)" d="M119.885 576.565 L136.204 576.565 L136.204 580.5 L114.26 580.5 L114.26 576.565 Q116.922 573.81 121.505 569.181 Q126.112 564.528 127.292 563.185 Q129.538 560.662 130.417 558.926 Q131.32 557.167 131.32 555.477 Q131.32 552.722 129.376 550.986 Q127.455 549.25 124.353 549.25 Q122.154 549.25 119.7 550.014 Q117.269 550.778 114.492 552.329 L114.492 547.607 Q117.316 546.472 119.769 545.894 Q122.223 545.315 124.26 545.315 Q129.63 545.315 132.825 548 Q136.019 550.685 136.019 555.176 Q136.019 557.306 135.209 559.227 Q134.422 561.125 132.316 563.718 Q131.737 564.389 128.635 567.607 Q125.533 570.801 119.885 576.565 Z" fill="#000000" fill-rule="nonzero" fill-opacity="1" /><path clip-path="url(#clip840)" d="M156.019 549.019 Q152.408 549.019 150.579 552.583 Q148.774 556.125 148.774 563.255 Q148.774 570.361 150.579 573.926 Q152.408 577.468 156.019 577.468 Q159.653 577.468 161.459 573.926 Q163.288 570.361 163.288 563.255 Q163.288 556.125 161.459 552.583 Q159.653 549.019 156.019 549.019 M156.019 545.315 Q161.829 545.315 164.885 549.921 Q167.964 554.505 167.964 563.255 Q167.964 571.982 164.885 576.588 Q161.829 581.171 156.019 581.171 Q150.209 581.171 147.13 576.588 Q144.075 571.982 144.075 563.255 Q144.075 554.505 147.13 549.921 Q150.209 545.315 156.019 545.315 Z" fill="#000000" fill-rule="nonzero" fill-opacity="1" /><path clip-path="url(#clip840)" d="M130.024 131.886 Q133.38 132.604 135.255 134.872 Q137.154 137.141 137.154 140.474 Q137.154 145.59 133.635 148.39 Q130.117 151.191 123.635 151.191 Q121.459 151.191 119.144 150.752 Q116.853 150.335 114.399 149.478 L114.399 144.965 Q116.343 146.099 118.658 146.678 Q120.973 147.256 123.496 147.256 Q127.894 147.256 130.186 145.52 Q132.501 143.784 132.501 140.474 Q132.501 137.418 130.348 135.705 Q128.218 133.969 124.399 133.969 L120.371 133.969 L120.371 130.127 L124.584 130.127 Q128.033 130.127 129.862 128.761 Q131.691 127.372 131.691 124.779 Q131.691 122.117 129.792 120.705 Q127.917 119.27 124.399 119.27 Q122.478 119.27 120.279 119.687 Q118.08 120.104 115.441 120.983 L115.441 116.817 Q118.103 116.076 120.418 115.705 Q122.755 115.335 124.816 115.335 Q130.14 115.335 133.242 117.766 Q136.343 120.173 136.343 124.293 Q136.343 127.164 134.7 129.154 Q133.056 131.122 130.024 131.886 Z" fill="#000000" fill-rule="nonzero" fill-opacity="1" /><path clip-path="url(#clip840)" d="M156.019 119.039 Q152.408 119.039 150.579 122.604 Q148.774 126.145 148.774 133.275 Q148.774 140.381 150.579 143.946 Q152.408 147.488 156.019 147.488 Q159.653 147.488 161.459 143.946 Q163.288 140.381 163.288 133.275 Q163.288 126.145 161.459 122.604 Q159.653 119.039 156.019 119.039 M156.019 115.335 Q161.829 115.335 164.885 119.942 Q167.964 124.525 167.964 133.275 Q167.964 142.002 164.885 146.608 Q161.829 151.191 156.019 151.191 Q150.209 151.191 147.13 146.608 Q144.075 142.002 144.075 133.275 Q144.075 124.525 147.13 119.942 Q150.209 115.335 156.019 115.335 Z" fill="#000000" fill-rule="nonzero" fill-opacity="1" /><path clip-path="url(#clip840)" d="M16.4842 899.415 L16.4842 872.106 L21.895 872.106 L21.895 892.986 L35.8996 892.986 L35.8996 874.144 L41.3104 874.144 L41.3104 892.986 L64.0042 892.986 L64.0042 899.415 L16.4842 899.415 Z" fill="#000000" fill-rule="nonzero" fill-opacity="1" /><path clip-path="url(#clip840)" d="M33.8307 846.262 Q33.2578 847.248 33.0032 848.426 Q32.7167 849.572 32.7167 850.972 Q32.7167 855.938 35.9632 858.611 Q39.1779 861.253 45.2253 861.253 L64.0042 861.253 L64.0042 867.141 L28.3562 867.141 L28.3562 861.253 L33.8944 861.253 Q30.6479 859.407 29.0883 856.447 Q27.4968 853.487 27.4968 849.254 Q27.4968 848.649 27.5923 847.917 Q27.656 847.185 27.8151 846.294 L33.8307 846.262 Z" fill="#000000" fill-rule="nonzero" fill-opacity="1" /><path clip-path="url(#clip840)" d="M44.7161 811.059 L47.5806 811.059 L47.5806 837.986 Q53.6281 837.604 56.8109 834.358 Q59.9619 831.08 59.9619 825.255 Q59.9619 821.881 59.1344 818.73 Q58.3069 815.547 56.6518 812.428 L62.1899 812.428 Q63.5267 815.579 64.227 818.889 Q64.9272 822.199 64.9272 825.605 Q64.9272 834.135 59.9619 839.132 Q54.9967 844.097 46.5303 844.097 Q37.7774 844.097 32.6531 839.387 Q27.4968 834.644 27.4968 826.624 Q27.4968 819.43 32.1438 815.261 Q36.7589 811.059 44.7161 811.059 M42.9973 816.916 Q38.1912 816.979 35.3266 819.621 Q32.4621 822.231 32.4621 826.56 Q32.4621 831.461 35.2312 834.422 Q38.0002 837.35 43.0292 837.795 L42.9973 816.916 Z" fill="#000000" fill-rule="nonzero" fill-opacity="1" /><path clip-path="url(#clip840)" d="M46.212 797.946 Q52.6732 797.946 56.3653 795.304 Q60.0256 792.631 60.0256 787.984 Q60.0256 783.337 56.3653 780.663 Q52.6732 777.99 46.212 777.99 Q39.7508 777.99 36.0905 780.663 Q32.3984 783.337 32.3984 787.984 Q32.3984 792.631 36.0905 795.304 Q39.7508 797.946 46.212 797.946 M58.657 777.99 Q61.8398 779.836 63.3994 782.668 Q64.9272 785.469 64.9272 789.416 Q64.9272 795.877 59.771 799.951 Q54.6147 803.993 46.212 803.993 Q37.8093 803.993 32.6531 799.951 Q27.4968 795.877 27.4968 789.416 Q27.4968 785.469 29.0564 782.668 Q30.5842 779.836 33.7671 777.99 L28.3562 777.99 L28.3562 772.133 L77.5631 772.133 L77.5631 777.99 L58.657 777.99 Z" fill="#000000" fill-rule="nonzero" fill-opacity="1" /><path clip-path="url(#clip840)" d="M49.9359 760.675 L28.3562 760.675 L28.3562 754.818 L49.7131 754.818 Q54.7739 754.818 57.3202 752.845 Q59.8346 750.872 59.8346 746.925 Q59.8346 742.182 56.8109 739.445 Q53.7872 736.676 48.5673 736.676 L28.3562 736.676 L28.3562 730.82 L64.0042 730.82 L64.0042 736.676 L58.5296 736.676 Q61.7762 738.809 63.3676 741.641 Q64.9272 744.442 64.9272 748.166 Q64.9272 754.309 61.1078 757.492 Q57.2883 760.675 49.9359 760.675 M27.4968 745.938 L27.4968 745.938 Z" fill="#000000" fill-rule="nonzero" fill-opacity="1" /><path clip-path="url(#clip840)" d="M44.7161 688.265 L47.5806 688.265 L47.5806 715.192 Q53.6281 714.81 56.8109 711.563 Q59.9619 708.285 59.9619 702.46 Q59.9619 699.087 59.1344 695.936 Q58.3069 692.753 56.6518 689.634 L62.1899 689.634 Q63.5267 692.785 64.227 696.095 Q64.9272 699.405 64.9272 702.811 Q64.9272 711.341 59.9619 716.338 Q54.9967 721.303 46.5303 721.303 Q37.7774 721.303 32.6531 716.592 Q27.4968 711.85 27.4968 703.829 Q27.4968 696.636 32.1438 692.466 Q36.7589 688.265 44.7161 688.265 M42.9973 694.121 Q38.1912 694.185 35.3266 696.827 Q32.4621 699.437 32.4621 703.765 Q32.4621 708.667 35.2312 711.627 Q38.0002 714.555 43.0292 715.001 L42.9973 694.121 Z" fill="#000000" fill-rule="nonzero" fill-opacity="1" /><path clip-path="url(#clip840)" d="M42.4881 649.02 L64.0042 649.02 L64.0042 654.877 L42.679 654.877 Q37.6183 654.877 35.1038 656.85 Q32.5894 658.823 32.5894 662.77 Q32.5894 667.513 35.6131 670.25 Q38.6368 672.987 43.8567 672.987 L64.0042 672.987 L64.0042 678.875 L28.3562 678.875 L28.3562 672.987 L33.8944 672.987 Q30.6797 670.887 29.0883 668.054 Q27.4968 665.189 27.4968 661.465 Q27.4968 655.322 31.3163 652.171 Q35.1038 649.02 42.4881 649.02 Z" fill="#000000" fill-rule="nonzero" fill-opacity="1" /><path clip-path="url(#clip840)" d="M29.7248 611.685 L35.1993 611.685 Q33.8307 614.168 33.1623 616.683 Q32.4621 619.165 32.4621 621.711 Q32.4621 627.409 36.0905 630.56 Q39.6872 633.711 46.212 633.711 Q52.7369 633.711 56.3653 630.56 Q59.9619 627.409 59.9619 621.711 Q59.9619 619.165 59.2935 616.683 Q58.5933 614.168 57.2247 611.685 L62.6355 611.685 Q63.7814 614.136 64.3543 616.778 Q64.9272 619.388 64.9272 622.348 Q64.9272 630.401 59.8664 635.143 Q54.8057 639.886 46.212 639.886 Q37.491 639.886 32.4939 635.111 Q27.4968 630.305 27.4968 621.966 Q27.4968 619.261 28.0697 616.683 Q28.6108 614.104 29.7248 611.685 Z" fill="#000000" fill-rule="nonzero" fill-opacity="1" /><path clip-path="url(#clip840)" d="M67.3143 586.668 Q73.68 589.151 75.6216 591.506 Q77.5631 593.861 77.5631 597.808 L77.5631 602.487 L72.6615 602.487 L72.6615 599.05 Q72.6615 596.631 71.5157 595.294 Q70.3699 593.957 66.1048 592.334 L63.4312 591.283 L28.3562 605.702 L28.3562 599.495 L56.238 588.355 L28.3562 577.215 L28.3562 571.009 L67.3143 586.668 Z" fill="#000000" fill-rule="nonzero" fill-opacity="1" /><path clip-path="url(#clip842)" d="M322.151 1251.19 L322.151 1423.18 L561.203 1423.18 L561.203 1251.19 L322.151 1251.19 L322.151 1251.19  Z" fill="#009af9" fill-rule="evenodd" fill-opacity="1"/>
<polyline clip-path="url(#clip842)" style="stroke:#000000; stroke-linecap:round; stroke-linejoin:round; stroke-width:4; stroke-opacity:1; fill:none" points="322.151,1251.19 322.151,1423.18 561.203,1423.18 561.203,1251.19 322.151,1251.19 "/>
<path clip-path="url(#clip842)" d="M561.203 649.216 L561.203 1423.18 L800.255 1423.18 L800.255 649.216 L561.203 649.216 L561.203 649.216  Z" fill="#009af9" fill-rule="evenodd" fill-opacity="1"/>
<polyline clip-path="url(#clip842)" style="stroke:#000000; stroke-linecap:round; stroke-linejoin:round; stroke-width:4; stroke-opacity:1; fill:none" points="561.203,649.216 561.203,1423.18 800.255,1423.18 800.255,649.216 561.203,649.216 "/>
<path clip-path="url(#clip842)" d="M800.255 133.24 L800.255 1423.18 L1039.31 1423.18 L1039.31 133.24 L800.255 133.24 L800.255 133.24  Z" fill="#009af9" fill-rule="evenodd" fill-opacity="1"/>
<polyline clip-path="url(#clip842)" style="stroke:#000000; stroke-linecap:round; stroke-linejoin:round; stroke-width:4; stroke-opacity:1; fill:none" points="800.255,133.24 800.255,1423.18 1039.31,1423.18 1039.31,133.24 800.255,133.24 "/>
<path clip-path="url(#clip842)" d="M1039.31 90.2421 L1039.31 1423.18 L1278.36 1423.18 L1278.36 90.2421 L1039.31 90.2421 L1039.31 90.2421  Z" fill="#009af9" fill-rule="evenodd" fill-opacity="1"/>
<polyline clip-path="url(#clip842)" style="stroke:#000000; stroke-linecap:round; stroke-linejoin:round; stroke-width:4; stroke-opacity:1; fill:none" points="1039.31,90.2421 1039.31,1423.18 1278.36,1423.18 1278.36,90.2421 1039.31,90.2421 "/>
<path clip-path="url(#clip842)" d="M1278.36 47.2441 L1278.36 1423.18 L1517.41 1423.18 L1517.41 47.2441 L1278.36 47.2441 L1278.36 47.2441  Z" fill="#009af9" fill-rule="evenodd" fill-opacity="1"/>
<polyline clip-path="url(#clip842)" style="stroke:#000000; stroke-linecap:round; stroke-linejoin:round; stroke-width:4; stroke-opacity:1; fill:none" points="1278.36,47.2441 1278.36,1423.18 1517.41,1423.18 1517.41,47.2441 1278.36,47.2441 "/>
<path clip-path="url(#clip842)" d="M1517.41 477.224 L1517.41 1423.18 L1756.46 1423.18 L1756.46 477.224 L1517.41 477.224 L1517.41 477.224  Z" fill="#009af9" fill-rule="evenodd" fill-opacity="1"/>
<polyline clip-path="url(#clip842)" style="stroke:#000000; stroke-linecap:round; stroke-linejoin:round; stroke-width:4; stroke-opacity:1; fill:none" points="1517.41,477.224 1517.41,1423.18 1756.46,1423.18 1756.46,477.224 1517.41,477.224 "/>
<path clip-path="url(#clip842)" d="M1756.46 1122.19 L1756.46 1423.18 L1995.52 1423.18 L1995.52 1122.19 L1756.46 1122.19 L1756.46 1122.19  Z" fill="#009af9" fill-rule="evenodd" fill-opacity="1"/>
<polyline clip-path="url(#clip842)" style="stroke:#000000; stroke-linecap:round; stroke-linejoin:round; stroke-width:4; stroke-opacity:1; fill:none" points="1756.46,1122.19 1756.46,1423.18 1995.52,1423.18 1995.52,1122.19 1756.46,1122.19 "/>
<path clip-path="url(#clip842)" d="M1995.52 1165.19 L1995.52 1423.18 L2234.57 1423.18 L2234.57 1165.19 L1995.52 1165.19 L1995.52 1165.19  Z" fill="#009af9" fill-rule="evenodd" fill-opacity="1"/>
<polyline clip-path="url(#clip842)" style="stroke:#000000; stroke-linecap:round; stroke-linejoin:round; stroke-width:4; stroke-opacity:1; fill:none" points="1995.52,1165.19 1995.52,1423.18 2234.57,1423.18 2234.57,1165.19 1995.52,1165.19 "/>
<circle clip-path="url(#clip842)" style="fill:#009af9; stroke:none; fill-opacity:0" cx="441.677" cy="1251.19" r="2"/>
<circle clip-path="url(#clip842)" style="fill:#009af9; stroke:none; fill-opacity:0" cx="680.729" cy="649.216" r="2"/>
<circle clip-path="url(#clip842)" style="fill:#009af9; stroke:none; fill-opacity:0" cx="919.781" cy="133.24" r="2"/>
<circle clip-path="url(#clip842)" style="fill:#009af9; stroke:none; fill-opacity:0" cx="1158.83" cy="90.2421" r="2"/>
<circle clip-path="url(#clip842)" style="fill:#009af9; stroke:none; fill-opacity:0" cx="1397.89" cy="47.2441" r="2"/>
<circle clip-path="url(#clip842)" style="fill:#009af9; stroke:none; fill-opacity:0" cx="1636.94" cy="477.224" r="2"/>
<circle clip-path="url(#clip842)" style="fill:#009af9; stroke:none; fill-opacity:0" cx="1875.99" cy="1122.19" r="2"/>
<circle clip-path="url(#clip842)" style="fill:#009af9; stroke:none; fill-opacity:0" cx="2115.04" cy="1165.19" r="2"/>
</svg>
