<?xml version="1.0" encoding="utf-8"?>
<svg xmlns="http://www.w3.org/2000/svg" xmlns:xlink="http://www.w3.org/1999/xlink" width="600" height="400" viewBox="0 0 2400 1600">
<defs>
  <clipPath id="clip060">
    <rect x="0" y="0" width="2400" height="1600"/>
  </clipPath>
</defs>
<path clip-path="url(#clip060)" d="M0 1600 L2400 1600 L2400 0 L0 0  Z" fill="#ffffff" fill-rule="evenodd" fill-opacity="1"/>
<defs>
  <clipPath id="clip061">
    <rect x="480" y="0" width="1681" height="1600"/>
  </clipPath>
</defs>
<path clip-path="url(#clip060)" d="M138.959 1486.45 L2352.76 1486.45 L2352.76 47.2441 L138.959 47.2441  Z" fill="#ffffff" fill-rule="evenodd" fill-opacity="1"/>
<defs>
  <clipPath id="clip062">
    <rect x="138" y="47" width="2215" height="1440"/>
  </clipPath>
</defs>
<polyline clip-path="url(#clip062)" style="stroke:#000000; stroke-linecap:round; stroke-linejoin:round; stroke-width:2; stroke-opacity:0.1; fill:none" points="178.409,1486.45 178.409,47.2441 "/>
<polyline clip-path="url(#clip062)" style="stroke:#000000; stroke-linecap:round; stroke-linejoin:round; stroke-width:2; stroke-opacity:0.1; fill:none" points="642.517,1486.45 642.517,47.2441 "/>
<polyline clip-path="url(#clip062)" style="stroke:#000000; stroke-linecap:round; stroke-linejoin:round; stroke-width:2; stroke-opacity:0.1; fill:none" points="1106.63,1486.45 1106.63,47.2441 "/>
<polyline clip-path="url(#clip062)" style="stroke:#000000; stroke-linecap:round; stroke-linejoin:round; stroke-width:2; stroke-opacity:0.1; fill:none" points="1570.73,1486.45 1570.73,47.2441 "/>
<polyline clip-path="url(#clip062)" style="stroke:#000000; stroke-linecap:round; stroke-linejoin:round; stroke-width:2; stroke-opacity:0.1; fill:none" points="2034.84,1486.45 2034.84,47.2441 "/>
<polyline clip-path="url(#clip062)" style="stroke:#000000; stroke-linecap:round; stroke-linejoin:round; stroke-width:2; stroke-opacity:0.1; fill:none" points="138.959,1294.86 2352.76,1294.86 "/>
<polyline clip-path="url(#clip062)" style="stroke:#000000; stroke-linecap:round; stroke-linejoin:round; stroke-width:2; stroke-opacity:0.1; fill:none" points="138.959,993.136 2352.76,993.136 "/>
<polyline clip-path="url(#clip062)" style="stroke:#000000; stroke-linecap:round; stroke-linejoin:round; stroke-width:2; stroke-opacity:0.1; fill:none" points="138.959,691.416 2352.76,691.416 "/>
<polyline clip-path="url(#clip062)" style="stroke:#000000; stroke-linecap:round; stroke-linejoin:round; stroke-width:2; stroke-opacity:0.1; fill:none" points="138.959,389.696 2352.76,389.696 "/>
<polyline clip-path="url(#clip062)" style="stroke:#000000; stroke-linecap:round; stroke-linejoin:round; stroke-width:2; stroke-opacity:0.1; fill:none" points="138.959,87.9763 2352.76,87.9763 "/>
<polyline clip-path="url(#clip060)" style="stroke:#000000; stroke-linecap:round; stroke-linejoin:round; stroke-width:4; stroke-opacity:1; fill:none" points="138.959,1486.45 2352.76,1486.45 "/>
<polyline clip-path="url(#clip060)" style="stroke:#000000; stroke-linecap:round; stroke-linejoin:round; stroke-width:4; stroke-opacity:1; fill:none" points="178.409,1486.45 178.409,1467.55 "/>
<polyline clip-path="url(#clip060)" style="stroke:#000000; stroke-linecap:round; stroke-linejoin:round; stroke-width:4; stroke-opacity:1; fill:none" points="642.517,1486.45 642.517,1467.55 "/>
<polyline clip-path="url(#clip060)" style="stroke:#000000; stroke-linecap:round; stroke-linejoin:round; stroke-width:4; stroke-opacity:1; fill:none" points="1106.63,1486.45 1106.63,1467.55 "/>
<polyline clip-path="url(#clip060)" style="stroke:#000000; stroke-linecap:round; stroke-linejoin:round; stroke-width:4; stroke-opacity:1; fill:none" points="1570.73,1486.45 1570.73,1467.55 "/>
<polyline clip-path="url(#clip060)" style="stroke:#000000; stroke-linecap:round; stroke-linejoin:round; stroke-width:4; stroke-opacity:1; fill:none" points="2034.84,1486.45 2034.84,1467.55 "/>
<path clip-path="url(#clip060)" d="M178.409 1517.37 Q174.798 1517.37 172.969 1520.93 Q171.163 1524.47 171.163 1531.6 Q171.163 1538.71 172.969 1542.27 Q174.798 1545.82 178.409 1545.82 Q182.043 1545.82 183.848 1542.27 Q185.677 1538.71 185.677 1531.6 Q185.677 1524.47 183.848 1520.93 Q182.043 1517.37 178.409 1517.37 M178.409 1513.66 Q184.219 1513.66 187.274 1518.27 Q190.353 1522.85 190.353 1531.6 Q190.353 1540.33 187.274 1544.94 Q184.219 1549.52 178.409 1549.52 Q172.598 1549.52 169.52 1544.94 Q166.464 1540.33 166.464 1531.6 Q166.464 1522.85 169.52 1518.27 Q172.598 1513.66 178.409 1513.66 Z" fill="#000000" fill-rule="nonzero" fill-opacity="1" /><path clip-path="url(#clip060)" d="M621.29 1544.91 L637.61 1544.91 L637.61 1548.85 L615.665 1548.85 L615.665 1544.91 Q618.327 1542.16 622.911 1537.53 Q627.517 1532.88 628.698 1531.53 Q630.943 1529.01 631.823 1527.27 Q632.725 1525.51 632.725 1523.82 Q632.725 1521.07 630.781 1519.33 Q628.86 1517.6 625.758 1517.6 Q623.559 1517.6 621.105 1518.36 Q618.674 1519.13 615.897 1520.68 L615.897 1515.95 Q618.721 1514.82 621.174 1514.24 Q623.628 1513.66 625.665 1513.66 Q631.035 1513.66 634.23 1516.35 Q637.424 1519.03 637.424 1523.52 Q637.424 1525.65 636.614 1527.57 Q635.827 1529.47 633.721 1532.07 Q633.142 1532.74 630.04 1535.95 Q626.938 1539.15 621.29 1544.91 Z" fill="#000000" fill-rule="nonzero" fill-opacity="1" /><path clip-path="url(#clip060)" d="M657.424 1517.37 Q653.813 1517.37 651.984 1520.93 Q650.179 1524.47 650.179 1531.6 Q650.179 1538.71 651.984 1542.27 Q653.813 1545.82 657.424 1545.82 Q661.058 1545.82 662.864 1542.27 Q664.693 1538.71 664.693 1531.6 Q664.693 1524.47 662.864 1520.93 Q661.058 1517.37 657.424 1517.37 M657.424 1513.66 Q663.234 1513.66 666.29 1518.27 Q669.369 1522.85 669.369 1531.6 Q669.369 1540.33 666.29 1544.94 Q663.234 1549.52 657.424 1549.52 Q651.614 1549.52 648.535 1544.94 Q645.48 1540.33 645.48 1531.6 Q645.48 1522.85 648.535 1518.27 Q651.614 1513.66 657.424 1513.66 Z" fill="#000000" fill-rule="nonzero" fill-opacity="1" /><path clip-path="url(#clip060)" d="M1094.8 1518.36 L1082.99 1536.81 L1094.8 1536.81 L1094.8 1518.36 M1093.57 1514.29 L1099.45 1514.29 L1099.45 1536.81 L1104.38 1536.81 L1104.38 1540.7 L1099.45 1540.7 L1099.45 1548.85 L1094.8 1548.85 L1094.8 1540.7 L1079.19 1540.7 L1079.19 1536.19 L1093.57 1514.29 Z" fill="#000000" fill-rule="nonzero" fill-opacity="1" /><path clip-path="url(#clip060)" d="M1122.11 1517.37 Q1118.5 1517.37 1116.67 1520.93 Q1114.87 1524.47 1114.87 1531.6 Q1114.87 1538.71 1116.67 1542.27 Q1118.5 1545.82 1122.11 1545.82 Q1125.75 1545.82 1127.55 1542.27 Q1129.38 1538.71 1129.38 1531.6 Q1129.38 1524.47 1127.55 1520.93 Q1125.75 1517.37 1122.11 1517.37 M1122.11 1513.66 Q1127.92 1513.66 1130.98 1518.27 Q1134.06 1522.85 1134.06 1531.6 Q1134.06 1540.33 1130.98 1544.94 Q1127.92 1549.52 1122.11 1549.52 Q1116.3 1549.52 1113.22 1544.94 Q1110.17 1540.33 1110.17 1531.6 Q1110.17 1522.85 1113.22 1518.27 Q1116.3 1513.66 1122.11 1513.66 Z" fill="#000000" fill-rule="nonzero" fill-opacity="1" /><path clip-path="url(#clip060)" d="M1556.14 1529.7 Q1552.99 1529.7 1551.14 1531.86 Q1549.31 1534.01 1549.31 1537.76 Q1549.31 1541.49 1551.14 1543.66 Q1552.99 1545.82 1556.14 1545.82 Q1559.29 1545.82 1561.12 1543.66 Q1562.97 1541.49 1562.97 1537.76 Q1562.97 1534.01 1561.12 1531.86 Q1559.29 1529.7 1556.14 1529.7 M1565.42 1515.05 L1565.42 1519.31 Q1563.66 1518.48 1561.86 1518.04 Q1560.07 1517.6 1558.31 1517.6 Q1553.68 1517.6 1551.23 1520.72 Q1548.8 1523.85 1548.45 1530.17 Q1549.82 1528.15 1551.88 1527.09 Q1553.94 1526 1556.42 1526 Q1561.62 1526 1564.63 1529.17 Q1567.67 1532.32 1567.67 1537.76 Q1567.67 1543.08 1564.52 1546.3 Q1561.37 1549.52 1556.14 1549.52 Q1550.14 1549.52 1546.97 1544.94 Q1543.8 1540.33 1543.8 1531.6 Q1543.8 1523.41 1547.69 1518.55 Q1551.58 1513.66 1558.13 1513.66 Q1559.89 1513.66 1561.67 1514.01 Q1563.48 1514.36 1565.42 1515.05 Z" fill="#000000" fill-rule="nonzero" fill-opacity="1" /><path clip-path="url(#clip060)" d="M1585.72 1517.37 Q1582.11 1517.37 1580.28 1520.93 Q1578.48 1524.47 1578.48 1531.6 Q1578.48 1538.71 1580.28 1542.27 Q1582.11 1545.82 1585.72 1545.82 Q1589.36 1545.82 1591.16 1542.27 Q1592.99 1538.71 1592.99 1531.6 Q1592.99 1524.47 1591.16 1520.93 Q1589.36 1517.37 1585.72 1517.37 M1585.72 1513.66 Q1591.53 1513.66 1594.59 1518.27 Q1597.67 1522.85 1597.67 1531.6 Q1597.67 1540.33 1594.59 1544.94 Q1591.53 1549.52 1585.72 1549.52 Q1579.91 1549.52 1576.83 1544.94 Q1573.78 1540.33 1573.78 1531.6 Q1573.78 1522.85 1576.83 1518.27 Q1579.91 1513.66 1585.72 1513.66 Z" fill="#000000" fill-rule="nonzero" fill-opacity="1" /><path clip-path="url(#clip060)" d="M2019.71 1532.44 Q2016.38 1532.44 2014.46 1534.22 Q2012.56 1536 2012.56 1539.13 Q2012.56 1542.25 2014.46 1544.03 Q2016.38 1545.82 2019.71 1545.82 Q2023.05 1545.82 2024.97 1544.03 Q2026.89 1542.23 2026.89 1539.13 Q2026.89 1536 2024.97 1534.22 Q2023.07 1532.44 2019.71 1532.44 M2015.04 1530.45 Q2012.03 1529.7 2010.34 1527.64 Q2008.67 1525.58 2008.67 1522.62 Q2008.67 1518.48 2011.61 1516.07 Q2014.58 1513.66 2019.71 1513.66 Q2024.88 1513.66 2027.82 1516.07 Q2030.76 1518.48 2030.76 1522.62 Q2030.76 1525.58 2029.07 1527.64 Q2027.4 1529.7 2024.41 1530.45 Q2027.79 1531.23 2029.67 1533.52 Q2031.57 1535.82 2031.57 1539.13 Q2031.57 1544.15 2028.49 1546.83 Q2025.43 1549.52 2019.71 1549.52 Q2014 1549.52 2010.92 1546.83 Q2007.86 1544.15 2007.86 1539.13 Q2007.86 1535.82 2009.76 1533.52 Q2011.66 1531.23 2015.04 1530.45 M2013.33 1523.06 Q2013.33 1525.75 2014.99 1527.25 Q2016.68 1528.76 2019.71 1528.76 Q2022.72 1528.76 2024.41 1527.25 Q2026.13 1525.75 2026.13 1523.06 Q2026.13 1520.38 2024.41 1518.87 Q2022.72 1517.37 2019.71 1517.37 Q2016.68 1517.37 2014.99 1518.87 Q2013.33 1520.38 2013.33 1523.06 Z" fill="#000000" fill-rule="nonzero" fill-opacity="1" /><path clip-path="url(#clip060)" d="M2049.88 1517.37 Q2046.27 1517.37 2044.44 1520.93 Q2042.63 1524.47 2042.63 1531.6 Q2042.63 1538.71 2044.44 1542.27 Q2046.27 1545.82 2049.88 1545.82 Q2053.51 1545.82 2055.32 1542.27 Q2057.14 1538.71 2057.14 1531.6 Q2057.14 1524.47 2055.32 1520.93 Q2053.51 1517.37 2049.88 1517.37 M2049.88 1513.66 Q2055.69 1513.66 2058.74 1518.27 Q2061.82 1522.85 2061.82 1531.6 Q2061.82 1540.33 2058.74 1544.94 Q2055.69 1549.52 2049.88 1549.52 Q2044.07 1549.52 2040.99 1544.94 Q2037.93 1540.33 2037.93 1531.6 Q2037.93 1522.85 2040.99 1518.27 Q2044.07 1513.66 2049.88 1513.66 Z" fill="#000000" fill-rule="nonzero" fill-opacity="1" /><polyline clip-path="url(#clip060)" style="stroke:#000000; stroke-linecap:round; stroke-linejoin:round; stroke-width:4; stroke-opacity:1; fill:none" points="138.959,1486.45 138.959,47.2441 "/>
<polyline clip-path="url(#clip060)" style="stroke:#000000; stroke-linecap:round; stroke-linejoin:round; stroke-width:4; stroke-opacity:1; fill:none" points="138.959,1294.86 157.857,1294.86 "/>
<polyline clip-path="url(#clip060)" style="stroke:#000000; stroke-linecap:round; stroke-linejoin:round; stroke-width:4; stroke-opacity:1; fill:none" points="138.959,993.136 157.857,993.136 "/>
<polyline clip-path="url(#clip060)" style="stroke:#000000; stroke-linecap:round; stroke-linejoin:round; stroke-width:4; stroke-opacity:1; fill:none" points="138.959,691.416 157.857,691.416 "/>
<polyline clip-path="url(#clip060)" style="stroke:#000000; stroke-linecap:round; stroke-linejoin:round; stroke-width:4; stroke-opacity:1; fill:none" points="138.959,389.696 157.857,389.696 "/>
<polyline clip-path="url(#clip060)" style="stroke:#000000; stroke-linecap:round; stroke-linejoin:round; stroke-width:4; stroke-opacity:1; fill:none" points="138.959,87.9763 157.857,87.9763 "/>
<path clip-path="url(#clip060)" d="M86.6401 1308.2 L102.959 1308.2 L102.959 1312.14 L81.0151 1312.14 L81.0151 1308.2 Q83.6771 1305.45 88.2604 1300.82 Q92.8669 1296.16 94.0475 1294.82 Q96.2928 1292.3 97.1724 1290.56 Q98.0752 1288.8 98.0752 1287.11 Q98.0752 1284.36 96.1308 1282.62 Q94.2095 1280.89 91.1077 1280.89 Q88.9086 1280.89 86.4549 1281.65 Q84.0244 1282.41 81.2466 1283.96 L81.2466 1279.24 Q84.0707 1278.11 86.5243 1277.53 Q88.978 1276.95 91.0151 1276.95 Q96.3854 1276.95 99.5798 1279.64 Q102.774 1282.32 102.774 1286.81 Q102.774 1288.94 101.964 1290.86 Q101.177 1292.76 99.0706 1295.35 Q98.4919 1296.02 95.39 1299.24 Q92.2882 1302.44 86.6401 1308.2 Z" fill="#000000" fill-rule="nonzero" fill-opacity="1" /><path clip-path="url(#clip060)" d="M93.3762 979.93 L81.5707 998.379 L93.3762 998.379 L93.3762 979.93 M92.1493 975.856 L98.0289 975.856 L98.0289 998.379 L102.959 998.379 L102.959 1002.27 L98.0289 1002.27 L98.0289 1010.42 L93.3762 1010.42 L93.3762 1002.27 L77.7744 1002.27 L77.7744 997.754 L92.1493 975.856 Z" fill="#000000" fill-rule="nonzero" fill-opacity="1" /><path clip-path="url(#clip060)" d="M91.4317 689.553 Q88.2836 689.553 86.4318 691.705 Q84.6031 693.858 84.6031 697.608 Q84.6031 701.335 86.4318 703.511 Q88.2836 705.664 91.4317 705.664 Q94.5799 705.664 96.4085 703.511 Q98.2604 701.335 98.2604 697.608 Q98.2604 693.858 96.4085 691.705 Q94.5799 689.553 91.4317 689.553 M100.714 674.9 L100.714 679.159 Q98.9548 678.326 97.1493 677.886 Q95.3669 677.446 93.6076 677.446 Q88.978 677.446 86.5243 680.571 Q84.0938 683.696 83.7466 690.016 Q85.1123 688.002 87.1725 686.937 Q89.2327 685.849 91.7095 685.849 Q96.9178 685.849 99.927 689.02 Q102.959 692.168 102.959 697.608 Q102.959 702.932 99.8113 706.15 Q96.6632 709.367 91.4317 709.367 Q85.4364 709.367 82.2651 704.784 Q79.0938 700.178 79.0938 691.451 Q79.0938 683.256 82.9827 678.395 Q86.8716 673.511 93.4225 673.511 Q95.1817 673.511 96.9641 673.858 Q98.7696 674.205 100.714 674.9 Z" fill="#000000" fill-rule="nonzero" fill-opacity="1" /><path clip-path="url(#clip060)" d="M91.1077 390.564 Q87.7743 390.564 85.8531 392.347 Q83.9549 394.129 83.9549 397.254 Q83.9549 400.379 85.8531 402.161 Q87.7743 403.944 91.1077 403.944 Q94.441 403.944 96.3623 402.161 Q98.2835 400.356 98.2835 397.254 Q98.2835 394.129 96.3623 392.347 Q94.4641 390.564 91.1077 390.564 M86.4318 388.573 Q83.4225 387.833 81.7327 385.773 Q80.066 383.712 80.066 380.749 Q80.066 376.606 83.0058 374.199 Q85.9688 371.791 91.1077 371.791 Q96.2697 371.791 99.2095 374.199 Q102.149 376.606 102.149 380.749 Q102.149 383.712 100.459 385.773 Q98.7928 387.833 95.8067 388.573 Q99.1863 389.361 101.061 391.652 Q102.959 393.944 102.959 397.254 Q102.959 402.277 99.8808 404.962 Q96.8252 407.647 91.1077 407.647 Q85.3901 407.647 82.3114 404.962 Q79.2559 402.277 79.2559 397.254 Q79.2559 393.944 81.154 391.652 Q83.0521 389.361 86.4318 388.573 M84.7188 381.189 Q84.7188 383.874 86.3855 385.379 Q88.0753 386.884 91.1077 386.884 Q94.1169 386.884 95.8067 385.379 Q97.5197 383.874 97.5197 381.189 Q97.5197 378.504 95.8067 376.999 Q94.1169 375.495 91.1077 375.495 Q88.0753 375.495 86.3855 376.999 Q84.7188 378.504 84.7188 381.189 Z" fill="#000000" fill-rule="nonzero" fill-opacity="1" /><path clip-path="url(#clip060)" d="M51.6634 101.321 L59.3023 101.321 L59.3023 74.9555 L50.9921 76.6222 L50.9921 72.3629 L59.256 70.6963 L63.9319 70.6963 L63.9319 101.321 L71.5707 101.321 L71.5707 105.256 L51.6634 105.256 L51.6634 101.321 Z" fill="#000000" fill-rule="nonzero" fill-opacity="1" /><path clip-path="url(#clip060)" d="M91.0151 73.775 Q87.404 73.775 85.5753 77.3398 Q83.7697 80.8814 83.7697 88.011 Q83.7697 95.1174 85.5753 98.6822 Q87.404 102.224 91.0151 102.224 Q94.6493 102.224 96.4548 98.6822 Q98.2835 95.1174 98.2835 88.011 Q98.2835 80.8814 96.4548 77.3398 Q94.6493 73.775 91.0151 73.775 M91.0151 70.0713 Q96.8252 70.0713 99.8808 74.6777 Q102.959 79.261 102.959 88.011 Q102.959 96.7378 99.8808 101.344 Q96.8252 105.928 91.0151 105.928 Q85.2049 105.928 82.1262 101.344 Q79.0707 96.7378 79.0707 88.011 Q79.0707 79.261 82.1262 74.6777 Q85.2049 70.0713 91.0151 70.0713 Z" fill="#000000" fill-rule="nonzero" fill-opacity="1" /><polyline clip-path="url(#clip062)" style="stroke:#009af9; stroke-linecap:round; stroke-linejoin:round; stroke-width:4; stroke-opacity:1; fill:none" points="201.614,1445.72 224.819,1430.63 248.025,1415.54 271.23,1400.46 294.436,1385.37 317.641,1370.29 340.847,1355.2 364.052,1340.11 387.257,1325.03 410.463,1309.94 433.668,1294.86 456.874,1279.77 480.079,1264.68 503.284,1249.6 526.49,1234.51 549.695,1219.43 572.901,1204.34 596.106,1189.25 619.312,1174.17 642.517,1159.08 665.722,1144 688.928,1128.91 712.133,1113.82 735.339,1098.74 758.544,1083.65 781.749,1068.57 804.955,1053.48 828.16,1038.39 851.366,1023.31 874.571,1008.22 897.776,993.136 920.982,978.05 944.187,962.964 967.393,947.878 990.598,932.792 1013.8,917.706 1037.01,902.62 1060.21,887.534 1083.42,872.448 1106.63,857.362 1129.83,842.276 1153.04,827.19 1176.24,812.104 1199.45,797.018 1222.65,781.932 1245.86,766.846 1269.06,751.76 1292.27,736.674 1315.47,721.588 1338.68,706.502 1361.88,691.416 1385.09,676.33 1408.3,661.244 1431.5,646.158 1454.71,631.072 1477.91,615.986 1501.12,600.9 1524.32,585.814 1547.53,570.728 1570.73,555.642 1593.94,540.556 1617.14,525.47 1640.35,510.384 1663.56,495.298 1686.76,480.212 1709.97,465.126 1733.17,450.04 1756.38,434.954 1779.58,419.868 1802.79,404.782 1825.99,389.696 1849.2,374.61 1872.4,359.524 1895.61,344.438 1918.81,329.352 1942.02,314.266 1965.23,299.18 1988.43,284.094 2011.64,269.008 2034.84,253.922 2058.05,238.836 2081.25,223.75 2104.46,208.664 2127.66,193.578 2150.87,178.492 2174.07,163.406 2197.28,148.32 2220.49,133.234 2243.69,118.148 2266.9,103.062 2290.1,87.9763 "/>
<path clip-path="url(#clip060)" d="M212.753 198.898 L486.563 198.898 L486.563 95.2176 L212.753 95.2176  Z" fill="#ffffff" fill-rule="evenodd" fill-opacity="1"/>
<polyline clip-path="url(#clip060)" style="stroke:#000000; stroke-linecap:round; stroke-linejoin:round; stroke-width:4; stroke-opacity:1; fill:none" points="212.753,198.898 486.563,198.898 486.563,95.2176 212.753,95.2176 212.753,198.898 "/>
<polyline clip-path="url(#clip060)" style="stroke:#009af9; stroke-linecap:round; stroke-linejoin:round; stroke-width:4; stroke-opacity:1; fill:none" points="237.35,147.058 384.937,147.058 "/>
<path clip-path="url(#clip060)" d="M423.377 166.745 Q421.572 171.375 419.859 172.787 Q418.146 174.199 415.275 174.199 L411.873 174.199 L411.873 170.634 L414.373 170.634 Q416.132 170.634 417.104 169.8 Q418.076 168.967 419.257 165.865 L420.021 163.921 L409.535 138.412 L414.048 138.412 L422.15 158.689 L430.252 138.412 L434.766 138.412 L423.377 166.745 Z" fill="#000000" fill-rule="nonzero" fill-opacity="1" /><path clip-path="url(#clip060)" d="M442.058 160.402 L449.696 160.402 L449.696 134.037 L441.386 135.703 L441.386 131.444 L449.65 129.778 L454.326 129.778 L454.326 160.402 L461.965 160.402 L461.965 164.338 L442.058 164.338 L442.058 160.402 Z" fill="#000000" fill-rule="nonzero" fill-opacity="1" /></svg>
