<?xml version="1.0" encoding="utf-8"?>
<svg xmlns="http://www.w3.org/2000/svg" xmlns:xlink="http://www.w3.org/1999/xlink" width="600" height="400" viewBox="0 0 2400 1600">
<defs>
  <clipPath id="clip870">
    <rect x="0" y="0" width="2400" height="1600"/>
  </clipPath>
</defs>
<path clip-path="url(#clip870)" d="M0 1600 L2400 1600 L2400 0 L0 0  Z" fill="#ffffff" fill-rule="evenodd" fill-opacity="1"/>
<defs>
  <clipPath id="clip871">
    <rect x="480" y="0" width="1681" height="1600"/>
  </clipPath>
</defs>
<path clip-path="url(#clip870)" d="M202.227 1423.18 L2352.76 1423.18 L2352.76 47.2441 L202.227 47.2441  Z" fill="#ffffff" fill-rule="evenodd" fill-opacity="1"/>
<defs>
  <clipPath id="clip872">
    <rect x="202" y="47" width="2152" height="1377"/>
  </clipPath>
</defs>
<polyline clip-path="url(#clip872)" style="stroke:#000000; stroke-linecap:round; stroke-linejoin:round; stroke-width:2; stroke-opacity:0.1; fill:none" points="263.014,1423.18 263.014,47.2441 "/>
<polyline clip-path="url(#clip872)" style="stroke:#000000; stroke-linecap:round; stroke-linejoin:round; stroke-width:2; stroke-opacity:0.1; fill:none" points="770.341,1423.18 770.341,47.2441 "/>
<polyline clip-path="url(#clip872)" style="stroke:#000000; stroke-linecap:round; stroke-linejoin:round; stroke-width:2; stroke-opacity:0.1; fill:none" points="1277.67,1423.18 1277.67,47.2441 "/>
<polyline clip-path="url(#clip872)" style="stroke:#000000; stroke-linecap:round; stroke-linejoin:round; stroke-width:2; stroke-opacity:0.1; fill:none" points="1785,1423.18 1785,47.2441 "/>
<polyline clip-path="url(#clip872)" style="stroke:#000000; stroke-linecap:round; stroke-linejoin:round; stroke-width:2; stroke-opacity:0.1; fill:none" points="2292.32,1423.18 2292.32,47.2441 "/>
<polyline clip-path="url(#clip872)" style="stroke:#000000; stroke-linecap:round; stroke-linejoin:round; stroke-width:2; stroke-opacity:0.1; fill:none" points="202.227,1240.01 2352.76,1240.01 "/>
<polyline clip-path="url(#clip872)" style="stroke:#000000; stroke-linecap:round; stroke-linejoin:round; stroke-width:2; stroke-opacity:0.1; fill:none" points="202.227,951.554 2352.76,951.554 "/>
<polyline clip-path="url(#clip872)" style="stroke:#000000; stroke-linecap:round; stroke-linejoin:round; stroke-width:2; stroke-opacity:0.1; fill:none" points="202.227,663.098 2352.76,663.098 "/>
<polyline clip-path="url(#clip872)" style="stroke:#000000; stroke-linecap:round; stroke-linejoin:round; stroke-width:2; stroke-opacity:0.1; fill:none" points="202.227,374.642 2352.76,374.642 "/>
<polyline clip-path="url(#clip872)" style="stroke:#000000; stroke-linecap:round; stroke-linejoin:round; stroke-width:2; stroke-opacity:0.1; fill:none" points="202.227,86.1857 2352.76,86.1857 "/>
<polyline clip-path="url(#clip870)" style="stroke:#000000; stroke-linecap:round; stroke-linejoin:round; stroke-width:4; stroke-opacity:1; fill:none" points="202.227,1423.18 2352.76,1423.18 "/>
<polyline clip-path="url(#clip870)" style="stroke:#000000; stroke-linecap:round; stroke-linejoin:round; stroke-width:4; stroke-opacity:1; fill:none" points="263.014,1423.18 263.014,1404.28 "/>
<polyline clip-path="url(#clip870)" style="stroke:#000000; stroke-linecap:round; stroke-linejoin:round; stroke-width:4; stroke-opacity:1; fill:none" points="770.341,1423.18 770.341,1404.28 "/>
<polyline clip-path="url(#clip870)" style="stroke:#000000; stroke-linecap:round; stroke-linejoin:round; stroke-width:4; stroke-opacity:1; fill:none" points="1277.67,1423.18 1277.67,1404.28 "/>
<polyline clip-path="url(#clip870)" style="stroke:#000000; stroke-linecap:round; stroke-linejoin:round; stroke-width:4; stroke-opacity:1; fill:none" points="1785,1423.18 1785,1404.28 "/>
<polyline clip-path="url(#clip870)" style="stroke:#000000; stroke-linecap:round; stroke-linejoin:round; stroke-width:4; stroke-opacity:1; fill:none" points="2292.32,1423.18 2292.32,1404.28 "/>
<path clip-path="url(#clip870)" d="M209.542 1468.75 L239.217 1468.75 L239.217 1472.69 L209.542 1472.69 L209.542 1468.75 Z" fill="#000000" fill-rule="nonzero" fill-opacity="1" /><path clip-path="url(#clip870)" d="M250.12 1481.64 L257.759 1481.64 L257.759 1455.28 L249.449 1456.95 L249.449 1452.69 L257.713 1451.02 L262.389 1451.02 L262.389 1481.64 L270.027 1481.64 L270.027 1485.58 L250.12 1485.58 L250.12 1481.64 Z" fill="#000000" fill-rule="nonzero" fill-opacity="1" /><path clip-path="url(#clip870)" d="M279.472 1479.7 L284.356 1479.7 L284.356 1485.58 L279.472 1485.58 L279.472 1479.7 Z" fill="#000000" fill-rule="nonzero" fill-opacity="1" /><path clip-path="url(#clip870)" d="M304.541 1454.1 Q300.93 1454.1 299.101 1457.66 Q297.296 1461.2 297.296 1468.33 Q297.296 1475.44 299.101 1479.01 Q300.93 1482.55 304.541 1482.55 Q308.175 1482.55 309.981 1479.01 Q311.81 1475.44 311.81 1468.33 Q311.81 1461.2 309.981 1457.66 Q308.175 1454.1 304.541 1454.1 M304.541 1450.39 Q310.351 1450.39 313.407 1455 Q316.486 1459.58 316.486 1468.33 Q316.486 1477.06 313.407 1481.67 Q310.351 1486.25 304.541 1486.25 Q298.731 1486.25 295.652 1481.67 Q292.597 1477.06 292.597 1468.33 Q292.597 1459.58 295.652 1455 Q298.731 1450.39 304.541 1450.39 Z" fill="#000000" fill-rule="nonzero" fill-opacity="1" /><path clip-path="url(#clip870)" d="M717.367 1468.75 L747.043 1468.75 L747.043 1472.69 L717.367 1472.69 L717.367 1468.75 Z" fill="#000000" fill-rule="nonzero" fill-opacity="1" /><path clip-path="url(#clip870)" d="M767.135 1454.1 Q763.524 1454.1 761.696 1457.66 Q759.89 1461.2 759.89 1468.33 Q759.89 1475.44 761.696 1479.01 Q763.524 1482.55 767.135 1482.55 Q770.77 1482.55 772.575 1479.01 Q774.404 1475.44 774.404 1468.33 Q774.404 1461.2 772.575 1457.66 Q770.77 1454.1 767.135 1454.1 M767.135 1450.39 Q772.946 1450.39 776.001 1455 Q779.08 1459.58 779.08 1468.33 Q779.08 1477.06 776.001 1481.67 Q772.946 1486.25 767.135 1486.25 Q761.325 1486.25 758.247 1481.67 Q755.191 1477.06 755.191 1468.33 Q755.191 1459.58 758.247 1455 Q761.325 1450.39 767.135 1450.39 Z" fill="#000000" fill-rule="nonzero" fill-opacity="1" /><path clip-path="url(#clip870)" d="M787.297 1479.7 L792.182 1479.7 L792.182 1485.58 L787.297 1485.58 L787.297 1479.7 Z" fill="#000000" fill-rule="nonzero" fill-opacity="1" /><path clip-path="url(#clip870)" d="M802.413 1451.02 L820.769 1451.02 L820.769 1454.96 L806.695 1454.96 L806.695 1463.43 Q807.714 1463.08 808.732 1462.92 Q809.751 1462.73 810.769 1462.73 Q816.556 1462.73 819.936 1465.9 Q823.316 1469.08 823.316 1474.49 Q823.316 1480.07 819.843 1483.17 Q816.371 1486.25 810.052 1486.25 Q807.876 1486.25 805.607 1485.88 Q803.362 1485.51 800.955 1484.77 L800.955 1480.07 Q803.038 1481.2 805.26 1481.76 Q807.482 1482.32 809.959 1482.32 Q813.964 1482.32 816.302 1480.21 Q818.64 1478.1 818.64 1474.49 Q818.64 1470.88 816.302 1468.77 Q813.964 1466.67 809.959 1466.67 Q808.084 1466.67 806.209 1467.08 Q804.357 1467.5 802.413 1468.38 L802.413 1451.02 Z" fill="#000000" fill-rule="nonzero" fill-opacity="1" /><path clip-path="url(#clip870)" d="M1255.05 1454.1 Q1251.44 1454.1 1249.61 1457.66 Q1247.81 1461.2 1247.81 1468.33 Q1247.81 1475.44 1249.61 1479.01 Q1251.44 1482.55 1255.05 1482.55 Q1258.69 1482.55 1260.49 1479.01 Q1262.32 1475.44 1262.32 1468.33 Q1262.32 1461.2 1260.49 1457.66 Q1258.69 1454.1 1255.05 1454.1 M1255.05 1450.39 Q1260.86 1450.39 1263.92 1455 Q1267 1459.58 1267 1468.33 Q1267 1477.06 1263.92 1481.67 Q1260.86 1486.25 1255.05 1486.25 Q1249.24 1486.25 1246.16 1481.67 Q1243.11 1477.06 1243.11 1468.33 Q1243.11 1459.58 1246.16 1455 Q1249.24 1450.39 1255.05 1450.39 Z" fill="#000000" fill-rule="nonzero" fill-opacity="1" /><path clip-path="url(#clip870)" d="M1275.22 1479.7 L1280.1 1479.7 L1280.1 1485.58 L1275.22 1485.58 L1275.22 1479.7 Z" fill="#000000" fill-rule="nonzero" fill-opacity="1" /><path clip-path="url(#clip870)" d="M1300.28 1454.1 Q1296.67 1454.1 1294.84 1457.66 Q1293.04 1461.2 1293.04 1468.33 Q1293.04 1475.44 1294.84 1479.01 Q1296.67 1482.55 1300.28 1482.55 Q1303.92 1482.55 1305.72 1479.01 Q1307.55 1475.44 1307.55 1468.33 Q1307.55 1461.2 1305.72 1457.66 Q1303.92 1454.1 1300.28 1454.1 M1300.28 1450.39 Q1306.09 1450.39 1309.15 1455 Q1312.23 1459.58 1312.23 1468.33 Q1312.23 1477.06 1309.15 1481.67 Q1306.09 1486.25 1300.28 1486.25 Q1294.47 1486.25 1291.4 1481.67 Q1288.34 1477.06 1288.34 1468.33 Q1288.34 1459.58 1291.4 1455 Q1294.47 1450.39 1300.28 1450.39 Z" fill="#000000" fill-rule="nonzero" fill-opacity="1" /><path clip-path="url(#clip870)" d="M1762.88 1454.1 Q1759.27 1454.1 1757.44 1457.66 Q1755.63 1461.2 1755.63 1468.33 Q1755.63 1475.44 1757.44 1479.01 Q1759.27 1482.55 1762.88 1482.55 Q1766.51 1482.55 1768.32 1479.01 Q1770.15 1475.44 1770.15 1468.33 Q1770.15 1461.2 1768.32 1457.66 Q1766.51 1454.1 1762.88 1454.1 M1762.88 1450.39 Q1768.69 1450.39 1771.74 1455 Q1774.82 1459.58 1774.82 1468.33 Q1774.82 1477.06 1771.74 1481.67 Q1768.69 1486.25 1762.88 1486.25 Q1757.07 1486.25 1753.99 1481.67 Q1750.93 1477.06 1750.93 1468.33 Q1750.93 1459.58 1753.99 1455 Q1757.07 1450.39 1762.88 1450.39 Z" fill="#000000" fill-rule="nonzero" fill-opacity="1" /><path clip-path="url(#clip870)" d="M1783.04 1479.7 L1787.93 1479.7 L1787.93 1485.58 L1783.04 1485.58 L1783.04 1479.7 Z" fill="#000000" fill-rule="nonzero" fill-opacity="1" /><path clip-path="url(#clip870)" d="M1798.16 1451.02 L1816.51 1451.02 L1816.51 1454.96 L1802.44 1454.96 L1802.44 1463.43 Q1803.46 1463.08 1804.48 1462.92 Q1805.49 1462.73 1806.51 1462.73 Q1812.3 1462.73 1815.68 1465.9 Q1819.06 1469.08 1819.06 1474.49 Q1819.06 1480.07 1815.59 1483.17 Q1812.11 1486.25 1805.8 1486.25 Q1803.62 1486.25 1801.35 1485.88 Q1799.11 1485.51 1796.7 1484.77 L1796.7 1480.07 Q1798.78 1481.2 1801 1481.76 Q1803.23 1482.32 1805.7 1482.32 Q1809.71 1482.32 1812.05 1480.21 Q1814.38 1478.1 1814.38 1474.49 Q1814.38 1470.88 1812.05 1468.77 Q1809.71 1466.67 1805.7 1466.67 Q1803.83 1466.67 1801.95 1467.08 Q1800.1 1467.5 1798.16 1468.38 L1798.16 1451.02 Z" fill="#000000" fill-rule="nonzero" fill-opacity="1" /><path clip-path="url(#clip870)" d="M2259.48 1481.64 L2267.12 1481.64 L2267.12 1455.28 L2258.81 1456.95 L2258.81 1452.69 L2267.07 1451.02 L2271.75 1451.02 L2271.75 1481.64 L2279.38 1481.64 L2279.38 1485.58 L2259.48 1485.58 L2259.48 1481.64 Z" fill="#000000" fill-rule="nonzero" fill-opacity="1" /><path clip-path="url(#clip870)" d="M2288.83 1479.7 L2293.71 1479.7 L2293.71 1485.58 L2288.83 1485.58 L2288.83 1479.7 Z" fill="#000000" fill-rule="nonzero" fill-opacity="1" /><path clip-path="url(#clip870)" d="M2313.9 1454.1 Q2310.29 1454.1 2308.46 1457.66 Q2306.65 1461.2 2306.65 1468.33 Q2306.65 1475.44 2308.46 1479.01 Q2310.29 1482.55 2313.9 1482.55 Q2317.53 1482.55 2319.34 1479.01 Q2321.17 1475.44 2321.17 1468.33 Q2321.17 1461.2 2319.34 1457.66 Q2317.53 1454.1 2313.9 1454.1 M2313.9 1450.39 Q2319.71 1450.39 2322.76 1455 Q2325.84 1459.58 2325.84 1468.33 Q2325.84 1477.06 2322.76 1481.67 Q2319.71 1486.25 2313.9 1486.25 Q2308.09 1486.25 2305.01 1481.67 Q2301.95 1477.06 2301.95 1468.33 Q2301.95 1459.58 2305.01 1455 Q2308.09 1450.39 2313.9 1450.39 Z" fill="#000000" fill-rule="nonzero" fill-opacity="1" /><path clip-path="url(#clip870)" d="M1215.98 1533.45 L1215.98 1538.98 Q1213.5 1537.71 1210.83 1537.07 Q1208.15 1536.44 1205.29 1536.44 Q1200.93 1536.44 1198.73 1537.77 Q1196.57 1539.11 1196.57 1541.79 Q1196.57 1543.82 1198.13 1545 Q1199.69 1546.15 1204.4 1547.2 L1206.4 1547.64 Q1212.64 1548.98 1215.25 1551.43 Q1217.89 1553.85 1217.89 1558.21 Q1217.89 1563.17 1213.95 1566.07 Q1210.03 1568.97 1203.16 1568.97 Q1200.29 1568.97 1197.17 1568.39 Q1194.09 1567.85 1190.65 1566.74 L1190.65 1560.69 Q1193.89 1562.38 1197.05 1563.24 Q1200.2 1564.07 1203.28 1564.07 Q1207.42 1564.07 1209.65 1562.66 Q1211.88 1561.23 1211.88 1558.65 Q1211.88 1556.27 1210.25 1554.99 Q1208.66 1553.72 1203.22 1552.54 L1201.18 1552.07 Q1195.74 1550.92 1193.32 1548.56 Q1190.9 1546.18 1190.9 1542.04 Q1190.9 1537.01 1194.47 1534.27 Q1198.03 1531.54 1204.59 1531.54 Q1207.83 1531.54 1210.7 1532.01 Q1213.56 1532.49 1215.98 1533.45 Z" fill="#000000" fill-rule="nonzero" fill-opacity="1" /><path clip-path="url(#clip870)" d="M1227.22 1532.4 L1233.07 1532.4 L1233.07 1568.04 L1227.22 1568.04 L1227.22 1532.4 M1227.22 1518.52 L1233.07 1518.52 L1233.07 1525.93 L1227.22 1525.93 L1227.22 1518.52 Z" fill="#000000" fill-rule="nonzero" fill-opacity="1" /><path clip-path="url(#clip870)" d="M1274.96 1546.53 L1274.96 1568.04 L1269.1 1568.04 L1269.1 1546.72 Q1269.1 1541.66 1267.13 1539.14 Q1265.16 1536.63 1261.21 1536.63 Q1256.47 1536.63 1253.73 1539.65 Q1250.99 1542.68 1250.99 1547.9 L1250.99 1568.04 L1245.11 1568.04 L1245.11 1532.4 L1250.99 1532.4 L1250.99 1537.93 Q1253.1 1534.72 1255.93 1533.13 Q1258.79 1531.54 1262.52 1531.54 Q1268.66 1531.54 1271.81 1535.36 Q1274.96 1539.14 1274.96 1546.53 Z" fill="#000000" fill-rule="nonzero" fill-opacity="1" /><path clip-path="url(#clip870)" d="M1300.71 1518.58 Q1296.45 1525.9 1294.38 1533.06 Q1292.31 1540.23 1292.31 1547.58 Q1292.31 1554.93 1294.38 1562.16 Q1296.48 1569.35 1300.71 1576.64 L1295.62 1576.64 Q1290.84 1569.16 1288.46 1561.93 Q1286.1 1554.71 1286.1 1547.58 Q1286.1 1540.48 1288.46 1533.29 Q1290.81 1526.09 1295.62 1518.58 L1300.71 1518.58 Z" fill="#000000" fill-rule="nonzero" fill-opacity="1" /><path clip-path="url(#clip870)" d="M1326.91 1571.35 Q1324.42 1577.72 1322.07 1579.66 Q1319.71 1581.6 1315.77 1581.6 L1311.09 1581.6 L1311.09 1576.7 L1314.52 1576.7 Q1316.94 1576.7 1318.28 1575.56 Q1319.62 1574.41 1321.24 1570.14 L1322.29 1567.47 L1307.87 1532.4 L1314.08 1532.4 L1325.22 1560.28 L1336.36 1532.4 L1342.57 1532.4 L1326.91 1571.35 Z" fill="#000000" fill-rule="nonzero" fill-opacity="1" /><path clip-path="url(#clip870)" d="M1349.73 1518.58 L1354.82 1518.58 Q1359.59 1526.09 1361.95 1533.29 Q1364.34 1540.48 1364.34 1547.58 Q1364.34 1554.71 1361.95 1561.93 Q1359.59 1569.16 1354.82 1576.64 L1349.73 1576.64 Q1353.96 1569.35 1356.03 1562.16 Q1358.13 1554.93 1358.13 1547.58 Q1358.13 1540.23 1356.03 1533.06 Q1353.96 1525.9 1349.73 1518.58 Z" fill="#000000" fill-rule="nonzero" fill-opacity="1" /><polyline clip-path="url(#clip870)" style="stroke:#000000; stroke-linecap:round; stroke-linejoin:round; stroke-width:4; stroke-opacity:1; fill:none" points="202.227,1423.18 202.227,47.2441 "/>
<polyline clip-path="url(#clip870)" style="stroke:#000000; stroke-linecap:round; stroke-linejoin:round; stroke-width:4; stroke-opacity:1; fill:none" points="202.227,1240.01 221.125,1240.01 "/>
<polyline clip-path="url(#clip870)" style="stroke:#000000; stroke-linecap:round; stroke-linejoin:round; stroke-width:4; stroke-opacity:1; fill:none" points="202.227,951.554 221.125,951.554 "/>
<polyline clip-path="url(#clip870)" style="stroke:#000000; stroke-linecap:round; stroke-linejoin:round; stroke-width:4; stroke-opacity:1; fill:none" points="202.227,663.098 221.125,663.098 "/>
<polyline clip-path="url(#clip870)" style="stroke:#000000; stroke-linecap:round; stroke-linejoin:round; stroke-width:4; stroke-opacity:1; fill:none" points="202.227,374.642 221.125,374.642 "/>
<polyline clip-path="url(#clip870)" style="stroke:#000000; stroke-linecap:round; stroke-linejoin:round; stroke-width:4; stroke-opacity:1; fill:none" points="202.227,86.1857 221.125,86.1857 "/>
<path clip-path="url(#clip870)" d="M149.908 1253.36 L166.227 1253.36 L166.227 1257.29 L144.283 1257.29 L144.283 1253.36 Q146.945 1250.6 151.528 1245.97 Q156.135 1241.32 157.315 1239.98 Q159.561 1237.45 160.44 1235.72 Q161.343 1233.96 161.343 1232.27 Q161.343 1229.51 159.399 1227.78 Q157.478 1226.04 154.376 1226.04 Q152.177 1226.04 149.723 1226.8 Q147.292 1227.57 144.515 1229.12 L144.515 1224.4 Q147.339 1223.26 149.792 1222.68 Q152.246 1222.11 154.283 1222.11 Q159.653 1222.11 162.848 1224.79 Q166.042 1227.48 166.042 1231.97 Q166.042 1234.1 165.232 1236.02 Q164.445 1237.92 162.339 1240.51 Q161.76 1241.18 158.658 1244.4 Q155.556 1247.59 149.908 1253.36 Z" fill="#000000" fill-rule="nonzero" fill-opacity="1" /><path clip-path="url(#clip870)" d="M156.644 938.348 L144.839 956.797 L156.644 956.797 L156.644 938.348 M155.417 934.274 L161.297 934.274 L161.297 956.797 L166.227 956.797 L166.227 960.686 L161.297 960.686 L161.297 968.834 L156.644 968.834 L156.644 960.686 L141.042 960.686 L141.042 956.172 L155.417 934.274 Z" fill="#000000" fill-rule="nonzero" fill-opacity="1" /><path clip-path="url(#clip870)" d="M154.7 661.235 Q151.552 661.235 149.7 663.387 Q147.871 665.54 147.871 669.29 Q147.871 673.017 149.7 675.193 Q151.552 677.346 154.7 677.346 Q157.848 677.346 159.677 675.193 Q161.528 673.017 161.528 669.29 Q161.528 665.54 159.677 663.387 Q157.848 661.235 154.7 661.235 M163.982 646.582 L163.982 650.841 Q162.223 650.008 160.417 649.568 Q158.635 649.128 156.876 649.128 Q152.246 649.128 149.792 652.253 Q147.362 655.378 147.015 661.697 Q148.38 659.684 150.441 658.619 Q152.501 657.531 154.978 657.531 Q160.186 657.531 163.195 660.702 Q166.227 663.85 166.227 669.29 Q166.227 674.614 163.079 677.832 Q159.931 681.049 154.7 681.049 Q148.704 681.049 145.533 676.466 Q142.362 671.859 142.362 663.133 Q142.362 654.938 146.251 650.077 Q150.14 645.193 156.69 645.193 Q158.45 645.193 160.232 645.54 Q162.038 645.887 163.982 646.582 Z" fill="#000000" fill-rule="nonzero" fill-opacity="1" /><path clip-path="url(#clip870)" d="M154.376 375.51 Q151.042 375.51 149.121 377.292 Q147.223 379.075 147.223 382.2 Q147.223 385.325 149.121 387.107 Q151.042 388.889 154.376 388.889 Q157.709 388.889 159.63 387.107 Q161.552 385.301 161.552 382.2 Q161.552 379.075 159.63 377.292 Q157.732 375.51 154.376 375.51 M149.7 373.519 Q146.691 372.778 145.001 370.718 Q143.334 368.658 143.334 365.695 Q143.334 361.552 146.274 359.144 Q149.237 356.737 154.376 356.737 Q159.538 356.737 162.477 359.144 Q165.417 361.552 165.417 365.695 Q165.417 368.658 163.727 370.718 Q162.061 372.778 159.075 373.519 Q162.454 374.306 164.329 376.598 Q166.227 378.889 166.227 382.2 Q166.227 387.223 163.149 389.908 Q160.093 392.593 154.376 392.593 Q148.658 392.593 145.579 389.908 Q142.524 387.223 142.524 382.2 Q142.524 378.889 144.422 376.598 Q146.32 374.306 149.7 373.519 M147.987 366.135 Q147.987 368.82 149.653 370.325 Q151.343 371.829 154.376 371.829 Q157.385 371.829 159.075 370.325 Q160.788 368.82 160.788 366.135 Q160.788 363.45 159.075 361.945 Q157.385 360.44 154.376 360.44 Q151.343 360.44 149.653 361.945 Q147.987 363.45 147.987 366.135 Z" fill="#000000" fill-rule="nonzero" fill-opacity="1" /><path clip-path="url(#clip870)" d="M114.931 99.5305 L122.57 99.5305 L122.57 73.1649 L114.26 74.8316 L114.26 70.5723 L122.524 68.9057 L127.2 68.9057 L127.2 99.5305 L134.839 99.5305 L134.839 103.466 L114.931 103.466 L114.931 99.5305 Z" fill="#000000" fill-rule="nonzero" fill-opacity="1" /><path clip-path="url(#clip870)" d="M154.283 71.9844 Q150.672 71.9844 148.843 75.5492 Q147.038 79.0908 147.038 86.2204 Q147.038 93.3268 148.843 96.8916 Q150.672 100.433 154.283 100.433 Q157.917 100.433 159.723 96.8916 Q161.552 93.3268 161.552 86.2204 Q161.552 79.0908 159.723 75.5492 Q157.917 71.9844 154.283 71.9844 M154.283 68.2807 Q160.093 68.2807 163.149 72.8871 Q166.227 77.4704 166.227 86.2204 Q166.227 94.9472 163.149 99.5537 Q160.093 104.137 154.283 104.137 Q148.473 104.137 145.394 99.5537 Q142.339 94.9472 142.339 86.2204 Q142.339 77.4704 145.394 72.8871 Q148.473 68.2807 154.283 68.2807 Z" fill="#000000" fill-rule="nonzero" fill-opacity="1" /><path clip-path="url(#clip870)" d="M67.3143 849.27 Q73.68 851.752 75.6216 854.107 Q77.5631 856.463 77.5631 860.41 L77.5631 865.088 L72.6615 865.088 L72.6615 861.651 Q72.6615 859.232 71.5157 857.895 Q70.3699 856.558 66.1048 854.935 L63.4312 853.885 L28.3562 868.303 L28.3562 862.096 L56.238 850.956 L28.3562 839.816 L28.3562 833.61 L67.3143 849.27 Z" fill="#000000" fill-rule="nonzero" fill-opacity="1" /><path clip-path="url(#clip870)" d="M28.3562 809.006 L28.3562 802.8 L58.275 791.66 L28.3562 780.52 L28.3562 774.313 L64.0042 787.681 L64.0042 795.638 L28.3562 809.006 Z" fill="#000000" fill-rule="nonzero" fill-opacity="1" /><path clip-path="url(#clip870)" d="M46.0847 750.028 Q46.0847 757.126 47.7079 759.863 Q49.3312 762.6 53.2461 762.6 Q56.3653 762.6 58.2114 760.563 Q60.0256 758.495 60.0256 754.962 Q60.0256 750.092 56.5881 747.164 Q53.1188 744.204 47.3897 744.204 L46.0847 744.204 L46.0847 750.028 M43.6657 738.347 L64.0042 738.347 L64.0042 744.204 L58.5933 744.204 Q61.8398 746.209 63.3994 749.201 Q64.9272 752.192 64.9272 756.521 Q64.9272 761.996 61.8716 765.242 Q58.7843 768.457 53.6281 768.457 Q47.6125 768.457 44.5569 764.446 Q41.5014 760.404 41.5014 752.415 L41.5014 744.204 L40.9285 744.204 Q36.8862 744.204 34.6901 746.877 Q32.4621 749.519 32.4621 754.325 Q32.4621 757.381 33.1941 760.277 Q33.9262 763.173 35.3903 765.847 L29.9795 765.847 Q28.7381 762.632 28.1334 759.609 Q27.4968 756.585 27.4968 753.72 Q27.4968 745.986 31.5072 742.167 Q35.5176 738.347 43.6657 738.347 Z" fill="#000000" fill-rule="nonzero" fill-opacity="1" /><path clip-path="url(#clip870)" d="M14.479 726.284 L14.479 720.428 L64.0042 720.428 L64.0042 726.284 L14.479 726.284 Z" fill="#000000" fill-rule="nonzero" fill-opacity="1" /><path clip-path="url(#clip870)" d="M49.9359 708.778 L28.3562 708.778 L28.3562 702.922 L49.7131 702.922 Q54.7739 702.922 57.3202 700.949 Q59.8346 698.975 59.8346 695.028 Q59.8346 690.286 56.8109 687.549 Q53.7872 684.78 48.5673 684.78 L28.3562 684.78 L28.3562 678.923 L64.0042 678.923 L64.0042 684.78 L58.5296 684.78 Q61.7762 686.912 63.3676 689.745 Q64.9272 692.546 64.9272 696.27 Q64.9272 702.413 61.1078 705.596 Q57.2883 708.778 49.9359 708.778 M27.4968 694.042 L27.4968 694.042 Z" fill="#000000" fill-rule="nonzero" fill-opacity="1" /><path clip-path="url(#clip870)" d="M44.7161 636.368 L47.5806 636.368 L47.5806 663.295 Q53.6281 662.913 56.8109 659.667 Q59.9619 656.389 59.9619 650.564 Q59.9619 647.19 59.1344 644.039 Q58.3069 640.856 56.6518 637.737 L62.1899 637.737 Q63.5267 640.888 64.227 644.198 Q64.9272 647.508 64.9272 650.914 Q64.9272 659.444 59.9619 664.441 Q54.9967 669.406 46.5303 669.406 Q37.7774 669.406 32.6531 664.696 Q27.4968 659.953 27.4968 651.933 Q27.4968 644.739 32.1438 640.57 Q36.7589 636.368 44.7161 636.368 M42.9973 642.225 Q38.1912 642.289 35.3266 644.93 Q32.4621 647.54 32.4621 651.869 Q32.4621 656.771 35.2312 659.731 Q38.0002 662.659 43.0292 663.104 L42.9973 642.225 Z" fill="#000000" fill-rule="nonzero" fill-opacity="1" /><path clip-path="url(#clip870)" d="M29.4065 604.031 L34.9447 604.031 Q33.6716 606.513 33.035 609.187 Q32.3984 611.86 32.3984 614.725 Q32.3984 619.086 33.7352 621.282 Q35.072 623.446 37.7456 623.446 Q39.7826 623.446 40.9603 621.886 Q42.1061 620.327 43.1565 615.616 L43.6021 613.611 Q44.9389 607.373 47.3897 604.763 Q49.8086 602.121 54.1691 602.121 Q59.1344 602.121 62.0308 606.068 Q64.9272 609.983 64.9272 616.858 Q64.9272 619.722 64.3543 622.841 Q63.8132 625.929 62.6992 629.366 L56.6518 629.366 Q58.3387 626.12 59.198 622.969 Q60.0256 619.818 60.0256 616.73 Q60.0256 612.593 58.6251 610.365 Q57.1929 608.137 54.6147 608.137 Q52.2276 608.137 50.9545 609.76 Q49.6813 611.351 48.5037 616.794 L48.0262 618.831 Q46.8804 624.274 44.5251 626.693 Q42.138 629.112 38.0002 629.112 Q32.9713 629.112 30.2341 625.547 Q27.4968 621.982 27.4968 615.425 Q27.4968 612.179 27.9743 609.314 Q28.4517 606.45 29.4065 604.031 Z" fill="#000000" fill-rule="nonzero" fill-opacity="1" /><polyline clip-path="url(#clip872)" style="stroke:#009af9; stroke-linecap:round; stroke-linejoin:round; stroke-width:4; stroke-opacity:1; fill:none" stroke-dasharray="16, 10" points="2131.47,1384.24 2181.94,1369.82 2223.37,1355.39 2255.35,1340.97 2277.56,1326.55 2289.78,1312.12 2291.89,1297.7 2283.87,1283.28 2265.79,1268.86 2237.84,1254.43 2200.29,1240.01 2153.53,1225.59 2098.01,1211.16 2034.3,1196.74 1963.03,1182.32 1884.91,1167.9 1800.73,1153.47 1711.31,1139.05 1617.57,1124.63 1520.42,1110.2 1420.86,1095.78 1319.86,1081.36 1218.44,1066.94 1117.61,1052.51 1018.38,1038.09 921.745,1023.67 828.663,1009.25 740.068,994.822 656.844,980.4 579.823,965.977 509.775,951.554 447.4,937.131 393.32,922.708 348.076,908.286 312.121,893.863 285.813,879.44 269.415,865.017 263.091,850.594 266.905,836.172 280.818,821.749 304.691,807.326 338.286,792.903 381.267,778.48 433.204,764.058 493.579,749.635 561.789,735.212 637.151,720.789 718.913,706.366 806.258,691.944 898.313,677.521 994.159,663.098 1092.84,648.675 1193.36,634.252 1294.73,619.83 1395.93,605.407 1495.94,590.984 1593.78,576.561 1688.45,562.138 1779.02,547.715 1864.59,533.293 1944.28,518.87 2017.32,504.447 2082.97,490.024 2140.57,475.601 2189.55,461.179 2229.42,446.756 2259.77,432.333 2280.32,417.91 2290.85,403.487 2291.25,389.065 2281.53,374.642 2261.77,360.219 2232.19,345.796 2193.06,331.373 2144.79,316.951 2087.86,302.528 2022.83,288.105 1950.35,273.682 1871.16,259.259 1786.03,244.837 1695.83,230.414 1601.44,215.991 1503.83,201.568 1403.95,187.145 1302.81,172.723 1201.42,158.3 1100.79,143.877 1001.93,129.454 905.819,115.031 813.428,100.608 725.675,86.1857 "/>
</svg>
