<?xml version="1.0" encoding="utf-8"?>
<svg xmlns="http://www.w3.org/2000/svg" xmlns:xlink="http://www.w3.org/1999/xlink" width="600" height="400" viewBox="0 0 2400 1600">
<defs>
  <clipPath id="clip400">
    <rect x="0" y="0" width="2400" height="1600"/>
  </clipPath>
</defs>
<path clip-path="url(#clip400)" d="M0 1600 L2400 1600 L2400 0 L0 0  Z" fill="#ffffff" fill-rule="evenodd" fill-opacity="1"/>
<defs>
  <clipPath id="clip401">
    <rect x="480" y="0" width="1681" height="1600"/>
  </clipPath>
</defs>
<path clip-path="url(#clip400)" d="M156.112 1486.45 L2352.76 1486.45 L2352.76 47.2441 L156.112 47.2441  Z" fill="#ffffff" fill-rule="evenodd" fill-opacity="1"/>
<defs>
  <clipPath id="clip402">
    <rect x="156" y="47" width="2198" height="1440"/>
  </clipPath>
</defs>
<polyline clip-path="url(#clip402)" style="stroke:#000000; stroke-linecap:round; stroke-linejoin:round; stroke-width:2; stroke-opacity:0.1; fill:none" points="391.473,1486.45 391.473,47.2441 "/>
<polyline clip-path="url(#clip402)" style="stroke:#000000; stroke-linecap:round; stroke-linejoin:round; stroke-width:2; stroke-opacity:0.1; fill:none" points="1003.31,1486.45 1003.31,47.2441 "/>
<polyline clip-path="url(#clip402)" style="stroke:#000000; stroke-linecap:round; stroke-linejoin:round; stroke-width:2; stroke-opacity:0.1; fill:none" points="1615.14,1486.45 1615.14,47.2441 "/>
<polyline clip-path="url(#clip402)" style="stroke:#000000; stroke-linecap:round; stroke-linejoin:round; stroke-width:2; stroke-opacity:0.1; fill:none" points="2226.98,1486.45 2226.98,47.2441 "/>
<polyline clip-path="url(#clip402)" style="stroke:#000000; stroke-linecap:round; stroke-linejoin:round; stroke-width:2; stroke-opacity:0.1; fill:none" points="156.112,1486.45 2352.76,1486.45 "/>
<polyline clip-path="url(#clip402)" style="stroke:#000000; stroke-linecap:round; stroke-linejoin:round; stroke-width:2; stroke-opacity:0.1; fill:none" points="156.112,1107.71 2352.76,1107.71 "/>
<polyline clip-path="url(#clip402)" style="stroke:#000000; stroke-linecap:round; stroke-linejoin:round; stroke-width:2; stroke-opacity:0.1; fill:none" points="156.112,728.972 2352.76,728.972 "/>
<polyline clip-path="url(#clip402)" style="stroke:#000000; stroke-linecap:round; stroke-linejoin:round; stroke-width:2; stroke-opacity:0.1; fill:none" points="156.112,350.234 2352.76,350.234 "/>
<polyline clip-path="url(#clip400)" style="stroke:#000000; stroke-linecap:round; stroke-linejoin:round; stroke-width:4; stroke-opacity:1; fill:none" points="156.112,1486.45 2352.76,1486.45 "/>
<polyline clip-path="url(#clip400)" style="stroke:#000000; stroke-linecap:round; stroke-linejoin:round; stroke-width:4; stroke-opacity:1; fill:none" points="391.473,1486.45 391.473,1467.55 "/>
<polyline clip-path="url(#clip400)" style="stroke:#000000; stroke-linecap:round; stroke-linejoin:round; stroke-width:4; stroke-opacity:1; fill:none" points="1003.31,1486.45 1003.31,1467.55 "/>
<polyline clip-path="url(#clip400)" style="stroke:#000000; stroke-linecap:round; stroke-linejoin:round; stroke-width:4; stroke-opacity:1; fill:none" points="1615.14,1486.45 1615.14,1467.55 "/>
<polyline clip-path="url(#clip400)" style="stroke:#000000; stroke-linecap:round; stroke-linejoin:round; stroke-width:4; stroke-opacity:1; fill:none" points="2226.98,1486.45 2226.98,1467.55 "/>
<path clip-path="url(#clip400)" d="M354.274 1517.37 Q350.663 1517.37 348.834 1520.93 Q347.029 1524.47 347.029 1531.6 Q347.029 1538.71 348.834 1542.27 Q350.663 1545.82 354.274 1545.82 Q357.908 1545.82 359.714 1542.27 Q361.542 1538.71 361.542 1531.6 Q361.542 1524.47 359.714 1520.93 Q357.908 1517.37 354.274 1517.37 M354.274 1513.66 Q360.084 1513.66 363.14 1518.27 Q366.218 1522.85 366.218 1531.6 Q366.218 1540.33 363.14 1544.94 Q360.084 1549.52 354.274 1549.52 Q348.464 1549.52 345.385 1544.94 Q342.329 1540.33 342.329 1531.6 Q342.329 1522.85 345.385 1518.27 Q348.464 1513.66 354.274 1513.66 Z" fill="#000000" fill-rule="nonzero" fill-opacity="1" /><path clip-path="url(#clip400)" d="M374.436 1542.97 L379.32 1542.97 L379.32 1548.85 L374.436 1548.85 L374.436 1542.97 Z" fill="#000000" fill-rule="nonzero" fill-opacity="1" /><path clip-path="url(#clip400)" d="M399.505 1532.44 Q396.172 1532.44 394.251 1534.22 Q392.352 1536 392.352 1539.13 Q392.352 1542.25 394.251 1544.03 Q396.172 1545.82 399.505 1545.82 Q402.838 1545.82 404.76 1544.03 Q406.681 1542.23 406.681 1539.13 Q406.681 1536 404.76 1534.22 Q402.862 1532.44 399.505 1532.44 M394.829 1530.45 Q391.82 1529.7 390.13 1527.64 Q388.464 1525.58 388.464 1522.62 Q388.464 1518.48 391.403 1516.07 Q394.366 1513.66 399.505 1513.66 Q404.667 1513.66 407.607 1516.07 Q410.547 1518.48 410.547 1522.62 Q410.547 1525.58 408.857 1527.64 Q407.19 1529.7 404.204 1530.45 Q407.584 1531.23 409.459 1533.52 Q411.357 1535.82 411.357 1539.13 Q411.357 1544.15 408.278 1546.83 Q405.223 1549.52 399.505 1549.52 Q393.788 1549.52 390.709 1546.83 Q387.653 1544.15 387.653 1539.13 Q387.653 1535.82 389.551 1533.52 Q391.45 1531.23 394.829 1530.45 M393.116 1523.06 Q393.116 1525.75 394.783 1527.25 Q396.473 1528.76 399.505 1528.76 Q402.514 1528.76 404.204 1527.25 Q405.917 1525.75 405.917 1523.06 Q405.917 1520.38 404.204 1518.87 Q402.514 1517.37 399.505 1517.37 Q396.473 1517.37 394.783 1518.87 Q393.116 1520.38 393.116 1523.06 Z" fill="#000000" fill-rule="nonzero" fill-opacity="1" /><path clip-path="url(#clip400)" d="M419.713 1514.29 L438.07 1514.29 L438.07 1518.22 L423.996 1518.22 L423.996 1526.7 Q425.014 1526.35 426.033 1526.19 Q427.051 1526 428.07 1526 Q433.857 1526 437.236 1529.17 Q440.616 1532.34 440.616 1537.76 Q440.616 1543.34 437.144 1546.44 Q433.672 1549.52 427.352 1549.52 Q425.176 1549.52 422.908 1549.15 Q420.662 1548.78 418.255 1548.04 L418.255 1543.34 Q420.338 1544.47 422.561 1545.03 Q424.783 1545.58 427.26 1545.58 Q431.264 1545.58 433.602 1543.48 Q435.94 1541.37 435.94 1537.76 Q435.94 1534.15 433.602 1532.04 Q431.264 1529.94 427.26 1529.94 Q425.385 1529.94 423.51 1530.35 Q421.658 1530.77 419.713 1531.65 L419.713 1514.29 Z" fill="#000000" fill-rule="nonzero" fill-opacity="1" /><path clip-path="url(#clip400)" d="M965.612 1517.37 Q962.001 1517.37 960.172 1520.93 Q958.367 1524.47 958.367 1531.6 Q958.367 1538.71 960.172 1542.27 Q962.001 1545.82 965.612 1545.82 Q969.246 1545.82 971.052 1542.27 Q972.88 1538.71 972.88 1531.6 Q972.88 1524.47 971.052 1520.93 Q969.246 1517.37 965.612 1517.37 M965.612 1513.66 Q971.422 1513.66 974.478 1518.27 Q977.556 1522.85 977.556 1531.6 Q977.556 1540.33 974.478 1544.94 Q971.422 1549.52 965.612 1549.52 Q959.802 1549.52 956.723 1544.94 Q953.668 1540.33 953.668 1531.6 Q953.668 1522.85 956.723 1518.27 Q959.802 1513.66 965.612 1513.66 Z" fill="#000000" fill-rule="nonzero" fill-opacity="1" /><path clip-path="url(#clip400)" d="M985.774 1542.97 L990.658 1542.97 L990.658 1548.85 L985.774 1548.85 L985.774 1542.97 Z" fill="#000000" fill-rule="nonzero" fill-opacity="1" /><path clip-path="url(#clip400)" d="M1000.98 1548.13 L1000.98 1543.87 Q1002.74 1544.7 1004.55 1545.14 Q1006.35 1545.58 1008.09 1545.58 Q1012.72 1545.58 1015.15 1542.48 Q1017.6 1539.36 1017.95 1533.01 Q1016.61 1535.01 1014.55 1536.07 Q1012.49 1537.13 1009.99 1537.13 Q1004.8 1537.13 1001.77 1534.01 Q998.76 1530.86 998.76 1525.42 Q998.76 1520.1 1001.91 1516.88 Q1005.06 1513.66 1010.29 1513.66 Q1016.28 1513.66 1019.43 1518.27 Q1022.6 1522.85 1022.6 1531.6 Q1022.6 1539.77 1018.71 1544.66 Q1014.85 1549.52 1008.3 1549.52 Q1006.54 1549.52 1004.73 1549.17 Q1002.93 1548.82 1000.98 1548.13 M1010.29 1533.48 Q1013.44 1533.48 1015.26 1531.32 Q1017.12 1529.17 1017.12 1525.42 Q1017.12 1521.7 1015.26 1519.54 Q1013.44 1517.37 1010.29 1517.37 Q1007.14 1517.37 1005.29 1519.54 Q1003.46 1521.7 1003.46 1525.42 Q1003.46 1529.17 1005.29 1531.32 Q1007.14 1533.48 1010.29 1533.48 Z" fill="#000000" fill-rule="nonzero" fill-opacity="1" /><path clip-path="url(#clip400)" d="M1041.01 1517.37 Q1037.39 1517.37 1035.57 1520.93 Q1033.76 1524.47 1033.76 1531.6 Q1033.76 1538.71 1035.57 1542.27 Q1037.39 1545.82 1041.01 1545.82 Q1044.64 1545.82 1046.44 1542.27 Q1048.27 1538.71 1048.27 1531.6 Q1048.27 1524.47 1046.44 1520.93 Q1044.64 1517.37 1041.01 1517.37 M1041.01 1513.66 Q1046.82 1513.66 1049.87 1518.27 Q1052.95 1522.85 1052.95 1531.6 Q1052.95 1540.33 1049.87 1544.94 Q1046.82 1549.52 1041.01 1549.52 Q1035.19 1549.52 1032.12 1544.94 Q1029.06 1540.33 1029.06 1531.6 Q1029.06 1522.85 1032.12 1518.27 Q1035.19 1513.66 1041.01 1513.66 Z" fill="#000000" fill-rule="nonzero" fill-opacity="1" /><path clip-path="url(#clip400)" d="M1577.95 1517.37 Q1574.33 1517.37 1572.51 1520.93 Q1570.7 1524.47 1570.7 1531.6 Q1570.7 1538.71 1572.51 1542.27 Q1574.33 1545.82 1577.95 1545.82 Q1581.58 1545.82 1583.39 1542.27 Q1585.21 1538.71 1585.21 1531.6 Q1585.21 1524.47 1583.39 1520.93 Q1581.58 1517.37 1577.95 1517.37 M1577.95 1513.66 Q1583.76 1513.66 1586.81 1518.27 Q1589.89 1522.85 1589.89 1531.6 Q1589.89 1540.33 1586.81 1544.94 Q1583.76 1549.52 1577.95 1549.52 Q1572.14 1549.52 1569.06 1544.94 Q1566 1540.33 1566 1531.6 Q1566 1522.85 1569.06 1518.27 Q1572.14 1513.66 1577.95 1513.66 Z" fill="#000000" fill-rule="nonzero" fill-opacity="1" /><path clip-path="url(#clip400)" d="M1598.11 1542.97 L1602.99 1542.97 L1602.99 1548.85 L1598.11 1548.85 L1598.11 1542.97 Z" fill="#000000" fill-rule="nonzero" fill-opacity="1" /><path clip-path="url(#clip400)" d="M1613.32 1548.13 L1613.32 1543.87 Q1615.07 1544.7 1616.88 1545.14 Q1618.69 1545.58 1620.42 1545.58 Q1625.05 1545.58 1627.48 1542.48 Q1629.94 1539.36 1630.28 1533.01 Q1628.94 1535.01 1626.88 1536.07 Q1624.82 1537.13 1622.32 1537.13 Q1617.14 1537.13 1614.1 1534.01 Q1611.09 1530.86 1611.09 1525.42 Q1611.09 1520.1 1614.24 1516.88 Q1617.39 1513.66 1622.62 1513.66 Q1628.62 1513.66 1631.76 1518.27 Q1634.94 1522.85 1634.94 1531.6 Q1634.94 1539.77 1631.05 1544.66 Q1627.18 1549.52 1620.63 1549.52 Q1618.87 1549.52 1617.07 1549.17 Q1615.26 1548.82 1613.32 1548.13 M1622.62 1533.48 Q1625.77 1533.48 1627.6 1531.32 Q1629.45 1529.17 1629.45 1525.42 Q1629.45 1521.7 1627.6 1519.54 Q1625.77 1517.37 1622.62 1517.37 Q1619.47 1517.37 1617.62 1519.54 Q1615.79 1521.7 1615.79 1525.42 Q1615.79 1529.17 1617.62 1531.32 Q1619.47 1533.48 1622.62 1533.48 Z" fill="#000000" fill-rule="nonzero" fill-opacity="1" /><path clip-path="url(#clip400)" d="M1643.38 1514.29 L1661.74 1514.29 L1661.74 1518.22 L1647.67 1518.22 L1647.67 1526.7 Q1648.69 1526.35 1649.7 1526.19 Q1650.72 1526 1651.74 1526 Q1657.53 1526 1660.91 1529.17 Q1664.29 1532.34 1664.29 1537.76 Q1664.29 1543.34 1660.82 1546.44 Q1657.34 1549.52 1651.02 1549.52 Q1648.85 1549.52 1646.58 1549.15 Q1644.33 1548.78 1641.93 1548.04 L1641.93 1543.34 Q1644.01 1544.47 1646.23 1545.03 Q1648.45 1545.58 1650.93 1545.58 Q1654.94 1545.58 1657.27 1543.48 Q1659.61 1541.37 1659.61 1537.76 Q1659.61 1534.15 1657.27 1532.04 Q1654.94 1529.94 1650.93 1529.94 Q1649.06 1529.94 1647.18 1530.35 Q1645.33 1530.77 1643.38 1531.65 L1643.38 1514.29 Z" fill="#000000" fill-rule="nonzero" fill-opacity="1" /><path clip-path="url(#clip400)" d="M2179.05 1544.91 L2186.69 1544.91 L2186.69 1518.55 L2178.38 1520.21 L2178.38 1515.95 L2186.64 1514.29 L2191.32 1514.29 L2191.32 1544.91 L2198.96 1544.91 L2198.96 1548.85 L2179.05 1548.85 L2179.05 1544.91 Z" fill="#000000" fill-rule="nonzero" fill-opacity="1" /><path clip-path="url(#clip400)" d="M2208.4 1542.97 L2213.29 1542.97 L2213.29 1548.85 L2208.4 1548.85 L2208.4 1542.97 Z" fill="#000000" fill-rule="nonzero" fill-opacity="1" /><path clip-path="url(#clip400)" d="M2233.47 1517.37 Q2229.86 1517.37 2228.03 1520.93 Q2226.23 1524.47 2226.23 1531.6 Q2226.23 1538.71 2228.03 1542.27 Q2229.86 1545.82 2233.47 1545.82 Q2237.11 1545.82 2238.91 1542.27 Q2240.74 1538.71 2240.74 1531.6 Q2240.74 1524.47 2238.91 1520.93 Q2237.11 1517.37 2233.47 1517.37 M2233.47 1513.66 Q2239.28 1513.66 2242.34 1518.27 Q2245.42 1522.85 2245.42 1531.6 Q2245.42 1540.33 2242.34 1544.94 Q2239.28 1549.52 2233.47 1549.52 Q2227.66 1549.52 2224.58 1544.94 Q2221.53 1540.33 2221.53 1531.6 Q2221.53 1522.85 2224.58 1518.27 Q2227.66 1513.66 2233.47 1513.66 Z" fill="#000000" fill-rule="nonzero" fill-opacity="1" /><path clip-path="url(#clip400)" d="M2263.64 1517.37 Q2260.02 1517.37 2258.2 1520.93 Q2256.39 1524.47 2256.39 1531.6 Q2256.39 1538.71 2258.2 1542.27 Q2260.02 1545.82 2263.64 1545.82 Q2267.27 1545.82 2269.07 1542.27 Q2270.9 1538.71 2270.9 1531.6 Q2270.9 1524.47 2269.07 1520.93 Q2267.27 1517.37 2263.64 1517.37 M2263.64 1513.66 Q2269.45 1513.66 2272.5 1518.27 Q2275.58 1522.85 2275.58 1531.6 Q2275.58 1540.33 2272.5 1544.94 Q2269.45 1549.52 2263.64 1549.52 Q2257.82 1549.52 2254.75 1544.94 Q2251.69 1540.33 2251.69 1531.6 Q2251.69 1522.85 2254.75 1518.27 Q2257.82 1513.66 2263.64 1513.66 Z" fill="#000000" fill-rule="nonzero" fill-opacity="1" /><polyline clip-path="url(#clip400)" style="stroke:#000000; stroke-linecap:round; stroke-linejoin:round; stroke-width:4; stroke-opacity:1; fill:none" points="156.112,1486.45 156.112,47.2441 "/>
<polyline clip-path="url(#clip400)" style="stroke:#000000; stroke-linecap:round; stroke-linejoin:round; stroke-width:4; stroke-opacity:1; fill:none" points="156.112,1486.45 175.01,1486.45 "/>
<polyline clip-path="url(#clip400)" style="stroke:#000000; stroke-linecap:round; stroke-linejoin:round; stroke-width:4; stroke-opacity:1; fill:none" points="156.112,1107.71 175.01,1107.71 "/>
<polyline clip-path="url(#clip400)" style="stroke:#000000; stroke-linecap:round; stroke-linejoin:round; stroke-width:4; stroke-opacity:1; fill:none" points="156.112,728.972 175.01,728.972 "/>
<polyline clip-path="url(#clip400)" style="stroke:#000000; stroke-linecap:round; stroke-linejoin:round; stroke-width:4; stroke-opacity:1; fill:none" points="156.112,350.234 175.01,350.234 "/>
<path clip-path="url(#clip400)" d="M62.9365 1472.25 Q59.3254 1472.25 57.4967 1475.81 Q55.6912 1479.35 55.6912 1486.48 Q55.6912 1493.59 57.4967 1497.15 Q59.3254 1500.7 62.9365 1500.7 Q66.5707 1500.7 68.3763 1497.15 Q70.205 1493.59 70.205 1486.48 Q70.205 1479.35 68.3763 1475.81 Q66.5707 1472.25 62.9365 1472.25 M62.9365 1468.54 Q68.7467 1468.54 71.8022 1473.15 Q74.8809 1477.73 74.8809 1486.48 Q74.8809 1495.21 71.8022 1499.82 Q68.7467 1504.4 62.9365 1504.4 Q57.1264 1504.4 54.0477 1499.82 Q50.9921 1495.21 50.9921 1486.48 Q50.9921 1477.73 54.0477 1473.15 Q57.1264 1468.54 62.9365 1468.54 Z" fill="#000000" fill-rule="nonzero" fill-opacity="1" /><path clip-path="url(#clip400)" d="M83.0984 1497.85 L87.9827 1497.85 L87.9827 1503.73 L83.0984 1503.73 L83.0984 1497.85 Z" fill="#000000" fill-rule="nonzero" fill-opacity="1" /><path clip-path="url(#clip400)" d="M108.168 1472.25 Q104.557 1472.25 102.728 1475.81 Q100.922 1479.35 100.922 1486.48 Q100.922 1493.59 102.728 1497.15 Q104.557 1500.7 108.168 1500.7 Q111.802 1500.7 113.608 1497.15 Q115.436 1493.59 115.436 1486.48 Q115.436 1479.35 113.608 1475.81 Q111.802 1472.25 108.168 1472.25 M108.168 1468.54 Q113.978 1468.54 117.033 1473.15 Q120.112 1477.73 120.112 1486.48 Q120.112 1495.21 117.033 1499.82 Q113.978 1504.4 108.168 1504.4 Q102.358 1504.4 99.2789 1499.82 Q96.2234 1495.21 96.2234 1486.48 Q96.2234 1477.73 99.2789 1473.15 Q102.358 1468.54 108.168 1468.54 Z" fill="#000000" fill-rule="nonzero" fill-opacity="1" /><path clip-path="url(#clip400)" d="M63.9319 1093.51 Q60.3208 1093.51 58.4921 1097.07 Q56.6865 1100.62 56.6865 1107.74 Q56.6865 1114.85 58.4921 1118.42 Q60.3208 1121.96 63.9319 1121.96 Q67.5661 1121.96 69.3717 1118.42 Q71.2004 1114.85 71.2004 1107.74 Q71.2004 1100.62 69.3717 1097.07 Q67.5661 1093.51 63.9319 1093.51 M63.9319 1089.81 Q69.742 1089.81 72.7976 1094.41 Q75.8763 1098.99 75.8763 1107.74 Q75.8763 1116.47 72.7976 1121.08 Q69.742 1125.66 63.9319 1125.66 Q58.1217 1125.66 55.043 1121.08 Q51.9875 1116.47 51.9875 1107.74 Q51.9875 1098.99 55.043 1094.41 Q58.1217 1089.81 63.9319 1089.81 Z" fill="#000000" fill-rule="nonzero" fill-opacity="1" /><path clip-path="url(#clip400)" d="M84.0938 1119.11 L88.978 1119.11 L88.978 1124.99 L84.0938 1124.99 L84.0938 1119.11 Z" fill="#000000" fill-rule="nonzero" fill-opacity="1" /><path clip-path="url(#clip400)" d="M99.2095 1090.43 L117.566 1090.43 L117.566 1094.37 L103.492 1094.37 L103.492 1102.84 Q104.51 1102.49 105.529 1102.33 Q106.547 1102.14 107.566 1102.14 Q113.353 1102.14 116.733 1105.31 Q120.112 1108.49 120.112 1113.9 Q120.112 1119.48 116.64 1122.58 Q113.168 1125.66 106.848 1125.66 Q104.672 1125.66 102.404 1125.29 Q100.159 1124.92 97.7511 1124.18 L97.7511 1119.48 Q99.8345 1120.62 102.057 1121.17 Q104.279 1121.73 106.756 1121.73 Q110.76 1121.73 113.098 1119.62 Q115.436 1117.51 115.436 1113.9 Q115.436 1110.29 113.098 1108.18 Q110.76 1106.08 106.756 1106.08 Q104.881 1106.08 103.006 1106.49 Q101.154 1106.91 99.2095 1107.79 L99.2095 1090.43 Z" fill="#000000" fill-rule="nonzero" fill-opacity="1" /><path clip-path="url(#clip400)" d="M53.7467 742.317 L61.3856 742.317 L61.3856 715.951 L53.0754 717.618 L53.0754 713.359 L61.3393 711.692 L66.0152 711.692 L66.0152 742.317 L73.654 742.317 L73.654 746.252 L53.7467 746.252 L53.7467 742.317 Z" fill="#000000" fill-rule="nonzero" fill-opacity="1" /><path clip-path="url(#clip400)" d="M83.0984 740.373 L87.9827 740.373 L87.9827 746.252 L83.0984 746.252 L83.0984 740.373 Z" fill="#000000" fill-rule="nonzero" fill-opacity="1" /><path clip-path="url(#clip400)" d="M108.168 714.771 Q104.557 714.771 102.728 718.336 Q100.922 721.877 100.922 729.007 Q100.922 736.113 102.728 739.678 Q104.557 743.22 108.168 743.22 Q111.802 743.22 113.608 739.678 Q115.436 736.113 115.436 729.007 Q115.436 721.877 113.608 718.336 Q111.802 714.771 108.168 714.771 M108.168 711.067 Q113.978 711.067 117.033 715.674 Q120.112 720.257 120.112 729.007 Q120.112 737.734 117.033 742.34 Q113.978 746.923 108.168 746.923 Q102.358 746.923 99.2789 742.34 Q96.2234 737.734 96.2234 729.007 Q96.2234 720.257 99.2789 715.674 Q102.358 711.067 108.168 711.067 Z" fill="#000000" fill-rule="nonzero" fill-opacity="1" /><path clip-path="url(#clip400)" d="M54.7421 363.579 L62.381 363.579 L62.381 337.214 L54.0708 338.88 L54.0708 334.621 L62.3347 332.954 L67.0106 332.954 L67.0106 363.579 L74.6494 363.579 L74.6494 367.514 L54.7421 367.514 L54.7421 363.579 Z" fill="#000000" fill-rule="nonzero" fill-opacity="1" /><path clip-path="url(#clip400)" d="M84.0938 361.635 L88.978 361.635 L88.978 367.514 L84.0938 367.514 L84.0938 361.635 Z" fill="#000000" fill-rule="nonzero" fill-opacity="1" /><path clip-path="url(#clip400)" d="M99.2095 332.954 L117.566 332.954 L117.566 336.89 L103.492 336.89 L103.492 345.362 Q104.51 345.014 105.529 344.852 Q106.547 344.667 107.566 344.667 Q113.353 344.667 116.733 347.839 Q120.112 351.01 120.112 356.426 Q120.112 362.005 116.64 365.107 Q113.168 368.186 106.848 368.186 Q104.672 368.186 102.404 367.815 Q100.159 367.445 97.7511 366.704 L97.7511 362.005 Q99.8345 363.139 102.057 363.695 Q104.279 364.25 106.756 364.25 Q110.76 364.25 113.098 362.144 Q115.436 360.038 115.436 356.426 Q115.436 352.815 113.098 350.709 Q110.76 348.602 106.756 348.602 Q104.881 348.602 103.006 349.019 Q101.154 349.436 99.2095 350.315 L99.2095 332.954 Z" fill="#000000" fill-rule="nonzero" fill-opacity="1" /><path clip-path="url(#clip402)" d="M276.931 728.972 L276.931 1486.45 L297.28 1486.45 L297.28 728.972 L276.931 728.972 L276.931 728.972  Z" fill="#009af9" fill-rule="evenodd" fill-opacity="1"/>
<polyline clip-path="url(#clip402)" style="stroke:#000000; stroke-linecap:round; stroke-linejoin:round; stroke-width:4; stroke-opacity:1; fill:none" points="276.931,728.972 276.931,1486.45 297.28,1486.45 297.28,728.972 276.931,728.972 "/>
<path clip-path="url(#clip402)" d="M885.541 653.225 L885.541 1486.45 L905.89 1486.45 L905.89 653.225 L885.541 653.225 L885.541 653.225  Z" fill="#009af9" fill-rule="evenodd" fill-opacity="1"/>
<polyline clip-path="url(#clip402)" style="stroke:#000000; stroke-linecap:round; stroke-linejoin:round; stroke-width:4; stroke-opacity:1; fill:none" points="885.541,653.225 885.541,1486.45 905.89,1486.45 905.89,653.225 885.541,653.225 "/>
<path clip-path="url(#clip402)" d="M1385.19 577.477 L1385.19 1486.45 L1405.54 1486.45 L1405.54 577.477 L1385.19 577.477 L1385.19 577.477  Z" fill="#009af9" fill-rule="evenodd" fill-opacity="1"/>
<polyline clip-path="url(#clip402)" style="stroke:#000000; stroke-linecap:round; stroke-linejoin:round; stroke-width:4; stroke-opacity:1; fill:none" points="1385.19,577.477 1385.19,1486.45 1405.54,1486.45 1405.54,577.477 1385.19,577.477 "/>
<path clip-path="url(#clip402)" d="M1770.88 501.729 L1770.88 1486.45 L1791.23 1486.45 L1791.23 501.729 L1770.88 501.729 L1770.88 501.729  Z" fill="#009af9" fill-rule="evenodd" fill-opacity="1"/>
<polyline clip-path="url(#clip402)" style="stroke:#000000; stroke-linecap:round; stroke-linejoin:round; stroke-width:4; stroke-opacity:1; fill:none" points="1770.88,501.729 1770.88,1486.45 1791.23,1486.45 1791.23,501.729 1770.88,501.729 "/>
<path clip-path="url(#clip402)" d="M2038.76 425.982 L2038.76 1486.45 L2059.11 1486.45 L2059.11 425.982 L2038.76 425.982 L2038.76 425.982  Z" fill="#009af9" fill-rule="evenodd" fill-opacity="1"/>
<polyline clip-path="url(#clip402)" style="stroke:#000000; stroke-linecap:round; stroke-linejoin:round; stroke-width:4; stroke-opacity:1; fill:none" points="2038.76,425.982 2038.76,1486.45 2059.11,1486.45 2059.11,425.982 2038.76,425.982 "/>
<path clip-path="url(#clip402)" d="M2186.15 350.234 L2186.15 1486.45 L2206.5 1486.45 L2206.5 350.234 L2186.15 350.234 L2186.15 350.234  Z" fill="#009af9" fill-rule="evenodd" fill-opacity="1"/>
<polyline clip-path="url(#clip402)" style="stroke:#000000; stroke-linecap:round; stroke-linejoin:round; stroke-width:4; stroke-opacity:1; fill:none" points="2186.15,350.234 2186.15,1486.45 2206.5,1486.45 2206.5,350.234 2186.15,350.234 "/>
<path clip-path="url(#clip402)" d="M2211.59 274.487 L2211.59 1486.45 L2231.94 1486.45 L2231.94 274.487 L2211.59 274.487 L2211.59 274.487  Z" fill="#009af9" fill-rule="evenodd" fill-opacity="1"/>
<polyline clip-path="url(#clip402)" style="stroke:#000000; stroke-linecap:round; stroke-linejoin:round; stroke-width:4; stroke-opacity:1; fill:none" points="2211.59,274.487 2211.59,1486.45 2231.94,1486.45 2231.94,274.487 2211.59,274.487 "/>
<path clip-path="url(#clip402)" d="M2114.81 198.739 L2114.81 1486.45 L2135.16 1486.45 L2135.16 198.739 L2114.81 198.739 L2114.81 198.739  Z" fill="#009af9" fill-rule="evenodd" fill-opacity="1"/>
<polyline clip-path="url(#clip402)" style="stroke:#000000; stroke-linecap:round; stroke-linejoin:round; stroke-width:4; stroke-opacity:1; fill:none" points="2114.81,198.739 2114.81,1486.45 2135.16,1486.45 2135.16,198.739 2114.81,198.739 "/>
<path clip-path="url(#clip402)" d="M1896.79 122.992 L1896.79 1486.45 L1917.14 1486.45 L1917.14 122.992 L1896.79 122.992 L1896.79 122.992  Z" fill="#009af9" fill-rule="evenodd" fill-opacity="1"/>
<polyline clip-path="url(#clip402)" style="stroke:#000000; stroke-linecap:round; stroke-linejoin:round; stroke-width:4; stroke-opacity:1; fill:none" points="1896.79,122.992 1896.79,1486.45 1917.14,1486.45 1917.14,122.992 1896.79,122.992 "/>
<path clip-path="url(#clip402)" d="M1559.7 47.2441 L1559.7 1486.45 L1580.04 1486.45 L1580.04 47.2441 L1559.7 47.2441 L1559.7 47.2441  Z" fill="#009af9" fill-rule="evenodd" fill-opacity="1"/>
<polyline clip-path="url(#clip402)" style="stroke:#000000; stroke-linecap:round; stroke-linejoin:round; stroke-width:4; stroke-opacity:1; fill:none" points="1559.7,47.2441 1559.7,1486.45 1580.04,1486.45 1580.04,47.2441 1559.7,47.2441 "/>
<circle clip-path="url(#clip402)" style="fill:#009af9; stroke:none; fill-opacity:0" cx="287.106" cy="728.972" r="2"/>
<circle clip-path="url(#clip402)" style="fill:#009af9; stroke:none; fill-opacity:0" cx="895.716" cy="653.225" r="2"/>
<circle clip-path="url(#clip402)" style="fill:#009af9; stroke:none; fill-opacity:0" cx="1395.36" cy="577.477" r="2"/>
<circle clip-path="url(#clip402)" style="fill:#009af9; stroke:none; fill-opacity:0" cx="1781.05" cy="501.729" r="2"/>
<circle clip-path="url(#clip402)" style="fill:#009af9; stroke:none; fill-opacity:0" cx="2048.93" cy="425.982" r="2"/>
<circle clip-path="url(#clip402)" style="fill:#009af9; stroke:none; fill-opacity:0" cx="2196.33" cy="350.234" r="2"/>
<circle clip-path="url(#clip402)" style="fill:#009af9; stroke:none; fill-opacity:0" cx="2221.76" cy="274.487" r="2"/>
<circle clip-path="url(#clip402)" style="fill:#009af9; stroke:none; fill-opacity:0" cx="2124.98" cy="198.739" r="2"/>
<circle clip-path="url(#clip402)" style="fill:#009af9; stroke:none; fill-opacity:0" cx="1906.96" cy="122.992" r="2"/>
<circle clip-path="url(#clip402)" style="fill:#009af9; stroke:none; fill-opacity:0" cx="1569.87" cy="47.2441" r="2"/>
<path clip-path="url(#clip400)" d="M229.334 198.898 L878.255 198.898 L878.255 95.2176 L229.334 95.2176  Z" fill="#ffffff" fill-rule="evenodd" fill-opacity="1"/>
<polyline clip-path="url(#clip400)" style="stroke:#000000; stroke-linecap:round; stroke-linejoin:round; stroke-width:4; stroke-opacity:1; fill:none" points="229.334,198.898 878.255,198.898 878.255,95.2176 229.334,95.2176 229.334,198.898 "/>
<path clip-path="url(#clip400)" d="M253.741 167.794 L400.184 167.794 L400.184 126.322 L253.741 126.322 L253.741 167.794  Z" fill="#009af9" fill-rule="evenodd" fill-opacity="1"/>
<polyline clip-path="url(#clip400)" style="stroke:#000000; stroke-linecap:round; stroke-linejoin:round; stroke-width:4; stroke-opacity:1; fill:none" points="253.741,167.794 400.184,167.794 400.184,126.322 253.741,126.322 253.741,167.794 "/>
<path clip-path="url(#clip400)" d="M445.1 139.407 L445.1 143.389 Q443.294 142.393 441.466 141.907 Q439.66 141.398 437.808 141.398 Q433.665 141.398 431.373 144.037 Q429.082 146.652 429.082 151.398 Q429.082 156.143 431.373 158.782 Q433.665 161.398 437.808 161.398 Q439.66 161.398 441.466 160.912 Q443.294 160.402 445.1 159.407 L445.1 163.342 Q443.318 164.176 441.396 164.592 Q439.498 165.009 437.345 165.009 Q431.489 165.009 428.04 161.328 Q424.591 157.648 424.591 151.398 Q424.591 145.055 428.063 141.421 Q431.558 137.787 437.623 137.787 Q439.591 137.787 441.466 138.203 Q443.341 138.597 445.1 139.407 Z" fill="#000000" fill-rule="nonzero" fill-opacity="1" /><path clip-path="url(#clip400)" d="M462.554 141.398 Q459.128 141.398 457.137 144.083 Q455.146 146.745 455.146 151.398 Q455.146 156.051 457.114 158.736 Q459.105 161.398 462.554 161.398 Q465.956 161.398 467.947 158.713 Q469.938 156.027 469.938 151.398 Q469.938 146.791 467.947 144.106 Q465.956 141.398 462.554 141.398 M462.554 137.787 Q468.109 137.787 471.28 141.398 Q474.452 145.009 474.452 151.398 Q474.452 157.764 471.28 161.398 Q468.109 165.009 462.554 165.009 Q456.975 165.009 453.804 161.398 Q450.655 157.764 450.655 151.398 Q450.655 145.009 453.804 141.398 Q456.975 137.787 462.554 137.787 Z" fill="#000000" fill-rule="nonzero" fill-opacity="1" /><path clip-path="url(#clip400)" d="M481.512 128.319 L485.771 128.319 L485.771 164.338 L481.512 164.338 L481.512 128.319 Z" fill="#000000" fill-rule="nonzero" fill-opacity="1" /><path clip-path="url(#clip400)" d="M494.243 154.106 L494.243 138.412 L498.502 138.412 L498.502 153.944 Q498.502 157.625 499.938 159.476 Q501.373 161.305 504.243 161.305 Q507.692 161.305 509.683 159.106 Q511.697 156.907 511.697 153.111 L511.697 138.412 L515.956 138.412 L515.956 164.338 L511.697 164.338 L511.697 160.356 Q510.146 162.717 508.086 163.875 Q506.049 165.009 503.34 165.009 Q498.873 165.009 496.558 162.231 Q494.243 159.453 494.243 154.106 M504.961 137.787 L504.961 137.787 Z" fill="#000000" fill-rule="nonzero" fill-opacity="1" /><path clip-path="url(#clip400)" d="M544.914 143.389 Q546.511 140.518 548.734 139.153 Q550.956 137.787 553.965 137.787 Q558.016 137.787 560.215 140.634 Q562.414 143.458 562.414 148.689 L562.414 164.338 L558.132 164.338 L558.132 148.828 Q558.132 145.102 556.812 143.296 Q555.493 141.49 552.785 141.49 Q549.474 141.49 547.553 143.69 Q545.632 145.889 545.632 149.685 L545.632 164.338 L541.349 164.338 L541.349 148.828 Q541.349 145.078 540.03 143.296 Q538.711 141.49 535.956 141.49 Q532.692 141.49 530.771 143.713 Q528.85 145.912 528.85 149.685 L528.85 164.338 L524.567 164.338 L524.567 138.412 L528.85 138.412 L528.85 142.44 Q530.308 140.055 532.345 138.921 Q534.382 137.787 537.183 137.787 Q540.007 137.787 541.974 139.222 Q543.965 140.657 544.914 143.389 Z" fill="#000000" fill-rule="nonzero" fill-opacity="1" /><path clip-path="url(#clip400)" d="M592.46 148.689 L592.46 164.338 L588.201 164.338 L588.201 148.828 Q588.201 145.148 586.766 143.319 Q585.331 141.49 582.46 141.49 Q579.011 141.49 577.021 143.69 Q575.03 145.889 575.03 149.685 L575.03 164.338 L570.747 164.338 L570.747 138.412 L575.03 138.412 L575.03 142.44 Q576.558 140.102 578.618 138.944 Q580.701 137.787 583.409 137.787 Q587.877 137.787 590.169 140.565 Q592.46 143.319 592.46 148.689 Z" fill="#000000" fill-rule="nonzero" fill-opacity="1" /><path clip-path="url(#clip400)" d="M617.437 160.402 L625.076 160.402 L625.076 134.037 L616.766 135.703 L616.766 131.444 L625.03 129.778 L629.705 129.778 L629.705 160.402 L637.344 160.402 L637.344 164.338 L617.437 164.338 L617.437 160.402 Z" fill="#000000" fill-rule="nonzero" fill-opacity="1" /><path clip-path="url(#clip400)" d="M659.103 149.453 L671.58 149.453 L671.58 153.25 L659.103 153.25 L659.103 149.453 Z" fill="#000000" fill-rule="nonzero" fill-opacity="1" /><path clip-path="url(#clip400)" d="M706.557 128.319 L706.557 131.861 L702.483 131.861 Q700.191 131.861 699.288 132.787 Q698.409 133.713 698.409 136.12 L698.409 138.412 L705.423 138.412 L705.423 141.722 L698.409 141.722 L698.409 164.338 L694.126 164.338 L694.126 141.722 L690.052 141.722 L690.052 138.412 L694.126 138.412 L694.126 136.606 Q694.126 132.278 696.14 130.31 Q698.154 128.319 702.529 128.319 L706.557 128.319 Z" fill="#000000" fill-rule="nonzero" fill-opacity="1" /><path clip-path="url(#clip400)" d="M710.122 138.412 L714.381 138.412 L714.381 164.338 L710.122 164.338 L710.122 138.412 M710.122 128.319 L714.381 128.319 L714.381 133.713 L710.122 133.713 L710.122 128.319 Z" fill="#000000" fill-rule="nonzero" fill-opacity="1" /><path clip-path="url(#clip400)" d="M738.316 142.393 Q737.598 141.977 736.742 141.791 Q735.909 141.583 734.89 141.583 Q731.279 141.583 729.335 143.944 Q727.413 146.282 727.413 150.68 L727.413 164.338 L723.131 164.338 L723.131 138.412 L727.413 138.412 L727.413 142.44 Q728.756 140.078 730.909 138.944 Q733.061 137.787 736.14 137.787 Q736.58 137.787 737.112 137.856 Q737.645 137.903 738.293 138.018 L738.316 142.393 Z" fill="#000000" fill-rule="nonzero" fill-opacity="1" /><path clip-path="url(#clip400)" d="M759.311 139.176 L759.311 143.203 Q757.506 142.277 755.561 141.815 Q753.617 141.352 751.534 141.352 Q748.362 141.352 746.765 142.324 Q745.191 143.296 745.191 145.24 Q745.191 146.722 746.325 147.578 Q747.459 148.412 750.885 149.176 L752.344 149.5 Q756.881 150.472 758.779 152.254 Q760.7 154.014 760.7 157.185 Q760.7 160.796 757.83 162.902 Q754.983 165.009 749.983 165.009 Q747.899 165.009 745.631 164.592 Q743.385 164.199 740.885 163.388 L740.885 158.99 Q743.247 160.217 745.538 160.842 Q747.83 161.444 750.075 161.444 Q753.084 161.444 754.705 160.426 Q756.325 159.384 756.325 157.509 Q756.325 155.773 755.145 154.847 Q753.987 153.921 750.029 153.064 L748.547 152.717 Q744.589 151.884 742.83 150.171 Q741.071 148.435 741.071 145.426 Q741.071 141.768 743.663 139.778 Q746.256 137.787 751.024 137.787 Q753.385 137.787 755.469 138.134 Q757.552 138.481 759.311 139.176 Z" fill="#000000" fill-rule="nonzero" fill-opacity="1" /><path clip-path="url(#clip400)" d="M771.695 131.051 L771.695 138.412 L780.469 138.412 L780.469 141.722 L771.695 141.722 L771.695 155.796 Q771.695 158.967 772.552 159.87 Q773.432 160.773 776.094 160.773 L780.469 160.773 L780.469 164.338 L776.094 164.338 Q771.163 164.338 769.288 162.509 Q767.413 160.657 767.413 155.796 L767.413 141.722 L764.288 141.722 L764.288 138.412 L767.413 138.412 L767.413 131.051 L771.695 131.051 Z" fill="#000000" fill-rule="nonzero" fill-opacity="1" /><path clip-path="url(#clip400)" d="M802.552 160.402 L810.191 160.402 L810.191 134.037 L801.88 135.703 L801.88 131.444 L810.144 129.778 L814.82 129.778 L814.82 160.402 L822.459 160.402 L822.459 164.338 L802.552 164.338 L802.552 160.402 Z" fill="#000000" fill-rule="nonzero" fill-opacity="1" /><path clip-path="url(#clip400)" d="M841.903 132.856 Q838.292 132.856 836.464 136.421 Q834.658 139.963 834.658 147.092 Q834.658 154.199 836.464 157.764 Q838.292 161.305 841.903 161.305 Q845.538 161.305 847.343 157.764 Q849.172 154.199 849.172 147.092 Q849.172 139.963 847.343 136.421 Q845.538 132.856 841.903 132.856 M841.903 129.153 Q847.714 129.153 850.769 133.759 Q853.848 138.342 853.848 147.092 Q853.848 155.819 850.769 160.426 Q847.714 165.009 841.903 165.009 Q836.093 165.009 833.015 160.426 Q829.959 155.819 829.959 147.092 Q829.959 138.342 833.015 133.759 Q836.093 129.153 841.903 129.153 Z" fill="#000000" fill-rule="nonzero" fill-opacity="1" /></svg>
