<?xml version="1.0" encoding="utf-8"?>
<svg xmlns="http://www.w3.org/2000/svg" xmlns:xlink="http://www.w3.org/1999/xlink" width="600" height="400" viewBox="0 0 2400 1600">
<defs>
  <clipPath id="clip340">
    <rect x="0" y="0" width="2400" height="1600"/>
  </clipPath>
</defs>
<path clip-path="url(#clip340)" d="M0 1600 L2400 1600 L2400 0 L0 0  Z" fill="#ffffff" fill-rule="evenodd" fill-opacity="1"/>
<defs>
  <clipPath id="clip341">
    <rect x="480" y="0" width="1681" height="1600"/>
  </clipPath>
</defs>
<path clip-path="url(#clip340)" d="M141.853 1486.45 L2352.76 1486.45 L2352.76 47.2441 L141.853 47.2441  Z" fill="#ffffff" fill-rule="evenodd" fill-opacity="1"/>
<defs>
  <clipPath id="clip342">
    <rect x="141" y="47" width="2212" height="1440"/>
  </clipPath>
</defs>
<polyline clip-path="url(#clip342)" style="stroke:#000000; stroke-linecap:round; stroke-linejoin:round; stroke-width:2; stroke-opacity:0.1; fill:none" points="181.251,1486.45 181.251,47.2441 "/>
<polyline clip-path="url(#clip342)" style="stroke:#000000; stroke-linecap:round; stroke-linejoin:round; stroke-width:2; stroke-opacity:0.1; fill:none" points="644.752,1486.45 644.752,47.2441 "/>
<polyline clip-path="url(#clip342)" style="stroke:#000000; stroke-linecap:round; stroke-linejoin:round; stroke-width:2; stroke-opacity:0.1; fill:none" points="1108.25,1486.45 1108.25,47.2441 "/>
<polyline clip-path="url(#clip342)" style="stroke:#000000; stroke-linecap:round; stroke-linejoin:round; stroke-width:2; stroke-opacity:0.1; fill:none" points="1571.76,1486.45 1571.76,47.2441 "/>
<polyline clip-path="url(#clip342)" style="stroke:#000000; stroke-linecap:round; stroke-linejoin:round; stroke-width:2; stroke-opacity:0.1; fill:none" points="2035.26,1486.45 2035.26,47.2441 "/>
<polyline clip-path="url(#clip342)" style="stroke:#000000; stroke-linecap:round; stroke-linejoin:round; stroke-width:2; stroke-opacity:0.1; fill:none" points="141.853,1294.86 2352.76,1294.86 "/>
<polyline clip-path="url(#clip342)" style="stroke:#000000; stroke-linecap:round; stroke-linejoin:round; stroke-width:2; stroke-opacity:0.1; fill:none" points="141.853,993.136 2352.76,993.136 "/>
<polyline clip-path="url(#clip342)" style="stroke:#000000; stroke-linecap:round; stroke-linejoin:round; stroke-width:2; stroke-opacity:0.1; fill:none" points="141.853,691.416 2352.76,691.416 "/>
<polyline clip-path="url(#clip342)" style="stroke:#000000; stroke-linecap:round; stroke-linejoin:round; stroke-width:2; stroke-opacity:0.1; fill:none" points="141.853,389.696 2352.76,389.696 "/>
<polyline clip-path="url(#clip342)" style="stroke:#000000; stroke-linecap:round; stroke-linejoin:round; stroke-width:2; stroke-opacity:0.1; fill:none" points="141.853,87.9763 2352.76,87.9763 "/>
<polyline clip-path="url(#clip340)" style="stroke:#000000; stroke-linecap:round; stroke-linejoin:round; stroke-width:4; stroke-opacity:1; fill:none" points="141.853,1486.45 2352.76,1486.45 "/>
<polyline clip-path="url(#clip340)" style="stroke:#000000; stroke-linecap:round; stroke-linejoin:round; stroke-width:4; stroke-opacity:1; fill:none" points="181.251,1486.45 181.251,1467.55 "/>
<polyline clip-path="url(#clip340)" style="stroke:#000000; stroke-linecap:round; stroke-linejoin:round; stroke-width:4; stroke-opacity:1; fill:none" points="644.752,1486.45 644.752,1467.55 "/>
<polyline clip-path="url(#clip340)" style="stroke:#000000; stroke-linecap:round; stroke-linejoin:round; stroke-width:4; stroke-opacity:1; fill:none" points="1108.25,1486.45 1108.25,1467.55 "/>
<polyline clip-path="url(#clip340)" style="stroke:#000000; stroke-linecap:round; stroke-linejoin:round; stroke-width:4; stroke-opacity:1; fill:none" points="1571.76,1486.45 1571.76,1467.55 "/>
<polyline clip-path="url(#clip340)" style="stroke:#000000; stroke-linecap:round; stroke-linejoin:round; stroke-width:4; stroke-opacity:1; fill:none" points="2035.26,1486.45 2035.26,1467.55 "/>
<path clip-path="url(#clip340)" d="M181.251 1517.37 Q177.639 1517.37 175.811 1520.93 Q174.005 1524.47 174.005 1531.6 Q174.005 1538.71 175.811 1542.27 Q177.639 1545.82 181.251 1545.82 Q184.885 1545.82 186.69 1542.27 Q188.519 1538.71 188.519 1531.6 Q188.519 1524.47 186.69 1520.93 Q184.885 1517.37 181.251 1517.37 M181.251 1513.66 Q187.061 1513.66 190.116 1518.27 Q193.195 1522.85 193.195 1531.6 Q193.195 1540.33 190.116 1544.94 Q187.061 1549.52 181.251 1549.52 Q175.44 1549.52 172.362 1544.94 Q169.306 1540.33 169.306 1531.6 Q169.306 1522.85 172.362 1518.27 Q175.44 1513.66 181.251 1513.66 Z" fill="#000000" fill-rule="nonzero" fill-opacity="1" /><path clip-path="url(#clip340)" d="M623.526 1544.91 L639.845 1544.91 L639.845 1548.85 L617.901 1548.85 L617.901 1544.91 Q620.563 1542.16 625.146 1537.53 Q629.752 1532.88 630.933 1531.53 Q633.178 1529.01 634.058 1527.27 Q634.961 1525.51 634.961 1523.82 Q634.961 1521.07 633.016 1519.33 Q631.095 1517.6 627.993 1517.6 Q625.794 1517.6 623.34 1518.36 Q620.91 1519.13 618.132 1520.68 L618.132 1515.95 Q620.956 1514.82 623.41 1514.24 Q625.863 1513.66 627.9 1513.66 Q633.271 1513.66 636.465 1516.35 Q639.66 1519.03 639.66 1523.52 Q639.66 1525.65 638.85 1527.57 Q638.062 1529.47 635.956 1532.07 Q635.377 1532.74 632.275 1535.95 Q629.174 1539.15 623.526 1544.91 Z" fill="#000000" fill-rule="nonzero" fill-opacity="1" /><path clip-path="url(#clip340)" d="M659.66 1517.37 Q656.048 1517.37 654.22 1520.93 Q652.414 1524.47 652.414 1531.6 Q652.414 1538.71 654.22 1542.27 Q656.048 1545.82 659.66 1545.82 Q663.294 1545.82 665.099 1542.27 Q666.928 1538.71 666.928 1531.6 Q666.928 1524.47 665.099 1520.93 Q663.294 1517.37 659.66 1517.37 M659.66 1513.66 Q665.47 1513.66 668.525 1518.27 Q671.604 1522.85 671.604 1531.6 Q671.604 1540.33 668.525 1544.94 Q665.47 1549.52 659.66 1549.52 Q653.849 1549.52 650.771 1544.94 Q647.715 1540.33 647.715 1531.6 Q647.715 1522.85 650.771 1518.27 Q653.849 1513.66 659.66 1513.66 Z" fill="#000000" fill-rule="nonzero" fill-opacity="1" /><path clip-path="url(#clip340)" d="M1096.43 1518.36 L1084.62 1536.81 L1096.43 1536.81 L1096.43 1518.36 M1095.2 1514.29 L1101.08 1514.29 L1101.08 1536.81 L1106.01 1536.81 L1106.01 1540.7 L1101.08 1540.7 L1101.08 1548.85 L1096.43 1548.85 L1096.43 1540.7 L1080.82 1540.7 L1080.82 1536.19 L1095.2 1514.29 Z" fill="#000000" fill-rule="nonzero" fill-opacity="1" /><path clip-path="url(#clip340)" d="M1123.74 1517.37 Q1120.13 1517.37 1118.3 1520.93 Q1116.49 1524.47 1116.49 1531.6 Q1116.49 1538.71 1118.3 1542.27 Q1120.13 1545.82 1123.74 1545.82 Q1127.37 1545.82 1129.18 1542.27 Q1131.01 1538.71 1131.01 1531.6 Q1131.01 1524.47 1129.18 1520.93 Q1127.37 1517.37 1123.74 1517.37 M1123.74 1513.66 Q1129.55 1513.66 1132.61 1518.27 Q1135.68 1522.85 1135.68 1531.6 Q1135.68 1540.33 1132.61 1544.94 Q1129.55 1549.52 1123.74 1549.52 Q1117.93 1549.52 1114.85 1544.94 Q1111.8 1540.33 1111.8 1531.6 Q1111.8 1522.85 1114.85 1518.27 Q1117.93 1513.66 1123.74 1513.66 Z" fill="#000000" fill-rule="nonzero" fill-opacity="1" /><path clip-path="url(#clip340)" d="M1557.16 1529.7 Q1554.01 1529.7 1552.16 1531.86 Q1550.33 1534.01 1550.33 1537.76 Q1550.33 1541.49 1552.16 1543.66 Q1554.01 1545.82 1557.16 1545.82 Q1560.31 1545.82 1562.14 1543.66 Q1563.99 1541.49 1563.99 1537.76 Q1563.99 1534.01 1562.14 1531.86 Q1560.31 1529.7 1557.16 1529.7 M1566.44 1515.05 L1566.44 1519.31 Q1564.68 1518.48 1562.88 1518.04 Q1561.1 1517.6 1559.34 1517.6 Q1554.71 1517.6 1552.25 1520.72 Q1549.82 1523.85 1549.48 1530.17 Q1550.84 1528.15 1552.9 1527.09 Q1554.96 1526 1557.44 1526 Q1562.65 1526 1565.66 1529.17 Q1568.69 1532.32 1568.69 1537.76 Q1568.69 1543.08 1565.54 1546.3 Q1562.39 1549.52 1557.16 1549.52 Q1551.17 1549.52 1547.99 1544.94 Q1544.82 1540.33 1544.82 1531.6 Q1544.82 1523.41 1548.71 1518.55 Q1552.6 1513.66 1559.15 1513.66 Q1560.91 1513.66 1562.69 1514.01 Q1564.5 1514.36 1566.44 1515.05 Z" fill="#000000" fill-rule="nonzero" fill-opacity="1" /><path clip-path="url(#clip340)" d="M1586.74 1517.37 Q1583.13 1517.37 1581.3 1520.93 Q1579.5 1524.47 1579.5 1531.6 Q1579.5 1538.71 1581.3 1542.27 Q1583.13 1545.82 1586.74 1545.82 Q1590.38 1545.82 1592.18 1542.27 Q1594.01 1538.71 1594.01 1531.6 Q1594.01 1524.47 1592.18 1520.93 Q1590.38 1517.37 1586.74 1517.37 M1586.74 1513.66 Q1592.55 1513.66 1595.61 1518.27 Q1598.69 1522.85 1598.69 1531.6 Q1598.69 1540.33 1595.61 1544.94 Q1592.55 1549.52 1586.74 1549.52 Q1580.93 1549.52 1577.86 1544.94 Q1574.8 1540.33 1574.8 1531.6 Q1574.8 1522.85 1577.86 1518.27 Q1580.93 1513.66 1586.74 1513.66 Z" fill="#000000" fill-rule="nonzero" fill-opacity="1" /><path clip-path="url(#clip340)" d="M2020.13 1532.44 Q2016.8 1532.44 2014.88 1534.22 Q2012.98 1536 2012.98 1539.13 Q2012.98 1542.25 2014.88 1544.03 Q2016.8 1545.82 2020.13 1545.82 Q2023.46 1545.82 2025.38 1544.03 Q2027.31 1542.23 2027.31 1539.13 Q2027.31 1536 2025.38 1534.22 Q2023.49 1532.44 2020.13 1532.44 M2015.45 1530.45 Q2012.44 1529.7 2010.76 1527.64 Q2009.09 1525.58 2009.09 1522.62 Q2009.09 1518.48 2012.03 1516.07 Q2014.99 1513.66 2020.13 1513.66 Q2025.29 1513.66 2028.23 1516.07 Q2031.17 1518.48 2031.17 1522.62 Q2031.17 1525.58 2029.48 1527.64 Q2027.82 1529.7 2024.83 1530.45 Q2028.21 1531.23 2030.08 1533.52 Q2031.98 1535.82 2031.98 1539.13 Q2031.98 1544.15 2028.9 1546.83 Q2025.85 1549.52 2020.13 1549.52 Q2014.41 1549.52 2011.33 1546.83 Q2008.28 1544.15 2008.28 1539.13 Q2008.28 1535.82 2010.18 1533.52 Q2012.07 1531.23 2015.45 1530.45 M2013.74 1523.06 Q2013.74 1525.75 2015.41 1527.25 Q2017.1 1528.76 2020.13 1528.76 Q2023.14 1528.76 2024.83 1527.25 Q2026.54 1525.75 2026.54 1523.06 Q2026.54 1520.38 2024.83 1518.87 Q2023.14 1517.37 2020.13 1517.37 Q2017.1 1517.37 2015.41 1518.87 Q2013.74 1520.38 2013.74 1523.06 Z" fill="#000000" fill-rule="nonzero" fill-opacity="1" /><path clip-path="url(#clip340)" d="M2050.29 1517.37 Q2046.68 1517.37 2044.85 1520.93 Q2043.05 1524.47 2043.05 1531.6 Q2043.05 1538.71 2044.85 1542.27 Q2046.68 1545.82 2050.29 1545.82 Q2053.93 1545.82 2055.73 1542.27 Q2057.56 1538.71 2057.56 1531.6 Q2057.56 1524.47 2055.73 1520.93 Q2053.93 1517.37 2050.29 1517.37 M2050.29 1513.66 Q2056.1 1513.66 2059.16 1518.27 Q2062.24 1522.85 2062.24 1531.6 Q2062.24 1540.33 2059.16 1544.94 Q2056.1 1549.52 2050.29 1549.52 Q2044.48 1549.52 2041.4 1544.94 Q2038.35 1540.33 2038.35 1531.6 Q2038.35 1522.85 2041.4 1518.27 Q2044.48 1513.66 2050.29 1513.66 Z" fill="#000000" fill-rule="nonzero" fill-opacity="1" /><polyline clip-path="url(#clip340)" style="stroke:#000000; stroke-linecap:round; stroke-linejoin:round; stroke-width:4; stroke-opacity:1; fill:none" points="141.853,1486.45 141.853,47.2441 "/>
<polyline clip-path="url(#clip340)" style="stroke:#000000; stroke-linecap:round; stroke-linejoin:round; stroke-width:4; stroke-opacity:1; fill:none" points="141.853,1294.86 160.751,1294.86 "/>
<polyline clip-path="url(#clip340)" style="stroke:#000000; stroke-linecap:round; stroke-linejoin:round; stroke-width:4; stroke-opacity:1; fill:none" points="141.853,993.136 160.751,993.136 "/>
<polyline clip-path="url(#clip340)" style="stroke:#000000; stroke-linecap:round; stroke-linejoin:round; stroke-width:4; stroke-opacity:1; fill:none" points="141.853,691.416 160.751,691.416 "/>
<polyline clip-path="url(#clip340)" style="stroke:#000000; stroke-linecap:round; stroke-linejoin:round; stroke-width:4; stroke-opacity:1; fill:none" points="141.853,389.696 160.751,389.696 "/>
<polyline clip-path="url(#clip340)" style="stroke:#000000; stroke-linecap:round; stroke-linejoin:round; stroke-width:4; stroke-opacity:1; fill:none" points="141.853,87.9763 160.751,87.9763 "/>
<path clip-path="url(#clip340)" d="M54.5569 1308.2 L62.1958 1308.2 L62.1958 1281.83 L53.8856 1283.5 L53.8856 1279.24 L62.1495 1277.58 L66.8254 1277.58 L66.8254 1308.2 L74.4642 1308.2 L74.4642 1312.14 L54.5569 1312.14 L54.5569 1308.2 Z" fill="#000000" fill-rule="nonzero" fill-opacity="1" /><path clip-path="url(#clip340)" d="M93.9086 1280.65 Q90.2975 1280.65 88.4688 1284.22 Q86.6632 1287.76 86.6632 1294.89 Q86.6632 1302 88.4688 1305.56 Q90.2975 1309.1 93.9086 1309.1 Q97.5428 1309.1 99.3483 1305.56 Q101.177 1302 101.177 1294.89 Q101.177 1287.76 99.3483 1284.22 Q97.5428 1280.65 93.9086 1280.65 M93.9086 1276.95 Q99.7187 1276.95 102.774 1281.56 Q105.853 1286.14 105.853 1294.89 Q105.853 1303.62 102.774 1308.22 Q99.7187 1312.81 93.9086 1312.81 Q88.0984 1312.81 85.0197 1308.22 Q81.9642 1303.62 81.9642 1294.89 Q81.9642 1286.14 85.0197 1281.56 Q88.0984 1276.95 93.9086 1276.95 Z" fill="#000000" fill-rule="nonzero" fill-opacity="1" /><path clip-path="url(#clip340)" d="M57.7745 1006.48 L74.0939 1006.48 L74.0939 1010.42 L52.1495 1010.42 L52.1495 1006.48 Q54.8115 1003.73 59.3949 999.097 Q64.0013 994.444 65.1819 993.101 Q67.4272 990.578 68.3068 988.842 Q69.2096 987.083 69.2096 985.393 Q69.2096 982.638 67.2652 980.902 Q65.3439 979.166 62.2421 979.166 Q60.043 979.166 57.5893 979.93 Q55.1588 980.694 52.381 982.245 L52.381 977.523 Q55.2051 976.388 57.6588 975.81 Q60.1124 975.231 62.1495 975.231 Q67.5198 975.231 70.7142 977.916 Q73.9087 980.601 73.9087 985.092 Q73.9087 987.222 73.0985 989.143 Q72.3115 991.041 70.205 993.634 Q69.6263 994.305 66.5245 997.522 Q63.4226 1000.72 57.7745 1006.48 Z" fill="#000000" fill-rule="nonzero" fill-opacity="1" /><path clip-path="url(#clip340)" d="M93.9086 978.935 Q90.2975 978.935 88.4688 982.499 Q86.6632 986.041 86.6632 993.171 Q86.6632 1000.28 88.4688 1003.84 Q90.2975 1007.38 93.9086 1007.38 Q97.5428 1007.38 99.3483 1003.84 Q101.177 1000.28 101.177 993.171 Q101.177 986.041 99.3483 982.499 Q97.5428 978.935 93.9086 978.935 M93.9086 975.231 Q99.7187 975.231 102.774 979.837 Q105.853 984.421 105.853 993.171 Q105.853 1001.9 102.774 1006.5 Q99.7187 1011.09 93.9086 1011.09 Q88.0984 1011.09 85.0197 1006.5 Q81.9642 1001.9 81.9642 993.171 Q81.9642 984.421 85.0197 979.837 Q88.0984 975.231 93.9086 975.231 Z" fill="#000000" fill-rule="nonzero" fill-opacity="1" /><path clip-path="url(#clip340)" d="M67.9133 690.062 Q71.2698 690.779 73.1448 693.048 Q75.0429 695.316 75.0429 698.65 Q75.0429 703.765 71.5244 706.566 Q68.0059 709.367 61.5245 709.367 Q59.3486 709.367 57.0338 708.927 Q54.7421 708.511 52.2884 707.654 L52.2884 703.14 Q54.2328 704.275 56.5477 704.853 Q58.8625 705.432 61.3856 705.432 Q65.7837 705.432 68.0754 703.696 Q70.3902 701.96 70.3902 698.65 Q70.3902 695.594 68.2374 693.881 Q66.1078 692.145 62.2884 692.145 L58.2606 692.145 L58.2606 688.303 L62.4735 688.303 Q65.9226 688.303 67.7513 686.937 Q69.58 685.548 69.58 682.955 Q69.58 680.293 67.6819 678.881 Q65.8069 677.446 62.2884 677.446 Q60.3671 677.446 58.168 677.863 Q55.969 678.28 53.3301 679.159 L53.3301 674.992 Q55.9921 674.252 58.3069 673.881 Q60.6449 673.511 62.705 673.511 Q68.0291 673.511 71.1309 675.942 Q74.2327 678.349 74.2327 682.469 Q74.2327 685.34 72.5892 687.33 Q70.9457 689.298 67.9133 690.062 Z" fill="#000000" fill-rule="nonzero" fill-opacity="1" /><path clip-path="url(#clip340)" d="M93.9086 677.215 Q90.2975 677.215 88.4688 680.779 Q86.6632 684.321 86.6632 691.451 Q86.6632 698.557 88.4688 702.122 Q90.2975 705.664 93.9086 705.664 Q97.5428 705.664 99.3483 702.122 Q101.177 698.557 101.177 691.451 Q101.177 684.321 99.3483 680.779 Q97.5428 677.215 93.9086 677.215 M93.9086 673.511 Q99.7187 673.511 102.774 678.117 Q105.853 682.701 105.853 691.451 Q105.853 700.178 102.774 704.784 Q99.7187 709.367 93.9086 709.367 Q88.0984 709.367 85.0197 704.784 Q81.9642 700.178 81.9642 691.451 Q81.9642 682.701 85.0197 678.117 Q88.0984 673.511 93.9086 673.511 Z" fill="#000000" fill-rule="nonzero" fill-opacity="1" /><path clip-path="url(#clip340)" d="M66.5939 376.49 L54.7884 394.939 L66.5939 394.939 L66.5939 376.49 M65.367 372.416 L71.2466 372.416 L71.2466 394.939 L76.1772 394.939 L76.1772 398.828 L71.2466 398.828 L71.2466 406.976 L66.5939 406.976 L66.5939 398.828 L50.9921 398.828 L50.9921 394.314 L65.367 372.416 Z" fill="#000000" fill-rule="nonzero" fill-opacity="1" /><path clip-path="url(#clip340)" d="M93.9086 375.495 Q90.2975 375.495 88.4688 379.06 Q86.6632 382.601 86.6632 389.731 Q86.6632 396.837 88.4688 400.402 Q90.2975 403.944 93.9086 403.944 Q97.5428 403.944 99.3483 400.402 Q101.177 396.837 101.177 389.731 Q101.177 382.601 99.3483 379.06 Q97.5428 375.495 93.9086 375.495 M93.9086 371.791 Q99.7187 371.791 102.774 376.398 Q105.853 380.981 105.853 389.731 Q105.853 398.458 102.774 403.064 Q99.7187 407.647 93.9086 407.647 Q88.0984 407.647 85.0197 403.064 Q81.9642 398.458 81.9642 389.731 Q81.9642 380.981 85.0197 376.398 Q88.0984 371.791 93.9086 371.791 Z" fill="#000000" fill-rule="nonzero" fill-opacity="1" /><path clip-path="url(#clip340)" d="M53.793 70.6963 L72.1494 70.6963 L72.1494 74.6314 L58.0754 74.6314 L58.0754 83.1036 Q59.0939 82.7564 60.1124 82.5944 Q61.131 82.4092 62.1495 82.4092 Q67.9365 82.4092 71.3161 85.5805 Q74.6957 88.7517 74.6957 94.1684 Q74.6957 99.747 71.2235 102.849 Q67.7513 105.928 61.4319 105.928 Q59.256 105.928 56.9875 105.557 Q54.7421 105.187 52.3347 104.446 L52.3347 99.747 Q54.418 100.881 56.6402 101.437 Q58.8625 101.992 61.3393 101.992 Q65.3439 101.992 67.6819 99.8859 Q70.0198 97.7795 70.0198 94.1684 Q70.0198 90.5573 67.6819 88.4508 Q65.3439 86.3443 61.3393 86.3443 Q59.4643 86.3443 57.5893 86.761 Q55.7375 87.1777 53.793 88.0573 L53.793 70.6963 Z" fill="#000000" fill-rule="nonzero" fill-opacity="1" /><path clip-path="url(#clip340)" d="M93.9086 73.775 Q90.2975 73.775 88.4688 77.3398 Q86.6632 80.8814 86.6632 88.011 Q86.6632 95.1174 88.4688 98.6822 Q90.2975 102.224 93.9086 102.224 Q97.5428 102.224 99.3483 98.6822 Q101.177 95.1174 101.177 88.011 Q101.177 80.8814 99.3483 77.3398 Q97.5428 73.775 93.9086 73.775 M93.9086 70.0713 Q99.7187 70.0713 102.774 74.6777 Q105.853 79.261 105.853 88.011 Q105.853 96.7378 102.774 101.344 Q99.7187 105.928 93.9086 105.928 Q88.0984 105.928 85.0197 101.344 Q81.9642 96.7378 81.9642 88.011 Q81.9642 79.261 85.0197 74.6777 Q88.0984 70.0713 93.9086 70.0713 Z" fill="#000000" fill-rule="nonzero" fill-opacity="1" /><polyline clip-path="url(#clip342)" style="stroke:#009af9; stroke-linecap:round; stroke-linejoin:round; stroke-width:4; stroke-opacity:1; fill:none" points="204.426,1445.72 227.601,1430.63 250.776,1415.54 273.951,1400.46 297.126,1385.37 320.301,1370.29 343.476,1355.2 366.651,1340.11 389.826,1325.03 413.001,1309.94 436.177,1294.86 459.352,1279.77 482.527,1264.68 505.702,1249.6 528.877,1234.51 552.052,1219.43 575.227,1204.34 598.402,1189.25 621.577,1174.17 644.752,1159.08 667.927,1144 691.102,1128.91 714.278,1113.82 737.453,1098.74 760.628,1083.65 783.803,1068.57 806.978,1053.48 830.153,1038.39 853.328,1023.31 876.503,1008.22 899.678,993.136 922.853,978.05 946.028,962.964 969.203,947.878 992.379,932.792 1015.55,917.706 1038.73,902.62 1061.9,887.534 1085.08,872.448 1108.25,857.362 1131.43,842.276 1154.6,827.19 1177.78,812.104 1200.95,797.018 1224.13,781.932 1247.3,766.846 1270.48,751.76 1293.65,736.674 1316.83,721.588 1340,706.502 1363.18,691.416 1386.35,676.33 1409.53,661.244 1432.71,646.158 1455.88,631.072 1479.06,615.986 1502.23,600.9 1525.41,585.814 1548.58,570.728 1571.76,555.642 1594.93,540.556 1618.11,525.47 1641.28,510.384 1664.46,495.298 1687.63,480.212 1710.81,465.126 1733.98,450.04 1757.16,434.954 1780.33,419.868 1803.51,404.782 1826.68,389.696 1849.86,374.61 1873.03,359.524 1896.21,344.438 1919.38,329.352 1942.56,314.266 1965.73,299.18 1988.91,284.094 2012.08,269.008 2035.26,253.922 2058.43,238.836 2081.61,223.75 2104.78,208.664 2127.96,193.578 2151.13,178.492 2174.31,163.406 2197.48,148.32 2220.66,133.234 2243.83,118.148 2267.01,103.062 2290.18,87.9763 "/>
<path clip-path="url(#clip340)" d="M215.55 198.898 L489.07 198.898 L489.07 95.2176 L215.55 95.2176  Z" fill="#ffffff" fill-rule="evenodd" fill-opacity="1"/>
<polyline clip-path="url(#clip340)" style="stroke:#000000; stroke-linecap:round; stroke-linejoin:round; stroke-width:4; stroke-opacity:1; fill:none" points="215.55,198.898 489.07,198.898 489.07,95.2176 215.55,95.2176 215.55,198.898 "/>
<polyline clip-path="url(#clip340)" style="stroke:#009af9; stroke-linecap:round; stroke-linejoin:round; stroke-width:4; stroke-opacity:1; fill:none" points="240.115,147.058 387.509,147.058 "/>
<path clip-path="url(#clip340)" d="M425.917 166.745 Q424.111 171.375 422.398 172.787 Q420.685 174.199 417.815 174.199 L414.412 174.199 L414.412 170.634 L416.912 170.634 Q418.672 170.634 419.644 169.8 Q420.616 168.967 421.797 165.865 L422.56 163.921 L412.074 138.412 L416.588 138.412 L424.69 158.689 L432.792 138.412 L437.306 138.412 L425.917 166.745 Z" fill="#000000" fill-rule="nonzero" fill-opacity="1" /><path clip-path="url(#clip340)" d="M444.597 160.402 L452.236 160.402 L452.236 134.037 L443.926 135.703 L443.926 131.444 L452.19 129.778 L456.866 129.778 L456.866 160.402 L464.505 160.402 L464.505 164.338 L444.597 164.338 L444.597 160.402 Z" fill="#000000" fill-rule="nonzero" fill-opacity="1" /></svg>
