<?xml version="1.0" encoding="utf-8"?>
<svg xmlns="http://www.w3.org/2000/svg" xmlns:xlink="http://www.w3.org/1999/xlink" width="600" height="400" viewBox="0 0 2400 1600">
<defs>
  <clipPath id="clip430">
    <rect x="0" y="0" width="2400" height="1600"/>
  </clipPath>
</defs>
<path clip-path="url(#clip430)" d="M0 1600 L2400 1600 L2400 0 L0 0  Z" fill="#ffffff" fill-rule="evenodd" fill-opacity="1"/>
<defs>
  <clipPath id="clip431">
    <rect x="480" y="0" width="1681" height="1600"/>
  </clipPath>
</defs>
<path clip-path="url(#clip430)" d="M138.959 1486.45 L2352.76 1486.45 L2352.76 47.2441 L138.959 47.2441  Z" fill="#ffffff" fill-rule="evenodd" fill-opacity="1"/>
<defs>
  <clipPath id="clip432">
    <rect x="138" y="47" width="2215" height="1440"/>
  </clipPath>
</defs>
<polyline clip-path="url(#clip432)" style="stroke:#000000; stroke-linecap:round; stroke-linejoin:round; stroke-width:2; stroke-opacity:0.1; fill:none" points="201.534,1486.45 201.534,47.2441 "/>
<polyline clip-path="url(#clip432)" style="stroke:#000000; stroke-linecap:round; stroke-linejoin:round; stroke-width:2; stroke-opacity:0.1; fill:none" points="723.787,1486.45 723.787,47.2441 "/>
<polyline clip-path="url(#clip432)" style="stroke:#000000; stroke-linecap:round; stroke-linejoin:round; stroke-width:2; stroke-opacity:0.1; fill:none" points="1246.04,1486.45 1246.04,47.2441 "/>
<polyline clip-path="url(#clip432)" style="stroke:#000000; stroke-linecap:round; stroke-linejoin:round; stroke-width:2; stroke-opacity:0.1; fill:none" points="1768.29,1486.45 1768.29,47.2441 "/>
<polyline clip-path="url(#clip432)" style="stroke:#000000; stroke-linecap:round; stroke-linejoin:round; stroke-width:2; stroke-opacity:0.1; fill:none" points="2290.55,1486.45 2290.55,47.2441 "/>
<polyline clip-path="url(#clip432)" style="stroke:#000000; stroke-linecap:round; stroke-linejoin:round; stroke-width:2; stroke-opacity:0.1; fill:none" points="138.959,1294.86 2352.76,1294.86 "/>
<polyline clip-path="url(#clip432)" style="stroke:#000000; stroke-linecap:round; stroke-linejoin:round; stroke-width:2; stroke-opacity:0.1; fill:none" points="138.959,993.136 2352.76,993.136 "/>
<polyline clip-path="url(#clip432)" style="stroke:#000000; stroke-linecap:round; stroke-linejoin:round; stroke-width:2; stroke-opacity:0.1; fill:none" points="138.959,691.416 2352.76,691.416 "/>
<polyline clip-path="url(#clip432)" style="stroke:#000000; stroke-linecap:round; stroke-linejoin:round; stroke-width:2; stroke-opacity:0.1; fill:none" points="138.959,389.696 2352.76,389.696 "/>
<polyline clip-path="url(#clip432)" style="stroke:#000000; stroke-linecap:round; stroke-linejoin:round; stroke-width:2; stroke-opacity:0.1; fill:none" points="138.959,87.9763 2352.76,87.9763 "/>
<polyline clip-path="url(#clip430)" style="stroke:#000000; stroke-linecap:round; stroke-linejoin:round; stroke-width:4; stroke-opacity:1; fill:none" points="138.959,1486.45 2352.76,1486.45 "/>
<polyline clip-path="url(#clip430)" style="stroke:#000000; stroke-linecap:round; stroke-linejoin:round; stroke-width:4; stroke-opacity:1; fill:none" points="201.534,1486.45 201.534,1467.55 "/>
<polyline clip-path="url(#clip430)" style="stroke:#000000; stroke-linecap:round; stroke-linejoin:round; stroke-width:4; stroke-opacity:1; fill:none" points="723.787,1486.45 723.787,1467.55 "/>
<polyline clip-path="url(#clip430)" style="stroke:#000000; stroke-linecap:round; stroke-linejoin:round; stroke-width:4; stroke-opacity:1; fill:none" points="1246.04,1486.45 1246.04,1467.55 "/>
<polyline clip-path="url(#clip430)" style="stroke:#000000; stroke-linecap:round; stroke-linejoin:round; stroke-width:4; stroke-opacity:1; fill:none" points="1768.29,1486.45 1768.29,1467.55 "/>
<polyline clip-path="url(#clip430)" style="stroke:#000000; stroke-linecap:round; stroke-linejoin:round; stroke-width:4; stroke-opacity:1; fill:none" points="2290.55,1486.45 2290.55,1467.55 "/>
<path clip-path="url(#clip430)" d="M148.062 1532.02 L177.738 1532.02 L177.738 1535.95 L148.062 1535.95 L148.062 1532.02 Z" fill="#000000" fill-rule="nonzero" fill-opacity="1" /><path clip-path="url(#clip430)" d="M188.64 1544.91 L196.279 1544.91 L196.279 1518.55 L187.969 1520.21 L187.969 1515.95 L196.233 1514.29 L200.909 1514.29 L200.909 1544.91 L208.548 1544.91 L208.548 1548.85 L188.64 1548.85 L188.64 1544.91 Z" fill="#000000" fill-rule="nonzero" fill-opacity="1" /><path clip-path="url(#clip430)" d="M217.992 1542.97 L222.876 1542.97 L222.876 1548.85 L217.992 1548.85 L217.992 1542.97 Z" fill="#000000" fill-rule="nonzero" fill-opacity="1" /><path clip-path="url(#clip430)" d="M243.061 1517.37 Q239.45 1517.37 237.622 1520.93 Q235.816 1524.47 235.816 1531.6 Q235.816 1538.71 237.622 1542.27 Q239.45 1545.82 243.061 1545.82 Q246.696 1545.82 248.501 1542.27 Q250.33 1538.71 250.33 1531.6 Q250.33 1524.47 248.501 1520.93 Q246.696 1517.37 243.061 1517.37 M243.061 1513.66 Q248.872 1513.66 251.927 1518.27 Q255.006 1522.85 255.006 1531.6 Q255.006 1540.33 251.927 1544.94 Q248.872 1549.52 243.061 1549.52 Q237.251 1549.52 234.173 1544.94 Q231.117 1540.33 231.117 1531.6 Q231.117 1522.85 234.173 1518.27 Q237.251 1513.66 243.061 1513.66 Z" fill="#000000" fill-rule="nonzero" fill-opacity="1" /><path clip-path="url(#clip430)" d="M670.813 1532.02 L700.489 1532.02 L700.489 1535.95 L670.813 1535.95 L670.813 1532.02 Z" fill="#000000" fill-rule="nonzero" fill-opacity="1" /><path clip-path="url(#clip430)" d="M720.581 1517.37 Q716.97 1517.37 715.141 1520.93 Q713.336 1524.47 713.336 1531.6 Q713.336 1538.71 715.141 1542.27 Q716.97 1545.82 720.581 1545.82 Q724.215 1545.82 726.021 1542.27 Q727.85 1538.71 727.85 1531.6 Q727.85 1524.47 726.021 1520.93 Q724.215 1517.37 720.581 1517.37 M720.581 1513.66 Q726.391 1513.66 729.447 1518.27 Q732.525 1522.85 732.525 1531.6 Q732.525 1540.33 729.447 1544.94 Q726.391 1549.52 720.581 1549.52 Q714.771 1549.52 711.692 1544.94 Q708.637 1540.33 708.637 1531.6 Q708.637 1522.85 711.692 1518.27 Q714.771 1513.66 720.581 1513.66 Z" fill="#000000" fill-rule="nonzero" fill-opacity="1" /><path clip-path="url(#clip430)" d="M740.743 1542.97 L745.627 1542.97 L745.627 1548.85 L740.743 1548.85 L740.743 1542.97 Z" fill="#000000" fill-rule="nonzero" fill-opacity="1" /><path clip-path="url(#clip430)" d="M755.859 1514.29 L774.215 1514.29 L774.215 1518.22 L760.141 1518.22 L760.141 1526.7 Q761.16 1526.35 762.178 1526.19 Q763.197 1526 764.215 1526 Q770.002 1526 773.382 1529.17 Q776.761 1532.34 776.761 1537.76 Q776.761 1543.34 773.289 1546.44 Q769.817 1549.52 763.498 1549.52 Q761.322 1549.52 759.053 1549.15 Q756.808 1548.78 754.4 1548.04 L754.4 1543.34 Q756.484 1544.47 758.706 1545.03 Q760.928 1545.58 763.405 1545.58 Q767.41 1545.58 769.747 1543.48 Q772.085 1541.37 772.085 1537.76 Q772.085 1534.15 769.747 1532.04 Q767.41 1529.94 763.405 1529.94 Q761.53 1529.94 759.655 1530.35 Q757.803 1530.77 755.859 1531.65 L755.859 1514.29 Z" fill="#000000" fill-rule="nonzero" fill-opacity="1" /><path clip-path="url(#clip430)" d="M1223.42 1517.37 Q1219.81 1517.37 1217.98 1520.93 Q1216.18 1524.47 1216.18 1531.6 Q1216.18 1538.71 1217.98 1542.27 Q1219.81 1545.82 1223.42 1545.82 Q1227.06 1545.82 1228.86 1542.27 Q1230.69 1538.71 1230.69 1531.6 Q1230.69 1524.47 1228.86 1520.93 Q1227.06 1517.37 1223.42 1517.37 M1223.42 1513.66 Q1229.23 1513.66 1232.29 1518.27 Q1235.37 1522.85 1235.37 1531.6 Q1235.37 1540.33 1232.29 1544.94 Q1229.23 1549.52 1223.42 1549.52 Q1217.61 1549.52 1214.54 1544.94 Q1211.48 1540.33 1211.48 1531.6 Q1211.48 1522.85 1214.54 1518.27 Q1217.61 1513.66 1223.42 1513.66 Z" fill="#000000" fill-rule="nonzero" fill-opacity="1" /><path clip-path="url(#clip430)" d="M1243.59 1542.97 L1248.47 1542.97 L1248.47 1548.85 L1243.59 1548.85 L1243.59 1542.97 Z" fill="#000000" fill-rule="nonzero" fill-opacity="1" /><path clip-path="url(#clip430)" d="M1268.66 1517.37 Q1265.04 1517.37 1263.22 1520.93 Q1261.41 1524.47 1261.41 1531.6 Q1261.41 1538.71 1263.22 1542.27 Q1265.04 1545.82 1268.66 1545.82 Q1272.29 1545.82 1274.1 1542.27 Q1275.92 1538.71 1275.92 1531.6 Q1275.92 1524.47 1274.1 1520.93 Q1272.29 1517.37 1268.66 1517.37 M1268.66 1513.66 Q1274.47 1513.66 1277.52 1518.27 Q1280.6 1522.85 1280.6 1531.6 Q1280.6 1540.33 1277.52 1544.94 Q1274.47 1549.52 1268.66 1549.52 Q1262.85 1549.52 1259.77 1544.94 Q1256.71 1540.33 1256.71 1531.6 Q1256.71 1522.85 1259.77 1518.27 Q1262.85 1513.66 1268.66 1513.66 Z" fill="#000000" fill-rule="nonzero" fill-opacity="1" /><path clip-path="url(#clip430)" d="M1746.18 1517.37 Q1742.56 1517.37 1740.74 1520.93 Q1738.93 1524.47 1738.93 1531.6 Q1738.93 1538.71 1740.74 1542.27 Q1742.56 1545.82 1746.18 1545.82 Q1749.81 1545.82 1751.62 1542.27 Q1753.44 1538.71 1753.44 1531.6 Q1753.44 1524.47 1751.62 1520.93 Q1749.81 1517.37 1746.18 1517.37 M1746.18 1513.66 Q1751.99 1513.66 1755.04 1518.27 Q1758.12 1522.85 1758.12 1531.6 Q1758.12 1540.33 1755.04 1544.94 Q1751.99 1549.52 1746.18 1549.52 Q1740.37 1549.52 1737.29 1544.94 Q1734.23 1540.33 1734.23 1531.6 Q1734.23 1522.85 1737.29 1518.27 Q1740.37 1513.66 1746.18 1513.66 Z" fill="#000000" fill-rule="nonzero" fill-opacity="1" /><path clip-path="url(#clip430)" d="M1766.34 1542.97 L1771.22 1542.97 L1771.22 1548.85 L1766.34 1548.85 L1766.34 1542.97 Z" fill="#000000" fill-rule="nonzero" fill-opacity="1" /><path clip-path="url(#clip430)" d="M1781.45 1514.29 L1799.81 1514.29 L1799.81 1518.22 L1785.74 1518.22 L1785.74 1526.7 Q1786.75 1526.35 1787.77 1526.19 Q1788.79 1526 1789.81 1526 Q1795.6 1526 1798.98 1529.17 Q1802.36 1532.34 1802.36 1537.76 Q1802.36 1543.34 1798.88 1546.44 Q1795.41 1549.52 1789.09 1549.52 Q1786.92 1549.52 1784.65 1549.15 Q1782.4 1548.78 1779.99 1548.04 L1779.99 1543.34 Q1782.08 1544.47 1784.3 1545.03 Q1786.52 1545.58 1789 1545.58 Q1793 1545.58 1795.34 1543.48 Q1797.68 1541.37 1797.68 1537.76 Q1797.68 1534.15 1795.34 1532.04 Q1793 1529.94 1789 1529.94 Q1787.12 1529.94 1785.25 1530.35 Q1783.4 1530.77 1781.45 1531.65 L1781.45 1514.29 Z" fill="#000000" fill-rule="nonzero" fill-opacity="1" /><path clip-path="url(#clip430)" d="M2257.7 1544.91 L2265.34 1544.91 L2265.34 1518.55 L2257.03 1520.21 L2257.03 1515.95 L2265.29 1514.29 L2269.97 1514.29 L2269.97 1544.91 L2277.61 1544.91 L2277.61 1548.85 L2257.7 1548.85 L2257.7 1544.91 Z" fill="#000000" fill-rule="nonzero" fill-opacity="1" /><path clip-path="url(#clip430)" d="M2287.05 1542.97 L2291.94 1542.97 L2291.94 1548.85 L2287.05 1548.85 L2287.05 1542.97 Z" fill="#000000" fill-rule="nonzero" fill-opacity="1" /><path clip-path="url(#clip430)" d="M2312.12 1517.37 Q2308.51 1517.37 2306.68 1520.93 Q2304.88 1524.47 2304.88 1531.6 Q2304.88 1538.71 2306.68 1542.27 Q2308.51 1545.82 2312.12 1545.82 Q2315.75 1545.82 2317.56 1542.27 Q2319.39 1538.71 2319.39 1531.6 Q2319.39 1524.47 2317.56 1520.93 Q2315.75 1517.37 2312.12 1517.37 M2312.12 1513.66 Q2317.93 1513.66 2320.99 1518.27 Q2324.07 1522.85 2324.07 1531.6 Q2324.07 1540.33 2320.99 1544.94 Q2317.93 1549.52 2312.12 1549.52 Q2306.31 1549.52 2303.23 1544.94 Q2300.18 1540.33 2300.18 1531.6 Q2300.18 1522.85 2303.23 1518.27 Q2306.31 1513.66 2312.12 1513.66 Z" fill="#000000" fill-rule="nonzero" fill-opacity="1" /><polyline clip-path="url(#clip430)" style="stroke:#000000; stroke-linecap:round; stroke-linejoin:round; stroke-width:4; stroke-opacity:1; fill:none" points="138.959,1486.45 138.959,47.2441 "/>
<polyline clip-path="url(#clip430)" style="stroke:#000000; stroke-linecap:round; stroke-linejoin:round; stroke-width:4; stroke-opacity:1; fill:none" points="138.959,1294.86 157.857,1294.86 "/>
<polyline clip-path="url(#clip430)" style="stroke:#000000; stroke-linecap:round; stroke-linejoin:round; stroke-width:4; stroke-opacity:1; fill:none" points="138.959,993.136 157.857,993.136 "/>
<polyline clip-path="url(#clip430)" style="stroke:#000000; stroke-linecap:round; stroke-linejoin:round; stroke-width:4; stroke-opacity:1; fill:none" points="138.959,691.416 157.857,691.416 "/>
<polyline clip-path="url(#clip430)" style="stroke:#000000; stroke-linecap:round; stroke-linejoin:round; stroke-width:4; stroke-opacity:1; fill:none" points="138.959,389.696 157.857,389.696 "/>
<polyline clip-path="url(#clip430)" style="stroke:#000000; stroke-linecap:round; stroke-linejoin:round; stroke-width:4; stroke-opacity:1; fill:none" points="138.959,87.9763 157.857,87.9763 "/>
<path clip-path="url(#clip430)" d="M86.6401 1308.2 L102.959 1308.2 L102.959 1312.14 L81.0151 1312.14 L81.0151 1308.2 Q83.6771 1305.45 88.2604 1300.82 Q92.8669 1296.16 94.0475 1294.82 Q96.2928 1292.3 97.1724 1290.56 Q98.0752 1288.8 98.0752 1287.11 Q98.0752 1284.36 96.1308 1282.62 Q94.2095 1280.89 91.1077 1280.89 Q88.9086 1280.89 86.4549 1281.65 Q84.0244 1282.41 81.2466 1283.96 L81.2466 1279.24 Q84.0707 1278.11 86.5243 1277.53 Q88.978 1276.95 91.0151 1276.95 Q96.3854 1276.95 99.5798 1279.64 Q102.774 1282.32 102.774 1286.81 Q102.774 1288.94 101.964 1290.86 Q101.177 1292.76 99.0706 1295.35 Q98.4919 1296.02 95.39 1299.24 Q92.2882 1302.44 86.6401 1308.2 Z" fill="#000000" fill-rule="nonzero" fill-opacity="1" /><path clip-path="url(#clip430)" d="M93.3762 979.93 L81.5707 998.379 L93.3762 998.379 L93.3762 979.93 M92.1493 975.856 L98.0289 975.856 L98.0289 998.379 L102.959 998.379 L102.959 1002.27 L98.0289 1002.27 L98.0289 1010.42 L93.3762 1010.42 L93.3762 1002.27 L77.7744 1002.27 L77.7744 997.754 L92.1493 975.856 Z" fill="#000000" fill-rule="nonzero" fill-opacity="1" /><path clip-path="url(#clip430)" d="M91.4317 689.553 Q88.2836 689.553 86.4318 691.705 Q84.6031 693.858 84.6031 697.608 Q84.6031 701.335 86.4318 703.511 Q88.2836 705.664 91.4317 705.664 Q94.5799 705.664 96.4085 703.511 Q98.2604 701.335 98.2604 697.608 Q98.2604 693.858 96.4085 691.705 Q94.5799 689.553 91.4317 689.553 M100.714 674.9 L100.714 679.159 Q98.9548 678.326 97.1493 677.886 Q95.3669 677.446 93.6076 677.446 Q88.978 677.446 86.5243 680.571 Q84.0938 683.696 83.7466 690.016 Q85.1123 688.002 87.1725 686.937 Q89.2327 685.849 91.7095 685.849 Q96.9178 685.849 99.927 689.02 Q102.959 692.168 102.959 697.608 Q102.959 702.932 99.8113 706.15 Q96.6632 709.367 91.4317 709.367 Q85.4364 709.367 82.2651 704.784 Q79.0938 700.178 79.0938 691.451 Q79.0938 683.256 82.9827 678.395 Q86.8716 673.511 93.4225 673.511 Q95.1817 673.511 96.9641 673.858 Q98.7696 674.205 100.714 674.9 Z" fill="#000000" fill-rule="nonzero" fill-opacity="1" /><path clip-path="url(#clip430)" d="M91.1077 390.564 Q87.7743 390.564 85.8531 392.347 Q83.9549 394.129 83.9549 397.254 Q83.9549 400.379 85.8531 402.161 Q87.7743 403.944 91.1077 403.944 Q94.441 403.944 96.3623 402.161 Q98.2835 400.356 98.2835 397.254 Q98.2835 394.129 96.3623 392.347 Q94.4641 390.564 91.1077 390.564 M86.4318 388.573 Q83.4225 387.833 81.7327 385.773 Q80.066 383.712 80.066 380.749 Q80.066 376.606 83.0058 374.199 Q85.9688 371.791 91.1077 371.791 Q96.2697 371.791 99.2095 374.199 Q102.149 376.606 102.149 380.749 Q102.149 383.712 100.459 385.773 Q98.7928 387.833 95.8067 388.573 Q99.1863 389.361 101.061 391.652 Q102.959 393.944 102.959 397.254 Q102.959 402.277 99.8808 404.962 Q96.8252 407.647 91.1077 407.647 Q85.3901 407.647 82.3114 404.962 Q79.2559 402.277 79.2559 397.254 Q79.2559 393.944 81.154 391.652 Q83.0521 389.361 86.4318 388.573 M84.7188 381.189 Q84.7188 383.874 86.3855 385.379 Q88.0753 386.884 91.1077 386.884 Q94.1169 386.884 95.8067 385.379 Q97.5197 383.874 97.5197 381.189 Q97.5197 378.504 95.8067 376.999 Q94.1169 375.495 91.1077 375.495 Q88.0753 375.495 86.3855 376.999 Q84.7188 378.504 84.7188 381.189 Z" fill="#000000" fill-rule="nonzero" fill-opacity="1" /><path clip-path="url(#clip430)" d="M51.6634 101.321 L59.3023 101.321 L59.3023 74.9555 L50.9921 76.6222 L50.9921 72.3629 L59.256 70.6963 L63.9319 70.6963 L63.9319 101.321 L71.5707 101.321 L71.5707 105.256 L51.6634 105.256 L51.6634 101.321 Z" fill="#000000" fill-rule="nonzero" fill-opacity="1" /><path clip-path="url(#clip430)" d="M91.0151 73.775 Q87.404 73.775 85.5753 77.3398 Q83.7697 80.8814 83.7697 88.011 Q83.7697 95.1174 85.5753 98.6822 Q87.404 102.224 91.0151 102.224 Q94.6493 102.224 96.4548 98.6822 Q98.2835 95.1174 98.2835 88.011 Q98.2835 80.8814 96.4548 77.3398 Q94.6493 73.775 91.0151 73.775 M91.0151 70.0713 Q96.8252 70.0713 99.8808 74.6777 Q102.959 79.261 102.959 88.011 Q102.959 96.7378 99.8808 101.344 Q96.8252 105.928 91.0151 105.928 Q85.2049 105.928 82.1262 101.344 Q79.0707 96.7378 79.0707 88.011 Q79.0707 79.261 82.1262 74.6777 Q85.2049 70.0713 91.0151 70.0713 Z" fill="#000000" fill-rule="nonzero" fill-opacity="1" /><polyline clip-path="url(#clip432)" style="stroke:#009af9; stroke-linecap:round; stroke-linejoin:round; stroke-width:4; stroke-opacity:1; fill:none" points="2124.96,1445.72 2176.91,1430.63 2219.56,1415.54 2252.48,1400.46 2275.35,1385.37 2287.93,1370.29 2290.1,1355.2 2281.84,1340.11 2263.23,1325.03 2234.46,1309.94 2195.81,1294.86 2147.67,1279.77 2090.52,1264.68 2024.93,1249.6 1951.57,1234.51 1871.15,1219.43 1784.48,1204.34 1692.44,1189.25 1595.94,1174.17 1495.94,1159.08 1393.44,1144 1289.47,1128.91 1185.07,1113.82 1081.27,1098.74 979.126,1083.65 879.645,1068.57 783.825,1053.48 692.623,1038.39 606.951,1023.31 527.664,1008.22 455.555,993.136 391.345,978.05 335.674,962.964 289.099,947.878 252.086,932.792 225.004,917.706 208.124,902.62 201.614,887.534 205.54,872.448 219.862,857.362 244.438,842.276 279.021,827.19 323.266,812.104 376.732,797.018 438.883,781.932 509.099,766.846 586.678,751.76 670.846,736.674 760.76,721.588 855.524,706.502 954.189,691.416 1055.77,676.33 1159.25,661.244 1263.6,646.158 1367.78,631.072 1470.73,615.986 1571.45,600.9 1668.91,585.814 1762.14,570.728 1850.22,555.642 1932.27,540.556 2007.45,525.47 2075.03,510.384 2134.33,495.298 2184.75,480.212 2225.79,465.126 2257.04,450.04 2278.19,434.954 2289.03,419.868 2289.44,404.782 2279.43,389.696 2259.1,374.61 2228.64,359.524 2188.36,344.438 2138.67,329.352 2080.07,314.266 2013.12,299.18 1938.52,284.094 1856.99,269.008 1769.36,253.922 1676.5,238.836 1579.34,223.75 1478.85,208.664 1376.03,193.578 1271.92,178.492 1167.54,163.406 1063.95,148.32 962.185,133.234 863.25,118.148 768.141,103.062 677.807,87.9763 "/>
<path clip-path="url(#clip430)" d="M212.753 1438.47 L486.563 1438.47 L486.563 1334.79 L212.753 1334.79  Z" fill="#ffffff" fill-rule="evenodd" fill-opacity="1"/>
<polyline clip-path="url(#clip430)" style="stroke:#000000; stroke-linecap:round; stroke-linejoin:round; stroke-width:4; stroke-opacity:1; fill:none" points="212.753,1438.47 486.563,1438.47 486.563,1334.79 212.753,1334.79 212.753,1438.47 "/>
<polyline clip-path="url(#clip430)" style="stroke:#009af9; stroke-linecap:round; stroke-linejoin:round; stroke-width:4; stroke-opacity:1; fill:none" points="237.35,1386.63 384.937,1386.63 "/>
<path clip-path="url(#clip430)" d="M423.377 1406.32 Q421.572 1410.95 419.859 1412.36 Q418.146 1413.78 415.275 1413.78 L411.873 1413.78 L411.873 1410.21 L414.373 1410.21 Q416.132 1410.21 417.104 1409.38 Q418.076 1408.54 419.257 1405.44 L420.021 1403.5 L409.535 1377.99 L414.048 1377.99 L422.15 1398.27 L430.252 1377.99 L434.766 1377.99 L423.377 1406.32 Z" fill="#000000" fill-rule="nonzero" fill-opacity="1" /><path clip-path="url(#clip430)" d="M442.058 1399.98 L449.696 1399.98 L449.696 1373.61 L441.386 1375.28 L441.386 1371.02 L449.65 1369.35 L454.326 1369.35 L454.326 1399.98 L461.965 1399.98 L461.965 1403.91 L442.058 1403.91 L442.058 1399.98 Z" fill="#000000" fill-rule="nonzero" fill-opacity="1" /></svg>
