<?xml version="1.0" encoding="utf-8"?>
<svg xmlns="http://www.w3.org/2000/svg" xmlns:xlink="http://www.w3.org/1999/xlink" width="600" height="400" viewBox="0 0 2400 1600">
<defs>
  <clipPath id="clip990">
    <rect x="0" y="0" width="2400" height="1600"/>
  </clipPath>
</defs>
<path clip-path="url(#clip990)" d="M0 1600 L2400 1600 L2400 0 L0 0  Z" fill="#ffffff" fill-rule="evenodd" fill-opacity="1"/>
<defs>
  <clipPath id="clip991">
    <rect x="480" y="0" width="1681" height="1600"/>
  </clipPath>
</defs>
<path clip-path="url(#clip990)" d="M242.135 1423.18 L2352.76 1423.18 L2352.76 47.2441 L242.135 47.2441  Z" fill="#ffffff" fill-rule="evenodd" fill-opacity="1"/>
<defs>
  <clipPath id="clip992">
    <rect x="242" y="47" width="2112" height="1377"/>
  </clipPath>
</defs>
<polyline clip-path="url(#clip992)" style="stroke:#000000; stroke-linecap:round; stroke-linejoin:round; stroke-width:2; stroke-opacity:0.1; fill:none" points="301.869,1423.18 301.869,47.2441 "/>
<polyline clip-path="url(#clip992)" style="stroke:#000000; stroke-linecap:round; stroke-linejoin:round; stroke-width:2; stroke-opacity:0.1; fill:none" points="799.657,1423.18 799.657,47.2441 "/>
<polyline clip-path="url(#clip992)" style="stroke:#000000; stroke-linecap:round; stroke-linejoin:round; stroke-width:2; stroke-opacity:0.1; fill:none" points="1297.45,1423.18 1297.45,47.2441 "/>
<polyline clip-path="url(#clip992)" style="stroke:#000000; stroke-linecap:round; stroke-linejoin:round; stroke-width:2; stroke-opacity:0.1; fill:none" points="1795.23,1423.18 1795.23,47.2441 "/>
<polyline clip-path="url(#clip992)" style="stroke:#000000; stroke-linecap:round; stroke-linejoin:round; stroke-width:2; stroke-opacity:0.1; fill:none" points="2293.02,1423.18 2293.02,47.2441 "/>
<polyline clip-path="url(#clip992)" style="stroke:#000000; stroke-linecap:round; stroke-linejoin:round; stroke-width:2; stroke-opacity:0.1; fill:none" points="242.135,1254.43 2352.76,1254.43 "/>
<polyline clip-path="url(#clip992)" style="stroke:#000000; stroke-linecap:round; stroke-linejoin:round; stroke-width:2; stroke-opacity:0.1; fill:none" points="242.135,994.822 2352.76,994.822 "/>
<polyline clip-path="url(#clip992)" style="stroke:#000000; stroke-linecap:round; stroke-linejoin:round; stroke-width:2; stroke-opacity:0.1; fill:none" points="242.135,735.212 2352.76,735.212 "/>
<polyline clip-path="url(#clip992)" style="stroke:#000000; stroke-linecap:round; stroke-linejoin:round; stroke-width:2; stroke-opacity:0.1; fill:none" points="242.135,475.601 2352.76,475.601 "/>
<polyline clip-path="url(#clip992)" style="stroke:#000000; stroke-linecap:round; stroke-linejoin:round; stroke-width:2; stroke-opacity:0.1; fill:none" points="242.135,215.991 2352.76,215.991 "/>
<polyline clip-path="url(#clip990)" style="stroke:#000000; stroke-linecap:round; stroke-linejoin:round; stroke-width:4; stroke-opacity:1; fill:none" points="242.135,1423.18 2352.76,1423.18 "/>
<polyline clip-path="url(#clip990)" style="stroke:#000000; stroke-linecap:round; stroke-linejoin:round; stroke-width:4; stroke-opacity:1; fill:none" points="301.869,1423.18 301.869,1404.28 "/>
<polyline clip-path="url(#clip990)" style="stroke:#000000; stroke-linecap:round; stroke-linejoin:round; stroke-width:4; stroke-opacity:1; fill:none" points="799.657,1423.18 799.657,1404.28 "/>
<polyline clip-path="url(#clip990)" style="stroke:#000000; stroke-linecap:round; stroke-linejoin:round; stroke-width:4; stroke-opacity:1; fill:none" points="1297.45,1423.18 1297.45,1404.28 "/>
<polyline clip-path="url(#clip990)" style="stroke:#000000; stroke-linecap:round; stroke-linejoin:round; stroke-width:4; stroke-opacity:1; fill:none" points="1795.23,1423.18 1795.23,1404.28 "/>
<polyline clip-path="url(#clip990)" style="stroke:#000000; stroke-linecap:round; stroke-linejoin:round; stroke-width:4; stroke-opacity:1; fill:none" points="2293.02,1423.18 2293.02,1404.28 "/>
<path clip-path="url(#clip990)" d="M255.932 1468.75 L285.608 1468.75 L285.608 1472.69 L255.932 1472.69 L255.932 1468.75 Z" fill="#000000" fill-rule="nonzero" fill-opacity="1" /><path clip-path="url(#clip990)" d="M296.51 1481.64 L304.149 1481.64 L304.149 1455.28 L295.839 1456.95 L295.839 1452.69 L304.103 1451.02 L308.779 1451.02 L308.779 1481.64 L316.418 1481.64 L316.418 1485.58 L296.51 1485.58 L296.51 1481.64 Z" fill="#000000" fill-rule="nonzero" fill-opacity="1" /><path clip-path="url(#clip990)" d="M335.862 1454.1 Q332.251 1454.1 330.422 1457.66 Q328.617 1461.2 328.617 1468.33 Q328.617 1475.44 330.422 1479.01 Q332.251 1482.55 335.862 1482.55 Q339.496 1482.55 341.302 1479.01 Q343.131 1475.44 343.131 1468.33 Q343.131 1461.2 341.302 1457.66 Q339.496 1454.1 335.862 1454.1 M335.862 1450.39 Q341.672 1450.39 344.728 1455 Q347.806 1459.58 347.806 1468.33 Q347.806 1477.06 344.728 1481.67 Q341.672 1486.25 335.862 1486.25 Q330.052 1486.25 326.973 1481.67 Q323.918 1477.06 323.918 1468.33 Q323.918 1459.58 326.973 1455 Q330.052 1450.39 335.862 1450.39 Z" fill="#000000" fill-rule="nonzero" fill-opacity="1" /><path clip-path="url(#clip990)" d="M769.299 1468.75 L798.974 1468.75 L798.974 1472.69 L769.299 1472.69 L769.299 1468.75 Z" fill="#000000" fill-rule="nonzero" fill-opacity="1" /><path clip-path="url(#clip990)" d="M809.113 1451.02 L827.47 1451.02 L827.47 1454.96 L813.396 1454.96 L813.396 1463.43 Q814.414 1463.08 815.433 1462.92 Q816.451 1462.73 817.47 1462.73 Q823.257 1462.73 826.636 1465.9 Q830.016 1469.08 830.016 1474.49 Q830.016 1480.07 826.544 1483.17 Q823.071 1486.25 816.752 1486.25 Q814.576 1486.25 812.308 1485.88 Q810.062 1485.51 807.655 1484.77 L807.655 1480.07 Q809.738 1481.2 811.96 1481.76 Q814.183 1482.32 816.659 1482.32 Q820.664 1482.32 823.002 1480.21 Q825.34 1478.1 825.34 1474.49 Q825.34 1470.88 823.002 1468.77 Q820.664 1466.67 816.659 1466.67 Q814.784 1466.67 812.91 1467.08 Q811.058 1467.5 809.113 1468.38 L809.113 1451.02 Z" fill="#000000" fill-rule="nonzero" fill-opacity="1" /><path clip-path="url(#clip990)" d="M1297.45 1454.1 Q1293.83 1454.1 1292.01 1457.66 Q1290.2 1461.2 1290.2 1468.33 Q1290.2 1475.44 1292.01 1479.01 Q1293.83 1482.55 1297.45 1482.55 Q1301.08 1482.55 1302.89 1479.01 Q1304.71 1475.44 1304.71 1468.33 Q1304.71 1461.2 1302.89 1457.66 Q1301.08 1454.1 1297.45 1454.1 M1297.45 1450.39 Q1303.26 1450.39 1306.31 1455 Q1309.39 1459.58 1309.39 1468.33 Q1309.39 1477.06 1306.31 1481.67 Q1303.26 1486.25 1297.45 1486.25 Q1291.64 1486.25 1288.56 1481.67 Q1285.5 1477.06 1285.5 1468.33 Q1285.5 1459.58 1288.56 1455 Q1291.64 1450.39 1297.45 1450.39 Z" fill="#000000" fill-rule="nonzero" fill-opacity="1" /><path clip-path="url(#clip990)" d="M1785.51 1451.02 L1803.87 1451.02 L1803.87 1454.96 L1789.79 1454.96 L1789.79 1463.43 Q1790.81 1463.08 1791.83 1462.92 Q1792.85 1462.73 1793.87 1462.73 Q1799.65 1462.73 1803.03 1465.9 Q1806.41 1469.08 1806.41 1474.49 Q1806.41 1480.07 1802.94 1483.17 Q1799.47 1486.25 1793.15 1486.25 Q1790.97 1486.25 1788.71 1485.88 Q1786.46 1485.51 1784.05 1484.77 L1784.05 1480.07 Q1786.14 1481.2 1788.36 1481.76 Q1790.58 1482.32 1793.06 1482.32 Q1797.06 1482.32 1799.4 1480.21 Q1801.74 1478.1 1801.74 1474.49 Q1801.74 1470.88 1799.4 1468.77 Q1797.06 1466.67 1793.06 1466.67 Q1791.18 1466.67 1789.31 1467.08 Q1787.46 1467.5 1785.51 1468.38 L1785.51 1451.02 Z" fill="#000000" fill-rule="nonzero" fill-opacity="1" /><path clip-path="url(#clip990)" d="M2267.71 1481.64 L2275.35 1481.64 L2275.35 1455.28 L2267.04 1456.95 L2267.04 1452.69 L2275.3 1451.02 L2279.98 1451.02 L2279.98 1481.64 L2287.62 1481.64 L2287.62 1485.58 L2267.71 1485.58 L2267.71 1481.64 Z" fill="#000000" fill-rule="nonzero" fill-opacity="1" /><path clip-path="url(#clip990)" d="M2307.06 1454.1 Q2303.45 1454.1 2301.62 1457.66 Q2299.82 1461.2 2299.82 1468.33 Q2299.82 1475.44 2301.62 1479.01 Q2303.45 1482.55 2307.06 1482.55 Q2310.69 1482.55 2312.5 1479.01 Q2314.33 1475.44 2314.33 1468.33 Q2314.33 1461.2 2312.5 1457.66 Q2310.69 1454.1 2307.06 1454.1 M2307.06 1450.39 Q2312.87 1450.39 2315.93 1455 Q2319 1459.58 2319 1468.33 Q2319 1477.06 2315.93 1481.67 Q2312.87 1486.25 2307.06 1486.25 Q2301.25 1486.25 2298.17 1481.67 Q2295.12 1477.06 2295.12 1468.33 Q2295.12 1459.58 2298.17 1455 Q2301.25 1450.39 2307.06 1450.39 Z" fill="#000000" fill-rule="nonzero" fill-opacity="1" /><path clip-path="url(#clip990)" d="M1198.22 1532.4 L1185.33 1549.74 L1198.89 1568.04 L1191.98 1568.04 L1181.61 1554.04 L1171.23 1568.04 L1164.32 1568.04 L1178.17 1549.39 L1165.5 1532.4 L1172.41 1532.4 L1181.86 1545.1 L1191.31 1532.4 L1198.22 1532.4 Z" fill="#000000" fill-rule="nonzero" fill-opacity="1" /><path clip-path="url(#clip990)" d="M1223.68 1532.4 L1229.89 1532.4 L1241.03 1562.31 L1252.17 1532.4 L1258.38 1532.4 L1245.01 1568.04 L1237.05 1568.04 L1223.68 1532.4 Z" fill="#000000" fill-rule="nonzero" fill-opacity="1" /><path clip-path="url(#clip990)" d="M1282.66 1550.12 Q1275.56 1550.12 1272.83 1551.75 Q1270.09 1553.37 1270.09 1557.29 Q1270.09 1560.4 1272.13 1562.25 Q1274.19 1564.07 1277.73 1564.07 Q1282.6 1564.07 1285.53 1560.63 Q1288.49 1557.16 1288.49 1551.43 L1288.49 1550.12 L1282.66 1550.12 M1294.34 1547.71 L1294.34 1568.04 L1288.49 1568.04 L1288.49 1562.63 Q1286.48 1565.88 1283.49 1567.44 Q1280.5 1568.97 1276.17 1568.97 Q1270.69 1568.97 1267.45 1565.91 Q1264.23 1562.82 1264.23 1557.67 Q1264.23 1551.65 1268.24 1548.6 Q1272.28 1545.54 1280.27 1545.54 L1288.49 1545.54 L1288.49 1544.97 Q1288.49 1540.93 1285.81 1538.73 Q1283.17 1536.5 1278.36 1536.5 Q1275.31 1536.5 1272.41 1537.23 Q1269.52 1537.97 1266.84 1539.43 L1266.84 1534.02 Q1270.06 1532.78 1273.08 1532.17 Q1276.1 1531.54 1278.97 1531.54 Q1286.7 1531.54 1290.52 1535.55 Q1294.34 1539.56 1294.34 1547.71 Z" fill="#000000" fill-rule="nonzero" fill-opacity="1" /><path clip-path="url(#clip990)" d="M1306.41 1518.52 L1312.26 1518.52 L1312.26 1568.04 L1306.41 1568.04 L1306.41 1518.52 Z" fill="#000000" fill-rule="nonzero" fill-opacity="1" /><path clip-path="url(#clip990)" d="M1323.91 1553.98 L1323.91 1532.4 L1329.77 1532.4 L1329.77 1553.75 Q1329.77 1558.81 1331.74 1561.36 Q1333.71 1563.87 1337.66 1563.87 Q1342.4 1563.87 1345.14 1560.85 Q1347.91 1557.83 1347.91 1552.61 L1347.91 1532.4 L1353.77 1532.4 L1353.77 1568.04 L1347.91 1568.04 L1347.91 1562.57 Q1345.78 1565.82 1342.94 1567.41 Q1340.14 1568.97 1336.42 1568.97 Q1330.28 1568.97 1327.09 1565.15 Q1323.91 1561.33 1323.91 1553.98 M1338.65 1531.54 L1338.65 1531.54 Z" fill="#000000" fill-rule="nonzero" fill-opacity="1" /><path clip-path="url(#clip990)" d="M1396.32 1548.76 L1396.32 1551.62 L1369.39 1551.62 Q1369.78 1557.67 1373.02 1560.85 Q1376.3 1564 1382.13 1564 Q1385.5 1564 1388.65 1563.17 Q1391.83 1562.35 1394.95 1560.69 L1394.95 1566.23 Q1391.8 1567.57 1388.49 1568.27 Q1385.18 1568.97 1381.77 1568.97 Q1373.24 1568.97 1368.25 1564 Q1363.28 1559.04 1363.28 1550.57 Q1363.28 1541.82 1367.99 1536.69 Q1372.74 1531.54 1380.76 1531.54 Q1387.95 1531.54 1392.12 1536.18 Q1396.32 1540.8 1396.32 1548.76 M1390.46 1547.04 Q1390.4 1542.23 1387.76 1539.37 Q1385.15 1536.5 1380.82 1536.5 Q1375.92 1536.5 1372.96 1539.27 Q1370.03 1542.04 1369.58 1547.07 L1390.46 1547.04 Z" fill="#000000" fill-rule="nonzero" fill-opacity="1" /><path clip-path="url(#clip990)" d="M1428.66 1533.45 L1428.66 1538.98 Q1426.18 1537.71 1423.5 1537.07 Q1420.83 1536.44 1417.96 1536.44 Q1413.6 1536.44 1411.41 1537.77 Q1409.24 1539.11 1409.24 1541.79 Q1409.24 1543.82 1410.8 1545 Q1412.36 1546.15 1417.07 1547.2 L1419.08 1547.64 Q1425.32 1548.98 1427.93 1551.43 Q1430.57 1553.85 1430.57 1558.21 Q1430.57 1563.17 1426.62 1566.07 Q1422.71 1568.97 1415.83 1568.97 Q1412.97 1568.97 1409.85 1568.39 Q1406.76 1567.85 1403.32 1566.74 L1403.32 1560.69 Q1406.57 1562.38 1409.72 1563.24 Q1412.87 1564.07 1415.96 1564.07 Q1420.1 1564.07 1422.32 1562.66 Q1424.55 1561.23 1424.55 1558.65 Q1424.55 1556.27 1422.93 1554.99 Q1421.34 1553.72 1415.9 1552.54 L1413.86 1552.07 Q1408.42 1550.92 1406 1548.56 Q1403.58 1546.18 1403.58 1542.04 Q1403.58 1537.01 1407.14 1534.27 Q1410.71 1531.54 1417.26 1531.54 Q1420.51 1531.54 1423.37 1532.01 Q1426.24 1532.49 1428.66 1533.45 Z" fill="#000000" fill-rule="nonzero" fill-opacity="1" /><polyline clip-path="url(#clip990)" style="stroke:#000000; stroke-linecap:round; stroke-linejoin:round; stroke-width:4; stroke-opacity:1; fill:none" points="242.135,1423.18 242.135,47.2441 "/>
<polyline clip-path="url(#clip990)" style="stroke:#000000; stroke-linecap:round; stroke-linejoin:round; stroke-width:4; stroke-opacity:1; fill:none" points="242.135,1254.43 261.032,1254.43 "/>
<polyline clip-path="url(#clip990)" style="stroke:#000000; stroke-linecap:round; stroke-linejoin:round; stroke-width:4; stroke-opacity:1; fill:none" points="242.135,994.822 261.032,994.822 "/>
<polyline clip-path="url(#clip990)" style="stroke:#000000; stroke-linecap:round; stroke-linejoin:round; stroke-width:4; stroke-opacity:1; fill:none" points="242.135,735.212 261.032,735.212 "/>
<polyline clip-path="url(#clip990)" style="stroke:#000000; stroke-linecap:round; stroke-linejoin:round; stroke-width:4; stroke-opacity:1; fill:none" points="242.135,475.601 261.032,475.601 "/>
<polyline clip-path="url(#clip990)" style="stroke:#000000; stroke-linecap:round; stroke-linejoin:round; stroke-width:4; stroke-opacity:1; fill:none" points="242.135,215.991 261.032,215.991 "/>
<path clip-path="url(#clip990)" d="M114.26 1254.88 L143.936 1254.88 L143.936 1258.82 L114.26 1258.82 L114.26 1254.88 Z" fill="#000000" fill-rule="nonzero" fill-opacity="1" /><path clip-path="url(#clip990)" d="M166.876 1241.23 L155.07 1259.68 L166.876 1259.68 L166.876 1241.23 M165.649 1237.15 L171.528 1237.15 L171.528 1259.68 L176.459 1259.68 L176.459 1263.56 L171.528 1263.56 L171.528 1271.71 L166.876 1271.71 L166.876 1263.56 L151.274 1263.56 L151.274 1259.05 L165.649 1237.15 Z" fill="#000000" fill-rule="nonzero" fill-opacity="1" /><path clip-path="url(#clip990)" d="M194.19 1240.23 Q190.579 1240.23 188.75 1243.8 Q186.945 1247.34 186.945 1254.47 Q186.945 1261.57 188.75 1265.14 Q190.579 1268.68 194.19 1268.68 Q197.825 1268.68 199.63 1265.14 Q201.459 1261.57 201.459 1254.47 Q201.459 1247.34 199.63 1243.8 Q197.825 1240.23 194.19 1240.23 M194.19 1236.53 Q200 1236.53 203.056 1241.13 Q206.135 1245.72 206.135 1254.47 Q206.135 1263.19 203.056 1267.8 Q200 1272.38 194.19 1272.38 Q188.38 1272.38 185.301 1267.8 Q182.246 1263.19 182.246 1254.47 Q182.246 1245.72 185.301 1241.13 Q188.38 1236.53 194.19 1236.53 Z" fill="#000000" fill-rule="nonzero" fill-opacity="1" /><path clip-path="url(#clip990)" d="M114.26 995.274 L143.936 995.274 L143.936 999.209 L114.26 999.209 L114.26 995.274 Z" fill="#000000" fill-rule="nonzero" fill-opacity="1" /><path clip-path="url(#clip990)" d="M158.056 1008.17 L174.376 1008.17 L174.376 1012.1 L152.431 1012.1 L152.431 1008.17 Q155.093 1005.41 159.677 1000.78 Q164.283 996.13 165.464 994.788 Q167.709 992.265 168.589 990.529 Q169.491 988.769 169.491 987.079 Q169.491 984.325 167.547 982.589 Q165.626 980.853 162.524 980.853 Q160.325 980.853 157.871 981.617 Q155.44 982.38 152.663 983.931 L152.663 979.209 Q155.487 978.075 157.94 977.496 Q160.394 976.917 162.431 976.917 Q167.802 976.917 170.996 979.603 Q174.19 982.288 174.19 986.779 Q174.19 988.908 173.38 990.829 Q172.593 992.728 170.487 995.32 Q169.908 995.991 166.806 999.209 Q163.704 1002.4 158.056 1008.17 Z" fill="#000000" fill-rule="nonzero" fill-opacity="1" /><path clip-path="url(#clip990)" d="M194.19 980.621 Q190.579 980.621 188.75 984.186 Q186.945 987.728 186.945 994.857 Q186.945 1001.96 188.75 1005.53 Q190.579 1009.07 194.19 1009.07 Q197.825 1009.07 199.63 1005.53 Q201.459 1001.96 201.459 994.857 Q201.459 987.728 199.63 984.186 Q197.825 980.621 194.19 980.621 M194.19 976.917 Q200 976.917 203.056 981.524 Q206.135 986.107 206.135 994.857 Q206.135 1003.58 203.056 1008.19 Q200 1012.77 194.19 1012.77 Q188.38 1012.77 185.301 1008.19 Q182.246 1003.58 182.246 994.857 Q182.246 986.107 185.301 981.524 Q188.38 976.917 194.19 976.917 Z" fill="#000000" fill-rule="nonzero" fill-opacity="1" /><path clip-path="url(#clip990)" d="M194.19 721.011 Q190.579 721.011 188.75 724.575 Q186.945 728.117 186.945 735.247 Q186.945 742.353 188.75 745.918 Q190.579 749.46 194.19 749.46 Q197.825 749.46 199.63 745.918 Q201.459 742.353 201.459 735.247 Q201.459 728.117 199.63 724.575 Q197.825 721.011 194.19 721.011 M194.19 717.307 Q200 717.307 203.056 721.913 Q206.135 726.497 206.135 735.247 Q206.135 743.973 203.056 748.58 Q200 753.163 194.19 753.163 Q188.38 753.163 185.301 748.58 Q182.246 743.973 182.246 735.247 Q182.246 726.497 185.301 721.913 Q188.38 717.307 194.19 717.307 Z" fill="#000000" fill-rule="nonzero" fill-opacity="1" /><path clip-path="url(#clip990)" d="M158.056 488.946 L174.376 488.946 L174.376 492.881 L152.431 492.881 L152.431 488.946 Q155.093 486.192 159.677 481.562 Q164.283 476.909 165.464 475.567 Q167.709 473.044 168.589 471.307 Q169.491 469.548 169.491 467.858 Q169.491 465.104 167.547 463.368 Q165.626 461.632 162.524 461.632 Q160.325 461.632 157.871 462.396 Q155.44 463.159 152.663 464.71 L152.663 459.988 Q155.487 458.854 157.94 458.275 Q160.394 457.696 162.431 457.696 Q167.802 457.696 170.996 460.382 Q174.19 463.067 174.19 467.558 Q174.19 469.687 173.38 471.608 Q172.593 473.507 170.487 476.099 Q169.908 476.77 166.806 479.988 Q163.704 483.182 158.056 488.946 Z" fill="#000000" fill-rule="nonzero" fill-opacity="1" /><path clip-path="url(#clip990)" d="M194.19 461.4 Q190.579 461.4 188.75 464.965 Q186.945 468.507 186.945 475.636 Q186.945 482.743 188.75 486.307 Q190.579 489.849 194.19 489.849 Q197.825 489.849 199.63 486.307 Q201.459 482.743 201.459 475.636 Q201.459 468.507 199.63 464.965 Q197.825 461.4 194.19 461.4 M194.19 457.696 Q200 457.696 203.056 462.303 Q206.135 466.886 206.135 475.636 Q206.135 484.363 203.056 488.969 Q200 493.553 194.19 493.553 Q188.38 493.553 185.301 488.969 Q182.246 484.363 182.246 475.636 Q182.246 466.886 185.301 462.303 Q188.38 457.696 194.19 457.696 Z" fill="#000000" fill-rule="nonzero" fill-opacity="1" /><path clip-path="url(#clip990)" d="M166.876 202.785 L155.07 221.234 L166.876 221.234 L166.876 202.785 M165.649 198.711 L171.528 198.711 L171.528 221.234 L176.459 221.234 L176.459 225.123 L171.528 225.123 L171.528 233.271 L166.876 233.271 L166.876 225.123 L151.274 225.123 L151.274 220.609 L165.649 198.711 Z" fill="#000000" fill-rule="nonzero" fill-opacity="1" /><path clip-path="url(#clip990)" d="M194.19 201.79 Q190.579 201.79 188.75 205.354 Q186.945 208.896 186.945 216.026 Q186.945 223.132 188.75 226.697 Q190.579 230.239 194.19 230.239 Q197.825 230.239 199.63 226.697 Q201.459 223.132 201.459 216.026 Q201.459 208.896 199.63 205.354 Q197.825 201.79 194.19 201.79 M194.19 198.086 Q200 198.086 203.056 202.692 Q206.135 207.276 206.135 216.026 Q206.135 224.752 203.056 229.359 Q200 233.942 194.19 233.942 Q188.38 233.942 185.301 229.359 Q182.246 224.752 182.246 216.026 Q182.246 207.276 185.301 202.692 Q188.38 198.086 194.19 198.086 Z" fill="#000000" fill-rule="nonzero" fill-opacity="1" /><path clip-path="url(#clip990)" d="M14.479 765.163 L19.3487 765.163 L19.3487 770.764 Q19.3487 773.915 20.6219 775.157 Q21.895 776.366 25.2052 776.366 L28.3562 776.366 L28.3562 766.722 L32.9077 766.722 L32.9077 776.366 L64.0042 776.366 L64.0042 782.255 L32.9077 782.255 L32.9077 787.856 L28.3562 787.856 L28.3562 782.255 L25.8736 782.255 Q19.9216 782.255 17.2162 779.485 Q14.479 776.716 14.479 770.701 L14.479 765.163 Z" fill="#000000" fill-rule="nonzero" fill-opacity="1" /><path clip-path="url(#clip990)" d="M14.5426 746.193 Q21.8632 750.458 29.0246 752.527 Q36.186 754.596 43.5384 754.596 Q50.8908 754.596 58.1159 752.527 Q65.3091 750.426 72.5979 746.193 L72.5979 751.285 Q65.1182 756.06 57.8931 758.447 Q50.668 760.802 43.5384 760.802 Q36.4406 760.802 29.2474 758.447 Q22.0542 756.091 14.5426 751.285 L14.5426 746.193 Z" fill="#000000" fill-rule="nonzero" fill-opacity="1" /><path clip-path="url(#clip990)" d="M28.3562 705.198 L45.7028 718.088 L64.0042 704.529 L64.0042 711.436 L49.9996 721.812 L64.0042 732.188 L64.0042 739.095 L45.3526 725.25 L28.3562 737.917 L28.3562 731.011 L41.0558 721.558 L28.3562 712.104 L28.3562 705.198 Z" fill="#000000" fill-rule="nonzero" fill-opacity="1" /><path clip-path="url(#clip990)" d="M14.5426 697.177 L14.5426 692.084 Q22.0542 687.31 29.2474 684.955 Q36.4406 682.568 43.5384 682.568 Q50.668 682.568 57.8931 684.955 Q65.1182 687.31 72.5979 692.084 L72.5979 697.177 Q65.3091 692.944 58.1159 690.875 Q50.8908 688.774 43.5384 688.774 Q36.186 688.774 29.0246 690.875 Q21.8632 692.944 14.5426 697.177 Z" fill="#000000" fill-rule="nonzero" fill-opacity="1" /><polyline clip-path="url(#clip992)" style="stroke:#009af9; stroke-linecap:round; stroke-linejoin:round; stroke-width:4; stroke-opacity:1; fill:none" points="301.869,1384.24 311.825,1358.41 321.781,1332.84 331.737,1307.52 341.692,1282.47 351.648,1257.68 361.604,1233.14 371.56,1208.87 381.515,1184.86 391.471,1161.1 401.427,1137.61 411.383,1114.37 421.338,1091.4 431.294,1068.68 441.25,1046.23 451.206,1024.03 461.161,1002.09 471.117,980.414 481.073,958.996 491.029,937.838 500.984,916.939 510.94,896.3 520.896,875.921 530.852,855.801 540.807,835.941 550.763,816.34 560.719,796.999 570.675,777.918 580.631,759.096 590.586,740.534 600.542,722.231 610.498,704.189 620.454,686.405 630.409,668.881 640.365,651.617 650.321,634.613 660.277,617.868 670.232,601.383 680.188,585.157 690.144,569.191 700.1,553.485 710.055,538.038 720.011,522.851 729.967,507.923 739.923,493.255 749.878,478.847 759.834,464.698 769.79,450.809 779.746,437.179 789.701,423.809 799.657,410.699 809.613,397.848 819.569,385.257 829.525,372.925 839.48,360.854 849.436,349.041 859.392,337.489 869.348,326.196 879.303,315.162 889.259,304.388 899.215,293.874 909.171,283.619 919.126,273.624 929.082,263.889 939.038,254.413 948.994,245.197 958.949,236.241 968.905,227.544 978.861,219.106 988.817,210.929 998.772,203.01 1008.73,195.352 1018.68,187.953 1028.64,180.814 1038.6,173.934 1048.55,167.314 1058.51,160.954 1068.46,154.853 1078.42,149.011 1088.37,143.43 1098.33,138.108 1108.29,133.045 1118.24,128.243 1128.2,123.699 1138.15,119.416 1148.11,115.392 1158.06,111.628 1168.02,108.123 1177.98,104.878 1187.93,101.892 1197.89,99.1662 1207.84,96.6999 1217.8,94.4932 1227.75,92.5461 1237.71,90.8587 1247.67,89.4308 1257.62,88.2626 1267.58,87.3539 1277.53,86.7049 1287.49,86.3155 1297.45,86.1857 1307.4,86.3155 1317.36,86.7049 1327.31,87.3539 1337.27,88.2626 1347.22,89.4308 1357.18,90.8587 1367.14,92.5461 1377.09,94.4932 1387.05,96.6999 1397,99.1662 1406.96,101.892 1416.91,104.878 1426.87,108.123 1436.83,111.628 1446.78,115.392 1456.74,119.416 1466.69,123.699 1476.65,128.243 1486.6,133.045 1496.56,138.108 1506.52,143.43 1516.47,149.011 1526.43,154.853 1536.38,160.954 1546.34,167.314 1556.3,173.934 1566.25,180.814 1576.21,187.953 1586.16,195.352 1596.12,203.01 1606.07,210.929 1616.03,219.106 1625.99,227.544 1635.94,236.241 1645.9,245.197 1655.85,254.413 1665.81,263.889 1675.76,273.624 1685.72,283.619 1695.68,293.874 1705.63,304.388 1715.59,315.162 1725.54,326.196 1735.5,337.489 1745.45,349.041 1755.41,360.854 1765.37,372.925 1775.32,385.257 1785.28,397.848 1795.23,410.699 1805.19,423.809 1815.14,437.179 1825.1,450.809 1835.06,464.698 1845.01,478.847 1854.97,493.255 1864.92,507.923 1874.88,522.851 1884.84,538.038 1894.79,553.485 1904.75,569.191 1914.7,585.157 1924.66,601.383 1934.61,617.868 1944.57,634.613 1954.53,651.617 1964.48,668.881 1974.44,686.405 1984.39,704.189 1994.35,722.231 2004.3,740.534 2014.26,759.096 2024.22,777.918 2034.17,796.999 2044.13,816.34 2054.08,835.941 2064.04,855.801 2073.99,875.921 2083.95,896.3 2093.91,916.939 2103.86,937.838 2113.82,958.996 2123.77,980.414 2133.73,1002.09 2143.68,1024.03 2153.64,1046.23 2163.6,1068.68 2173.55,1091.4 2183.51,1114.37 2193.46,1137.61 2203.42,1161.1 2213.38,1184.86 2223.33,1208.87 2233.29,1233.14 2243.24,1257.68 2253.2,1282.47 2263.15,1307.52 2273.11,1332.84 2283.07,1358.41 2293.02,1384.24 "/>
<polyline clip-path="url(#clip992)" style="stroke:#e26f46; stroke-linecap:round; stroke-linejoin:round; stroke-width:4; stroke-opacity:1; fill:none" points="301.869,735.212 2293.02,735.212 "/>
<polyline clip-path="url(#clip992)" style="stroke:#000000; stroke-linecap:round; stroke-linejoin:round; stroke-width:4; stroke-opacity:1; fill:none" points="799.657,735.212 799.657,86.1857 "/>
<polyline clip-path="url(#clip992)" style="stroke:#000000; stroke-linecap:round; stroke-linejoin:round; stroke-width:4; stroke-opacity:1; fill:none" points="1795.23,735.212 1795.23,86.1857 "/>
<polyline clip-path="url(#clip992)" style="stroke:#000000; stroke-linecap:round; stroke-linejoin:round; stroke-width:4; stroke-opacity:1; fill:none" points="799.657,86.1857 1795.23,86.1857 "/>
<circle clip-path="url(#clip992)" cx="1297.45" cy="86.1857" r="14.4" fill="#00a9ad" fill-rule="evenodd" fill-opacity="1" stroke="#000000" stroke-opacity="1" stroke-width="3.2"/>
<path clip-path="url(#clip990)" d="M1854.37 352.309 L2282.4 352.309 L2282.4 93.1086 L1854.37 93.1086  Z" fill="#ffffff" fill-rule="evenodd" fill-opacity="1"/>
<polyline clip-path="url(#clip990)" style="stroke:#000000; stroke-linecap:round; stroke-linejoin:round; stroke-width:4; stroke-opacity:1; fill:none" points="1854.37,352.309 2282.4,352.309 2282.4,93.1086 1854.37,93.1086 1854.37,352.309 "/>
<polyline clip-path="url(#clip990)" style="stroke:#009af9; stroke-linecap:round; stroke-linejoin:round; stroke-width:4; stroke-opacity:1; fill:none" points="1877.82,144.949 2018.53,144.949 "/>
<path clip-path="url(#clip990)" d="M2058.49 126.21 L2058.49 129.752 L2054.41 129.752 Q2052.12 129.752 2051.22 130.678 Q2050.34 131.604 2050.34 134.011 L2050.34 136.303 L2057.35 136.303 L2057.35 139.613 L2050.34 139.613 L2050.34 162.229 L2046.06 162.229 L2046.06 139.613 L2041.98 139.613 L2041.98 136.303 L2046.06 136.303 L2046.06 134.497 Q2046.06 130.169 2048.07 128.201 Q2050.09 126.21 2054.46 126.21 L2058.49 126.21 Z" fill="#000000" fill-rule="nonzero" fill-opacity="1" /><path clip-path="url(#clip990)" d="M2072.28 126.257 Q2069.18 131.581 2067.68 136.789 Q2066.17 141.997 2066.17 147.344 Q2066.17 152.692 2067.68 157.946 Q2069.21 163.178 2072.28 168.479 L2068.58 168.479 Q2065.11 163.039 2063.37 157.784 Q2061.66 152.53 2061.66 147.344 Q2061.66 142.182 2063.37 136.951 Q2065.09 131.72 2068.58 126.257 L2072.28 126.257 Z" fill="#000000" fill-rule="nonzero" fill-opacity="1" /><path clip-path="url(#clip990)" d="M2102.1 136.303 L2092.72 148.919 L2102.59 162.229 L2097.56 162.229 L2090.02 152.043 L2082.47 162.229 L2077.45 162.229 L2087.52 148.664 L2078.3 136.303 L2083.33 136.303 L2090.2 145.539 L2097.08 136.303 L2102.1 136.303 Z" fill="#000000" fill-rule="nonzero" fill-opacity="1" /><path clip-path="url(#clip990)" d="M2107.93 126.257 L2111.64 126.257 Q2115.11 131.72 2116.82 136.951 Q2118.56 142.182 2118.56 147.344 Q2118.56 152.53 2116.82 157.784 Q2115.11 163.039 2111.64 168.479 L2107.93 168.479 Q2111.01 163.178 2112.52 157.946 Q2114.04 152.692 2114.04 147.344 Q2114.04 141.997 2112.52 136.789 Q2111.01 131.581 2107.93 126.257 Z" fill="#000000" fill-rule="nonzero" fill-opacity="1" /><polyline clip-path="url(#clip990)" style="stroke:#e26f46; stroke-linecap:round; stroke-linejoin:round; stroke-width:4; stroke-opacity:1; fill:none" points="1877.82,196.789 2018.53,196.789 "/>
<path clip-path="url(#clip990)" d="M2055.83 216.476 Q2054.02 221.106 2052.31 222.518 Q2050.6 223.93 2047.72 223.93 L2044.32 223.93 L2044.32 220.365 L2046.82 220.365 Q2048.58 220.365 2049.55 219.532 Q2050.53 218.698 2051.71 215.596 L2052.47 213.652 L2041.98 188.143 L2046.5 188.143 L2054.6 208.421 L2062.7 188.143 L2067.22 188.143 L2055.83 216.476 Z" fill="#000000" fill-rule="nonzero" fill-opacity="1" /><path clip-path="url(#clip990)" d="M2088.72 192.541 L2118.4 192.541 L2118.4 196.43 L2088.72 196.43 L2088.72 192.541 M2088.72 201.985 L2118.4 201.985 L2118.4 205.921 L2088.72 205.921 L2088.72 201.985 Z" fill="#000000" fill-rule="nonzero" fill-opacity="1" /><path clip-path="url(#clip990)" d="M2153.56 182.587 Q2149.95 182.587 2148.12 186.152 Q2146.31 189.694 2146.31 196.823 Q2146.31 203.93 2148.12 207.495 Q2149.95 211.036 2153.56 211.036 Q2157.19 211.036 2159 207.495 Q2160.83 203.93 2160.83 196.823 Q2160.83 189.694 2159 186.152 Q2157.19 182.587 2153.56 182.587 M2153.56 178.884 Q2159.37 178.884 2162.42 183.49 Q2165.5 188.073 2165.5 196.823 Q2165.5 205.55 2162.42 210.157 Q2159.37 214.74 2153.56 214.74 Q2147.75 214.74 2144.67 210.157 Q2141.61 205.55 2141.61 196.823 Q2141.61 188.073 2144.67 183.49 Q2147.75 178.884 2153.56 178.884 Z" fill="#000000" fill-rule="nonzero" fill-opacity="1" /><polyline clip-path="url(#clip990)" style="stroke:#000000; stroke-linecap:round; stroke-linejoin:round; stroke-width:4; stroke-opacity:1; fill:none" points="1877.82,248.629 2018.53,248.629 "/>
<path clip-path="url(#clip990)" d="M2057.17 243.964 Q2056.45 243.548 2055.6 243.362 Q2054.76 243.154 2053.74 243.154 Q2050.13 243.154 2048.19 245.515 Q2046.27 247.853 2046.27 252.251 L2046.27 265.909 L2041.98 265.909 L2041.98 239.983 L2046.27 239.983 L2046.27 244.011 Q2047.61 241.649 2049.76 240.515 Q2051.91 239.358 2054.99 239.358 Q2055.43 239.358 2055.97 239.427 Q2056.5 239.474 2057.15 239.589 L2057.17 243.964 Z" fill="#000000" fill-rule="nonzero" fill-opacity="1" /><path clip-path="url(#clip990)" d="M2082.77 251.881 L2082.77 253.964 L2063.19 253.964 Q2063.47 258.362 2065.83 260.677 Q2068.21 262.969 2072.45 262.969 Q2074.9 262.969 2077.19 262.367 Q2079.51 261.765 2081.78 260.561 L2081.78 264.589 Q2079.48 265.561 2077.08 266.071 Q2074.67 266.58 2072.19 266.58 Q2065.99 266.58 2062.35 262.969 Q2058.74 259.358 2058.74 253.2 Q2058.74 246.835 2062.17 243.108 Q2065.62 239.358 2071.45 239.358 Q2076.68 239.358 2079.72 242.737 Q2082.77 246.094 2082.77 251.881 M2078.51 250.631 Q2078.47 247.136 2076.54 245.052 Q2074.65 242.969 2071.5 242.969 Q2067.93 242.969 2065.78 244.983 Q2063.65 246.997 2063.33 250.654 L2078.51 250.631 Z" fill="#000000" fill-rule="nonzero" fill-opacity="1" /><path clip-path="url(#clip990)" d="M2108.42 240.978 L2108.42 244.96 Q2106.61 243.964 2104.78 243.478 Q2102.98 242.969 2101.13 242.969 Q2096.98 242.969 2094.69 245.608 Q2092.4 248.224 2092.4 252.969 Q2092.4 257.714 2094.69 260.353 Q2096.98 262.969 2101.13 262.969 Q2102.98 262.969 2104.78 262.483 Q2106.61 261.973 2108.42 260.978 L2108.42 264.913 Q2106.64 265.747 2104.72 266.163 Q2102.82 266.58 2100.66 266.58 Q2094.81 266.58 2091.36 262.899 Q2087.91 259.219 2087.91 252.969 Q2087.91 246.626 2091.38 242.992 Q2094.88 239.358 2100.94 239.358 Q2102.91 239.358 2104.78 239.775 Q2106.66 240.168 2108.42 240.978 Z" fill="#000000" fill-rule="nonzero" fill-opacity="1" /><path clip-path="url(#clip990)" d="M2120.04 232.622 L2120.04 239.983 L2128.81 239.983 L2128.81 243.293 L2120.04 243.293 L2120.04 257.367 Q2120.04 260.538 2120.9 261.441 Q2121.78 262.344 2124.44 262.344 L2128.81 262.344 L2128.81 265.909 L2124.44 265.909 Q2119.51 265.909 2117.63 264.08 Q2115.76 262.228 2115.76 257.367 L2115.76 243.293 L2112.63 243.293 L2112.63 239.983 L2115.76 239.983 L2115.76 232.622 L2120.04 232.622 Z" fill="#000000" fill-rule="nonzero" fill-opacity="1" /><path clip-path="url(#clip990)" d="M2146.2 252.876 Q2141.03 252.876 2139.04 254.057 Q2137.05 255.237 2137.05 258.085 Q2137.05 260.353 2138.53 261.696 Q2140.04 263.015 2142.61 263.015 Q2146.15 263.015 2148.28 260.515 Q2150.43 257.992 2150.43 253.825 L2150.43 252.876 L2146.2 252.876 M2154.69 251.117 L2154.69 265.909 L2150.43 265.909 L2150.43 261.973 Q2148.97 264.335 2146.8 265.469 Q2144.62 266.58 2141.47 266.58 Q2137.49 266.58 2135.13 264.358 Q2132.79 262.112 2132.79 258.362 Q2132.79 253.987 2135.71 251.765 Q2138.65 249.543 2144.46 249.543 L2150.43 249.543 L2150.43 249.126 Q2150.43 246.187 2148.49 244.589 Q2146.57 242.969 2143.07 242.969 Q2140.85 242.969 2138.74 243.501 Q2136.64 244.034 2134.69 245.099 L2134.69 241.163 Q2137.03 240.261 2139.23 239.821 Q2141.43 239.358 2143.51 239.358 Q2149.14 239.358 2151.91 242.274 Q2154.69 245.191 2154.69 251.117 Z" fill="#000000" fill-rule="nonzero" fill-opacity="1" /><path clip-path="url(#clip990)" d="M2185.02 250.261 L2185.02 265.909 L2180.76 265.909 L2180.76 250.399 Q2180.76 246.719 2179.32 244.89 Q2177.89 243.062 2175.02 243.062 Q2171.57 243.062 2169.58 245.261 Q2167.59 247.46 2167.59 251.256 L2167.59 265.909 L2163.3 265.909 L2163.3 239.983 L2167.59 239.983 L2167.59 244.011 Q2169.11 241.673 2171.17 240.515 Q2173.26 239.358 2175.96 239.358 Q2180.43 239.358 2182.72 242.136 Q2185.02 244.89 2185.02 250.261 Z" fill="#000000" fill-rule="nonzero" fill-opacity="1" /><path clip-path="url(#clip990)" d="M2210.57 252.645 Q2210.57 248.015 2208.65 245.469 Q2206.75 242.923 2203.3 242.923 Q2199.88 242.923 2197.96 245.469 Q2196.06 248.015 2196.06 252.645 Q2196.06 257.251 2197.96 259.798 Q2199.88 262.344 2203.3 262.344 Q2206.75 262.344 2208.65 259.798 Q2210.57 257.251 2210.57 252.645 M2214.83 262.691 Q2214.83 269.311 2211.89 272.529 Q2208.95 275.77 2202.89 275.77 Q2200.64 275.77 2198.65 275.422 Q2196.66 275.098 2194.78 274.404 L2194.78 270.26 Q2196.66 271.279 2198.49 271.765 Q2200.32 272.251 2202.21 272.251 Q2206.4 272.251 2208.49 270.052 Q2210.57 267.876 2210.57 263.455 L2210.57 261.348 Q2209.25 263.64 2207.19 264.774 Q2205.13 265.909 2202.26 265.909 Q2197.49 265.909 2194.58 262.274 Q2191.66 258.64 2191.66 252.645 Q2191.66 246.626 2194.58 242.992 Q2197.49 239.358 2202.26 239.358 Q2205.13 239.358 2207.19 240.492 Q2209.25 241.626 2210.57 243.918 L2210.57 239.983 L2214.83 239.983 L2214.83 262.691 Z" fill="#000000" fill-rule="nonzero" fill-opacity="1" /><path clip-path="url(#clip990)" d="M2223.6 229.89 L2227.86 229.89 L2227.86 265.909 L2223.6 265.909 L2223.6 229.89 Z" fill="#000000" fill-rule="nonzero" fill-opacity="1" /><path clip-path="url(#clip990)" d="M2258.95 251.881 L2258.95 253.964 L2239.37 253.964 Q2239.65 258.362 2242.01 260.677 Q2244.39 262.969 2248.63 262.969 Q2251.08 262.969 2253.37 262.367 Q2255.69 261.765 2257.96 260.561 L2257.96 264.589 Q2255.66 265.561 2253.26 266.071 Q2250.85 266.58 2248.37 266.58 Q2242.17 266.58 2238.53 262.969 Q2234.92 259.358 2234.92 253.2 Q2234.92 246.835 2238.35 243.108 Q2241.8 239.358 2247.63 239.358 Q2252.86 239.358 2255.89 242.737 Q2258.95 246.094 2258.95 251.881 M2254.69 250.631 Q2254.64 247.136 2252.72 245.052 Q2250.83 242.969 2247.68 242.969 Q2244.11 242.969 2241.96 244.983 Q2239.83 246.997 2239.51 250.654 L2254.69 250.631 Z" fill="#000000" fill-rule="nonzero" fill-opacity="1" /><circle clip-path="url(#clip990)" cx="1948.18" cy="300.469" r="20.48" fill="#00a9ad" fill-rule="evenodd" fill-opacity="1" stroke="#000000" stroke-opacity="1" stroke-width="4.55111"/>
<path clip-path="url(#clip990)" d="M2062.33 296.8 Q2063.93 293.929 2066.15 292.564 Q2068.37 291.198 2071.38 291.198 Q2075.43 291.198 2077.63 294.045 Q2079.83 296.869 2079.83 302.101 L2079.83 317.749 L2075.55 317.749 L2075.55 302.239 Q2075.55 298.513 2074.23 296.707 Q2072.91 294.902 2070.2 294.902 Q2066.89 294.902 2064.97 297.101 Q2063.05 299.3 2063.05 303.096 L2063.05 317.749 L2058.77 317.749 L2058.77 302.239 Q2058.77 298.489 2057.45 296.707 Q2056.13 294.902 2053.37 294.902 Q2050.11 294.902 2048.19 297.124 Q2046.27 299.323 2046.27 303.096 L2046.27 317.749 L2041.98 317.749 L2041.98 291.823 L2046.27 291.823 L2046.27 295.851 Q2047.72 293.466 2049.76 292.332 Q2051.8 291.198 2054.6 291.198 Q2057.42 291.198 2059.39 292.633 Q2061.38 294.068 2062.33 296.8 Z" fill="#000000" fill-rule="nonzero" fill-opacity="1" /><path clip-path="url(#clip990)" d="M2088.33 291.823 L2092.59 291.823 L2092.59 317.749 L2088.33 317.749 L2088.33 291.823 M2088.33 281.73 L2092.59 281.73 L2092.59 287.124 L2088.33 287.124 L2088.33 281.73 Z" fill="#000000" fill-rule="nonzero" fill-opacity="1" /><path clip-path="url(#clip990)" d="M2118.56 295.758 L2118.56 281.73 L2122.82 281.73 L2122.82 317.749 L2118.56 317.749 L2118.56 313.86 Q2117.22 316.175 2115.15 317.309 Q2113.12 318.42 2110.25 318.42 Q2105.55 318.42 2102.59 314.67 Q2099.65 310.92 2099.65 304.809 Q2099.65 298.698 2102.59 294.948 Q2105.55 291.198 2110.25 291.198 Q2113.12 291.198 2115.15 292.332 Q2117.22 293.443 2118.56 295.758 M2104.04 304.809 Q2104.04 309.508 2105.97 312.193 Q2107.91 314.855 2111.29 314.855 Q2114.67 314.855 2116.61 312.193 Q2118.56 309.508 2118.56 304.809 Q2118.56 300.11 2116.61 297.448 Q2114.67 294.763 2111.29 294.763 Q2107.91 294.763 2105.97 297.448 Q2104.04 300.11 2104.04 304.809 Z" fill="#000000" fill-rule="nonzero" fill-opacity="1" /><path clip-path="url(#clip990)" d="M2135.71 313.86 L2135.71 327.61 L2131.43 327.61 L2131.43 291.823 L2135.71 291.823 L2135.71 295.758 Q2137.05 293.443 2139.09 292.332 Q2141.15 291.198 2144 291.198 Q2148.72 291.198 2151.66 294.948 Q2154.62 298.698 2154.62 304.809 Q2154.62 310.92 2151.66 314.67 Q2148.72 318.42 2144 318.42 Q2141.15 318.42 2139.09 317.309 Q2137.05 316.175 2135.71 313.86 M2150.2 304.809 Q2150.2 300.11 2148.26 297.448 Q2146.34 294.763 2142.96 294.763 Q2139.58 294.763 2137.63 297.448 Q2135.71 300.11 2135.71 304.809 Q2135.71 309.508 2137.63 312.193 Q2139.58 314.855 2142.96 314.855 Q2146.34 314.855 2148.26 312.193 Q2150.2 309.508 2150.2 304.809 Z" fill="#000000" fill-rule="nonzero" fill-opacity="1" /><path clip-path="url(#clip990)" d="M2171.73 294.809 Q2168.3 294.809 2166.31 297.494 Q2164.32 300.156 2164.32 304.809 Q2164.32 309.462 2166.29 312.147 Q2168.28 314.809 2171.73 314.809 Q2175.13 314.809 2177.12 312.124 Q2179.11 309.438 2179.11 304.809 Q2179.11 300.202 2177.12 297.517 Q2175.13 294.809 2171.73 294.809 M2171.73 291.198 Q2177.28 291.198 2180.46 294.809 Q2183.63 298.42 2183.63 304.809 Q2183.63 311.175 2180.46 314.809 Q2177.28 318.42 2171.73 318.42 Q2166.15 318.42 2162.98 314.809 Q2159.83 311.175 2159.83 304.809 Q2159.83 298.42 2162.98 294.809 Q2166.15 291.198 2171.73 291.198 Z" fill="#000000" fill-rule="nonzero" fill-opacity="1" /><path clip-path="url(#clip990)" d="M2190.69 291.823 L2194.95 291.823 L2194.95 317.749 L2190.69 317.749 L2190.69 291.823 M2190.69 281.73 L2194.95 281.73 L2194.95 287.124 L2190.69 287.124 L2190.69 281.73 Z" fill="#000000" fill-rule="nonzero" fill-opacity="1" /><path clip-path="url(#clip990)" d="M2225.41 302.101 L2225.41 317.749 L2221.15 317.749 L2221.15 302.239 Q2221.15 298.559 2219.71 296.73 Q2218.28 294.902 2215.41 294.902 Q2211.96 294.902 2209.97 297.101 Q2207.98 299.3 2207.98 303.096 L2207.98 317.749 L2203.7 317.749 L2203.7 291.823 L2207.98 291.823 L2207.98 295.851 Q2209.51 293.513 2211.57 292.355 Q2213.65 291.198 2216.36 291.198 Q2220.83 291.198 2223.12 293.976 Q2225.41 296.73 2225.41 302.101 Z" fill="#000000" fill-rule="nonzero" fill-opacity="1" /><path clip-path="url(#clip990)" d="M2238.12 284.462 L2238.12 291.823 L2246.89 291.823 L2246.89 295.133 L2238.12 295.133 L2238.12 309.207 Q2238.12 312.378 2238.97 313.281 Q2239.85 314.184 2242.52 314.184 L2246.89 314.184 L2246.89 317.749 L2242.52 317.749 Q2237.58 317.749 2235.71 315.92 Q2233.83 314.068 2233.83 309.207 L2233.83 295.133 L2230.71 295.133 L2230.71 291.823 L2233.83 291.823 L2233.83 284.462 L2238.12 284.462 Z" fill="#000000" fill-rule="nonzero" fill-opacity="1" /></svg>
