<?xml version="1.0" encoding="utf-8"?>
<svg xmlns="http://www.w3.org/2000/svg" xmlns:xlink="http://www.w3.org/1999/xlink" width="600" height="400" viewBox="0 0 2400 1600">
<defs>
  <clipPath id="clip980">
    <rect x="0" y="0" width="2400" height="1600"/>
  </clipPath>
</defs>
<path clip-path="url(#clip980)" d="M0 1600 L2400 1600 L2400 0 L0 0  Z" fill="#ffffff" fill-rule="evenodd" fill-opacity="1"/>
<defs>
  <clipPath id="clip981">
    <rect x="480" y="0" width="1681" height="1600"/>
  </clipPath>
</defs>
<path clip-path="url(#clip980)" d="M242.135 1423.18 L2352.76 1423.18 L2352.76 47.2441 L242.135 47.2441  Z" fill="#ffffff" fill-rule="evenodd" fill-opacity="1"/>
<defs>
  <clipPath id="clip982">
    <rect x="242" y="47" width="2112" height="1377"/>
  </clipPath>
</defs>
<polyline clip-path="url(#clip982)" style="stroke:#000000; stroke-linecap:round; stroke-linejoin:round; stroke-width:2; stroke-opacity:0.1; fill:none" points="301.869,1423.18 301.869,47.2441 "/>
<polyline clip-path="url(#clip982)" style="stroke:#000000; stroke-linecap:round; stroke-linejoin:round; stroke-width:2; stroke-opacity:0.1; fill:none" points="799.657,1423.18 799.657,47.2441 "/>
<polyline clip-path="url(#clip982)" style="stroke:#000000; stroke-linecap:round; stroke-linejoin:round; stroke-width:2; stroke-opacity:0.1; fill:none" points="1297.45,1423.18 1297.45,47.2441 "/>
<polyline clip-path="url(#clip982)" style="stroke:#000000; stroke-linecap:round; stroke-linejoin:round; stroke-width:2; stroke-opacity:0.1; fill:none" points="1795.23,1423.18 1795.23,47.2441 "/>
<polyline clip-path="url(#clip982)" style="stroke:#000000; stroke-linecap:round; stroke-linejoin:round; stroke-width:2; stroke-opacity:0.1; fill:none" points="2293.02,1423.18 2293.02,47.2441 "/>
<polyline clip-path="url(#clip980)" style="stroke:#000000; stroke-linecap:round; stroke-linejoin:round; stroke-width:4; stroke-opacity:1; fill:none" points="242.135,1423.18 2352.76,1423.18 "/>
<polyline clip-path="url(#clip980)" style="stroke:#000000; stroke-linecap:round; stroke-linejoin:round; stroke-width:4; stroke-opacity:1; fill:none" points="301.869,1423.18 301.869,1404.28 "/>
<polyline clip-path="url(#clip980)" style="stroke:#000000; stroke-linecap:round; stroke-linejoin:round; stroke-width:4; stroke-opacity:1; fill:none" points="799.657,1423.18 799.657,1404.28 "/>
<polyline clip-path="url(#clip980)" style="stroke:#000000; stroke-linecap:round; stroke-linejoin:round; stroke-width:4; stroke-opacity:1; fill:none" points="1297.45,1423.18 1297.45,1404.28 "/>
<polyline clip-path="url(#clip980)" style="stroke:#000000; stroke-linecap:round; stroke-linejoin:round; stroke-width:4; stroke-opacity:1; fill:none" points="1795.23,1423.18 1795.23,1404.28 "/>
<polyline clip-path="url(#clip980)" style="stroke:#000000; stroke-linecap:round; stroke-linejoin:round; stroke-width:4; stroke-opacity:1; fill:none" points="2293.02,1423.18 2293.02,1404.28 "/>
<path clip-path="url(#clip980)" d="M255.932 1468.75 L285.608 1468.75 L285.608 1472.69 L255.932 1472.69 L255.932 1468.75 Z" fill="#000000" fill-rule="nonzero" fill-opacity="1" /><path clip-path="url(#clip980)" d="M296.51 1481.64 L304.149 1481.64 L304.149 1455.28 L295.839 1456.95 L295.839 1452.69 L304.103 1451.02 L308.779 1451.02 L308.779 1481.64 L316.418 1481.64 L316.418 1485.58 L296.51 1485.58 L296.51 1481.64 Z" fill="#000000" fill-rule="nonzero" fill-opacity="1" /><path clip-path="url(#clip980)" d="M335.862 1454.1 Q332.251 1454.1 330.422 1457.66 Q328.617 1461.2 328.617 1468.33 Q328.617 1475.44 330.422 1479.01 Q332.251 1482.55 335.862 1482.55 Q339.496 1482.55 341.302 1479.01 Q343.131 1475.44 343.131 1468.33 Q343.131 1461.2 341.302 1457.66 Q339.496 1454.1 335.862 1454.1 M335.862 1450.39 Q341.672 1450.39 344.728 1455 Q347.806 1459.58 347.806 1468.33 Q347.806 1477.06 344.728 1481.67 Q341.672 1486.25 335.862 1486.25 Q330.052 1486.25 326.973 1481.67 Q323.918 1477.06 323.918 1468.33 Q323.918 1459.58 326.973 1455 Q330.052 1450.39 335.862 1450.39 Z" fill="#000000" fill-rule="nonzero" fill-opacity="1" /><path clip-path="url(#clip980)" d="M769.299 1468.75 L798.974 1468.75 L798.974 1472.69 L769.299 1472.69 L769.299 1468.75 Z" fill="#000000" fill-rule="nonzero" fill-opacity="1" /><path clip-path="url(#clip980)" d="M809.113 1451.02 L827.47 1451.02 L827.47 1454.96 L813.396 1454.96 L813.396 1463.43 Q814.414 1463.08 815.433 1462.92 Q816.451 1462.73 817.47 1462.73 Q823.257 1462.73 826.636 1465.9 Q830.016 1469.08 830.016 1474.49 Q830.016 1480.07 826.544 1483.17 Q823.071 1486.25 816.752 1486.25 Q814.576 1486.25 812.308 1485.88 Q810.062 1485.51 807.655 1484.77 L807.655 1480.07 Q809.738 1481.2 811.96 1481.76 Q814.183 1482.32 816.659 1482.32 Q820.664 1482.32 823.002 1480.21 Q825.34 1478.1 825.34 1474.49 Q825.34 1470.88 823.002 1468.77 Q820.664 1466.67 816.659 1466.67 Q814.784 1466.67 812.91 1467.08 Q811.058 1467.5 809.113 1468.38 L809.113 1451.02 Z" fill="#000000" fill-rule="nonzero" fill-opacity="1" /><path clip-path="url(#clip980)" d="M1297.45 1454.1 Q1293.83 1454.1 1292.01 1457.66 Q1290.2 1461.2 1290.2 1468.33 Q1290.2 1475.44 1292.01 1479.01 Q1293.83 1482.55 1297.45 1482.55 Q1301.08 1482.55 1302.89 1479.01 Q1304.71 1475.44 1304.71 1468.33 Q1304.71 1461.2 1302.89 1457.66 Q1301.08 1454.1 1297.45 1454.1 M1297.45 1450.39 Q1303.26 1450.39 1306.31 1455 Q1309.39 1459.58 1309.39 1468.33 Q1309.39 1477.06 1306.31 1481.67 Q1303.26 1486.25 1297.45 1486.25 Q1291.64 1486.25 1288.56 1481.67 Q1285.5 1477.06 1285.5 1468.33 Q1285.5 1459.58 1288.56 1455 Q1291.64 1450.39 1297.45 1450.39 Z" fill="#000000" fill-rule="nonzero" fill-opacity="1" /><path clip-path="url(#clip980)" d="M1785.51 1451.02 L1803.87 1451.02 L1803.87 1454.96 L1789.79 1454.96 L1789.79 1463.43 Q1790.81 1463.08 1791.83 1462.92 Q1792.85 1462.73 1793.87 1462.73 Q1799.65 1462.73 1803.03 1465.9 Q1806.41 1469.08 1806.41 1474.49 Q1806.41 1480.07 1802.94 1483.17 Q1799.47 1486.25 1793.15 1486.25 Q1790.97 1486.25 1788.71 1485.88 Q1786.46 1485.51 1784.05 1484.77 L1784.05 1480.07 Q1786.14 1481.2 1788.36 1481.76 Q1790.58 1482.32 1793.06 1482.32 Q1797.06 1482.32 1799.4 1480.21 Q1801.74 1478.1 1801.74 1474.49 Q1801.74 1470.88 1799.4 1468.77 Q1797.06 1466.67 1793.06 1466.67 Q1791.18 1466.67 1789.31 1467.08 Q1787.46 1467.5 1785.51 1468.38 L1785.51 1451.02 Z" fill="#000000" fill-rule="nonzero" fill-opacity="1" /><path clip-path="url(#clip980)" d="M2267.71 1481.64 L2275.35 1481.64 L2275.35 1455.28 L2267.04 1456.95 L2267.04 1452.69 L2275.3 1451.02 L2279.98 1451.02 L2279.98 1481.64 L2287.62 1481.64 L2287.62 1485.58 L2267.71 1485.58 L2267.71 1481.64 Z" fill="#000000" fill-rule="nonzero" fill-opacity="1" /><path clip-path="url(#clip980)" d="M2307.06 1454.1 Q2303.45 1454.1 2301.62 1457.66 Q2299.82 1461.2 2299.82 1468.33 Q2299.82 1475.44 2301.62 1479.01 Q2303.45 1482.55 2307.06 1482.55 Q2310.69 1482.55 2312.5 1479.01 Q2314.33 1475.44 2314.33 1468.33 Q2314.33 1461.2 2312.5 1457.66 Q2310.69 1454.1 2307.06 1454.1 M2307.06 1450.39 Q2312.87 1450.39 2315.93 1455 Q2319 1459.58 2319 1468.33 Q2319 1477.06 2315.93 1481.67 Q2312.87 1486.25 2307.06 1486.25 Q2301.25 1486.25 2298.17 1481.67 Q2295.12 1477.06 2295.12 1468.33 Q2295.12 1459.58 2298.17 1455 Q2301.25 1450.39 2307.06 1450.39 Z" fill="#000000" fill-rule="nonzero" fill-opacity="1" /><path clip-path="url(#clip980)" d="M1198.22 1532.4 L1185.33 1549.74 L1198.89 1568.04 L1191.98 1568.04 L1181.61 1554.04 L1171.23 1568.04 L1164.32 1568.04 L1178.17 1549.39 L1165.5 1532.4 L1172.41 1532.4 L1181.86 1545.1 L1191.31 1532.4 L1198.22 1532.4 Z" fill="#000000" fill-rule="nonzero" fill-opacity="1" /><path clip-path="url(#clip980)" d="M1223.68 1532.4 L1229.89 1532.4 L1241.03 1562.31 L1252.17 1532.4 L1258.38 1532.4 L1245.01 1568.04 L1237.05 1568.04 L1223.68 1532.4 Z" fill="#000000" fill-rule="nonzero" fill-opacity="1" /><path clip-path="url(#clip980)" d="M1282.66 1550.12 Q1275.56 1550.12 1272.83 1551.75 Q1270.09 1553.37 1270.09 1557.29 Q1270.09 1560.4 1272.13 1562.25 Q1274.19 1564.07 1277.73 1564.07 Q1282.6 1564.07 1285.53 1560.63 Q1288.49 1557.16 1288.49 1551.43 L1288.49 1550.12 L1282.66 1550.12 M1294.34 1547.71 L1294.34 1568.04 L1288.49 1568.04 L1288.49 1562.63 Q1286.48 1565.88 1283.49 1567.44 Q1280.5 1568.97 1276.17 1568.97 Q1270.69 1568.97 1267.45 1565.91 Q1264.23 1562.82 1264.23 1557.67 Q1264.23 1551.65 1268.24 1548.6 Q1272.28 1545.54 1280.27 1545.54 L1288.49 1545.54 L1288.49 1544.97 Q1288.49 1540.93 1285.81 1538.73 Q1283.17 1536.5 1278.36 1536.5 Q1275.31 1536.5 1272.41 1537.23 Q1269.52 1537.97 1266.84 1539.43 L1266.84 1534.02 Q1270.06 1532.78 1273.08 1532.17 Q1276.1 1531.54 1278.97 1531.54 Q1286.7 1531.54 1290.52 1535.55 Q1294.34 1539.56 1294.34 1547.71 Z" fill="#000000" fill-rule="nonzero" fill-opacity="1" /><path clip-path="url(#clip980)" d="M1306.41 1518.52 L1312.26 1518.52 L1312.26 1568.04 L1306.41 1568.04 L1306.41 1518.52 Z" fill="#000000" fill-rule="nonzero" fill-opacity="1" /><path clip-path="url(#clip980)" d="M1323.91 1553.98 L1323.91 1532.4 L1329.77 1532.4 L1329.77 1553.75 Q1329.77 1558.81 1331.74 1561.36 Q1333.71 1563.87 1337.66 1563.87 Q1342.4 1563.87 1345.14 1560.85 Q1347.91 1557.83 1347.91 1552.61 L1347.91 1532.4 L1353.77 1532.4 L1353.77 1568.04 L1347.91 1568.04 L1347.91 1562.57 Q1345.78 1565.82 1342.94 1567.41 Q1340.14 1568.97 1336.42 1568.97 Q1330.28 1568.97 1327.09 1565.15 Q1323.91 1561.33 1323.91 1553.98 M1338.65 1531.54 L1338.65 1531.54 Z" fill="#000000" fill-rule="nonzero" fill-opacity="1" /><path clip-path="url(#clip980)" d="M1396.32 1548.76 L1396.32 1551.62 L1369.39 1551.62 Q1369.78 1557.67 1373.02 1560.85 Q1376.3 1564 1382.13 1564 Q1385.5 1564 1388.65 1563.17 Q1391.83 1562.35 1394.95 1560.69 L1394.95 1566.23 Q1391.8 1567.57 1388.49 1568.27 Q1385.18 1568.97 1381.77 1568.97 Q1373.24 1568.97 1368.25 1564 Q1363.28 1559.04 1363.28 1550.57 Q1363.28 1541.82 1367.99 1536.69 Q1372.74 1531.54 1380.76 1531.54 Q1387.95 1531.54 1392.12 1536.18 Q1396.32 1540.8 1396.32 1548.76 M1390.46 1547.04 Q1390.4 1542.23 1387.76 1539.37 Q1385.15 1536.5 1380.82 1536.5 Q1375.92 1536.5 1372.96 1539.27 Q1370.03 1542.04 1369.58 1547.07 L1390.46 1547.04 Z" fill="#000000" fill-rule="nonzero" fill-opacity="1" /><path clip-path="url(#clip980)" d="M1428.66 1533.45 L1428.66 1538.98 Q1426.18 1537.71 1423.5 1537.07 Q1420.83 1536.44 1417.96 1536.44 Q1413.6 1536.44 1411.41 1537.77 Q1409.24 1539.11 1409.24 1541.79 Q1409.24 1543.82 1410.8 1545 Q1412.36 1546.15 1417.07 1547.2 L1419.08 1547.64 Q1425.32 1548.98 1427.93 1551.43 Q1430.57 1553.85 1430.57 1558.21 Q1430.57 1563.17 1426.62 1566.07 Q1422.71 1568.97 1415.83 1568.97 Q1412.97 1568.97 1409.85 1568.39 Q1406.76 1567.85 1403.32 1566.74 L1403.32 1560.69 Q1406.57 1562.38 1409.72 1563.24 Q1412.87 1564.07 1415.96 1564.07 Q1420.1 1564.07 1422.32 1562.66 Q1424.55 1561.23 1424.55 1558.65 Q1424.55 1556.27 1422.93 1554.99 Q1421.34 1553.72 1415.9 1552.54 L1413.86 1552.07 Q1408.42 1550.92 1406 1548.56 Q1403.58 1546.18 1403.58 1542.04 Q1403.58 1537.01 1407.14 1534.27 Q1410.71 1531.54 1417.26 1531.54 Q1420.51 1531.54 1423.37 1532.01 Q1426.24 1532.49 1428.66 1533.45 Z" fill="#000000" fill-rule="nonzero" fill-opacity="1" /><polyline clip-path="url(#clip982)" style="stroke:#000000; stroke-linecap:round; stroke-linejoin:round; stroke-width:2; stroke-opacity:0.1; fill:none" points="242.135,1254.43 2352.76,1254.43 "/>
<polyline clip-path="url(#clip982)" style="stroke:#000000; stroke-linecap:round; stroke-linejoin:round; stroke-width:2; stroke-opacity:0.1; fill:none" points="242.135,994.822 2352.76,994.822 "/>
<polyline clip-path="url(#clip982)" style="stroke:#000000; stroke-linecap:round; stroke-linejoin:round; stroke-width:2; stroke-opacity:0.1; fill:none" points="242.135,735.212 2352.76,735.212 "/>
<polyline clip-path="url(#clip982)" style="stroke:#000000; stroke-linecap:round; stroke-linejoin:round; stroke-width:2; stroke-opacity:0.1; fill:none" points="242.135,475.601 2352.76,475.601 "/>
<polyline clip-path="url(#clip982)" style="stroke:#000000; stroke-linecap:round; stroke-linejoin:round; stroke-width:2; stroke-opacity:0.1; fill:none" points="242.135,215.991 2352.76,215.991 "/>
<polyline clip-path="url(#clip980)" style="stroke:#000000; stroke-linecap:round; stroke-linejoin:round; stroke-width:4; stroke-opacity:1; fill:none" points="242.135,1423.18 242.135,47.2441 "/>
<polyline clip-path="url(#clip980)" style="stroke:#000000; stroke-linecap:round; stroke-linejoin:round; stroke-width:4; stroke-opacity:1; fill:none" points="242.135,1254.43 261.032,1254.43 "/>
<polyline clip-path="url(#clip980)" style="stroke:#000000; stroke-linecap:round; stroke-linejoin:round; stroke-width:4; stroke-opacity:1; fill:none" points="242.135,994.822 261.032,994.822 "/>
<polyline clip-path="url(#clip980)" style="stroke:#000000; stroke-linecap:round; stroke-linejoin:round; stroke-width:4; stroke-opacity:1; fill:none" points="242.135,735.212 261.032,735.212 "/>
<polyline clip-path="url(#clip980)" style="stroke:#000000; stroke-linecap:round; stroke-linejoin:round; stroke-width:4; stroke-opacity:1; fill:none" points="242.135,475.601 261.032,475.601 "/>
<polyline clip-path="url(#clip980)" style="stroke:#000000; stroke-linecap:round; stroke-linejoin:round; stroke-width:4; stroke-opacity:1; fill:none" points="242.135,215.991 261.032,215.991 "/>
<path clip-path="url(#clip980)" d="M114.26 1254.88 L143.936 1254.88 L143.936 1258.82 L114.26 1258.82 L114.26 1254.88 Z" fill="#000000" fill-rule="nonzero" fill-opacity="1" /><path clip-path="url(#clip980)" d="M166.876 1241.23 L155.07 1259.68 L166.876 1259.68 L166.876 1241.23 M165.649 1237.15 L171.528 1237.15 L171.528 1259.68 L176.459 1259.68 L176.459 1263.56 L171.528 1263.56 L171.528 1271.71 L166.876 1271.71 L166.876 1263.56 L151.274 1263.56 L151.274 1259.05 L165.649 1237.15 Z" fill="#000000" fill-rule="nonzero" fill-opacity="1" /><path clip-path="url(#clip980)" d="M194.19 1240.23 Q190.579 1240.23 188.75 1243.8 Q186.945 1247.34 186.945 1254.47 Q186.945 1261.57 188.75 1265.14 Q190.579 1268.68 194.19 1268.68 Q197.825 1268.68 199.63 1265.14 Q201.459 1261.57 201.459 1254.47 Q201.459 1247.34 199.63 1243.8 Q197.825 1240.23 194.19 1240.23 M194.19 1236.53 Q200 1236.53 203.056 1241.13 Q206.135 1245.72 206.135 1254.47 Q206.135 1263.19 203.056 1267.8 Q200 1272.38 194.19 1272.38 Q188.38 1272.38 185.301 1267.8 Q182.246 1263.19 182.246 1254.47 Q182.246 1245.72 185.301 1241.13 Q188.38 1236.53 194.19 1236.53 Z" fill="#000000" fill-rule="nonzero" fill-opacity="1" /><path clip-path="url(#clip980)" d="M114.26 995.274 L143.936 995.274 L143.936 999.209 L114.26 999.209 L114.26 995.274 Z" fill="#000000" fill-rule="nonzero" fill-opacity="1" /><path clip-path="url(#clip980)" d="M158.056 1008.17 L174.376 1008.17 L174.376 1012.1 L152.431 1012.1 L152.431 1008.17 Q155.093 1005.41 159.677 1000.78 Q164.283 996.13 165.464 994.788 Q167.709 992.265 168.589 990.529 Q169.491 988.769 169.491 987.079 Q169.491 984.325 167.547 982.589 Q165.626 980.853 162.524 980.853 Q160.325 980.853 157.871 981.617 Q155.44 982.38 152.663 983.931 L152.663 979.209 Q155.487 978.075 157.94 977.496 Q160.394 976.917 162.431 976.917 Q167.802 976.917 170.996 979.603 Q174.19 982.288 174.19 986.779 Q174.19 988.908 173.38 990.829 Q172.593 992.728 170.487 995.32 Q169.908 995.991 166.806 999.209 Q163.704 1002.4 158.056 1008.17 Z" fill="#000000" fill-rule="nonzero" fill-opacity="1" /><path clip-path="url(#clip980)" d="M194.19 980.621 Q190.579 980.621 188.75 984.186 Q186.945 987.728 186.945 994.857 Q186.945 1001.96 188.75 1005.53 Q190.579 1009.07 194.19 1009.07 Q197.825 1009.07 199.63 1005.53 Q201.459 1001.96 201.459 994.857 Q201.459 987.728 199.63 984.186 Q197.825 980.621 194.19 980.621 M194.19 976.917 Q200 976.917 203.056 981.524 Q206.135 986.107 206.135 994.857 Q206.135 1003.58 203.056 1008.19 Q200 1012.77 194.19 1012.77 Q188.38 1012.77 185.301 1008.19 Q182.246 1003.58 182.246 994.857 Q182.246 986.107 185.301 981.524 Q188.38 976.917 194.19 976.917 Z" fill="#000000" fill-rule="nonzero" fill-opacity="1" /><path clip-path="url(#clip980)" d="M194.19 721.011 Q190.579 721.011 188.75 724.575 Q186.945 728.117 186.945 735.247 Q186.945 742.353 188.75 745.918 Q190.579 749.46 194.19 749.46 Q197.825 749.46 199.63 745.918 Q201.459 742.353 201.459 735.247 Q201.459 728.117 199.63 724.575 Q197.825 721.011 194.19 721.011 M194.19 717.307 Q200 717.307 203.056 721.913 Q206.135 726.497 206.135 735.247 Q206.135 743.973 203.056 748.58 Q200 753.163 194.19 753.163 Q188.38 753.163 185.301 748.58 Q182.246 743.973 182.246 735.247 Q182.246 726.497 185.301 721.913 Q188.38 717.307 194.19 717.307 Z" fill="#000000" fill-rule="nonzero" fill-opacity="1" /><path clip-path="url(#clip980)" d="M158.056 488.946 L174.376 488.946 L174.376 492.881 L152.431 492.881 L152.431 488.946 Q155.093 486.192 159.677 481.562 Q164.283 476.909 165.464 475.567 Q167.709 473.044 168.589 471.307 Q169.491 469.548 169.491 467.858 Q169.491 465.104 167.547 463.368 Q165.626 461.632 162.524 461.632 Q160.325 461.632 157.871 462.396 Q155.44 463.159 152.663 464.71 L152.663 459.988 Q155.487 458.854 157.94 458.275 Q160.394 457.696 162.431 457.696 Q167.802 457.696 170.996 460.382 Q174.19 463.067 174.19 467.558 Q174.19 469.687 173.38 471.608 Q172.593 473.507 170.487 476.099 Q169.908 476.77 166.806 479.988 Q163.704 483.182 158.056 488.946 Z" fill="#000000" fill-rule="nonzero" fill-opacity="1" /><path clip-path="url(#clip980)" d="M194.19 461.4 Q190.579 461.4 188.75 464.965 Q186.945 468.507 186.945 475.636 Q186.945 482.743 188.75 486.307 Q190.579 489.849 194.19 489.849 Q197.825 489.849 199.63 486.307 Q201.459 482.743 201.459 475.636 Q201.459 468.507 199.63 464.965 Q197.825 461.4 194.19 461.4 M194.19 457.696 Q200 457.696 203.056 462.303 Q206.135 466.886 206.135 475.636 Q206.135 484.363 203.056 488.969 Q200 493.553 194.19 493.553 Q188.38 493.553 185.301 488.969 Q182.246 484.363 182.246 475.636 Q182.246 466.886 185.301 462.303 Q188.38 457.696 194.19 457.696 Z" fill="#000000" fill-rule="nonzero" fill-opacity="1" /><path clip-path="url(#clip980)" d="M166.876 202.785 L155.07 221.234 L166.876 221.234 L166.876 202.785 M165.649 198.711 L171.528 198.711 L171.528 221.234 L176.459 221.234 L176.459 225.123 L171.528 225.123 L171.528 233.271 L166.876 233.271 L166.876 225.123 L151.274 225.123 L151.274 220.609 L165.649 198.711 Z" fill="#000000" fill-rule="nonzero" fill-opacity="1" /><path clip-path="url(#clip980)" d="M194.19 201.79 Q190.579 201.79 188.75 205.354 Q186.945 208.896 186.945 216.026 Q186.945 223.132 188.75 226.697 Q190.579 230.239 194.19 230.239 Q197.825 230.239 199.63 226.697 Q201.459 223.132 201.459 216.026 Q201.459 208.896 199.63 205.354 Q197.825 201.79 194.19 201.79 M194.19 198.086 Q200 198.086 203.056 202.692 Q206.135 207.276 206.135 216.026 Q206.135 224.752 203.056 229.359 Q200 233.942 194.19 233.942 Q188.38 233.942 185.301 229.359 Q182.246 224.752 182.246 216.026 Q182.246 207.276 185.301 202.692 Q188.38 198.086 194.19 198.086 Z" fill="#000000" fill-rule="nonzero" fill-opacity="1" /><path clip-path="url(#clip980)" d="M14.479 765.163 L19.3487 765.163 L19.3487 770.764 Q19.3487 773.915 20.6219 775.157 Q21.895 776.366 25.2052 776.366 L28.3562 776.366 L28.3562 766.722 L32.9077 766.722 L32.9077 776.366 L64.0042 776.366 L64.0042 782.255 L32.9077 782.255 L32.9077 787.856 L28.3562 787.856 L28.3562 782.255 L25.8736 782.255 Q19.9216 782.255 17.2162 779.485 Q14.479 776.716 14.479 770.701 L14.479 765.163 Z" fill="#000000" fill-rule="nonzero" fill-opacity="1" /><path clip-path="url(#clip980)" d="M14.5426 746.193 Q21.8632 750.458 29.0246 752.527 Q36.186 754.596 43.5384 754.596 Q50.8908 754.596 58.1159 752.527 Q65.3091 750.426 72.5979 746.193 L72.5979 751.285 Q65.1182 756.06 57.8931 758.447 Q50.668 760.802 43.5384 760.802 Q36.4406 760.802 29.2474 758.447 Q22.0542 756.091 14.5426 751.285 L14.5426 746.193 Z" fill="#000000" fill-rule="nonzero" fill-opacity="1" /><path clip-path="url(#clip980)" d="M28.3562 705.198 L45.7028 718.088 L64.0042 704.529 L64.0042 711.436 L49.9996 721.812 L64.0042 732.188 L64.0042 739.095 L45.3526 725.25 L28.3562 737.917 L28.3562 731.011 L41.0558 721.558 L28.3562 712.104 L28.3562 705.198 Z" fill="#000000" fill-rule="nonzero" fill-opacity="1" /><path clip-path="url(#clip980)" d="M14.5426 697.177 L14.5426 692.084 Q22.0542 687.31 29.2474 684.955 Q36.4406 682.568 43.5384 682.568 Q50.668 682.568 57.8931 684.955 Q65.1182 687.31 72.5979 692.084 L72.5979 697.177 Q65.3091 692.944 58.1159 690.875 Q50.8908 688.774 43.5384 688.774 Q36.186 688.774 29.0246 690.875 Q21.8632 692.944 14.5426 697.177 Z" fill="#000000" fill-rule="nonzero" fill-opacity="1" /><polyline clip-path="url(#clip982)" style="stroke:#009af9; stroke-linecap:round; stroke-linejoin:round; stroke-width:4; stroke-opacity:1; fill:none" points="301.869,1384.24 311.825,1358.41 321.781,1332.84 331.737,1307.52 341.692,1282.47 351.648,1257.68 361.604,1233.14 371.56,1208.87 381.515,1184.86 391.471,1161.1 401.427,1137.61 411.383,1114.37 421.338,1091.4 431.294,1068.68 441.25,1046.23 451.206,1024.03 461.161,1002.09 471.117,980.414 481.073,958.996 491.029,937.838 500.984,916.939 510.94,896.3 520.896,875.921 530.852,855.801 540.807,835.941 550.763,816.34 560.719,796.999 570.675,777.918 580.631,759.096 590.586,740.534 600.542,722.231 610.498,704.189 620.454,686.405 630.409,668.881 640.365,651.617 650.321,634.613 660.277,617.868 670.232,601.383 680.188,585.157 690.144,569.191 700.1,553.485 710.055,538.038 720.011,522.851 729.967,507.923 739.923,493.255 749.878,478.847 759.834,464.698 769.79,450.809 779.746,437.179 789.701,423.809 799.657,410.699 809.613,397.848 819.569,385.257 829.525,372.925 839.48,360.854 849.436,349.041 859.392,337.489 869.348,326.196 879.303,315.162 889.259,304.388 899.215,293.874 909.171,283.619 919.126,273.624 929.082,263.889 939.038,254.413 948.994,245.197 958.949,236.241 968.905,227.544 978.861,219.106 988.817,210.929 998.772,203.01 1008.73,195.352 1018.68,187.953 1028.64,180.814 1038.6,173.934 1048.55,167.314 1058.51,160.954 1068.46,154.853 1078.42,149.011 1088.37,143.43 1098.33,138.108 1108.29,133.045 1118.24,128.243 1128.2,123.699 1138.15,119.416 1148.11,115.392 1158.06,111.628 1168.02,108.123 1177.98,104.878 1187.93,101.892 1197.89,99.1662 1207.84,96.6999 1217.8,94.4932 1227.75,92.5461 1237.71,90.8587 1247.67,89.4308 1257.62,88.2626 1267.58,87.3539 1277.53,86.7049 1287.49,86.3155 1297.45,86.1857 1307.4,86.3155 1317.36,86.7049 1327.31,87.3539 1337.27,88.2626 1347.22,89.4308 1357.18,90.8587 1367.14,92.5461 1377.09,94.4932 1387.05,96.6999 1397,99.1662 1406.96,101.892 1416.91,104.878 1426.87,108.123 1436.83,111.628 1446.78,115.392 1456.74,119.416 1466.69,123.699 1476.65,128.243 1486.6,133.045 1496.56,138.108 1506.52,143.43 1516.47,149.011 1526.43,154.853 1536.38,160.954 1546.34,167.314 1556.3,173.934 1566.25,180.814 1576.21,187.953 1586.16,195.352 1596.12,203.01 1606.07,210.929 1616.03,219.106 1625.99,227.544 1635.94,236.241 1645.9,245.197 1655.85,254.413 1665.81,263.889 1675.76,273.624 1685.72,283.619 1695.68,293.874 1705.63,304.388 1715.59,315.162 1725.54,326.196 1735.5,337.489 1745.45,349.041 1755.41,360.854 1765.37,372.925 1775.32,385.257 1785.28,397.848 1795.23,410.699 1805.19,423.809 1815.14,437.179 1825.1,450.809 1835.06,464.698 1845.01,478.847 1854.97,493.255 1864.92,507.923 1874.88,522.851 1884.84,538.038 1894.79,553.485 1904.75,569.191 1914.7,585.157 1924.66,601.383 1934.61,617.868 1944.57,634.613 1954.53,651.617 1964.48,668.881 1974.44,686.405 1984.39,704.189 1994.35,722.231 2004.3,740.534 2014.26,759.096 2024.22,777.918 2034.17,796.999 2044.13,816.34 2054.08,835.941 2064.04,855.801 2073.99,875.921 2083.95,896.3 2093.91,916.939 2103.86,937.838 2113.82,958.996 2123.77,980.414 2133.73,1002.09 2143.68,1024.03 2153.64,1046.23 2163.6,1068.68 2173.55,1091.4 2183.51,1114.37 2193.46,1137.61 2203.42,1161.1 2213.38,1184.86 2223.33,1208.87 2233.29,1233.14 2243.24,1257.68 2253.2,1282.47 2263.15,1307.52 2273.11,1332.84 2283.07,1358.41 2293.02,1384.24 "/>
<polyline clip-path="url(#clip982)" style="stroke:#e26f46; stroke-linecap:round; stroke-linejoin:round; stroke-width:4; stroke-opacity:1; fill:none" points="301.869,735.212 2293.02,735.212 "/>
<polyline clip-path="url(#clip982)" style="stroke:#000000; stroke-linecap:round; stroke-linejoin:round; stroke-width:4; stroke-opacity:1; fill:none" points="799.657,735.212 799.657,86.1857 "/>
<polyline clip-path="url(#clip982)" style="stroke:#000000; stroke-linecap:round; stroke-linejoin:round; stroke-width:4; stroke-opacity:1; fill:none" points="1795.23,735.212 1795.23,86.1857 "/>
<circle clip-path="url(#clip982)" cx="1297.45" cy="86.1857" r="14.4" fill="#ac8d18" fill-rule="evenodd" fill-opacity="1" stroke="#000000" stroke-opacity="1" stroke-width="3.2"/>
<path clip-path="url(#clip980)" d="M1866.43 404.149 L2282.4 404.149 L2282.4 93.1086 L1866.43 93.1086  Z" fill="#ffffff" fill-rule="evenodd" fill-opacity="1"/>
<polyline clip-path="url(#clip980)" style="stroke:#000000; stroke-linecap:round; stroke-linejoin:round; stroke-width:4; stroke-opacity:1; fill:none" points="1866.43,404.149 2282.4,404.149 2282.4,93.1086 1866.43,93.1086 1866.43,404.149 "/>
<polyline clip-path="url(#clip980)" style="stroke:#009af9; stroke-linecap:round; stroke-linejoin:round; stroke-width:4; stroke-opacity:1; fill:none" points="1889.88,144.949 2030.59,144.949 "/>
<path clip-path="url(#clip980)" d="M2070.55 126.21 L2070.55 129.752 L2066.47 129.752 Q2064.18 129.752 2063.28 130.678 Q2062.4 131.604 2062.4 134.011 L2062.4 136.303 L2069.41 136.303 L2069.41 139.613 L2062.4 139.613 L2062.4 162.229 L2058.12 162.229 L2058.12 139.613 L2054.04 139.613 L2054.04 136.303 L2058.12 136.303 L2058.12 134.497 Q2058.12 130.169 2060.13 128.201 Q2062.15 126.21 2066.52 126.21 L2070.55 126.21 Z" fill="#000000" fill-rule="nonzero" fill-opacity="1" /><path clip-path="url(#clip980)" d="M2084.34 126.257 Q2081.24 131.581 2079.74 136.789 Q2078.23 141.997 2078.23 147.344 Q2078.23 152.692 2079.74 157.946 Q2081.27 163.178 2084.34 168.479 L2080.64 168.479 Q2077.17 163.039 2075.43 157.784 Q2073.72 152.53 2073.72 147.344 Q2073.72 142.182 2075.43 136.951 Q2077.15 131.72 2080.64 126.257 L2084.34 126.257 Z" fill="#000000" fill-rule="nonzero" fill-opacity="1" /><path clip-path="url(#clip980)" d="M2114.16 136.303 L2104.78 148.919 L2114.65 162.229 L2109.62 162.229 L2102.08 152.043 L2094.53 162.229 L2089.51 162.229 L2099.58 148.664 L2090.36 136.303 L2095.39 136.303 L2102.26 145.539 L2109.14 136.303 L2114.16 136.303 Z" fill="#000000" fill-rule="nonzero" fill-opacity="1" /><path clip-path="url(#clip980)" d="M2119.99 126.257 L2123.7 126.257 Q2127.17 131.72 2128.88 136.951 Q2130.62 142.182 2130.62 147.344 Q2130.62 152.53 2128.88 157.784 Q2127.17 163.039 2123.7 168.479 L2119.99 168.479 Q2123.07 163.178 2124.58 157.946 Q2126.1 152.692 2126.1 147.344 Q2126.1 141.997 2124.58 136.789 Q2123.07 131.581 2119.99 126.257 Z" fill="#000000" fill-rule="nonzero" fill-opacity="1" /><polyline clip-path="url(#clip980)" style="stroke:#e26f46; stroke-linecap:round; stroke-linejoin:round; stroke-width:4; stroke-opacity:1; fill:none" points="1889.88,196.789 2030.59,196.789 "/>
<path clip-path="url(#clip980)" d="M2067.89 216.476 Q2066.08 221.106 2064.37 222.518 Q2062.66 223.93 2059.78 223.93 L2056.38 223.93 L2056.38 220.365 L2058.88 220.365 Q2060.64 220.365 2061.61 219.532 Q2062.59 218.698 2063.77 215.596 L2064.53 213.652 L2054.04 188.143 L2058.56 188.143 L2066.66 208.421 L2074.76 188.143 L2079.28 188.143 L2067.89 216.476 Z" fill="#000000" fill-rule="nonzero" fill-opacity="1" /><path clip-path="url(#clip980)" d="M2100.78 192.541 L2130.46 192.541 L2130.46 196.43 L2100.78 196.43 L2100.78 192.541 M2100.78 201.985 L2130.46 201.985 L2130.46 205.921 L2100.78 205.921 L2100.78 201.985 Z" fill="#000000" fill-rule="nonzero" fill-opacity="1" /><path clip-path="url(#clip980)" d="M2165.62 182.587 Q2162.01 182.587 2160.18 186.152 Q2158.37 189.694 2158.37 196.823 Q2158.37 203.93 2160.18 207.495 Q2162.01 211.036 2165.62 211.036 Q2169.25 211.036 2171.06 207.495 Q2172.89 203.93 2172.89 196.823 Q2172.89 189.694 2171.06 186.152 Q2169.25 182.587 2165.62 182.587 M2165.62 178.884 Q2171.43 178.884 2174.48 183.49 Q2177.56 188.073 2177.56 196.823 Q2177.56 205.55 2174.48 210.157 Q2171.43 214.74 2165.62 214.74 Q2159.81 214.74 2156.73 210.157 Q2153.67 205.55 2153.67 196.823 Q2153.67 188.073 2156.73 183.49 Q2159.81 178.884 2165.62 178.884 Z" fill="#000000" fill-rule="nonzero" fill-opacity="1" /><polyline clip-path="url(#clip980)" style="stroke:#000000; stroke-linecap:round; stroke-linejoin:round; stroke-width:4; stroke-opacity:1; fill:none" points="1889.88,248.629 2030.59,248.629 "/>
<path clip-path="url(#clip980)" d="M2067.45 252.876 Q2062.28 252.876 2060.29 254.057 Q2058.3 255.237 2058.3 258.085 Q2058.3 260.353 2059.78 261.696 Q2061.29 263.015 2063.86 263.015 Q2067.4 263.015 2069.53 260.515 Q2071.68 257.992 2071.68 253.825 L2071.68 252.876 L2067.45 252.876 M2075.94 251.117 L2075.94 265.909 L2071.68 265.909 L2071.68 261.973 Q2070.22 264.335 2068.05 265.469 Q2065.87 266.58 2062.72 266.58 Q2058.74 266.58 2056.38 264.358 Q2054.04 262.112 2054.04 258.362 Q2054.04 253.987 2056.96 251.765 Q2059.9 249.543 2065.71 249.543 L2071.68 249.543 L2071.68 249.126 Q2071.68 246.187 2069.74 244.589 Q2067.82 242.969 2064.32 242.969 Q2062.1 242.969 2059.99 243.501 Q2057.89 244.034 2055.94 245.099 L2055.94 241.163 Q2058.28 240.261 2060.48 239.821 Q2062.68 239.358 2064.76 239.358 Q2070.39 239.358 2073.16 242.274 Q2075.94 245.191 2075.94 251.117 Z" fill="#000000" fill-rule="nonzero" fill-opacity="1" /><polyline clip-path="url(#clip980)" style="stroke:#000000; stroke-linecap:round; stroke-linejoin:round; stroke-width:4; stroke-opacity:1; fill:none" points="1889.88,300.469 2030.59,300.469 "/>
<path clip-path="url(#clip980)" d="M2072.82 304.809 Q2072.82 300.11 2070.87 297.448 Q2068.95 294.763 2065.57 294.763 Q2062.19 294.763 2060.25 297.448 Q2058.33 300.11 2058.33 304.809 Q2058.33 309.508 2060.25 312.193 Q2062.19 314.855 2065.57 314.855 Q2068.95 314.855 2070.87 312.193 Q2072.82 309.508 2072.82 304.809 M2058.33 295.758 Q2059.67 293.443 2061.71 292.332 Q2063.77 291.198 2066.61 291.198 Q2071.34 291.198 2074.28 294.948 Q2077.24 298.698 2077.24 304.809 Q2077.24 310.92 2074.28 314.67 Q2071.34 318.42 2066.61 318.42 Q2063.77 318.42 2061.71 317.309 Q2059.67 316.175 2058.33 313.86 L2058.33 317.749 L2054.04 317.749 L2054.04 281.73 L2058.33 281.73 L2058.33 295.758 Z" fill="#000000" fill-rule="nonzero" fill-opacity="1" /><circle clip-path="url(#clip980)" cx="1960.24" cy="352.309" r="20.48" fill="#ac8d18" fill-rule="evenodd" fill-opacity="1" stroke="#000000" stroke-opacity="1" stroke-width="4.55111"/>
<path clip-path="url(#clip980)" d="M2074.39 348.64 Q2075.99 345.769 2078.21 344.404 Q2080.43 343.038 2083.44 343.038 Q2087.49 343.038 2089.69 345.885 Q2091.89 348.709 2091.89 353.941 L2091.89 369.589 L2087.61 369.589 L2087.61 354.079 Q2087.61 350.353 2086.29 348.547 Q2084.97 346.742 2082.26 346.742 Q2078.95 346.742 2077.03 348.941 Q2075.11 351.14 2075.11 354.936 L2075.11 369.589 L2070.83 369.589 L2070.83 354.079 Q2070.83 350.329 2069.51 348.547 Q2068.19 346.742 2065.43 346.742 Q2062.17 346.742 2060.25 348.964 Q2058.33 351.163 2058.33 354.936 L2058.33 369.589 L2054.04 369.589 L2054.04 343.663 L2058.33 343.663 L2058.33 347.691 Q2059.78 345.306 2061.82 344.172 Q2063.86 343.038 2066.66 343.038 Q2069.48 343.038 2071.45 344.473 Q2073.44 345.908 2074.39 348.64 Z" fill="#000000" fill-rule="nonzero" fill-opacity="1" /><path clip-path="url(#clip980)" d="M2100.39 343.663 L2104.65 343.663 L2104.65 369.589 L2100.39 369.589 L2100.39 343.663 M2100.39 333.57 L2104.65 333.57 L2104.65 338.964 L2100.39 338.964 L2100.39 333.57 Z" fill="#000000" fill-rule="nonzero" fill-opacity="1" /><path clip-path="url(#clip980)" d="M2130.62 347.598 L2130.62 333.57 L2134.88 333.57 L2134.88 369.589 L2130.62 369.589 L2130.62 365.7 Q2129.28 368.015 2127.22 369.149 Q2125.18 370.26 2122.31 370.26 Q2117.61 370.26 2114.65 366.51 Q2111.71 362.76 2111.71 356.649 Q2111.71 350.538 2114.65 346.788 Q2117.61 343.038 2122.31 343.038 Q2125.18 343.038 2127.22 344.172 Q2129.28 345.283 2130.62 347.598 M2116.1 356.649 Q2116.1 361.348 2118.03 364.033 Q2119.97 366.695 2123.35 366.695 Q2126.73 366.695 2128.67 364.033 Q2130.62 361.348 2130.62 356.649 Q2130.62 351.95 2128.67 349.288 Q2126.73 346.603 2123.35 346.603 Q2119.97 346.603 2118.03 349.288 Q2116.1 351.95 2116.1 356.649 Z" fill="#000000" fill-rule="nonzero" fill-opacity="1" /><path clip-path="url(#clip980)" d="M2147.77 365.7 L2147.77 379.45 L2143.49 379.45 L2143.49 343.663 L2147.77 343.663 L2147.77 347.598 Q2149.11 345.283 2151.15 344.172 Q2153.21 343.038 2156.06 343.038 Q2160.78 343.038 2163.72 346.788 Q2166.68 350.538 2166.68 356.649 Q2166.68 362.76 2163.72 366.51 Q2160.78 370.26 2156.06 370.26 Q2153.21 370.26 2151.15 369.149 Q2149.11 368.015 2147.77 365.7 M2162.26 356.649 Q2162.26 351.95 2160.32 349.288 Q2158.4 346.603 2155.02 346.603 Q2151.64 346.603 2149.69 349.288 Q2147.77 351.95 2147.77 356.649 Q2147.77 361.348 2149.69 364.033 Q2151.64 366.695 2155.02 366.695 Q2158.4 366.695 2160.32 364.033 Q2162.26 361.348 2162.26 356.649 Z" fill="#000000" fill-rule="nonzero" fill-opacity="1" /><path clip-path="url(#clip980)" d="M2183.79 346.649 Q2180.36 346.649 2178.37 349.334 Q2176.38 351.996 2176.38 356.649 Q2176.38 361.302 2178.35 363.987 Q2180.34 366.649 2183.79 366.649 Q2187.19 366.649 2189.18 363.964 Q2191.17 361.278 2191.17 356.649 Q2191.17 352.042 2189.18 349.357 Q2187.19 346.649 2183.79 346.649 M2183.79 343.038 Q2189.34 343.038 2192.52 346.649 Q2195.69 350.26 2195.69 356.649 Q2195.69 363.015 2192.52 366.649 Q2189.34 370.26 2183.79 370.26 Q2178.21 370.26 2175.04 366.649 Q2171.89 363.015 2171.89 356.649 Q2171.89 350.26 2175.04 346.649 Q2178.21 343.038 2183.79 343.038 Z" fill="#000000" fill-rule="nonzero" fill-opacity="1" /><path clip-path="url(#clip980)" d="M2202.75 343.663 L2207.01 343.663 L2207.01 369.589 L2202.75 369.589 L2202.75 343.663 M2202.75 333.57 L2207.01 333.57 L2207.01 338.964 L2202.75 338.964 L2202.75 333.57 Z" fill="#000000" fill-rule="nonzero" fill-opacity="1" /><path clip-path="url(#clip980)" d="M2237.47 353.941 L2237.47 369.589 L2233.21 369.589 L2233.21 354.079 Q2233.21 350.399 2231.77 348.57 Q2230.34 346.742 2227.47 346.742 Q2224.02 346.742 2222.03 348.941 Q2220.04 351.14 2220.04 354.936 L2220.04 369.589 L2215.76 369.589 L2215.76 343.663 L2220.04 343.663 L2220.04 347.691 Q2221.57 345.353 2223.63 344.195 Q2225.71 343.038 2228.42 343.038 Q2232.89 343.038 2235.18 345.816 Q2237.47 348.57 2237.47 353.941 Z" fill="#000000" fill-rule="nonzero" fill-opacity="1" /><path clip-path="url(#clip980)" d="M2250.18 336.302 L2250.18 343.663 L2258.95 343.663 L2258.95 346.973 L2250.18 346.973 L2250.18 361.047 Q2250.18 364.218 2251.03 365.121 Q2251.91 366.024 2254.58 366.024 L2258.95 366.024 L2258.95 369.589 L2254.58 369.589 Q2249.65 369.589 2247.77 367.76 Q2245.9 365.908 2245.9 361.047 L2245.9 346.973 L2242.77 346.973 L2242.77 343.663 L2245.9 343.663 L2245.9 336.302 L2250.18 336.302 Z" fill="#000000" fill-rule="nonzero" fill-opacity="1" /></svg>
