<?xml version="1.0" encoding="utf-8"?>
<svg xmlns="http://www.w3.org/2000/svg" xmlns:xlink="http://www.w3.org/1999/xlink" width="600" height="400" viewBox="0 0 2400 1600">
<defs>
  <clipPath id="clip550">
    <rect x="0" y="0" width="2400" height="1600"/>
  </clipPath>
</defs>
<path clip-path="url(#clip550)" d="M0 1600 L2400 1600 L2400 0 L0 0  Z" fill="#ffffff" fill-rule="evenodd" fill-opacity="1"/>
<defs>
  <clipPath id="clip551">
    <rect x="480" y="0" width="1681" height="1600"/>
  </clipPath>
</defs>
<path clip-path="url(#clip550)" d="M242.135 1423.18 L2352.76 1423.18 L2352.76 47.2441 L242.135 47.2441  Z" fill="#ffffff" fill-rule="evenodd" fill-opacity="1"/>
<defs>
  <clipPath id="clip552">
    <rect x="242" y="47" width="2112" height="1377"/>
  </clipPath>
</defs>
<polyline clip-path="url(#clip552)" style="stroke:#000000; stroke-linecap:round; stroke-linejoin:round; stroke-width:2; stroke-opacity:0.1; fill:none" points="301.869,1423.18 301.869,47.2441 "/>
<polyline clip-path="url(#clip552)" style="stroke:#000000; stroke-linecap:round; stroke-linejoin:round; stroke-width:2; stroke-opacity:0.1; fill:none" points="799.657,1423.18 799.657,47.2441 "/>
<polyline clip-path="url(#clip552)" style="stroke:#000000; stroke-linecap:round; stroke-linejoin:round; stroke-width:2; stroke-opacity:0.1; fill:none" points="1297.45,1423.18 1297.45,47.2441 "/>
<polyline clip-path="url(#clip552)" style="stroke:#000000; stroke-linecap:round; stroke-linejoin:round; stroke-width:2; stroke-opacity:0.1; fill:none" points="1795.23,1423.18 1795.23,47.2441 "/>
<polyline clip-path="url(#clip552)" style="stroke:#000000; stroke-linecap:round; stroke-linejoin:round; stroke-width:2; stroke-opacity:0.1; fill:none" points="2293.02,1423.18 2293.02,47.2441 "/>
<polyline clip-path="url(#clip550)" style="stroke:#000000; stroke-linecap:round; stroke-linejoin:round; stroke-width:4; stroke-opacity:1; fill:none" points="242.135,1423.18 2352.76,1423.18 "/>
<polyline clip-path="url(#clip550)" style="stroke:#000000; stroke-linecap:round; stroke-linejoin:round; stroke-width:4; stroke-opacity:1; fill:none" points="301.869,1423.18 301.869,1404.28 "/>
<polyline clip-path="url(#clip550)" style="stroke:#000000; stroke-linecap:round; stroke-linejoin:round; stroke-width:4; stroke-opacity:1; fill:none" points="799.657,1423.18 799.657,1404.28 "/>
<polyline clip-path="url(#clip550)" style="stroke:#000000; stroke-linecap:round; stroke-linejoin:round; stroke-width:4; stroke-opacity:1; fill:none" points="1297.45,1423.18 1297.45,1404.28 "/>
<polyline clip-path="url(#clip550)" style="stroke:#000000; stroke-linecap:round; stroke-linejoin:round; stroke-width:4; stroke-opacity:1; fill:none" points="1795.23,1423.18 1795.23,1404.28 "/>
<polyline clip-path="url(#clip550)" style="stroke:#000000; stroke-linecap:round; stroke-linejoin:round; stroke-width:4; stroke-opacity:1; fill:none" points="2293.02,1423.18 2293.02,1404.28 "/>
<path clip-path="url(#clip550)" d="M255.932 1468.75 L285.608 1468.75 L285.608 1472.69 L255.932 1472.69 L255.932 1468.75 Z" fill="#000000" fill-rule="nonzero" fill-opacity="1" /><path clip-path="url(#clip550)" d="M296.51 1481.64 L304.149 1481.64 L304.149 1455.28 L295.839 1456.95 L295.839 1452.69 L304.103 1451.02 L308.779 1451.02 L308.779 1481.64 L316.418 1481.64 L316.418 1485.58 L296.51 1485.58 L296.51 1481.64 Z" fill="#000000" fill-rule="nonzero" fill-opacity="1" /><path clip-path="url(#clip550)" d="M335.862 1454.1 Q332.251 1454.1 330.422 1457.66 Q328.617 1461.2 328.617 1468.33 Q328.617 1475.44 330.422 1479.01 Q332.251 1482.55 335.862 1482.55 Q339.496 1482.55 341.302 1479.01 Q343.131 1475.44 343.131 1468.33 Q343.131 1461.2 341.302 1457.66 Q339.496 1454.1 335.862 1454.1 M335.862 1450.39 Q341.672 1450.39 344.728 1455 Q347.806 1459.58 347.806 1468.33 Q347.806 1477.06 344.728 1481.67 Q341.672 1486.25 335.862 1486.25 Q330.052 1486.25 326.973 1481.67 Q323.918 1477.06 323.918 1468.33 Q323.918 1459.58 326.973 1455 Q330.052 1450.39 335.862 1450.39 Z" fill="#000000" fill-rule="nonzero" fill-opacity="1" /><path clip-path="url(#clip550)" d="M769.299 1468.75 L798.974 1468.75 L798.974 1472.69 L769.299 1472.69 L769.299 1468.75 Z" fill="#000000" fill-rule="nonzero" fill-opacity="1" /><path clip-path="url(#clip550)" d="M809.113 1451.02 L827.47 1451.02 L827.47 1454.96 L813.396 1454.96 L813.396 1463.43 Q814.414 1463.08 815.433 1462.92 Q816.451 1462.73 817.47 1462.73 Q823.257 1462.73 826.636 1465.9 Q830.016 1469.08 830.016 1474.49 Q830.016 1480.07 826.544 1483.17 Q823.071 1486.25 816.752 1486.25 Q814.576 1486.25 812.308 1485.88 Q810.062 1485.51 807.655 1484.77 L807.655 1480.07 Q809.738 1481.2 811.96 1481.76 Q814.183 1482.32 816.659 1482.32 Q820.664 1482.32 823.002 1480.21 Q825.34 1478.1 825.34 1474.49 Q825.34 1470.88 823.002 1468.77 Q820.664 1466.67 816.659 1466.67 Q814.784 1466.67 812.91 1467.08 Q811.058 1467.5 809.113 1468.38 L809.113 1451.02 Z" fill="#000000" fill-rule="nonzero" fill-opacity="1" /><path clip-path="url(#clip550)" d="M1297.45 1454.1 Q1293.83 1454.1 1292.01 1457.66 Q1290.2 1461.2 1290.2 1468.33 Q1290.2 1475.44 1292.01 1479.01 Q1293.83 1482.55 1297.45 1482.55 Q1301.08 1482.55 1302.89 1479.01 Q1304.71 1475.44 1304.71 1468.33 Q1304.71 1461.2 1302.89 1457.66 Q1301.08 1454.1 1297.45 1454.1 M1297.45 1450.39 Q1303.26 1450.39 1306.31 1455 Q1309.39 1459.58 1309.39 1468.33 Q1309.39 1477.06 1306.31 1481.67 Q1303.26 1486.25 1297.45 1486.25 Q1291.64 1486.25 1288.56 1481.67 Q1285.5 1477.06 1285.5 1468.33 Q1285.5 1459.58 1288.56 1455 Q1291.64 1450.39 1297.45 1450.39 Z" fill="#000000" fill-rule="nonzero" fill-opacity="1" /><path clip-path="url(#clip550)" d="M1785.51 1451.02 L1803.87 1451.02 L1803.87 1454.96 L1789.79 1454.96 L1789.79 1463.43 Q1790.81 1463.08 1791.83 1462.92 Q1792.85 1462.73 1793.87 1462.73 Q1799.65 1462.73 1803.03 1465.9 Q1806.41 1469.08 1806.41 1474.49 Q1806.41 1480.07 1802.94 1483.17 Q1799.47 1486.25 1793.15 1486.25 Q1790.97 1486.25 1788.71 1485.88 Q1786.46 1485.51 1784.05 1484.77 L1784.05 1480.07 Q1786.14 1481.2 1788.36 1481.76 Q1790.58 1482.32 1793.06 1482.32 Q1797.06 1482.32 1799.4 1480.21 Q1801.74 1478.1 1801.74 1474.49 Q1801.74 1470.88 1799.4 1468.77 Q1797.06 1466.67 1793.06 1466.67 Q1791.18 1466.67 1789.31 1467.08 Q1787.46 1467.5 1785.51 1468.38 L1785.51 1451.02 Z" fill="#000000" fill-rule="nonzero" fill-opacity="1" /><path clip-path="url(#clip550)" d="M2267.71 1481.64 L2275.35 1481.64 L2275.35 1455.28 L2267.04 1456.95 L2267.04 1452.69 L2275.3 1451.02 L2279.98 1451.02 L2279.98 1481.64 L2287.62 1481.64 L2287.62 1485.58 L2267.71 1485.58 L2267.71 1481.64 Z" fill="#000000" fill-rule="nonzero" fill-opacity="1" /><path clip-path="url(#clip550)" d="M2307.06 1454.1 Q2303.45 1454.1 2301.62 1457.66 Q2299.82 1461.2 2299.82 1468.33 Q2299.82 1475.44 2301.62 1479.01 Q2303.45 1482.55 2307.06 1482.55 Q2310.69 1482.55 2312.5 1479.01 Q2314.33 1475.44 2314.33 1468.33 Q2314.33 1461.2 2312.5 1457.66 Q2310.69 1454.1 2307.06 1454.1 M2307.06 1450.39 Q2312.87 1450.39 2315.93 1455 Q2319 1459.58 2319 1468.33 Q2319 1477.06 2315.93 1481.67 Q2312.87 1486.25 2307.06 1486.25 Q2301.25 1486.25 2298.17 1481.67 Q2295.12 1477.06 2295.12 1468.33 Q2295.12 1459.58 2298.17 1455 Q2301.25 1450.39 2307.06 1450.39 Z" fill="#000000" fill-rule="nonzero" fill-opacity="1" /><path clip-path="url(#clip550)" d="M1198.22 1532.4 L1185.33 1549.74 L1198.89 1568.04 L1191.98 1568.04 L1181.61 1554.04 L1171.23 1568.04 L1164.32 1568.04 L1178.17 1549.39 L1165.5 1532.4 L1172.41 1532.4 L1181.86 1545.1 L1191.31 1532.4 L1198.22 1532.4 Z" fill="#000000" fill-rule="nonzero" fill-opacity="1" /><path clip-path="url(#clip550)" d="M1223.68 1532.4 L1229.89 1532.4 L1241.03 1562.31 L1252.17 1532.4 L1258.38 1532.4 L1245.01 1568.04 L1237.05 1568.04 L1223.68 1532.4 Z" fill="#000000" fill-rule="nonzero" fill-opacity="1" /><path clip-path="url(#clip550)" d="M1282.66 1550.12 Q1275.56 1550.12 1272.83 1551.75 Q1270.09 1553.37 1270.09 1557.29 Q1270.09 1560.4 1272.13 1562.25 Q1274.19 1564.07 1277.73 1564.07 Q1282.6 1564.07 1285.53 1560.63 Q1288.49 1557.16 1288.49 1551.43 L1288.49 1550.12 L1282.66 1550.12 M1294.34 1547.71 L1294.34 1568.04 L1288.49 1568.04 L1288.49 1562.63 Q1286.48 1565.88 1283.49 1567.44 Q1280.5 1568.97 1276.17 1568.97 Q1270.69 1568.97 1267.45 1565.91 Q1264.23 1562.82 1264.23 1557.67 Q1264.23 1551.65 1268.24 1548.6 Q1272.28 1545.54 1280.27 1545.54 L1288.49 1545.54 L1288.49 1544.97 Q1288.49 1540.93 1285.81 1538.73 Q1283.17 1536.5 1278.36 1536.5 Q1275.31 1536.5 1272.41 1537.23 Q1269.52 1537.97 1266.84 1539.43 L1266.84 1534.02 Q1270.06 1532.78 1273.08 1532.17 Q1276.1 1531.54 1278.97 1531.54 Q1286.7 1531.54 1290.52 1535.55 Q1294.34 1539.56 1294.34 1547.71 Z" fill="#000000" fill-rule="nonzero" fill-opacity="1" /><path clip-path="url(#clip550)" d="M1306.41 1518.52 L1312.26 1518.52 L1312.26 1568.04 L1306.41 1568.04 L1306.41 1518.52 Z" fill="#000000" fill-rule="nonzero" fill-opacity="1" /><path clip-path="url(#clip550)" d="M1323.91 1553.98 L1323.91 1532.4 L1329.77 1532.4 L1329.77 1553.75 Q1329.77 1558.81 1331.74 1561.36 Q1333.71 1563.87 1337.66 1563.87 Q1342.4 1563.87 1345.14 1560.85 Q1347.91 1557.83 1347.91 1552.61 L1347.91 1532.4 L1353.77 1532.4 L1353.77 1568.04 L1347.91 1568.04 L1347.91 1562.57 Q1345.78 1565.82 1342.94 1567.41 Q1340.14 1568.97 1336.42 1568.97 Q1330.28 1568.97 1327.09 1565.15 Q1323.91 1561.33 1323.91 1553.98 M1338.65 1531.54 L1338.65 1531.54 Z" fill="#000000" fill-rule="nonzero" fill-opacity="1" /><path clip-path="url(#clip550)" d="M1396.32 1548.76 L1396.32 1551.62 L1369.39 1551.62 Q1369.78 1557.67 1373.02 1560.85 Q1376.3 1564 1382.13 1564 Q1385.5 1564 1388.65 1563.17 Q1391.83 1562.35 1394.95 1560.69 L1394.95 1566.23 Q1391.8 1567.57 1388.49 1568.27 Q1385.18 1568.97 1381.77 1568.97 Q1373.24 1568.97 1368.25 1564 Q1363.28 1559.04 1363.28 1550.57 Q1363.28 1541.82 1367.99 1536.69 Q1372.74 1531.54 1380.76 1531.54 Q1387.95 1531.54 1392.12 1536.18 Q1396.32 1540.8 1396.32 1548.76 M1390.46 1547.04 Q1390.4 1542.23 1387.76 1539.37 Q1385.15 1536.5 1380.82 1536.5 Q1375.92 1536.5 1372.96 1539.27 Q1370.03 1542.04 1369.58 1547.07 L1390.46 1547.04 Z" fill="#000000" fill-rule="nonzero" fill-opacity="1" /><path clip-path="url(#clip550)" d="M1428.66 1533.45 L1428.66 1538.98 Q1426.18 1537.71 1423.5 1537.07 Q1420.83 1536.44 1417.96 1536.44 Q1413.6 1536.44 1411.41 1537.77 Q1409.24 1539.11 1409.24 1541.79 Q1409.24 1543.82 1410.8 1545 Q1412.36 1546.15 1417.07 1547.2 L1419.08 1547.64 Q1425.32 1548.98 1427.93 1551.43 Q1430.57 1553.85 1430.57 1558.21 Q1430.57 1563.17 1426.62 1566.07 Q1422.71 1568.97 1415.83 1568.97 Q1412.97 1568.97 1409.85 1568.39 Q1406.76 1567.85 1403.32 1566.74 L1403.32 1560.69 Q1406.57 1562.38 1409.72 1563.24 Q1412.87 1564.07 1415.96 1564.07 Q1420.1 1564.07 1422.32 1562.66 Q1424.55 1561.23 1424.55 1558.65 Q1424.55 1556.27 1422.93 1554.99 Q1421.34 1553.72 1415.9 1552.54 L1413.86 1552.07 Q1408.42 1550.92 1406 1548.56 Q1403.58 1546.18 1403.58 1542.04 Q1403.58 1537.01 1407.14 1534.27 Q1410.71 1531.54 1417.26 1531.54 Q1420.51 1531.54 1423.37 1532.01 Q1426.24 1532.49 1428.66 1533.45 Z" fill="#000000" fill-rule="nonzero" fill-opacity="1" /><polyline clip-path="url(#clip552)" style="stroke:#000000; stroke-linecap:round; stroke-linejoin:round; stroke-width:2; stroke-opacity:0.1; fill:none" points="242.135,1423.18 2352.76,1423.18 "/>
<polyline clip-path="url(#clip552)" style="stroke:#000000; stroke-linecap:round; stroke-linejoin:round; stroke-width:2; stroke-opacity:0.1; fill:none" points="242.135,1079.2 2352.76,1079.2 "/>
<polyline clip-path="url(#clip552)" style="stroke:#000000; stroke-linecap:round; stroke-linejoin:round; stroke-width:2; stroke-opacity:0.1; fill:none" points="242.135,735.212 2352.76,735.212 "/>
<polyline clip-path="url(#clip552)" style="stroke:#000000; stroke-linecap:round; stroke-linejoin:round; stroke-width:2; stroke-opacity:0.1; fill:none" points="242.135,391.228 2352.76,391.228 "/>
<polyline clip-path="url(#clip552)" style="stroke:#000000; stroke-linecap:round; stroke-linejoin:round; stroke-width:2; stroke-opacity:0.1; fill:none" points="242.135,47.2441 2352.76,47.2441 "/>
<polyline clip-path="url(#clip550)" style="stroke:#000000; stroke-linecap:round; stroke-linejoin:round; stroke-width:4; stroke-opacity:1; fill:none" points="242.135,1423.18 242.135,47.2441 "/>
<polyline clip-path="url(#clip550)" style="stroke:#000000; stroke-linecap:round; stroke-linejoin:round; stroke-width:4; stroke-opacity:1; fill:none" points="242.135,1423.18 261.032,1423.18 "/>
<polyline clip-path="url(#clip550)" style="stroke:#000000; stroke-linecap:round; stroke-linejoin:round; stroke-width:4; stroke-opacity:1; fill:none" points="242.135,1079.2 261.032,1079.2 "/>
<polyline clip-path="url(#clip550)" style="stroke:#000000; stroke-linecap:round; stroke-linejoin:round; stroke-width:4; stroke-opacity:1; fill:none" points="242.135,735.212 261.032,735.212 "/>
<polyline clip-path="url(#clip550)" style="stroke:#000000; stroke-linecap:round; stroke-linejoin:round; stroke-width:4; stroke-opacity:1; fill:none" points="242.135,391.228 261.032,391.228 "/>
<polyline clip-path="url(#clip550)" style="stroke:#000000; stroke-linecap:round; stroke-linejoin:round; stroke-width:4; stroke-opacity:1; fill:none" points="242.135,47.2441 261.032,47.2441 "/>
<path clip-path="url(#clip550)" d="M114.26 1423.63 L143.936 1423.63 L143.936 1427.57 L114.26 1427.57 L114.26 1423.63 Z" fill="#000000" fill-rule="nonzero" fill-opacity="1" /><path clip-path="url(#clip550)" d="M154.075 1405.9 L172.431 1405.9 L172.431 1409.84 L158.357 1409.84 L158.357 1418.31 Q159.376 1417.96 160.394 1417.8 Q161.413 1417.61 162.431 1417.61 Q168.218 1417.61 171.598 1420.78 Q174.977 1423.96 174.977 1429.37 Q174.977 1434.95 171.505 1438.05 Q168.033 1441.13 161.714 1441.13 Q159.538 1441.13 157.269 1440.76 Q155.024 1440.39 152.616 1439.65 L152.616 1434.95 Q154.7 1436.08 156.922 1436.64 Q159.144 1437.2 161.621 1437.2 Q165.626 1437.2 167.964 1435.09 Q170.302 1432.98 170.302 1429.37 Q170.302 1425.76 167.964 1423.65 Q165.626 1421.55 161.621 1421.55 Q159.746 1421.55 157.871 1421.96 Q156.019 1422.38 154.075 1423.26 L154.075 1405.9 Z" fill="#000000" fill-rule="nonzero" fill-opacity="1" /><path clip-path="url(#clip550)" d="M194.19 1408.98 Q190.579 1408.98 188.75 1412.54 Q186.945 1416.08 186.945 1423.21 Q186.945 1430.32 188.75 1433.89 Q190.579 1437.43 194.19 1437.43 Q197.825 1437.43 199.63 1433.89 Q201.459 1430.32 201.459 1423.21 Q201.459 1416.08 199.63 1412.54 Q197.825 1408.98 194.19 1408.98 M194.19 1405.27 Q200 1405.27 203.056 1409.88 Q206.135 1414.46 206.135 1423.21 Q206.135 1431.94 203.056 1436.55 Q200 1441.13 194.19 1441.13 Q188.38 1441.13 185.301 1436.55 Q182.246 1431.94 182.246 1423.21 Q182.246 1414.46 185.301 1409.88 Q188.38 1405.27 194.19 1405.27 Z" fill="#000000" fill-rule="nonzero" fill-opacity="1" /><path clip-path="url(#clip550)" d="M115.256 1079.65 L144.931 1079.65 L144.931 1083.58 L115.256 1083.58 L115.256 1079.65 Z" fill="#000000" fill-rule="nonzero" fill-opacity="1" /><path clip-path="url(#clip550)" d="M159.052 1092.54 L175.371 1092.54 L175.371 1096.48 L153.427 1096.48 L153.427 1092.54 Q156.089 1089.79 160.672 1085.16 Q165.278 1080.5 166.459 1079.16 Q168.704 1076.64 169.584 1074.9 Q170.487 1073.14 170.487 1071.45 Q170.487 1068.7 168.542 1066.96 Q166.621 1065.23 163.519 1065.23 Q161.32 1065.23 158.866 1065.99 Q156.436 1066.75 153.658 1068.3 L153.658 1063.58 Q156.482 1062.45 158.936 1061.87 Q161.39 1061.29 163.427 1061.29 Q168.797 1061.29 171.991 1063.98 Q175.186 1066.66 175.186 1071.15 Q175.186 1073.28 174.376 1075.2 Q173.589 1077.1 171.482 1079.69 Q170.903 1080.36 167.802 1083.58 Q164.7 1086.78 159.052 1092.54 Z" fill="#000000" fill-rule="nonzero" fill-opacity="1" /><path clip-path="url(#clip550)" d="M185.232 1061.92 L203.588 1061.92 L203.588 1065.85 L189.514 1065.85 L189.514 1074.32 Q190.533 1073.98 191.551 1073.81 Q192.57 1073.63 193.588 1073.63 Q199.375 1073.63 202.755 1076.8 Q206.135 1079.97 206.135 1085.39 Q206.135 1090.97 202.662 1094.07 Q199.19 1097.15 192.871 1097.15 Q190.695 1097.15 188.426 1096.78 Q186.181 1096.41 183.774 1095.67 L183.774 1090.97 Q185.857 1092.1 188.079 1092.66 Q190.301 1093.21 192.778 1093.21 Q196.783 1093.21 199.121 1091.11 Q201.459 1089 201.459 1085.39 Q201.459 1081.78 199.121 1079.67 Q196.783 1077.56 192.778 1077.56 Q190.903 1077.56 189.028 1077.98 Q187.176 1078.4 185.232 1079.28 L185.232 1061.92 Z" fill="#000000" fill-rule="nonzero" fill-opacity="1" /><path clip-path="url(#clip550)" d="M194.19 721.011 Q190.579 721.011 188.75 724.575 Q186.945 728.117 186.945 735.247 Q186.945 742.353 188.75 745.918 Q190.579 749.46 194.19 749.46 Q197.825 749.46 199.63 745.918 Q201.459 742.353 201.459 735.247 Q201.459 728.117 199.63 724.575 Q197.825 721.011 194.19 721.011 M194.19 717.307 Q200 717.307 203.056 721.913 Q206.135 726.497 206.135 735.247 Q206.135 743.973 203.056 748.58 Q200 753.163 194.19 753.163 Q188.38 753.163 185.301 748.58 Q182.246 743.973 182.246 735.247 Q182.246 726.497 185.301 721.913 Q188.38 717.307 194.19 717.307 Z" fill="#000000" fill-rule="nonzero" fill-opacity="1" /><path clip-path="url(#clip550)" d="M159.052 404.573 L175.371 404.573 L175.371 408.508 L153.427 408.508 L153.427 404.573 Q156.089 401.818 160.672 397.189 Q165.278 392.536 166.459 391.193 Q168.704 388.67 169.584 386.934 Q170.487 385.175 170.487 383.485 Q170.487 380.73 168.542 378.994 Q166.621 377.258 163.519 377.258 Q161.32 377.258 158.866 378.022 Q156.436 378.786 153.658 380.337 L153.658 375.615 Q156.482 374.48 158.936 373.902 Q161.39 373.323 163.427 373.323 Q168.797 373.323 171.991 376.008 Q175.186 378.693 175.186 383.184 Q175.186 385.314 174.376 387.235 Q173.589 389.133 171.482 391.726 Q170.903 392.397 167.802 395.615 Q164.7 398.809 159.052 404.573 Z" fill="#000000" fill-rule="nonzero" fill-opacity="1" /><path clip-path="url(#clip550)" d="M185.232 373.948 L203.588 373.948 L203.588 377.883 L189.514 377.883 L189.514 386.355 Q190.533 386.008 191.551 385.846 Q192.57 385.661 193.588 385.661 Q199.375 385.661 202.755 388.832 Q206.135 392.003 206.135 397.42 Q206.135 402.999 202.662 406.101 Q199.19 409.179 192.871 409.179 Q190.695 409.179 188.426 408.809 Q186.181 408.439 183.774 407.698 L183.774 402.999 Q185.857 404.133 188.079 404.689 Q190.301 405.244 192.778 405.244 Q196.783 405.244 199.121 403.138 Q201.459 401.031 201.459 397.42 Q201.459 393.809 199.121 391.703 Q196.783 389.596 192.778 389.596 Q190.903 389.596 189.028 390.013 Q187.176 390.429 185.232 391.309 L185.232 373.948 Z" fill="#000000" fill-rule="nonzero" fill-opacity="1" /><path clip-path="url(#clip550)" d="M154.075 29.9641 L172.431 29.9641 L172.431 33.8993 L158.357 33.8993 L158.357 42.3714 Q159.376 42.0242 160.394 41.8622 Q161.413 41.677 162.431 41.677 Q168.218 41.677 171.598 44.8483 Q174.977 48.0196 174.977 53.4362 Q174.977 59.0149 171.505 62.1167 Q168.033 65.1954 161.714 65.1954 Q159.538 65.1954 157.269 64.825 Q155.024 64.4547 152.616 63.7139 L152.616 59.0149 Q154.7 60.1491 156.922 60.7047 Q159.144 61.2602 161.621 61.2602 Q165.626 61.2602 167.964 59.1538 Q170.302 57.0473 170.302 53.4362 Q170.302 49.8251 167.964 47.7186 Q165.626 45.6122 161.621 45.6122 Q159.746 45.6122 157.871 46.0288 Q156.019 46.4455 154.075 47.3251 L154.075 29.9641 Z" fill="#000000" fill-rule="nonzero" fill-opacity="1" /><path clip-path="url(#clip550)" d="M194.19 33.0428 Q190.579 33.0428 188.75 36.6076 Q186.945 40.1492 186.945 47.2788 Q186.945 54.3853 188.75 57.9501 Q190.579 61.4917 194.19 61.4917 Q197.825 61.4917 199.63 57.9501 Q201.459 54.3853 201.459 47.2788 Q201.459 40.1492 199.63 36.6076 Q197.825 33.0428 194.19 33.0428 M194.19 29.3391 Q200 29.3391 203.056 33.9456 Q206.135 38.5289 206.135 47.2788 Q206.135 56.0056 203.056 60.6121 Q200 65.1954 194.19 65.1954 Q188.38 65.1954 185.301 60.6121 Q182.246 56.0056 182.246 47.2788 Q182.246 38.5289 185.301 33.9456 Q188.38 29.3391 194.19 29.3391 Z" fill="#000000" fill-rule="nonzero" fill-opacity="1" /><path clip-path="url(#clip550)" d="M14.479 765.163 L19.3487 765.163 L19.3487 770.764 Q19.3487 773.915 20.6219 775.157 Q21.895 776.366 25.2052 776.366 L28.3562 776.366 L28.3562 766.722 L32.9077 766.722 L32.9077 776.366 L64.0042 776.366 L64.0042 782.255 L32.9077 782.255 L32.9077 787.856 L28.3562 787.856 L28.3562 782.255 L25.8736 782.255 Q19.9216 782.255 17.2162 779.485 Q14.479 776.716 14.479 770.701 L14.479 765.163 Z" fill="#000000" fill-rule="nonzero" fill-opacity="1" /><path clip-path="url(#clip550)" d="M14.5426 746.193 Q21.8632 750.458 29.0246 752.527 Q36.186 754.596 43.5384 754.596 Q50.8908 754.596 58.1159 752.527 Q65.3091 750.426 72.5979 746.193 L72.5979 751.285 Q65.1182 756.06 57.8931 758.447 Q50.668 760.802 43.5384 760.802 Q36.4406 760.802 29.2474 758.447 Q22.0542 756.091 14.5426 751.285 L14.5426 746.193 Z" fill="#000000" fill-rule="nonzero" fill-opacity="1" /><path clip-path="url(#clip550)" d="M28.3562 705.198 L45.7028 718.088 L64.0042 704.529 L64.0042 711.436 L49.9996 721.812 L64.0042 732.188 L64.0042 739.095 L45.3526 725.25 L28.3562 737.917 L28.3562 731.011 L41.0558 721.558 L28.3562 712.104 L28.3562 705.198 Z" fill="#000000" fill-rule="nonzero" fill-opacity="1" /><path clip-path="url(#clip550)" d="M14.5426 697.177 L14.5426 692.084 Q22.0542 687.31 29.2474 684.955 Q36.4406 682.568 43.5384 682.568 Q50.668 682.568 57.8931 684.955 Q65.1182 687.31 72.5979 692.084 L72.5979 697.177 Q65.3091 692.944 58.1159 690.875 Q50.8908 688.774 43.5384 688.774 Q36.186 688.774 29.0246 690.875 Q21.8632 692.944 14.5426 697.177 Z" fill="#000000" fill-rule="nonzero" fill-opacity="1" /><polyline clip-path="url(#clip552)" style="stroke:#009af9; stroke-linecap:round; stroke-linejoin:round; stroke-width:4; stroke-opacity:1; fill:none" points="301.869,1423.18 311.825,1395.8 321.781,1368.69 331.737,1341.86 341.692,1315.31 351.648,1289.03 361.604,1263.02 371.56,1237.29 381.515,1211.84 391.471,1186.66 401.427,1161.75 411.383,1137.12 421.338,1112.77 431.294,1088.69 441.25,1064.89 451.206,1041.36 461.161,1018.1 471.117,995.126 481.073,972.423 491.029,949.996 500.984,927.843 510.94,905.966 520.896,884.363 530.852,863.036 540.807,841.985 550.763,821.208 560.719,800.707 570.675,780.48 580.631,760.529 590.586,740.853 600.542,721.453 610.498,702.327 620.454,683.477 630.409,664.902 640.365,646.602 650.321,628.577 660.277,610.827 670.232,593.353 680.188,576.154 690.144,559.23 700.1,542.581 710.055,526.207 720.011,510.109 729.967,494.286 739.923,478.738 749.878,463.465 759.834,448.467 769.79,433.744 779.746,419.297 789.701,405.125 799.657,391.228 809.613,377.606 819.569,364.26 829.525,351.188 839.48,338.392 849.436,325.871 859.392,313.625 869.348,301.655 879.303,289.959 889.259,278.539 899.215,267.394 909.171,256.524 919.126,245.929 929.082,235.61 939.038,225.565 948.994,215.796 958.949,206.302 968.905,197.083 978.861,188.14 988.817,179.472 998.772,171.078 1008.73,162.96 1018.68,155.117 1028.64,147.55 1038.6,140.257 1048.55,133.24 1058.51,126.498 1068.46,120.031 1078.42,113.839 1088.37,107.923 1098.33,102.282 1108.29,96.9154 1118.24,91.8244 1128.2,87.0086 1138.15,82.468 1148.11,78.2026 1158.06,74.2124 1168.02,70.4974 1177.98,67.0576 1187.93,63.8929 1197.89,61.0035 1207.84,58.3892 1217.8,56.0501 1227.75,53.9862 1237.71,52.1975 1247.67,50.6839 1257.62,49.4456 1267.58,48.4824 1277.53,47.7945 1287.49,47.3817 1297.45,47.2441 1307.4,47.3817 1317.36,47.7945 1327.31,48.4824 1337.27,49.4456 1347.22,50.6839 1357.18,52.1975 1367.14,53.9862 1377.09,56.0501 1387.05,58.3892 1397,61.0035 1406.96,63.8929 1416.91,67.0576 1426.87,70.4974 1436.83,74.2124 1446.78,78.2026 1456.74,82.468 1466.69,87.0086 1476.65,91.8244 1486.6,96.9154 1496.56,102.282 1506.52,107.923 1516.47,113.839 1526.43,120.031 1536.38,126.498 1546.34,133.24 1556.3,140.257 1566.25,147.55 1576.21,155.117 1586.16,162.96 1596.12,171.078 1606.07,179.472 1616.03,188.14 1625.99,197.083 1635.94,206.302 1645.9,215.796 1655.85,225.565 1665.81,235.61 1675.76,245.929 1685.72,256.524 1695.68,267.394 1705.63,278.539 1715.59,289.959 1725.54,301.655 1735.5,313.625 1745.45,325.871 1755.41,338.392 1765.37,351.188 1775.32,364.26 1785.28,377.606 1795.23,391.228 1805.19,405.125 1815.14,419.297 1825.1,433.744 1835.06,448.467 1845.01,463.465 1854.97,478.738 1864.92,494.286 1874.88,510.109 1884.84,526.207 1894.79,542.581 1904.75,559.23 1914.7,576.154 1924.66,593.353 1934.61,610.827 1944.57,628.577 1954.53,646.602 1964.48,664.902 1974.44,683.477 1984.39,702.327 1994.35,721.453 2004.3,740.853 2014.26,760.529 2024.22,780.48 2034.17,800.707 2044.13,821.208 2054.08,841.985 2064.04,863.036 2073.99,884.363 2083.95,905.966 2093.91,927.843 2103.86,949.996 2113.82,972.423 2123.77,995.126 2133.73,1018.1 2143.68,1041.36 2153.64,1064.89 2163.6,1088.69 2173.55,1112.77 2183.51,1137.12 2193.46,1161.75 2203.42,1186.66 2213.38,1211.84 2223.33,1237.29 2233.29,1263.02 2243.24,1289.03 2253.2,1315.31 2263.15,1341.86 2273.11,1368.69 2283.07,1395.8 2293.02,1423.18 "/>
<polyline clip-path="url(#clip552)" style="stroke:#e26f46; stroke-linecap:round; stroke-linejoin:round; stroke-width:4; stroke-opacity:1; fill:none" points="301.869,735.212 2293.02,735.212 "/>
<circle clip-path="url(#clip552)" cx="924.104" cy="240.735" r="14.4" fill="#3da44d" fill-rule="evenodd" fill-opacity="1" stroke="#000000" stroke-opacity="1" stroke-width="3.2"/>
<circle clip-path="url(#clip552)" cx="1173" cy="68.7431" r="14.4" fill="#3da44d" fill-rule="evenodd" fill-opacity="1" stroke="#000000" stroke-opacity="1" stroke-width="3.2"/>
<circle clip-path="url(#clip552)" cx="1421.89" cy="68.7431" r="14.4" fill="#3da44d" fill-rule="evenodd" fill-opacity="1" stroke="#000000" stroke-opacity="1" stroke-width="3.2"/>
<circle clip-path="url(#clip552)" cx="1670.79" cy="240.735" r="14.4" fill="#3da44d" fill-rule="evenodd" fill-opacity="1" stroke="#000000" stroke-opacity="1" stroke-width="3.2"/>
<path clip-path="url(#clip552)" d="M824.547 240.735 L824.547 735.212 L1023.66 735.212 L1023.66 240.735 L824.547 240.735 L824.547 240.735  Z" fill="#c271d2" fill-rule="evenodd" fill-opacity="0.3"/>
<polyline clip-path="url(#clip552)" style="stroke:#000000; stroke-linecap:round; stroke-linejoin:round; stroke-width:4; stroke-opacity:1; fill:none" points="824.547,240.735 824.547,735.212 1023.66,735.212 1023.66,240.735 824.547,240.735 "/>
<path clip-path="url(#clip552)" d="M1073.44 68.7431 L1073.44 735.212 L1272.56 735.212 L1272.56 68.7431 L1073.44 68.7431 L1073.44 68.7431  Z" fill="#c271d2" fill-rule="evenodd" fill-opacity="0.3"/>
<polyline clip-path="url(#clip552)" style="stroke:#000000; stroke-linecap:round; stroke-linejoin:round; stroke-width:4; stroke-opacity:1; fill:none" points="1073.44,68.7431 1073.44,735.212 1272.56,735.212 1272.56,68.7431 1073.44,68.7431 "/>
<path clip-path="url(#clip552)" d="M1322.33 68.7431 L1322.33 735.212 L1521.45 735.212 L1521.45 68.7431 L1322.33 68.7431 L1322.33 68.7431  Z" fill="#c271d2" fill-rule="evenodd" fill-opacity="0.3"/>
<polyline clip-path="url(#clip552)" style="stroke:#000000; stroke-linecap:round; stroke-linejoin:round; stroke-width:4; stroke-opacity:1; fill:none" points="1322.33,68.7431 1322.33,735.212 1521.45,735.212 1521.45,68.7431 1322.33,68.7431 "/>
<path clip-path="url(#clip552)" d="M1571.23 240.735 L1571.23 735.212 L1770.34 735.212 L1770.34 240.735 L1571.23 240.735 L1571.23 240.735  Z" fill="#c271d2" fill-rule="evenodd" fill-opacity="0.3"/>
<polyline clip-path="url(#clip552)" style="stroke:#000000; stroke-linecap:round; stroke-linejoin:round; stroke-width:4; stroke-opacity:1; fill:none" points="1571.23,240.735 1571.23,735.212 1770.34,735.212 1770.34,240.735 1571.23,240.735 "/>
<circle clip-path="url(#clip552)" style="fill:#c271d2; stroke:none; fill-opacity:0" cx="924.104" cy="240.735" r="2"/>
<circle clip-path="url(#clip552)" style="fill:#c271d2; stroke:none; fill-opacity:0" cx="1173" cy="68.7431" r="2"/>
<circle clip-path="url(#clip552)" style="fill:#c271d2; stroke:none; fill-opacity:0" cx="1421.89" cy="68.7431" r="2"/>
<circle clip-path="url(#clip552)" style="fill:#c271d2; stroke:none; fill-opacity:0" cx="1670.79" cy="240.735" r="2"/>
<path clip-path="url(#clip550)" d="M1829.47 352.309 L2282.4 352.309 L2282.4 93.1086 L1829.47 93.1086  Z" fill="#ffffff" fill-rule="evenodd" fill-opacity="1"/>
<polyline clip-path="url(#clip550)" style="stroke:#000000; stroke-linecap:round; stroke-linejoin:round; stroke-width:4; stroke-opacity:1; fill:none" points="1829.47,352.309 2282.4,352.309 2282.4,93.1086 1829.47,93.1086 1829.47,352.309 "/>
<polyline clip-path="url(#clip550)" style="stroke:#009af9; stroke-linecap:round; stroke-linejoin:round; stroke-width:4; stroke-opacity:1; fill:none" points="1852.92,144.949 1993.63,144.949 "/>
<path clip-path="url(#clip550)" d="M2033.58 126.21 L2033.58 129.752 L2029.51 129.752 Q2027.22 129.752 2026.31 130.678 Q2025.43 131.604 2025.43 134.011 L2025.43 136.303 L2032.45 136.303 L2032.45 139.613 L2025.43 139.613 L2025.43 162.229 L2021.15 162.229 L2021.15 139.613 L2017.08 139.613 L2017.08 136.303 L2021.15 136.303 L2021.15 134.497 Q2021.15 130.169 2023.16 128.201 Q2025.18 126.21 2029.55 126.21 L2033.58 126.21 Z" fill="#000000" fill-rule="nonzero" fill-opacity="1" /><path clip-path="url(#clip550)" d="M2047.38 126.257 Q2044.28 131.581 2042.77 136.789 Q2041.27 141.997 2041.27 147.344 Q2041.27 152.692 2042.77 157.946 Q2044.3 163.178 2047.38 168.479 L2043.67 168.479 Q2040.2 163.039 2038.47 157.784 Q2036.75 152.53 2036.75 147.344 Q2036.75 142.182 2038.47 136.951 Q2040.18 131.72 2043.67 126.257 L2047.38 126.257 Z" fill="#000000" fill-rule="nonzero" fill-opacity="1" /><path clip-path="url(#clip550)" d="M2077.19 136.303 L2067.82 148.919 L2077.68 162.229 L2072.66 162.229 L2065.11 152.043 L2057.56 162.229 L2052.54 162.229 L2062.61 148.664 L2053.4 136.303 L2058.42 136.303 L2065.29 145.539 L2072.17 136.303 L2077.19 136.303 Z" fill="#000000" fill-rule="nonzero" fill-opacity="1" /><path clip-path="url(#clip550)" d="M2083.03 126.257 L2086.73 126.257 Q2090.2 131.72 2091.91 136.951 Q2093.65 142.182 2093.65 147.344 Q2093.65 152.53 2091.91 157.784 Q2090.2 163.039 2086.73 168.479 L2083.03 168.479 Q2086.1 163.178 2087.61 157.946 Q2089.14 152.692 2089.14 147.344 Q2089.14 141.997 2087.61 136.789 Q2086.1 131.581 2083.03 126.257 Z" fill="#000000" fill-rule="nonzero" fill-opacity="1" /><polyline clip-path="url(#clip550)" style="stroke:#e26f46; stroke-linecap:round; stroke-linejoin:round; stroke-width:4; stroke-opacity:1; fill:none" points="1852.92,196.789 1993.63,196.789 "/>
<path clip-path="url(#clip550)" d="M2030.92 216.476 Q2029.11 221.106 2027.4 222.518 Q2025.69 223.93 2022.82 223.93 L2019.41 223.93 L2019.41 220.365 L2021.91 220.365 Q2023.67 220.365 2024.65 219.532 Q2025.62 218.698 2026.8 215.596 L2027.56 213.652 L2017.08 188.143 L2021.59 188.143 L2029.69 208.421 L2037.79 188.143 L2042.31 188.143 L2030.92 216.476 Z" fill="#000000" fill-rule="nonzero" fill-opacity="1" /><path clip-path="url(#clip550)" d="M2063.81 192.541 L2093.49 192.541 L2093.49 196.43 L2063.81 196.43 L2063.81 192.541 M2063.81 201.985 L2093.49 201.985 L2093.49 205.921 L2063.81 205.921 L2063.81 201.985 Z" fill="#000000" fill-rule="nonzero" fill-opacity="1" /><path clip-path="url(#clip550)" d="M2128.65 182.587 Q2125.04 182.587 2123.21 186.152 Q2121.4 189.694 2121.4 196.823 Q2121.4 203.93 2123.21 207.495 Q2125.04 211.036 2128.65 211.036 Q2132.28 211.036 2134.09 207.495 Q2135.92 203.93 2135.92 196.823 Q2135.92 189.694 2134.09 186.152 Q2132.28 182.587 2128.65 182.587 M2128.65 178.884 Q2134.46 178.884 2137.52 183.49 Q2140.59 188.073 2140.59 196.823 Q2140.59 205.55 2137.52 210.157 Q2134.46 214.74 2128.65 214.74 Q2122.84 214.74 2119.76 210.157 Q2116.71 205.55 2116.71 196.823 Q2116.71 188.073 2119.76 183.49 Q2122.84 178.884 2128.65 178.884 Z" fill="#000000" fill-rule="nonzero" fill-opacity="1" /><circle clip-path="url(#clip550)" cx="1923.27" cy="248.629" r="20.48" fill="#3da44d" fill-rule="evenodd" fill-opacity="1" stroke="#000000" stroke-opacity="1" stroke-width="4.55111"/>
<path clip-path="url(#clip550)" d="M2037.42 244.96 Q2039.02 242.089 2041.24 240.724 Q2043.47 239.358 2046.47 239.358 Q2050.53 239.358 2052.72 242.205 Q2054.92 245.029 2054.92 250.261 L2054.92 265.909 L2050.64 265.909 L2050.64 250.399 Q2050.64 246.673 2049.32 244.867 Q2048 243.062 2045.29 243.062 Q2041.98 243.062 2040.06 245.261 Q2038.14 247.46 2038.14 251.256 L2038.14 265.909 L2033.86 265.909 L2033.86 250.399 Q2033.86 246.649 2032.54 244.867 Q2031.22 243.062 2028.47 243.062 Q2025.2 243.062 2023.28 245.284 Q2021.36 247.483 2021.36 251.256 L2021.36 265.909 L2017.08 265.909 L2017.08 239.983 L2021.36 239.983 L2021.36 244.011 Q2022.82 241.626 2024.85 240.492 Q2026.89 239.358 2029.69 239.358 Q2032.52 239.358 2034.48 240.793 Q2036.47 242.228 2037.42 244.96 Z" fill="#000000" fill-rule="nonzero" fill-opacity="1" /><path clip-path="url(#clip550)" d="M2063.42 239.983 L2067.68 239.983 L2067.68 265.909 L2063.42 265.909 L2063.42 239.983 M2063.42 229.89 L2067.68 229.89 L2067.68 235.284 L2063.42 235.284 L2063.42 229.89 Z" fill="#000000" fill-rule="nonzero" fill-opacity="1" /><path clip-path="url(#clip550)" d="M2093.65 243.918 L2093.65 229.89 L2097.91 229.89 L2097.91 265.909 L2093.65 265.909 L2093.65 262.02 Q2092.31 264.335 2090.25 265.469 Q2088.21 266.58 2085.34 266.58 Q2080.64 266.58 2077.68 262.83 Q2074.74 259.08 2074.74 252.969 Q2074.74 246.858 2077.68 243.108 Q2080.64 239.358 2085.34 239.358 Q2088.21 239.358 2090.25 240.492 Q2092.31 241.603 2093.65 243.918 M2079.14 252.969 Q2079.14 257.668 2081.06 260.353 Q2083 263.015 2086.38 263.015 Q2089.76 263.015 2091.71 260.353 Q2093.65 257.668 2093.65 252.969 Q2093.65 248.27 2091.71 245.608 Q2089.76 242.923 2086.38 242.923 Q2083 242.923 2081.06 245.608 Q2079.14 248.27 2079.14 252.969 Z" fill="#000000" fill-rule="nonzero" fill-opacity="1" /><path clip-path="url(#clip550)" d="M2110.8 262.02 L2110.8 275.77 L2106.52 275.77 L2106.52 239.983 L2110.8 239.983 L2110.8 243.918 Q2112.15 241.603 2114.18 240.492 Q2116.24 239.358 2119.09 239.358 Q2123.81 239.358 2126.75 243.108 Q2129.72 246.858 2129.72 252.969 Q2129.72 259.08 2126.75 262.83 Q2123.81 266.58 2119.09 266.58 Q2116.24 266.58 2114.18 265.469 Q2112.15 264.335 2110.8 262.02 M2125.29 252.969 Q2125.29 248.27 2123.35 245.608 Q2121.43 242.923 2118.05 242.923 Q2114.67 242.923 2112.72 245.608 Q2110.8 248.27 2110.8 252.969 Q2110.8 257.668 2112.72 260.353 Q2114.67 263.015 2118.05 263.015 Q2121.43 263.015 2123.35 260.353 Q2125.29 257.668 2125.29 252.969 Z" fill="#000000" fill-rule="nonzero" fill-opacity="1" /><path clip-path="url(#clip550)" d="M2146.82 242.969 Q2143.4 242.969 2141.4 245.654 Q2139.41 248.316 2139.41 252.969 Q2139.41 257.622 2141.38 260.307 Q2143.37 262.969 2146.82 262.969 Q2150.22 262.969 2152.21 260.284 Q2154.21 257.598 2154.21 252.969 Q2154.21 248.362 2152.21 245.677 Q2150.22 242.969 2146.82 242.969 M2146.82 239.358 Q2152.38 239.358 2155.55 242.969 Q2158.72 246.58 2158.72 252.969 Q2158.72 259.335 2155.55 262.969 Q2152.38 266.58 2146.82 266.58 Q2141.24 266.58 2138.07 262.969 Q2134.92 259.335 2134.92 252.969 Q2134.92 246.58 2138.07 242.969 Q2141.24 239.358 2146.82 239.358 Z" fill="#000000" fill-rule="nonzero" fill-opacity="1" /><path clip-path="url(#clip550)" d="M2165.78 239.983 L2170.04 239.983 L2170.04 265.909 L2165.78 265.909 L2165.78 239.983 M2165.78 229.89 L2170.04 229.89 L2170.04 235.284 L2165.78 235.284 L2165.78 229.89 Z" fill="#000000" fill-rule="nonzero" fill-opacity="1" /><path clip-path="url(#clip550)" d="M2200.5 250.261 L2200.5 265.909 L2196.24 265.909 L2196.24 250.399 Q2196.24 246.719 2194.81 244.89 Q2193.37 243.062 2190.5 243.062 Q2187.05 243.062 2185.06 245.261 Q2183.07 247.46 2183.07 251.256 L2183.07 265.909 L2178.79 265.909 L2178.79 239.983 L2183.07 239.983 L2183.07 244.011 Q2184.6 241.673 2186.66 240.515 Q2188.74 239.358 2191.45 239.358 Q2195.92 239.358 2198.21 242.136 Q2200.5 244.89 2200.5 250.261 Z" fill="#000000" fill-rule="nonzero" fill-opacity="1" /><path clip-path="url(#clip550)" d="M2213.21 232.622 L2213.21 239.983 L2221.98 239.983 L2221.98 243.293 L2213.21 243.293 L2213.21 257.367 Q2213.21 260.538 2214.07 261.441 Q2214.95 262.344 2217.61 262.344 L2221.98 262.344 L2221.98 265.909 L2217.61 265.909 Q2212.68 265.909 2210.8 264.08 Q2208.93 262.228 2208.93 257.367 L2208.93 243.293 L2205.8 243.293 L2205.8 239.983 L2208.93 239.983 L2208.93 232.622 L2213.21 232.622 Z" fill="#000000" fill-rule="nonzero" fill-opacity="1" /><path clip-path="url(#clip550)" d="M2244.11 240.747 L2244.11 244.774 Q2242.31 243.849 2240.36 243.386 Q2238.42 242.923 2236.33 242.923 Q2233.16 242.923 2231.57 243.895 Q2229.99 244.867 2229.99 246.811 Q2229.99 248.293 2231.13 249.149 Q2232.26 249.983 2235.69 250.747 L2237.15 251.071 Q2241.68 252.043 2243.58 253.825 Q2245.5 255.585 2245.5 258.756 Q2245.5 262.367 2242.63 264.473 Q2239.78 266.58 2234.78 266.58 Q2232.7 266.58 2230.43 266.163 Q2228.19 265.77 2225.69 264.96 L2225.69 260.561 Q2228.05 261.788 2230.34 262.413 Q2232.63 263.015 2234.88 263.015 Q2237.89 263.015 2239.51 261.997 Q2241.13 260.955 2241.13 259.08 Q2241.13 257.344 2239.95 256.418 Q2238.79 255.492 2234.83 254.636 L2233.35 254.288 Q2229.39 253.455 2227.63 251.742 Q2225.87 250.006 2225.87 246.997 Q2225.87 243.339 2228.46 241.349 Q2231.06 239.358 2235.83 239.358 Q2238.19 239.358 2240.27 239.705 Q2242.35 240.052 2244.11 240.747 Z" fill="#000000" fill-rule="nonzero" fill-opacity="1" /><path clip-path="url(#clip550)" d="M1852.92 321.205 L1993.63 321.205 L1993.63 279.733 L1852.92 279.733 L1852.92 321.205  Z" fill="#c271d2" fill-rule="evenodd" fill-opacity="0.3"/>
<polyline clip-path="url(#clip550)" style="stroke:#000000; stroke-linecap:round; stroke-linejoin:round; stroke-width:4; stroke-opacity:1; fill:none" points="1852.92,321.205 1993.63,321.205 1993.63,279.733 1852.92,279.733 1852.92,321.205 "/>
<path clip-path="url(#clip550)" d="M2032.26 295.804 Q2031.54 295.388 2030.69 295.202 Q2029.85 294.994 2028.84 294.994 Q2025.22 294.994 2023.28 297.355 Q2021.36 299.693 2021.36 304.091 L2021.36 317.749 L2017.08 317.749 L2017.08 291.823 L2021.36 291.823 L2021.36 295.851 Q2022.7 293.489 2024.85 292.355 Q2027.01 291.198 2030.09 291.198 Q2030.53 291.198 2031.06 291.267 Q2031.59 291.314 2032.24 291.429 L2032.26 295.804 Z" fill="#000000" fill-rule="nonzero" fill-opacity="1" /><path clip-path="url(#clip550)" d="M2057.86 303.721 L2057.86 305.804 L2038.28 305.804 Q2038.56 310.202 2040.92 312.517 Q2043.3 314.809 2047.54 314.809 Q2049.99 314.809 2052.28 314.207 Q2054.6 313.605 2056.87 312.401 L2056.87 316.429 Q2054.58 317.401 2052.17 317.911 Q2049.76 318.42 2047.28 318.42 Q2041.08 318.42 2037.45 314.809 Q2033.84 311.198 2033.84 305.04 Q2033.84 298.675 2037.26 294.948 Q2040.71 291.198 2046.54 291.198 Q2051.78 291.198 2054.81 294.577 Q2057.86 297.934 2057.86 303.721 M2053.6 302.471 Q2053.56 298.976 2051.64 296.892 Q2049.74 294.809 2046.59 294.809 Q2043.03 294.809 2040.87 296.823 Q2038.74 298.837 2038.42 302.494 L2053.6 302.471 Z" fill="#000000" fill-rule="nonzero" fill-opacity="1" /><path clip-path="url(#clip550)" d="M2083.51 292.818 L2083.51 296.8 Q2081.71 295.804 2079.88 295.318 Q2078.07 294.809 2076.22 294.809 Q2072.08 294.809 2069.78 297.448 Q2067.49 300.064 2067.49 304.809 Q2067.49 309.554 2069.78 312.193 Q2072.08 314.809 2076.22 314.809 Q2078.07 314.809 2079.88 314.323 Q2081.71 313.813 2083.51 312.818 L2083.51 316.753 Q2081.73 317.587 2079.81 318.003 Q2077.91 318.42 2075.76 318.42 Q2069.9 318.42 2066.45 314.739 Q2063 311.059 2063 304.809 Q2063 298.466 2066.47 294.832 Q2069.97 291.198 2076.03 291.198 Q2078 291.198 2079.88 291.615 Q2081.75 292.008 2083.51 292.818 Z" fill="#000000" fill-rule="nonzero" fill-opacity="1" /><path clip-path="url(#clip550)" d="M2095.13 284.462 L2095.13 291.823 L2103.91 291.823 L2103.91 295.133 L2095.13 295.133 L2095.13 309.207 Q2095.13 312.378 2095.99 313.281 Q2096.87 314.184 2099.53 314.184 L2103.91 314.184 L2103.91 317.749 L2099.53 317.749 Q2094.6 317.749 2092.72 315.92 Q2090.85 314.068 2090.85 309.207 L2090.85 295.133 L2087.72 295.133 L2087.72 291.823 L2090.85 291.823 L2090.85 284.462 L2095.13 284.462 Z" fill="#000000" fill-rule="nonzero" fill-opacity="1" /><path clip-path="url(#clip550)" d="M2121.29 304.716 Q2116.13 304.716 2114.14 305.897 Q2112.15 307.077 2112.15 309.925 Q2112.15 312.193 2113.63 313.536 Q2115.13 314.855 2117.7 314.855 Q2121.24 314.855 2123.37 312.355 Q2125.53 309.832 2125.53 305.665 L2125.53 304.716 L2121.29 304.716 M2129.78 302.957 L2129.78 317.749 L2125.53 317.749 L2125.53 313.813 Q2124.07 316.175 2121.89 317.309 Q2119.72 318.42 2116.57 318.42 Q2112.59 318.42 2110.22 316.198 Q2107.89 313.952 2107.89 310.202 Q2107.89 305.827 2110.8 303.605 Q2113.74 301.383 2119.55 301.383 L2125.53 301.383 L2125.53 300.966 Q2125.53 298.027 2123.58 296.429 Q2121.66 294.809 2118.16 294.809 Q2115.94 294.809 2113.84 295.341 Q2111.73 295.874 2109.78 296.939 L2109.78 293.003 Q2112.12 292.101 2114.32 291.661 Q2116.52 291.198 2118.6 291.198 Q2124.23 291.198 2127.01 294.114 Q2129.78 297.031 2129.78 302.957 Z" fill="#000000" fill-rule="nonzero" fill-opacity="1" /><path clip-path="url(#clip550)" d="M2160.11 302.101 L2160.11 317.749 L2155.85 317.749 L2155.85 302.239 Q2155.85 298.559 2154.41 296.73 Q2152.98 294.902 2150.11 294.902 Q2146.66 294.902 2144.67 297.101 Q2142.68 299.3 2142.68 303.096 L2142.68 317.749 L2138.4 317.749 L2138.4 291.823 L2142.68 291.823 L2142.68 295.851 Q2144.21 293.513 2146.27 292.355 Q2148.35 291.198 2151.06 291.198 Q2155.53 291.198 2157.82 293.976 Q2160.11 296.73 2160.11 302.101 Z" fill="#000000" fill-rule="nonzero" fill-opacity="1" /><path clip-path="url(#clip550)" d="M2185.66 304.485 Q2185.66 299.855 2183.74 297.309 Q2181.84 294.763 2178.4 294.763 Q2174.97 294.763 2173.05 297.309 Q2171.15 299.855 2171.15 304.485 Q2171.15 309.091 2173.05 311.638 Q2174.97 314.184 2178.4 314.184 Q2181.84 314.184 2183.74 311.638 Q2185.66 309.091 2185.66 304.485 M2189.92 314.531 Q2189.92 321.151 2186.98 324.369 Q2184.04 327.61 2177.98 327.61 Q2175.73 327.61 2173.74 327.262 Q2171.75 326.938 2169.88 326.244 L2169.88 322.1 Q2171.75 323.119 2173.58 323.605 Q2175.41 324.091 2177.31 324.091 Q2181.5 324.091 2183.58 321.892 Q2185.66 319.716 2185.66 315.295 L2185.66 313.188 Q2184.34 315.48 2182.28 316.614 Q2180.22 317.749 2177.35 317.749 Q2172.59 317.749 2169.67 314.114 Q2166.75 310.48 2166.75 304.485 Q2166.75 298.466 2169.67 294.832 Q2172.59 291.198 2177.35 291.198 Q2180.22 291.198 2182.28 292.332 Q2184.34 293.466 2185.66 295.758 L2185.66 291.823 L2189.92 291.823 L2189.92 314.531 Z" fill="#000000" fill-rule="nonzero" fill-opacity="1" /><path clip-path="url(#clip550)" d="M2198.7 281.73 L2202.96 281.73 L2202.96 317.749 L2198.7 317.749 L2198.7 281.73 Z" fill="#000000" fill-rule="nonzero" fill-opacity="1" /><path clip-path="url(#clip550)" d="M2234.04 303.721 L2234.04 305.804 L2214.46 305.804 Q2214.74 310.202 2217.1 312.517 Q2219.48 314.809 2223.72 314.809 Q2226.17 314.809 2228.46 314.207 Q2230.78 313.605 2233.05 312.401 L2233.05 316.429 Q2230.76 317.401 2228.35 317.911 Q2225.94 318.42 2223.46 318.42 Q2217.26 318.42 2213.63 314.809 Q2210.02 311.198 2210.02 305.04 Q2210.02 298.675 2213.44 294.948 Q2216.89 291.198 2222.72 291.198 Q2227.96 291.198 2230.99 294.577 Q2234.04 297.934 2234.04 303.721 M2229.78 302.471 Q2229.74 298.976 2227.82 296.892 Q2225.92 294.809 2222.77 294.809 Q2219.21 294.809 2217.05 296.823 Q2214.92 298.837 2214.6 302.494 L2229.78 302.471 Z" fill="#000000" fill-rule="nonzero" fill-opacity="1" /><path clip-path="url(#clip550)" d="M2257.56 292.587 L2257.56 296.614 Q2255.76 295.689 2253.81 295.226 Q2251.87 294.763 2249.78 294.763 Q2246.61 294.763 2245.02 295.735 Q2243.44 296.707 2243.44 298.651 Q2243.44 300.133 2244.58 300.989 Q2245.71 301.823 2249.14 302.587 L2250.59 302.911 Q2255.13 303.883 2257.03 305.665 Q2258.95 307.425 2258.95 310.596 Q2258.95 314.207 2256.08 316.313 Q2253.23 318.42 2248.23 318.42 Q2246.15 318.42 2243.88 318.003 Q2241.64 317.61 2239.14 316.8 L2239.14 312.401 Q2241.5 313.628 2243.79 314.253 Q2246.08 314.855 2248.33 314.855 Q2251.33 314.855 2252.96 313.837 Q2254.58 312.795 2254.58 310.92 Q2254.58 309.184 2253.39 308.258 Q2252.24 307.332 2248.28 306.476 L2246.8 306.128 Q2242.84 305.295 2241.08 303.582 Q2239.32 301.846 2239.32 298.837 Q2239.32 295.179 2241.91 293.189 Q2244.51 291.198 2249.27 291.198 Q2251.64 291.198 2253.72 291.545 Q2255.8 291.892 2257.56 292.587 Z" fill="#000000" fill-rule="nonzero" fill-opacity="1" /></svg>
