<?xml version="1.0" encoding="utf-8"?>
<svg xmlns="http://www.w3.org/2000/svg" xmlns:xlink="http://www.w3.org/1999/xlink" width="600" height="400" viewBox="0 0 2400 1600">
<defs>
  <clipPath id="clip730">
    <rect x="0" y="0" width="2400" height="1600"/>
  </clipPath>
</defs>
<path clip-path="url(#clip730)" d="M0 1600 L2400 1600 L2400 0 L0 0  Z" fill="#ffffff" fill-rule="evenodd" fill-opacity="1"/>
<defs>
  <clipPath id="clip731">
    <rect x="480" y="0" width="1681" height="1600"/>
  </clipPath>
</defs>
<path clip-path="url(#clip730)" d="M242.135 1423.18 L1152.76 1423.18 L1152.76 47.2441 L242.135 47.2441  Z" fill="#ffffff" fill-rule="evenodd" fill-opacity="1"/>
<defs>
  <clipPath id="clip732">
    <rect x="242" y="47" width="912" height="1377"/>
  </clipPath>
</defs>
<polyline clip-path="url(#clip732)" style="stroke:#000000; stroke-linecap:round; stroke-linejoin:round; stroke-width:2; stroke-opacity:0.1; fill:none" points="267.907,1423.18 267.907,47.2441 "/>
<polyline clip-path="url(#clip732)" style="stroke:#000000; stroke-linecap:round; stroke-linejoin:round; stroke-width:2; stroke-opacity:0.1; fill:none" points="482.676,1423.18 482.676,47.2441 "/>
<polyline clip-path="url(#clip732)" style="stroke:#000000; stroke-linecap:round; stroke-linejoin:round; stroke-width:2; stroke-opacity:0.1; fill:none" points="697.445,1423.18 697.445,47.2441 "/>
<polyline clip-path="url(#clip732)" style="stroke:#000000; stroke-linecap:round; stroke-linejoin:round; stroke-width:2; stroke-opacity:0.1; fill:none" points="912.214,1423.18 912.214,47.2441 "/>
<polyline clip-path="url(#clip732)" style="stroke:#000000; stroke-linecap:round; stroke-linejoin:round; stroke-width:2; stroke-opacity:0.1; fill:none" points="1126.98,1423.18 1126.98,47.2441 "/>
<polyline clip-path="url(#clip730)" style="stroke:#000000; stroke-linecap:round; stroke-linejoin:round; stroke-width:4; stroke-opacity:1; fill:none" points="242.135,1423.18 1152.76,1423.18 "/>
<polyline clip-path="url(#clip730)" style="stroke:#000000; stroke-linecap:round; stroke-linejoin:round; stroke-width:4; stroke-opacity:1; fill:none" points="267.907,1423.18 267.907,1404.28 "/>
<polyline clip-path="url(#clip730)" style="stroke:#000000; stroke-linecap:round; stroke-linejoin:round; stroke-width:4; stroke-opacity:1; fill:none" points="482.676,1423.18 482.676,1404.28 "/>
<polyline clip-path="url(#clip730)" style="stroke:#000000; stroke-linecap:round; stroke-linejoin:round; stroke-width:4; stroke-opacity:1; fill:none" points="697.445,1423.18 697.445,1404.28 "/>
<polyline clip-path="url(#clip730)" style="stroke:#000000; stroke-linecap:round; stroke-linejoin:round; stroke-width:4; stroke-opacity:1; fill:none" points="912.214,1423.18 912.214,1404.28 "/>
<polyline clip-path="url(#clip730)" style="stroke:#000000; stroke-linecap:round; stroke-linejoin:round; stroke-width:4; stroke-opacity:1; fill:none" points="1126.98,1423.18 1126.98,1404.28 "/>
<path clip-path="url(#clip730)" d="M221.97 1468.75 L251.645 1468.75 L251.645 1472.69 L221.97 1472.69 L221.97 1468.75 Z" fill="#000000" fill-rule="nonzero" fill-opacity="1" /><path clip-path="url(#clip730)" d="M262.548 1481.64 L270.187 1481.64 L270.187 1455.28 L261.877 1456.95 L261.877 1452.69 L270.141 1451.02 L274.817 1451.02 L274.817 1481.64 L282.455 1481.64 L282.455 1485.58 L262.548 1485.58 L262.548 1481.64 Z" fill="#000000" fill-rule="nonzero" fill-opacity="1" /><path clip-path="url(#clip730)" d="M301.9 1454.1 Q298.289 1454.1 296.46 1457.66 Q294.655 1461.2 294.655 1468.33 Q294.655 1475.44 296.46 1479.01 Q298.289 1482.55 301.9 1482.55 Q305.534 1482.55 307.34 1479.01 Q309.168 1475.44 309.168 1468.33 Q309.168 1461.2 307.34 1457.66 Q305.534 1454.1 301.9 1454.1 M301.9 1450.39 Q307.71 1450.39 310.766 1455 Q313.844 1459.58 313.844 1468.33 Q313.844 1477.06 310.766 1481.67 Q307.71 1486.25 301.9 1486.25 Q296.09 1486.25 293.011 1481.67 Q289.955 1477.06 289.955 1468.33 Q289.955 1459.58 293.011 1455 Q296.09 1450.39 301.9 1450.39 Z" fill="#000000" fill-rule="nonzero" fill-opacity="1" /><path clip-path="url(#clip730)" d="M452.317 1468.75 L481.993 1468.75 L481.993 1472.69 L452.317 1472.69 L452.317 1468.75 Z" fill="#000000" fill-rule="nonzero" fill-opacity="1" /><path clip-path="url(#clip730)" d="M492.132 1451.02 L510.488 1451.02 L510.488 1454.96 L496.414 1454.96 L496.414 1463.43 Q497.433 1463.08 498.452 1462.92 Q499.47 1462.73 500.489 1462.73 Q506.276 1462.73 509.655 1465.9 Q513.035 1469.08 513.035 1474.49 Q513.035 1480.07 509.563 1483.17 Q506.09 1486.25 499.771 1486.25 Q497.595 1486.25 495.327 1485.88 Q493.081 1485.51 490.674 1484.77 L490.674 1480.07 Q492.757 1481.2 494.979 1481.76 Q497.202 1482.32 499.678 1482.32 Q503.683 1482.32 506.021 1480.21 Q508.359 1478.1 508.359 1474.49 Q508.359 1470.88 506.021 1468.77 Q503.683 1466.67 499.678 1466.67 Q497.803 1466.67 495.928 1467.08 Q494.077 1467.5 492.132 1468.38 L492.132 1451.02 Z" fill="#000000" fill-rule="nonzero" fill-opacity="1" /><path clip-path="url(#clip730)" d="M697.445 1454.1 Q693.834 1454.1 692.005 1457.66 Q690.2 1461.2 690.2 1468.33 Q690.2 1475.44 692.005 1479.01 Q693.834 1482.55 697.445 1482.55 Q701.08 1482.55 702.885 1479.01 Q704.714 1475.44 704.714 1468.33 Q704.714 1461.2 702.885 1457.66 Q701.08 1454.1 697.445 1454.1 M697.445 1450.39 Q703.255 1450.39 706.311 1455 Q709.39 1459.58 709.39 1468.33 Q709.39 1477.06 706.311 1481.67 Q703.255 1486.25 697.445 1486.25 Q691.635 1486.25 688.556 1481.67 Q685.501 1477.06 685.501 1468.33 Q685.501 1459.58 688.556 1455 Q691.635 1450.39 697.445 1450.39 Z" fill="#000000" fill-rule="nonzero" fill-opacity="1" /><path clip-path="url(#clip730)" d="M902.492 1451.02 L920.849 1451.02 L920.849 1454.96 L906.775 1454.96 L906.775 1463.43 Q907.793 1463.08 908.812 1462.92 Q909.83 1462.73 910.849 1462.73 Q916.636 1462.73 920.015 1465.9 Q923.395 1469.08 923.395 1474.49 Q923.395 1480.07 919.923 1483.17 Q916.451 1486.25 910.131 1486.25 Q907.955 1486.25 905.687 1485.88 Q903.441 1485.51 901.034 1484.77 L901.034 1480.07 Q903.117 1481.2 905.339 1481.76 Q907.562 1482.32 910.039 1482.32 Q914.043 1482.32 916.381 1480.21 Q918.719 1478.1 918.719 1474.49 Q918.719 1470.88 916.381 1468.77 Q914.043 1466.67 910.039 1466.67 Q908.164 1466.67 906.289 1467.08 Q904.437 1467.5 902.492 1468.38 L902.492 1451.02 Z" fill="#000000" fill-rule="nonzero" fill-opacity="1" /><path clip-path="url(#clip730)" d="M1101.67 1481.64 L1109.31 1481.64 L1109.31 1455.28 L1101 1456.95 L1101 1452.69 L1109.26 1451.02 L1113.94 1451.02 L1113.94 1481.64 L1121.58 1481.64 L1121.58 1485.58 L1101.67 1485.58 L1101.67 1481.64 Z" fill="#000000" fill-rule="nonzero" fill-opacity="1" /><path clip-path="url(#clip730)" d="M1141.02 1454.1 Q1137.41 1454.1 1135.58 1457.66 Q1133.78 1461.2 1133.78 1468.33 Q1133.78 1475.44 1135.58 1479.01 Q1137.41 1482.55 1141.02 1482.55 Q1144.66 1482.55 1146.46 1479.01 Q1148.29 1475.44 1148.29 1468.33 Q1148.29 1461.2 1146.46 1457.66 Q1144.66 1454.1 1141.02 1454.1 M1141.02 1450.39 Q1146.83 1450.39 1149.89 1455 Q1152.97 1459.58 1152.97 1468.33 Q1152.97 1477.06 1149.89 1481.67 Q1146.83 1486.25 1141.02 1486.25 Q1135.21 1486.25 1132.13 1481.67 Q1129.08 1477.06 1129.08 1468.33 Q1129.08 1459.58 1132.13 1455 Q1135.21 1450.39 1141.02 1450.39 Z" fill="#000000" fill-rule="nonzero" fill-opacity="1" /><path clip-path="url(#clip730)" d="M598.22 1532.4 L585.329 1549.74 L598.888 1568.04 L591.981 1568.04 L581.605 1554.04 L571.229 1568.04 L564.322 1568.04 L578.168 1549.39 L565.5 1532.4 L572.407 1532.4 L581.86 1545.1 L591.313 1532.4 L598.22 1532.4 Z" fill="#000000" fill-rule="nonzero" fill-opacity="1" /><path clip-path="url(#clip730)" d="M623.683 1532.4 L629.889 1532.4 L641.029 1562.31 L652.169 1532.4 L658.376 1532.4 L645.008 1568.04 L637.051 1568.04 L623.683 1532.4 Z" fill="#000000" fill-rule="nonzero" fill-opacity="1" /><path clip-path="url(#clip730)" d="M682.661 1550.12 Q675.563 1550.12 672.826 1551.75 Q670.089 1553.37 670.089 1557.29 Q670.089 1560.4 672.126 1562.25 Q674.195 1564.07 677.728 1564.07 Q682.597 1564.07 685.525 1560.63 Q688.486 1557.16 688.486 1551.43 L688.486 1550.12 L682.661 1550.12 M694.342 1547.71 L694.342 1568.04 L688.486 1568.04 L688.486 1562.63 Q686.48 1565.88 683.488 1567.44 Q680.497 1568.97 676.168 1568.97 Q670.693 1568.97 667.447 1565.91 Q664.232 1562.82 664.232 1557.67 Q664.232 1551.65 668.243 1548.6 Q672.285 1545.54 680.274 1545.54 L688.486 1545.54 L688.486 1544.97 Q688.486 1540.93 685.812 1538.73 Q683.17 1536.5 678.364 1536.5 Q675.309 1536.5 672.412 1537.23 Q669.516 1537.97 666.842 1539.43 L666.842 1534.02 Q670.057 1532.78 673.081 1532.17 Q676.104 1531.54 678.969 1531.54 Q686.703 1531.54 690.523 1535.55 Q694.342 1539.56 694.342 1547.71 Z" fill="#000000" fill-rule="nonzero" fill-opacity="1" /><path clip-path="url(#clip730)" d="M706.405 1518.52 L712.261 1518.52 L712.261 1568.04 L706.405 1568.04 L706.405 1518.52 Z" fill="#000000" fill-rule="nonzero" fill-opacity="1" /><path clip-path="url(#clip730)" d="M723.911 1553.98 L723.911 1532.4 L729.767 1532.4 L729.767 1553.75 Q729.767 1558.81 731.741 1561.36 Q733.714 1563.87 737.661 1563.87 Q742.403 1563.87 745.14 1560.85 Q747.909 1557.83 747.909 1552.61 L747.909 1532.4 L753.766 1532.4 L753.766 1568.04 L747.909 1568.04 L747.909 1562.57 Q745.777 1565.82 742.944 1567.41 Q740.143 1568.97 736.419 1568.97 Q730.276 1568.97 727.094 1565.15 Q723.911 1561.33 723.911 1553.98 M738.647 1531.54 L738.647 1531.54 Z" fill="#000000" fill-rule="nonzero" fill-opacity="1" /><path clip-path="url(#clip730)" d="M796.321 1548.76 L796.321 1551.62 L769.394 1551.62 Q769.776 1557.67 773.022 1560.85 Q776.3 1564 782.125 1564 Q785.499 1564 788.65 1563.17 Q791.833 1562.35 794.952 1560.69 L794.952 1566.23 Q791.801 1567.57 788.491 1568.27 Q785.181 1568.97 781.775 1568.97 Q773.245 1568.97 768.248 1564 Q763.283 1559.04 763.283 1550.57 Q763.283 1541.82 767.993 1536.69 Q772.736 1531.54 780.756 1531.54 Q787.95 1531.54 792.119 1536.18 Q796.321 1540.8 796.321 1548.76 M790.464 1547.04 Q790.401 1542.23 787.759 1539.37 Q785.149 1536.5 780.82 1536.5 Q775.919 1536.5 772.958 1539.27 Q770.03 1542.04 769.585 1547.07 L790.464 1547.04 Z" fill="#000000" fill-rule="nonzero" fill-opacity="1" /><path clip-path="url(#clip730)" d="M828.658 1533.45 L828.658 1538.98 Q826.176 1537.71 823.502 1537.07 Q820.829 1536.44 817.964 1536.44 Q813.604 1536.44 811.407 1537.77 Q809.243 1539.11 809.243 1541.79 Q809.243 1543.82 810.803 1545 Q812.362 1546.15 817.073 1547.2 L819.078 1547.64 Q825.316 1548.98 827.926 1551.43 Q830.568 1553.85 830.568 1558.21 Q830.568 1563.17 826.621 1566.07 Q822.706 1568.97 815.832 1568.97 Q812.967 1568.97 809.848 1568.39 Q806.76 1567.85 803.323 1566.74 L803.323 1560.69 Q806.569 1562.38 809.72 1563.24 Q812.871 1564.07 815.959 1564.07 Q820.097 1564.07 822.325 1562.66 Q824.553 1561.23 824.553 1558.65 Q824.553 1556.27 822.929 1554.99 Q821.338 1553.72 815.895 1552.54 L813.858 1552.07 Q808.415 1550.92 805.996 1548.56 Q803.578 1546.18 803.578 1542.04 Q803.578 1537.01 807.142 1534.27 Q810.707 1531.54 817.264 1531.54 Q820.51 1531.54 823.375 1532.01 Q826.239 1532.49 828.658 1533.45 Z" fill="#000000" fill-rule="nonzero" fill-opacity="1" /><polyline clip-path="url(#clip732)" style="stroke:#000000; stroke-linecap:round; stroke-linejoin:round; stroke-width:2; stroke-opacity:0.1; fill:none" points="242.135,1423.18 1152.76,1423.18 "/>
<polyline clip-path="url(#clip732)" style="stroke:#000000; stroke-linecap:round; stroke-linejoin:round; stroke-width:2; stroke-opacity:0.1; fill:none" points="242.135,1079.2 1152.76,1079.2 "/>
<polyline clip-path="url(#clip732)" style="stroke:#000000; stroke-linecap:round; stroke-linejoin:round; stroke-width:2; stroke-opacity:0.1; fill:none" points="242.135,735.212 1152.76,735.212 "/>
<polyline clip-path="url(#clip732)" style="stroke:#000000; stroke-linecap:round; stroke-linejoin:round; stroke-width:2; stroke-opacity:0.1; fill:none" points="242.135,391.228 1152.76,391.228 "/>
<polyline clip-path="url(#clip732)" style="stroke:#000000; stroke-linecap:round; stroke-linejoin:round; stroke-width:2; stroke-opacity:0.1; fill:none" points="242.135,47.2441 1152.76,47.2441 "/>
<polyline clip-path="url(#clip730)" style="stroke:#000000; stroke-linecap:round; stroke-linejoin:round; stroke-width:4; stroke-opacity:1; fill:none" points="242.135,1423.18 242.135,47.2441 "/>
<polyline clip-path="url(#clip730)" style="stroke:#000000; stroke-linecap:round; stroke-linejoin:round; stroke-width:4; stroke-opacity:1; fill:none" points="242.135,1423.18 261.032,1423.18 "/>
<polyline clip-path="url(#clip730)" style="stroke:#000000; stroke-linecap:round; stroke-linejoin:round; stroke-width:4; stroke-opacity:1; fill:none" points="242.135,1079.2 261.032,1079.2 "/>
<polyline clip-path="url(#clip730)" style="stroke:#000000; stroke-linecap:round; stroke-linejoin:round; stroke-width:4; stroke-opacity:1; fill:none" points="242.135,735.212 261.032,735.212 "/>
<polyline clip-path="url(#clip730)" style="stroke:#000000; stroke-linecap:round; stroke-linejoin:round; stroke-width:4; stroke-opacity:1; fill:none" points="242.135,391.228 261.032,391.228 "/>
<polyline clip-path="url(#clip730)" style="stroke:#000000; stroke-linecap:round; stroke-linejoin:round; stroke-width:4; stroke-opacity:1; fill:none" points="242.135,47.2441 261.032,47.2441 "/>
<path clip-path="url(#clip730)" d="M114.26 1423.63 L143.936 1423.63 L143.936 1427.57 L114.26 1427.57 L114.26 1423.63 Z" fill="#000000" fill-rule="nonzero" fill-opacity="1" /><path clip-path="url(#clip730)" d="M154.075 1405.9 L172.431 1405.9 L172.431 1409.84 L158.357 1409.84 L158.357 1418.31 Q159.376 1417.96 160.394 1417.8 Q161.413 1417.61 162.431 1417.61 Q168.218 1417.61 171.598 1420.78 Q174.977 1423.96 174.977 1429.37 Q174.977 1434.95 171.505 1438.05 Q168.033 1441.13 161.714 1441.13 Q159.538 1441.13 157.269 1440.76 Q155.024 1440.39 152.616 1439.65 L152.616 1434.95 Q154.7 1436.08 156.922 1436.64 Q159.144 1437.2 161.621 1437.2 Q165.626 1437.2 167.964 1435.09 Q170.302 1432.98 170.302 1429.37 Q170.302 1425.76 167.964 1423.65 Q165.626 1421.55 161.621 1421.55 Q159.746 1421.55 157.871 1421.96 Q156.019 1422.38 154.075 1423.26 L154.075 1405.9 Z" fill="#000000" fill-rule="nonzero" fill-opacity="1" /><path clip-path="url(#clip730)" d="M194.19 1408.98 Q190.579 1408.98 188.75 1412.54 Q186.945 1416.08 186.945 1423.21 Q186.945 1430.32 188.75 1433.89 Q190.579 1437.43 194.19 1437.43 Q197.825 1437.43 199.63 1433.89 Q201.459 1430.32 201.459 1423.21 Q201.459 1416.08 199.63 1412.54 Q197.825 1408.98 194.19 1408.98 M194.19 1405.27 Q200 1405.27 203.056 1409.88 Q206.135 1414.46 206.135 1423.21 Q206.135 1431.94 203.056 1436.55 Q200 1441.13 194.19 1441.13 Q188.38 1441.13 185.301 1436.55 Q182.246 1431.94 182.246 1423.21 Q182.246 1414.46 185.301 1409.88 Q188.38 1405.27 194.19 1405.27 Z" fill="#000000" fill-rule="nonzero" fill-opacity="1" /><path clip-path="url(#clip730)" d="M115.256 1079.65 L144.931 1079.65 L144.931 1083.58 L115.256 1083.58 L115.256 1079.65 Z" fill="#000000" fill-rule="nonzero" fill-opacity="1" /><path clip-path="url(#clip730)" d="M159.052 1092.54 L175.371 1092.54 L175.371 1096.48 L153.427 1096.48 L153.427 1092.54 Q156.089 1089.79 160.672 1085.16 Q165.278 1080.5 166.459 1079.16 Q168.704 1076.64 169.584 1074.9 Q170.487 1073.14 170.487 1071.45 Q170.487 1068.7 168.542 1066.96 Q166.621 1065.23 163.519 1065.23 Q161.32 1065.23 158.866 1065.99 Q156.436 1066.75 153.658 1068.3 L153.658 1063.58 Q156.482 1062.45 158.936 1061.87 Q161.39 1061.29 163.427 1061.29 Q168.797 1061.29 171.991 1063.98 Q175.186 1066.66 175.186 1071.15 Q175.186 1073.28 174.376 1075.2 Q173.589 1077.1 171.482 1079.69 Q170.903 1080.36 167.802 1083.58 Q164.7 1086.78 159.052 1092.54 Z" fill="#000000" fill-rule="nonzero" fill-opacity="1" /><path clip-path="url(#clip730)" d="M185.232 1061.92 L203.588 1061.92 L203.588 1065.85 L189.514 1065.85 L189.514 1074.32 Q190.533 1073.98 191.551 1073.81 Q192.57 1073.63 193.588 1073.63 Q199.375 1073.63 202.755 1076.8 Q206.135 1079.97 206.135 1085.39 Q206.135 1090.97 202.662 1094.07 Q199.19 1097.15 192.871 1097.15 Q190.695 1097.15 188.426 1096.78 Q186.181 1096.41 183.774 1095.67 L183.774 1090.97 Q185.857 1092.1 188.079 1092.66 Q190.301 1093.21 192.778 1093.21 Q196.783 1093.21 199.121 1091.11 Q201.459 1089 201.459 1085.39 Q201.459 1081.78 199.121 1079.67 Q196.783 1077.56 192.778 1077.56 Q190.903 1077.56 189.028 1077.98 Q187.176 1078.4 185.232 1079.28 L185.232 1061.92 Z" fill="#000000" fill-rule="nonzero" fill-opacity="1" /><path clip-path="url(#clip730)" d="M194.19 721.011 Q190.579 721.011 188.75 724.575 Q186.945 728.117 186.945 735.247 Q186.945 742.353 188.75 745.918 Q190.579 749.46 194.19 749.46 Q197.825 749.46 199.63 745.918 Q201.459 742.353 201.459 735.247 Q201.459 728.117 199.63 724.575 Q197.825 721.011 194.19 721.011 M194.19 717.307 Q200 717.307 203.056 721.913 Q206.135 726.497 206.135 735.247 Q206.135 743.973 203.056 748.58 Q200 753.163 194.19 753.163 Q188.38 753.163 185.301 748.58 Q182.246 743.973 182.246 735.247 Q182.246 726.497 185.301 721.913 Q188.38 717.307 194.19 717.307 Z" fill="#000000" fill-rule="nonzero" fill-opacity="1" /><path clip-path="url(#clip730)" d="M159.052 404.573 L175.371 404.573 L175.371 408.508 L153.427 408.508 L153.427 404.573 Q156.089 401.818 160.672 397.189 Q165.278 392.536 166.459 391.193 Q168.704 388.67 169.584 386.934 Q170.487 385.175 170.487 383.485 Q170.487 380.73 168.542 378.994 Q166.621 377.258 163.519 377.258 Q161.32 377.258 158.866 378.022 Q156.436 378.786 153.658 380.337 L153.658 375.615 Q156.482 374.48 158.936 373.902 Q161.39 373.323 163.427 373.323 Q168.797 373.323 171.991 376.008 Q175.186 378.693 175.186 383.184 Q175.186 385.314 174.376 387.235 Q173.589 389.133 171.482 391.726 Q170.903 392.397 167.802 395.615 Q164.7 398.809 159.052 404.573 Z" fill="#000000" fill-rule="nonzero" fill-opacity="1" /><path clip-path="url(#clip730)" d="M185.232 373.948 L203.588 373.948 L203.588 377.883 L189.514 377.883 L189.514 386.355 Q190.533 386.008 191.551 385.846 Q192.57 385.661 193.588 385.661 Q199.375 385.661 202.755 388.832 Q206.135 392.003 206.135 397.42 Q206.135 402.999 202.662 406.101 Q199.19 409.179 192.871 409.179 Q190.695 409.179 188.426 408.809 Q186.181 408.439 183.774 407.698 L183.774 402.999 Q185.857 404.133 188.079 404.689 Q190.301 405.244 192.778 405.244 Q196.783 405.244 199.121 403.138 Q201.459 401.031 201.459 397.42 Q201.459 393.809 199.121 391.703 Q196.783 389.596 192.778 389.596 Q190.903 389.596 189.028 390.013 Q187.176 390.429 185.232 391.309 L185.232 373.948 Z" fill="#000000" fill-rule="nonzero" fill-opacity="1" /><path clip-path="url(#clip730)" d="M154.075 29.9641 L172.431 29.9641 L172.431 33.8993 L158.357 33.8993 L158.357 42.3714 Q159.376 42.0242 160.394 41.8622 Q161.413 41.677 162.431 41.677 Q168.218 41.677 171.598 44.8483 Q174.977 48.0196 174.977 53.4362 Q174.977 59.0149 171.505 62.1167 Q168.033 65.1954 161.714 65.1954 Q159.538 65.1954 157.269 64.825 Q155.024 64.4547 152.616 63.7139 L152.616 59.0149 Q154.7 60.1491 156.922 60.7047 Q159.144 61.2602 161.621 61.2602 Q165.626 61.2602 167.964 59.1538 Q170.302 57.0473 170.302 53.4362 Q170.302 49.8251 167.964 47.7186 Q165.626 45.6122 161.621 45.6122 Q159.746 45.6122 157.871 46.0288 Q156.019 46.4455 154.075 47.3251 L154.075 29.9641 Z" fill="#000000" fill-rule="nonzero" fill-opacity="1" /><path clip-path="url(#clip730)" d="M194.19 33.0428 Q190.579 33.0428 188.75 36.6076 Q186.945 40.1492 186.945 47.2788 Q186.945 54.3853 188.75 57.9501 Q190.579 61.4917 194.19 61.4917 Q197.825 61.4917 199.63 57.9501 Q201.459 54.3853 201.459 47.2788 Q201.459 40.1492 199.63 36.6076 Q197.825 33.0428 194.19 33.0428 M194.19 29.3391 Q200 29.3391 203.056 33.9456 Q206.135 38.5289 206.135 47.2788 Q206.135 56.0056 203.056 60.6121 Q200 65.1954 194.19 65.1954 Q188.38 65.1954 185.301 60.6121 Q182.246 56.0056 182.246 47.2788 Q182.246 38.5289 185.301 33.9456 Q188.38 29.3391 194.19 29.3391 Z" fill="#000000" fill-rule="nonzero" fill-opacity="1" /><path clip-path="url(#clip730)" d="M14.479 765.163 L19.3487 765.163 L19.3487 770.764 Q19.3487 773.915 20.6219 775.157 Q21.895 776.366 25.2052 776.366 L28.3562 776.366 L28.3562 766.722 L32.9077 766.722 L32.9077 776.366 L64.0042 776.366 L64.0042 782.255 L32.9077 782.255 L32.9077 787.856 L28.3562 787.856 L28.3562 782.255 L25.8736 782.255 Q19.9216 782.255 17.2162 779.485 Q14.479 776.716 14.479 770.701 L14.479 765.163 Z" fill="#000000" fill-rule="nonzero" fill-opacity="1" /><path clip-path="url(#clip730)" d="M14.5426 746.193 Q21.8632 750.458 29.0246 752.527 Q36.186 754.596 43.5384 754.596 Q50.8908 754.596 58.1159 752.527 Q65.3091 750.426 72.5979 746.193 L72.5979 751.285 Q65.1182 756.06 57.8931 758.447 Q50.668 760.802 43.5384 760.802 Q36.4406 760.802 29.2474 758.447 Q22.0542 756.091 14.5426 751.285 L14.5426 746.193 Z" fill="#000000" fill-rule="nonzero" fill-opacity="1" /><path clip-path="url(#clip730)" d="M28.3562 705.198 L45.7028 718.088 L64.0042 704.529 L64.0042 711.436 L49.9996 721.812 L64.0042 732.188 L64.0042 739.095 L45.3526 725.25 L28.3562 737.917 L28.3562 731.011 L41.0558 721.558 L28.3562 712.104 L28.3562 705.198 Z" fill="#000000" fill-rule="nonzero" fill-opacity="1" /><path clip-path="url(#clip730)" d="M14.5426 697.177 L14.5426 692.084 Q22.0542 687.31 29.2474 684.955 Q36.4406 682.568 43.5384 682.568 Q50.668 682.568 57.8931 684.955 Q65.1182 687.31 72.5979 692.084 L72.5979 697.177 Q65.3091 692.944 58.1159 690.875 Q50.8908 688.774 43.5384 688.774 Q36.186 688.774 29.0246 690.875 Q21.8632 692.944 14.5426 697.177 Z" fill="#000000" fill-rule="nonzero" fill-opacity="1" /><polyline clip-path="url(#clip732)" style="stroke:#009af9; stroke-linecap:round; stroke-linejoin:round; stroke-width:4; stroke-opacity:1; fill:none" points="267.907,1423.18 272.202,1395.8 276.498,1368.69 280.793,1341.86 285.088,1315.31 289.384,1289.03 293.679,1263.02 297.975,1237.29 302.27,1211.84 306.565,1186.66 310.861,1161.75 315.156,1137.12 319.452,1112.77 323.747,1088.69 328.042,1064.89 332.338,1041.36 336.633,1018.1 340.928,995.126 345.224,972.423 349.519,949.996 353.815,927.843 358.11,905.966 362.405,884.363 366.701,863.036 370.996,841.985 375.292,821.208 379.587,800.707 383.882,780.48 388.178,760.529 392.473,740.853 396.768,721.453 401.064,702.327 405.359,683.477 409.655,664.902 413.95,646.602 418.245,628.577 422.541,610.827 426.836,593.353 431.132,576.154 435.427,559.23 439.722,542.581 444.018,526.207 448.313,510.109 452.608,494.286 456.904,478.738 461.199,463.465 465.495,448.467 469.79,433.744 474.085,419.297 478.381,405.125 482.676,391.228 486.972,377.606 491.267,364.26 495.562,351.188 499.858,338.392 504.153,325.871 508.448,313.625 512.744,301.655 517.039,289.959 521.335,278.539 525.63,267.394 529.925,256.524 534.221,245.929 538.516,235.61 542.811,225.565 547.107,215.796 551.402,206.302 555.698,197.083 559.993,188.14 564.288,179.472 568.584,171.078 572.879,162.96 577.175,155.117 581.47,147.55 585.765,140.257 590.061,133.24 594.356,126.498 598.651,120.031 602.947,113.839 607.242,107.923 611.538,102.282 615.833,96.9154 620.128,91.8244 624.424,87.0086 628.719,82.468 633.015,78.2026 637.31,74.2124 641.605,70.4974 645.901,67.0576 650.196,63.8929 654.491,61.0035 658.787,58.3892 663.082,56.0501 667.378,53.9862 671.673,52.1975 675.968,50.6839 680.264,49.4456 684.559,48.4824 688.855,47.7945 693.15,47.3817 697.445,47.2441 701.741,47.3817 706.036,47.7945 710.331,48.4824 714.627,49.4456 718.922,50.6839 723.218,52.1975 727.513,53.9862 731.808,56.0501 736.104,58.3892 740.399,61.0035 744.695,63.8929 748.99,67.0576 753.285,70.4974 757.581,74.2124 761.876,78.2026 766.171,82.468 770.467,87.0086 774.762,91.8244 779.058,96.9154 783.353,102.282 787.648,107.923 791.944,113.839 796.239,120.031 800.534,126.498 804.83,133.24 809.125,140.257 813.421,147.55 817.716,155.117 822.011,162.96 826.307,171.078 830.602,179.472 834.898,188.14 839.193,197.083 843.488,206.302 847.784,215.796 852.079,225.565 856.374,235.61 860.67,245.929 864.965,256.524 869.261,267.394 873.556,278.539 877.851,289.959 882.147,301.655 886.442,313.625 890.738,325.871 895.033,338.392 899.328,351.188 903.624,364.26 907.919,377.606 912.214,391.228 916.51,405.125 920.805,419.297 925.101,433.744 929.396,448.467 933.691,463.465 937.987,478.738 942.282,494.286 946.578,510.109 950.873,526.207 955.168,542.581 959.464,559.23 963.759,576.154 968.054,593.353 972.35,610.827 976.645,628.577 980.941,646.602 985.236,664.902 989.531,683.477 993.827,702.327 998.122,721.453 1002.42,740.853 1006.71,760.529 1011.01,780.48 1015.3,800.707 1019.6,821.208 1023.89,841.985 1028.19,863.036 1032.49,884.363 1036.78,905.966 1041.08,927.843 1045.37,949.996 1049.67,972.423 1053.96,995.126 1058.26,1018.1 1062.55,1041.36 1066.85,1064.89 1071.14,1088.69 1075.44,1112.77 1079.73,1137.12 1084.03,1161.75 1088.33,1186.66 1092.62,1211.84 1096.92,1237.29 1101.21,1263.02 1105.51,1289.03 1109.8,1315.31 1114.1,1341.86 1118.39,1368.69 1122.69,1395.8 1126.98,1423.18 "/>
<polyline clip-path="url(#clip732)" style="stroke:#e26f46; stroke-linecap:round; stroke-linejoin:round; stroke-width:4; stroke-opacity:1; fill:none" points="267.907,735.212 1126.98,735.212 "/>
<circle clip-path="url(#clip732)" cx="590.061" cy="133.24" r="14.4" fill="#3da44d" fill-rule="evenodd" fill-opacity="1" stroke="#000000" stroke-opacity="1" stroke-width="3.2"/>
<circle clip-path="url(#clip732)" cx="804.83" cy="133.24" r="14.4" fill="#3da44d" fill-rule="evenodd" fill-opacity="1" stroke="#000000" stroke-opacity="1" stroke-width="3.2"/>
<path clip-path="url(#clip732)" d="M504.153 133.24 L504.153 735.212 L675.968 735.212 L675.968 133.24 L504.153 133.24 L504.153 133.24  Z" fill="#c271d2" fill-rule="evenodd" fill-opacity="0.3"/>
<polyline clip-path="url(#clip732)" style="stroke:#000000; stroke-linecap:round; stroke-linejoin:round; stroke-width:4; stroke-opacity:1; fill:none" points="504.153,133.24 504.153,735.212 675.968,735.212 675.968,133.24 504.153,133.24 "/>
<path clip-path="url(#clip732)" d="M718.922 133.24 L718.922 735.212 L890.738 735.212 L890.738 133.24 L718.922 133.24 L718.922 133.24  Z" fill="#c271d2" fill-rule="evenodd" fill-opacity="0.3"/>
<polyline clip-path="url(#clip732)" style="stroke:#000000; stroke-linecap:round; stroke-linejoin:round; stroke-width:4; stroke-opacity:1; fill:none" points="718.922,133.24 718.922,735.212 890.738,735.212 890.738,133.24 718.922,133.24 "/>
<circle clip-path="url(#clip732)" style="fill:#c271d2; stroke:none; fill-opacity:0" cx="590.061" cy="133.24" r="2"/>
<circle clip-path="url(#clip732)" style="fill:#c271d2; stroke:none; fill-opacity:0" cx="804.83" cy="133.24" r="2"/>
<path clip-path="url(#clip730)" d="M530.977 1377.32 L863.913 1377.32 L863.913 1118.12 L530.977 1118.12  Z" fill="#ffffff" fill-rule="evenodd" fill-opacity="1"/>
<polyline clip-path="url(#clip730)" style="stroke:#000000; stroke-linecap:round; stroke-linejoin:round; stroke-width:4; stroke-opacity:1; fill:none" points="530.977,1377.32 863.913,1377.32 863.913,1118.12 530.977,1118.12 530.977,1377.32 "/>
<polyline clip-path="url(#clip730)" style="stroke:#009af9; stroke-linecap:round; stroke-linejoin:round; stroke-width:4; stroke-opacity:1; fill:none" points="541.095,1169.96 601.803,1169.96 "/>
<path clip-path="url(#clip730)" d="M628.426 1151.22 L628.426 1154.76 L624.352 1154.76 Q622.06 1154.76 621.158 1155.68 Q620.278 1156.61 620.278 1159.02 L620.278 1161.31 L627.292 1161.31 L627.292 1164.62 L620.278 1164.62 L620.278 1187.24 L615.996 1187.24 L615.996 1164.62 L611.921 1164.62 L611.921 1161.31 L615.996 1161.31 L615.996 1159.5 Q615.996 1155.18 618.009 1153.21 Q620.023 1151.22 624.398 1151.22 L628.426 1151.22 Z" fill="#000000" fill-rule="nonzero" fill-opacity="1" /><path clip-path="url(#clip730)" d="M642.222 1151.26 Q639.12 1156.59 637.616 1161.8 Q636.111 1167 636.111 1172.35 Q636.111 1177.7 637.616 1182.95 Q639.144 1188.18 642.222 1193.49 L638.519 1193.49 Q635.046 1188.05 633.31 1182.79 Q631.597 1177.54 631.597 1172.35 Q631.597 1167.19 633.31 1161.96 Q635.023 1156.73 638.519 1151.26 L642.222 1151.26 Z" fill="#000000" fill-rule="nonzero" fill-opacity="1" /><path clip-path="url(#clip730)" d="M672.037 1161.31 L662.662 1173.93 L672.523 1187.24 L667.5 1187.24 L659.954 1177.05 L652.407 1187.24 L647.384 1187.24 L657.454 1173.67 L648.241 1161.31 L653.264 1161.31 L660.139 1170.55 L667.014 1161.31 L672.037 1161.31 Z" fill="#000000" fill-rule="nonzero" fill-opacity="1" /><path clip-path="url(#clip730)" d="M677.87 1151.26 L681.574 1151.26 Q685.046 1156.73 686.759 1161.96 Q688.495 1167.19 688.495 1172.35 Q688.495 1177.54 686.759 1182.79 Q685.046 1188.05 681.574 1193.49 L677.87 1193.49 Q680.949 1188.18 682.454 1182.95 Q683.981 1177.7 683.981 1172.35 Q683.981 1167 682.454 1161.8 Q680.949 1156.59 677.87 1151.26 Z" fill="#000000" fill-rule="nonzero" fill-opacity="1" /><polyline clip-path="url(#clip730)" style="stroke:#e26f46; stroke-linecap:round; stroke-linejoin:round; stroke-width:4; stroke-opacity:1; fill:none" points="541.095,1221.8 601.803,1221.8 "/>
<path clip-path="url(#clip730)" d="M625.764 1241.48 Q623.958 1246.11 622.246 1247.52 Q620.533 1248.94 617.662 1248.94 L614.259 1248.94 L614.259 1245.37 L616.759 1245.37 Q618.519 1245.37 619.491 1244.54 Q620.463 1243.7 621.644 1240.6 L622.408 1238.66 L611.921 1213.15 L616.435 1213.15 L624.537 1233.43 L632.639 1213.15 L637.153 1213.15 L625.764 1241.48 Z" fill="#000000" fill-rule="nonzero" fill-opacity="1" /><path clip-path="url(#clip730)" d="M658.657 1217.55 L688.333 1217.55 L688.333 1221.44 L658.657 1221.44 L658.657 1217.55 M658.657 1226.99 L688.333 1226.99 L688.333 1230.93 L658.657 1230.93 L658.657 1226.99 Z" fill="#000000" fill-rule="nonzero" fill-opacity="1" /><path clip-path="url(#clip730)" d="M723.495 1207.59 Q719.884 1207.59 718.055 1211.16 Q716.25 1214.7 716.25 1221.83 Q716.25 1228.94 718.055 1232.5 Q719.884 1236.04 723.495 1236.04 Q727.129 1236.04 728.935 1232.5 Q730.763 1228.94 730.763 1221.83 Q730.763 1214.7 728.935 1211.16 Q727.129 1207.59 723.495 1207.59 M723.495 1203.89 Q729.305 1203.89 732.361 1208.5 Q735.439 1213.08 735.439 1221.83 Q735.439 1230.56 732.361 1235.16 Q729.305 1239.75 723.495 1239.75 Q717.685 1239.75 714.606 1235.16 Q711.551 1230.56 711.551 1221.83 Q711.551 1213.08 714.606 1208.5 Q717.685 1203.89 723.495 1203.89 Z" fill="#000000" fill-rule="nonzero" fill-opacity="1" /><circle clip-path="url(#clip730)" cx="571.449" cy="1273.64" r="20.48" fill="#3da44d" fill-rule="evenodd" fill-opacity="1" stroke="#000000" stroke-opacity="1" stroke-width="4.55111"/>
<path clip-path="url(#clip730)" d="M632.269 1269.97 Q633.866 1267.1 636.088 1265.73 Q638.31 1264.36 641.319 1264.36 Q645.37 1264.36 647.569 1267.21 Q649.769 1270.04 649.769 1275.27 L649.769 1290.92 L645.486 1290.92 L645.486 1275.41 Q645.486 1271.68 644.167 1269.87 Q642.847 1268.07 640.139 1268.07 Q636.829 1268.07 634.907 1270.27 Q632.986 1272.47 632.986 1276.26 L632.986 1290.92 L628.704 1290.92 L628.704 1275.41 Q628.704 1271.66 627.384 1269.87 Q626.065 1268.07 623.31 1268.07 Q620.046 1268.07 618.125 1270.29 Q616.204 1272.49 616.204 1276.26 L616.204 1290.92 L611.921 1290.92 L611.921 1264.99 L616.204 1264.99 L616.204 1269.02 Q617.662 1266.63 619.699 1265.5 Q621.736 1264.36 624.537 1264.36 Q627.361 1264.36 629.329 1265.8 Q631.32 1267.23 632.269 1269.97 Z" fill="#000000" fill-rule="nonzero" fill-opacity="1" /><path clip-path="url(#clip730)" d="M658.264 1264.99 L662.523 1264.99 L662.523 1290.92 L658.264 1290.92 L658.264 1264.99 M658.264 1254.9 L662.523 1254.9 L662.523 1260.29 L658.264 1260.29 L658.264 1254.9 Z" fill="#000000" fill-rule="nonzero" fill-opacity="1" /><path clip-path="url(#clip730)" d="M688.495 1268.92 L688.495 1254.9 L692.754 1254.9 L692.754 1290.92 L688.495 1290.92 L688.495 1287.03 Q687.153 1289.34 685.092 1290.48 Q683.055 1291.59 680.185 1291.59 Q675.486 1291.59 672.523 1287.84 Q669.583 1284.09 669.583 1277.98 Q669.583 1271.86 672.523 1268.11 Q675.486 1264.36 680.185 1264.36 Q683.055 1264.36 685.092 1265.5 Q687.153 1266.61 688.495 1268.92 M673.981 1277.98 Q673.981 1282.67 675.903 1285.36 Q677.847 1288.02 681.227 1288.02 Q684.606 1288.02 686.551 1285.36 Q688.495 1282.67 688.495 1277.98 Q688.495 1273.28 686.551 1270.61 Q684.606 1267.93 681.227 1267.93 Q677.847 1267.93 675.903 1270.61 Q673.981 1273.28 673.981 1277.98 Z" fill="#000000" fill-rule="nonzero" fill-opacity="1" /><path clip-path="url(#clip730)" d="M705.648 1287.03 L705.648 1300.78 L701.365 1300.78 L701.365 1264.99 L705.648 1264.99 L705.648 1268.92 Q706.99 1266.61 709.027 1265.5 Q711.088 1264.36 713.935 1264.36 Q718.657 1264.36 721.597 1268.11 Q724.56 1271.86 724.56 1277.98 Q724.56 1284.09 721.597 1287.84 Q718.657 1291.59 713.935 1291.59 Q711.088 1291.59 709.027 1290.48 Q706.99 1289.34 705.648 1287.03 M720.138 1277.98 Q720.138 1273.28 718.194 1270.61 Q716.273 1267.93 712.893 1267.93 Q709.514 1267.93 707.569 1270.61 Q705.648 1273.28 705.648 1277.98 Q705.648 1282.67 707.569 1285.36 Q709.514 1288.02 712.893 1288.02 Q716.273 1288.02 718.194 1285.36 Q720.138 1282.67 720.138 1277.98 Z" fill="#000000" fill-rule="nonzero" fill-opacity="1" /><path clip-path="url(#clip730)" d="M741.666 1267.98 Q738.24 1267.98 736.25 1270.66 Q734.259 1273.32 734.259 1277.98 Q734.259 1282.63 736.226 1285.31 Q738.217 1287.98 741.666 1287.98 Q745.069 1287.98 747.06 1285.29 Q749.05 1282.61 749.05 1277.98 Q749.05 1273.37 747.06 1270.68 Q745.069 1267.98 741.666 1267.98 M741.666 1264.36 Q747.222 1264.36 750.393 1267.98 Q753.564 1271.59 753.564 1277.98 Q753.564 1284.34 750.393 1287.98 Q747.222 1291.59 741.666 1291.59 Q736.087 1291.59 732.916 1287.98 Q729.768 1284.34 729.768 1277.98 Q729.768 1271.59 732.916 1267.98 Q736.087 1264.36 741.666 1264.36 Z" fill="#000000" fill-rule="nonzero" fill-opacity="1" /><path clip-path="url(#clip730)" d="M760.624 1264.99 L764.884 1264.99 L764.884 1290.92 L760.624 1290.92 L760.624 1264.99 M760.624 1254.9 L764.884 1254.9 L764.884 1260.29 L760.624 1260.29 L760.624 1254.9 Z" fill="#000000" fill-rule="nonzero" fill-opacity="1" /><path clip-path="url(#clip730)" d="M795.346 1275.27 L795.346 1290.92 L791.087 1290.92 L791.087 1275.41 Q791.087 1271.73 789.652 1269.9 Q788.217 1268.07 785.346 1268.07 Q781.897 1268.07 779.907 1270.27 Q777.916 1272.47 777.916 1276.26 L777.916 1290.92 L773.634 1290.92 L773.634 1264.99 L777.916 1264.99 L777.916 1269.02 Q779.444 1266.68 781.504 1265.52 Q783.587 1264.36 786.296 1264.36 Q790.763 1264.36 793.055 1267.14 Q795.346 1269.9 795.346 1275.27 Z" fill="#000000" fill-rule="nonzero" fill-opacity="1" /><path clip-path="url(#clip730)" d="M808.055 1257.63 L808.055 1264.99 L816.828 1264.99 L816.828 1268.3 L808.055 1268.3 L808.055 1282.37 Q808.055 1285.54 808.911 1286.45 Q809.791 1287.35 812.453 1287.35 L816.828 1287.35 L816.828 1290.92 L812.453 1290.92 Q807.522 1290.92 805.647 1289.09 Q803.772 1287.23 803.772 1282.37 L803.772 1268.3 L800.647 1268.3 L800.647 1264.99 L803.772 1264.99 L803.772 1257.63 L808.055 1257.63 Z" fill="#000000" fill-rule="nonzero" fill-opacity="1" /><path clip-path="url(#clip730)" d="M838.957 1265.75 L838.957 1269.78 Q837.152 1268.86 835.207 1268.39 Q833.263 1267.93 831.18 1267.93 Q828.008 1267.93 826.411 1268.9 Q824.837 1269.87 824.837 1271.82 Q824.837 1273.3 825.971 1274.16 Q827.106 1274.99 830.531 1275.75 L831.99 1276.08 Q836.527 1277.05 838.425 1278.83 Q840.346 1280.59 840.346 1283.76 Q840.346 1287.37 837.476 1289.48 Q834.629 1291.59 829.629 1291.59 Q827.545 1291.59 825.277 1291.17 Q823.031 1290.78 820.531 1289.97 L820.531 1285.57 Q822.893 1286.79 825.184 1287.42 Q827.476 1288.02 829.721 1288.02 Q832.73 1288.02 834.351 1287 Q835.971 1285.96 835.971 1284.09 Q835.971 1282.35 834.791 1281.42 Q833.633 1280.5 829.675 1279.64 L828.193 1279.3 Q824.235 1278.46 822.476 1276.75 Q820.717 1275.01 820.717 1272 Q820.717 1268.35 823.309 1266.36 Q825.902 1264.36 830.67 1264.36 Q833.031 1264.36 835.115 1264.71 Q837.198 1265.06 838.957 1265.75 Z" fill="#000000" fill-rule="nonzero" fill-opacity="1" /><path clip-path="url(#clip730)" d="M541.095 1346.21 L601.803 1346.21 L601.803 1304.74 L541.095 1304.74 L541.095 1346.21  Z" fill="#c271d2" fill-rule="evenodd" fill-opacity="0.3"/>
<polyline clip-path="url(#clip730)" style="stroke:#000000; stroke-linecap:round; stroke-linejoin:round; stroke-width:4; stroke-opacity:1; fill:none" points="541.095,1346.21 601.803,1346.21 601.803,1304.74 541.095,1304.74 541.095,1346.21 "/>
<path clip-path="url(#clip730)" d="M627.107 1320.81 Q626.389 1320.39 625.533 1320.21 Q624.699 1320 623.681 1320 Q620.07 1320 618.125 1322.36 Q616.204 1324.7 616.204 1329.1 L616.204 1342.76 L611.921 1342.76 L611.921 1316.83 L616.204 1316.83 L616.204 1320.86 Q617.546 1318.5 619.699 1317.36 Q621.852 1316.2 624.931 1316.2 Q625.37 1316.2 625.903 1316.27 Q626.435 1316.32 627.083 1316.44 L627.107 1320.81 Z" fill="#000000" fill-rule="nonzero" fill-opacity="1" /><path clip-path="url(#clip730)" d="M652.708 1328.73 L652.708 1330.81 L633.125 1330.81 Q633.403 1335.21 635.764 1337.52 Q638.148 1339.82 642.384 1339.82 Q644.838 1339.82 647.13 1339.21 Q649.444 1338.61 651.713 1337.41 L651.713 1341.44 Q649.421 1342.41 647.014 1342.92 Q644.606 1343.43 642.13 1343.43 Q635.926 1343.43 632.292 1339.82 Q628.681 1336.2 628.681 1330.05 Q628.681 1323.68 632.107 1319.95 Q635.556 1316.2 641.389 1316.2 Q646.62 1316.2 649.653 1319.58 Q652.708 1322.94 652.708 1328.73 M648.449 1327.48 Q648.403 1323.98 646.481 1321.9 Q644.583 1319.82 641.435 1319.82 Q637.87 1319.82 635.718 1321.83 Q633.588 1323.84 633.264 1327.5 L648.449 1327.48 Z" fill="#000000" fill-rule="nonzero" fill-opacity="1" /><path clip-path="url(#clip730)" d="M678.356 1317.82 L678.356 1321.81 Q676.551 1320.81 674.722 1320.32 Q672.917 1319.82 671.065 1319.82 Q666.921 1319.82 664.63 1322.45 Q662.338 1325.07 662.338 1329.82 Q662.338 1334.56 664.63 1337.2 Q666.921 1339.82 671.065 1339.82 Q672.917 1339.82 674.722 1339.33 Q676.551 1338.82 678.356 1337.82 L678.356 1341.76 Q676.574 1342.59 674.653 1343.01 Q672.754 1343.43 670.602 1343.43 Q664.745 1343.43 661.296 1339.75 Q657.847 1336.07 657.847 1329.82 Q657.847 1323.47 661.319 1319.84 Q664.815 1316.2 670.879 1316.2 Q672.847 1316.2 674.722 1316.62 Q676.597 1317.01 678.356 1317.82 Z" fill="#000000" fill-rule="nonzero" fill-opacity="1" /><path clip-path="url(#clip730)" d="M689.977 1309.47 L689.977 1316.83 L698.75 1316.83 L698.75 1320.14 L689.977 1320.14 L689.977 1334.21 Q689.977 1337.38 690.833 1338.29 Q691.713 1339.19 694.375 1339.19 L698.75 1339.19 L698.75 1342.76 L694.375 1342.76 Q689.444 1342.76 687.569 1340.93 Q685.694 1339.07 685.694 1334.21 L685.694 1320.14 L682.569 1320.14 L682.569 1316.83 L685.694 1316.83 L685.694 1309.47 L689.977 1309.47 Z" fill="#000000" fill-rule="nonzero" fill-opacity="1" /><path clip-path="url(#clip730)" d="M716.134 1329.72 Q710.972 1329.72 708.981 1330.9 Q706.99 1332.08 706.99 1334.93 Q706.99 1337.2 708.472 1338.54 Q709.977 1339.86 712.546 1339.86 Q716.088 1339.86 718.217 1337.36 Q720.37 1334.84 720.37 1330.67 L720.37 1329.72 L716.134 1329.72 M724.629 1327.96 L724.629 1342.76 L720.37 1342.76 L720.37 1338.82 Q718.912 1341.18 716.736 1342.32 Q714.56 1343.43 711.412 1343.43 Q707.43 1343.43 705.069 1341.2 Q702.731 1338.96 702.731 1335.21 Q702.731 1330.83 705.648 1328.61 Q708.588 1326.39 714.398 1326.39 L720.37 1326.39 L720.37 1325.97 Q720.37 1323.03 718.426 1321.44 Q716.504 1319.82 713.009 1319.82 Q710.787 1319.82 708.68 1320.35 Q706.574 1320.88 704.629 1321.95 L704.629 1318.01 Q706.967 1317.11 709.166 1316.67 Q711.365 1316.2 713.449 1316.2 Q719.074 1316.2 721.851 1319.12 Q724.629 1322.04 724.629 1327.96 Z" fill="#000000" fill-rule="nonzero" fill-opacity="1" /><path clip-path="url(#clip730)" d="M754.953 1327.11 L754.953 1342.76 L750.694 1342.76 L750.694 1327.25 Q750.694 1323.57 749.259 1321.74 Q747.824 1319.91 744.953 1319.91 Q741.504 1319.91 739.513 1322.11 Q737.523 1324.31 737.523 1328.1 L737.523 1342.76 L733.24 1342.76 L733.24 1316.83 L737.523 1316.83 L737.523 1320.86 Q739.05 1318.52 741.111 1317.36 Q743.194 1316.2 745.902 1316.2 Q750.37 1316.2 752.661 1318.98 Q754.953 1321.74 754.953 1327.11 Z" fill="#000000" fill-rule="nonzero" fill-opacity="1" /><path clip-path="url(#clip730)" d="M780.509 1329.49 Q780.509 1324.86 778.587 1322.32 Q776.689 1319.77 773.24 1319.77 Q769.814 1319.77 767.893 1322.32 Q765.995 1324.86 765.995 1329.49 Q765.995 1334.1 767.893 1336.64 Q769.814 1339.19 773.24 1339.19 Q776.689 1339.19 778.587 1336.64 Q780.509 1334.1 780.509 1329.49 M784.768 1339.54 Q784.768 1346.16 781.828 1349.38 Q778.888 1352.62 772.823 1352.62 Q770.578 1352.62 768.587 1352.27 Q766.597 1351.95 764.722 1351.25 L764.722 1347.11 Q766.597 1348.13 768.425 1348.61 Q770.254 1349.1 772.152 1349.1 Q776.342 1349.1 778.425 1346.9 Q780.509 1344.72 780.509 1340.3 L780.509 1338.2 Q779.189 1340.49 777.129 1341.62 Q775.069 1342.76 772.198 1342.76 Q767.43 1342.76 764.513 1339.12 Q761.597 1335.49 761.597 1329.49 Q761.597 1323.47 764.513 1319.84 Q767.43 1316.2 772.198 1316.2 Q775.069 1316.2 777.129 1317.34 Q779.189 1318.47 780.509 1320.76 L780.509 1316.83 L784.768 1316.83 L784.768 1339.54 Z" fill="#000000" fill-rule="nonzero" fill-opacity="1" /><path clip-path="url(#clip730)" d="M793.541 1306.74 L797.8 1306.74 L797.8 1342.76 L793.541 1342.76 L793.541 1306.74 Z" fill="#000000" fill-rule="nonzero" fill-opacity="1" /><path clip-path="url(#clip730)" d="M828.888 1328.73 L828.888 1330.81 L809.305 1330.81 Q809.582 1335.21 811.944 1337.52 Q814.328 1339.82 818.564 1339.82 Q821.018 1339.82 823.309 1339.21 Q825.624 1338.61 827.893 1337.41 L827.893 1341.44 Q825.601 1342.41 823.193 1342.92 Q820.786 1343.43 818.309 1343.43 Q812.106 1343.43 808.471 1339.82 Q804.86 1336.2 804.86 1330.05 Q804.86 1323.68 808.286 1319.95 Q811.735 1316.2 817.569 1316.2 Q822.8 1316.2 825.832 1319.58 Q828.888 1322.94 828.888 1328.73 M824.629 1327.48 Q824.582 1323.98 822.661 1321.9 Q820.763 1319.82 817.615 1319.82 Q814.05 1319.82 811.897 1321.83 Q809.768 1323.84 809.444 1327.5 L824.629 1327.48 Z" fill="#000000" fill-rule="nonzero" fill-opacity="1" /><path clip-path="url(#clip730)" d="M852.406 1317.59 L852.406 1321.62 Q850.601 1320.7 848.656 1320.23 Q846.712 1319.77 844.629 1319.77 Q841.457 1319.77 839.86 1320.74 Q838.286 1321.71 838.286 1323.66 Q838.286 1325.14 839.42 1326 Q840.555 1326.83 843.98 1327.59 L845.439 1327.92 Q849.976 1328.89 851.874 1330.67 Q853.795 1332.43 853.795 1335.6 Q853.795 1339.21 850.925 1341.32 Q848.078 1343.43 843.078 1343.43 Q840.994 1343.43 838.726 1343.01 Q836.48 1342.62 833.98 1341.81 L833.98 1337.41 Q836.342 1338.63 838.633 1339.26 Q840.925 1339.86 843.17 1339.86 Q846.179 1339.86 847.8 1338.84 Q849.42 1337.8 849.42 1335.93 Q849.42 1334.19 848.24 1333.26 Q847.082 1332.34 843.124 1331.48 L841.642 1331.14 Q837.684 1330.3 835.925 1328.59 Q834.166 1326.85 834.166 1323.84 Q834.166 1320.19 836.758 1318.2 Q839.351 1316.2 844.119 1316.2 Q846.48 1316.2 848.564 1316.55 Q850.647 1316.9 852.406 1317.59 Z" fill="#000000" fill-rule="nonzero" fill-opacity="1" /><path clip-path="url(#clip730)" d="M1442.13 1423.18 L2352.76 1423.18 L2352.76 47.2441 L1442.13 47.2441  Z" fill="#ffffff" fill-rule="evenodd" fill-opacity="1"/>
<defs>
  <clipPath id="clip733">
    <rect x="1442" y="47" width="912" height="1377"/>
  </clipPath>
</defs>
<polyline clip-path="url(#clip733)" style="stroke:#000000; stroke-linecap:round; stroke-linejoin:round; stroke-width:2; stroke-opacity:0.1; fill:none" points="1467.91,1423.18 1467.91,47.2441 "/>
<polyline clip-path="url(#clip733)" style="stroke:#000000; stroke-linecap:round; stroke-linejoin:round; stroke-width:2; stroke-opacity:0.1; fill:none" points="1682.68,1423.18 1682.68,47.2441 "/>
<polyline clip-path="url(#clip733)" style="stroke:#000000; stroke-linecap:round; stroke-linejoin:round; stroke-width:2; stroke-opacity:0.1; fill:none" points="1897.45,1423.18 1897.45,47.2441 "/>
<polyline clip-path="url(#clip733)" style="stroke:#000000; stroke-linecap:round; stroke-linejoin:round; stroke-width:2; stroke-opacity:0.1; fill:none" points="2112.21,1423.18 2112.21,47.2441 "/>
<polyline clip-path="url(#clip733)" style="stroke:#000000; stroke-linecap:round; stroke-linejoin:round; stroke-width:2; stroke-opacity:0.1; fill:none" points="2326.98,1423.18 2326.98,47.2441 "/>
<polyline clip-path="url(#clip730)" style="stroke:#000000; stroke-linecap:round; stroke-linejoin:round; stroke-width:4; stroke-opacity:1; fill:none" points="1442.13,1423.18 2352.76,1423.18 "/>
<polyline clip-path="url(#clip730)" style="stroke:#000000; stroke-linecap:round; stroke-linejoin:round; stroke-width:4; stroke-opacity:1; fill:none" points="1467.91,1423.18 1467.91,1404.28 "/>
<polyline clip-path="url(#clip730)" style="stroke:#000000; stroke-linecap:round; stroke-linejoin:round; stroke-width:4; stroke-opacity:1; fill:none" points="1682.68,1423.18 1682.68,1404.28 "/>
<polyline clip-path="url(#clip730)" style="stroke:#000000; stroke-linecap:round; stroke-linejoin:round; stroke-width:4; stroke-opacity:1; fill:none" points="1897.45,1423.18 1897.45,1404.28 "/>
<polyline clip-path="url(#clip730)" style="stroke:#000000; stroke-linecap:round; stroke-linejoin:round; stroke-width:4; stroke-opacity:1; fill:none" points="2112.21,1423.18 2112.21,1404.28 "/>
<polyline clip-path="url(#clip730)" style="stroke:#000000; stroke-linecap:round; stroke-linejoin:round; stroke-width:4; stroke-opacity:1; fill:none" points="2326.98,1423.18 2326.98,1404.28 "/>
<path clip-path="url(#clip730)" d="M1421.97 1468.75 L1451.65 1468.75 L1451.65 1472.69 L1421.97 1472.69 L1421.97 1468.75 Z" fill="#000000" fill-rule="nonzero" fill-opacity="1" /><path clip-path="url(#clip730)" d="M1462.55 1481.64 L1470.19 1481.64 L1470.19 1455.28 L1461.88 1456.95 L1461.88 1452.69 L1470.14 1451.02 L1474.82 1451.02 L1474.82 1481.64 L1482.46 1481.64 L1482.46 1485.58 L1462.55 1485.58 L1462.55 1481.64 Z" fill="#000000" fill-rule="nonzero" fill-opacity="1" /><path clip-path="url(#clip730)" d="M1501.9 1454.1 Q1498.29 1454.1 1496.46 1457.66 Q1494.65 1461.2 1494.65 1468.33 Q1494.65 1475.44 1496.46 1479.01 Q1498.29 1482.55 1501.9 1482.55 Q1505.53 1482.55 1507.34 1479.01 Q1509.17 1475.44 1509.17 1468.33 Q1509.17 1461.2 1507.34 1457.66 Q1505.53 1454.1 1501.9 1454.1 M1501.9 1450.39 Q1507.71 1450.39 1510.77 1455 Q1513.84 1459.58 1513.84 1468.33 Q1513.84 1477.06 1510.77 1481.67 Q1507.71 1486.25 1501.9 1486.25 Q1496.09 1486.25 1493.01 1481.67 Q1489.96 1477.06 1489.96 1468.33 Q1489.96 1459.58 1493.01 1455 Q1496.09 1450.39 1501.9 1450.39 Z" fill="#000000" fill-rule="nonzero" fill-opacity="1" /><path clip-path="url(#clip730)" d="M1652.32 1468.75 L1681.99 1468.75 L1681.99 1472.69 L1652.32 1472.69 L1652.32 1468.75 Z" fill="#000000" fill-rule="nonzero" fill-opacity="1" /><path clip-path="url(#clip730)" d="M1692.13 1451.02 L1710.49 1451.02 L1710.49 1454.96 L1696.41 1454.96 L1696.41 1463.43 Q1697.43 1463.08 1698.45 1462.92 Q1699.47 1462.73 1700.49 1462.73 Q1706.28 1462.73 1709.66 1465.9 Q1713.03 1469.08 1713.03 1474.49 Q1713.03 1480.07 1709.56 1483.17 Q1706.09 1486.25 1699.77 1486.25 Q1697.6 1486.25 1695.33 1485.88 Q1693.08 1485.51 1690.67 1484.77 L1690.67 1480.07 Q1692.76 1481.2 1694.98 1481.76 Q1697.2 1482.32 1699.68 1482.32 Q1703.68 1482.32 1706.02 1480.21 Q1708.36 1478.1 1708.36 1474.49 Q1708.36 1470.88 1706.02 1468.77 Q1703.68 1466.67 1699.68 1466.67 Q1697.8 1466.67 1695.93 1467.08 Q1694.08 1467.5 1692.13 1468.38 L1692.13 1451.02 Z" fill="#000000" fill-rule="nonzero" fill-opacity="1" /><path clip-path="url(#clip730)" d="M1897.45 1454.1 Q1893.83 1454.1 1892.01 1457.66 Q1890.2 1461.2 1890.2 1468.33 Q1890.2 1475.44 1892.01 1479.01 Q1893.83 1482.55 1897.45 1482.55 Q1901.08 1482.55 1902.89 1479.01 Q1904.71 1475.44 1904.71 1468.33 Q1904.71 1461.2 1902.89 1457.66 Q1901.08 1454.1 1897.45 1454.1 M1897.45 1450.39 Q1903.26 1450.39 1906.31 1455 Q1909.39 1459.58 1909.39 1468.33 Q1909.39 1477.06 1906.31 1481.67 Q1903.26 1486.25 1897.45 1486.25 Q1891.64 1486.25 1888.56 1481.67 Q1885.5 1477.06 1885.5 1468.33 Q1885.5 1459.58 1888.56 1455 Q1891.64 1450.39 1897.45 1450.39 Z" fill="#000000" fill-rule="nonzero" fill-opacity="1" /><path clip-path="url(#clip730)" d="M2102.49 1451.02 L2120.85 1451.02 L2120.85 1454.96 L2106.77 1454.96 L2106.77 1463.43 Q2107.79 1463.08 2108.81 1462.92 Q2109.83 1462.73 2110.85 1462.73 Q2116.64 1462.73 2120.02 1465.9 Q2123.39 1469.08 2123.39 1474.49 Q2123.39 1480.07 2119.92 1483.17 Q2116.45 1486.25 2110.13 1486.25 Q2107.96 1486.25 2105.69 1485.88 Q2103.44 1485.51 2101.03 1484.77 L2101.03 1480.07 Q2103.12 1481.2 2105.34 1481.76 Q2107.56 1482.32 2110.04 1482.32 Q2114.04 1482.32 2116.38 1480.21 Q2118.72 1478.1 2118.72 1474.49 Q2118.72 1470.88 2116.38 1468.77 Q2114.04 1466.67 2110.04 1466.67 Q2108.16 1466.67 2106.29 1467.08 Q2104.44 1467.5 2102.49 1468.38 L2102.49 1451.02 Z" fill="#000000" fill-rule="nonzero" fill-opacity="1" /><path clip-path="url(#clip730)" d="M2301.67 1481.64 L2309.31 1481.64 L2309.31 1455.28 L2301 1456.95 L2301 1452.69 L2309.26 1451.02 L2313.94 1451.02 L2313.94 1481.64 L2321.58 1481.64 L2321.58 1485.58 L2301.67 1485.58 L2301.67 1481.64 Z" fill="#000000" fill-rule="nonzero" fill-opacity="1" /><path clip-path="url(#clip730)" d="M2341.02 1454.1 Q2337.41 1454.1 2335.58 1457.66 Q2333.78 1461.2 2333.78 1468.33 Q2333.78 1475.44 2335.58 1479.01 Q2337.41 1482.55 2341.02 1482.55 Q2344.66 1482.55 2346.46 1479.01 Q2348.29 1475.44 2348.29 1468.33 Q2348.29 1461.2 2346.46 1457.66 Q2344.66 1454.1 2341.02 1454.1 M2341.02 1450.39 Q2346.83 1450.39 2349.89 1455 Q2352.97 1459.58 2352.97 1468.33 Q2352.97 1477.06 2349.89 1481.67 Q2346.83 1486.25 2341.02 1486.25 Q2335.21 1486.25 2332.13 1481.67 Q2329.08 1477.06 2329.08 1468.33 Q2329.08 1459.58 2332.13 1455 Q2335.21 1450.39 2341.02 1450.39 Z" fill="#000000" fill-rule="nonzero" fill-opacity="1" /><path clip-path="url(#clip730)" d="M1798.22 1532.4 L1785.33 1549.74 L1798.89 1568.04 L1791.98 1568.04 L1781.61 1554.04 L1771.23 1568.04 L1764.32 1568.04 L1778.17 1549.39 L1765.5 1532.4 L1772.41 1532.4 L1781.86 1545.1 L1791.31 1532.4 L1798.22 1532.4 Z" fill="#000000" fill-rule="nonzero" fill-opacity="1" /><path clip-path="url(#clip730)" d="M1823.68 1532.4 L1829.89 1532.4 L1841.03 1562.31 L1852.17 1532.4 L1858.38 1532.4 L1845.01 1568.04 L1837.05 1568.04 L1823.68 1532.4 Z" fill="#000000" fill-rule="nonzero" fill-opacity="1" /><path clip-path="url(#clip730)" d="M1882.66 1550.12 Q1875.56 1550.12 1872.83 1551.75 Q1870.09 1553.37 1870.09 1557.29 Q1870.09 1560.4 1872.13 1562.25 Q1874.19 1564.07 1877.73 1564.07 Q1882.6 1564.07 1885.53 1560.63 Q1888.49 1557.16 1888.49 1551.43 L1888.49 1550.12 L1882.66 1550.12 M1894.34 1547.71 L1894.34 1568.04 L1888.49 1568.04 L1888.49 1562.63 Q1886.48 1565.88 1883.49 1567.44 Q1880.5 1568.97 1876.17 1568.97 Q1870.69 1568.97 1867.45 1565.91 Q1864.23 1562.82 1864.23 1557.67 Q1864.23 1551.65 1868.24 1548.6 Q1872.28 1545.54 1880.27 1545.54 L1888.49 1545.54 L1888.49 1544.97 Q1888.49 1540.93 1885.81 1538.73 Q1883.17 1536.5 1878.36 1536.5 Q1875.31 1536.5 1872.41 1537.23 Q1869.52 1537.97 1866.84 1539.43 L1866.84 1534.02 Q1870.06 1532.78 1873.08 1532.17 Q1876.1 1531.54 1878.97 1531.54 Q1886.7 1531.54 1890.52 1535.55 Q1894.34 1539.56 1894.34 1547.71 Z" fill="#000000" fill-rule="nonzero" fill-opacity="1" /><path clip-path="url(#clip730)" d="M1906.41 1518.52 L1912.26 1518.52 L1912.26 1568.04 L1906.41 1568.04 L1906.41 1518.52 Z" fill="#000000" fill-rule="nonzero" fill-opacity="1" /><path clip-path="url(#clip730)" d="M1923.91 1553.98 L1923.91 1532.4 L1929.77 1532.4 L1929.77 1553.75 Q1929.77 1558.81 1931.74 1561.36 Q1933.71 1563.87 1937.66 1563.87 Q1942.4 1563.87 1945.14 1560.85 Q1947.91 1557.83 1947.91 1552.61 L1947.91 1532.4 L1953.77 1532.4 L1953.77 1568.04 L1947.91 1568.04 L1947.91 1562.57 Q1945.78 1565.82 1942.94 1567.41 Q1940.14 1568.97 1936.42 1568.97 Q1930.28 1568.97 1927.09 1565.15 Q1923.91 1561.33 1923.91 1553.98 M1938.65 1531.54 L1938.65 1531.54 Z" fill="#000000" fill-rule="nonzero" fill-opacity="1" /><path clip-path="url(#clip730)" d="M1996.32 1548.76 L1996.32 1551.62 L1969.39 1551.62 Q1969.78 1557.67 1973.02 1560.85 Q1976.3 1564 1982.13 1564 Q1985.5 1564 1988.65 1563.17 Q1991.83 1562.35 1994.95 1560.69 L1994.95 1566.23 Q1991.8 1567.57 1988.49 1568.27 Q1985.18 1568.97 1981.77 1568.97 Q1973.24 1568.97 1968.25 1564 Q1963.28 1559.04 1963.28 1550.57 Q1963.28 1541.82 1967.99 1536.69 Q1972.74 1531.54 1980.76 1531.54 Q1987.95 1531.54 1992.12 1536.18 Q1996.32 1540.8 1996.32 1548.76 M1990.46 1547.04 Q1990.4 1542.23 1987.76 1539.37 Q1985.15 1536.5 1980.82 1536.5 Q1975.92 1536.5 1972.96 1539.27 Q1970.03 1542.04 1969.58 1547.07 L1990.46 1547.04 Z" fill="#000000" fill-rule="nonzero" fill-opacity="1" /><path clip-path="url(#clip730)" d="M2028.66 1533.45 L2028.66 1538.98 Q2026.18 1537.71 2023.5 1537.07 Q2020.83 1536.44 2017.96 1536.44 Q2013.6 1536.44 2011.41 1537.77 Q2009.24 1539.11 2009.24 1541.79 Q2009.24 1543.82 2010.8 1545 Q2012.36 1546.15 2017.07 1547.2 L2019.08 1547.64 Q2025.32 1548.98 2027.93 1551.43 Q2030.57 1553.85 2030.57 1558.21 Q2030.57 1563.17 2026.62 1566.07 Q2022.71 1568.97 2015.83 1568.97 Q2012.97 1568.97 2009.85 1568.39 Q2006.76 1567.85 2003.32 1566.74 L2003.32 1560.69 Q2006.57 1562.38 2009.72 1563.24 Q2012.87 1564.07 2015.96 1564.07 Q2020.1 1564.07 2022.32 1562.66 Q2024.55 1561.23 2024.55 1558.65 Q2024.55 1556.27 2022.93 1554.99 Q2021.34 1553.72 2015.9 1552.54 L2013.86 1552.07 Q2008.42 1550.92 2006 1548.56 Q2003.58 1546.18 2003.58 1542.04 Q2003.58 1537.01 2007.14 1534.27 Q2010.71 1531.54 2017.26 1531.54 Q2020.51 1531.54 2023.37 1532.01 Q2026.24 1532.49 2028.66 1533.45 Z" fill="#000000" fill-rule="nonzero" fill-opacity="1" /><polyline clip-path="url(#clip733)" style="stroke:#000000; stroke-linecap:round; stroke-linejoin:round; stroke-width:2; stroke-opacity:0.1; fill:none" points="1442.13,1254.43 2352.76,1254.43 "/>
<polyline clip-path="url(#clip733)" style="stroke:#000000; stroke-linecap:round; stroke-linejoin:round; stroke-width:2; stroke-opacity:0.1; fill:none" points="1442.13,994.822 2352.76,994.822 "/>
<polyline clip-path="url(#clip733)" style="stroke:#000000; stroke-linecap:round; stroke-linejoin:round; stroke-width:2; stroke-opacity:0.1; fill:none" points="1442.13,735.212 2352.76,735.212 "/>
<polyline clip-path="url(#clip733)" style="stroke:#000000; stroke-linecap:round; stroke-linejoin:round; stroke-width:2; stroke-opacity:0.1; fill:none" points="1442.13,475.601 2352.76,475.601 "/>
<polyline clip-path="url(#clip733)" style="stroke:#000000; stroke-linecap:round; stroke-linejoin:round; stroke-width:2; stroke-opacity:0.1; fill:none" points="1442.13,215.991 2352.76,215.991 "/>
<polyline clip-path="url(#clip730)" style="stroke:#000000; stroke-linecap:round; stroke-linejoin:round; stroke-width:4; stroke-opacity:1; fill:none" points="1442.13,1423.18 1442.13,47.2441 "/>
<polyline clip-path="url(#clip730)" style="stroke:#000000; stroke-linecap:round; stroke-linejoin:round; stroke-width:4; stroke-opacity:1; fill:none" points="1442.13,1254.43 1461.03,1254.43 "/>
<polyline clip-path="url(#clip730)" style="stroke:#000000; stroke-linecap:round; stroke-linejoin:round; stroke-width:4; stroke-opacity:1; fill:none" points="1442.13,994.822 1461.03,994.822 "/>
<polyline clip-path="url(#clip730)" style="stroke:#000000; stroke-linecap:round; stroke-linejoin:round; stroke-width:4; stroke-opacity:1; fill:none" points="1442.13,735.212 1461.03,735.212 "/>
<polyline clip-path="url(#clip730)" style="stroke:#000000; stroke-linecap:round; stroke-linejoin:round; stroke-width:4; stroke-opacity:1; fill:none" points="1442.13,475.601 1461.03,475.601 "/>
<polyline clip-path="url(#clip730)" style="stroke:#000000; stroke-linecap:round; stroke-linejoin:round; stroke-width:4; stroke-opacity:1; fill:none" points="1442.13,215.991 1461.03,215.991 "/>
<path clip-path="url(#clip730)" d="M1314.26 1254.88 L1343.94 1254.88 L1343.94 1258.82 L1314.26 1258.82 L1314.26 1254.88 Z" fill="#000000" fill-rule="nonzero" fill-opacity="1" /><path clip-path="url(#clip730)" d="M1366.88 1241.23 L1355.07 1259.68 L1366.88 1259.68 L1366.88 1241.23 M1365.65 1237.15 L1371.53 1237.15 L1371.53 1259.68 L1376.46 1259.68 L1376.46 1263.56 L1371.53 1263.56 L1371.53 1271.71 L1366.88 1271.71 L1366.88 1263.56 L1351.27 1263.56 L1351.27 1259.05 L1365.65 1237.15 Z" fill="#000000" fill-rule="nonzero" fill-opacity="1" /><path clip-path="url(#clip730)" d="M1394.19 1240.23 Q1390.58 1240.23 1388.75 1243.8 Q1386.94 1247.34 1386.94 1254.47 Q1386.94 1261.57 1388.75 1265.14 Q1390.58 1268.68 1394.19 1268.68 Q1397.82 1268.68 1399.63 1265.14 Q1401.46 1261.57 1401.46 1254.47 Q1401.46 1247.34 1399.63 1243.8 Q1397.82 1240.23 1394.19 1240.23 M1394.19 1236.53 Q1400 1236.53 1403.06 1241.13 Q1406.13 1245.72 1406.13 1254.47 Q1406.13 1263.19 1403.06 1267.8 Q1400 1272.38 1394.19 1272.38 Q1388.38 1272.38 1385.3 1267.8 Q1382.25 1263.19 1382.25 1254.47 Q1382.25 1245.72 1385.3 1241.13 Q1388.38 1236.53 1394.19 1236.53 Z" fill="#000000" fill-rule="nonzero" fill-opacity="1" /><path clip-path="url(#clip730)" d="M1314.26 995.274 L1343.94 995.274 L1343.94 999.209 L1314.26 999.209 L1314.26 995.274 Z" fill="#000000" fill-rule="nonzero" fill-opacity="1" /><path clip-path="url(#clip730)" d="M1358.06 1008.17 L1374.38 1008.17 L1374.38 1012.1 L1352.43 1012.1 L1352.43 1008.17 Q1355.09 1005.41 1359.68 1000.78 Q1364.28 996.13 1365.46 994.788 Q1367.71 992.265 1368.59 990.529 Q1369.49 988.769 1369.49 987.079 Q1369.49 984.325 1367.55 982.589 Q1365.63 980.853 1362.52 980.853 Q1360.32 980.853 1357.87 981.617 Q1355.44 982.38 1352.66 983.931 L1352.66 979.209 Q1355.49 978.075 1357.94 977.496 Q1360.39 976.917 1362.43 976.917 Q1367.8 976.917 1371 979.603 Q1374.19 982.288 1374.19 986.779 Q1374.19 988.908 1373.38 990.829 Q1372.59 992.728 1370.49 995.32 Q1369.91 995.991 1366.81 999.209 Q1363.7 1002.4 1358.06 1008.17 Z" fill="#000000" fill-rule="nonzero" fill-opacity="1" /><path clip-path="url(#clip730)" d="M1394.19 980.621 Q1390.58 980.621 1388.75 984.186 Q1386.94 987.728 1386.94 994.857 Q1386.94 1001.96 1388.75 1005.53 Q1390.58 1009.07 1394.19 1009.07 Q1397.82 1009.07 1399.63 1005.53 Q1401.46 1001.96 1401.46 994.857 Q1401.46 987.728 1399.63 984.186 Q1397.82 980.621 1394.19 980.621 M1394.19 976.917 Q1400 976.917 1403.06 981.524 Q1406.13 986.107 1406.13 994.857 Q1406.13 1003.58 1403.06 1008.19 Q1400 1012.77 1394.19 1012.77 Q1388.38 1012.77 1385.3 1008.19 Q1382.25 1003.58 1382.25 994.857 Q1382.25 986.107 1385.3 981.524 Q1388.38 976.917 1394.19 976.917 Z" fill="#000000" fill-rule="nonzero" fill-opacity="1" /><path clip-path="url(#clip730)" d="M1394.19 721.011 Q1390.58 721.011 1388.75 724.575 Q1386.94 728.117 1386.94 735.247 Q1386.94 742.353 1388.75 745.918 Q1390.58 749.46 1394.19 749.46 Q1397.82 749.46 1399.63 745.918 Q1401.46 742.353 1401.46 735.247 Q1401.46 728.117 1399.63 724.575 Q1397.82 721.011 1394.19 721.011 M1394.19 717.307 Q1400 717.307 1403.06 721.913 Q1406.13 726.497 1406.13 735.247 Q1406.13 743.973 1403.06 748.58 Q1400 753.163 1394.19 753.163 Q1388.38 753.163 1385.3 748.58 Q1382.25 743.973 1382.25 735.247 Q1382.25 726.497 1385.3 721.913 Q1388.38 717.307 1394.19 717.307 Z" fill="#000000" fill-rule="nonzero" fill-opacity="1" /><path clip-path="url(#clip730)" d="M1358.06 488.946 L1374.38 488.946 L1374.38 492.881 L1352.43 492.881 L1352.43 488.946 Q1355.09 486.192 1359.68 481.562 Q1364.28 476.909 1365.46 475.567 Q1367.71 473.044 1368.59 471.307 Q1369.49 469.548 1369.49 467.858 Q1369.49 465.104 1367.55 463.368 Q1365.63 461.632 1362.52 461.632 Q1360.32 461.632 1357.87 462.396 Q1355.44 463.159 1352.66 464.71 L1352.66 459.988 Q1355.49 458.854 1357.94 458.275 Q1360.39 457.696 1362.43 457.696 Q1367.8 457.696 1371 460.382 Q1374.19 463.067 1374.19 467.558 Q1374.19 469.687 1373.38 471.608 Q1372.59 473.507 1370.49 476.099 Q1369.91 476.77 1366.81 479.988 Q1363.7 483.182 1358.06 488.946 Z" fill="#000000" fill-rule="nonzero" fill-opacity="1" /><path clip-path="url(#clip730)" d="M1394.19 461.4 Q1390.58 461.4 1388.75 464.965 Q1386.94 468.507 1386.94 475.636 Q1386.94 482.743 1388.75 486.307 Q1390.58 489.849 1394.19 489.849 Q1397.82 489.849 1399.63 486.307 Q1401.46 482.743 1401.46 475.636 Q1401.46 468.507 1399.63 464.965 Q1397.82 461.4 1394.19 461.4 M1394.19 457.696 Q1400 457.696 1403.06 462.303 Q1406.13 466.886 1406.13 475.636 Q1406.13 484.363 1403.06 488.969 Q1400 493.553 1394.19 493.553 Q1388.38 493.553 1385.3 488.969 Q1382.25 484.363 1382.25 475.636 Q1382.25 466.886 1385.3 462.303 Q1388.38 457.696 1394.19 457.696 Z" fill="#000000" fill-rule="nonzero" fill-opacity="1" /><path clip-path="url(#clip730)" d="M1366.88 202.785 L1355.07 221.234 L1366.88 221.234 L1366.88 202.785 M1365.65 198.711 L1371.53 198.711 L1371.53 221.234 L1376.46 221.234 L1376.46 225.123 L1371.53 225.123 L1371.53 233.271 L1366.88 233.271 L1366.88 225.123 L1351.27 225.123 L1351.27 220.609 L1365.65 198.711 Z" fill="#000000" fill-rule="nonzero" fill-opacity="1" /><path clip-path="url(#clip730)" d="M1394.19 201.79 Q1390.58 201.79 1388.75 205.354 Q1386.94 208.896 1386.94 216.026 Q1386.94 223.132 1388.75 226.697 Q1390.58 230.239 1394.19 230.239 Q1397.82 230.239 1399.63 226.697 Q1401.46 223.132 1401.46 216.026 Q1401.46 208.896 1399.63 205.354 Q1397.82 201.79 1394.19 201.79 M1394.19 198.086 Q1400 198.086 1403.06 202.692 Q1406.13 207.276 1406.13 216.026 Q1406.13 224.752 1403.06 229.359 Q1400 233.942 1394.19 233.942 Q1388.38 233.942 1385.3 229.359 Q1382.25 224.752 1382.25 216.026 Q1382.25 207.276 1385.3 202.692 Q1388.38 198.086 1394.19 198.086 Z" fill="#000000" fill-rule="nonzero" fill-opacity="1" /><path clip-path="url(#clip730)" d="M1214.48 765.163 L1219.35 765.163 L1219.35 770.764 Q1219.35 773.915 1220.62 775.157 Q1221.9 776.366 1225.21 776.366 L1228.36 776.366 L1228.36 766.722 L1232.91 766.722 L1232.91 776.366 L1264 776.366 L1264 782.255 L1232.91 782.255 L1232.91 787.856 L1228.36 787.856 L1228.36 782.255 L1225.87 782.255 Q1219.92 782.255 1217.22 779.485 Q1214.48 776.716 1214.48 770.701 L1214.48 765.163 Z" fill="#000000" fill-rule="nonzero" fill-opacity="1" /><path clip-path="url(#clip730)" d="M1214.54 746.193 Q1221.86 750.458 1229.02 752.527 Q1236.19 754.596 1243.54 754.596 Q1250.89 754.596 1258.12 752.527 Q1265.31 750.426 1272.6 746.193 L1272.6 751.285 Q1265.12 756.06 1257.89 758.447 Q1250.67 760.802 1243.54 760.802 Q1236.44 760.802 1229.25 758.447 Q1222.05 756.091 1214.54 751.285 L1214.54 746.193 Z" fill="#000000" fill-rule="nonzero" fill-opacity="1" /><path clip-path="url(#clip730)" d="M1228.36 705.198 L1245.7 718.088 L1264 704.529 L1264 711.436 L1250 721.812 L1264 732.188 L1264 739.095 L1245.35 725.25 L1228.36 737.917 L1228.36 731.011 L1241.06 721.558 L1228.36 712.104 L1228.36 705.198 Z" fill="#000000" fill-rule="nonzero" fill-opacity="1" /><path clip-path="url(#clip730)" d="M1214.54 697.177 L1214.54 692.084 Q1222.05 687.31 1229.25 684.955 Q1236.44 682.568 1243.54 682.568 Q1250.67 682.568 1257.89 684.955 Q1265.12 687.31 1272.6 692.084 L1272.6 697.177 Q1265.31 692.944 1258.12 690.875 Q1250.89 688.774 1243.54 688.774 Q1236.19 688.774 1229.02 690.875 Q1221.86 692.944 1214.54 697.177 Z" fill="#000000" fill-rule="nonzero" fill-opacity="1" /><polyline clip-path="url(#clip733)" style="stroke:#009af9; stroke-linecap:round; stroke-linejoin:round; stroke-width:4; stroke-opacity:1; fill:none" points="1467.91,1384.24 1472.2,1358.41 1476.5,1332.84 1480.79,1307.52 1485.09,1282.47 1489.38,1257.68 1493.68,1233.14 1497.97,1208.87 1502.27,1184.86 1506.57,1161.1 1510.86,1137.61 1515.16,1114.37 1519.45,1091.4 1523.75,1068.68 1528.04,1046.23 1532.34,1024.03 1536.63,1002.09 1540.93,980.414 1545.22,958.996 1549.52,937.838 1553.81,916.939 1558.11,896.3 1562.41,875.921 1566.7,855.801 1571,835.941 1575.29,816.34 1579.59,796.999 1583.88,777.918 1588.18,759.096 1592.47,740.534 1596.77,722.231 1601.06,704.189 1605.36,686.405 1609.65,668.881 1613.95,651.617 1618.25,634.613 1622.54,617.868 1626.84,601.383 1631.13,585.157 1635.43,569.191 1639.72,553.485 1644.02,538.038 1648.31,522.851 1652.61,507.923 1656.9,493.255 1661.2,478.847 1665.49,464.698 1669.79,450.809 1674.09,437.179 1678.38,423.809 1682.68,410.699 1686.97,397.848 1691.27,385.257 1695.56,372.925 1699.86,360.854 1704.15,349.041 1708.45,337.489 1712.74,326.196 1717.04,315.162 1721.33,304.388 1725.63,293.874 1729.93,283.619 1734.22,273.624 1738.52,263.889 1742.81,254.413 1747.11,245.197 1751.4,236.241 1755.7,227.544 1759.99,219.106 1764.29,210.929 1768.58,203.01 1772.88,195.352 1777.17,187.953 1781.47,180.814 1785.77,173.934 1790.06,167.314 1794.36,160.954 1798.65,154.853 1802.95,149.011 1807.24,143.43 1811.54,138.108 1815.83,133.045 1820.13,128.243 1824.42,123.699 1828.72,119.416 1833.01,115.392 1837.31,111.628 1841.61,108.123 1845.9,104.878 1850.2,101.892 1854.49,99.1662 1858.79,96.6999 1863.08,94.4932 1867.38,92.5461 1871.67,90.8587 1875.97,89.4308 1880.26,88.2626 1884.56,87.3539 1888.85,86.7049 1893.15,86.3155 1897.45,86.1857 1901.74,86.3155 1906.04,86.7049 1910.33,87.3539 1914.63,88.2626 1918.92,89.4308 1923.22,90.8587 1927.51,92.5461 1931.81,94.4932 1936.1,96.6999 1940.4,99.1662 1944.69,101.892 1948.99,104.878 1953.29,108.123 1957.58,111.628 1961.88,115.392 1966.17,119.416 1970.47,123.699 1974.76,128.243 1979.06,133.045 1983.35,138.108 1987.65,143.43 1991.94,149.011 1996.24,154.853 2000.53,160.954 2004.83,167.314 2009.13,173.934 2013.42,180.814 2017.72,187.953 2022.01,195.352 2026.31,203.01 2030.6,210.929 2034.9,219.106 2039.19,227.544 2043.49,236.241 2047.78,245.197 2052.08,254.413 2056.37,263.889 2060.67,273.624 2064.97,283.619 2069.26,293.874 2073.56,304.388 2077.85,315.162 2082.15,326.196 2086.44,337.489 2090.74,349.041 2095.03,360.854 2099.33,372.925 2103.62,385.257 2107.92,397.848 2112.21,410.699 2116.51,423.809 2120.81,437.179 2125.1,450.809 2129.4,464.698 2133.69,478.847 2137.99,493.255 2142.28,507.923 2146.58,522.851 2150.87,538.038 2155.17,553.485 2159.46,569.191 2163.76,585.157 2168.05,601.383 2172.35,617.868 2176.65,634.613 2180.94,651.617 2185.24,668.881 2189.53,686.405 2193.83,704.189 2198.12,722.231 2202.42,740.534 2206.71,759.096 2211.01,777.918 2215.3,796.999 2219.6,816.34 2223.89,835.941 2228.19,855.801 2232.49,875.921 2236.78,896.3 2241.08,916.939 2245.37,937.838 2249.67,958.996 2253.96,980.414 2258.26,1002.09 2262.55,1024.03 2266.85,1046.23 2271.14,1068.68 2275.44,1091.4 2279.73,1114.37 2284.03,1137.61 2288.33,1161.1 2292.62,1184.86 2296.92,1208.87 2301.21,1233.14 2305.51,1257.68 2309.8,1282.47 2314.1,1307.52 2318.39,1332.84 2322.69,1358.41 2326.98,1384.24 "/>
<polyline clip-path="url(#clip733)" style="stroke:#e26f46; stroke-linecap:round; stroke-linejoin:round; stroke-width:4; stroke-opacity:1; fill:none" points="1467.91,735.212 2326.98,735.212 "/>
<circle clip-path="url(#clip733)" cx="1682.68" cy="410.699" r="14.4" fill="#3da44d" fill-rule="evenodd" fill-opacity="1" stroke="#000000" stroke-opacity="1" stroke-width="3.2"/>
<circle clip-path="url(#clip733)" cx="1897.45" cy="86.1857" r="14.4" fill="#3da44d" fill-rule="evenodd" fill-opacity="1" stroke="#000000" stroke-opacity="1" stroke-width="3.2"/>
<circle clip-path="url(#clip733)" cx="2112.21" cy="410.699" r="14.4" fill="#3da44d" fill-rule="evenodd" fill-opacity="1" stroke="#000000" stroke-opacity="1" stroke-width="3.2"/>
<polyline clip-path="url(#clip733)" style="stroke:#000000; stroke-linecap:round; stroke-linejoin:round; stroke-width:4; stroke-opacity:1; fill:none" points="1682.68,735.212 1682.68,410.699 "/>
<polyline clip-path="url(#clip733)" style="stroke:#000000; stroke-linecap:round; stroke-linejoin:round; stroke-width:4; stroke-opacity:1; fill:none" points="2112.21,735.212 2112.21,410.699 "/>
<polyline clip-path="url(#clip733)" style="stroke:#000000; stroke-linecap:round; stroke-linejoin:round; stroke-width:4; stroke-opacity:1; fill:none" points="1897.45,735.212 1897.45,86.1857 "/>
<polyline clip-path="url(#clip733)" style="stroke:#000000; stroke-linecap:round; stroke-linejoin:round; stroke-width:4; stroke-opacity:1; fill:none" points="1682.68,410.699 1897.45,86.1857 "/>
<polyline clip-path="url(#clip733)" style="stroke:#000000; stroke-linecap:round; stroke-linejoin:round; stroke-width:4; stroke-opacity:1; fill:none" points="1897.45,86.1857 2112.21,410.699 "/>
<path clip-path="url(#clip730)" d="M1782.77 1377.32 L2012.12 1377.32 L2012.12 1169.96 L1782.77 1169.96  Z" fill="#ffffff" fill-rule="evenodd" fill-opacity="1"/>
<polyline clip-path="url(#clip730)" style="stroke:#000000; stroke-linecap:round; stroke-linejoin:round; stroke-width:4; stroke-opacity:1; fill:none" points="1782.77,1377.32 2012.12,1377.32 2012.12,1169.96 1782.77,1169.96 1782.77,1377.32 "/>
<polyline clip-path="url(#clip730)" style="stroke:#009af9; stroke-linecap:round; stroke-linejoin:round; stroke-width:4; stroke-opacity:1; fill:none" points="1792.89,1221.8 1853.6,1221.8 "/>
<path clip-path="url(#clip730)" d="M1880.22 1203.06 L1880.22 1206.6 L1876.15 1206.6 Q1873.85 1206.6 1872.95 1207.52 Q1872.07 1208.45 1872.07 1210.86 L1872.07 1213.15 L1879.09 1213.15 L1879.09 1216.46 L1872.07 1216.46 L1872.07 1239.08 L1867.79 1239.08 L1867.79 1216.46 L1863.72 1216.46 L1863.72 1213.15 L1867.79 1213.15 L1867.79 1211.34 Q1867.79 1207.02 1869.8 1205.05 Q1871.82 1203.06 1876.19 1203.06 L1880.22 1203.06 Z" fill="#000000" fill-rule="nonzero" fill-opacity="1" /><path clip-path="url(#clip730)" d="M1894.02 1203.1 Q1890.91 1208.43 1889.41 1213.64 Q1887.9 1218.84 1887.9 1224.19 Q1887.9 1229.54 1889.41 1234.79 Q1890.94 1240.02 1894.02 1245.33 L1890.31 1245.33 Q1886.84 1239.89 1885.1 1234.63 Q1883.39 1229.38 1883.39 1224.19 Q1883.39 1219.03 1885.1 1213.8 Q1886.82 1208.57 1890.31 1203.1 L1894.02 1203.1 Z" fill="#000000" fill-rule="nonzero" fill-opacity="1" /><path clip-path="url(#clip730)" d="M1923.83 1213.15 L1914.46 1225.77 L1924.32 1239.08 L1919.29 1239.08 L1911.75 1228.89 L1904.2 1239.08 L1899.18 1239.08 L1909.25 1225.51 L1900.03 1213.15 L1905.06 1213.15 L1911.93 1222.39 L1918.81 1213.15 L1923.83 1213.15 Z" fill="#000000" fill-rule="nonzero" fill-opacity="1" /><path clip-path="url(#clip730)" d="M1929.66 1203.1 L1933.37 1203.1 Q1936.84 1208.57 1938.55 1213.8 Q1940.29 1219.03 1940.29 1224.19 Q1940.29 1229.38 1938.55 1234.63 Q1936.84 1239.89 1933.37 1245.33 L1929.66 1245.33 Q1932.74 1240.02 1934.25 1234.79 Q1935.77 1229.54 1935.77 1224.19 Q1935.77 1218.84 1934.25 1213.64 Q1932.74 1208.43 1929.66 1203.1 Z" fill="#000000" fill-rule="nonzero" fill-opacity="1" /><polyline clip-path="url(#clip730)" style="stroke:#e26f46; stroke-linecap:round; stroke-linejoin:round; stroke-width:4; stroke-opacity:1; fill:none" points="1792.89,1273.64 1853.6,1273.64 "/>
<path clip-path="url(#clip730)" d="M1877.56 1293.32 Q1875.75 1297.95 1874.04 1299.36 Q1872.33 1300.78 1869.46 1300.78 L1866.05 1300.78 L1866.05 1297.21 L1868.55 1297.21 Q1870.31 1297.21 1871.28 1296.38 Q1872.26 1295.54 1873.44 1292.44 L1874.2 1290.5 L1863.72 1264.99 L1868.23 1264.99 L1876.33 1285.27 L1884.43 1264.99 L1888.95 1264.99 L1877.56 1293.32 Z" fill="#000000" fill-rule="nonzero" fill-opacity="1" /><path clip-path="url(#clip730)" d="M1910.45 1269.39 L1940.13 1269.39 L1940.13 1273.28 L1910.45 1273.28 L1910.45 1269.39 M1910.45 1278.83 L1940.13 1278.83 L1940.13 1282.77 L1910.45 1282.77 L1910.45 1278.83 Z" fill="#000000" fill-rule="nonzero" fill-opacity="1" /><path clip-path="url(#clip730)" d="M1975.29 1259.43 Q1971.68 1259.43 1969.85 1263 Q1968.04 1266.54 1968.04 1273.67 Q1968.04 1280.78 1969.85 1284.34 Q1971.68 1287.88 1975.29 1287.88 Q1978.92 1287.88 1980.73 1284.34 Q1982.56 1280.78 1982.56 1273.67 Q1982.56 1266.54 1980.73 1263 Q1978.92 1259.43 1975.29 1259.43 M1975.29 1255.73 Q1981.1 1255.73 1984.15 1260.34 Q1987.23 1264.92 1987.23 1273.67 Q1987.23 1282.4 1984.15 1287 Q1981.1 1291.59 1975.29 1291.59 Q1969.48 1291.59 1966.4 1287 Q1963.34 1282.4 1963.34 1273.67 Q1963.34 1264.92 1966.4 1260.34 Q1969.48 1255.73 1975.29 1255.73 Z" fill="#000000" fill-rule="nonzero" fill-opacity="1" /><circle clip-path="url(#clip730)" cx="1823.24" cy="1325.48" r="20.48" fill="#3da44d" fill-rule="evenodd" fill-opacity="1" stroke="#000000" stroke-opacity="1" stroke-width="4.55111"/>
<path clip-path="url(#clip730)" d="M1887.74 1328.73 L1887.74 1330.81 L1868.16 1330.81 Q1868.44 1335.21 1870.8 1337.52 Q1873.18 1339.82 1877.42 1339.82 Q1879.87 1339.82 1882.16 1339.21 Q1884.48 1338.61 1886.75 1337.41 L1886.75 1341.44 Q1884.46 1342.41 1882.05 1342.92 Q1879.64 1343.43 1877.16 1343.43 Q1870.96 1343.43 1867.33 1339.82 Q1863.72 1336.2 1863.72 1330.05 Q1863.72 1323.68 1867.14 1319.95 Q1870.59 1316.2 1876.42 1316.2 Q1881.65 1316.2 1884.69 1319.58 Q1887.74 1322.94 1887.74 1328.73 M1883.48 1327.48 Q1883.44 1323.98 1881.52 1321.9 Q1879.62 1319.82 1876.47 1319.82 Q1872.9 1319.82 1870.75 1321.83 Q1868.62 1323.84 1868.3 1327.5 L1883.48 1327.48 Z" fill="#000000" fill-rule="nonzero" fill-opacity="1" /><path clip-path="url(#clip730)" d="M1911.79 1320.76 L1911.79 1306.74 L1916.05 1306.74 L1916.05 1342.76 L1911.79 1342.76 L1911.79 1338.87 Q1910.45 1341.18 1908.39 1342.32 Q1906.35 1343.43 1903.48 1343.43 Q1898.78 1343.43 1895.82 1339.68 Q1892.88 1335.93 1892.88 1329.82 Q1892.88 1323.7 1895.82 1319.95 Q1898.78 1316.2 1903.48 1316.2 Q1906.35 1316.2 1908.39 1317.34 Q1910.45 1318.45 1911.79 1320.76 M1897.28 1329.82 Q1897.28 1334.51 1899.2 1337.2 Q1901.15 1339.86 1904.53 1339.86 Q1907.9 1339.86 1909.85 1337.2 Q1911.79 1334.51 1911.79 1329.82 Q1911.79 1325.12 1909.85 1322.45 Q1907.9 1319.77 1904.53 1319.77 Q1901.15 1319.77 1899.2 1322.45 Q1897.28 1325.12 1897.28 1329.82 Z" fill="#000000" fill-rule="nonzero" fill-opacity="1" /><path clip-path="url(#clip730)" d="M1941.89 1329.49 Q1941.89 1324.86 1939.96 1322.32 Q1938.07 1319.77 1934.62 1319.77 Q1931.19 1319.77 1929.27 1322.32 Q1927.37 1324.86 1927.37 1329.49 Q1927.37 1334.1 1929.27 1336.64 Q1931.19 1339.19 1934.62 1339.19 Q1938.07 1339.19 1939.96 1336.64 Q1941.89 1334.1 1941.89 1329.49 M1946.15 1339.54 Q1946.15 1346.16 1943.21 1349.38 Q1940.27 1352.62 1934.2 1352.62 Q1931.96 1352.62 1929.96 1352.27 Q1927.97 1351.95 1926.1 1351.25 L1926.1 1347.11 Q1927.97 1348.13 1929.8 1348.61 Q1931.63 1349.1 1933.53 1349.1 Q1937.72 1349.1 1939.8 1346.9 Q1941.89 1344.72 1941.89 1340.3 L1941.89 1338.2 Q1940.57 1340.49 1938.51 1341.62 Q1936.45 1342.76 1933.58 1342.76 Q1928.81 1342.76 1925.89 1339.12 Q1922.97 1335.49 1922.97 1329.49 Q1922.97 1323.47 1925.89 1319.84 Q1928.81 1316.2 1933.58 1316.2 Q1936.45 1316.2 1938.51 1317.34 Q1940.57 1318.47 1941.89 1320.76 L1941.89 1316.83 L1946.15 1316.83 L1946.15 1339.54 Z" fill="#000000" fill-rule="nonzero" fill-opacity="1" /><path clip-path="url(#clip730)" d="M1977.09 1328.73 L1977.09 1330.81 L1957.51 1330.81 Q1957.79 1335.21 1960.15 1337.52 Q1962.53 1339.82 1966.77 1339.82 Q1969.22 1339.82 1971.52 1339.21 Q1973.83 1338.61 1976.1 1337.41 L1976.1 1341.44 Q1973.81 1342.41 1971.4 1342.92 Q1968.99 1343.43 1966.52 1343.43 Q1960.31 1343.43 1956.68 1339.82 Q1953.07 1336.2 1953.07 1330.05 Q1953.07 1323.68 1956.49 1319.95 Q1959.94 1316.2 1965.77 1316.2 Q1971.01 1316.2 1974.04 1319.58 Q1977.09 1322.94 1977.09 1328.73 M1972.83 1327.48 Q1972.79 1323.98 1970.87 1321.9 Q1968.97 1319.82 1965.82 1319.82 Q1962.26 1319.82 1960.1 1321.83 Q1957.97 1323.84 1957.65 1327.5 L1972.83 1327.48 Z" fill="#000000" fill-rule="nonzero" fill-opacity="1" /><path clip-path="url(#clip730)" d="M2000.61 1317.59 L2000.61 1321.62 Q1998.81 1320.7 1996.86 1320.23 Q1994.92 1319.77 1992.83 1319.77 Q1989.66 1319.77 1988.07 1320.74 Q1986.49 1321.71 1986.49 1323.66 Q1986.49 1325.14 1987.63 1326 Q1988.76 1326.83 1992.19 1327.59 L1993.65 1327.92 Q1998.18 1328.89 2000.08 1330.67 Q2002 1332.43 2002 1335.6 Q2002 1339.21 1999.13 1341.32 Q1996.28 1343.43 1991.28 1343.43 Q1989.2 1343.43 1986.93 1343.01 Q1984.69 1342.62 1982.19 1341.81 L1982.19 1337.41 Q1984.55 1338.63 1986.84 1339.26 Q1989.13 1339.86 1991.38 1339.86 Q1994.39 1339.86 1996.01 1338.84 Q1997.63 1337.8 1997.63 1335.93 Q1997.63 1334.19 1996.45 1333.26 Q1995.29 1332.34 1991.33 1331.48 L1989.85 1331.14 Q1985.89 1330.3 1984.13 1328.59 Q1982.37 1326.85 1982.37 1323.84 Q1982.37 1320.19 1984.96 1318.2 Q1987.56 1316.2 1992.33 1316.2 Q1994.69 1316.2 1996.77 1316.55 Q1998.85 1316.9 2000.61 1317.59 Z" fill="#000000" fill-rule="nonzero" fill-opacity="1" /></svg>
