<?xml version="1.0" encoding="utf-8"?>
<svg xmlns="http://www.w3.org/2000/svg" xmlns:xlink="http://www.w3.org/1999/xlink" width="600" height="400" viewBox="0 0 2400 1600">
<defs>
  <clipPath id="clip450">
    <rect x="0" y="0" width="2400" height="1600"/>
  </clipPath>
</defs>
<path clip-path="url(#clip450)" d="M0 1600 L2400 1600 L2400 0 L0 0  Z" fill="#ffffff" fill-rule="evenodd" fill-opacity="1"/>
<defs>
  <clipPath id="clip451">
    <rect x="480" y="0" width="1681" height="1600"/>
  </clipPath>
</defs>
<path clip-path="url(#clip450)" d="M205.121 1423.18 L2352.76 1423.18 L2352.76 47.2441 L205.121 47.2441  Z" fill="#ffffff" fill-rule="evenodd" fill-opacity="1"/>
<defs>
  <clipPath id="clip452">
    <rect x="205" y="47" width="2149" height="1377"/>
  </clipPath>
</defs>
<polyline clip-path="url(#clip452)" style="stroke:#000000; stroke-linecap:round; stroke-linejoin:round; stroke-width:2; stroke-opacity:0.1; fill:none" points="265.903,1423.18 265.903,47.2441 "/>
<polyline clip-path="url(#clip452)" style="stroke:#000000; stroke-linecap:round; stroke-linejoin:round; stroke-width:2; stroke-opacity:0.1; fill:none" points="772.421,1423.18 772.421,47.2441 "/>
<polyline clip-path="url(#clip452)" style="stroke:#000000; stroke-linecap:round; stroke-linejoin:round; stroke-width:2; stroke-opacity:0.1; fill:none" points="1278.94,1423.18 1278.94,47.2441 "/>
<polyline clip-path="url(#clip452)" style="stroke:#000000; stroke-linecap:round; stroke-linejoin:round; stroke-width:2; stroke-opacity:0.1; fill:none" points="1785.46,1423.18 1785.46,47.2441 "/>
<polyline clip-path="url(#clip452)" style="stroke:#000000; stroke-linecap:round; stroke-linejoin:round; stroke-width:2; stroke-opacity:0.1; fill:none" points="2291.97,1423.18 2291.97,47.2441 "/>
<polyline clip-path="url(#clip452)" style="stroke:#000000; stroke-linecap:round; stroke-linejoin:round; stroke-width:2; stroke-opacity:0.1; fill:none" points="205.121,1267.41 2352.76,1267.41 "/>
<polyline clip-path="url(#clip452)" style="stroke:#000000; stroke-linecap:round; stroke-linejoin:round; stroke-width:2; stroke-opacity:0.1; fill:none" points="205.121,1007.8 2352.76,1007.8 "/>
<polyline clip-path="url(#clip452)" style="stroke:#000000; stroke-linecap:round; stroke-linejoin:round; stroke-width:2; stroke-opacity:0.1; fill:none" points="205.121,748.192 2352.76,748.192 "/>
<polyline clip-path="url(#clip452)" style="stroke:#000000; stroke-linecap:round; stroke-linejoin:round; stroke-width:2; stroke-opacity:0.1; fill:none" points="205.121,488.582 2352.76,488.582 "/>
<polyline clip-path="url(#clip452)" style="stroke:#000000; stroke-linecap:round; stroke-linejoin:round; stroke-width:2; stroke-opacity:0.1; fill:none" points="205.121,228.971 2352.76,228.971 "/>
<polyline clip-path="url(#clip450)" style="stroke:#000000; stroke-linecap:round; stroke-linejoin:round; stroke-width:4; stroke-opacity:1; fill:none" points="205.121,1423.18 2352.76,1423.18 "/>
<polyline clip-path="url(#clip450)" style="stroke:#000000; stroke-linecap:round; stroke-linejoin:round; stroke-width:4; stroke-opacity:1; fill:none" points="265.903,1423.18 265.903,1404.28 "/>
<polyline clip-path="url(#clip450)" style="stroke:#000000; stroke-linecap:round; stroke-linejoin:round; stroke-width:4; stroke-opacity:1; fill:none" points="772.421,1423.18 772.421,1404.28 "/>
<polyline clip-path="url(#clip450)" style="stroke:#000000; stroke-linecap:round; stroke-linejoin:round; stroke-width:4; stroke-opacity:1; fill:none" points="1278.94,1423.18 1278.94,1404.28 "/>
<polyline clip-path="url(#clip450)" style="stroke:#000000; stroke-linecap:round; stroke-linejoin:round; stroke-width:4; stroke-opacity:1; fill:none" points="1785.46,1423.18 1785.46,1404.28 "/>
<polyline clip-path="url(#clip450)" style="stroke:#000000; stroke-linecap:round; stroke-linejoin:round; stroke-width:4; stroke-opacity:1; fill:none" points="2291.97,1423.18 2291.97,1404.28 "/>
<path clip-path="url(#clip450)" d="M243.287 1454.1 Q239.676 1454.1 237.848 1457.66 Q236.042 1461.2 236.042 1468.33 Q236.042 1475.44 237.848 1479.01 Q239.676 1482.55 243.287 1482.55 Q246.922 1482.55 248.727 1479.01 Q250.556 1475.44 250.556 1468.33 Q250.556 1461.2 248.727 1457.66 Q246.922 1454.1 243.287 1454.1 M243.287 1450.39 Q249.098 1450.39 252.153 1455 Q255.232 1459.58 255.232 1468.33 Q255.232 1477.06 252.153 1481.67 Q249.098 1486.25 243.287 1486.25 Q237.477 1486.25 234.399 1481.67 Q231.343 1477.06 231.343 1468.33 Q231.343 1459.58 234.399 1455 Q237.477 1450.39 243.287 1450.39 Z" fill="#000000" fill-rule="nonzero" fill-opacity="1" /><path clip-path="url(#clip450)" d="M263.449 1479.7 L268.334 1479.7 L268.334 1485.58 L263.449 1485.58 L263.449 1479.7 Z" fill="#000000" fill-rule="nonzero" fill-opacity="1" /><path clip-path="url(#clip450)" d="M288.519 1454.1 Q284.908 1454.1 283.079 1457.66 Q281.273 1461.2 281.273 1468.33 Q281.273 1475.44 283.079 1479.01 Q284.908 1482.55 288.519 1482.55 Q292.153 1482.55 293.959 1479.01 Q295.787 1475.44 295.787 1468.33 Q295.787 1461.2 293.959 1457.66 Q292.153 1454.1 288.519 1454.1 M288.519 1450.39 Q294.329 1450.39 297.384 1455 Q300.463 1459.58 300.463 1468.33 Q300.463 1477.06 297.384 1481.67 Q294.329 1486.25 288.519 1486.25 Q282.709 1486.25 279.63 1481.67 Q276.574 1477.06 276.574 1468.33 Q276.574 1459.58 279.63 1455 Q282.709 1450.39 288.519 1450.39 Z" fill="#000000" fill-rule="nonzero" fill-opacity="1" /><path clip-path="url(#clip450)" d="M744.157 1481.64 L760.476 1481.64 L760.476 1485.58 L738.532 1485.58 L738.532 1481.64 Q741.194 1478.89 745.777 1474.26 Q750.384 1469.61 751.564 1468.27 Q753.81 1465.74 754.689 1464.01 Q755.592 1462.25 755.592 1460.56 Q755.592 1457.8 753.648 1456.07 Q751.726 1454.33 748.625 1454.33 Q746.426 1454.33 743.972 1455.09 Q741.541 1455.86 738.764 1457.41 L738.764 1452.69 Q741.588 1451.55 744.041 1450.97 Q746.495 1450.39 748.532 1450.39 Q753.902 1450.39 757.097 1453.08 Q760.291 1455.77 760.291 1460.26 Q760.291 1462.39 759.481 1464.31 Q758.694 1466.2 756.588 1468.8 Q756.009 1469.47 752.907 1472.69 Q749.805 1475.88 744.157 1481.64 Z" fill="#000000" fill-rule="nonzero" fill-opacity="1" /><path clip-path="url(#clip450)" d="M770.291 1479.7 L775.175 1479.7 L775.175 1485.58 L770.291 1485.58 L770.291 1479.7 Z" fill="#000000" fill-rule="nonzero" fill-opacity="1" /><path clip-path="url(#clip450)" d="M785.407 1451.02 L803.763 1451.02 L803.763 1454.96 L789.689 1454.96 L789.689 1463.43 Q790.708 1463.08 791.726 1462.92 Q792.745 1462.73 793.763 1462.73 Q799.55 1462.73 802.93 1465.9 Q806.309 1469.08 806.309 1474.49 Q806.309 1480.07 802.837 1483.17 Q799.365 1486.25 793.046 1486.25 Q790.87 1486.25 788.601 1485.88 Q786.356 1485.51 783.948 1484.77 L783.948 1480.07 Q786.032 1481.2 788.254 1481.76 Q790.476 1482.32 792.953 1482.32 Q796.958 1482.32 799.296 1480.21 Q801.634 1478.1 801.634 1474.49 Q801.634 1470.88 799.296 1468.77 Q796.958 1466.67 792.953 1466.67 Q791.078 1466.67 789.203 1467.08 Q787.351 1467.5 785.407 1468.38 L785.407 1451.02 Z" fill="#000000" fill-rule="nonzero" fill-opacity="1" /><path clip-path="url(#clip450)" d="M1246.1 1451.02 L1264.46 1451.02 L1264.46 1454.96 L1250.39 1454.96 L1250.39 1463.43 Q1251.4 1463.08 1252.42 1462.92 Q1253.44 1462.73 1254.46 1462.73 Q1260.25 1462.73 1263.63 1465.9 Q1267.01 1469.08 1267.01 1474.49 Q1267.01 1480.07 1263.53 1483.17 Q1260.06 1486.25 1253.74 1486.25 Q1251.57 1486.25 1249.3 1485.88 Q1247.05 1485.51 1244.64 1484.77 L1244.64 1480.07 Q1246.73 1481.2 1248.95 1481.76 Q1251.17 1482.32 1253.65 1482.32 Q1257.65 1482.32 1259.99 1480.21 Q1262.33 1478.1 1262.33 1474.49 Q1262.33 1470.88 1259.99 1468.77 Q1257.65 1466.67 1253.65 1466.67 Q1251.77 1466.67 1249.9 1467.08 Q1248.05 1467.5 1246.1 1468.38 L1246.1 1451.02 Z" fill="#000000" fill-rule="nonzero" fill-opacity="1" /><path clip-path="url(#clip450)" d="M1276.22 1479.7 L1281.1 1479.7 L1281.1 1485.58 L1276.22 1485.58 L1276.22 1479.7 Z" fill="#000000" fill-rule="nonzero" fill-opacity="1" /><path clip-path="url(#clip450)" d="M1301.29 1454.1 Q1297.68 1454.1 1295.85 1457.66 Q1294.04 1461.2 1294.04 1468.33 Q1294.04 1475.44 1295.85 1479.01 Q1297.68 1482.55 1301.29 1482.55 Q1304.92 1482.55 1306.73 1479.01 Q1308.56 1475.44 1308.56 1468.33 Q1308.56 1461.2 1306.73 1457.66 Q1304.92 1454.1 1301.29 1454.1 M1301.29 1450.39 Q1307.1 1450.39 1310.15 1455 Q1313.23 1459.58 1313.23 1468.33 Q1313.23 1477.06 1310.15 1481.67 Q1307.1 1486.25 1301.29 1486.25 Q1295.48 1486.25 1292.4 1481.67 Q1289.34 1477.06 1289.34 1468.33 Q1289.34 1459.58 1292.4 1455 Q1295.48 1450.39 1301.29 1450.39 Z" fill="#000000" fill-rule="nonzero" fill-opacity="1" /><path clip-path="url(#clip450)" d="M1751.78 1451.02 L1774 1451.02 L1774 1453.01 L1761.45 1485.58 L1756.57 1485.58 L1768.37 1454.96 L1751.78 1454.96 L1751.78 1451.02 Z" fill="#000000" fill-rule="nonzero" fill-opacity="1" /><path clip-path="url(#clip450)" d="M1783.12 1479.7 L1788 1479.7 L1788 1485.58 L1783.12 1485.58 L1783.12 1479.7 Z" fill="#000000" fill-rule="nonzero" fill-opacity="1" /><path clip-path="url(#clip450)" d="M1798.23 1451.02 L1816.59 1451.02 L1816.59 1454.96 L1802.52 1454.96 L1802.52 1463.43 Q1803.53 1463.08 1804.55 1462.92 Q1805.57 1462.73 1806.59 1462.73 Q1812.38 1462.73 1815.76 1465.9 Q1819.14 1469.08 1819.14 1474.49 Q1819.14 1480.07 1815.66 1483.17 Q1812.19 1486.25 1805.87 1486.25 Q1803.7 1486.25 1801.43 1485.88 Q1799.18 1485.51 1796.78 1484.77 L1796.78 1480.07 Q1798.86 1481.2 1801.08 1481.76 Q1803.3 1482.32 1805.78 1482.32 Q1809.78 1482.32 1812.12 1480.21 Q1814.46 1478.1 1814.46 1474.49 Q1814.46 1470.88 1812.12 1468.77 Q1809.78 1466.67 1805.78 1466.67 Q1803.91 1466.67 1802.03 1467.08 Q1800.18 1467.5 1798.23 1468.38 L1798.23 1451.02 Z" fill="#000000" fill-rule="nonzero" fill-opacity="1" /><path clip-path="url(#clip450)" d="M2244.05 1481.64 L2251.68 1481.64 L2251.68 1455.28 L2243.37 1456.95 L2243.37 1452.69 L2251.64 1451.02 L2256.31 1451.02 L2256.31 1481.64 L2263.95 1481.64 L2263.95 1485.58 L2244.05 1485.58 L2244.05 1481.64 Z" fill="#000000" fill-rule="nonzero" fill-opacity="1" /><path clip-path="url(#clip450)" d="M2283.4 1454.1 Q2279.79 1454.1 2277.96 1457.66 Q2276.15 1461.2 2276.15 1468.33 Q2276.15 1475.44 2277.96 1479.01 Q2279.79 1482.55 2283.4 1482.55 Q2287.03 1482.55 2288.84 1479.01 Q2290.67 1475.44 2290.67 1468.33 Q2290.67 1461.2 2288.84 1457.66 Q2287.03 1454.1 2283.4 1454.1 M2283.4 1450.39 Q2289.21 1450.39 2292.26 1455 Q2295.34 1459.58 2295.34 1468.33 Q2295.34 1477.06 2292.26 1481.67 Q2289.21 1486.25 2283.4 1486.25 Q2277.59 1486.25 2274.51 1481.67 Q2271.45 1477.06 2271.45 1468.33 Q2271.45 1459.58 2274.51 1455 Q2277.59 1450.39 2283.4 1450.39 Z" fill="#000000" fill-rule="nonzero" fill-opacity="1" /><path clip-path="url(#clip450)" d="M2303.56 1479.7 L2308.44 1479.7 L2308.44 1485.58 L2303.56 1485.58 L2303.56 1479.7 Z" fill="#000000" fill-rule="nonzero" fill-opacity="1" /><path clip-path="url(#clip450)" d="M2328.63 1454.1 Q2325.02 1454.1 2323.19 1457.66 Q2321.38 1461.2 2321.38 1468.33 Q2321.38 1475.44 2323.19 1479.01 Q2325.02 1482.55 2328.63 1482.55 Q2332.26 1482.55 2334.07 1479.01 Q2335.9 1475.44 2335.9 1468.33 Q2335.9 1461.2 2334.07 1457.66 Q2332.26 1454.1 2328.63 1454.1 M2328.63 1450.39 Q2334.44 1450.39 2337.49 1455 Q2340.57 1459.58 2340.57 1468.33 Q2340.57 1477.06 2337.49 1481.67 Q2334.44 1486.25 2328.63 1486.25 Q2322.82 1486.25 2319.74 1481.67 Q2316.68 1477.06 2316.68 1468.33 Q2316.68 1459.58 2319.74 1455 Q2322.82 1450.39 2328.63 1450.39 Z" fill="#000000" fill-rule="nonzero" fill-opacity="1" /><path clip-path="url(#clip450)" d="M1179.71 1532.4 L1166.82 1549.74 L1180.38 1568.04 L1173.47 1568.04 L1163.1 1554.04 L1152.72 1568.04 L1145.82 1568.04 L1159.66 1549.39 L1146.99 1532.4 L1153.9 1532.4 L1163.35 1545.1 L1172.81 1532.4 L1179.71 1532.4 Z" fill="#000000" fill-rule="nonzero" fill-opacity="1" /><path clip-path="url(#clip450)" d="M1205.18 1532.4 L1211.38 1532.4 L1222.52 1562.31 L1233.66 1532.4 L1239.87 1532.4 L1226.5 1568.04 L1218.54 1568.04 L1205.18 1532.4 Z" fill="#000000" fill-rule="nonzero" fill-opacity="1" /><path clip-path="url(#clip450)" d="M1264.15 1550.12 Q1257.06 1550.12 1254.32 1551.75 Q1251.58 1553.37 1251.58 1557.29 Q1251.58 1560.4 1253.62 1562.25 Q1255.69 1564.07 1259.22 1564.07 Q1264.09 1564.07 1267.02 1560.63 Q1269.98 1557.16 1269.98 1551.43 L1269.98 1550.12 L1264.15 1550.12 M1275.84 1547.71 L1275.84 1568.04 L1269.98 1568.04 L1269.98 1562.63 Q1267.97 1565.88 1264.98 1567.44 Q1261.99 1568.97 1257.66 1568.97 Q1252.19 1568.97 1248.94 1565.91 Q1245.73 1562.82 1245.73 1557.67 Q1245.73 1551.65 1249.74 1548.6 Q1253.78 1545.54 1261.77 1545.54 L1269.98 1545.54 L1269.98 1544.97 Q1269.98 1540.93 1267.31 1538.73 Q1264.66 1536.5 1259.86 1536.5 Q1256.8 1536.5 1253.91 1537.23 Q1251.01 1537.97 1248.34 1539.43 L1248.34 1534.02 Q1251.55 1532.78 1254.57 1532.17 Q1257.6 1531.54 1260.46 1531.54 Q1268.2 1531.54 1272.02 1535.55 Q1275.84 1539.56 1275.84 1547.71 Z" fill="#000000" fill-rule="nonzero" fill-opacity="1" /><path clip-path="url(#clip450)" d="M1287.9 1518.52 L1293.75 1518.52 L1293.75 1568.04 L1287.9 1568.04 L1287.9 1518.52 Z" fill="#000000" fill-rule="nonzero" fill-opacity="1" /><path clip-path="url(#clip450)" d="M1305.4 1553.98 L1305.4 1532.4 L1311.26 1532.4 L1311.26 1553.75 Q1311.26 1558.81 1313.23 1561.36 Q1315.21 1563.87 1319.15 1563.87 Q1323.9 1563.87 1326.63 1560.85 Q1329.4 1557.83 1329.4 1552.61 L1329.4 1532.4 L1335.26 1532.4 L1335.26 1568.04 L1329.4 1568.04 L1329.4 1562.57 Q1327.27 1565.82 1324.44 1567.41 Q1321.64 1568.97 1317.91 1568.97 Q1311.77 1568.97 1308.59 1565.15 Q1305.4 1561.33 1305.4 1553.98 M1320.14 1531.54 L1320.14 1531.54 Z" fill="#000000" fill-rule="nonzero" fill-opacity="1" /><path clip-path="url(#clip450)" d="M1377.81 1548.76 L1377.81 1551.62 L1350.89 1551.62 Q1351.27 1557.67 1354.52 1560.85 Q1357.79 1564 1363.62 1564 Q1366.99 1564 1370.14 1563.17 Q1373.33 1562.35 1376.45 1560.69 L1376.45 1566.23 Q1373.29 1567.57 1369.98 1568.27 Q1366.67 1568.97 1363.27 1568.97 Q1354.74 1568.97 1349.74 1564 Q1344.78 1559.04 1344.78 1550.57 Q1344.78 1541.82 1349.49 1536.69 Q1354.23 1531.54 1362.25 1531.54 Q1369.44 1531.54 1373.61 1536.18 Q1377.81 1540.8 1377.81 1548.76 M1371.96 1547.04 Q1371.89 1542.23 1369.25 1539.37 Q1366.64 1536.5 1362.31 1536.5 Q1357.41 1536.5 1354.45 1539.27 Q1351.52 1542.04 1351.08 1547.07 L1371.96 1547.04 Z" fill="#000000" fill-rule="nonzero" fill-opacity="1" /><path clip-path="url(#clip450)" d="M1410.15 1533.45 L1410.15 1538.98 Q1407.67 1537.71 1405 1537.07 Q1402.32 1536.44 1399.46 1536.44 Q1395.1 1536.44 1392.9 1537.77 Q1390.74 1539.11 1390.74 1541.79 Q1390.74 1543.82 1392.3 1545 Q1393.86 1546.15 1398.57 1547.2 L1400.57 1547.64 Q1406.81 1548.98 1409.42 1551.43 Q1412.06 1553.85 1412.06 1558.21 Q1412.06 1563.17 1408.11 1566.07 Q1404.2 1568.97 1397.32 1568.97 Q1394.46 1568.97 1391.34 1568.39 Q1388.25 1567.85 1384.82 1566.74 L1384.82 1560.69 Q1388.06 1562.38 1391.21 1563.24 Q1394.36 1564.07 1397.45 1564.07 Q1401.59 1564.07 1403.82 1562.66 Q1406.05 1561.23 1406.05 1558.65 Q1406.05 1556.27 1404.42 1554.99 Q1402.83 1553.72 1397.39 1552.54 L1395.35 1552.07 Q1389.91 1550.92 1387.49 1548.56 Q1385.07 1546.18 1385.07 1542.04 Q1385.07 1537.01 1388.64 1534.27 Q1392.2 1531.54 1398.76 1531.54 Q1402 1531.54 1404.87 1532.01 Q1407.73 1532.49 1410.15 1533.45 Z" fill="#000000" fill-rule="nonzero" fill-opacity="1" /><polyline clip-path="url(#clip450)" style="stroke:#000000; stroke-linecap:round; stroke-linejoin:round; stroke-width:4; stroke-opacity:1; fill:none" points="205.121,1423.18 205.121,47.2441 "/>
<polyline clip-path="url(#clip450)" style="stroke:#000000; stroke-linecap:round; stroke-linejoin:round; stroke-width:4; stroke-opacity:1; fill:none" points="205.121,1267.41 224.019,1267.41 "/>
<polyline clip-path="url(#clip450)" style="stroke:#000000; stroke-linecap:round; stroke-linejoin:round; stroke-width:4; stroke-opacity:1; fill:none" points="205.121,1007.8 224.019,1007.8 "/>
<polyline clip-path="url(#clip450)" style="stroke:#000000; stroke-linecap:round; stroke-linejoin:round; stroke-width:4; stroke-opacity:1; fill:none" points="205.121,748.192 224.019,748.192 "/>
<polyline clip-path="url(#clip450)" style="stroke:#000000; stroke-linecap:round; stroke-linejoin:round; stroke-width:4; stroke-opacity:1; fill:none" points="205.121,488.582 224.019,488.582 "/>
<polyline clip-path="url(#clip450)" style="stroke:#000000; stroke-linecap:round; stroke-linejoin:round; stroke-width:4; stroke-opacity:1; fill:none" points="205.121,228.971 224.019,228.971 "/>
<path clip-path="url(#clip450)" d="M157.177 1253.21 Q153.566 1253.21 151.737 1256.78 Q149.931 1260.32 149.931 1267.45 Q149.931 1274.55 151.737 1278.12 Q153.566 1281.66 157.177 1281.66 Q160.811 1281.66 162.616 1278.12 Q164.445 1274.55 164.445 1267.45 Q164.445 1260.32 162.616 1256.78 Q160.811 1253.21 157.177 1253.21 M157.177 1249.51 Q162.987 1249.51 166.042 1254.11 Q169.121 1258.7 169.121 1267.45 Q169.121 1276.18 166.042 1280.78 Q162.987 1285.36 157.177 1285.36 Q151.366 1285.36 148.288 1280.78 Q145.232 1276.18 145.232 1267.45 Q145.232 1258.7 148.288 1254.11 Q151.366 1249.51 157.177 1249.51 Z" fill="#000000" fill-rule="nonzero" fill-opacity="1" /><path clip-path="url(#clip450)" d="M121.043 1021.15 L137.362 1021.15 L137.362 1025.08 L115.418 1025.08 L115.418 1021.15 Q118.08 1018.39 122.663 1013.76 Q127.269 1009.11 128.45 1007.77 Q130.695 1005.25 131.575 1003.51 Q132.478 1001.75 132.478 1000.06 Q132.478 997.305 130.533 995.569 Q128.612 993.833 125.51 993.833 Q123.311 993.833 120.857 994.597 Q118.427 995.361 115.649 996.912 L115.649 992.19 Q118.473 991.055 120.927 990.477 Q123.38 989.898 125.418 989.898 Q130.788 989.898 133.982 992.583 Q137.177 995.268 137.177 999.759 Q137.177 1001.89 136.367 1003.81 Q135.579 1005.71 133.473 1008.3 Q132.894 1008.97 129.792 1012.19 Q126.691 1015.38 121.043 1021.15 Z" fill="#000000" fill-rule="nonzero" fill-opacity="1" /><path clip-path="url(#clip450)" d="M157.177 993.602 Q153.566 993.602 151.737 997.166 Q149.931 1000.71 149.931 1007.84 Q149.931 1014.94 151.737 1018.51 Q153.566 1022.05 157.177 1022.05 Q160.811 1022.05 162.616 1018.51 Q164.445 1014.94 164.445 1007.84 Q164.445 1000.71 162.616 997.166 Q160.811 993.602 157.177 993.602 M157.177 989.898 Q162.987 989.898 166.042 994.504 Q169.121 999.088 169.121 1007.84 Q169.121 1016.56 166.042 1021.17 Q162.987 1025.75 157.177 1025.75 Q151.366 1025.75 148.288 1021.17 Q145.232 1016.56 145.232 1007.84 Q145.232 999.088 148.288 994.504 Q151.366 989.898 157.177 989.898 Z" fill="#000000" fill-rule="nonzero" fill-opacity="1" /><path clip-path="url(#clip450)" d="M129.862 734.987 L118.056 753.436 L129.862 753.436 L129.862 734.987 M128.635 730.912 L134.515 730.912 L134.515 753.436 L139.445 753.436 L139.445 757.324 L134.515 757.324 L134.515 765.472 L129.862 765.472 L129.862 757.324 L114.26 757.324 L114.26 752.811 L128.635 730.912 Z" fill="#000000" fill-rule="nonzero" fill-opacity="1" /><path clip-path="url(#clip450)" d="M157.177 733.991 Q153.566 733.991 151.737 737.556 Q149.931 741.098 149.931 748.227 Q149.931 755.334 151.737 758.898 Q153.566 762.44 157.177 762.44 Q160.811 762.44 162.616 758.898 Q164.445 755.334 164.445 748.227 Q164.445 741.098 162.616 737.556 Q160.811 733.991 157.177 733.991 M157.177 730.287 Q162.987 730.287 166.042 734.894 Q169.121 739.477 169.121 748.227 Q169.121 756.954 166.042 761.56 Q162.987 766.144 157.177 766.144 Q151.366 766.144 148.288 761.56 Q145.232 756.954 145.232 748.227 Q145.232 739.477 148.288 734.894 Q151.366 730.287 157.177 730.287 Z" fill="#000000" fill-rule="nonzero" fill-opacity="1" /><path clip-path="url(#clip450)" d="M127.593 486.719 Q124.445 486.719 122.593 488.871 Q120.765 491.024 120.765 494.774 Q120.765 498.501 122.593 500.677 Q124.445 502.83 127.593 502.83 Q130.742 502.83 132.57 500.677 Q134.422 498.501 134.422 494.774 Q134.422 491.024 132.57 488.871 Q130.742 486.719 127.593 486.719 M136.876 472.066 L136.876 476.325 Q135.117 475.492 133.311 475.052 Q131.529 474.612 129.769 474.612 Q125.14 474.612 122.686 477.737 Q120.255 480.862 119.908 487.182 Q121.274 485.168 123.334 484.103 Q125.394 483.015 127.871 483.015 Q133.08 483.015 136.089 486.186 Q139.121 489.334 139.121 494.774 Q139.121 500.098 135.973 503.316 Q132.825 506.533 127.593 506.533 Q121.598 506.533 118.427 501.95 Q115.256 497.344 115.256 488.617 Q115.256 480.422 119.144 475.561 Q123.033 470.677 129.584 470.677 Q131.343 470.677 133.126 471.024 Q134.931 471.371 136.876 472.066 Z" fill="#000000" fill-rule="nonzero" fill-opacity="1" /><path clip-path="url(#clip450)" d="M157.177 474.381 Q153.566 474.381 151.737 477.945 Q149.931 481.487 149.931 488.617 Q149.931 495.723 151.737 499.288 Q153.566 502.83 157.177 502.83 Q160.811 502.83 162.616 499.288 Q164.445 495.723 164.445 488.617 Q164.445 481.487 162.616 477.945 Q160.811 474.381 157.177 474.381 M157.177 470.677 Q162.987 470.677 166.042 475.283 Q169.121 479.867 169.121 488.617 Q169.121 497.344 166.042 501.95 Q162.987 506.533 157.177 506.533 Q151.366 506.533 148.288 501.95 Q145.232 497.344 145.232 488.617 Q145.232 479.867 148.288 475.283 Q151.366 470.677 157.177 470.677 Z" fill="#000000" fill-rule="nonzero" fill-opacity="1" /><path clip-path="url(#clip450)" d="M127.015 229.84 Q123.681 229.84 121.76 231.622 Q119.862 233.404 119.862 236.529 Q119.862 239.654 121.76 241.437 Q123.681 243.219 127.015 243.219 Q130.348 243.219 132.269 241.437 Q134.191 239.631 134.191 236.529 Q134.191 233.404 132.269 231.622 Q130.371 229.84 127.015 229.84 M122.339 227.849 Q119.33 227.108 117.64 225.048 Q115.973 222.988 115.973 220.025 Q115.973 215.881 118.913 213.474 Q121.876 211.066 127.015 211.066 Q132.177 211.066 135.117 213.474 Q138.056 215.881 138.056 220.025 Q138.056 222.988 136.367 225.048 Q134.7 227.108 131.714 227.849 Q135.093 228.636 136.968 230.927 Q138.867 233.219 138.867 236.529 Q138.867 241.552 135.788 244.238 Q132.732 246.923 127.015 246.923 Q121.297 246.923 118.218 244.238 Q115.163 241.552 115.163 236.529 Q115.163 233.219 117.061 230.927 Q118.959 228.636 122.339 227.849 M120.626 220.465 Q120.626 223.15 122.293 224.654 Q123.982 226.159 127.015 226.159 Q130.024 226.159 131.714 224.654 Q133.427 223.15 133.427 220.465 Q133.427 217.779 131.714 216.275 Q130.024 214.77 127.015 214.77 Q123.982 214.77 122.293 216.275 Q120.626 217.779 120.626 220.465 Z" fill="#000000" fill-rule="nonzero" fill-opacity="1" /><path clip-path="url(#clip450)" d="M157.177 214.77 Q153.566 214.77 151.737 218.335 Q149.931 221.877 149.931 229.006 Q149.931 236.113 151.737 239.677 Q153.566 243.219 157.177 243.219 Q160.811 243.219 162.616 239.677 Q164.445 236.113 164.445 229.006 Q164.445 221.877 162.616 218.335 Q160.811 214.77 157.177 214.77 M157.177 211.066 Q162.987 211.066 166.042 215.673 Q169.121 220.256 169.121 229.006 Q169.121 237.733 166.042 242.339 Q162.987 246.923 157.177 246.923 Q151.366 246.923 148.288 242.339 Q145.232 237.733 145.232 229.006 Q145.232 220.256 148.288 215.673 Q151.366 211.066 157.177 211.066 Z" fill="#000000" fill-rule="nonzero" fill-opacity="1" /><path clip-path="url(#clip450)" d="M14.479 765.163 L19.3487 765.163 L19.3487 770.764 Q19.3487 773.915 20.6219 775.157 Q21.895 776.366 25.2052 776.366 L28.3562 776.366 L28.3562 766.722 L32.9077 766.722 L32.9077 776.366 L64.0042 776.366 L64.0042 782.255 L32.9077 782.255 L32.9077 787.856 L28.3562 787.856 L28.3562 782.255 L25.8736 782.255 Q19.9216 782.255 17.2162 779.485 Q14.479 776.716 14.479 770.701 L14.479 765.163 Z" fill="#000000" fill-rule="nonzero" fill-opacity="1" /><path clip-path="url(#clip450)" d="M14.5426 746.193 Q21.8632 750.458 29.0246 752.527 Q36.186 754.596 43.5384 754.596 Q50.8908 754.596 58.1159 752.527 Q65.3091 750.426 72.5979 746.193 L72.5979 751.285 Q65.1182 756.06 57.8931 758.447 Q50.668 760.802 43.5384 760.802 Q36.4406 760.802 29.2474 758.447 Q22.0542 756.091 14.5426 751.285 L14.5426 746.193 Z" fill="#000000" fill-rule="nonzero" fill-opacity="1" /><path clip-path="url(#clip450)" d="M28.3562 705.198 L45.7028 718.088 L64.0042 704.529 L64.0042 711.436 L49.9996 721.812 L64.0042 732.188 L64.0042 739.095 L45.3526 725.25 L28.3562 737.917 L28.3562 731.011 L41.0558 721.558 L28.3562 712.104 L28.3562 705.198 Z" fill="#000000" fill-rule="nonzero" fill-opacity="1" /><path clip-path="url(#clip450)" d="M14.5426 697.177 L14.5426 692.084 Q22.0542 687.31 29.2474 684.955 Q36.4406 682.568 43.5384 682.568 Q50.668 682.568 57.8931 684.955 Q65.1182 687.31 72.5979 692.084 L72.5979 697.177 Q65.3091 692.944 58.1159 690.875 Q50.8908 688.774 43.5384 688.774 Q36.186 688.774 29.0246 690.875 Q21.8632 692.944 14.5426 697.177 Z" fill="#000000" fill-rule="nonzero" fill-opacity="1" /><polyline clip-path="url(#clip452)" style="stroke:#009af9; stroke-linecap:round; stroke-linejoin:round; stroke-width:4; stroke-opacity:1; fill:none" points="265.903,1384.24 286.164,1384.11 306.425,1383.72 326.685,1383.07 346.946,1382.16 367.207,1380.99 387.467,1379.57 407.728,1377.88 427.989,1375.93 448.249,1373.72 468.51,1371.26 488.771,1368.53 509.032,1365.55 529.292,1362.3 549.553,1358.8 569.814,1355.03 590.074,1351.01 610.335,1346.72 630.596,1342.18 650.857,1337.38 671.117,1332.32 691.378,1326.99 711.639,1321.41 731.899,1315.57 752.16,1309.47 772.421,1303.11 792.681,1296.49 812.942,1289.61 833.203,1282.47 853.464,1275.07 873.724,1267.41 893.985,1259.5 914.246,1251.32 934.506,1242.88 954.767,1234.18 975.028,1225.23 995.289,1216.01 1015.55,1206.53 1035.81,1196.8 1056.07,1186.8 1076.33,1176.55 1096.59,1166.04 1116.85,1155.26 1137.11,1144.23 1157.37,1132.94 1177.63,1121.38 1197.9,1109.57 1218.16,1097.5 1238.42,1085.17 1258.68,1072.58 1278.94,1059.73 1299.2,1046.61 1319.46,1033.24 1339.72,1019.62 1359.98,1005.73 1380.24,991.577 1400.5,977.169 1420.76,962.501 1441.02,947.573 1461.28,932.386 1481.55,916.939 1501.81,901.233 1522.07,885.267 1542.33,869.041 1562.59,852.556 1582.85,835.811 1603.11,818.807 1623.37,801.542 1643.63,784.019 1663.89,766.235 1684.15,748.192 1704.41,729.89 1724.67,711.328 1744.93,692.506 1765.2,673.425 1785.46,654.084 1805.72,634.483 1825.98,614.623 1846.24,594.503 1866.5,574.124 1886.76,553.485 1907.02,532.586 1927.28,511.428 1947.54,490.01 1967.8,468.332 1988.06,446.395 2008.32,424.199 2028.58,401.742 2048.85,379.026 2069.11,356.051 2089.37,332.816 2109.63,309.321 2129.89,285.567 2150.15,261.553 2170.41,237.279 2190.67,212.746 2210.93,187.953 2231.19,162.901 2251.45,137.589 2271.71,112.017 2291.97,86.1857 "/>
<polyline clip-path="url(#clip452)" style="stroke:#e26f46; stroke-linecap:round; stroke-linejoin:round; stroke-width:4; stroke-opacity:1; fill:none" points="265.903,1267.41 2291.97,1267.41 "/>
<path clip-path="url(#clip450)" d="M276.709 248.629 L897.188 248.629 L897.188 93.1086 L276.709 93.1086  Z" fill="#ffffff" fill-rule="evenodd" fill-opacity="1"/>
<polyline clip-path="url(#clip450)" style="stroke:#000000; stroke-linecap:round; stroke-linejoin:round; stroke-width:4; stroke-opacity:1; fill:none" points="276.709,248.629 897.188,248.629 897.188,93.1086 276.709,93.1086 276.709,248.629 "/>
<polyline clip-path="url(#clip450)" style="stroke:#009af9; stroke-linecap:round; stroke-linejoin:round; stroke-width:4; stroke-opacity:1; fill:none" points="300.571,144.949 443.747,144.949 "/>
<path clip-path="url(#clip450)" d="M467.61 127.669 L489.461 127.669 L489.461 131.604 L472.286 131.604 L472.286 141.835 L488.744 141.835 L488.744 145.77 L472.286 145.77 L472.286 158.293 L489.878 158.293 L489.878 162.229 L467.61 162.229 L467.61 127.669 Z" fill="#000000" fill-rule="nonzero" fill-opacity="1" /><path clip-path="url(#clip450)" d="M518.929 136.303 L509.554 148.919 L519.415 162.229 L514.392 162.229 L506.846 152.043 L499.299 162.229 L494.276 162.229 L504.346 148.664 L495.133 136.303 L500.156 136.303 L507.031 145.539 L513.906 136.303 L518.929 136.303 Z" fill="#000000" fill-rule="nonzero" fill-opacity="1" /><path clip-path="url(#clip450)" d="M537.216 149.196 Q532.054 149.196 530.063 150.377 Q528.072 151.557 528.072 154.405 Q528.072 156.673 529.554 158.016 Q531.058 159.335 533.628 159.335 Q537.17 159.335 539.299 156.835 Q541.452 154.312 541.452 150.145 L541.452 149.196 L537.216 149.196 M545.711 147.437 L545.711 162.229 L541.452 162.229 L541.452 158.293 Q539.994 160.655 537.818 161.789 Q535.642 162.9 532.494 162.9 Q528.512 162.9 526.151 160.678 Q523.813 158.432 523.813 154.682 Q523.813 150.307 526.73 148.085 Q529.67 145.863 535.48 145.863 L541.452 145.863 L541.452 145.446 Q541.452 142.507 539.507 140.909 Q537.586 139.289 534.091 139.289 Q531.869 139.289 529.762 139.821 Q527.656 140.354 525.711 141.419 L525.711 137.483 Q528.049 136.581 530.248 136.141 Q532.447 135.678 534.531 135.678 Q540.156 135.678 542.933 138.594 Q545.711 141.511 545.711 147.437 Z" fill="#000000" fill-rule="nonzero" fill-opacity="1" /><path clip-path="url(#clip450)" d="M574.669 141.28 Q576.267 138.409 578.489 137.044 Q580.711 135.678 583.72 135.678 Q587.771 135.678 589.97 138.525 Q592.169 141.349 592.169 146.581 L592.169 162.229 L587.887 162.229 L587.887 146.719 Q587.887 142.993 586.567 141.187 Q585.248 139.382 582.54 139.382 Q579.229 139.382 577.308 141.581 Q575.387 143.78 575.387 147.576 L575.387 162.229 L571.105 162.229 L571.105 146.719 Q571.105 142.969 569.785 141.187 Q568.466 139.382 565.711 139.382 Q562.447 139.382 560.526 141.604 Q558.605 143.803 558.605 147.576 L558.605 162.229 L554.322 162.229 L554.322 136.303 L558.605 136.303 L558.605 140.331 Q560.063 137.946 562.1 136.812 Q564.137 135.678 566.938 135.678 Q569.762 135.678 571.73 137.113 Q573.72 138.548 574.669 141.28 Z" fill="#000000" fill-rule="nonzero" fill-opacity="1" /><path clip-path="url(#clip450)" d="M604.785 158.34 L604.785 172.09 L600.502 172.09 L600.502 136.303 L604.785 136.303 L604.785 140.238 Q606.127 137.923 608.164 136.812 Q610.225 135.678 613.072 135.678 Q617.794 135.678 620.734 139.428 Q623.697 143.178 623.697 149.289 Q623.697 155.4 620.734 159.15 Q617.794 162.9 613.072 162.9 Q610.225 162.9 608.164 161.789 Q606.127 160.655 604.785 158.34 M619.276 149.289 Q619.276 144.59 617.331 141.928 Q615.41 139.243 612.03 139.243 Q608.651 139.243 606.706 141.928 Q604.785 144.59 604.785 149.289 Q604.785 153.988 606.706 156.673 Q608.651 159.335 612.03 159.335 Q615.41 159.335 617.331 156.673 Q619.276 153.988 619.276 149.289 Z" fill="#000000" fill-rule="nonzero" fill-opacity="1" /><path clip-path="url(#clip450)" d="M630.757 126.21 L635.016 126.21 L635.016 162.229 L630.757 162.229 L630.757 126.21 Z" fill="#000000" fill-rule="nonzero" fill-opacity="1" /><path clip-path="url(#clip450)" d="M666.104 148.201 L666.104 150.284 L646.521 150.284 Q646.799 154.682 649.16 156.997 Q651.544 159.289 655.78 159.289 Q658.234 159.289 660.525 158.687 Q662.84 158.085 665.109 156.881 L665.109 160.909 Q662.817 161.881 660.41 162.391 Q658.002 162.9 655.525 162.9 Q649.322 162.9 645.687 159.289 Q642.076 155.678 642.076 149.52 Q642.076 143.155 645.502 139.428 Q648.951 135.678 654.785 135.678 Q660.016 135.678 663.048 139.057 Q666.104 142.414 666.104 148.201 M661.845 146.951 Q661.798 143.456 659.877 141.372 Q657.979 139.289 654.831 139.289 Q651.266 139.289 649.113 141.303 Q646.984 143.317 646.66 146.974 L661.845 146.951 Z" fill="#000000" fill-rule="nonzero" fill-opacity="1" /><path clip-path="url(#clip450)" d="M701.289 126.21 L701.289 129.752 L697.215 129.752 Q694.923 129.752 694.021 130.678 Q693.141 131.604 693.141 134.011 L693.141 136.303 L700.155 136.303 L700.155 139.613 L693.141 139.613 L693.141 162.229 L688.859 162.229 L688.859 139.613 L684.784 139.613 L684.784 136.303 L688.859 136.303 L688.859 134.497 Q688.859 130.169 690.872 128.201 Q692.886 126.21 697.261 126.21 L701.289 126.21 Z" fill="#000000" fill-rule="nonzero" fill-opacity="1" /><path clip-path="url(#clip450)" d="M704.414 151.997 L704.414 136.303 L708.673 136.303 L708.673 151.835 Q708.673 155.516 710.108 157.368 Q711.544 159.196 714.414 159.196 Q717.863 159.196 719.854 156.997 Q721.868 154.798 721.868 151.002 L721.868 136.303 L726.127 136.303 L726.127 162.229 L721.868 162.229 L721.868 158.247 Q720.317 160.608 718.256 161.766 Q716.219 162.9 713.511 162.9 Q709.044 162.9 706.729 160.122 Q704.414 157.344 704.414 151.997 M715.132 135.678 L715.132 135.678 Z" fill="#000000" fill-rule="nonzero" fill-opacity="1" /><path clip-path="url(#clip450)" d="M756.451 146.581 L756.451 162.229 L752.191 162.229 L752.191 146.719 Q752.191 143.039 750.756 141.21 Q749.321 139.382 746.451 139.382 Q743.002 139.382 741.011 141.581 Q739.02 143.78 739.02 147.576 L739.02 162.229 L734.738 162.229 L734.738 136.303 L739.02 136.303 L739.02 140.331 Q740.548 137.993 742.608 136.835 Q744.692 135.678 747.4 135.678 Q751.867 135.678 754.159 138.456 Q756.451 141.21 756.451 146.581 Z" fill="#000000" fill-rule="nonzero" fill-opacity="1" /><path clip-path="url(#clip450)" d="M783.603 137.298 L783.603 141.28 Q781.798 140.284 779.969 139.798 Q778.164 139.289 776.312 139.289 Q772.168 139.289 769.877 141.928 Q767.585 144.544 767.585 149.289 Q767.585 154.034 769.877 156.673 Q772.168 159.289 776.312 159.289 Q778.164 159.289 779.969 158.803 Q781.798 158.293 783.603 157.298 L783.603 161.233 Q781.821 162.067 779.9 162.483 Q778.002 162.9 775.849 162.9 Q769.992 162.9 766.543 159.219 Q763.094 155.539 763.094 149.289 Q763.094 142.946 766.566 139.312 Q770.062 135.678 776.127 135.678 Q778.094 135.678 779.969 136.095 Q781.844 136.488 783.603 137.298 Z" fill="#000000" fill-rule="nonzero" fill-opacity="1" /><path clip-path="url(#clip450)" d="M795.224 128.942 L795.224 136.303 L803.997 136.303 L803.997 139.613 L795.224 139.613 L795.224 153.687 Q795.224 156.858 796.08 157.761 Q796.96 158.664 799.622 158.664 L803.997 158.664 L803.997 162.229 L799.622 162.229 Q794.691 162.229 792.816 160.4 Q790.941 158.548 790.941 153.687 L790.941 139.613 L787.816 139.613 L787.816 136.303 L790.941 136.303 L790.941 128.942 L795.224 128.942 Z" fill="#000000" fill-rule="nonzero" fill-opacity="1" /><path clip-path="url(#clip450)" d="M809.599 136.303 L813.858 136.303 L813.858 162.229 L809.599 162.229 L809.599 136.303 M809.599 126.21 L813.858 126.21 L813.858 131.604 L809.599 131.604 L809.599 126.21 Z" fill="#000000" fill-rule="nonzero" fill-opacity="1" /><path clip-path="url(#clip450)" d="M832.816 139.289 Q829.39 139.289 827.399 141.974 Q825.409 144.636 825.409 149.289 Q825.409 153.942 827.376 156.627 Q829.367 159.289 832.816 159.289 Q836.219 159.289 838.21 156.604 Q840.2 153.918 840.2 149.289 Q840.2 144.682 838.21 141.997 Q836.219 139.289 832.816 139.289 M832.816 135.678 Q838.372 135.678 841.543 139.289 Q844.714 142.9 844.714 149.289 Q844.714 155.655 841.543 159.289 Q838.372 162.9 832.816 162.9 Q827.237 162.9 824.066 159.289 Q820.918 155.655 820.918 149.289 Q820.918 142.9 824.066 139.289 Q827.237 135.678 832.816 135.678 Z" fill="#000000" fill-rule="nonzero" fill-opacity="1" /><path clip-path="url(#clip450)" d="M873.325 146.581 L873.325 162.229 L869.066 162.229 L869.066 146.719 Q869.066 143.039 867.631 141.21 Q866.196 139.382 863.325 139.382 Q859.876 139.382 857.885 141.581 Q855.895 143.78 855.895 147.576 L855.895 162.229 L851.612 162.229 L851.612 136.303 L855.895 136.303 L855.895 140.331 Q857.422 137.993 859.483 136.835 Q861.566 135.678 864.274 135.678 Q868.742 135.678 871.033 138.456 Q873.325 141.21 873.325 146.581 Z" fill="#000000" fill-rule="nonzero" fill-opacity="1" /><polyline clip-path="url(#clip450)" style="stroke:#e26f46; stroke-linecap:round; stroke-linejoin:round; stroke-width:4; stroke-opacity:1; fill:none" points="300.571,196.789 443.747,196.789 "/>
<path clip-path="url(#clip450)" d="M484.114 178.05 L484.114 181.592 L480.04 181.592 Q477.749 181.592 476.846 182.518 Q475.966 183.444 475.966 185.851 L475.966 188.143 L482.98 188.143 L482.98 191.453 L475.966 191.453 L475.966 214.069 L471.684 214.069 L471.684 191.453 L467.61 191.453 L467.61 188.143 L471.684 188.143 L471.684 186.337 Q471.684 182.009 473.698 180.041 Q475.711 178.05 480.086 178.05 L484.114 178.05 Z" fill="#000000" fill-rule="nonzero" fill-opacity="1" /><path clip-path="url(#clip450)" d="M497.91 178.097 Q494.809 183.421 493.304 188.629 Q491.799 193.837 491.799 199.184 Q491.799 204.532 493.304 209.786 Q494.832 215.018 497.91 220.319 L494.207 220.319 Q490.735 214.879 488.998 209.624 Q487.286 204.37 487.286 199.184 Q487.286 194.022 488.998 188.791 Q490.711 183.56 494.207 178.097 L497.91 178.097 Z" fill="#000000" fill-rule="nonzero" fill-opacity="1" /><path clip-path="url(#clip450)" d="M527.725 188.143 L518.35 200.759 L528.211 214.069 L523.188 214.069 L515.642 203.883 L508.096 214.069 L503.072 214.069 L513.142 200.504 L503.929 188.143 L508.952 188.143 L515.827 197.379 L522.702 188.143 L527.725 188.143 Z" fill="#000000" fill-rule="nonzero" fill-opacity="1" /><path clip-path="url(#clip450)" d="M533.558 178.097 L537.262 178.097 Q540.734 183.56 542.447 188.791 Q544.183 194.022 544.183 199.184 Q544.183 204.37 542.447 209.624 Q540.734 214.879 537.262 220.319 L533.558 220.319 Q536.637 215.018 538.142 209.786 Q539.669 204.532 539.669 199.184 Q539.669 193.837 538.142 188.629 Q536.637 183.421 533.558 178.097 Z" fill="#000000" fill-rule="nonzero" fill-opacity="1" /><path clip-path="url(#clip450)" d="M568.35 192.541 L598.026 192.541 L598.026 196.43 L568.35 196.43 L568.35 192.541 M568.35 201.985 L598.026 201.985 L598.026 205.921 L568.35 205.921 L568.35 201.985 Z" fill="#000000" fill-rule="nonzero" fill-opacity="1" /><path clip-path="url(#clip450)" d="M633.188 182.587 Q629.576 182.587 627.748 186.152 Q625.942 189.694 625.942 196.823 Q625.942 203.93 627.748 207.495 Q629.576 211.036 633.188 211.036 Q636.822 211.036 638.627 207.495 Q640.456 203.93 640.456 196.823 Q640.456 189.694 638.627 186.152 Q636.822 182.587 633.188 182.587 M633.188 178.884 Q638.998 178.884 642.053 183.49 Q645.132 188.073 645.132 196.823 Q645.132 205.55 642.053 210.157 Q638.998 214.74 633.188 214.74 Q627.377 214.74 624.299 210.157 Q621.243 205.55 621.243 196.823 Q621.243 188.073 624.299 183.49 Q627.377 178.884 633.188 178.884 Z" fill="#000000" fill-rule="nonzero" fill-opacity="1" /></svg>
