<?xml version="1.0" encoding="utf-8"?>
<svg xmlns="http://www.w3.org/2000/svg" xmlns:xlink="http://www.w3.org/1999/xlink" width="600" height="400" viewBox="0 0 2400 1600">
<defs>
  <clipPath id="clip700">
    <rect x="0" y="0" width="2400" height="1600"/>
  </clipPath>
</defs>
<path clip-path="url(#clip700)" d="M0 1600 L2400 1600 L2400 0 L0 0  Z" fill="#ffffff" fill-rule="evenodd" fill-opacity="1"/>
<defs>
  <clipPath id="clip701">
    <rect x="480" y="0" width="1681" height="1600"/>
  </clipPath>
</defs>
<path clip-path="url(#clip700)" d="M175.445 1423.18 L2352.76 1423.18 L2352.76 47.2441 L175.445 47.2441  Z" fill="#ffffff" fill-rule="evenodd" fill-opacity="1"/>
<defs>
  <clipPath id="clip702">
    <rect x="175" y="47" width="2178" height="1377"/>
  </clipPath>
</defs>
<polyline clip-path="url(#clip702)" style="stroke:#000000; stroke-linecap:round; stroke-linejoin:round; stroke-width:2; stroke-opacity:0.1; fill:none" points="175.445,1423.18 175.445,47.2441 "/>
<polyline clip-path="url(#clip702)" style="stroke:#000000; stroke-linecap:round; stroke-linejoin:round; stroke-width:2; stroke-opacity:0.1; fill:none" points="719.773,1423.18 719.773,47.2441 "/>
<polyline clip-path="url(#clip702)" style="stroke:#000000; stroke-linecap:round; stroke-linejoin:round; stroke-width:2; stroke-opacity:0.1; fill:none" points="1264.1,1423.18 1264.1,47.2441 "/>
<polyline clip-path="url(#clip702)" style="stroke:#000000; stroke-linecap:round; stroke-linejoin:round; stroke-width:2; stroke-opacity:0.1; fill:none" points="1808.43,1423.18 1808.43,47.2441 "/>
<polyline clip-path="url(#clip702)" style="stroke:#000000; stroke-linecap:round; stroke-linejoin:round; stroke-width:2; stroke-opacity:0.1; fill:none" points="2352.76,1423.18 2352.76,47.2441 "/>
<polyline clip-path="url(#clip702)" style="stroke:#000000; stroke-linecap:round; stroke-linejoin:round; stroke-width:2; stroke-opacity:0.1; fill:none" points="175.445,1423.18 2352.76,1423.18 "/>
<polyline clip-path="url(#clip702)" style="stroke:#000000; stroke-linecap:round; stroke-linejoin:round; stroke-width:2; stroke-opacity:0.1; fill:none" points="175.445,964.535 2352.76,964.535 "/>
<polyline clip-path="url(#clip702)" style="stroke:#000000; stroke-linecap:round; stroke-linejoin:round; stroke-width:2; stroke-opacity:0.1; fill:none" points="175.445,505.889 2352.76,505.889 "/>
<polyline clip-path="url(#clip702)" style="stroke:#000000; stroke-linecap:round; stroke-linejoin:round; stroke-width:2; stroke-opacity:0.1; fill:none" points="175.445,47.2441 2352.76,47.2441 "/>
<polyline clip-path="url(#clip700)" style="stroke:#000000; stroke-linecap:round; stroke-linejoin:round; stroke-width:4; stroke-opacity:1; fill:none" points="175.445,1423.18 2352.76,1423.18 "/>
<polyline clip-path="url(#clip700)" style="stroke:#000000; stroke-linecap:round; stroke-linejoin:round; stroke-width:4; stroke-opacity:1; fill:none" points="175.445,1423.18 175.445,1404.28 "/>
<polyline clip-path="url(#clip700)" style="stroke:#000000; stroke-linecap:round; stroke-linejoin:round; stroke-width:4; stroke-opacity:1; fill:none" points="719.773,1423.18 719.773,1404.28 "/>
<polyline clip-path="url(#clip700)" style="stroke:#000000; stroke-linecap:round; stroke-linejoin:round; stroke-width:4; stroke-opacity:1; fill:none" points="1264.1,1423.18 1264.1,1404.28 "/>
<polyline clip-path="url(#clip700)" style="stroke:#000000; stroke-linecap:round; stroke-linejoin:round; stroke-width:4; stroke-opacity:1; fill:none" points="1808.43,1423.18 1808.43,1404.28 "/>
<polyline clip-path="url(#clip700)" style="stroke:#000000; stroke-linecap:round; stroke-linejoin:round; stroke-width:4; stroke-opacity:1; fill:none" points="2352.76,1423.18 2352.76,1404.28 "/>
<path clip-path="url(#clip700)" d="M145.387 1468.75 L175.063 1468.75 L175.063 1472.69 L145.387 1472.69 L145.387 1468.75 Z" fill="#000000" fill-rule="nonzero" fill-opacity="1" /><path clip-path="url(#clip700)" d="M189.184 1481.64 L205.503 1481.64 L205.503 1485.58 L183.559 1485.58 L183.559 1481.64 Q186.221 1478.89 190.804 1474.26 Q195.41 1469.61 196.591 1468.27 Q198.836 1465.74 199.716 1464.01 Q200.619 1462.25 200.619 1460.56 Q200.619 1457.8 198.674 1456.07 Q196.753 1454.33 193.651 1454.33 Q191.452 1454.33 188.998 1455.09 Q186.568 1455.86 183.79 1457.41 L183.79 1452.69 Q186.614 1451.55 189.068 1450.97 Q191.522 1450.39 193.559 1450.39 Q198.929 1450.39 202.123 1453.08 Q205.318 1455.77 205.318 1460.26 Q205.318 1462.39 204.508 1464.31 Q203.721 1466.2 201.614 1468.8 Q201.035 1469.47 197.934 1472.69 Q194.832 1475.88 189.184 1481.64 Z" fill="#000000" fill-rule="nonzero" fill-opacity="1" /><path clip-path="url(#clip700)" d="M689.53 1468.75 L719.206 1468.75 L719.206 1472.69 L689.53 1472.69 L689.53 1468.75 Z" fill="#000000" fill-rule="nonzero" fill-opacity="1" /><path clip-path="url(#clip700)" d="M730.108 1481.64 L737.747 1481.64 L737.747 1455.28 L729.437 1456.95 L729.437 1452.69 L737.701 1451.02 L742.377 1451.02 L742.377 1481.64 L750.016 1481.64 L750.016 1485.58 L730.108 1485.58 L730.108 1481.64 Z" fill="#000000" fill-rule="nonzero" fill-opacity="1" /><path clip-path="url(#clip700)" d="M1264.1 1454.1 Q1260.49 1454.1 1258.66 1457.66 Q1256.86 1461.2 1256.86 1468.33 Q1256.86 1475.44 1258.66 1479.01 Q1260.49 1482.55 1264.1 1482.55 Q1267.73 1482.55 1269.54 1479.01 Q1271.37 1475.44 1271.37 1468.33 Q1271.37 1461.2 1269.54 1457.66 Q1267.73 1454.1 1264.1 1454.1 M1264.1 1450.39 Q1269.91 1450.39 1272.97 1455 Q1276.04 1459.58 1276.04 1468.33 Q1276.04 1477.06 1272.97 1481.67 Q1269.91 1486.25 1264.1 1486.25 Q1258.29 1486.25 1255.21 1481.67 Q1252.16 1477.06 1252.16 1468.33 Q1252.16 1459.58 1255.21 1455 Q1258.29 1450.39 1264.1 1450.39 Z" fill="#000000" fill-rule="nonzero" fill-opacity="1" /><path clip-path="url(#clip700)" d="M1798.81 1481.64 L1806.45 1481.64 L1806.45 1455.28 L1798.14 1456.95 L1798.14 1452.69 L1806.4 1451.02 L1811.08 1451.02 L1811.08 1481.64 L1818.72 1481.64 L1818.72 1485.58 L1798.81 1485.58 L1798.81 1481.64 Z" fill="#000000" fill-rule="nonzero" fill-opacity="1" /><path clip-path="url(#clip700)" d="M2347.41 1481.64 L2363.73 1481.64 L2363.73 1485.58 L2341.78 1485.58 L2341.78 1481.64 Q2344.45 1478.89 2349.03 1474.26 Q2353.64 1469.61 2354.82 1468.27 Q2357.06 1465.74 2357.94 1464.01 Q2358.84 1462.25 2358.84 1460.56 Q2358.84 1457.8 2356.9 1456.07 Q2354.98 1454.33 2351.88 1454.33 Q2349.68 1454.33 2347.22 1455.09 Q2344.79 1455.86 2342.02 1457.41 L2342.02 1452.69 Q2344.84 1451.55 2347.29 1450.97 Q2349.75 1450.39 2351.78 1450.39 Q2357.15 1450.39 2360.35 1453.08 Q2363.54 1455.77 2363.54 1460.26 Q2363.54 1462.39 2362.73 1464.31 Q2361.95 1466.2 2359.84 1468.8 Q2359.26 1469.47 2356.16 1472.69 Q2353.06 1475.88 2347.41 1481.64 Z" fill="#000000" fill-rule="nonzero" fill-opacity="1" /><path clip-path="url(#clip700)" d="M1202.59 1533.45 L1202.59 1538.98 Q1200.11 1537.71 1197.44 1537.07 Q1194.76 1536.44 1191.9 1536.44 Q1187.54 1536.44 1185.34 1537.77 Q1183.18 1539.11 1183.18 1541.79 Q1183.18 1543.82 1184.74 1545 Q1186.3 1546.15 1191.01 1547.2 L1193.01 1547.64 Q1199.25 1548.98 1201.86 1551.43 Q1204.5 1553.85 1204.5 1558.21 Q1204.5 1563.17 1200.55 1566.07 Q1196.64 1568.97 1189.77 1568.97 Q1186.9 1568.97 1183.78 1568.39 Q1180.69 1567.85 1177.26 1566.74 L1177.26 1560.69 Q1180.5 1562.38 1183.65 1563.24 Q1186.8 1564.07 1189.89 1564.07 Q1194.03 1564.07 1196.26 1562.66 Q1198.49 1561.23 1198.49 1558.65 Q1198.49 1556.27 1196.86 1554.99 Q1195.27 1553.72 1189.83 1552.54 L1187.79 1552.07 Q1182.35 1550.92 1179.93 1548.56 Q1177.51 1546.18 1177.51 1542.04 Q1177.51 1537.01 1181.08 1534.27 Q1184.64 1531.54 1191.2 1531.54 Q1194.44 1531.54 1197.31 1532.01 Q1200.17 1532.49 1202.59 1533.45 Z" fill="#000000" fill-rule="nonzero" fill-opacity="1" /><path clip-path="url(#clip700)" d="M1213.83 1532.4 L1219.68 1532.4 L1219.68 1568.04 L1213.83 1568.04 L1213.83 1532.4 M1213.83 1518.52 L1219.68 1518.52 L1219.68 1525.93 L1213.83 1525.93 L1213.83 1518.52 Z" fill="#000000" fill-rule="nonzero" fill-opacity="1" /><path clip-path="url(#clip700)" d="M1261.57 1546.53 L1261.57 1568.04 L1255.71 1568.04 L1255.71 1546.72 Q1255.71 1541.66 1253.74 1539.14 Q1251.77 1536.63 1247.82 1536.63 Q1243.08 1536.63 1240.34 1539.65 Q1237.6 1542.68 1237.6 1547.9 L1237.6 1568.04 L1231.72 1568.04 L1231.72 1532.4 L1237.6 1532.4 L1237.6 1537.93 Q1239.7 1534.72 1242.54 1533.13 Q1245.4 1531.54 1249.13 1531.54 Q1255.27 1531.54 1258.42 1535.36 Q1261.57 1539.14 1261.57 1546.53 Z" fill="#000000" fill-rule="nonzero" fill-opacity="1" /><path clip-path="url(#clip700)" d="M1287.32 1518.58 Q1283.05 1525.9 1280.99 1533.06 Q1278.92 1540.23 1278.92 1547.58 Q1278.92 1554.93 1280.99 1562.16 Q1283.09 1569.35 1287.32 1576.64 L1282.23 1576.64 Q1277.45 1569.16 1275.07 1561.93 Q1272.71 1554.71 1272.71 1547.58 Q1272.71 1540.48 1275.07 1533.29 Q1277.42 1526.09 1282.23 1518.58 L1287.32 1518.58 Z" fill="#000000" fill-rule="nonzero" fill-opacity="1" /><path clip-path="url(#clip700)" d="M1313.51 1571.35 Q1311.03 1577.72 1308.68 1579.66 Q1306.32 1581.6 1302.37 1581.6 L1297.7 1581.6 L1297.7 1576.7 L1301.13 1576.7 Q1303.55 1576.7 1304.89 1575.56 Q1306.23 1574.41 1307.85 1570.14 L1308.9 1567.47 L1294.48 1532.4 L1300.69 1532.4 L1311.83 1560.28 L1322.97 1532.4 L1329.17 1532.4 L1313.51 1571.35 Z" fill="#000000" fill-rule="nonzero" fill-opacity="1" /><path clip-path="url(#clip700)" d="M1336.34 1518.58 L1341.43 1518.58 Q1346.2 1526.09 1348.56 1533.29 Q1350.94 1540.48 1350.94 1547.58 Q1350.94 1554.71 1348.56 1561.93 Q1346.2 1569.16 1341.43 1576.64 L1336.34 1576.64 Q1340.57 1569.35 1342.64 1562.16 Q1344.74 1554.93 1344.74 1547.58 Q1344.74 1540.23 1342.64 1533.06 Q1340.57 1525.9 1336.34 1518.58 Z" fill="#000000" fill-rule="nonzero" fill-opacity="1" /><polyline clip-path="url(#clip700)" style="stroke:#000000; stroke-linecap:round; stroke-linejoin:round; stroke-width:4; stroke-opacity:1; fill:none" points="175.445,1423.18 175.445,47.2441 "/>
<polyline clip-path="url(#clip700)" style="stroke:#000000; stroke-linecap:round; stroke-linejoin:round; stroke-width:4; stroke-opacity:1; fill:none" points="175.445,1423.18 194.343,1423.18 "/>
<polyline clip-path="url(#clip700)" style="stroke:#000000; stroke-linecap:round; stroke-linejoin:round; stroke-width:4; stroke-opacity:1; fill:none" points="175.445,964.535 194.343,964.535 "/>
<polyline clip-path="url(#clip700)" style="stroke:#000000; stroke-linecap:round; stroke-linejoin:round; stroke-width:4; stroke-opacity:1; fill:none" points="175.445,505.889 194.343,505.889 "/>
<polyline clip-path="url(#clip700)" style="stroke:#000000; stroke-linecap:round; stroke-linejoin:round; stroke-width:4; stroke-opacity:1; fill:none" points="175.445,47.2441 194.343,47.2441 "/>
<path clip-path="url(#clip700)" d="M132.316 1421.83 Q135.672 1422.54 137.547 1424.81 Q139.445 1427.08 139.445 1430.41 Q139.445 1435.53 135.927 1438.33 Q132.408 1441.13 125.927 1441.13 Q123.751 1441.13 121.436 1440.69 Q119.144 1440.27 116.691 1439.42 L116.691 1434.9 Q118.635 1436.04 120.95 1436.62 Q123.265 1437.2 125.788 1437.2 Q130.186 1437.2 132.478 1435.46 Q134.792 1433.72 134.792 1430.41 Q134.792 1427.36 132.64 1425.65 Q130.51 1423.91 126.691 1423.91 L122.663 1423.91 L122.663 1420.07 L126.876 1420.07 Q130.325 1420.07 132.154 1418.7 Q133.982 1417.31 133.982 1414.72 Q133.982 1412.06 132.084 1410.65 Q130.209 1409.21 126.691 1409.21 Q124.769 1409.21 122.57 1409.63 Q120.371 1410.04 117.732 1410.92 L117.732 1406.76 Q120.394 1406.02 122.709 1405.65 Q125.047 1405.27 127.107 1405.27 Q132.431 1405.27 135.533 1407.71 Q138.635 1410.11 138.635 1414.23 Q138.635 1417.1 136.992 1419.09 Q135.348 1421.06 132.316 1421.83 Z" fill="#000000" fill-rule="nonzero" fill-opacity="1" /><path clip-path="url(#clip700)" d="M129.862 951.329 L118.056 969.778 L129.862 969.778 L129.862 951.329 M128.635 947.255 L134.515 947.255 L134.515 969.778 L139.445 969.778 L139.445 973.666 L134.515 973.666 L134.515 981.815 L129.862 981.815 L129.862 973.666 L114.26 973.666 L114.26 969.153 L128.635 947.255 Z" fill="#000000" fill-rule="nonzero" fill-opacity="1" /><path clip-path="url(#clip700)" d="M118.543 488.609 L136.899 488.609 L136.899 492.545 L122.825 492.545 L122.825 501.017 Q123.843 500.669 124.862 500.507 Q125.88 500.322 126.899 500.322 Q132.686 500.322 136.066 503.494 Q139.445 506.665 139.445 512.081 Q139.445 517.66 135.973 520.762 Q132.501 523.841 126.181 523.841 Q124.005 523.841 121.737 523.47 Q119.492 523.1 117.084 522.359 L117.084 517.66 Q119.168 518.794 121.39 519.35 Q123.612 519.905 126.089 519.905 Q130.093 519.905 132.431 517.799 Q134.769 515.693 134.769 512.081 Q134.769 508.47 132.431 506.364 Q130.093 504.257 126.089 504.257 Q124.214 504.257 122.339 504.674 Q120.487 505.091 118.543 505.97 L118.543 488.609 Z" fill="#000000" fill-rule="nonzero" fill-opacity="1" /><path clip-path="url(#clip700)" d="M127.917 45.3807 Q124.769 45.3807 122.918 47.5334 Q121.089 49.6862 121.089 53.4362 Q121.089 57.163 122.918 59.3389 Q124.769 61.4917 127.917 61.4917 Q131.066 61.4917 132.894 59.3389 Q134.746 57.163 134.746 53.4362 Q134.746 49.6862 132.894 47.5334 Q131.066 45.3807 127.917 45.3807 M137.2 30.728 L137.2 34.9872 Q135.441 34.1539 133.635 33.7141 Q131.853 33.2743 130.093 33.2743 Q125.464 33.2743 123.01 36.3992 Q120.58 39.5242 120.232 45.8436 Q121.598 43.8298 123.658 42.765 Q125.718 41.677 128.195 41.677 Q133.404 41.677 136.413 44.8483 Q139.445 47.9964 139.445 53.4362 Q139.445 58.7602 136.297 61.9778 Q133.149 65.1954 127.917 65.1954 Q121.922 65.1954 118.751 60.6121 Q115.58 56.0056 115.58 47.2788 Q115.58 39.0844 119.468 34.2233 Q123.357 29.3391 129.908 29.3391 Q131.667 29.3391 133.45 29.6863 Q135.255 30.0335 137.2 30.728 Z" fill="#000000" fill-rule="nonzero" fill-opacity="1" /><path clip-path="url(#clip700)" d="M67.3143 849.27 Q73.68 851.752 75.6216 854.107 Q77.5631 856.463 77.5631 860.41 L77.5631 865.088 L72.6615 865.088 L72.6615 861.651 Q72.6615 859.232 71.5157 857.895 Q70.3699 856.558 66.1048 854.935 L63.4312 853.885 L28.3562 868.303 L28.3562 862.096 L56.238 850.956 L28.3562 839.816 L28.3562 833.61 L67.3143 849.27 Z" fill="#000000" fill-rule="nonzero" fill-opacity="1" /><path clip-path="url(#clip700)" d="M28.3562 809.006 L28.3562 802.8 L58.275 791.66 L28.3562 780.52 L28.3562 774.313 L64.0042 787.681 L64.0042 795.638 L28.3562 809.006 Z" fill="#000000" fill-rule="nonzero" fill-opacity="1" /><path clip-path="url(#clip700)" d="M46.0847 750.028 Q46.0847 757.126 47.7079 759.863 Q49.3312 762.6 53.2461 762.6 Q56.3653 762.6 58.2114 760.563 Q60.0256 758.495 60.0256 754.962 Q60.0256 750.092 56.5881 747.164 Q53.1188 744.204 47.3897 744.204 L46.0847 744.204 L46.0847 750.028 M43.6657 738.347 L64.0042 738.347 L64.0042 744.204 L58.5933 744.204 Q61.8398 746.209 63.3994 749.201 Q64.9272 752.192 64.9272 756.521 Q64.9272 761.996 61.8716 765.242 Q58.7843 768.457 53.6281 768.457 Q47.6125 768.457 44.5569 764.446 Q41.5014 760.404 41.5014 752.415 L41.5014 744.204 L40.9285 744.204 Q36.8862 744.204 34.6901 746.877 Q32.4621 749.519 32.4621 754.325 Q32.4621 757.381 33.1941 760.277 Q33.9262 763.173 35.3903 765.847 L29.9795 765.847 Q28.7381 762.632 28.1334 759.609 Q27.4968 756.585 27.4968 753.72 Q27.4968 745.986 31.5072 742.167 Q35.5176 738.347 43.6657 738.347 Z" fill="#000000" fill-rule="nonzero" fill-opacity="1" /><path clip-path="url(#clip700)" d="M14.479 726.284 L14.479 720.428 L64.0042 720.428 L64.0042 726.284 L14.479 726.284 Z" fill="#000000" fill-rule="nonzero" fill-opacity="1" /><path clip-path="url(#clip700)" d="M49.9359 708.778 L28.3562 708.778 L28.3562 702.922 L49.7131 702.922 Q54.7739 702.922 57.3202 700.949 Q59.8346 698.975 59.8346 695.028 Q59.8346 690.286 56.8109 687.549 Q53.7872 684.78 48.5673 684.78 L28.3562 684.78 L28.3562 678.923 L64.0042 678.923 L64.0042 684.78 L58.5296 684.78 Q61.7762 686.912 63.3676 689.745 Q64.9272 692.546 64.9272 696.27 Q64.9272 702.413 61.1078 705.596 Q57.2883 708.778 49.9359 708.778 M27.4968 694.042 L27.4968 694.042 Z" fill="#000000" fill-rule="nonzero" fill-opacity="1" /><path clip-path="url(#clip700)" d="M44.7161 636.368 L47.5806 636.368 L47.5806 663.295 Q53.6281 662.913 56.8109 659.667 Q59.9619 656.389 59.9619 650.564 Q59.9619 647.19 59.1344 644.039 Q58.3069 640.856 56.6518 637.737 L62.1899 637.737 Q63.5267 640.888 64.227 644.198 Q64.9272 647.508 64.9272 650.914 Q64.9272 659.444 59.9619 664.441 Q54.9967 669.406 46.5303 669.406 Q37.7774 669.406 32.6531 664.696 Q27.4968 659.953 27.4968 651.933 Q27.4968 644.739 32.1438 640.57 Q36.7589 636.368 44.7161 636.368 M42.9973 642.225 Q38.1912 642.289 35.3266 644.93 Q32.4621 647.54 32.4621 651.869 Q32.4621 656.771 35.2312 659.731 Q38.0002 662.659 43.0292 663.104 L42.9973 642.225 Z" fill="#000000" fill-rule="nonzero" fill-opacity="1" /><path clip-path="url(#clip700)" d="M29.4065 604.031 L34.9447 604.031 Q33.6716 606.513 33.035 609.187 Q32.3984 611.86 32.3984 614.725 Q32.3984 619.086 33.7352 621.282 Q35.072 623.446 37.7456 623.446 Q39.7826 623.446 40.9603 621.886 Q42.1061 620.327 43.1565 615.616 L43.6021 613.611 Q44.9389 607.373 47.3897 604.763 Q49.8086 602.121 54.1691 602.121 Q59.1344 602.121 62.0308 606.068 Q64.9272 609.983 64.9272 616.858 Q64.9272 619.722 64.3543 622.841 Q63.8132 625.929 62.6992 629.366 L56.6518 629.366 Q58.3387 626.12 59.198 622.969 Q60.0256 619.818 60.0256 616.73 Q60.0256 612.593 58.6251 610.365 Q57.1929 608.137 54.6147 608.137 Q52.2276 608.137 50.9545 609.76 Q49.6813 611.351 48.5037 616.794 L48.0262 618.831 Q46.8804 624.274 44.5251 626.693 Q42.138 629.112 38.0002 629.112 Q32.9713 629.112 30.2341 625.547 Q27.4968 621.982 27.4968 615.425 Q27.4968 612.179 27.9743 609.314 Q28.4517 606.45 29.4065 604.031 Z" fill="#000000" fill-rule="nonzero" fill-opacity="1" /><polyline clip-path="url(#clip702)" style="stroke:#009af9; stroke-linecap:round; stroke-linejoin:round; stroke-width:4; stroke-opacity:1; fill:none" points="1722.14,2340.47 1749.21,2294.61 1771.44,2248.74 1788.59,2202.88 1800.51,2157.01 1807.06,2111.15 1808.2,2065.28 1803.89,2019.42 1794.19,1973.55 1779.2,1927.69 1759.06,1881.83 1733.97,1835.96 1704.19,1790.1 1670.01,1744.23 1631.77,1698.37 1589.87,1652.5 1544.7,1606.64 1496.74,1560.77 1446.44,1514.91 1394.33,1469.04 1340.92,1423.18 1286.73,1377.32 1232.33,1331.45 1178.24,1285.59 1125,1239.72 1073.16,1193.86 1023.22,1147.99 975.696,1102.13 931.049,1056.26 889.73,1010.4 852.152,964.535 818.69,918.67 789.678,872.806 765.406,826.941 746.117,781.076 732.004,735.212 723.207,689.347 719.815,643.483 721.861,597.618 729.324,551.754 742.132,505.889 760.154,460.025 783.212,414.16 811.074,368.296 843.463,322.431 880.055,276.567 920.485,230.702 964.347,184.838 1011.2,138.973 1060.59,93.1086 1112.01,47.2441 1164.94,1.37957 1218.87,-44.485 1273.25,-90.3495 1327.54,-136.214 1381.2,-182.079 1433.68,-227.943 1484.47,-273.808 1533.06,-319.672 1578.96,-365.537 1621.72,-411.401 1660.9,-457.266 1696.12,-503.13 1727.02,-548.995 1753.29,-594.859 1774.68,-640.724 1790.97,-686.588 1801.99,-732.453 1807.64,-778.317 1807.85,-824.182 1802.64,-870.046 1792.04,-915.911 1776.17,-961.775 1755.18,-1007.64 1729.28,-1053.5 1698.74,-1099.37 1663.85,-1145.23 1624.97,-1191.1 1582.49,-1236.96 1536.82,-1282.83 1488.43,-1328.69 1437.79,-1374.56 1385.43,-1420.42 1331.84,-1466.29 1277.59,-1512.15 1223.19,-1558.01 1169.21,-1603.88 1116.17,-1649.74 1064.62,-1695.61 1015.05,-1741.47 967.975,-1787.34 "/>
<path clip-path="url(#clip700)" d="M2010.02 196.789 L2280.18 196.789 L2280.18 93.1086 L2010.02 93.1086  Z" fill="#ffffff" fill-rule="evenodd" fill-opacity="1"/>
<polyline clip-path="url(#clip700)" style="stroke:#000000; stroke-linecap:round; stroke-linejoin:round; stroke-width:4; stroke-opacity:1; fill:none" points="2010.02,196.789 2280.18,196.789 2280.18,93.1086 2010.02,93.1086 2010.02,196.789 "/>
<polyline clip-path="url(#clip700)" style="stroke:#009af9; stroke-linecap:round; stroke-linejoin:round; stroke-width:4; stroke-opacity:1; fill:none" points="2034.21,144.949 2179.36,144.949 "/>
<path clip-path="url(#clip700)" d="M2217.4 164.636 Q2215.59 169.266 2213.88 170.678 Q2212.17 172.09 2209.3 172.09 L2205.89 172.09 L2205.89 168.525 L2208.39 168.525 Q2210.15 168.525 2211.13 167.692 Q2212.1 166.858 2213.28 163.756 L2214.04 161.812 L2203.56 136.303 L2208.07 136.303 L2216.17 156.581 L2224.27 136.303 L2228.79 136.303 L2217.4 164.636 Z" fill="#000000" fill-rule="nonzero" fill-opacity="1" /><path clip-path="url(#clip700)" d="M2236.08 158.293 L2243.72 158.293 L2243.72 131.928 L2235.41 133.595 L2235.41 129.335 L2243.67 127.669 L2248.35 127.669 L2248.35 158.293 L2255.99 158.293 L2255.99 162.229 L2236.08 162.229 L2236.08 158.293 Z" fill="#000000" fill-rule="nonzero" fill-opacity="1" /></svg>
