<?xml version="1.0" encoding="utf-8"?>
<svg xmlns="http://www.w3.org/2000/svg" xmlns:xlink="http://www.w3.org/1999/xlink" width="600" height="400" viewBox="0 0 2400 1600">
<defs>
  <clipPath id="clip820">
    <rect x="0" y="0" width="2400" height="1600"/>
  </clipPath>
</defs>
<path clip-path="url(#clip820)" d="M0 1600 L2400 1600 L2400 0 L0 0  Z" fill="#ffffff" fill-rule="evenodd" fill-opacity="1"/>
<defs>
  <clipPath id="clip821">
    <rect x="480" y="0" width="1681" height="1600"/>
  </clipPath>
</defs>
<path clip-path="url(#clip820)" d="M220.19 1423.18 L2352.76 1423.18 L2352.76 47.2441 L220.19 47.2441  Z" fill="#ffffff" fill-rule="evenodd" fill-opacity="1"/>
<defs>
  <clipPath id="clip822">
    <rect x="220" y="47" width="2134" height="1377"/>
  </clipPath>
</defs>
<polyline clip-path="url(#clip822)" style="stroke:#000000; stroke-linecap:round; stroke-linejoin:round; stroke-width:2; stroke-opacity:0.1; fill:none" points="671.74,1423.18 671.74,47.2441 "/>
<polyline clip-path="url(#clip822)" style="stroke:#000000; stroke-linecap:round; stroke-linejoin:round; stroke-width:2; stroke-opacity:0.1; fill:none" points="1230.59,1423.18 1230.59,47.2441 "/>
<polyline clip-path="url(#clip822)" style="stroke:#000000; stroke-linecap:round; stroke-linejoin:round; stroke-width:2; stroke-opacity:0.1; fill:none" points="1789.44,1423.18 1789.44,47.2441 "/>
<polyline clip-path="url(#clip822)" style="stroke:#000000; stroke-linecap:round; stroke-linejoin:round; stroke-width:2; stroke-opacity:0.1; fill:none" points="2348.29,1423.18 2348.29,47.2441 "/>
<polyline clip-path="url(#clip822)" style="stroke:#000000; stroke-linecap:round; stroke-linejoin:round; stroke-width:2; stroke-opacity:0.1; fill:none" points="220.19,1384.24 2352.76,1384.24 "/>
<polyline clip-path="url(#clip822)" style="stroke:#000000; stroke-linecap:round; stroke-linejoin:round; stroke-width:2; stroke-opacity:0.1; fill:none" points="220.19,1113.81 2352.76,1113.81 "/>
<polyline clip-path="url(#clip822)" style="stroke:#000000; stroke-linecap:round; stroke-linejoin:round; stroke-width:2; stroke-opacity:0.1; fill:none" points="220.19,843.383 2352.76,843.383 "/>
<polyline clip-path="url(#clip822)" style="stroke:#000000; stroke-linecap:round; stroke-linejoin:round; stroke-width:2; stroke-opacity:0.1; fill:none" points="220.19,572.955 2352.76,572.955 "/>
<polyline clip-path="url(#clip822)" style="stroke:#000000; stroke-linecap:round; stroke-linejoin:round; stroke-width:2; stroke-opacity:0.1; fill:none" points="220.19,302.528 2352.76,302.528 "/>
<polyline clip-path="url(#clip820)" style="stroke:#000000; stroke-linecap:round; stroke-linejoin:round; stroke-width:4; stroke-opacity:1; fill:none" points="220.19,1423.18 2352.76,1423.18 "/>
<polyline clip-path="url(#clip820)" style="stroke:#000000; stroke-linecap:round; stroke-linejoin:round; stroke-width:4; stroke-opacity:1; fill:none" points="671.74,1423.18 671.74,1404.28 "/>
<polyline clip-path="url(#clip820)" style="stroke:#000000; stroke-linecap:round; stroke-linejoin:round; stroke-width:4; stroke-opacity:1; fill:none" points="1230.59,1423.18 1230.59,1404.28 "/>
<polyline clip-path="url(#clip820)" style="stroke:#000000; stroke-linecap:round; stroke-linejoin:round; stroke-width:4; stroke-opacity:1; fill:none" points="1789.44,1423.18 1789.44,1404.28 "/>
<polyline clip-path="url(#clip820)" style="stroke:#000000; stroke-linecap:round; stroke-linejoin:round; stroke-width:4; stroke-opacity:1; fill:none" points="2348.29,1423.18 2348.29,1404.28 "/>
<path clip-path="url(#clip820)" d="M662.018 1451.02 L680.374 1451.02 L680.374 1454.96 L666.3 1454.96 L666.3 1463.43 Q667.319 1463.08 668.337 1462.92 Q669.356 1462.73 670.374 1462.73 Q676.161 1462.73 679.541 1465.9 Q682.92 1469.08 682.92 1474.49 Q682.92 1480.07 679.448 1483.17 Q675.976 1486.25 669.657 1486.25 Q667.481 1486.25 665.212 1485.88 Q662.967 1485.51 660.559 1484.77 L660.559 1480.07 Q662.643 1481.2 664.865 1481.76 Q667.087 1482.32 669.564 1482.32 Q673.569 1482.32 675.907 1480.21 Q678.244 1478.1 678.244 1474.49 Q678.244 1470.88 675.907 1468.77 Q673.569 1466.67 669.564 1466.67 Q667.689 1466.67 665.814 1467.08 Q663.962 1467.5 662.018 1468.38 L662.018 1451.02 Z" fill="#000000" fill-rule="nonzero" fill-opacity="1" /><path clip-path="url(#clip820)" d="M1230.99 1466.44 Q1227.85 1466.44 1225.99 1468.59 Q1224.16 1470.74 1224.16 1474.49 Q1224.16 1478.22 1225.99 1480.39 Q1227.85 1482.55 1230.99 1482.55 Q1234.14 1482.55 1235.97 1480.39 Q1237.82 1478.22 1237.82 1474.49 Q1237.82 1470.74 1235.97 1468.59 Q1234.14 1466.44 1230.99 1466.44 M1240.28 1451.78 L1240.28 1456.04 Q1238.52 1455.21 1236.71 1454.77 Q1234.93 1454.33 1233.17 1454.33 Q1228.54 1454.33 1226.09 1457.45 Q1223.66 1460.58 1223.31 1466.9 Q1224.67 1464.89 1226.73 1463.82 Q1228.79 1462.73 1231.27 1462.73 Q1236.48 1462.73 1239.49 1465.9 Q1242.52 1469.05 1242.52 1474.49 Q1242.52 1479.82 1239.37 1483.03 Q1236.22 1486.25 1230.99 1486.25 Q1225 1486.25 1221.83 1481.67 Q1218.66 1477.06 1218.66 1468.33 Q1218.66 1460.14 1222.54 1455.28 Q1226.43 1450.39 1232.98 1450.39 Q1234.74 1450.39 1236.53 1450.74 Q1238.33 1451.09 1240.28 1451.78 Z" fill="#000000" fill-rule="nonzero" fill-opacity="1" /><path clip-path="url(#clip820)" d="M1778.33 1451.02 L1800.55 1451.02 L1800.55 1453.01 L1788 1485.58 L1783.12 1485.58 L1794.92 1454.96 L1778.33 1454.96 L1778.33 1451.02 Z" fill="#000000" fill-rule="nonzero" fill-opacity="1" /><path clip-path="url(#clip820)" d="M2348.29 1469.17 Q2344.95 1469.17 2343.03 1470.95 Q2341.13 1472.73 2341.13 1475.86 Q2341.13 1478.98 2343.03 1480.77 Q2344.95 1482.55 2348.29 1482.55 Q2351.62 1482.55 2353.54 1480.77 Q2355.46 1478.96 2355.46 1475.86 Q2355.46 1472.73 2353.54 1470.95 Q2351.64 1469.17 2348.29 1469.17 M2343.61 1467.18 Q2340.6 1466.44 2338.91 1464.38 Q2337.24 1462.32 2337.24 1459.35 Q2337.24 1455.21 2340.18 1452.8 Q2343.15 1450.39 2348.29 1450.39 Q2353.45 1450.39 2356.39 1452.8 Q2359.33 1455.21 2359.33 1459.35 Q2359.33 1462.32 2357.64 1464.38 Q2355.97 1466.44 2352.98 1467.18 Q2356.36 1467.96 2358.24 1470.26 Q2360.14 1472.55 2360.14 1475.86 Q2360.14 1480.88 2357.06 1483.57 Q2354 1486.25 2348.29 1486.25 Q2342.57 1486.25 2339.49 1483.57 Q2336.43 1480.88 2336.43 1475.86 Q2336.43 1472.55 2338.33 1470.26 Q2340.23 1467.96 2343.61 1467.18 M2341.9 1459.79 Q2341.9 1462.48 2343.56 1463.98 Q2345.25 1465.49 2348.29 1465.49 Q2351.29 1465.49 2352.98 1463.98 Q2354.7 1462.48 2354.7 1459.79 Q2354.7 1457.11 2352.98 1455.6 Q2351.29 1454.1 2348.29 1454.1 Q2345.25 1454.1 2343.56 1455.6 Q2341.9 1457.11 2341.9 1459.79 Z" fill="#000000" fill-rule="nonzero" fill-opacity="1" /><path clip-path="url(#clip820)" d="M1108.74 1522.08 L1108.74 1528.35 Q1105.08 1526.6 1101.84 1525.74 Q1098.59 1524.88 1095.57 1524.88 Q1090.31 1524.88 1087.45 1526.92 Q1084.62 1528.96 1084.62 1532.71 Q1084.62 1535.87 1086.49 1537.49 Q1088.4 1539.08 1093.69 1540.07 L1097.57 1540.86 Q1104.76 1542.23 1108.17 1545.7 Q1111.61 1549.14 1111.61 1554.93 Q1111.61 1561.84 1106.96 1565.4 Q1102.35 1568.97 1093.4 1568.97 Q1090.03 1568.97 1086.21 1568.2 Q1082.42 1567.44 1078.35 1565.94 L1078.35 1559.32 Q1082.26 1561.52 1086.02 1562.63 Q1089.77 1563.75 1093.4 1563.75 Q1098.91 1563.75 1101.9 1561.58 Q1104.89 1559.42 1104.89 1555.41 Q1104.89 1551.91 1102.73 1549.93 Q1100.59 1547.96 1095.69 1546.97 L1091.78 1546.21 Q1084.58 1544.78 1081.37 1541.72 Q1078.16 1538.67 1078.16 1533.22 Q1078.16 1526.92 1082.58 1523.29 Q1087.04 1519.66 1094.83 1519.66 Q1098.18 1519.66 1101.64 1520.27 Q1105.11 1520.87 1108.74 1522.08 Z" fill="#000000" fill-rule="nonzero" fill-opacity="1" /><path clip-path="url(#clip820)" d="M1151.87 1548.76 L1151.87 1551.62 L1124.94 1551.62 Q1125.33 1557.67 1128.57 1560.85 Q1131.85 1564 1137.67 1564 Q1141.05 1564 1144.2 1563.17 Q1147.38 1562.35 1150.5 1560.69 L1150.5 1566.23 Q1147.35 1567.57 1144.04 1568.27 Q1140.73 1568.97 1137.32 1568.97 Q1128.79 1568.97 1123.8 1564 Q1118.83 1559.04 1118.83 1550.57 Q1118.83 1541.82 1123.54 1536.69 Q1128.29 1531.54 1136.31 1531.54 Q1143.5 1531.54 1147.67 1536.18 Q1151.87 1540.8 1151.87 1548.76 M1146.01 1547.04 Q1145.95 1542.23 1143.31 1539.37 Q1140.7 1536.5 1136.37 1536.5 Q1131.47 1536.5 1128.51 1539.27 Q1125.58 1542.04 1125.13 1547.07 L1146.01 1547.04 Z" fill="#000000" fill-rule="nonzero" fill-opacity="1" /><path clip-path="url(#clip820)" d="M1167.15 1562.7 L1167.15 1581.6 L1161.26 1581.6 L1161.26 1532.4 L1167.15 1532.4 L1167.15 1537.81 Q1168.99 1534.62 1171.79 1533.1 Q1174.63 1531.54 1178.54 1531.54 Q1185.04 1531.54 1189.08 1536.69 Q1193.15 1541.85 1193.15 1550.25 Q1193.15 1558.65 1189.08 1563.81 Q1185.04 1568.97 1178.54 1568.97 Q1174.63 1568.97 1171.79 1567.44 Q1168.99 1565.88 1167.15 1562.7 M1187.07 1550.25 Q1187.07 1543.79 1184.4 1540.13 Q1181.76 1536.44 1177.11 1536.44 Q1172.46 1536.44 1169.79 1540.13 Q1167.15 1543.79 1167.15 1550.25 Q1167.15 1556.71 1169.79 1560.4 Q1172.46 1564.07 1177.11 1564.07 Q1181.76 1564.07 1184.4 1560.4 Q1187.07 1556.71 1187.07 1550.25 Z" fill="#000000" fill-rule="nonzero" fill-opacity="1" /><path clip-path="url(#clip820)" d="M1219.06 1550.12 Q1211.96 1550.12 1209.23 1551.75 Q1206.49 1553.37 1206.49 1557.29 Q1206.49 1560.4 1208.53 1562.25 Q1210.59 1564.07 1214.13 1564.07 Q1219 1564.07 1221.92 1560.63 Q1224.88 1557.16 1224.88 1551.43 L1224.88 1550.12 L1219.06 1550.12 M1230.74 1547.71 L1230.74 1568.04 L1224.88 1568.04 L1224.88 1562.63 Q1222.88 1565.88 1219.89 1567.44 Q1216.9 1568.97 1212.57 1568.97 Q1207.09 1568.97 1203.85 1565.91 Q1200.63 1562.82 1200.63 1557.67 Q1200.63 1551.65 1204.64 1548.6 Q1208.68 1545.54 1216.67 1545.54 L1224.88 1545.54 L1224.88 1544.97 Q1224.88 1540.93 1222.21 1538.73 Q1219.57 1536.5 1214.76 1536.5 Q1211.71 1536.5 1208.81 1537.23 Q1205.92 1537.97 1203.24 1539.43 L1203.24 1534.02 Q1206.46 1532.78 1209.48 1532.17 Q1212.5 1531.54 1215.37 1531.54 Q1223.1 1531.54 1226.92 1535.55 Q1230.74 1539.56 1230.74 1547.71 Z" fill="#000000" fill-rule="nonzero" fill-opacity="1" /><path clip-path="url(#clip820)" d="M1242.8 1518.52 L1248.66 1518.52 L1248.66 1568.04 L1242.8 1568.04 L1242.8 1518.52 Z" fill="#000000" fill-rule="nonzero" fill-opacity="1" /><path clip-path="url(#clip820)" d="M1281.89 1520.52 L1288.32 1520.52 L1288.32 1562.63 L1311.46 1562.63 L1311.46 1568.04 L1281.89 1568.04 L1281.89 1520.52 Z" fill="#000000" fill-rule="nonzero" fill-opacity="1" /><path clip-path="url(#clip820)" d="M1347.3 1548.76 L1347.3 1551.62 L1320.37 1551.62 Q1320.75 1557.67 1324 1560.85 Q1327.28 1564 1333.1 1564 Q1336.48 1564 1339.63 1563.17 Q1342.81 1562.35 1345.93 1560.69 L1345.93 1566.23 Q1342.78 1567.57 1339.47 1568.27 Q1336.16 1568.97 1332.75 1568.97 Q1324.22 1568.97 1319.22 1564 Q1314.26 1559.04 1314.26 1550.57 Q1314.26 1541.82 1318.97 1536.69 Q1323.71 1531.54 1331.73 1531.54 Q1338.93 1531.54 1343.1 1536.18 Q1347.3 1540.8 1347.3 1548.76 M1341.44 1547.04 Q1341.38 1542.23 1338.74 1539.37 Q1336.13 1536.5 1331.8 1536.5 Q1326.9 1536.5 1323.94 1539.27 Q1321.01 1542.04 1320.56 1547.07 L1341.44 1547.04 Z" fill="#000000" fill-rule="nonzero" fill-opacity="1" /><path clip-path="url(#clip820)" d="M1386.54 1546.53 L1386.54 1568.04 L1380.69 1568.04 L1380.69 1546.72 Q1380.69 1541.66 1378.71 1539.14 Q1376.74 1536.63 1372.79 1536.63 Q1368.05 1536.63 1365.31 1539.65 Q1362.58 1542.68 1362.58 1547.9 L1362.58 1568.04 L1356.69 1568.04 L1356.69 1532.4 L1362.58 1532.4 L1362.58 1537.93 Q1364.68 1534.72 1367.51 1533.13 Q1370.37 1531.54 1374.1 1531.54 Q1380.24 1531.54 1383.39 1535.36 Q1386.54 1539.14 1386.54 1546.53 Z" fill="#000000" fill-rule="nonzero" fill-opacity="1" /><path clip-path="url(#clip820)" d="M1421.68 1549.81 Q1421.68 1543.44 1419.04 1539.94 Q1416.43 1536.44 1411.69 1536.44 Q1406.98 1536.44 1404.33 1539.94 Q1401.72 1543.44 1401.72 1549.81 Q1401.72 1556.14 1404.33 1559.64 Q1406.98 1563.14 1411.69 1563.14 Q1416.43 1563.14 1419.04 1559.64 Q1421.68 1556.14 1421.68 1549.81 M1427.54 1563.62 Q1427.54 1572.72 1423.49 1577.15 Q1419.45 1581.6 1411.11 1581.6 Q1408.03 1581.6 1405.29 1581.13 Q1402.55 1580.68 1399.97 1579.72 L1399.97 1574.03 Q1402.55 1575.43 1405.07 1576.1 Q1407.58 1576.76 1410.19 1576.76 Q1415.95 1576.76 1418.82 1573.74 Q1421.68 1570.75 1421.68 1564.67 L1421.68 1561.77 Q1419.87 1564.92 1417.03 1566.48 Q1414.2 1568.04 1410.25 1568.04 Q1403.7 1568.04 1399.69 1563.05 Q1395.68 1558.05 1395.68 1549.81 Q1395.68 1541.53 1399.69 1536.53 Q1403.7 1531.54 1410.25 1531.54 Q1414.2 1531.54 1417.03 1533.1 Q1419.87 1534.66 1421.68 1537.81 L1421.68 1532.4 L1427.54 1532.4 L1427.54 1563.62 Z" fill="#000000" fill-rule="nonzero" fill-opacity="1" /><path clip-path="url(#clip820)" d="M1445.39 1522.27 L1445.39 1532.4 L1457.46 1532.4 L1457.46 1536.95 L1445.39 1536.95 L1445.39 1556.3 Q1445.39 1560.66 1446.57 1561.9 Q1447.78 1563.14 1451.44 1563.14 L1457.46 1563.14 L1457.46 1568.04 L1451.44 1568.04 Q1444.66 1568.04 1442.08 1565.53 Q1439.5 1562.98 1439.5 1556.3 L1439.5 1536.95 L1435.21 1536.95 L1435.21 1532.4 L1439.5 1532.4 L1439.5 1522.27 L1445.39 1522.27 Z" fill="#000000" fill-rule="nonzero" fill-opacity="1" /><path clip-path="url(#clip820)" d="M1494.79 1546.53 L1494.79 1568.04 L1488.93 1568.04 L1488.93 1546.72 Q1488.93 1541.66 1486.96 1539.14 Q1484.99 1536.63 1481.04 1536.63 Q1476.3 1536.63 1473.56 1539.65 Q1470.82 1542.68 1470.82 1547.9 L1470.82 1568.04 L1464.94 1568.04 L1464.94 1518.52 L1470.82 1518.52 L1470.82 1537.93 Q1472.92 1534.72 1475.76 1533.13 Q1478.62 1531.54 1482.35 1531.54 Q1488.49 1531.54 1491.64 1535.36 Q1494.79 1539.14 1494.79 1546.53 Z" fill="#000000" fill-rule="nonzero" fill-opacity="1" /><polyline clip-path="url(#clip820)" style="stroke:#000000; stroke-linecap:round; stroke-linejoin:round; stroke-width:4; stroke-opacity:1; fill:none" points="220.19,1423.18 220.19,47.2441 "/>
<polyline clip-path="url(#clip820)" style="stroke:#000000; stroke-linecap:round; stroke-linejoin:round; stroke-width:4; stroke-opacity:1; fill:none" points="220.19,1384.24 239.088,1384.24 "/>
<polyline clip-path="url(#clip820)" style="stroke:#000000; stroke-linecap:round; stroke-linejoin:round; stroke-width:4; stroke-opacity:1; fill:none" points="220.19,1113.81 239.088,1113.81 "/>
<polyline clip-path="url(#clip820)" style="stroke:#000000; stroke-linecap:round; stroke-linejoin:round; stroke-width:4; stroke-opacity:1; fill:none" points="220.19,843.383 239.088,843.383 "/>
<polyline clip-path="url(#clip820)" style="stroke:#000000; stroke-linecap:round; stroke-linejoin:round; stroke-width:4; stroke-opacity:1; fill:none" points="220.19,572.955 239.088,572.955 "/>
<polyline clip-path="url(#clip820)" style="stroke:#000000; stroke-linecap:round; stroke-linejoin:round; stroke-width:4; stroke-opacity:1; fill:none" points="220.19,302.528 239.088,302.528 "/>
<path clip-path="url(#clip820)" d="M121.043 1397.58 L137.362 1397.58 L137.362 1401.52 L115.418 1401.52 L115.418 1397.58 Q118.08 1394.83 122.663 1390.2 Q127.269 1385.55 128.45 1384.2 Q130.695 1381.68 131.575 1379.94 Q132.478 1378.19 132.478 1376.5 Q132.478 1373.74 130.533 1372 Q128.612 1370.27 125.51 1370.27 Q123.311 1370.27 120.857 1371.03 Q118.427 1371.8 115.649 1373.35 L115.649 1368.62 Q118.473 1367.49 120.927 1366.91 Q123.38 1366.33 125.418 1366.33 Q130.788 1366.33 133.982 1369.02 Q137.177 1371.7 137.177 1376.19 Q137.177 1378.32 136.367 1380.25 Q135.579 1382.14 133.473 1384.74 Q132.894 1385.41 129.792 1388.62 Q126.691 1391.82 121.043 1397.58 Z" fill="#000000" fill-rule="nonzero" fill-opacity="1" /><path clip-path="url(#clip820)" d="M147.177 1395.64 L152.061 1395.64 L152.061 1401.52 L147.177 1401.52 L147.177 1395.64 Z" fill="#000000" fill-rule="nonzero" fill-opacity="1" /><path clip-path="url(#clip820)" d="M172.246 1370.04 Q168.635 1370.04 166.806 1373.6 Q165.001 1377.14 165.001 1384.27 Q165.001 1391.38 166.806 1394.94 Q168.635 1398.49 172.246 1398.49 Q175.88 1398.49 177.686 1394.94 Q179.514 1391.38 179.514 1384.27 Q179.514 1377.14 177.686 1373.6 Q175.88 1370.04 172.246 1370.04 M172.246 1366.33 Q178.056 1366.33 181.112 1370.94 Q184.19 1375.52 184.19 1384.27 Q184.19 1393 181.112 1397.61 Q178.056 1402.19 172.246 1402.19 Q166.436 1402.19 163.357 1397.61 Q160.302 1393 160.302 1384.27 Q160.302 1375.52 163.357 1370.94 Q166.436 1366.33 172.246 1366.33 Z" fill="#000000" fill-rule="nonzero" fill-opacity="1" /><path clip-path="url(#clip820)" d="M122.038 1127.16 L138.357 1127.16 L138.357 1131.09 L116.413 1131.09 L116.413 1127.16 Q119.075 1124.4 123.658 1119.77 Q128.265 1115.12 129.445 1113.78 Q131.691 1111.25 132.57 1109.52 Q133.473 1107.76 133.473 1106.07 Q133.473 1103.31 131.529 1101.58 Q129.607 1099.84 126.505 1099.84 Q124.306 1099.84 121.853 1100.6 Q119.422 1101.37 116.644 1102.92 L116.644 1098.2 Q119.468 1097.06 121.922 1096.48 Q124.376 1095.91 126.413 1095.91 Q131.783 1095.91 134.978 1098.59 Q138.172 1101.28 138.172 1105.77 Q138.172 1107.9 137.362 1109.82 Q136.575 1111.72 134.468 1114.31 Q133.89 1114.98 130.788 1118.2 Q127.686 1121.39 122.038 1127.16 Z" fill="#000000" fill-rule="nonzero" fill-opacity="1" /><path clip-path="url(#clip820)" d="M148.172 1125.21 L153.056 1125.21 L153.056 1131.09 L148.172 1131.09 L148.172 1125.21 Z" fill="#000000" fill-rule="nonzero" fill-opacity="1" /><path clip-path="url(#clip820)" d="M163.288 1096.53 L181.644 1096.53 L181.644 1100.47 L167.57 1100.47 L167.57 1108.94 Q168.589 1108.59 169.607 1108.43 Q170.626 1108.24 171.644 1108.24 Q177.431 1108.24 180.811 1111.41 Q184.19 1114.59 184.19 1120 Q184.19 1125.58 180.718 1128.68 Q177.246 1131.76 170.927 1131.76 Q168.751 1131.76 166.482 1131.39 Q164.237 1131.02 161.829 1130.28 L161.829 1125.58 Q163.913 1126.72 166.135 1127.27 Q168.357 1127.83 170.834 1127.83 Q174.839 1127.83 177.176 1125.72 Q179.514 1123.61 179.514 1120 Q179.514 1116.39 177.176 1114.29 Q174.839 1112.18 170.834 1112.18 Q168.959 1112.18 167.084 1112.6 Q165.232 1113.01 163.288 1113.89 L163.288 1096.53 Z" fill="#000000" fill-rule="nonzero" fill-opacity="1" /><path clip-path="url(#clip820)" d="M131.181 842.029 Q134.538 842.746 136.413 845.015 Q138.311 847.283 138.311 850.617 Q138.311 855.732 134.792 858.533 Q131.274 861.334 124.793 861.334 Q122.617 861.334 120.302 860.894 Q118.01 860.478 115.556 859.621 L115.556 855.107 Q117.501 856.242 119.816 856.82 Q122.13 857.399 124.654 857.399 Q129.052 857.399 131.343 855.663 Q133.658 853.927 133.658 850.617 Q133.658 847.561 131.505 845.848 Q129.376 844.112 125.556 844.112 L121.529 844.112 L121.529 840.27 L125.742 840.27 Q129.191 840.27 131.019 838.904 Q132.848 837.515 132.848 834.922 Q132.848 832.26 130.95 830.848 Q129.075 829.413 125.556 829.413 Q123.635 829.413 121.436 829.83 Q119.237 830.247 116.598 831.126 L116.598 826.959 Q119.26 826.219 121.575 825.848 Q123.913 825.478 125.973 825.478 Q131.297 825.478 134.399 827.909 Q137.501 830.316 137.501 834.436 Q137.501 837.307 135.857 839.297 Q134.214 841.265 131.181 842.029 Z" fill="#000000" fill-rule="nonzero" fill-opacity="1" /><path clip-path="url(#clip820)" d="M147.177 854.783 L152.061 854.783 L152.061 860.663 L147.177 860.663 L147.177 854.783 Z" fill="#000000" fill-rule="nonzero" fill-opacity="1" /><path clip-path="url(#clip820)" d="M172.246 829.182 Q168.635 829.182 166.806 832.747 Q165.001 836.288 165.001 843.418 Q165.001 850.524 166.806 854.089 Q168.635 857.631 172.246 857.631 Q175.88 857.631 177.686 854.089 Q179.514 850.524 179.514 843.418 Q179.514 836.288 177.686 832.747 Q175.88 829.182 172.246 829.182 M172.246 825.478 Q178.056 825.478 181.112 830.084 Q184.19 834.668 184.19 843.418 Q184.19 852.145 181.112 856.751 Q178.056 861.334 172.246 861.334 Q166.436 861.334 163.357 856.751 Q160.302 852.145 160.302 843.418 Q160.302 834.668 163.357 830.084 Q166.436 825.478 172.246 825.478 Z" fill="#000000" fill-rule="nonzero" fill-opacity="1" /><path clip-path="url(#clip820)" d="M132.177 571.601 Q135.533 572.319 137.408 574.587 Q139.306 576.856 139.306 580.189 Q139.306 585.305 135.788 588.106 Q132.269 590.907 125.788 590.907 Q123.612 590.907 121.297 590.467 Q119.006 590.05 116.552 589.194 L116.552 584.68 Q118.496 585.814 120.811 586.393 Q123.126 586.972 125.649 586.972 Q130.047 586.972 132.339 585.235 Q134.654 583.499 134.654 580.189 Q134.654 577.134 132.501 575.421 Q130.371 573.685 126.552 573.685 L122.524 573.685 L122.524 569.842 L126.737 569.842 Q130.186 569.842 132.015 568.476 Q133.843 567.087 133.843 564.495 Q133.843 561.833 131.945 560.421 Q130.07 558.986 126.552 558.986 Q124.63 558.986 122.431 559.402 Q120.232 559.819 117.593 560.699 L117.593 556.532 Q120.255 555.791 122.57 555.421 Q124.908 555.05 126.968 555.05 Q132.292 555.05 135.394 557.481 Q138.496 559.888 138.496 564.009 Q138.496 566.879 136.853 568.87 Q135.209 570.837 132.177 571.601 Z" fill="#000000" fill-rule="nonzero" fill-opacity="1" /><path clip-path="url(#clip820)" d="M148.172 584.356 L153.056 584.356 L153.056 590.235 L148.172 590.235 L148.172 584.356 Z" fill="#000000" fill-rule="nonzero" fill-opacity="1" /><path clip-path="url(#clip820)" d="M163.288 555.675 L181.644 555.675 L181.644 559.611 L167.57 559.611 L167.57 568.083 Q168.589 567.736 169.607 567.573 Q170.626 567.388 171.644 567.388 Q177.431 567.388 180.811 570.56 Q184.19 573.731 184.19 579.147 Q184.19 584.726 180.718 587.828 Q177.246 590.907 170.927 590.907 Q168.751 590.907 166.482 590.536 Q164.237 590.166 161.829 589.425 L161.829 584.726 Q163.913 585.86 166.135 586.416 Q168.357 586.972 170.834 586.972 Q174.839 586.972 177.176 584.865 Q179.514 582.759 179.514 579.147 Q179.514 575.536 177.176 573.43 Q174.839 571.323 170.834 571.323 Q168.959 571.323 167.084 571.74 Q165.232 572.157 163.288 573.036 L163.288 555.675 Z" fill="#000000" fill-rule="nonzero" fill-opacity="1" /><path clip-path="url(#clip820)" d="M129.862 289.322 L118.056 307.771 L129.862 307.771 L129.862 289.322 M128.635 285.248 L134.515 285.248 L134.515 307.771 L139.445 307.771 L139.445 311.66 L134.515 311.66 L134.515 319.808 L129.862 319.808 L129.862 311.66 L114.26 311.66 L114.26 307.146 L128.635 285.248 Z" fill="#000000" fill-rule="nonzero" fill-opacity="1" /><path clip-path="url(#clip820)" d="M147.177 313.928 L152.061 313.928 L152.061 319.808 L147.177 319.808 L147.177 313.928 Z" fill="#000000" fill-rule="nonzero" fill-opacity="1" /><path clip-path="url(#clip820)" d="M172.246 288.326 Q168.635 288.326 166.806 291.891 Q165.001 295.433 165.001 302.562 Q165.001 309.669 166.806 313.234 Q168.635 316.775 172.246 316.775 Q175.88 316.775 177.686 313.234 Q179.514 309.669 179.514 302.562 Q179.514 295.433 177.686 291.891 Q175.88 288.326 172.246 288.326 M172.246 284.623 Q178.056 284.623 181.112 289.229 Q184.19 293.813 184.19 302.562 Q184.19 311.289 181.112 315.896 Q178.056 320.479 172.246 320.479 Q166.436 320.479 163.357 315.896 Q160.302 311.289 160.302 302.562 Q160.302 293.813 163.357 289.229 Q166.436 284.623 172.246 284.623 Z" fill="#000000" fill-rule="nonzero" fill-opacity="1" /><path clip-path="url(#clip820)" d="M18.0438 895.214 L24.314 895.214 Q22.5634 898.874 21.704 902.121 Q20.8447 905.367 20.8447 908.391 Q20.8447 913.643 22.8817 916.507 Q24.9187 919.34 28.6745 919.34 Q31.8255 919.34 33.4488 917.462 Q35.0402 915.552 36.0269 910.269 L36.8226 906.386 Q38.1912 899.193 41.6605 895.787 Q45.098 892.349 50.8908 892.349 Q57.7976 892.349 61.3624 896.996 Q64.9272 901.612 64.9272 910.555 Q64.9272 913.929 64.1633 917.749 Q63.3994 921.536 61.9035 925.61 L55.2831 925.61 Q57.4793 921.695 58.5933 917.94 Q59.7073 914.184 59.7073 910.555 Q59.7073 905.049 57.543 902.057 Q55.3786 899.065 51.3682 899.065 Q47.8671 899.065 45.8937 901.23 Q43.9204 903.362 42.9337 908.264 L42.1698 912.179 Q40.7375 919.372 37.682 922.587 Q34.6264 925.801 29.1837 925.801 Q22.8817 925.801 19.2532 921.377 Q15.6248 916.921 15.6248 909.123 Q15.6248 905.781 16.2295 902.312 Q16.8343 898.842 18.0438 895.214 Z" fill="#000000" fill-rule="nonzero" fill-opacity="1" /><path clip-path="url(#clip820)" d="M44.7161 852.086 L47.5806 852.086 L47.5806 879.013 Q53.6281 878.631 56.8109 875.385 Q59.9619 872.106 59.9619 866.282 Q59.9619 862.908 59.1344 859.757 Q58.3069 856.574 56.6518 853.455 L62.1899 853.455 Q63.5267 856.606 64.227 859.916 Q64.9272 863.226 64.9272 866.632 Q64.9272 875.162 59.9619 880.159 Q54.9967 885.124 46.5303 885.124 Q37.7774 885.124 32.6531 880.414 Q27.4968 875.671 27.4968 867.65 Q27.4968 860.457 32.1438 856.288 Q36.7589 852.086 44.7161 852.086 M42.9973 857.943 Q38.1912 858.006 35.3266 860.648 Q32.4621 863.258 32.4621 867.587 Q32.4621 872.488 35.2312 875.448 Q38.0002 878.377 43.0292 878.822 L42.9973 857.943 Z" fill="#000000" fill-rule="nonzero" fill-opacity="1" /><path clip-path="url(#clip820)" d="M58.657 836.809 L77.5631 836.809 L77.5631 842.697 L28.3562 842.697 L28.3562 836.809 L33.7671 836.809 Q30.5842 834.963 29.0564 832.162 Q27.4968 829.329 27.4968 825.414 Q27.4968 818.921 32.6531 814.879 Q37.8093 810.805 46.212 810.805 Q54.6147 810.805 59.771 814.879 Q64.9272 818.921 64.9272 825.414 Q64.9272 829.329 63.3994 832.162 Q61.8398 834.963 58.657 836.809 M46.212 816.884 Q39.7508 816.884 36.0905 819.558 Q32.3984 822.199 32.3984 826.846 Q32.3984 831.493 36.0905 834.167 Q39.7508 836.809 46.212 836.809 Q52.6732 836.809 56.3653 834.167 Q60.0256 831.493 60.0256 826.846 Q60.0256 822.199 56.3653 819.558 Q52.6732 816.884 46.212 816.884 Z" fill="#000000" fill-rule="nonzero" fill-opacity="1" /><path clip-path="url(#clip820)" d="M46.0847 784.896 Q46.0847 791.994 47.7079 794.731 Q49.3312 797.469 53.2461 797.469 Q56.3653 797.469 58.2114 795.432 Q60.0256 793.363 60.0256 789.83 Q60.0256 784.96 56.5881 782.032 Q53.1188 779.072 47.3897 779.072 L46.0847 779.072 L46.0847 784.896 M43.6657 773.215 L64.0042 773.215 L64.0042 779.072 L58.5933 779.072 Q61.8398 781.077 63.3994 784.069 Q64.9272 787.061 64.9272 791.389 Q64.9272 796.864 61.8716 800.11 Q58.7843 803.325 53.6281 803.325 Q47.6125 803.325 44.5569 799.315 Q41.5014 795.272 41.5014 787.283 L41.5014 779.072 L40.9285 779.072 Q36.8862 779.072 34.6901 781.745 Q32.4621 784.387 32.4621 789.193 Q32.4621 792.249 33.1941 795.145 Q33.9262 798.041 35.3903 800.715 L29.9795 800.715 Q28.7381 797.5 28.1334 794.477 Q27.4968 791.453 27.4968 788.588 Q27.4968 780.854 31.5072 777.035 Q35.5176 773.215 43.6657 773.215 Z" fill="#000000" fill-rule="nonzero" fill-opacity="1" /><path clip-path="url(#clip820)" d="M14.479 761.152 L14.479 755.296 L64.0042 755.296 L64.0042 761.152 L14.479 761.152 Z" fill="#000000" fill-rule="nonzero" fill-opacity="1" /><path clip-path="url(#clip820)" d="M16.4842 726.3 L16.4842 719.807 L56.6518 709.813 L16.4842 699.85 L16.4842 692.625 L56.6518 682.631 L16.4842 672.669 L16.4842 666.144 L64.0042 678.08 L64.0042 686.164 L22.7544 696.19 L64.0042 706.312 L64.0042 714.396 L16.4842 726.3 Z" fill="#000000" fill-rule="nonzero" fill-opacity="1" /><path clip-path="url(#clip820)" d="M28.3562 659.301 L28.3562 653.444 L64.0042 653.444 L64.0042 659.301 L28.3562 659.301 M14.479 659.301 L14.479 653.444 L21.895 653.444 L21.895 659.301 L14.479 659.301 Z" fill="#000000" fill-rule="nonzero" fill-opacity="1" /><path clip-path="url(#clip820)" d="M33.7671 617.733 L14.479 617.733 L14.479 611.876 L64.0042 611.876 L64.0042 617.733 L58.657 617.733 Q61.8398 619.579 63.3994 622.412 Q64.9272 625.213 64.9272 629.159 Q64.9272 635.62 59.771 639.695 Q54.6147 643.737 46.212 643.737 Q37.8093 643.737 32.6531 639.695 Q27.4968 635.62 27.4968 629.159 Q27.4968 625.213 29.0564 622.412 Q30.5842 619.579 33.7671 617.733 M46.212 637.689 Q52.6732 637.689 56.3653 635.048 Q60.0256 632.374 60.0256 627.727 Q60.0256 623.08 56.3653 620.406 Q52.6732 617.733 46.212 617.733 Q39.7508 617.733 36.0905 620.406 Q32.3984 623.08 32.3984 627.727 Q32.3984 632.374 36.0905 635.048 Q39.7508 637.689 46.212 637.689 Z" fill="#000000" fill-rule="nonzero" fill-opacity="1" /><path clip-path="url(#clip820)" d="M18.2347 594.021 L28.3562 594.021 L28.3562 581.958 L32.9077 581.958 L32.9077 594.021 L52.2594 594.021 Q56.6199 594.021 57.8613 592.843 Q59.1026 591.633 59.1026 587.973 L59.1026 581.958 L64.0042 581.958 L64.0042 587.973 Q64.0042 594.753 61.4897 597.331 Q58.9434 599.909 52.2594 599.909 L32.9077 599.909 L32.9077 604.206 L28.3562 604.206 L28.3562 599.909 L18.2347 599.909 L18.2347 594.021 Z" fill="#000000" fill-rule="nonzero" fill-opacity="1" /><path clip-path="url(#clip820)" d="M42.4881 544.623 L64.0042 544.623 L64.0042 550.479 L42.679 550.479 Q37.6183 550.479 35.1038 552.453 Q32.5894 554.426 32.5894 558.373 Q32.5894 563.115 35.6131 565.852 Q38.6368 568.59 43.8567 568.59 L64.0042 568.59 L64.0042 574.478 L14.479 574.478 L14.479 568.59 L33.8944 568.59 Q30.6797 566.489 29.0883 563.656 Q27.4968 560.792 27.4968 557.068 Q27.4968 550.925 31.3163 547.774 Q35.1038 544.623 42.4881 544.623 Z" fill="#000000" fill-rule="nonzero" fill-opacity="1" /><circle clip-path="url(#clip822)" cx="727.625" cy="572.955" r="14.4" fill="#009af9" fill-rule="evenodd" fill-opacity="1" stroke="#000000" stroke-opacity="1" stroke-width="3.2"/>
<circle clip-path="url(#clip822)" cx="615.855" cy="843.383" r="14.4" fill="#009af9" fill-rule="evenodd" fill-opacity="1" stroke="#000000" stroke-opacity="1" stroke-width="3.2"/>
<circle clip-path="url(#clip822)" cx="504.085" cy="735.212" r="14.4" fill="#009af9" fill-rule="evenodd" fill-opacity="1" stroke="#000000" stroke-opacity="1" stroke-width="3.2"/>
<circle clip-path="url(#clip822)" cx="448.2" cy="789.297" r="14.4" fill="#009af9" fill-rule="evenodd" fill-opacity="1" stroke="#000000" stroke-opacity="1" stroke-width="3.2"/>
<circle clip-path="url(#clip822)" cx="671.74" cy="518.87" r="14.4" fill="#009af9" fill-rule="evenodd" fill-opacity="1" stroke="#000000" stroke-opacity="1" stroke-width="3.2"/>
<circle clip-path="url(#clip822)" cx="895.279" cy="356.613" r="14.4" fill="#009af9" fill-rule="evenodd" fill-opacity="1" stroke="#000000" stroke-opacity="1" stroke-width="3.2"/>
<circle clip-path="url(#clip822)" cx="448.2" cy="627.041" r="14.4" fill="#009af9" fill-rule="evenodd" fill-opacity="1" stroke="#000000" stroke-opacity="1" stroke-width="3.2"/>
<circle clip-path="url(#clip822)" cx="671.74" cy="627.041" r="14.4" fill="#009af9" fill-rule="evenodd" fill-opacity="1" stroke="#000000" stroke-opacity="1" stroke-width="3.2"/>
<circle clip-path="url(#clip822)" cx="336.431" cy="897.469" r="14.4" fill="#009af9" fill-rule="evenodd" fill-opacity="1" stroke="#000000" stroke-opacity="1" stroke-width="3.2"/>
<circle clip-path="url(#clip822)" cx="615.855" cy="789.297" r="14.4" fill="#009af9" fill-rule="evenodd" fill-opacity="1" stroke="#000000" stroke-opacity="1" stroke-width="3.2"/>
<circle clip-path="url(#clip822)" cx="895.279" cy="464.784" r="14.4" fill="#009af9" fill-rule="evenodd" fill-opacity="1" stroke="#000000" stroke-opacity="1" stroke-width="3.2"/>
<circle clip-path="url(#clip822)" cx="559.97" cy="627.041" r="14.4" fill="#009af9" fill-rule="evenodd" fill-opacity="1" stroke="#000000" stroke-opacity="1" stroke-width="3.2"/>
<circle clip-path="url(#clip822)" cx="559.97" cy="843.383" r="14.4" fill="#009af9" fill-rule="evenodd" fill-opacity="1" stroke="#000000" stroke-opacity="1" stroke-width="3.2"/>
<circle clip-path="url(#clip822)" cx="280.546" cy="843.383" r="14.4" fill="#009af9" fill-rule="evenodd" fill-opacity="1" stroke="#000000" stroke-opacity="1" stroke-width="3.2"/>
<circle clip-path="url(#clip822)" cx="1118.82" cy="302.528" r="14.4" fill="#009af9" fill-rule="evenodd" fill-opacity="1" stroke="#000000" stroke-opacity="1" stroke-width="3.2"/>
<circle clip-path="url(#clip822)" cx="1062.93" cy="86.1857" r="14.4" fill="#009af9" fill-rule="evenodd" fill-opacity="1" stroke="#000000" stroke-opacity="1" stroke-width="3.2"/>
<circle clip-path="url(#clip822)" cx="895.279" cy="356.613" r="14.4" fill="#009af9" fill-rule="evenodd" fill-opacity="1" stroke="#000000" stroke-opacity="1" stroke-width="3.2"/>
<circle clip-path="url(#clip822)" cx="727.625" cy="572.955" r="14.4" fill="#009af9" fill-rule="evenodd" fill-opacity="1" stroke="#000000" stroke-opacity="1" stroke-width="3.2"/>
<circle clip-path="url(#clip822)" cx="1062.93" cy="410.699" r="14.4" fill="#009af9" fill-rule="evenodd" fill-opacity="1" stroke="#000000" stroke-opacity="1" stroke-width="3.2"/>
<circle clip-path="url(#clip822)" cx="727.625" cy="410.699" r="14.4" fill="#009af9" fill-rule="evenodd" fill-opacity="1" stroke="#000000" stroke-opacity="1" stroke-width="3.2"/>
<circle clip-path="url(#clip822)" cx="895.279" cy="627.041" r="14.4" fill="#009af9" fill-rule="evenodd" fill-opacity="1" stroke="#000000" stroke-opacity="1" stroke-width="3.2"/>
<circle clip-path="url(#clip822)" cx="727.625" cy="464.784" r="14.4" fill="#009af9" fill-rule="evenodd" fill-opacity="1" stroke="#000000" stroke-opacity="1" stroke-width="3.2"/>
<circle clip-path="url(#clip822)" cx="448.2" cy="518.87" r="14.4" fill="#009af9" fill-rule="evenodd" fill-opacity="1" stroke="#000000" stroke-opacity="1" stroke-width="3.2"/>
<circle clip-path="url(#clip822)" cx="727.625" cy="681.126" r="14.4" fill="#009af9" fill-rule="evenodd" fill-opacity="1" stroke="#000000" stroke-opacity="1" stroke-width="3.2"/>
<circle clip-path="url(#clip822)" cx="559.97" cy="627.041" r="14.4" fill="#009af9" fill-rule="evenodd" fill-opacity="1" stroke="#000000" stroke-opacity="1" stroke-width="3.2"/>
<circle clip-path="url(#clip822)" cx="671.74" cy="843.383" r="14.4" fill="#009af9" fill-rule="evenodd" fill-opacity="1" stroke="#000000" stroke-opacity="1" stroke-width="3.2"/>
<circle clip-path="url(#clip822)" cx="671.74" cy="627.041" r="14.4" fill="#009af9" fill-rule="evenodd" fill-opacity="1" stroke="#000000" stroke-opacity="1" stroke-width="3.2"/>
<circle clip-path="url(#clip822)" cx="783.51" cy="572.955" r="14.4" fill="#009af9" fill-rule="evenodd" fill-opacity="1" stroke="#000000" stroke-opacity="1" stroke-width="3.2"/>
<circle clip-path="url(#clip822)" cx="783.51" cy="627.041" r="14.4" fill="#009af9" fill-rule="evenodd" fill-opacity="1" stroke="#000000" stroke-opacity="1" stroke-width="3.2"/>
<circle clip-path="url(#clip822)" cx="504.085" cy="735.212" r="14.4" fill="#009af9" fill-rule="evenodd" fill-opacity="1" stroke="#000000" stroke-opacity="1" stroke-width="3.2"/>
<circle clip-path="url(#clip822)" cx="559.97" cy="789.297" r="14.4" fill="#009af9" fill-rule="evenodd" fill-opacity="1" stroke="#000000" stroke-opacity="1" stroke-width="3.2"/>
<circle clip-path="url(#clip822)" cx="895.279" cy="627.041" r="14.4" fill="#009af9" fill-rule="evenodd" fill-opacity="1" stroke="#000000" stroke-opacity="1" stroke-width="3.2"/>
<circle clip-path="url(#clip822)" cx="783.51" cy="248.442" r="14.4" fill="#009af9" fill-rule="evenodd" fill-opacity="1" stroke="#000000" stroke-opacity="1" stroke-width="3.2"/>
<circle clip-path="url(#clip822)" cx="951.164" cy="194.357" r="14.4" fill="#009af9" fill-rule="evenodd" fill-opacity="1" stroke="#000000" stroke-opacity="1" stroke-width="3.2"/>
<circle clip-path="url(#clip822)" cx="615.855" cy="789.297" r="14.4" fill="#009af9" fill-rule="evenodd" fill-opacity="1" stroke="#000000" stroke-opacity="1" stroke-width="3.2"/>
<circle clip-path="url(#clip822)" cx="671.74" cy="735.212" r="14.4" fill="#009af9" fill-rule="evenodd" fill-opacity="1" stroke="#000000" stroke-opacity="1" stroke-width="3.2"/>
<circle clip-path="url(#clip822)" cx="951.164" cy="572.955" r="14.4" fill="#009af9" fill-rule="evenodd" fill-opacity="1" stroke="#000000" stroke-opacity="1" stroke-width="3.2"/>
<circle clip-path="url(#clip822)" cx="615.855" cy="518.87" r="14.4" fill="#009af9" fill-rule="evenodd" fill-opacity="1" stroke="#000000" stroke-opacity="1" stroke-width="3.2"/>
<circle clip-path="url(#clip822)" cx="336.431" cy="843.383" r="14.4" fill="#009af9" fill-rule="evenodd" fill-opacity="1" stroke="#000000" stroke-opacity="1" stroke-width="3.2"/>
<circle clip-path="url(#clip822)" cx="727.625" cy="627.041" r="14.4" fill="#009af9" fill-rule="evenodd" fill-opacity="1" stroke="#000000" stroke-opacity="1" stroke-width="3.2"/>
<circle clip-path="url(#clip822)" cx="671.74" cy="572.955" r="14.4" fill="#009af9" fill-rule="evenodd" fill-opacity="1" stroke="#000000" stroke-opacity="1" stroke-width="3.2"/>
<circle clip-path="url(#clip822)" cx="392.316" cy="1221.98" r="14.4" fill="#009af9" fill-rule="evenodd" fill-opacity="1" stroke="#000000" stroke-opacity="1" stroke-width="3.2"/>
<circle clip-path="url(#clip822)" cx="336.431" cy="735.212" r="14.4" fill="#009af9" fill-rule="evenodd" fill-opacity="1" stroke="#000000" stroke-opacity="1" stroke-width="3.2"/>
<circle clip-path="url(#clip822)" cx="671.74" cy="572.955" r="14.4" fill="#009af9" fill-rule="evenodd" fill-opacity="1" stroke="#000000" stroke-opacity="1" stroke-width="3.2"/>
<circle clip-path="url(#clip822)" cx="727.625" cy="410.699" r="14.4" fill="#009af9" fill-rule="evenodd" fill-opacity="1" stroke="#000000" stroke-opacity="1" stroke-width="3.2"/>
<circle clip-path="url(#clip822)" cx="559.97" cy="843.383" r="14.4" fill="#009af9" fill-rule="evenodd" fill-opacity="1" stroke="#000000" stroke-opacity="1" stroke-width="3.2"/>
<circle clip-path="url(#clip822)" cx="727.625" cy="410.699" r="14.4" fill="#009af9" fill-rule="evenodd" fill-opacity="1" stroke="#000000" stroke-opacity="1" stroke-width="3.2"/>
<circle clip-path="url(#clip822)" cx="448.2" cy="735.212" r="14.4" fill="#009af9" fill-rule="evenodd" fill-opacity="1" stroke="#000000" stroke-opacity="1" stroke-width="3.2"/>
<circle clip-path="url(#clip822)" cx="839.394" cy="464.784" r="14.4" fill="#009af9" fill-rule="evenodd" fill-opacity="1" stroke="#000000" stroke-opacity="1" stroke-width="3.2"/>
<circle clip-path="url(#clip822)" cx="671.74" cy="681.126" r="14.4" fill="#009af9" fill-rule="evenodd" fill-opacity="1" stroke="#000000" stroke-opacity="1" stroke-width="3.2"/>
<circle clip-path="url(#clip822)" cx="1789.44" cy="735.212" r="14.4" fill="#009af9" fill-rule="evenodd" fill-opacity="1" stroke="#000000" stroke-opacity="1" stroke-width="3.2"/>
<circle clip-path="url(#clip822)" cx="1454.13" cy="735.212" r="14.4" fill="#009af9" fill-rule="evenodd" fill-opacity="1" stroke="#000000" stroke-opacity="1" stroke-width="3.2"/>
<circle clip-path="url(#clip822)" cx="1733.55" cy="789.297" r="14.4" fill="#009af9" fill-rule="evenodd" fill-opacity="1" stroke="#000000" stroke-opacity="1" stroke-width="3.2"/>
<circle clip-path="url(#clip822)" cx="951.164" cy="1221.98" r="14.4" fill="#009af9" fill-rule="evenodd" fill-opacity="1" stroke="#000000" stroke-opacity="1" stroke-width="3.2"/>
<circle clip-path="url(#clip822)" cx="1510.01" cy="951.554" r="14.4" fill="#009af9" fill-rule="evenodd" fill-opacity="1" stroke="#000000" stroke-opacity="1" stroke-width="3.2"/>
<circle clip-path="url(#clip822)" cx="1062.93" cy="951.554" r="14.4" fill="#009af9" fill-rule="evenodd" fill-opacity="1" stroke="#000000" stroke-opacity="1" stroke-width="3.2"/>
<circle clip-path="url(#clip822)" cx="1398.24" cy="681.126" r="14.4" fill="#009af9" fill-rule="evenodd" fill-opacity="1" stroke="#000000" stroke-opacity="1" stroke-width="3.2"/>
<circle clip-path="url(#clip822)" cx="615.855" cy="1167.9" r="14.4" fill="#009af9" fill-rule="evenodd" fill-opacity="1" stroke="#000000" stroke-opacity="1" stroke-width="3.2"/>
<circle clip-path="url(#clip822)" cx="1565.9" cy="897.469" r="14.4" fill="#009af9" fill-rule="evenodd" fill-opacity="1" stroke="#000000" stroke-opacity="1" stroke-width="3.2"/>
<circle clip-path="url(#clip822)" cx="783.51" cy="1005.64" r="14.4" fill="#009af9" fill-rule="evenodd" fill-opacity="1" stroke="#000000" stroke-opacity="1" stroke-width="3.2"/>
<circle clip-path="url(#clip822)" cx="671.74" cy="1384.24" r="14.4" fill="#009af9" fill-rule="evenodd" fill-opacity="1" stroke="#000000" stroke-opacity="1" stroke-width="3.2"/>
<circle clip-path="url(#clip822)" cx="1174.7" cy="843.383" r="14.4" fill="#009af9" fill-rule="evenodd" fill-opacity="1" stroke="#000000" stroke-opacity="1" stroke-width="3.2"/>
<circle clip-path="url(#clip822)" cx="1230.59" cy="1276.07" r="14.4" fill="#009af9" fill-rule="evenodd" fill-opacity="1" stroke="#000000" stroke-opacity="1" stroke-width="3.2"/>
<circle clip-path="url(#clip822)" cx="1286.47" cy="897.469" r="14.4" fill="#009af9" fill-rule="evenodd" fill-opacity="1" stroke="#000000" stroke-opacity="1" stroke-width="3.2"/>
<circle clip-path="url(#clip822)" cx="1007.05" cy="897.469" r="14.4" fill="#009af9" fill-rule="evenodd" fill-opacity="1" stroke="#000000" stroke-opacity="1" stroke-width="3.2"/>
<circle clip-path="url(#clip822)" cx="1621.78" cy="789.297" r="14.4" fill="#009af9" fill-rule="evenodd" fill-opacity="1" stroke="#000000" stroke-opacity="1" stroke-width="3.2"/>
<circle clip-path="url(#clip822)" cx="1007.05" cy="843.383" r="14.4" fill="#009af9" fill-rule="evenodd" fill-opacity="1" stroke="#000000" stroke-opacity="1" stroke-width="3.2"/>
<circle clip-path="url(#clip822)" cx="1118.82" cy="1005.64" r="14.4" fill="#009af9" fill-rule="evenodd" fill-opacity="1" stroke="#000000" stroke-opacity="1" stroke-width="3.2"/>
<circle clip-path="url(#clip822)" cx="1342.36" cy="1276.07" r="14.4" fill="#009af9" fill-rule="evenodd" fill-opacity="1" stroke="#000000" stroke-opacity="1" stroke-width="3.2"/>
<circle clip-path="url(#clip822)" cx="1007.05" cy="1113.81" r="14.4" fill="#009af9" fill-rule="evenodd" fill-opacity="1" stroke="#000000" stroke-opacity="1" stroke-width="3.2"/>
<circle clip-path="url(#clip822)" cx="1174.7" cy="735.212" r="14.4" fill="#009af9" fill-rule="evenodd" fill-opacity="1" stroke="#000000" stroke-opacity="1" stroke-width="3.2"/>
<circle clip-path="url(#clip822)" cx="1286.47" cy="951.554" r="14.4" fill="#009af9" fill-rule="evenodd" fill-opacity="1" stroke="#000000" stroke-opacity="1" stroke-width="3.2"/>
<circle clip-path="url(#clip822)" cx="1398.24" cy="1113.81" r="14.4" fill="#009af9" fill-rule="evenodd" fill-opacity="1" stroke="#000000" stroke-opacity="1" stroke-width="3.2"/>
<circle clip-path="url(#clip822)" cx="1286.47" cy="951.554" r="14.4" fill="#009af9" fill-rule="evenodd" fill-opacity="1" stroke="#000000" stroke-opacity="1" stroke-width="3.2"/>
<circle clip-path="url(#clip822)" cx="1454.13" cy="897.469" r="14.4" fill="#009af9" fill-rule="evenodd" fill-opacity="1" stroke="#000000" stroke-opacity="1" stroke-width="3.2"/>
<circle clip-path="url(#clip822)" cx="1565.9" cy="843.383" r="14.4" fill="#009af9" fill-rule="evenodd" fill-opacity="1" stroke="#000000" stroke-opacity="1" stroke-width="3.2"/>
<circle clip-path="url(#clip822)" cx="1677.67" cy="951.554" r="14.4" fill="#009af9" fill-rule="evenodd" fill-opacity="1" stroke="#000000" stroke-opacity="1" stroke-width="3.2"/>
<circle clip-path="url(#clip822)" cx="1621.78" cy="843.383" r="14.4" fill="#009af9" fill-rule="evenodd" fill-opacity="1" stroke="#000000" stroke-opacity="1" stroke-width="3.2"/>
<circle clip-path="url(#clip822)" cx="1230.59" cy="897.469" r="14.4" fill="#009af9" fill-rule="evenodd" fill-opacity="1" stroke="#000000" stroke-opacity="1" stroke-width="3.2"/>
<circle clip-path="url(#clip822)" cx="1062.93" cy="1059.73" r="14.4" fill="#009af9" fill-rule="evenodd" fill-opacity="1" stroke="#000000" stroke-opacity="1" stroke-width="3.2"/>
<circle clip-path="url(#clip822)" cx="951.164" cy="1167.9" r="14.4" fill="#009af9" fill-rule="evenodd" fill-opacity="1" stroke="#000000" stroke-opacity="1" stroke-width="3.2"/>
<circle clip-path="url(#clip822)" cx="951.164" cy="1167.9" r="14.4" fill="#009af9" fill-rule="evenodd" fill-opacity="1" stroke="#000000" stroke-opacity="1" stroke-width="3.2"/>
<circle clip-path="url(#clip822)" cx="1118.82" cy="1005.64" r="14.4" fill="#009af9" fill-rule="evenodd" fill-opacity="1" stroke="#000000" stroke-opacity="1" stroke-width="3.2"/>
<circle clip-path="url(#clip822)" cx="1230.59" cy="1005.64" r="14.4" fill="#009af9" fill-rule="evenodd" fill-opacity="1" stroke="#000000" stroke-opacity="1" stroke-width="3.2"/>
<circle clip-path="url(#clip822)" cx="895.279" cy="843.383" r="14.4" fill="#009af9" fill-rule="evenodd" fill-opacity="1" stroke="#000000" stroke-opacity="1" stroke-width="3.2"/>
<circle clip-path="url(#clip822)" cx="1230.59" cy="627.041" r="14.4" fill="#009af9" fill-rule="evenodd" fill-opacity="1" stroke="#000000" stroke-opacity="1" stroke-width="3.2"/>
<circle clip-path="url(#clip822)" cx="1621.78" cy="789.297" r="14.4" fill="#009af9" fill-rule="evenodd" fill-opacity="1" stroke="#000000" stroke-opacity="1" stroke-width="3.2"/>
<circle clip-path="url(#clip822)" cx="1398.24" cy="1221.98" r="14.4" fill="#009af9" fill-rule="evenodd" fill-opacity="1" stroke="#000000" stroke-opacity="1" stroke-width="3.2"/>
<circle clip-path="url(#clip822)" cx="1007.05" cy="843.383" r="14.4" fill="#009af9" fill-rule="evenodd" fill-opacity="1" stroke="#000000" stroke-opacity="1" stroke-width="3.2"/>
<circle clip-path="url(#clip822)" cx="951.164" cy="1113.81" r="14.4" fill="#009af9" fill-rule="evenodd" fill-opacity="1" stroke="#000000" stroke-opacity="1" stroke-width="3.2"/>
<circle clip-path="url(#clip822)" cx="951.164" cy="1059.73" r="14.4" fill="#009af9" fill-rule="evenodd" fill-opacity="1" stroke="#000000" stroke-opacity="1" stroke-width="3.2"/>
<circle clip-path="url(#clip822)" cx="1286.47" cy="843.383" r="14.4" fill="#009af9" fill-rule="evenodd" fill-opacity="1" stroke="#000000" stroke-opacity="1" stroke-width="3.2"/>
<circle clip-path="url(#clip822)" cx="1118.82" cy="1059.73" r="14.4" fill="#009af9" fill-rule="evenodd" fill-opacity="1" stroke="#000000" stroke-opacity="1" stroke-width="3.2"/>
<circle clip-path="url(#clip822)" cx="671.74" cy="1221.98" r="14.4" fill="#009af9" fill-rule="evenodd" fill-opacity="1" stroke="#000000" stroke-opacity="1" stroke-width="3.2"/>
<circle clip-path="url(#clip822)" cx="1007.05" cy="1005.64" r="14.4" fill="#009af9" fill-rule="evenodd" fill-opacity="1" stroke="#000000" stroke-opacity="1" stroke-width="3.2"/>
<circle clip-path="url(#clip822)" cx="1062.93" cy="843.383" r="14.4" fill="#009af9" fill-rule="evenodd" fill-opacity="1" stroke="#000000" stroke-opacity="1" stroke-width="3.2"/>
<circle clip-path="url(#clip822)" cx="1062.93" cy="897.469" r="14.4" fill="#009af9" fill-rule="evenodd" fill-opacity="1" stroke="#000000" stroke-opacity="1" stroke-width="3.2"/>
<circle clip-path="url(#clip822)" cx="1342.36" cy="897.469" r="14.4" fill="#009af9" fill-rule="evenodd" fill-opacity="1" stroke="#000000" stroke-opacity="1" stroke-width="3.2"/>
<circle clip-path="url(#clip822)" cx="727.625" cy="1113.81" r="14.4" fill="#009af9" fill-rule="evenodd" fill-opacity="1" stroke="#000000" stroke-opacity="1" stroke-width="3.2"/>
<circle clip-path="url(#clip822)" cx="1062.93" cy="951.554" r="14.4" fill="#009af9" fill-rule="evenodd" fill-opacity="1" stroke="#000000" stroke-opacity="1" stroke-width="3.2"/>
<circle clip-path="url(#clip822)" cx="1398.24" cy="681.126" r="14.4" fill="#009af9" fill-rule="evenodd" fill-opacity="1" stroke="#000000" stroke-opacity="1" stroke-width="3.2"/>
<circle clip-path="url(#clip822)" cx="1118.82" cy="1005.64" r="14.4" fill="#009af9" fill-rule="evenodd" fill-opacity="1" stroke="#000000" stroke-opacity="1" stroke-width="3.2"/>
<circle clip-path="url(#clip822)" cx="1845.32" cy="843.383" r="14.4" fill="#009af9" fill-rule="evenodd" fill-opacity="1" stroke="#000000" stroke-opacity="1" stroke-width="3.2"/>
<circle clip-path="url(#clip822)" cx="1398.24" cy="897.469" r="14.4" fill="#009af9" fill-rule="evenodd" fill-opacity="1" stroke="#000000" stroke-opacity="1" stroke-width="3.2"/>
<circle clip-path="url(#clip822)" cx="1510.01" cy="843.383" r="14.4" fill="#009af9" fill-rule="evenodd" fill-opacity="1" stroke="#000000" stroke-opacity="1" stroke-width="3.2"/>
<circle clip-path="url(#clip822)" cx="2124.75" cy="843.383" r="14.4" fill="#009af9" fill-rule="evenodd" fill-opacity="1" stroke="#000000" stroke-opacity="1" stroke-width="3.2"/>
<circle clip-path="url(#clip822)" cx="615.855" cy="1113.81" r="14.4" fill="#009af9" fill-rule="evenodd" fill-opacity="1" stroke="#000000" stroke-opacity="1" stroke-width="3.2"/>
<circle clip-path="url(#clip822)" cx="1957.09" cy="897.469" r="14.4" fill="#009af9" fill-rule="evenodd" fill-opacity="1" stroke="#000000" stroke-opacity="1" stroke-width="3.2"/>
<circle clip-path="url(#clip822)" cx="1621.78" cy="1113.81" r="14.4" fill="#009af9" fill-rule="evenodd" fill-opacity="1" stroke="#000000" stroke-opacity="1" stroke-width="3.2"/>
<circle clip-path="url(#clip822)" cx="1901.21" cy="518.87" r="14.4" fill="#009af9" fill-rule="evenodd" fill-opacity="1" stroke="#000000" stroke-opacity="1" stroke-width="3.2"/>
<circle clip-path="url(#clip822)" cx="1510.01" cy="735.212" r="14.4" fill="#009af9" fill-rule="evenodd" fill-opacity="1" stroke="#000000" stroke-opacity="1" stroke-width="3.2"/>
<circle clip-path="url(#clip822)" cx="1454.13" cy="1005.64" r="14.4" fill="#009af9" fill-rule="evenodd" fill-opacity="1" stroke="#000000" stroke-opacity="1" stroke-width="3.2"/>
<circle clip-path="url(#clip822)" cx="1677.67" cy="843.383" r="14.4" fill="#009af9" fill-rule="evenodd" fill-opacity="1" stroke="#000000" stroke-opacity="1" stroke-width="3.2"/>
<circle clip-path="url(#clip822)" cx="1062.93" cy="1113.81" r="14.4" fill="#009af9" fill-rule="evenodd" fill-opacity="1" stroke="#000000" stroke-opacity="1" stroke-width="3.2"/>
<circle clip-path="url(#clip822)" cx="1118.82" cy="951.554" r="14.4" fill="#009af9" fill-rule="evenodd" fill-opacity="1" stroke="#000000" stroke-opacity="1" stroke-width="3.2"/>
<circle clip-path="url(#clip822)" cx="1454.13" cy="735.212" r="14.4" fill="#009af9" fill-rule="evenodd" fill-opacity="1" stroke="#000000" stroke-opacity="1" stroke-width="3.2"/>
<circle clip-path="url(#clip822)" cx="1510.01" cy="843.383" r="14.4" fill="#009af9" fill-rule="evenodd" fill-opacity="1" stroke="#000000" stroke-opacity="1" stroke-width="3.2"/>
<circle clip-path="url(#clip822)" cx="2180.63" cy="410.699" r="14.4" fill="#009af9" fill-rule="evenodd" fill-opacity="1" stroke="#000000" stroke-opacity="1" stroke-width="3.2"/>
<circle clip-path="url(#clip822)" cx="2180.63" cy="1059.73" r="14.4" fill="#009af9" fill-rule="evenodd" fill-opacity="1" stroke="#000000" stroke-opacity="1" stroke-width="3.2"/>
<circle clip-path="url(#clip822)" cx="1230.59" cy="1276.07" r="14.4" fill="#009af9" fill-rule="evenodd" fill-opacity="1" stroke="#000000" stroke-opacity="1" stroke-width="3.2"/>
<circle clip-path="url(#clip822)" cx="1733.55" cy="735.212" r="14.4" fill="#009af9" fill-rule="evenodd" fill-opacity="1" stroke="#000000" stroke-opacity="1" stroke-width="3.2"/>
<circle clip-path="url(#clip822)" cx="1007.05" cy="951.554" r="14.4" fill="#009af9" fill-rule="evenodd" fill-opacity="1" stroke="#000000" stroke-opacity="1" stroke-width="3.2"/>
<circle clip-path="url(#clip822)" cx="2180.63" cy="951.554" r="14.4" fill="#009af9" fill-rule="evenodd" fill-opacity="1" stroke="#000000" stroke-opacity="1" stroke-width="3.2"/>
<circle clip-path="url(#clip822)" cx="1398.24" cy="1005.64" r="14.4" fill="#009af9" fill-rule="evenodd" fill-opacity="1" stroke="#000000" stroke-opacity="1" stroke-width="3.2"/>
<circle clip-path="url(#clip822)" cx="1621.78" cy="681.126" r="14.4" fill="#009af9" fill-rule="evenodd" fill-opacity="1" stroke="#000000" stroke-opacity="1" stroke-width="3.2"/>
<circle clip-path="url(#clip822)" cx="1901.21" cy="735.212" r="14.4" fill="#009af9" fill-rule="evenodd" fill-opacity="1" stroke="#000000" stroke-opacity="1" stroke-width="3.2"/>
<circle clip-path="url(#clip822)" cx="1342.36" cy="951.554" r="14.4" fill="#009af9" fill-rule="evenodd" fill-opacity="1" stroke="#000000" stroke-opacity="1" stroke-width="3.2"/>
<circle clip-path="url(#clip822)" cx="1286.47" cy="843.383" r="14.4" fill="#009af9" fill-rule="evenodd" fill-opacity="1" stroke="#000000" stroke-opacity="1" stroke-width="3.2"/>
<circle clip-path="url(#clip822)" cx="1454.13" cy="951.554" r="14.4" fill="#009af9" fill-rule="evenodd" fill-opacity="1" stroke="#000000" stroke-opacity="1" stroke-width="3.2"/>
<circle clip-path="url(#clip822)" cx="1901.21" cy="843.383" r="14.4" fill="#009af9" fill-rule="evenodd" fill-opacity="1" stroke="#000000" stroke-opacity="1" stroke-width="3.2"/>
<circle clip-path="url(#clip822)" cx="2012.98" cy="951.554" r="14.4" fill="#009af9" fill-rule="evenodd" fill-opacity="1" stroke="#000000" stroke-opacity="1" stroke-width="3.2"/>
<circle clip-path="url(#clip822)" cx="2292.4" cy="410.699" r="14.4" fill="#009af9" fill-rule="evenodd" fill-opacity="1" stroke="#000000" stroke-opacity="1" stroke-width="3.2"/>
<circle clip-path="url(#clip822)" cx="1454.13" cy="951.554" r="14.4" fill="#009af9" fill-rule="evenodd" fill-opacity="1" stroke="#000000" stroke-opacity="1" stroke-width="3.2"/>
<circle clip-path="url(#clip822)" cx="1398.24" cy="951.554" r="14.4" fill="#009af9" fill-rule="evenodd" fill-opacity="1" stroke="#000000" stroke-opacity="1" stroke-width="3.2"/>
<circle clip-path="url(#clip822)" cx="1286.47" cy="1059.73" r="14.4" fill="#009af9" fill-rule="evenodd" fill-opacity="1" stroke="#000000" stroke-opacity="1" stroke-width="3.2"/>
<circle clip-path="url(#clip822)" cx="2180.63" cy="843.383" r="14.4" fill="#009af9" fill-rule="evenodd" fill-opacity="1" stroke="#000000" stroke-opacity="1" stroke-width="3.2"/>
<circle clip-path="url(#clip822)" cx="1398.24" cy="627.041" r="14.4" fill="#009af9" fill-rule="evenodd" fill-opacity="1" stroke="#000000" stroke-opacity="1" stroke-width="3.2"/>
<circle clip-path="url(#clip822)" cx="1454.13" cy="789.297" r="14.4" fill="#009af9" fill-rule="evenodd" fill-opacity="1" stroke="#000000" stroke-opacity="1" stroke-width="3.2"/>
<circle clip-path="url(#clip822)" cx="1230.59" cy="843.383" r="14.4" fill="#009af9" fill-rule="evenodd" fill-opacity="1" stroke="#000000" stroke-opacity="1" stroke-width="3.2"/>
<circle clip-path="url(#clip822)" cx="1733.55" cy="789.297" r="14.4" fill="#009af9" fill-rule="evenodd" fill-opacity="1" stroke="#000000" stroke-opacity="1" stroke-width="3.2"/>
<circle clip-path="url(#clip822)" cx="1621.78" cy="789.297" r="14.4" fill="#009af9" fill-rule="evenodd" fill-opacity="1" stroke="#000000" stroke-opacity="1" stroke-width="3.2"/>
<circle clip-path="url(#clip822)" cx="1733.55" cy="789.297" r="14.4" fill="#009af9" fill-rule="evenodd" fill-opacity="1" stroke="#000000" stroke-opacity="1" stroke-width="3.2"/>
<circle clip-path="url(#clip822)" cx="1118.82" cy="1005.64" r="14.4" fill="#009af9" fill-rule="evenodd" fill-opacity="1" stroke="#000000" stroke-opacity="1" stroke-width="3.2"/>
<circle clip-path="url(#clip822)" cx="1677.67" cy="735.212" r="14.4" fill="#009af9" fill-rule="evenodd" fill-opacity="1" stroke="#000000" stroke-opacity="1" stroke-width="3.2"/>
<circle clip-path="url(#clip822)" cx="1621.78" cy="681.126" r="14.4" fill="#009af9" fill-rule="evenodd" fill-opacity="1" stroke="#000000" stroke-opacity="1" stroke-width="3.2"/>
<circle clip-path="url(#clip822)" cx="1621.78" cy="843.383" r="14.4" fill="#009af9" fill-rule="evenodd" fill-opacity="1" stroke="#000000" stroke-opacity="1" stroke-width="3.2"/>
<circle clip-path="url(#clip822)" cx="1398.24" cy="1113.81" r="14.4" fill="#009af9" fill-rule="evenodd" fill-opacity="1" stroke="#000000" stroke-opacity="1" stroke-width="3.2"/>
<circle clip-path="url(#clip822)" cx="1510.01" cy="843.383" r="14.4" fill="#009af9" fill-rule="evenodd" fill-opacity="1" stroke="#000000" stroke-opacity="1" stroke-width="3.2"/>
<circle clip-path="url(#clip822)" cx="1342.36" cy="627.041" r="14.4" fill="#009af9" fill-rule="evenodd" fill-opacity="1" stroke="#000000" stroke-opacity="1" stroke-width="3.2"/>
<circle clip-path="url(#clip822)" cx="1174.7" cy="843.383" r="14.4" fill="#009af9" fill-rule="evenodd" fill-opacity="1" stroke="#000000" stroke-opacity="1" stroke-width="3.2"/>
<path clip-path="url(#clip820)" d="M1498.63 196.789 L2281.67 196.789 L2281.67 93.1086 L1498.63 93.1086  Z" fill="#ffffff" fill-rule="evenodd" fill-opacity="1"/>
<polyline clip-path="url(#clip820)" style="stroke:#000000; stroke-linecap:round; stroke-linejoin:round; stroke-width:4; stroke-opacity:1; fill:none" points="1498.63,196.789 2281.67,196.789 2281.67,93.1086 1498.63,93.1086 1498.63,196.789 "/>
<circle clip-path="url(#clip820)" cx="1593.41" cy="144.949" r="20.48" fill="#009af9" fill-rule="evenodd" fill-opacity="1" stroke="#000000" stroke-opacity="1" stroke-width="4.55111"/>
<path clip-path="url(#clip820)" d="M1688.19 147.344 L1700.66 147.344 L1700.66 151.141 L1688.19 151.141 L1688.19 147.344 Z" fill="#000000" fill-rule="nonzero" fill-opacity="1" /><path clip-path="url(#clip820)" d="M1718.05 130.747 Q1714.44 130.747 1712.61 134.312 Q1710.8 137.854 1710.8 144.983 Q1710.8 152.09 1712.61 155.655 Q1714.44 159.196 1718.05 159.196 Q1721.68 159.196 1723.49 155.655 Q1725.32 152.09 1725.32 144.983 Q1725.32 137.854 1723.49 134.312 Q1721.68 130.747 1718.05 130.747 M1718.05 127.044 Q1723.86 127.044 1726.91 131.65 Q1729.99 136.233 1729.99 144.983 Q1729.99 153.71 1726.91 158.317 Q1723.86 162.9 1718.05 162.9 Q1712.24 162.9 1709.16 158.317 Q1706.1 153.71 1706.1 144.983 Q1706.1 136.233 1709.16 131.65 Q1712.24 127.044 1718.05 127.044 Z" fill="#000000" fill-rule="nonzero" fill-opacity="1" /><path clip-path="url(#clip820)" d="M1738.21 156.349 L1743.09 156.349 L1743.09 162.229 L1738.21 162.229 L1738.21 156.349 Z" fill="#000000" fill-rule="nonzero" fill-opacity="1" /><path clip-path="url(#clip820)" d="M1754.09 158.293 L1761.73 158.293 L1761.73 131.928 L1753.42 133.595 L1753.42 129.335 L1761.68 127.669 L1766.36 127.669 L1766.36 158.293 L1774 158.293 L1774 162.229 L1754.09 162.229 L1754.09 158.293 Z" fill="#000000" fill-rule="nonzero" fill-opacity="1" /><path clip-path="url(#clip820)" d="M1784.25 158.293 L1791.89 158.293 L1791.89 131.928 L1783.58 133.595 L1783.58 129.335 L1791.84 127.669 L1796.52 127.669 L1796.52 158.293 L1804.16 158.293 L1804.16 162.229 L1784.25 162.229 L1784.25 158.293 Z" fill="#000000" fill-rule="nonzero" fill-opacity="1" /><path clip-path="url(#clip820)" d="M1812.42 127.669 L1834.64 127.669 L1834.64 129.659 L1822.1 162.229 L1817.21 162.229 L1829.02 131.604 L1812.42 131.604 L1812.42 127.669 Z" fill="#000000" fill-rule="nonzero" fill-opacity="1" /><path clip-path="url(#clip820)" d="M1843.81 127.669 L1862.17 127.669 L1862.17 131.604 L1848.09 131.604 L1848.09 140.076 Q1849.11 139.729 1850.13 139.567 Q1851.15 139.382 1852.17 139.382 Q1857.95 139.382 1861.33 142.553 Q1864.71 145.724 1864.71 151.141 Q1864.71 156.719 1861.24 159.821 Q1857.77 162.9 1851.45 162.9 Q1849.27 162.9 1847.01 162.53 Q1844.76 162.159 1842.35 161.418 L1842.35 156.719 Q1844.44 157.854 1846.66 158.409 Q1848.88 158.965 1851.36 158.965 Q1855.36 158.965 1857.7 156.858 Q1860.04 154.752 1860.04 151.141 Q1860.04 147.53 1857.7 145.423 Q1855.36 143.317 1851.36 143.317 Q1849.48 143.317 1847.61 143.733 Q1845.76 144.15 1843.81 145.03 L1843.81 127.669 Z" fill="#000000" fill-rule="nonzero" fill-opacity="1" /><path clip-path="url(#clip820)" d="M1884.5 143.085 Q1881.36 143.085 1879.51 145.238 Q1877.68 147.391 1877.68 151.141 Q1877.68 154.868 1879.51 157.043 Q1881.36 159.196 1884.5 159.196 Q1887.65 159.196 1889.48 157.043 Q1891.33 154.868 1891.33 151.141 Q1891.33 147.391 1889.48 145.238 Q1887.65 143.085 1884.5 143.085 M1893.79 128.433 L1893.79 132.692 Q1892.03 131.858 1890.22 131.419 Q1888.44 130.979 1886.68 130.979 Q1882.05 130.979 1879.6 134.104 Q1877.17 137.229 1876.82 143.548 Q1878.19 141.534 1880.25 140.469 Q1882.31 139.382 1884.78 139.382 Q1889.99 139.382 1893 142.553 Q1896.03 145.701 1896.03 151.141 Q1896.03 156.465 1892.88 159.682 Q1889.74 162.9 1884.5 162.9 Q1878.51 162.9 1875.34 158.317 Q1872.17 153.71 1872.17 144.983 Q1872.17 136.789 1876.06 131.928 Q1879.94 127.044 1886.5 127.044 Q1888.25 127.044 1890.04 127.391 Q1891.84 127.738 1893.79 128.433 Z" fill="#000000" fill-rule="nonzero" fill-opacity="1" /><path clip-path="url(#clip820)" d="M1904.23 161.511 L1904.23 157.252 Q1905.99 158.085 1907.79 158.525 Q1909.6 158.965 1911.33 158.965 Q1915.96 158.965 1918.39 155.863 Q1920.85 152.738 1921.19 146.395 Q1919.85 148.386 1917.79 149.451 Q1915.73 150.516 1913.23 150.516 Q1908.05 150.516 1905.01 147.391 Q1902 144.243 1902 138.803 Q1902 133.479 1905.15 130.261 Q1908.3 127.044 1913.53 127.044 Q1919.53 127.044 1922.68 131.65 Q1925.85 136.233 1925.85 144.983 Q1925.85 153.155 1921.96 158.039 Q1918.09 162.9 1911.54 162.9 Q1909.78 162.9 1907.98 162.553 Q1906.17 162.205 1904.23 161.511 M1913.53 146.858 Q1916.68 146.858 1918.51 144.706 Q1920.36 142.553 1920.36 138.803 Q1920.36 135.076 1918.51 132.923 Q1916.68 130.747 1913.53 130.747 Q1910.38 130.747 1908.53 132.923 Q1906.7 135.076 1906.7 138.803 Q1906.7 142.553 1908.53 144.706 Q1910.38 146.858 1913.53 146.858 Z" fill="#000000" fill-rule="nonzero" fill-opacity="1" /><path clip-path="url(#clip820)" d="M1933.07 127.669 L1955.29 127.669 L1955.29 129.659 L1942.75 162.229 L1937.86 162.229 L1949.67 131.604 L1933.07 131.604 L1933.07 127.669 Z" fill="#000000" fill-rule="nonzero" fill-opacity="1" /><path clip-path="url(#clip820)" d="M1974.41 145.817 Q1971.08 145.817 1969.16 147.599 Q1967.26 149.381 1967.26 152.506 Q1967.26 155.631 1969.16 157.414 Q1971.08 159.196 1974.41 159.196 Q1977.75 159.196 1979.67 157.414 Q1981.59 155.608 1981.59 152.506 Q1981.59 149.381 1979.67 147.599 Q1977.77 145.817 1974.41 145.817 M1969.74 143.826 Q1966.73 143.085 1965.04 141.025 Q1963.37 138.965 1963.37 136.002 Q1963.37 131.858 1966.31 129.451 Q1969.27 127.044 1974.41 127.044 Q1979.57 127.044 1982.51 129.451 Q1985.45 131.858 1985.45 136.002 Q1985.45 138.965 1983.76 141.025 Q1982.1 143.085 1979.11 143.826 Q1982.49 144.613 1984.37 146.905 Q1986.26 149.196 1986.26 152.506 Q1986.26 157.53 1983.19 160.215 Q1980.13 162.9 1974.41 162.9 Q1968.69 162.9 1965.62 160.215 Q1962.56 157.53 1962.56 152.506 Q1962.56 149.196 1964.46 146.905 Q1966.36 144.613 1969.74 143.826 M1968.02 136.442 Q1968.02 139.127 1969.69 140.632 Q1971.38 142.136 1974.41 142.136 Q1977.42 142.136 1979.11 140.632 Q1980.82 139.127 1980.82 136.442 Q1980.82 133.757 1979.11 132.252 Q1977.42 130.747 1974.41 130.747 Q1971.38 130.747 1969.69 132.252 Q1968.02 133.757 1968.02 136.442 Z" fill="#000000" fill-rule="nonzero" fill-opacity="1" /><path clip-path="url(#clip820)" d="M2007.42 131.743 L1995.62 150.192 L2007.42 150.192 L2007.42 131.743 M2006.19 127.669 L2012.07 127.669 L2012.07 150.192 L2017 150.192 L2017 154.081 L2012.07 154.081 L2012.07 162.229 L2007.42 162.229 L2007.42 154.081 L1991.82 154.081 L1991.82 149.567 L2006.19 127.669 Z" fill="#000000" fill-rule="nonzero" fill-opacity="1" /><path clip-path="url(#clip820)" d="M2025.55 158.293 L2033.18 158.293 L2033.18 131.928 L2024.87 133.595 L2024.87 129.335 L2033.14 127.669 L2037.81 127.669 L2037.81 158.293 L2045.45 158.293 L2045.45 162.229 L2025.55 162.229 L2025.55 158.293 Z" fill="#000000" fill-rule="nonzero" fill-opacity="1" /><path clip-path="url(#clip820)" d="M2069.06 143.594 Q2072.42 144.312 2074.3 146.581 Q2076.19 148.849 2076.19 152.182 Q2076.19 157.298 2072.68 160.099 Q2069.16 162.9 2062.68 162.9 Q2060.5 162.9 2058.18 162.46 Q2055.89 162.043 2053.44 161.187 L2053.44 156.673 Q2055.38 157.807 2057.7 158.386 Q2060.01 158.965 2062.54 158.965 Q2066.93 158.965 2069.23 157.229 Q2071.54 155.493 2071.54 152.182 Q2071.54 149.127 2069.39 147.414 Q2067.26 145.678 2063.44 145.678 L2059.41 145.678 L2059.41 141.835 L2063.62 141.835 Q2067.07 141.835 2068.9 140.469 Q2070.73 139.081 2070.73 136.488 Q2070.73 133.826 2068.83 132.414 Q2066.96 130.979 2063.44 130.979 Q2061.52 130.979 2059.32 131.395 Q2057.12 131.812 2054.48 132.692 L2054.48 128.525 Q2057.14 127.784 2059.46 127.414 Q2061.8 127.044 2063.86 127.044 Q2069.18 127.044 2072.28 129.474 Q2075.38 131.882 2075.38 136.002 Q2075.38 138.872 2073.74 140.863 Q2072.1 142.831 2069.06 143.594 Z" fill="#000000" fill-rule="nonzero" fill-opacity="1" /><path clip-path="url(#clip820)" d="M2099.23 143.594 Q2102.58 144.312 2104.46 146.581 Q2106.36 148.849 2106.36 152.182 Q2106.36 157.298 2102.84 160.099 Q2099.32 162.9 2092.84 162.9 Q2090.66 162.9 2088.35 162.46 Q2086.05 162.043 2083.6 161.187 L2083.6 156.673 Q2085.55 157.807 2087.86 158.386 Q2090.18 158.965 2092.7 158.965 Q2097.1 158.965 2099.39 157.229 Q2101.7 155.493 2101.7 152.182 Q2101.7 149.127 2099.55 147.414 Q2097.42 145.678 2093.6 145.678 L2089.57 145.678 L2089.57 141.835 L2093.79 141.835 Q2097.24 141.835 2099.06 140.469 Q2100.89 139.081 2100.89 136.488 Q2100.89 133.826 2098.99 132.414 Q2097.12 130.979 2093.6 130.979 Q2091.68 130.979 2089.48 131.395 Q2087.28 131.812 2084.64 132.692 L2084.64 128.525 Q2087.3 127.784 2089.62 127.414 Q2091.96 127.044 2094.02 127.044 Q2099.34 127.044 2102.44 129.474 Q2105.55 131.882 2105.55 136.002 Q2105.55 138.872 2103.9 140.863 Q2102.26 142.831 2099.23 143.594 Z" fill="#000000" fill-rule="nonzero" fill-opacity="1" /><path clip-path="url(#clip820)" d="M2125.22 130.747 Q2121.61 130.747 2119.78 134.312 Q2117.98 137.854 2117.98 144.983 Q2117.98 152.09 2119.78 155.655 Q2121.61 159.196 2125.22 159.196 Q2128.86 159.196 2130.66 155.655 Q2132.49 152.09 2132.49 144.983 Q2132.49 137.854 2130.66 134.312 Q2128.86 130.747 2125.22 130.747 M2125.22 127.044 Q2131.03 127.044 2134.09 131.65 Q2137.17 136.233 2137.17 144.983 Q2137.17 153.71 2134.09 158.317 Q2131.03 162.9 2125.22 162.9 Q2119.41 162.9 2116.33 158.317 Q2113.28 153.71 2113.28 144.983 Q2113.28 136.233 2116.33 131.65 Q2119.41 127.044 2125.22 127.044 Z" fill="#000000" fill-rule="nonzero" fill-opacity="1" /><path clip-path="url(#clip820)" d="M2155.38 130.747 Q2151.77 130.747 2149.94 134.312 Q2148.14 137.854 2148.14 144.983 Q2148.14 152.09 2149.94 155.655 Q2151.77 159.196 2155.38 159.196 Q2159.02 159.196 2160.82 155.655 Q2162.65 152.09 2162.65 144.983 Q2162.65 137.854 2160.82 134.312 Q2159.02 130.747 2155.38 130.747 M2155.38 127.044 Q2161.19 127.044 2164.25 131.65 Q2167.33 136.233 2167.33 144.983 Q2167.33 153.71 2164.25 158.317 Q2161.19 162.9 2155.38 162.9 Q2149.57 162.9 2146.49 158.317 Q2143.44 153.71 2143.44 144.983 Q2143.44 136.233 2146.49 131.65 Q2149.57 127.044 2155.38 127.044 Z" fill="#000000" fill-rule="nonzero" fill-opacity="1" /><path clip-path="url(#clip820)" d="M2179.57 158.293 L2195.89 158.293 L2195.89 162.229 L2173.95 162.229 L2173.95 158.293 Q2176.61 155.539 2181.19 150.909 Q2185.8 146.256 2186.98 144.914 Q2189.23 142.391 2190.11 140.655 Q2191.01 138.895 2191.01 137.206 Q2191.01 134.451 2189.06 132.715 Q2187.14 130.979 2184.04 130.979 Q2181.84 130.979 2179.39 131.743 Q2176.96 132.507 2174.18 134.057 L2174.18 129.335 Q2177 128.201 2179.46 127.622 Q2181.91 127.044 2183.95 127.044 Q2189.32 127.044 2192.51 129.729 Q2195.71 132.414 2195.71 136.905 Q2195.71 139.034 2194.9 140.956 Q2194.11 142.854 2192 145.446 Q2191.42 146.118 2188.32 149.335 Q2185.22 152.53 2179.57 158.293 Z" fill="#000000" fill-rule="nonzero" fill-opacity="1" /><path clip-path="url(#clip820)" d="M2215.71 130.747 Q2212.1 130.747 2210.27 134.312 Q2208.46 137.854 2208.46 144.983 Q2208.46 152.09 2210.27 155.655 Q2212.1 159.196 2215.71 159.196 Q2219.34 159.196 2221.15 155.655 Q2222.98 152.09 2222.98 144.983 Q2222.98 137.854 2221.15 134.312 Q2219.34 130.747 2215.71 130.747 M2215.71 127.044 Q2221.52 127.044 2224.57 131.65 Q2227.65 136.233 2227.65 144.983 Q2227.65 153.71 2224.57 158.317 Q2221.52 162.9 2215.71 162.9 Q2209.9 162.9 2206.82 158.317 Q2203.76 153.71 2203.76 144.983 Q2203.76 136.233 2206.82 131.65 Q2209.9 127.044 2215.71 127.044 Z" fill="#000000" fill-rule="nonzero" fill-opacity="1" /><path clip-path="url(#clip820)" d="M2246.45 143.085 Q2243.3 143.085 2241.45 145.238 Q2239.62 147.391 2239.62 151.141 Q2239.62 154.868 2241.45 157.043 Q2243.3 159.196 2246.45 159.196 Q2249.6 159.196 2251.42 157.043 Q2253.28 154.868 2253.28 151.141 Q2253.28 147.391 2251.42 145.238 Q2249.6 143.085 2246.45 143.085 M2255.73 128.433 L2255.73 132.692 Q2253.97 131.858 2252.17 131.419 Q2250.38 130.979 2248.62 130.979 Q2243.99 130.979 2241.54 134.104 Q2239.11 137.229 2238.76 143.548 Q2240.13 141.534 2242.19 140.469 Q2244.25 139.382 2246.73 139.382 Q2251.93 139.382 2254.94 142.553 Q2257.98 145.701 2257.98 151.141 Q2257.98 156.465 2254.83 159.682 Q2251.68 162.9 2246.45 162.9 Q2240.45 162.9 2237.28 158.317 Q2234.11 153.71 2234.11 144.983 Q2234.11 136.789 2238 131.928 Q2241.89 127.044 2248.44 127.044 Q2250.2 127.044 2251.98 127.391 Q2253.79 127.738 2255.73 128.433 Z" fill="#000000" fill-rule="nonzero" fill-opacity="1" /></svg>
