<?xml version="1.0" encoding="utf-8"?>
<svg xmlns="http://www.w3.org/2000/svg" xmlns:xlink="http://www.w3.org/1999/xlink" width="600" height="400" viewBox="0 0 2400 1600">
<defs>
  <clipPath id="clip710">
    <rect x="0" y="0" width="2400" height="1600"/>
  </clipPath>
</defs>
<path clip-path="url(#clip710)" d="M0 1600 L2400 1600 L2400 0 L0 0  Z" fill="#ffffff" fill-rule="evenodd" fill-opacity="1"/>
<defs>
  <clipPath id="clip711">
    <rect x="480" y="0" width="1681" height="1600"/>
  </clipPath>
</defs>
<path clip-path="url(#clip710)" d="M219.033 1423.18 L2352.76 1423.18 L2352.76 47.2441 L219.033 47.2441  Z" fill="#ffffff" fill-rule="evenodd" fill-opacity="1"/>
<defs>
  <clipPath id="clip712">
    <rect x="219" y="47" width="2135" height="1377"/>
  </clipPath>
</defs>
<polyline clip-path="url(#clip712)" style="stroke:#000000; stroke-linecap:round; stroke-linejoin:round; stroke-width:2; stroke-opacity:0.1; fill:none" points="670.828,1423.18 670.828,47.2441 "/>
<polyline clip-path="url(#clip712)" style="stroke:#000000; stroke-linecap:round; stroke-linejoin:round; stroke-width:2; stroke-opacity:0.1; fill:none" points="1229.98,1423.18 1229.98,47.2441 "/>
<polyline clip-path="url(#clip712)" style="stroke:#000000; stroke-linecap:round; stroke-linejoin:round; stroke-width:2; stroke-opacity:0.1; fill:none" points="1789.13,1423.18 1789.13,47.2441 "/>
<polyline clip-path="url(#clip712)" style="stroke:#000000; stroke-linecap:round; stroke-linejoin:round; stroke-width:2; stroke-opacity:0.1; fill:none" points="2348.28,1423.18 2348.28,47.2441 "/>
<polyline clip-path="url(#clip710)" style="stroke:#000000; stroke-linecap:round; stroke-linejoin:round; stroke-width:4; stroke-opacity:1; fill:none" points="219.033,1423.18 2352.76,1423.18 "/>
<polyline clip-path="url(#clip710)" style="stroke:#000000; stroke-linecap:round; stroke-linejoin:round; stroke-width:4; stroke-opacity:1; fill:none" points="670.828,1423.18 670.828,1404.28 "/>
<polyline clip-path="url(#clip710)" style="stroke:#000000; stroke-linecap:round; stroke-linejoin:round; stroke-width:4; stroke-opacity:1; fill:none" points="1229.98,1423.18 1229.98,1404.28 "/>
<polyline clip-path="url(#clip710)" style="stroke:#000000; stroke-linecap:round; stroke-linejoin:round; stroke-width:4; stroke-opacity:1; fill:none" points="1789.13,1423.18 1789.13,1404.28 "/>
<polyline clip-path="url(#clip710)" style="stroke:#000000; stroke-linecap:round; stroke-linejoin:round; stroke-width:4; stroke-opacity:1; fill:none" points="2348.28,1423.18 2348.28,1404.28 "/>
<path clip-path="url(#clip710)" d="M661.105 1451.02 L679.462 1451.02 L679.462 1454.96 L665.388 1454.96 L665.388 1463.43 Q666.406 1463.08 667.425 1462.92 Q668.443 1462.73 669.462 1462.73 Q675.249 1462.73 678.628 1465.9 Q682.008 1469.08 682.008 1474.49 Q682.008 1480.07 678.536 1483.17 Q675.064 1486.25 668.744 1486.25 Q666.568 1486.25 664.3 1485.88 Q662.054 1485.51 659.647 1484.77 L659.647 1480.07 Q661.73 1481.2 663.953 1481.76 Q666.175 1482.32 668.652 1482.32 Q672.656 1482.32 674.994 1480.21 Q677.332 1478.1 677.332 1474.49 Q677.332 1470.88 674.994 1468.77 Q672.656 1466.67 668.652 1466.67 Q666.777 1466.67 664.902 1467.08 Q663.05 1467.5 661.105 1468.38 L661.105 1451.02 Z" fill="#000000" fill-rule="nonzero" fill-opacity="1" /><path clip-path="url(#clip710)" d="M1230.38 1466.44 Q1227.24 1466.44 1225.38 1468.59 Q1223.56 1470.74 1223.56 1474.49 Q1223.56 1478.22 1225.38 1480.39 Q1227.24 1482.55 1230.38 1482.55 Q1233.53 1482.55 1235.36 1480.39 Q1237.21 1478.22 1237.21 1474.49 Q1237.21 1470.74 1235.36 1468.59 Q1233.53 1466.44 1230.38 1466.44 M1239.67 1451.78 L1239.67 1456.04 Q1237.91 1455.21 1236.1 1454.77 Q1234.32 1454.33 1232.56 1454.33 Q1227.93 1454.33 1225.48 1457.45 Q1223.05 1460.58 1222.7 1466.9 Q1224.06 1464.89 1226.13 1463.82 Q1228.19 1462.73 1230.66 1462.73 Q1235.87 1462.73 1238.88 1465.9 Q1241.91 1469.05 1241.91 1474.49 Q1241.91 1479.82 1238.76 1483.03 Q1235.62 1486.25 1230.38 1486.25 Q1224.39 1486.25 1221.22 1481.67 Q1218.05 1477.06 1218.05 1468.33 Q1218.05 1460.14 1221.94 1455.28 Q1225.82 1450.39 1232.38 1450.39 Q1234.13 1450.39 1235.92 1450.74 Q1237.72 1451.09 1239.67 1451.78 Z" fill="#000000" fill-rule="nonzero" fill-opacity="1" /><path clip-path="url(#clip710)" d="M1778.02 1451.02 L1800.24 1451.02 L1800.24 1453.01 L1787.7 1485.58 L1782.81 1485.58 L1794.62 1454.96 L1778.02 1454.96 L1778.02 1451.02 Z" fill="#000000" fill-rule="nonzero" fill-opacity="1" /><path clip-path="url(#clip710)" d="M2348.28 1469.17 Q2344.95 1469.17 2343.03 1470.95 Q2341.13 1472.73 2341.13 1475.86 Q2341.13 1478.98 2343.03 1480.77 Q2344.95 1482.55 2348.28 1482.55 Q2351.62 1482.55 2353.54 1480.77 Q2355.46 1478.96 2355.46 1475.86 Q2355.46 1472.73 2353.54 1470.95 Q2351.64 1469.17 2348.28 1469.17 M2343.61 1467.18 Q2340.6 1466.44 2338.91 1464.38 Q2337.24 1462.32 2337.24 1459.35 Q2337.24 1455.21 2340.18 1452.8 Q2343.14 1450.39 2348.28 1450.39 Q2353.44 1450.39 2356.38 1452.8 Q2359.32 1455.21 2359.32 1459.35 Q2359.32 1462.32 2357.63 1464.38 Q2355.97 1466.44 2352.98 1467.18 Q2356.36 1467.96 2358.24 1470.26 Q2360.13 1472.55 2360.13 1475.86 Q2360.13 1480.88 2357.06 1483.57 Q2354 1486.25 2348.28 1486.25 Q2342.57 1486.25 2339.49 1483.57 Q2336.43 1480.88 2336.43 1475.86 Q2336.43 1472.55 2338.33 1470.26 Q2340.23 1467.96 2343.61 1467.18 M2341.89 1459.79 Q2341.89 1462.48 2343.56 1463.98 Q2345.25 1465.49 2348.28 1465.49 Q2351.29 1465.49 2352.98 1463.98 Q2354.69 1462.48 2354.69 1459.79 Q2354.69 1457.11 2352.98 1455.6 Q2351.29 1454.1 2348.28 1454.1 Q2345.25 1454.1 2343.56 1455.6 Q2341.89 1457.11 2341.89 1459.79 Z" fill="#000000" fill-rule="nonzero" fill-opacity="1" /><path clip-path="url(#clip710)" d="M1108.16 1522.08 L1108.16 1528.35 Q1104.5 1526.6 1101.26 1525.74 Q1098.01 1524.88 1094.99 1524.88 Q1089.74 1524.88 1086.87 1526.92 Q1084.04 1528.96 1084.04 1532.71 Q1084.04 1535.87 1085.92 1537.49 Q1087.83 1539.08 1093.11 1540.07 L1096.99 1540.86 Q1104.19 1542.23 1107.59 1545.7 Q1111.03 1549.14 1111.03 1554.93 Q1111.03 1561.84 1106.38 1565.4 Q1101.77 1568.97 1092.82 1568.97 Q1089.45 1568.97 1085.63 1568.2 Q1081.84 1567.44 1077.77 1565.94 L1077.77 1559.32 Q1081.68 1561.52 1085.44 1562.63 Q1089.19 1563.75 1092.82 1563.75 Q1098.33 1563.75 1101.32 1561.58 Q1104.31 1559.42 1104.31 1555.41 Q1104.31 1551.91 1102.15 1549.93 Q1100.02 1547.96 1095.11 1546.97 L1091.2 1546.21 Q1084.01 1544.78 1080.79 1541.72 Q1077.58 1538.67 1077.58 1533.22 Q1077.58 1526.92 1082 1523.29 Q1086.46 1519.66 1094.25 1519.66 Q1097.6 1519.66 1101.07 1520.27 Q1104.54 1520.87 1108.16 1522.08 Z" fill="#000000" fill-rule="nonzero" fill-opacity="1" /><path clip-path="url(#clip710)" d="M1151.29 1548.76 L1151.29 1551.62 L1124.36 1551.62 Q1124.75 1557.67 1127.99 1560.85 Q1131.27 1564 1137.1 1564 Q1140.47 1564 1143.62 1563.17 Q1146.8 1562.35 1149.92 1560.69 L1149.92 1566.23 Q1146.77 1567.57 1143.46 1568.27 Q1140.15 1568.97 1136.75 1568.97 Q1128.22 1568.97 1123.22 1564 Q1118.25 1559.04 1118.25 1550.57 Q1118.25 1541.82 1122.96 1536.69 Q1127.71 1531.54 1135.73 1531.54 Q1142.92 1531.54 1147.09 1536.18 Q1151.29 1540.8 1151.29 1548.76 M1145.44 1547.04 Q1145.37 1542.23 1142.73 1539.37 Q1140.12 1536.5 1135.79 1536.5 Q1130.89 1536.5 1127.93 1539.27 Q1125 1542.04 1124.56 1547.07 L1145.44 1547.04 Z" fill="#000000" fill-rule="nonzero" fill-opacity="1" /><path clip-path="url(#clip710)" d="M1166.57 1562.7 L1166.57 1581.6 L1160.68 1581.6 L1160.68 1532.4 L1166.57 1532.4 L1166.57 1537.81 Q1168.42 1534.62 1171.22 1533.1 Q1174.05 1531.54 1177.96 1531.54 Q1184.46 1531.54 1188.5 1536.69 Q1192.57 1541.85 1192.57 1550.25 Q1192.57 1558.65 1188.5 1563.81 Q1184.46 1568.97 1177.96 1568.97 Q1174.05 1568.97 1171.22 1567.44 Q1168.42 1565.88 1166.57 1562.7 M1186.49 1550.25 Q1186.49 1543.79 1183.82 1540.13 Q1181.18 1536.44 1176.53 1536.44 Q1171.88 1536.44 1169.21 1540.13 Q1166.57 1543.79 1166.57 1550.25 Q1166.57 1556.71 1169.21 1560.4 Q1171.88 1564.07 1176.53 1564.07 Q1181.18 1564.07 1183.82 1560.4 Q1186.49 1556.71 1186.49 1550.25 Z" fill="#000000" fill-rule="nonzero" fill-opacity="1" /><path clip-path="url(#clip710)" d="M1218.48 1550.12 Q1211.38 1550.12 1208.65 1551.75 Q1205.91 1553.37 1205.91 1557.29 Q1205.91 1560.4 1207.95 1562.25 Q1210.02 1564.07 1213.55 1564.07 Q1218.42 1564.07 1221.35 1560.63 Q1224.31 1557.16 1224.31 1551.43 L1224.31 1550.12 L1218.48 1550.12 M1230.16 1547.71 L1230.16 1568.04 L1224.31 1568.04 L1224.31 1562.63 Q1222.3 1565.88 1219.31 1567.44 Q1216.32 1568.97 1211.99 1568.97 Q1206.51 1568.97 1203.27 1565.91 Q1200.05 1562.82 1200.05 1557.67 Q1200.05 1551.65 1204.06 1548.6 Q1208.11 1545.54 1216.09 1545.54 L1224.31 1545.54 L1224.31 1544.97 Q1224.31 1540.93 1221.63 1538.73 Q1218.99 1536.5 1214.18 1536.5 Q1211.13 1536.5 1208.23 1537.23 Q1205.34 1537.97 1202.66 1539.43 L1202.66 1534.02 Q1205.88 1532.78 1208.9 1532.17 Q1211.92 1531.54 1214.79 1531.54 Q1222.52 1531.54 1226.34 1535.55 Q1230.16 1539.56 1230.16 1547.71 Z" fill="#000000" fill-rule="nonzero" fill-opacity="1" /><path clip-path="url(#clip710)" d="M1242.23 1518.52 L1248.08 1518.52 L1248.08 1568.04 L1242.23 1568.04 L1242.23 1518.52 Z" fill="#000000" fill-rule="nonzero" fill-opacity="1" /><path clip-path="url(#clip710)" d="M1281.31 1520.52 L1287.74 1520.52 L1287.74 1562.63 L1310.88 1562.63 L1310.88 1568.04 L1281.31 1568.04 L1281.31 1520.52 Z" fill="#000000" fill-rule="nonzero" fill-opacity="1" /><path clip-path="url(#clip710)" d="M1346.72 1548.76 L1346.72 1551.62 L1319.79 1551.62 Q1320.17 1557.67 1323.42 1560.85 Q1326.7 1564 1332.52 1564 Q1335.9 1564 1339.05 1563.17 Q1342.23 1562.35 1345.35 1560.69 L1345.35 1566.23 Q1342.2 1567.57 1338.89 1568.27 Q1335.58 1568.97 1332.17 1568.97 Q1323.64 1568.97 1318.65 1564 Q1313.68 1559.04 1313.68 1550.57 Q1313.68 1541.82 1318.39 1536.69 Q1323.13 1531.54 1331.15 1531.54 Q1338.35 1531.54 1342.52 1536.18 Q1346.72 1540.8 1346.72 1548.76 M1340.86 1547.04 Q1340.8 1542.23 1338.16 1539.37 Q1335.55 1536.5 1331.22 1536.5 Q1326.32 1536.5 1323.36 1539.27 Q1320.43 1542.04 1319.98 1547.07 L1340.86 1547.04 Z" fill="#000000" fill-rule="nonzero" fill-opacity="1" /><path clip-path="url(#clip710)" d="M1385.96 1546.53 L1385.96 1568.04 L1380.11 1568.04 L1380.11 1546.72 Q1380.11 1541.66 1378.13 1539.14 Q1376.16 1536.63 1372.21 1536.63 Q1367.47 1536.63 1364.73 1539.65 Q1362 1542.68 1362 1547.9 L1362 1568.04 L1356.11 1568.04 L1356.11 1532.4 L1362 1532.4 L1362 1537.93 Q1364.1 1534.72 1366.93 1533.13 Q1369.79 1531.54 1373.52 1531.54 Q1379.66 1531.54 1382.81 1535.36 Q1385.96 1539.14 1385.96 1546.53 Z" fill="#000000" fill-rule="nonzero" fill-opacity="1" /><path clip-path="url(#clip710)" d="M1421.1 1549.81 Q1421.1 1543.44 1418.46 1539.94 Q1415.85 1536.44 1411.11 1536.44 Q1406.4 1536.44 1403.76 1539.94 Q1401.15 1543.44 1401.15 1549.81 Q1401.15 1556.14 1403.76 1559.64 Q1406.4 1563.14 1411.11 1563.14 Q1415.85 1563.14 1418.46 1559.64 Q1421.1 1556.14 1421.1 1549.81 M1426.96 1563.62 Q1426.96 1572.72 1422.92 1577.15 Q1418.87 1581.6 1410.53 1581.6 Q1407.45 1581.6 1404.71 1581.13 Q1401.97 1580.68 1399.39 1579.72 L1399.39 1574.03 Q1401.97 1575.43 1404.49 1576.1 Q1407 1576.76 1409.61 1576.76 Q1415.37 1576.76 1418.24 1573.74 Q1421.1 1570.75 1421.1 1564.67 L1421.1 1561.77 Q1419.29 1564.92 1416.46 1566.48 Q1413.62 1568.04 1409.68 1568.04 Q1403.12 1568.04 1399.11 1563.05 Q1395.1 1558.05 1395.1 1549.81 Q1395.1 1541.53 1399.11 1536.53 Q1403.12 1531.54 1409.68 1531.54 Q1413.62 1531.54 1416.46 1533.1 Q1419.29 1534.66 1421.1 1537.81 L1421.1 1532.4 L1426.96 1532.4 L1426.96 1563.62 Z" fill="#000000" fill-rule="nonzero" fill-opacity="1" /><path clip-path="url(#clip710)" d="M1444.81 1522.27 L1444.81 1532.4 L1456.88 1532.4 L1456.88 1536.95 L1444.81 1536.95 L1444.81 1556.3 Q1444.81 1560.66 1445.99 1561.9 Q1447.2 1563.14 1450.86 1563.14 L1456.88 1563.14 L1456.88 1568.04 L1450.86 1568.04 Q1444.08 1568.04 1441.5 1565.53 Q1438.93 1562.98 1438.93 1556.3 L1438.93 1536.95 L1434.63 1536.95 L1434.63 1532.4 L1438.93 1532.4 L1438.93 1522.27 L1444.81 1522.27 Z" fill="#000000" fill-rule="nonzero" fill-opacity="1" /><path clip-path="url(#clip710)" d="M1494.21 1546.53 L1494.21 1568.04 L1488.36 1568.04 L1488.36 1546.72 Q1488.36 1541.66 1486.38 1539.14 Q1484.41 1536.63 1480.46 1536.63 Q1475.72 1536.63 1472.98 1539.65 Q1470.25 1542.68 1470.25 1547.9 L1470.25 1568.04 L1464.36 1568.04 L1464.36 1518.52 L1470.25 1518.52 L1470.25 1537.93 Q1472.35 1534.72 1475.18 1533.13 Q1478.04 1531.54 1481.77 1531.54 Q1487.91 1531.54 1491.06 1535.36 Q1494.21 1539.14 1494.21 1546.53 Z" fill="#000000" fill-rule="nonzero" fill-opacity="1" /><polyline clip-path="url(#clip712)" style="stroke:#000000; stroke-linecap:round; stroke-linejoin:round; stroke-width:2; stroke-opacity:0.1; fill:none" points="219.033,1167.9 2352.76,1167.9 "/>
<polyline clip-path="url(#clip712)" style="stroke:#000000; stroke-linecap:round; stroke-linejoin:round; stroke-width:2; stroke-opacity:0.1; fill:none" points="219.033,897.469 2352.76,897.469 "/>
<polyline clip-path="url(#clip712)" style="stroke:#000000; stroke-linecap:round; stroke-linejoin:round; stroke-width:2; stroke-opacity:0.1; fill:none" points="219.033,627.041 2352.76,627.041 "/>
<polyline clip-path="url(#clip712)" style="stroke:#000000; stroke-linecap:round; stroke-linejoin:round; stroke-width:2; stroke-opacity:0.1; fill:none" points="219.033,356.613 2352.76,356.613 "/>
<polyline clip-path="url(#clip712)" style="stroke:#000000; stroke-linecap:round; stroke-linejoin:round; stroke-width:2; stroke-opacity:0.1; fill:none" points="219.033,86.1857 2352.76,86.1857 "/>
<polyline clip-path="url(#clip710)" style="stroke:#000000; stroke-linecap:round; stroke-linejoin:round; stroke-width:4; stroke-opacity:1; fill:none" points="219.033,1423.18 219.033,47.2441 "/>
<polyline clip-path="url(#clip710)" style="stroke:#000000; stroke-linecap:round; stroke-linejoin:round; stroke-width:4; stroke-opacity:1; fill:none" points="219.033,1167.9 237.931,1167.9 "/>
<polyline clip-path="url(#clip710)" style="stroke:#000000; stroke-linecap:round; stroke-linejoin:round; stroke-width:4; stroke-opacity:1; fill:none" points="219.033,897.469 237.931,897.469 "/>
<polyline clip-path="url(#clip710)" style="stroke:#000000; stroke-linecap:round; stroke-linejoin:round; stroke-width:4; stroke-opacity:1; fill:none" points="219.033,627.041 237.931,627.041 "/>
<polyline clip-path="url(#clip710)" style="stroke:#000000; stroke-linecap:round; stroke-linejoin:round; stroke-width:4; stroke-opacity:1; fill:none" points="219.033,356.613 237.931,356.613 "/>
<polyline clip-path="url(#clip710)" style="stroke:#000000; stroke-linecap:round; stroke-linejoin:round; stroke-width:4; stroke-opacity:1; fill:none" points="219.033,86.1857 237.931,86.1857 "/>
<path clip-path="url(#clip710)" d="M126.853 1153.69 Q123.242 1153.69 121.413 1157.26 Q119.607 1160.8 119.607 1167.93 Q119.607 1175.04 121.413 1178.6 Q123.242 1182.14 126.853 1182.14 Q130.487 1182.14 132.292 1178.6 Q134.121 1175.04 134.121 1167.93 Q134.121 1160.8 132.292 1157.26 Q130.487 1153.69 126.853 1153.69 M126.853 1149.99 Q132.663 1149.99 135.718 1154.6 Q138.797 1159.18 138.797 1167.93 Q138.797 1176.66 135.718 1181.26 Q132.663 1185.85 126.853 1185.85 Q121.043 1185.85 117.964 1181.26 Q114.908 1176.66 114.908 1167.93 Q114.908 1159.18 117.964 1154.6 Q121.043 1149.99 126.853 1149.99 Z" fill="#000000" fill-rule="nonzero" fill-opacity="1" /><path clip-path="url(#clip710)" d="M147.015 1179.3 L151.899 1179.3 L151.899 1185.18 L147.015 1185.18 L147.015 1179.3 Z" fill="#000000" fill-rule="nonzero" fill-opacity="1" /><path clip-path="url(#clip710)" d="M162.13 1150.62 L180.487 1150.62 L180.487 1154.55 L166.413 1154.55 L166.413 1163.02 Q167.431 1162.68 168.45 1162.51 Q169.468 1162.33 170.487 1162.33 Q176.274 1162.33 179.653 1165.5 Q183.033 1168.67 183.033 1174.09 Q183.033 1179.67 179.561 1182.77 Q176.089 1185.85 169.769 1185.85 Q167.593 1185.85 165.325 1185.48 Q163.079 1185.11 160.672 1184.37 L160.672 1179.67 Q162.755 1180.8 164.977 1181.36 Q167.2 1181.91 169.677 1181.91 Q173.681 1181.91 176.019 1179.81 Q178.357 1177.7 178.357 1174.09 Q178.357 1170.48 176.019 1168.37 Q173.681 1166.26 169.677 1166.26 Q167.802 1166.26 165.927 1166.68 Q164.075 1167.1 162.13 1167.98 L162.13 1150.62 Z" fill="#000000" fill-rule="nonzero" fill-opacity="1" /><path clip-path="url(#clip710)" d="M116.668 910.813 L124.306 910.813 L124.306 884.448 L115.996 886.114 L115.996 881.855 L124.26 880.189 L128.936 880.189 L128.936 910.813 L136.575 910.813 L136.575 914.749 L116.668 914.749 L116.668 910.813 Z" fill="#000000" fill-rule="nonzero" fill-opacity="1" /><path clip-path="url(#clip710)" d="M146.019 908.869 L150.903 908.869 L150.903 914.749 L146.019 914.749 L146.019 908.869 Z" fill="#000000" fill-rule="nonzero" fill-opacity="1" /><path clip-path="url(#clip710)" d="M171.089 883.267 Q167.477 883.267 165.649 886.832 Q163.843 890.374 163.843 897.503 Q163.843 904.61 165.649 908.175 Q167.477 911.716 171.089 911.716 Q174.723 911.716 176.528 908.175 Q178.357 904.61 178.357 897.503 Q178.357 890.374 176.528 886.832 Q174.723 883.267 171.089 883.267 M171.089 879.564 Q176.899 879.564 179.954 884.17 Q183.033 888.753 183.033 897.503 Q183.033 906.23 179.954 910.837 Q176.899 915.42 171.089 915.42 Q165.278 915.42 162.2 910.837 Q159.144 906.23 159.144 897.503 Q159.144 888.753 162.2 884.17 Q165.278 879.564 171.089 879.564 Z" fill="#000000" fill-rule="nonzero" fill-opacity="1" /><path clip-path="url(#clip710)" d="M117.663 640.386 L125.302 640.386 L125.302 614.02 L116.992 615.687 L116.992 611.428 L125.255 609.761 L129.931 609.761 L129.931 640.386 L137.57 640.386 L137.57 644.321 L117.663 644.321 L117.663 640.386 Z" fill="#000000" fill-rule="nonzero" fill-opacity="1" /><path clip-path="url(#clip710)" d="M147.015 638.441 L151.899 638.441 L151.899 644.321 L147.015 644.321 L147.015 638.441 Z" fill="#000000" fill-rule="nonzero" fill-opacity="1" /><path clip-path="url(#clip710)" d="M162.13 609.761 L180.487 609.761 L180.487 613.696 L166.413 613.696 L166.413 622.168 Q167.431 621.821 168.45 621.659 Q169.468 621.474 170.487 621.474 Q176.274 621.474 179.653 624.645 Q183.033 627.816 183.033 633.233 Q183.033 638.812 179.561 641.914 Q176.089 644.992 169.769 644.992 Q167.593 644.992 165.325 644.622 Q163.079 644.251 160.672 643.511 L160.672 638.812 Q162.755 639.946 164.977 640.501 Q167.2 641.057 169.677 641.057 Q173.681 641.057 176.019 638.951 Q178.357 636.844 178.357 633.233 Q178.357 629.622 176.019 627.515 Q173.681 625.409 169.677 625.409 Q167.802 625.409 165.927 625.826 Q164.075 626.242 162.13 627.122 L162.13 609.761 Z" fill="#000000" fill-rule="nonzero" fill-opacity="1" /><path clip-path="url(#clip710)" d="M119.885 369.958 L136.204 369.958 L136.204 373.893 L114.26 373.893 L114.26 369.958 Q116.922 367.204 121.505 362.574 Q126.112 357.921 127.292 356.579 Q129.538 354.055 130.417 352.319 Q131.32 350.56 131.32 348.87 Q131.32 346.116 129.376 344.38 Q127.455 342.643 124.353 342.643 Q122.154 342.643 119.7 343.407 Q117.269 344.171 114.492 345.722 L114.492 341 Q117.316 339.866 119.769 339.287 Q122.223 338.708 124.26 338.708 Q129.63 338.708 132.825 341.393 Q136.019 344.079 136.019 348.569 Q136.019 350.699 135.209 352.62 Q134.422 354.518 132.316 357.111 Q131.737 357.782 128.635 361 Q125.533 364.194 119.885 369.958 Z" fill="#000000" fill-rule="nonzero" fill-opacity="1" /><path clip-path="url(#clip710)" d="M146.019 368.014 L150.903 368.014 L150.903 373.893 L146.019 373.893 L146.019 368.014 Z" fill="#000000" fill-rule="nonzero" fill-opacity="1" /><path clip-path="url(#clip710)" d="M171.089 342.412 Q167.477 342.412 165.649 345.977 Q163.843 349.518 163.843 356.648 Q163.843 363.754 165.649 367.319 Q167.477 370.861 171.089 370.861 Q174.723 370.861 176.528 367.319 Q178.357 363.754 178.357 356.648 Q178.357 349.518 176.528 345.977 Q174.723 342.412 171.089 342.412 M171.089 338.708 Q176.899 338.708 179.954 343.315 Q183.033 347.898 183.033 356.648 Q183.033 365.375 179.954 369.981 Q176.899 374.565 171.089 374.565 Q165.278 374.565 162.2 369.981 Q159.144 365.375 159.144 356.648 Q159.144 347.898 162.2 343.315 Q165.278 338.708 171.089 338.708 Z" fill="#000000" fill-rule="nonzero" fill-opacity="1" /><path clip-path="url(#clip710)" d="M120.88 99.5305 L137.2 99.5305 L137.2 103.466 L115.256 103.466 L115.256 99.5305 Q117.918 96.7759 122.501 92.1463 Q127.107 87.4935 128.288 86.151 Q130.533 83.6278 131.413 81.8917 Q132.316 80.1325 132.316 78.4427 Q132.316 75.688 130.371 73.9519 Q128.45 72.2158 125.348 72.2158 Q123.149 72.2158 120.695 72.9797 Q118.265 73.7436 115.487 75.2945 L115.487 70.5723 Q118.311 69.4381 120.765 68.8594 Q123.218 68.2807 125.255 68.2807 Q130.626 68.2807 133.82 70.9658 Q137.015 73.651 137.015 78.1417 Q137.015 80.2714 136.204 82.1926 Q135.417 84.0908 133.311 86.6834 Q132.732 87.3546 129.63 90.5722 Q126.529 93.7667 120.88 99.5305 Z" fill="#000000" fill-rule="nonzero" fill-opacity="1" /><path clip-path="url(#clip710)" d="M147.015 97.5861 L151.899 97.5861 L151.899 103.466 L147.015 103.466 L147.015 97.5861 Z" fill="#000000" fill-rule="nonzero" fill-opacity="1" /><path clip-path="url(#clip710)" d="M162.13 68.9057 L180.487 68.9057 L180.487 72.8408 L166.413 72.8408 L166.413 81.313 Q167.431 80.9658 168.45 80.8038 Q169.468 80.6186 170.487 80.6186 Q176.274 80.6186 179.653 83.7899 Q183.033 86.9611 183.033 92.3778 Q183.033 97.9564 179.561 101.058 Q176.089 104.137 169.769 104.137 Q167.593 104.137 165.325 103.767 Q163.079 103.396 160.672 102.655 L160.672 97.9564 Q162.755 99.0907 164.977 99.6462 Q167.2 100.202 169.677 100.202 Q173.681 100.202 176.019 98.0953 Q178.357 95.9889 178.357 92.3778 Q178.357 88.7667 176.019 86.6602 Q173.681 84.5537 169.677 84.5537 Q167.802 84.5537 165.927 84.9704 Q164.075 85.3871 162.13 86.2667 L162.13 68.9057 Z" fill="#000000" fill-rule="nonzero" fill-opacity="1" /><path clip-path="url(#clip710)" d="M21.7677 908.216 L39.6235 908.216 L39.6235 900.132 Q39.6235 895.644 37.3 893.193 Q34.9765 890.742 30.6797 890.742 Q26.4147 890.742 24.0912 893.193 Q21.7677 895.644 21.7677 900.132 L21.7677 908.216 M16.4842 914.645 L16.4842 900.132 Q16.4842 892.143 20.1126 888.068 Q23.7092 883.963 30.6797 883.963 Q37.7138 883.963 41.3104 888.068 Q44.907 892.143 44.907 900.132 L44.907 908.216 L64.0042 908.216 L64.0042 914.645 L16.4842 914.645 Z" fill="#000000" fill-rule="nonzero" fill-opacity="1" /><path clip-path="url(#clip710)" d="M44.7161 847.423 L47.5806 847.423 L47.5806 874.35 Q53.6281 873.968 56.8109 870.722 Q59.9619 867.444 59.9619 861.619 Q59.9619 858.245 59.1344 855.094 Q58.3069 851.911 56.6518 848.792 L62.1899 848.792 Q63.5267 851.943 64.227 855.253 Q64.9272 858.563 64.9272 861.969 Q64.9272 870.499 59.9619 875.496 Q54.9967 880.461 46.5303 880.461 Q37.7774 880.461 32.6531 875.751 Q27.4968 871.008 27.4968 862.988 Q27.4968 855.794 32.1438 851.625 Q36.7589 847.423 44.7161 847.423 M42.9973 853.28 Q38.1912 853.344 35.3266 855.985 Q32.4621 858.595 32.4621 862.924 Q32.4621 867.826 35.2312 870.786 Q38.0002 873.714 43.0292 874.159 L42.9973 853.28 Z" fill="#000000" fill-rule="nonzero" fill-opacity="1" /><path clip-path="url(#clip710)" d="M18.2347 832.018 L28.3562 832.018 L28.3562 819.955 L32.9077 819.955 L32.9077 832.018 L52.2594 832.018 Q56.6199 832.018 57.8613 830.841 Q59.1026 829.631 59.1026 825.971 L59.1026 819.955 L64.0042 819.955 L64.0042 825.971 Q64.0042 832.751 61.4897 835.329 Q58.9434 837.907 52.2594 837.907 L32.9077 837.907 L32.9077 842.204 L28.3562 842.204 L28.3562 837.907 L18.2347 837.907 L18.2347 832.018 Z" fill="#000000" fill-rule="nonzero" fill-opacity="1" /><path clip-path="url(#clip710)" d="M46.0847 796.052 Q46.0847 803.15 47.7079 805.887 Q49.3312 808.624 53.2461 808.624 Q56.3653 808.624 58.2114 806.587 Q60.0256 804.519 60.0256 800.986 Q60.0256 796.116 56.5881 793.188 Q53.1188 790.228 47.3897 790.228 L46.0847 790.228 L46.0847 796.052 M43.6657 784.371 L64.0042 784.371 L64.0042 790.228 L58.5933 790.228 Q61.8398 792.233 63.3994 795.225 Q64.9272 798.217 64.9272 802.545 Q64.9272 808.02 61.8716 811.266 Q58.7843 814.481 53.6281 814.481 Q47.6125 814.481 44.5569 810.471 Q41.5014 806.428 41.5014 798.439 L41.5014 790.228 L40.9285 790.228 Q36.8862 790.228 34.6901 792.901 Q32.4621 795.543 32.4621 800.349 Q32.4621 803.405 33.1941 806.301 Q33.9262 809.197 35.3903 811.871 L29.9795 811.871 Q28.7381 808.656 28.1334 805.633 Q27.4968 802.609 27.4968 799.744 Q27.4968 792.01 31.5072 788.191 Q35.5176 784.371 43.6657 784.371 Z" fill="#000000" fill-rule="nonzero" fill-opacity="1" /><path clip-path="url(#clip710)" d="M14.479 772.308 L14.479 766.452 L64.0042 766.452 L64.0042 772.308 L14.479 772.308 Z" fill="#000000" fill-rule="nonzero" fill-opacity="1" /><path clip-path="url(#clip710)" d="M16.4842 737.456 L16.4842 730.963 L56.6518 720.969 L16.4842 711.006 L16.4842 703.781 L56.6518 693.787 L16.4842 683.825 L16.4842 677.3 L64.0042 689.236 L64.0042 697.32 L22.7544 707.346 L64.0042 717.468 L64.0042 725.552 L16.4842 737.456 Z" fill="#000000" fill-rule="nonzero" fill-opacity="1" /><path clip-path="url(#clip710)" d="M28.3562 670.457 L28.3562 664.6 L64.0042 664.6 L64.0042 670.457 L28.3562 670.457 M14.479 670.457 L14.479 664.6 L21.895 664.6 L21.895 670.457 L14.479 670.457 Z" fill="#000000" fill-rule="nonzero" fill-opacity="1" /><path clip-path="url(#clip710)" d="M33.7671 628.889 L14.479 628.889 L14.479 623.032 L64.0042 623.032 L64.0042 628.889 L58.657 628.889 Q61.8398 630.735 63.3994 633.568 Q64.9272 636.368 64.9272 640.315 Q64.9272 646.776 59.771 650.85 Q54.6147 654.893 46.212 654.893 Q37.8093 654.893 32.6531 650.85 Q27.4968 646.776 27.4968 640.315 Q27.4968 636.368 29.0564 633.568 Q30.5842 630.735 33.7671 628.889 M46.212 648.845 Q52.6732 648.845 56.3653 646.203 Q60.0256 643.53 60.0256 638.883 Q60.0256 634.236 56.3653 631.562 Q52.6732 628.889 46.212 628.889 Q39.7508 628.889 36.0905 631.562 Q32.3984 634.236 32.3984 638.883 Q32.3984 643.53 36.0905 646.203 Q39.7508 648.845 46.212 648.845 Z" fill="#000000" fill-rule="nonzero" fill-opacity="1" /><path clip-path="url(#clip710)" d="M18.2347 605.176 L28.3562 605.176 L28.3562 593.113 L32.9077 593.113 L32.9077 605.176 L52.2594 605.176 Q56.6199 605.176 57.8613 603.999 Q59.1026 602.789 59.1026 599.129 L59.1026 593.113 L64.0042 593.113 L64.0042 599.129 Q64.0042 605.909 61.4897 608.487 Q58.9434 611.065 52.2594 611.065 L32.9077 611.065 L32.9077 615.362 L28.3562 615.362 L28.3562 611.065 L18.2347 611.065 L18.2347 605.176 Z" fill="#000000" fill-rule="nonzero" fill-opacity="1" /><path clip-path="url(#clip710)" d="M42.4881 555.779 L64.0042 555.779 L64.0042 561.635 L42.679 561.635 Q37.6183 561.635 35.1038 563.608 Q32.5894 565.582 32.5894 569.529 Q32.5894 574.271 35.6131 577.008 Q38.6368 579.745 43.8567 579.745 L64.0042 579.745 L64.0042 585.634 L14.479 585.634 L14.479 579.745 L33.8944 579.745 Q30.6797 577.645 29.0883 574.812 Q27.4968 571.948 27.4968 568.224 Q27.4968 562.081 31.3163 558.93 Q35.1038 555.779 42.4881 555.779 Z" fill="#000000" fill-rule="nonzero" fill-opacity="1" /><circle clip-path="url(#clip712)" cx="726.743" cy="1330.15" r="14.4" fill="#009af9" fill-rule="evenodd" fill-opacity="1" stroke="#000000" stroke-opacity="1" stroke-width="3.2"/>
<circle clip-path="url(#clip712)" cx="614.912" cy="1330.15" r="14.4" fill="#009af9" fill-rule="evenodd" fill-opacity="1" stroke="#000000" stroke-opacity="1" stroke-width="3.2"/>
<circle clip-path="url(#clip712)" cx="503.082" cy="1330.15" r="14.4" fill="#009af9" fill-rule="evenodd" fill-opacity="1" stroke="#000000" stroke-opacity="1" stroke-width="3.2"/>
<circle clip-path="url(#clip712)" cx="447.167" cy="1330.15" r="14.4" fill="#009af9" fill-rule="evenodd" fill-opacity="1" stroke="#000000" stroke-opacity="1" stroke-width="3.2"/>
<circle clip-path="url(#clip712)" cx="670.828" cy="1330.15" r="14.4" fill="#009af9" fill-rule="evenodd" fill-opacity="1" stroke="#000000" stroke-opacity="1" stroke-width="3.2"/>
<circle clip-path="url(#clip712)" cx="894.488" cy="1221.98" r="14.4" fill="#009af9" fill-rule="evenodd" fill-opacity="1" stroke="#000000" stroke-opacity="1" stroke-width="3.2"/>
<circle clip-path="url(#clip712)" cx="447.167" cy="1276.07" r="14.4" fill="#009af9" fill-rule="evenodd" fill-opacity="1" stroke="#000000" stroke-opacity="1" stroke-width="3.2"/>
<circle clip-path="url(#clip712)" cx="670.828" cy="1330.15" r="14.4" fill="#009af9" fill-rule="evenodd" fill-opacity="1" stroke="#000000" stroke-opacity="1" stroke-width="3.2"/>
<circle clip-path="url(#clip712)" cx="335.336" cy="1330.15" r="14.4" fill="#009af9" fill-rule="evenodd" fill-opacity="1" stroke="#000000" stroke-opacity="1" stroke-width="3.2"/>
<circle clip-path="url(#clip712)" cx="614.912" cy="1384.24" r="14.4" fill="#009af9" fill-rule="evenodd" fill-opacity="1" stroke="#000000" stroke-opacity="1" stroke-width="3.2"/>
<circle clip-path="url(#clip712)" cx="894.488" cy="1330.15" r="14.4" fill="#009af9" fill-rule="evenodd" fill-opacity="1" stroke="#000000" stroke-opacity="1" stroke-width="3.2"/>
<circle clip-path="url(#clip712)" cx="558.997" cy="1330.15" r="14.4" fill="#009af9" fill-rule="evenodd" fill-opacity="1" stroke="#000000" stroke-opacity="1" stroke-width="3.2"/>
<circle clip-path="url(#clip712)" cx="558.997" cy="1384.24" r="14.4" fill="#009af9" fill-rule="evenodd" fill-opacity="1" stroke="#000000" stroke-opacity="1" stroke-width="3.2"/>
<circle clip-path="url(#clip712)" cx="279.421" cy="1384.24" r="14.4" fill="#009af9" fill-rule="evenodd" fill-opacity="1" stroke="#000000" stroke-opacity="1" stroke-width="3.2"/>
<circle clip-path="url(#clip712)" cx="1118.15" cy="1330.15" r="14.4" fill="#009af9" fill-rule="evenodd" fill-opacity="1" stroke="#000000" stroke-opacity="1" stroke-width="3.2"/>
<circle clip-path="url(#clip712)" cx="1062.23" cy="1221.98" r="14.4" fill="#009af9" fill-rule="evenodd" fill-opacity="1" stroke="#000000" stroke-opacity="1" stroke-width="3.2"/>
<circle clip-path="url(#clip712)" cx="894.488" cy="1221.98" r="14.4" fill="#009af9" fill-rule="evenodd" fill-opacity="1" stroke="#000000" stroke-opacity="1" stroke-width="3.2"/>
<circle clip-path="url(#clip712)" cx="726.743" cy="1276.07" r="14.4" fill="#009af9" fill-rule="evenodd" fill-opacity="1" stroke="#000000" stroke-opacity="1" stroke-width="3.2"/>
<circle clip-path="url(#clip712)" cx="1062.23" cy="1276.07" r="14.4" fill="#009af9" fill-rule="evenodd" fill-opacity="1" stroke="#000000" stroke-opacity="1" stroke-width="3.2"/>
<circle clip-path="url(#clip712)" cx="726.743" cy="1276.07" r="14.4" fill="#009af9" fill-rule="evenodd" fill-opacity="1" stroke="#000000" stroke-opacity="1" stroke-width="3.2"/>
<circle clip-path="url(#clip712)" cx="894.488" cy="1330.15" r="14.4" fill="#009af9" fill-rule="evenodd" fill-opacity="1" stroke="#000000" stroke-opacity="1" stroke-width="3.2"/>
<circle clip-path="url(#clip712)" cx="726.743" cy="1221.98" r="14.4" fill="#009af9" fill-rule="evenodd" fill-opacity="1" stroke="#000000" stroke-opacity="1" stroke-width="3.2"/>
<circle clip-path="url(#clip712)" cx="447.167" cy="1330.15" r="14.4" fill="#009af9" fill-rule="evenodd" fill-opacity="1" stroke="#000000" stroke-opacity="1" stroke-width="3.2"/>
<circle clip-path="url(#clip712)" cx="726.743" cy="1167.9" r="14.4" fill="#009af9" fill-rule="evenodd" fill-opacity="1" stroke="#000000" stroke-opacity="1" stroke-width="3.2"/>
<circle clip-path="url(#clip712)" cx="558.997" cy="1330.15" r="14.4" fill="#009af9" fill-rule="evenodd" fill-opacity="1" stroke="#000000" stroke-opacity="1" stroke-width="3.2"/>
<circle clip-path="url(#clip712)" cx="670.828" cy="1330.15" r="14.4" fill="#009af9" fill-rule="evenodd" fill-opacity="1" stroke="#000000" stroke-opacity="1" stroke-width="3.2"/>
<circle clip-path="url(#clip712)" cx="670.828" cy="1221.98" r="14.4" fill="#009af9" fill-rule="evenodd" fill-opacity="1" stroke="#000000" stroke-opacity="1" stroke-width="3.2"/>
<circle clip-path="url(#clip712)" cx="782.658" cy="1330.15" r="14.4" fill="#009af9" fill-rule="evenodd" fill-opacity="1" stroke="#000000" stroke-opacity="1" stroke-width="3.2"/>
<circle clip-path="url(#clip712)" cx="782.658" cy="1330.15" r="14.4" fill="#009af9" fill-rule="evenodd" fill-opacity="1" stroke="#000000" stroke-opacity="1" stroke-width="3.2"/>
<circle clip-path="url(#clip712)" cx="503.082" cy="1330.15" r="14.4" fill="#009af9" fill-rule="evenodd" fill-opacity="1" stroke="#000000" stroke-opacity="1" stroke-width="3.2"/>
<circle clip-path="url(#clip712)" cx="558.997" cy="1330.15" r="14.4" fill="#009af9" fill-rule="evenodd" fill-opacity="1" stroke="#000000" stroke-opacity="1" stroke-width="3.2"/>
<circle clip-path="url(#clip712)" cx="894.488" cy="1221.98" r="14.4" fill="#009af9" fill-rule="evenodd" fill-opacity="1" stroke="#000000" stroke-opacity="1" stroke-width="3.2"/>
<circle clip-path="url(#clip712)" cx="782.658" cy="1384.24" r="14.4" fill="#009af9" fill-rule="evenodd" fill-opacity="1" stroke="#000000" stroke-opacity="1" stroke-width="3.2"/>
<circle clip-path="url(#clip712)" cx="950.403" cy="1330.15" r="14.4" fill="#009af9" fill-rule="evenodd" fill-opacity="1" stroke="#000000" stroke-opacity="1" stroke-width="3.2"/>
<circle clip-path="url(#clip712)" cx="614.912" cy="1330.15" r="14.4" fill="#009af9" fill-rule="evenodd" fill-opacity="1" stroke="#000000" stroke-opacity="1" stroke-width="3.2"/>
<circle clip-path="url(#clip712)" cx="670.828" cy="1330.15" r="14.4" fill="#009af9" fill-rule="evenodd" fill-opacity="1" stroke="#000000" stroke-opacity="1" stroke-width="3.2"/>
<circle clip-path="url(#clip712)" cx="950.403" cy="1330.15" r="14.4" fill="#009af9" fill-rule="evenodd" fill-opacity="1" stroke="#000000" stroke-opacity="1" stroke-width="3.2"/>
<circle clip-path="url(#clip712)" cx="614.912" cy="1384.24" r="14.4" fill="#009af9" fill-rule="evenodd" fill-opacity="1" stroke="#000000" stroke-opacity="1" stroke-width="3.2"/>
<circle clip-path="url(#clip712)" cx="335.336" cy="1330.15" r="14.4" fill="#009af9" fill-rule="evenodd" fill-opacity="1" stroke="#000000" stroke-opacity="1" stroke-width="3.2"/>
<circle clip-path="url(#clip712)" cx="726.743" cy="1330.15" r="14.4" fill="#009af9" fill-rule="evenodd" fill-opacity="1" stroke="#000000" stroke-opacity="1" stroke-width="3.2"/>
<circle clip-path="url(#clip712)" cx="670.828" cy="1276.07" r="14.4" fill="#009af9" fill-rule="evenodd" fill-opacity="1" stroke="#000000" stroke-opacity="1" stroke-width="3.2"/>
<circle clip-path="url(#clip712)" cx="391.252" cy="1276.07" r="14.4" fill="#009af9" fill-rule="evenodd" fill-opacity="1" stroke="#000000" stroke-opacity="1" stroke-width="3.2"/>
<circle clip-path="url(#clip712)" cx="335.336" cy="1330.15" r="14.4" fill="#009af9" fill-rule="evenodd" fill-opacity="1" stroke="#000000" stroke-opacity="1" stroke-width="3.2"/>
<circle clip-path="url(#clip712)" cx="670.828" cy="1113.81" r="14.4" fill="#009af9" fill-rule="evenodd" fill-opacity="1" stroke="#000000" stroke-opacity="1" stroke-width="3.2"/>
<circle clip-path="url(#clip712)" cx="726.743" cy="1221.98" r="14.4" fill="#009af9" fill-rule="evenodd" fill-opacity="1" stroke="#000000" stroke-opacity="1" stroke-width="3.2"/>
<circle clip-path="url(#clip712)" cx="558.997" cy="1276.07" r="14.4" fill="#009af9" fill-rule="evenodd" fill-opacity="1" stroke="#000000" stroke-opacity="1" stroke-width="3.2"/>
<circle clip-path="url(#clip712)" cx="726.743" cy="1330.15" r="14.4" fill="#009af9" fill-rule="evenodd" fill-opacity="1" stroke="#000000" stroke-opacity="1" stroke-width="3.2"/>
<circle clip-path="url(#clip712)" cx="447.167" cy="1330.15" r="14.4" fill="#009af9" fill-rule="evenodd" fill-opacity="1" stroke="#000000" stroke-opacity="1" stroke-width="3.2"/>
<circle clip-path="url(#clip712)" cx="838.573" cy="1330.15" r="14.4" fill="#009af9" fill-rule="evenodd" fill-opacity="1" stroke="#000000" stroke-opacity="1" stroke-width="3.2"/>
<circle clip-path="url(#clip712)" cx="670.828" cy="1330.15" r="14.4" fill="#009af9" fill-rule="evenodd" fill-opacity="1" stroke="#000000" stroke-opacity="1" stroke-width="3.2"/>
<circle clip-path="url(#clip712)" cx="1789.13" cy="681.126" r="14.4" fill="#009af9" fill-rule="evenodd" fill-opacity="1" stroke="#000000" stroke-opacity="1" stroke-width="3.2"/>
<circle clip-path="url(#clip712)" cx="1453.64" cy="627.041" r="14.4" fill="#009af9" fill-rule="evenodd" fill-opacity="1" stroke="#000000" stroke-opacity="1" stroke-width="3.2"/>
<circle clip-path="url(#clip712)" cx="1733.22" cy="627.041" r="14.4" fill="#009af9" fill-rule="evenodd" fill-opacity="1" stroke="#000000" stroke-opacity="1" stroke-width="3.2"/>
<circle clip-path="url(#clip712)" cx="950.403" cy="735.212" r="14.4" fill="#009af9" fill-rule="evenodd" fill-opacity="1" stroke="#000000" stroke-opacity="1" stroke-width="3.2"/>
<circle clip-path="url(#clip712)" cx="1509.56" cy="627.041" r="14.4" fill="#009af9" fill-rule="evenodd" fill-opacity="1" stroke="#000000" stroke-opacity="1" stroke-width="3.2"/>
<circle clip-path="url(#clip712)" cx="1062.23" cy="735.212" r="14.4" fill="#009af9" fill-rule="evenodd" fill-opacity="1" stroke="#000000" stroke-opacity="1" stroke-width="3.2"/>
<circle clip-path="url(#clip712)" cx="1397.72" cy="572.955" r="14.4" fill="#009af9" fill-rule="evenodd" fill-opacity="1" stroke="#000000" stroke-opacity="1" stroke-width="3.2"/>
<circle clip-path="url(#clip712)" cx="614.912" cy="897.469" r="14.4" fill="#009af9" fill-rule="evenodd" fill-opacity="1" stroke="#000000" stroke-opacity="1" stroke-width="3.2"/>
<circle clip-path="url(#clip712)" cx="1565.47" cy="735.212" r="14.4" fill="#009af9" fill-rule="evenodd" fill-opacity="1" stroke="#000000" stroke-opacity="1" stroke-width="3.2"/>
<circle clip-path="url(#clip712)" cx="782.658" cy="681.126" r="14.4" fill="#009af9" fill-rule="evenodd" fill-opacity="1" stroke="#000000" stroke-opacity="1" stroke-width="3.2"/>
<circle clip-path="url(#clip712)" cx="670.828" cy="897.469" r="14.4" fill="#009af9" fill-rule="evenodd" fill-opacity="1" stroke="#000000" stroke-opacity="1" stroke-width="3.2"/>
<circle clip-path="url(#clip712)" cx="1174.06" cy="627.041" r="14.4" fill="#009af9" fill-rule="evenodd" fill-opacity="1" stroke="#000000" stroke-opacity="1" stroke-width="3.2"/>
<circle clip-path="url(#clip712)" cx="1229.98" cy="897.469" r="14.4" fill="#009af9" fill-rule="evenodd" fill-opacity="1" stroke="#000000" stroke-opacity="1" stroke-width="3.2"/>
<circle clip-path="url(#clip712)" cx="1285.89" cy="681.126" r="14.4" fill="#009af9" fill-rule="evenodd" fill-opacity="1" stroke="#000000" stroke-opacity="1" stroke-width="3.2"/>
<circle clip-path="url(#clip712)" cx="1006.32" cy="735.212" r="14.4" fill="#009af9" fill-rule="evenodd" fill-opacity="1" stroke="#000000" stroke-opacity="1" stroke-width="3.2"/>
<circle clip-path="url(#clip712)" cx="1621.39" cy="681.126" r="14.4" fill="#009af9" fill-rule="evenodd" fill-opacity="1" stroke="#000000" stroke-opacity="1" stroke-width="3.2"/>
<circle clip-path="url(#clip712)" cx="1006.32" cy="627.041" r="14.4" fill="#009af9" fill-rule="evenodd" fill-opacity="1" stroke="#000000" stroke-opacity="1" stroke-width="3.2"/>
<circle clip-path="url(#clip712)" cx="1118.15" cy="897.469" r="14.4" fill="#009af9" fill-rule="evenodd" fill-opacity="1" stroke="#000000" stroke-opacity="1" stroke-width="3.2"/>
<circle clip-path="url(#clip712)" cx="1341.81" cy="627.041" r="14.4" fill="#009af9" fill-rule="evenodd" fill-opacity="1" stroke="#000000" stroke-opacity="1" stroke-width="3.2"/>
<circle clip-path="url(#clip712)" cx="1006.32" cy="843.383" r="14.4" fill="#009af9" fill-rule="evenodd" fill-opacity="1" stroke="#000000" stroke-opacity="1" stroke-width="3.2"/>
<circle clip-path="url(#clip712)" cx="1174.06" cy="464.784" r="14.4" fill="#009af9" fill-rule="evenodd" fill-opacity="1" stroke="#000000" stroke-opacity="1" stroke-width="3.2"/>
<circle clip-path="url(#clip712)" cx="1285.89" cy="735.212" r="14.4" fill="#009af9" fill-rule="evenodd" fill-opacity="1" stroke="#000000" stroke-opacity="1" stroke-width="3.2"/>
<circle clip-path="url(#clip712)" cx="1397.72" cy="627.041" r="14.4" fill="#009af9" fill-rule="evenodd" fill-opacity="1" stroke="#000000" stroke-opacity="1" stroke-width="3.2"/>
<circle clip-path="url(#clip712)" cx="1285.89" cy="789.297" r="14.4" fill="#009af9" fill-rule="evenodd" fill-opacity="1" stroke="#000000" stroke-opacity="1" stroke-width="3.2"/>
<circle clip-path="url(#clip712)" cx="1453.64" cy="735.212" r="14.4" fill="#009af9" fill-rule="evenodd" fill-opacity="1" stroke="#000000" stroke-opacity="1" stroke-width="3.2"/>
<circle clip-path="url(#clip712)" cx="1565.47" cy="681.126" r="14.4" fill="#009af9" fill-rule="evenodd" fill-opacity="1" stroke="#000000" stroke-opacity="1" stroke-width="3.2"/>
<circle clip-path="url(#clip712)" cx="1677.3" cy="681.126" r="14.4" fill="#009af9" fill-rule="evenodd" fill-opacity="1" stroke="#000000" stroke-opacity="1" stroke-width="3.2"/>
<circle clip-path="url(#clip712)" cx="1621.39" cy="518.87" r="14.4" fill="#009af9" fill-rule="evenodd" fill-opacity="1" stroke="#000000" stroke-opacity="1" stroke-width="3.2"/>
<circle clip-path="url(#clip712)" cx="1229.98" cy="627.041" r="14.4" fill="#009af9" fill-rule="evenodd" fill-opacity="1" stroke="#000000" stroke-opacity="1" stroke-width="3.2"/>
<circle clip-path="url(#clip712)" cx="1062.23" cy="897.469" r="14.4" fill="#009af9" fill-rule="evenodd" fill-opacity="1" stroke="#000000" stroke-opacity="1" stroke-width="3.2"/>
<circle clip-path="url(#clip712)" cx="950.403" cy="843.383" r="14.4" fill="#009af9" fill-rule="evenodd" fill-opacity="1" stroke="#000000" stroke-opacity="1" stroke-width="3.2"/>
<circle clip-path="url(#clip712)" cx="950.403" cy="897.469" r="14.4" fill="#009af9" fill-rule="evenodd" fill-opacity="1" stroke="#000000" stroke-opacity="1" stroke-width="3.2"/>
<circle clip-path="url(#clip712)" cx="1118.15" cy="789.297" r="14.4" fill="#009af9" fill-rule="evenodd" fill-opacity="1" stroke="#000000" stroke-opacity="1" stroke-width="3.2"/>
<circle clip-path="url(#clip712)" cx="1229.98" cy="572.955" r="14.4" fill="#009af9" fill-rule="evenodd" fill-opacity="1" stroke="#000000" stroke-opacity="1" stroke-width="3.2"/>
<circle clip-path="url(#clip712)" cx="894.488" cy="627.041" r="14.4" fill="#009af9" fill-rule="evenodd" fill-opacity="1" stroke="#000000" stroke-opacity="1" stroke-width="3.2"/>
<circle clip-path="url(#clip712)" cx="1229.98" cy="572.955" r="14.4" fill="#009af9" fill-rule="evenodd" fill-opacity="1" stroke="#000000" stroke-opacity="1" stroke-width="3.2"/>
<circle clip-path="url(#clip712)" cx="1621.39" cy="627.041" r="14.4" fill="#009af9" fill-rule="evenodd" fill-opacity="1" stroke="#000000" stroke-opacity="1" stroke-width="3.2"/>
<circle clip-path="url(#clip712)" cx="1397.72" cy="735.212" r="14.4" fill="#009af9" fill-rule="evenodd" fill-opacity="1" stroke="#000000" stroke-opacity="1" stroke-width="3.2"/>
<circle clip-path="url(#clip712)" cx="1006.32" cy="735.212" r="14.4" fill="#009af9" fill-rule="evenodd" fill-opacity="1" stroke="#000000" stroke-opacity="1" stroke-width="3.2"/>
<circle clip-path="url(#clip712)" cx="950.403" cy="735.212" r="14.4" fill="#009af9" fill-rule="evenodd" fill-opacity="1" stroke="#000000" stroke-opacity="1" stroke-width="3.2"/>
<circle clip-path="url(#clip712)" cx="950.403" cy="789.297" r="14.4" fill="#009af9" fill-rule="evenodd" fill-opacity="1" stroke="#000000" stroke-opacity="1" stroke-width="3.2"/>
<circle clip-path="url(#clip712)" cx="1285.89" cy="681.126" r="14.4" fill="#009af9" fill-rule="evenodd" fill-opacity="1" stroke="#000000" stroke-opacity="1" stroke-width="3.2"/>
<circle clip-path="url(#clip712)" cx="1118.15" cy="789.297" r="14.4" fill="#009af9" fill-rule="evenodd" fill-opacity="1" stroke="#000000" stroke-opacity="1" stroke-width="3.2"/>
<circle clip-path="url(#clip712)" cx="670.828" cy="897.469" r="14.4" fill="#009af9" fill-rule="evenodd" fill-opacity="1" stroke="#000000" stroke-opacity="1" stroke-width="3.2"/>
<circle clip-path="url(#clip712)" cx="1006.32" cy="735.212" r="14.4" fill="#009af9" fill-rule="evenodd" fill-opacity="1" stroke="#000000" stroke-opacity="1" stroke-width="3.2"/>
<circle clip-path="url(#clip712)" cx="1062.23" cy="789.297" r="14.4" fill="#009af9" fill-rule="evenodd" fill-opacity="1" stroke="#000000" stroke-opacity="1" stroke-width="3.2"/>
<circle clip-path="url(#clip712)" cx="1062.23" cy="735.212" r="14.4" fill="#009af9" fill-rule="evenodd" fill-opacity="1" stroke="#000000" stroke-opacity="1" stroke-width="3.2"/>
<circle clip-path="url(#clip712)" cx="1341.81" cy="735.212" r="14.4" fill="#009af9" fill-rule="evenodd" fill-opacity="1" stroke="#000000" stroke-opacity="1" stroke-width="3.2"/>
<circle clip-path="url(#clip712)" cx="726.743" cy="843.383" r="14.4" fill="#009af9" fill-rule="evenodd" fill-opacity="1" stroke="#000000" stroke-opacity="1" stroke-width="3.2"/>
<circle clip-path="url(#clip712)" cx="1062.23" cy="735.212" r="14.4" fill="#009af9" fill-rule="evenodd" fill-opacity="1" stroke="#000000" stroke-opacity="1" stroke-width="3.2"/>
<circle clip-path="url(#clip712)" cx="1397.72" cy="86.1857" r="14.4" fill="#009af9" fill-rule="evenodd" fill-opacity="1" stroke="#000000" stroke-opacity="1" stroke-width="3.2"/>
<circle clip-path="url(#clip712)" cx="1118.15" cy="410.699" r="14.4" fill="#009af9" fill-rule="evenodd" fill-opacity="1" stroke="#000000" stroke-opacity="1" stroke-width="3.2"/>
<circle clip-path="url(#clip712)" cx="1845.05" cy="302.528" r="14.4" fill="#009af9" fill-rule="evenodd" fill-opacity="1" stroke="#000000" stroke-opacity="1" stroke-width="3.2"/>
<circle clip-path="url(#clip712)" cx="1397.72" cy="464.784" r="14.4" fill="#009af9" fill-rule="evenodd" fill-opacity="1" stroke="#000000" stroke-opacity="1" stroke-width="3.2"/>
<circle clip-path="url(#clip712)" cx="1509.56" cy="248.442" r="14.4" fill="#009af9" fill-rule="evenodd" fill-opacity="1" stroke="#000000" stroke-opacity="1" stroke-width="3.2"/>
<circle clip-path="url(#clip712)" cx="2124.62" cy="302.528" r="14.4" fill="#009af9" fill-rule="evenodd" fill-opacity="1" stroke="#000000" stroke-opacity="1" stroke-width="3.2"/>
<circle clip-path="url(#clip712)" cx="614.912" cy="518.87" r="14.4" fill="#009af9" fill-rule="evenodd" fill-opacity="1" stroke="#000000" stroke-opacity="1" stroke-width="3.2"/>
<circle clip-path="url(#clip712)" cx="1956.88" cy="464.784" r="14.4" fill="#009af9" fill-rule="evenodd" fill-opacity="1" stroke="#000000" stroke-opacity="1" stroke-width="3.2"/>
<circle clip-path="url(#clip712)" cx="1621.39" cy="464.784" r="14.4" fill="#009af9" fill-rule="evenodd" fill-opacity="1" stroke="#000000" stroke-opacity="1" stroke-width="3.2"/>
<circle clip-path="url(#clip712)" cx="1900.96" cy="86.1857" r="14.4" fill="#009af9" fill-rule="evenodd" fill-opacity="1" stroke="#000000" stroke-opacity="1" stroke-width="3.2"/>
<circle clip-path="url(#clip712)" cx="1509.56" cy="356.613" r="14.4" fill="#009af9" fill-rule="evenodd" fill-opacity="1" stroke="#000000" stroke-opacity="1" stroke-width="3.2"/>
<circle clip-path="url(#clip712)" cx="1453.64" cy="410.699" r="14.4" fill="#009af9" fill-rule="evenodd" fill-opacity="1" stroke="#000000" stroke-opacity="1" stroke-width="3.2"/>
<circle clip-path="url(#clip712)" cx="1677.3" cy="302.528" r="14.4" fill="#009af9" fill-rule="evenodd" fill-opacity="1" stroke="#000000" stroke-opacity="1" stroke-width="3.2"/>
<circle clip-path="url(#clip712)" cx="1062.23" cy="356.613" r="14.4" fill="#009af9" fill-rule="evenodd" fill-opacity="1" stroke="#000000" stroke-opacity="1" stroke-width="3.2"/>
<circle clip-path="url(#clip712)" cx="1118.15" cy="140.271" r="14.4" fill="#009af9" fill-rule="evenodd" fill-opacity="1" stroke="#000000" stroke-opacity="1" stroke-width="3.2"/>
<circle clip-path="url(#clip712)" cx="1453.64" cy="194.357" r="14.4" fill="#009af9" fill-rule="evenodd" fill-opacity="1" stroke="#000000" stroke-opacity="1" stroke-width="3.2"/>
<circle clip-path="url(#clip712)" cx="1509.56" cy="464.784" r="14.4" fill="#009af9" fill-rule="evenodd" fill-opacity="1" stroke="#000000" stroke-opacity="1" stroke-width="3.2"/>
<circle clip-path="url(#clip712)" cx="2180.54" cy="248.442" r="14.4" fill="#009af9" fill-rule="evenodd" fill-opacity="1" stroke="#000000" stroke-opacity="1" stroke-width="3.2"/>
<circle clip-path="url(#clip712)" cx="2180.54" cy="194.357" r="14.4" fill="#009af9" fill-rule="evenodd" fill-opacity="1" stroke="#000000" stroke-opacity="1" stroke-width="3.2"/>
<circle clip-path="url(#clip712)" cx="1229.98" cy="627.041" r="14.4" fill="#009af9" fill-rule="evenodd" fill-opacity="1" stroke="#000000" stroke-opacity="1" stroke-width="3.2"/>
<circle clip-path="url(#clip712)" cx="1733.22" cy="194.357" r="14.4" fill="#009af9" fill-rule="evenodd" fill-opacity="1" stroke="#000000" stroke-opacity="1" stroke-width="3.2"/>
<circle clip-path="url(#clip712)" cx="1006.32" cy="356.613" r="14.4" fill="#009af9" fill-rule="evenodd" fill-opacity="1" stroke="#000000" stroke-opacity="1" stroke-width="3.2"/>
<circle clip-path="url(#clip712)" cx="2180.54" cy="356.613" r="14.4" fill="#009af9" fill-rule="evenodd" fill-opacity="1" stroke="#000000" stroke-opacity="1" stroke-width="3.2"/>
<circle clip-path="url(#clip712)" cx="1397.72" cy="464.784" r="14.4" fill="#009af9" fill-rule="evenodd" fill-opacity="1" stroke="#000000" stroke-opacity="1" stroke-width="3.2"/>
<circle clip-path="url(#clip712)" cx="1621.39" cy="302.528" r="14.4" fill="#009af9" fill-rule="evenodd" fill-opacity="1" stroke="#000000" stroke-opacity="1" stroke-width="3.2"/>
<circle clip-path="url(#clip712)" cx="1900.96" cy="464.784" r="14.4" fill="#009af9" fill-rule="evenodd" fill-opacity="1" stroke="#000000" stroke-opacity="1" stroke-width="3.2"/>
<circle clip-path="url(#clip712)" cx="1341.81" cy="464.784" r="14.4" fill="#009af9" fill-rule="evenodd" fill-opacity="1" stroke="#000000" stroke-opacity="1" stroke-width="3.2"/>
<circle clip-path="url(#clip712)" cx="1285.89" cy="464.784" r="14.4" fill="#009af9" fill-rule="evenodd" fill-opacity="1" stroke="#000000" stroke-opacity="1" stroke-width="3.2"/>
<circle clip-path="url(#clip712)" cx="1453.64" cy="302.528" r="14.4" fill="#009af9" fill-rule="evenodd" fill-opacity="1" stroke="#000000" stroke-opacity="1" stroke-width="3.2"/>
<circle clip-path="url(#clip712)" cx="1900.96" cy="572.955" r="14.4" fill="#009af9" fill-rule="evenodd" fill-opacity="1" stroke="#000000" stroke-opacity="1" stroke-width="3.2"/>
<circle clip-path="url(#clip712)" cx="2012.79" cy="410.699" r="14.4" fill="#009af9" fill-rule="evenodd" fill-opacity="1" stroke="#000000" stroke-opacity="1" stroke-width="3.2"/>
<circle clip-path="url(#clip712)" cx="2292.37" cy="356.613" r="14.4" fill="#009af9" fill-rule="evenodd" fill-opacity="1" stroke="#000000" stroke-opacity="1" stroke-width="3.2"/>
<circle clip-path="url(#clip712)" cx="1453.64" cy="248.442" r="14.4" fill="#009af9" fill-rule="evenodd" fill-opacity="1" stroke="#000000" stroke-opacity="1" stroke-width="3.2"/>
<circle clip-path="url(#clip712)" cx="1397.72" cy="627.041" r="14.4" fill="#009af9" fill-rule="evenodd" fill-opacity="1" stroke="#000000" stroke-opacity="1" stroke-width="3.2"/>
<circle clip-path="url(#clip712)" cx="1285.89" cy="681.126" r="14.4" fill="#009af9" fill-rule="evenodd" fill-opacity="1" stroke="#000000" stroke-opacity="1" stroke-width="3.2"/>
<circle clip-path="url(#clip712)" cx="2180.54" cy="194.357" r="14.4" fill="#009af9" fill-rule="evenodd" fill-opacity="1" stroke="#000000" stroke-opacity="1" stroke-width="3.2"/>
<circle clip-path="url(#clip712)" cx="1397.72" cy="140.271" r="14.4" fill="#009af9" fill-rule="evenodd" fill-opacity="1" stroke="#000000" stroke-opacity="1" stroke-width="3.2"/>
<circle clip-path="url(#clip712)" cx="1453.64" cy="464.784" r="14.4" fill="#009af9" fill-rule="evenodd" fill-opacity="1" stroke="#000000" stroke-opacity="1" stroke-width="3.2"/>
<circle clip-path="url(#clip712)" cx="1229.98" cy="464.784" r="14.4" fill="#009af9" fill-rule="evenodd" fill-opacity="1" stroke="#000000" stroke-opacity="1" stroke-width="3.2"/>
<circle clip-path="url(#clip712)" cx="1733.22" cy="302.528" r="14.4" fill="#009af9" fill-rule="evenodd" fill-opacity="1" stroke="#000000" stroke-opacity="1" stroke-width="3.2"/>
<circle clip-path="url(#clip712)" cx="1621.39" cy="140.271" r="14.4" fill="#009af9" fill-rule="evenodd" fill-opacity="1" stroke="#000000" stroke-opacity="1" stroke-width="3.2"/>
<circle clip-path="url(#clip712)" cx="1733.22" cy="194.357" r="14.4" fill="#009af9" fill-rule="evenodd" fill-opacity="1" stroke="#000000" stroke-opacity="1" stroke-width="3.2"/>
<circle clip-path="url(#clip712)" cx="1118.15" cy="410.699" r="14.4" fill="#009af9" fill-rule="evenodd" fill-opacity="1" stroke="#000000" stroke-opacity="1" stroke-width="3.2"/>
<circle clip-path="url(#clip712)" cx="1677.3" cy="194.357" r="14.4" fill="#009af9" fill-rule="evenodd" fill-opacity="1" stroke="#000000" stroke-opacity="1" stroke-width="3.2"/>
<circle clip-path="url(#clip712)" cx="1621.39" cy="86.1857" r="14.4" fill="#009af9" fill-rule="evenodd" fill-opacity="1" stroke="#000000" stroke-opacity="1" stroke-width="3.2"/>
<circle clip-path="url(#clip712)" cx="1621.39" cy="194.357" r="14.4" fill="#009af9" fill-rule="evenodd" fill-opacity="1" stroke="#000000" stroke-opacity="1" stroke-width="3.2"/>
<circle clip-path="url(#clip712)" cx="1397.72" cy="410.699" r="14.4" fill="#009af9" fill-rule="evenodd" fill-opacity="1" stroke="#000000" stroke-opacity="1" stroke-width="3.2"/>
<circle clip-path="url(#clip712)" cx="1509.56" cy="356.613" r="14.4" fill="#009af9" fill-rule="evenodd" fill-opacity="1" stroke="#000000" stroke-opacity="1" stroke-width="3.2"/>
<circle clip-path="url(#clip712)" cx="1341.81" cy="194.357" r="14.4" fill="#009af9" fill-rule="evenodd" fill-opacity="1" stroke="#000000" stroke-opacity="1" stroke-width="3.2"/>
<circle clip-path="url(#clip712)" cx="1174.06" cy="464.784" r="14.4" fill="#009af9" fill-rule="evenodd" fill-opacity="1" stroke="#000000" stroke-opacity="1" stroke-width="3.2"/>
<path clip-path="url(#clip710)" d="M290.157 196.789 L1024.17 196.789 L1024.17 93.1086 L290.157 93.1086  Z" fill="#ffffff" fill-rule="evenodd" fill-opacity="1"/>
<polyline clip-path="url(#clip710)" style="stroke:#000000; stroke-linecap:round; stroke-linejoin:round; stroke-width:4; stroke-opacity:1; fill:none" points="290.157,196.789 1024.17,196.789 1024.17,93.1086 290.157,93.1086 290.157,196.789 "/>
<circle clip-path="url(#clip710)" cx="384.989" cy="144.949" r="20.48" fill="#009af9" fill-rule="evenodd" fill-opacity="1" stroke="#000000" stroke-opacity="1" stroke-width="4.55111"/>
<path clip-path="url(#clip710)" d="M491.766 130.747 Q488.155 130.747 486.326 134.312 Q484.52 137.854 484.52 144.983 Q484.52 152.09 486.326 155.655 Q488.155 159.196 491.766 159.196 Q495.4 159.196 497.205 155.655 Q499.034 152.09 499.034 144.983 Q499.034 137.854 497.205 134.312 Q495.4 130.747 491.766 130.747 M491.766 127.044 Q497.576 127.044 500.631 131.65 Q503.71 136.233 503.71 144.983 Q503.71 153.71 500.631 158.317 Q497.576 162.9 491.766 162.9 Q485.956 162.9 482.877 158.317 Q479.821 153.71 479.821 144.983 Q479.821 136.233 482.877 131.65 Q485.956 127.044 491.766 127.044 Z" fill="#000000" fill-rule="nonzero" fill-opacity="1" /><path clip-path="url(#clip710)" d="M511.928 156.349 L516.812 156.349 L516.812 162.229 L511.928 162.229 L511.928 156.349 Z" fill="#000000" fill-rule="nonzero" fill-opacity="1" /><path clip-path="url(#clip710)" d="M536.997 145.817 Q533.664 145.817 531.742 147.599 Q529.844 149.381 529.844 152.506 Q529.844 155.631 531.742 157.414 Q533.664 159.196 536.997 159.196 Q540.33 159.196 542.252 157.414 Q544.173 155.608 544.173 152.506 Q544.173 149.381 542.252 147.599 Q540.353 145.817 536.997 145.817 M532.321 143.826 Q529.312 143.085 527.622 141.025 Q525.955 138.965 525.955 136.002 Q525.955 131.858 528.895 129.451 Q531.858 127.044 536.997 127.044 Q542.159 127.044 545.099 129.451 Q548.039 131.858 548.039 136.002 Q548.039 138.965 546.349 141.025 Q544.682 143.085 541.696 143.826 Q545.076 144.613 546.951 146.905 Q548.849 149.196 548.849 152.506 Q548.849 157.53 545.77 160.215 Q542.714 162.9 536.997 162.9 Q531.279 162.9 528.201 160.215 Q525.145 157.53 525.145 152.506 Q525.145 149.196 527.043 146.905 Q528.941 144.613 532.321 143.826 M530.608 136.442 Q530.608 139.127 532.275 140.632 Q533.965 142.136 536.997 142.136 Q540.006 142.136 541.696 140.632 Q543.409 139.127 543.409 136.442 Q543.409 133.757 541.696 132.252 Q540.006 130.747 536.997 130.747 Q533.965 130.747 532.275 132.252 Q530.608 133.757 530.608 136.442 Z" fill="#000000" fill-rule="nonzero" fill-opacity="1" /><path clip-path="url(#clip710)" d="M557.969 158.293 L565.608 158.293 L565.608 131.928 L557.298 133.595 L557.298 129.335 L565.562 127.669 L570.237 127.669 L570.237 158.293 L577.876 158.293 L577.876 162.229 L557.969 162.229 L557.969 158.293 Z" fill="#000000" fill-rule="nonzero" fill-opacity="1" /><path clip-path="url(#clip710)" d="M586.14 127.669 L608.362 127.669 L608.362 129.659 L595.816 162.229 L590.932 162.229 L602.737 131.604 L586.14 131.604 L586.14 127.669 Z" fill="#000000" fill-rule="nonzero" fill-opacity="1" /><path clip-path="url(#clip710)" d="M617.621 161.511 L617.621 157.252 Q619.381 158.085 621.186 158.525 Q622.992 158.965 624.728 158.965 Q629.358 158.965 631.788 155.863 Q634.242 152.738 634.589 146.395 Q633.246 148.386 631.186 149.451 Q629.126 150.516 626.626 150.516 Q621.441 150.516 618.409 147.391 Q615.399 144.243 615.399 138.803 Q615.399 133.479 618.547 130.261 Q621.696 127.044 626.927 127.044 Q632.922 127.044 636.07 131.65 Q639.242 136.233 639.242 144.983 Q639.242 153.155 635.353 158.039 Q631.487 162.9 624.936 162.9 Q623.177 162.9 621.371 162.553 Q619.566 162.205 617.621 161.511 M626.927 146.858 Q630.075 146.858 631.904 144.706 Q633.756 142.553 633.756 138.803 Q633.756 135.076 631.904 132.923 Q630.075 130.747 626.927 130.747 Q623.779 130.747 621.927 132.923 Q620.098 135.076 620.098 138.803 Q620.098 142.553 621.927 144.706 Q623.779 146.858 626.927 146.858 Z" fill="#000000" fill-rule="nonzero" fill-opacity="1" /><path clip-path="url(#clip710)" d="M660.492 131.743 L648.686 150.192 L660.492 150.192 L660.492 131.743 M659.265 127.669 L665.144 127.669 L665.144 150.192 L670.075 150.192 L670.075 154.081 L665.144 154.081 L665.144 162.229 L660.492 162.229 L660.492 154.081 L644.89 154.081 L644.89 149.567 L659.265 127.669 Z" fill="#000000" fill-rule="nonzero" fill-opacity="1" /><path clip-path="url(#clip710)" d="M678.617 158.293 L686.255 158.293 L686.255 131.928 L677.945 133.595 L677.945 129.335 L686.209 127.669 L690.885 127.669 L690.885 158.293 L698.524 158.293 L698.524 162.229 L678.617 162.229 L678.617 158.293 Z" fill="#000000" fill-rule="nonzero" fill-opacity="1" /><path clip-path="url(#clip710)" d="M708.778 158.293 L716.417 158.293 L716.417 131.928 L708.107 133.595 L708.107 129.335 L716.371 127.669 L721.047 127.669 L721.047 158.293 L728.686 158.293 L728.686 162.229 L708.778 162.229 L708.778 158.293 Z" fill="#000000" fill-rule="nonzero" fill-opacity="1" /><path clip-path="url(#clip710)" d="M742.158 158.293 L758.477 158.293 L758.477 162.229 L736.533 162.229 L736.533 158.293 Q739.195 155.539 743.778 150.909 Q748.385 146.256 749.565 144.914 Q751.811 142.391 752.69 140.655 Q753.593 138.895 753.593 137.206 Q753.593 134.451 751.649 132.715 Q749.727 130.979 746.625 130.979 Q744.426 130.979 741.973 131.743 Q739.542 132.507 736.764 134.057 L736.764 129.335 Q739.588 128.201 742.042 127.622 Q744.496 127.044 746.533 127.044 Q751.903 127.044 755.098 129.729 Q758.292 132.414 758.292 136.905 Q758.292 139.034 757.482 140.956 Q756.695 142.854 754.588 145.446 Q754.01 146.118 750.908 149.335 Q747.806 152.53 742.158 158.293 Z" fill="#000000" fill-rule="nonzero" fill-opacity="1" /><path clip-path="url(#clip710)" d="M778.871 143.085 Q775.722 143.085 773.871 145.238 Q772.042 147.391 772.042 151.141 Q772.042 154.868 773.871 157.043 Q775.722 159.196 778.871 159.196 Q782.019 159.196 783.847 157.043 Q785.699 154.868 785.699 151.141 Q785.699 147.391 783.847 145.238 Q782.019 143.085 778.871 143.085 M788.153 128.433 L788.153 132.692 Q786.394 131.858 784.588 131.419 Q782.806 130.979 781.047 130.979 Q776.417 130.979 773.963 134.104 Q771.533 137.229 771.185 143.548 Q772.551 141.534 774.611 140.469 Q776.672 139.382 779.148 139.382 Q784.357 139.382 787.366 142.553 Q790.398 145.701 790.398 151.141 Q790.398 156.465 787.25 159.682 Q784.102 162.9 778.871 162.9 Q772.875 162.9 769.704 158.317 Q766.533 153.71 766.533 144.983 Q766.533 136.789 770.422 131.928 Q774.31 127.044 780.861 127.044 Q782.621 127.044 784.403 127.391 Q786.209 127.738 788.153 128.433 Z" fill="#000000" fill-rule="nonzero" fill-opacity="1" /><path clip-path="url(#clip710)" d="M802.482 158.293 L818.801 158.293 L818.801 162.229 L796.857 162.229 L796.857 158.293 Q799.519 155.539 804.102 150.909 Q808.708 146.256 809.889 144.914 Q812.134 142.391 813.014 140.655 Q813.917 138.895 813.917 137.206 Q813.917 134.451 811.972 132.715 Q810.051 130.979 806.949 130.979 Q804.75 130.979 802.296 131.743 Q799.866 132.507 797.088 134.057 L797.088 129.335 Q799.912 128.201 802.366 127.622 Q804.82 127.044 806.857 127.044 Q812.227 127.044 815.421 129.729 Q818.616 132.414 818.616 136.905 Q818.616 139.034 817.806 140.956 Q817.019 142.854 814.912 145.446 Q814.333 146.118 811.232 149.335 Q808.13 152.53 802.482 158.293 Z" fill="#000000" fill-rule="nonzero" fill-opacity="1" /><path clip-path="url(#clip710)" d="M827.435 127.669 L849.657 127.669 L849.657 129.659 L837.111 162.229 L832.227 162.229 L844.032 131.604 L827.435 131.604 L827.435 127.669 Z" fill="#000000" fill-rule="nonzero" fill-opacity="1" /><path clip-path="url(#clip710)" d="M859.588 158.293 L867.227 158.293 L867.227 131.928 L858.916 133.595 L858.916 129.335 L867.18 127.669 L871.856 127.669 L871.856 158.293 L879.495 158.293 L879.495 162.229 L859.588 162.229 L859.588 158.293 Z" fill="#000000" fill-rule="nonzero" fill-opacity="1" /><path clip-path="url(#clip710)" d="M888.986 127.669 L907.342 127.669 L907.342 131.604 L893.268 131.604 L893.268 140.076 Q894.287 139.729 895.305 139.567 Q896.324 139.382 897.342 139.382 Q903.129 139.382 906.509 142.553 Q909.888 145.724 909.888 151.141 Q909.888 156.719 906.416 159.821 Q902.944 162.9 896.625 162.9 Q894.449 162.9 892.18 162.53 Q889.935 162.159 887.527 161.418 L887.527 156.719 Q889.611 157.854 891.833 158.409 Q894.055 158.965 896.532 158.965 Q900.537 158.965 902.875 156.858 Q905.213 154.752 905.213 151.141 Q905.213 147.53 902.875 145.423 Q900.537 143.317 896.532 143.317 Q894.657 143.317 892.782 143.733 Q890.93 144.15 888.986 145.03 L888.986 127.669 Z" fill="#000000" fill-rule="nonzero" fill-opacity="1" /><path clip-path="url(#clip710)" d="M917.921 127.669 L940.143 127.669 L940.143 129.659 L927.597 162.229 L922.712 162.229 L934.518 131.604 L917.921 131.604 L917.921 127.669 Z" fill="#000000" fill-rule="nonzero" fill-opacity="1" /><path clip-path="url(#clip710)" d="M949.31 127.669 L967.666 127.669 L967.666 131.604 L953.592 131.604 L953.592 140.076 Q954.61 139.729 955.629 139.567 Q956.647 139.382 957.666 139.382 Q963.453 139.382 966.833 142.553 Q970.212 145.724 970.212 151.141 Q970.212 156.719 966.74 159.821 Q963.268 162.9 956.948 162.9 Q954.772 162.9 952.504 162.53 Q950.259 162.159 947.851 161.418 L947.851 156.719 Q949.935 157.854 952.157 158.409 Q954.379 158.965 956.856 158.965 Q960.86 158.965 963.198 156.858 Q965.536 154.752 965.536 151.141 Q965.536 147.53 963.198 145.423 Q960.86 143.317 956.856 143.317 Q954.981 143.317 953.106 143.733 Q951.254 144.15 949.31 145.03 L949.31 127.669 Z" fill="#000000" fill-rule="nonzero" fill-opacity="1" /><path clip-path="url(#clip710)" d="M978.245 127.669 L1000.47 127.669 L1000.47 129.659 L987.92 162.229 L983.036 162.229 L994.842 131.604 L978.245 131.604 L978.245 127.669 Z" fill="#000000" fill-rule="nonzero" fill-opacity="1" /></svg>
