<?xml version="1.0" encoding="utf-8"?>
<svg xmlns="http://www.w3.org/2000/svg" xmlns:xlink="http://www.w3.org/1999/xlink" width="600" height="400" viewBox="0 0 2400 1600">
<defs>
  <clipPath id="clip600">
    <rect x="0" y="0" width="2400" height="1600"/>
  </clipPath>
</defs>
<path clip-path="url(#clip600)" d="M0 1600 L2400 1600 L2400 0 L0 0  Z" fill="#ffffff" fill-rule="evenodd" fill-opacity="1"/>
<defs>
  <clipPath id="clip601">
    <rect x="480" y="0" width="1681" height="1600"/>
  </clipPath>
</defs>
<path clip-path="url(#clip600)" d="M175.445 1423.18 L2352.76 1423.18 L2352.76 47.2441 L175.445 47.2441  Z" fill="#ffffff" fill-rule="evenodd" fill-opacity="1"/>
<defs>
  <clipPath id="clip602">
    <rect x="175" y="47" width="2178" height="1377"/>
  </clipPath>
</defs>
<polyline clip-path="url(#clip602)" style="stroke:#000000; stroke-linecap:round; stroke-linejoin:round; stroke-width:2; stroke-opacity:0.1; fill:none" points="531.61,1423.18 531.61,47.2441 "/>
<polyline clip-path="url(#clip602)" style="stroke:#000000; stroke-linecap:round; stroke-linejoin:round; stroke-width:2; stroke-opacity:0.1; fill:none" points="948.544,1423.18 948.544,47.2441 "/>
<polyline clip-path="url(#clip602)" style="stroke:#000000; stroke-linecap:round; stroke-linejoin:round; stroke-width:2; stroke-opacity:0.1; fill:none" points="1365.48,1423.18 1365.48,47.2441 "/>
<polyline clip-path="url(#clip602)" style="stroke:#000000; stroke-linecap:round; stroke-linejoin:round; stroke-width:2; stroke-opacity:0.1; fill:none" points="1782.41,1423.18 1782.41,47.2441 "/>
<polyline clip-path="url(#clip602)" style="stroke:#000000; stroke-linecap:round; stroke-linejoin:round; stroke-width:2; stroke-opacity:0.1; fill:none" points="2199.35,1423.18 2199.35,47.2441 "/>
<polyline clip-path="url(#clip600)" style="stroke:#000000; stroke-linecap:round; stroke-linejoin:round; stroke-width:4; stroke-opacity:1; fill:none" points="175.445,1423.18 2352.76,1423.18 "/>
<polyline clip-path="url(#clip600)" style="stroke:#000000; stroke-linecap:round; stroke-linejoin:round; stroke-width:4; stroke-opacity:1; fill:none" points="531.61,1423.18 531.61,1404.28 "/>
<polyline clip-path="url(#clip600)" style="stroke:#000000; stroke-linecap:round; stroke-linejoin:round; stroke-width:4; stroke-opacity:1; fill:none" points="948.544,1423.18 948.544,1404.28 "/>
<polyline clip-path="url(#clip600)" style="stroke:#000000; stroke-linecap:round; stroke-linejoin:round; stroke-width:4; stroke-opacity:1; fill:none" points="1365.48,1423.18 1365.48,1404.28 "/>
<polyline clip-path="url(#clip600)" style="stroke:#000000; stroke-linecap:round; stroke-linejoin:round; stroke-width:4; stroke-opacity:1; fill:none" points="1782.41,1423.18 1782.41,1404.28 "/>
<polyline clip-path="url(#clip600)" style="stroke:#000000; stroke-linecap:round; stroke-linejoin:round; stroke-width:4; stroke-opacity:1; fill:none" points="2199.35,1423.18 2199.35,1404.28 "/>
<path clip-path="url(#clip600)" d="M510.383 1481.64 L526.703 1481.64 L526.703 1485.58 L504.758 1485.58 L504.758 1481.64 Q507.42 1478.89 512.004 1474.26 Q516.61 1469.61 517.791 1468.27 Q520.036 1465.74 520.916 1464.01 Q521.819 1462.25 521.819 1460.56 Q521.819 1457.8 519.874 1456.07 Q517.953 1454.33 514.851 1454.33 Q512.652 1454.33 510.198 1455.09 Q507.768 1455.86 504.99 1457.41 L504.99 1452.69 Q507.814 1451.55 510.268 1450.97 Q512.721 1450.39 514.758 1450.39 Q520.129 1450.39 523.323 1453.08 Q526.518 1455.77 526.518 1460.26 Q526.518 1462.39 525.707 1464.31 Q524.92 1466.2 522.814 1468.8 Q522.235 1469.47 519.133 1472.69 Q516.032 1475.88 510.383 1481.64 Z" fill="#000000" fill-rule="nonzero" fill-opacity="1" /><path clip-path="url(#clip600)" d="M546.518 1454.1 Q542.906 1454.1 541.078 1457.66 Q539.272 1461.2 539.272 1468.33 Q539.272 1475.44 541.078 1479.01 Q542.906 1482.55 546.518 1482.55 Q550.152 1482.55 551.957 1479.01 Q553.786 1475.44 553.786 1468.33 Q553.786 1461.2 551.957 1457.66 Q550.152 1454.1 546.518 1454.1 M546.518 1450.39 Q552.328 1450.39 555.383 1455 Q558.462 1459.58 558.462 1468.33 Q558.462 1477.06 555.383 1481.67 Q552.328 1486.25 546.518 1486.25 Q540.707 1486.25 537.629 1481.67 Q534.573 1477.06 534.573 1468.33 Q534.573 1459.58 537.629 1455 Q540.707 1450.39 546.518 1450.39 Z" fill="#000000" fill-rule="nonzero" fill-opacity="1" /><path clip-path="url(#clip600)" d="M936.715 1455.09 L924.91 1473.54 L936.715 1473.54 L936.715 1455.09 M935.489 1451.02 L941.368 1451.02 L941.368 1473.54 L946.299 1473.54 L946.299 1477.43 L941.368 1477.43 L941.368 1485.58 L936.715 1485.58 L936.715 1477.43 L921.114 1477.43 L921.114 1472.92 L935.489 1451.02 Z" fill="#000000" fill-rule="nonzero" fill-opacity="1" /><path clip-path="url(#clip600)" d="M964.03 1454.1 Q960.419 1454.1 958.59 1457.66 Q956.785 1461.2 956.785 1468.33 Q956.785 1475.44 958.59 1479.01 Q960.419 1482.55 964.03 1482.55 Q967.664 1482.55 969.47 1479.01 Q971.299 1475.44 971.299 1468.33 Q971.299 1461.2 969.47 1457.66 Q967.664 1454.1 964.03 1454.1 M964.03 1450.39 Q969.84 1450.39 972.896 1455 Q975.975 1459.58 975.975 1468.33 Q975.975 1477.06 972.896 1481.67 Q969.84 1486.25 964.03 1486.25 Q958.22 1486.25 955.141 1481.67 Q952.086 1477.06 952.086 1468.33 Q952.086 1459.58 955.141 1455 Q958.22 1450.39 964.03 1450.39 Z" fill="#000000" fill-rule="nonzero" fill-opacity="1" /><path clip-path="url(#clip600)" d="M1350.88 1466.44 Q1347.74 1466.44 1345.88 1468.59 Q1344.05 1470.74 1344.05 1474.49 Q1344.05 1478.22 1345.88 1480.39 Q1347.74 1482.55 1350.88 1482.55 Q1354.03 1482.55 1355.86 1480.39 Q1357.71 1478.22 1357.71 1474.49 Q1357.71 1470.74 1355.86 1468.59 Q1354.03 1466.44 1350.88 1466.44 M1360.17 1451.78 L1360.17 1456.04 Q1358.41 1455.21 1356.6 1454.77 Q1354.82 1454.33 1353.06 1454.33 Q1348.43 1454.33 1345.98 1457.45 Q1343.55 1460.58 1343.2 1466.9 Q1344.56 1464.89 1346.62 1463.82 Q1348.68 1462.73 1351.16 1462.73 Q1356.37 1462.73 1359.38 1465.9 Q1362.41 1469.05 1362.41 1474.49 Q1362.41 1479.82 1359.26 1483.03 Q1356.11 1486.25 1350.88 1486.25 Q1344.89 1486.25 1341.72 1481.67 Q1338.55 1477.06 1338.55 1468.33 Q1338.55 1460.14 1342.43 1455.28 Q1346.32 1450.39 1352.87 1450.39 Q1354.63 1450.39 1356.42 1450.74 Q1358.22 1451.09 1360.17 1451.78 Z" fill="#000000" fill-rule="nonzero" fill-opacity="1" /><path clip-path="url(#clip600)" d="M1380.47 1454.1 Q1376.86 1454.1 1375.03 1457.66 Q1373.22 1461.2 1373.22 1468.33 Q1373.22 1475.44 1375.03 1479.01 Q1376.86 1482.55 1380.47 1482.55 Q1384.1 1482.55 1385.91 1479.01 Q1387.73 1475.44 1387.73 1468.33 Q1387.73 1461.2 1385.91 1457.66 Q1384.1 1454.1 1380.47 1454.1 M1380.47 1450.39 Q1386.28 1450.39 1389.33 1455 Q1392.41 1459.58 1392.41 1468.33 Q1392.41 1477.06 1389.33 1481.67 Q1386.28 1486.25 1380.47 1486.25 Q1374.66 1486.25 1371.58 1481.67 Q1368.52 1477.06 1368.52 1468.33 Q1368.52 1459.58 1371.58 1455 Q1374.66 1450.39 1380.47 1450.39 Z" fill="#000000" fill-rule="nonzero" fill-opacity="1" /><path clip-path="url(#clip600)" d="M1767.28 1469.17 Q1763.95 1469.17 1762.03 1470.95 Q1760.13 1472.73 1760.13 1475.86 Q1760.13 1478.98 1762.03 1480.77 Q1763.95 1482.55 1767.28 1482.55 Q1770.62 1482.55 1772.54 1480.77 Q1774.46 1478.96 1774.46 1475.86 Q1774.46 1472.73 1772.54 1470.95 Q1770.64 1469.17 1767.28 1469.17 M1762.61 1467.18 Q1759.6 1466.44 1757.91 1464.38 Q1756.24 1462.32 1756.24 1459.35 Q1756.24 1455.21 1759.18 1452.8 Q1762.15 1450.39 1767.28 1450.39 Q1772.45 1450.39 1775.39 1452.8 Q1778.33 1455.21 1778.33 1459.35 Q1778.33 1462.32 1776.64 1464.38 Q1774.97 1466.44 1771.98 1467.18 Q1775.36 1467.96 1777.24 1470.26 Q1779.14 1472.55 1779.14 1475.86 Q1779.14 1480.88 1776.06 1483.57 Q1773 1486.25 1767.28 1486.25 Q1761.57 1486.25 1758.49 1483.57 Q1755.43 1480.88 1755.43 1475.86 Q1755.43 1472.55 1757.33 1470.26 Q1759.23 1467.96 1762.61 1467.18 M1760.9 1459.79 Q1760.9 1462.48 1762.56 1463.98 Q1764.25 1465.49 1767.28 1465.49 Q1770.29 1465.49 1771.98 1463.98 Q1773.7 1462.48 1773.7 1459.79 Q1773.7 1457.11 1771.98 1455.6 Q1770.29 1454.1 1767.28 1454.1 Q1764.25 1454.1 1762.56 1455.6 Q1760.9 1457.11 1760.9 1459.79 Z" fill="#000000" fill-rule="nonzero" fill-opacity="1" /><path clip-path="url(#clip600)" d="M1797.45 1454.1 Q1793.84 1454.1 1792.01 1457.66 Q1790.2 1461.2 1790.2 1468.33 Q1790.2 1475.44 1792.01 1479.01 Q1793.84 1482.55 1797.45 1482.55 Q1801.08 1482.55 1802.89 1479.01 Q1804.72 1475.44 1804.72 1468.33 Q1804.72 1461.2 1802.89 1457.66 Q1801.08 1454.1 1797.45 1454.1 M1797.45 1450.39 Q1803.26 1450.39 1806.31 1455 Q1809.39 1459.58 1809.39 1468.33 Q1809.39 1477.06 1806.31 1481.67 Q1803.26 1486.25 1797.45 1486.25 Q1791.64 1486.25 1788.56 1481.67 Q1785.5 1477.06 1785.5 1468.33 Q1785.5 1459.58 1788.56 1455 Q1791.64 1450.39 1797.45 1450.39 Z" fill="#000000" fill-rule="nonzero" fill-opacity="1" /><path clip-path="url(#clip600)" d="M2158.95 1481.64 L2166.59 1481.64 L2166.59 1455.28 L2158.28 1456.95 L2158.28 1452.69 L2166.55 1451.02 L2171.22 1451.02 L2171.22 1481.64 L2178.86 1481.64 L2178.86 1485.58 L2158.95 1485.58 L2158.95 1481.64 Z" fill="#000000" fill-rule="nonzero" fill-opacity="1" /><path clip-path="url(#clip600)" d="M2198.3 1454.1 Q2194.69 1454.1 2192.86 1457.66 Q2191.06 1461.2 2191.06 1468.33 Q2191.06 1475.44 2192.86 1479.01 Q2194.69 1482.55 2198.3 1482.55 Q2201.94 1482.55 2203.74 1479.01 Q2205.57 1475.44 2205.57 1468.33 Q2205.57 1461.2 2203.74 1457.66 Q2201.94 1454.1 2198.3 1454.1 M2198.3 1450.39 Q2204.11 1450.39 2207.17 1455 Q2210.25 1459.58 2210.25 1468.33 Q2210.25 1477.06 2207.17 1481.67 Q2204.11 1486.25 2198.3 1486.25 Q2192.49 1486.25 2189.42 1481.67 Q2186.36 1477.06 2186.36 1468.33 Q2186.36 1459.58 2189.42 1455 Q2192.49 1450.39 2198.3 1450.39 Z" fill="#000000" fill-rule="nonzero" fill-opacity="1" /><path clip-path="url(#clip600)" d="M2228.47 1454.1 Q2224.86 1454.1 2223.03 1457.66 Q2221.22 1461.2 2221.22 1468.33 Q2221.22 1475.44 2223.03 1479.01 Q2224.86 1482.55 2228.47 1482.55 Q2232.1 1482.55 2233.91 1479.01 Q2235.73 1475.44 2235.73 1468.33 Q2235.73 1461.2 2233.91 1457.66 Q2232.1 1454.1 2228.47 1454.1 M2228.47 1450.39 Q2234.28 1450.39 2237.33 1455 Q2240.41 1459.58 2240.41 1468.33 Q2240.41 1477.06 2237.33 1481.67 Q2234.28 1486.25 2228.47 1486.25 Q2222.66 1486.25 2219.58 1481.67 Q2216.52 1477.06 2216.52 1468.33 Q2216.52 1459.58 2219.58 1455 Q2222.66 1450.39 2228.47 1450.39 Z" fill="#000000" fill-rule="nonzero" fill-opacity="1" /><path clip-path="url(#clip600)" d="M1071.14 1533.76 L1071.14 1539.24 Q1068.66 1537.87 1066.14 1537.2 Q1063.66 1536.5 1061.11 1536.5 Q1055.42 1536.5 1052.27 1540.13 Q1049.11 1543.73 1049.11 1550.25 Q1049.11 1556.78 1052.27 1560.4 Q1055.42 1564 1061.11 1564 Q1063.66 1564 1066.14 1563.33 Q1068.66 1562.63 1071.14 1561.26 L1071.14 1566.68 Q1068.69 1567.82 1066.05 1568.39 Q1063.44 1568.97 1060.48 1568.97 Q1052.42 1568.97 1047.68 1563.91 Q1042.94 1558.85 1042.94 1550.25 Q1042.94 1541.53 1047.71 1536.53 Q1052.52 1531.54 1060.86 1531.54 Q1063.56 1531.54 1066.14 1532.11 Q1068.72 1532.65 1071.14 1533.76 Z" fill="#000000" fill-rule="nonzero" fill-opacity="1" /><path clip-path="url(#clip600)" d="M1095.14 1536.5 Q1090.43 1536.5 1087.69 1540.19 Q1084.95 1543.85 1084.95 1550.25 Q1084.95 1556.65 1087.66 1560.34 Q1090.4 1564 1095.14 1564 Q1099.82 1564 1102.55 1560.31 Q1105.29 1556.62 1105.29 1550.25 Q1105.29 1543.92 1102.55 1540.23 Q1099.82 1536.5 1095.14 1536.5 M1095.14 1531.54 Q1102.78 1531.54 1107.14 1536.5 Q1111.5 1541.47 1111.5 1550.25 Q1111.5 1559 1107.14 1564 Q1102.78 1568.97 1095.14 1568.97 Q1087.47 1568.97 1083.11 1564 Q1078.78 1559 1078.78 1550.25 Q1078.78 1541.47 1083.11 1536.5 Q1087.47 1531.54 1095.14 1531.54 Z" fill="#000000" fill-rule="nonzero" fill-opacity="1" /><path clip-path="url(#clip600)" d="M1150.84 1546.53 L1150.84 1568.04 L1144.98 1568.04 L1144.98 1546.72 Q1144.98 1541.66 1143.01 1539.14 Q1141.04 1536.63 1137.09 1536.63 Q1132.35 1536.63 1129.61 1539.65 Q1126.87 1542.68 1126.87 1547.9 L1126.87 1568.04 L1120.98 1568.04 L1120.98 1532.4 L1126.87 1532.4 L1126.87 1537.93 Q1128.97 1534.72 1131.81 1533.13 Q1134.67 1531.54 1138.39 1531.54 Q1144.54 1531.54 1147.69 1535.36 Q1150.84 1539.14 1150.84 1546.53 Z" fill="#000000" fill-rule="nonzero" fill-opacity="1" /><path clip-path="url(#clip600)" d="M1188.17 1533.76 L1188.17 1539.24 Q1185.69 1537.87 1183.18 1537.2 Q1180.69 1536.5 1178.15 1536.5 Q1172.45 1536.5 1169.3 1540.13 Q1166.15 1543.73 1166.15 1550.25 Q1166.15 1556.78 1169.3 1560.4 Q1172.45 1564 1178.15 1564 Q1180.69 1564 1183.18 1563.33 Q1185.69 1562.63 1188.17 1561.26 L1188.17 1566.68 Q1185.72 1567.82 1183.08 1568.39 Q1180.47 1568.97 1177.51 1568.97 Q1169.46 1568.97 1164.72 1563.91 Q1159.97 1558.85 1159.97 1550.25 Q1159.97 1541.53 1164.75 1536.53 Q1169.55 1531.54 1177.89 1531.54 Q1180.6 1531.54 1183.18 1532.11 Q1185.75 1532.65 1188.17 1533.76 Z" fill="#000000" fill-rule="nonzero" fill-opacity="1" /><path clip-path="url(#clip600)" d="M1228.85 1548.76 L1228.85 1551.62 L1201.92 1551.62 Q1202.31 1557.67 1205.55 1560.85 Q1208.83 1564 1214.65 1564 Q1218.03 1564 1221.18 1563.17 Q1224.36 1562.35 1227.48 1560.69 L1227.48 1566.23 Q1224.33 1567.57 1221.02 1568.27 Q1217.71 1568.97 1214.3 1568.97 Q1205.77 1568.97 1200.78 1564 Q1195.81 1559.04 1195.81 1550.57 Q1195.81 1541.82 1200.52 1536.69 Q1205.27 1531.54 1213.29 1531.54 Q1220.48 1531.54 1224.65 1536.18 Q1228.85 1540.8 1228.85 1548.76 M1222.99 1547.04 Q1222.93 1542.23 1220.29 1539.37 Q1217.68 1536.5 1213.35 1536.5 Q1208.45 1536.5 1205.49 1539.27 Q1202.56 1542.04 1202.11 1547.07 L1222.99 1547.04 Z" fill="#000000" fill-rule="nonzero" fill-opacity="1" /><path clip-path="url(#clip600)" d="M1268.1 1546.53 L1268.1 1568.04 L1262.24 1568.04 L1262.24 1546.72 Q1262.24 1541.66 1260.27 1539.14 Q1258.29 1536.63 1254.35 1536.63 Q1249.6 1536.63 1246.87 1539.65 Q1244.13 1542.68 1244.13 1547.9 L1244.13 1568.04 L1238.24 1568.04 L1238.24 1532.4 L1244.13 1532.4 L1244.13 1537.93 Q1246.23 1534.72 1249.06 1533.13 Q1251.93 1531.54 1255.65 1531.54 Q1261.79 1531.54 1264.94 1535.36 Q1268.1 1539.14 1268.1 1546.53 Z" fill="#000000" fill-rule="nonzero" fill-opacity="1" /><path clip-path="url(#clip600)" d="M1285.57 1522.27 L1285.57 1532.4 L1297.63 1532.4 L1297.63 1536.95 L1285.57 1536.95 L1285.57 1556.3 Q1285.57 1560.66 1286.75 1561.9 Q1287.96 1563.14 1291.62 1563.14 L1297.63 1563.14 L1297.63 1568.04 L1291.62 1568.04 Q1284.84 1568.04 1282.26 1565.53 Q1279.68 1562.98 1279.68 1556.3 L1279.68 1536.95 L1275.38 1536.95 L1275.38 1532.4 L1279.68 1532.4 L1279.68 1522.27 L1285.57 1522.27 Z" fill="#000000" fill-rule="nonzero" fill-opacity="1" /><path clip-path="url(#clip600)" d="M1325.99 1537.87 Q1325 1537.3 1323.83 1537.04 Q1322.68 1536.76 1321.28 1536.76 Q1316.32 1536.76 1313.64 1540 Q1311 1543.22 1311 1549.27 L1311 1568.04 L1305.11 1568.04 L1305.11 1532.4 L1311 1532.4 L1311 1537.93 Q1312.85 1534.69 1315.81 1533.13 Q1318.77 1531.54 1323 1531.54 Q1323.6 1531.54 1324.34 1531.63 Q1325.07 1531.7 1325.96 1531.85 L1325.99 1537.87 Z" fill="#000000" fill-rule="nonzero" fill-opacity="1" /><path clip-path="url(#clip600)" d="M1348.33 1550.12 Q1341.24 1550.12 1338.5 1551.75 Q1335.76 1553.37 1335.76 1557.29 Q1335.76 1560.4 1337.8 1562.25 Q1339.87 1564.07 1343.4 1564.07 Q1348.27 1564.07 1351.2 1560.63 Q1354.16 1557.16 1354.16 1551.43 L1354.16 1550.12 L1348.33 1550.12 M1360.02 1547.71 L1360.02 1568.04 L1354.16 1568.04 L1354.16 1562.63 Q1352.15 1565.88 1349.16 1567.44 Q1346.17 1568.97 1341.84 1568.97 Q1336.37 1568.97 1333.12 1565.91 Q1329.91 1562.82 1329.91 1557.67 Q1329.91 1551.65 1333.92 1548.6 Q1337.96 1545.54 1345.95 1545.54 L1354.16 1545.54 L1354.16 1544.97 Q1354.16 1540.93 1351.49 1538.73 Q1348.84 1536.5 1344.04 1536.5 Q1340.98 1536.5 1338.09 1537.23 Q1335.19 1537.97 1332.52 1539.43 L1332.52 1534.02 Q1335.73 1532.78 1338.75 1532.17 Q1341.78 1531.54 1344.64 1531.54 Q1352.38 1531.54 1356.2 1535.55 Q1360.02 1539.56 1360.02 1547.71 Z" fill="#000000" fill-rule="nonzero" fill-opacity="1" /><path clip-path="url(#clip600)" d="M1377.87 1522.27 L1377.87 1532.4 L1389.93 1532.4 L1389.93 1536.95 L1377.87 1536.95 L1377.87 1556.3 Q1377.87 1560.66 1379.05 1561.9 Q1380.26 1563.14 1383.92 1563.14 L1389.93 1563.14 L1389.93 1568.04 L1383.92 1568.04 Q1377.14 1568.04 1374.56 1565.53 Q1371.98 1562.98 1371.98 1556.3 L1371.98 1536.95 L1367.69 1536.95 L1367.69 1532.4 L1371.98 1532.4 L1371.98 1522.27 L1377.87 1522.27 Z" fill="#000000" fill-rule="nonzero" fill-opacity="1" /><path clip-path="url(#clip600)" d="M1397.64 1532.4 L1403.49 1532.4 L1403.49 1568.04 L1397.64 1568.04 L1397.64 1532.4 M1397.64 1518.52 L1403.49 1518.52 L1403.49 1525.93 L1397.64 1525.93 L1397.64 1518.52 Z" fill="#000000" fill-rule="nonzero" fill-opacity="1" /><path clip-path="url(#clip600)" d="M1429.56 1536.5 Q1424.85 1536.5 1422.11 1540.19 Q1419.38 1543.85 1419.38 1550.25 Q1419.38 1556.65 1422.08 1560.34 Q1424.82 1564 1429.56 1564 Q1434.24 1564 1436.98 1560.31 Q1439.71 1556.62 1439.71 1550.25 Q1439.71 1543.92 1436.98 1540.23 Q1434.24 1536.5 1429.56 1536.5 M1429.56 1531.54 Q1437.2 1531.54 1441.56 1536.5 Q1445.92 1541.47 1445.92 1550.25 Q1445.92 1559 1441.56 1564 Q1437.2 1568.97 1429.56 1568.97 Q1421.89 1568.97 1417.53 1564 Q1413.2 1559 1413.2 1550.25 Q1413.2 1541.47 1417.53 1536.5 Q1421.89 1531.54 1429.56 1531.54 Z" fill="#000000" fill-rule="nonzero" fill-opacity="1" /><path clip-path="url(#clip600)" d="M1485.26 1546.53 L1485.26 1568.04 L1479.4 1568.04 L1479.4 1546.72 Q1479.4 1541.66 1477.43 1539.14 Q1475.46 1536.63 1471.51 1536.63 Q1466.77 1536.63 1464.03 1539.65 Q1461.29 1542.68 1461.29 1547.9 L1461.29 1568.04 L1455.41 1568.04 L1455.41 1532.4 L1461.29 1532.4 L1461.29 1537.93 Q1463.39 1534.72 1466.23 1533.13 Q1469.09 1531.54 1472.82 1531.54 Q1478.96 1531.54 1482.11 1535.36 Q1485.26 1539.14 1485.26 1546.53 Z" fill="#000000" fill-rule="nonzero" fill-opacity="1" /><polyline clip-path="url(#clip602)" style="stroke:#000000; stroke-linecap:round; stroke-linejoin:round; stroke-width:2; stroke-opacity:0.1; fill:none" points="175.445,1234.37 2352.76,1234.37 "/>
<polyline clip-path="url(#clip602)" style="stroke:#000000; stroke-linecap:round; stroke-linejoin:round; stroke-width:2; stroke-opacity:0.1; fill:none" points="175.445,934.626 2352.76,934.626 "/>
<polyline clip-path="url(#clip602)" style="stroke:#000000; stroke-linecap:round; stroke-linejoin:round; stroke-width:2; stroke-opacity:0.1; fill:none" points="175.445,634.884 2352.76,634.884 "/>
<polyline clip-path="url(#clip602)" style="stroke:#000000; stroke-linecap:round; stroke-linejoin:round; stroke-width:2; stroke-opacity:0.1; fill:none" points="175.445,335.142 2352.76,335.142 "/>
<polyline clip-path="url(#clip600)" style="stroke:#000000; stroke-linecap:round; stroke-linejoin:round; stroke-width:4; stroke-opacity:1; fill:none" points="175.445,1423.18 175.445,47.2441 "/>
<polyline clip-path="url(#clip600)" style="stroke:#000000; stroke-linecap:round; stroke-linejoin:round; stroke-width:4; stroke-opacity:1; fill:none" points="175.445,1234.37 194.343,1234.37 "/>
<polyline clip-path="url(#clip600)" style="stroke:#000000; stroke-linecap:round; stroke-linejoin:round; stroke-width:4; stroke-opacity:1; fill:none" points="175.445,934.626 194.343,934.626 "/>
<polyline clip-path="url(#clip600)" style="stroke:#000000; stroke-linecap:round; stroke-linejoin:round; stroke-width:4; stroke-opacity:1; fill:none" points="175.445,634.884 194.343,634.884 "/>
<polyline clip-path="url(#clip600)" style="stroke:#000000; stroke-linecap:round; stroke-linejoin:round; stroke-width:4; stroke-opacity:1; fill:none" points="175.445,335.142 194.343,335.142 "/>
<path clip-path="url(#clip600)" d="M123.126 1247.71 L139.445 1247.71 L139.445 1251.65 L117.501 1251.65 L117.501 1247.71 Q120.163 1244.96 124.746 1240.33 Q129.353 1235.68 130.533 1234.33 Q132.779 1231.81 133.658 1230.07 Q134.561 1228.31 134.561 1226.62 Q134.561 1223.87 132.617 1222.13 Q130.695 1220.4 127.593 1220.4 Q125.394 1220.4 122.941 1221.16 Q120.51 1221.93 117.732 1223.48 L117.732 1218.75 Q120.556 1217.62 123.01 1217.04 Q125.464 1216.46 127.501 1216.46 Q132.871 1216.46 136.066 1219.15 Q139.26 1221.83 139.26 1226.32 Q139.26 1228.45 138.45 1230.37 Q137.663 1232.27 135.556 1234.87 Q134.978 1235.54 131.876 1238.75 Q128.774 1241.95 123.126 1247.71 Z" fill="#000000" fill-rule="nonzero" fill-opacity="1" /><path clip-path="url(#clip600)" d="M129.862 921.42 L118.056 939.869 L129.862 939.869 L129.862 921.42 M128.635 917.346 L134.515 917.346 L134.515 939.869 L139.445 939.869 L139.445 943.758 L134.515 943.758 L134.515 951.906 L129.862 951.906 L129.862 943.758 L114.26 943.758 L114.26 939.244 L128.635 917.346 Z" fill="#000000" fill-rule="nonzero" fill-opacity="1" /><path clip-path="url(#clip600)" d="M127.917 633.021 Q124.769 633.021 122.918 635.173 Q121.089 637.326 121.089 641.076 Q121.089 644.803 122.918 646.979 Q124.769 649.132 127.917 649.132 Q131.066 649.132 132.894 646.979 Q134.746 644.803 134.746 641.076 Q134.746 637.326 132.894 635.173 Q131.066 633.021 127.917 633.021 M137.2 618.368 L137.2 622.627 Q135.441 621.794 133.635 621.354 Q131.853 620.914 130.093 620.914 Q125.464 620.914 123.01 624.039 Q120.58 627.164 120.232 633.484 Q121.598 631.47 123.658 630.405 Q125.718 629.317 128.195 629.317 Q133.404 629.317 136.413 632.488 Q139.445 635.636 139.445 641.076 Q139.445 646.4 136.297 649.618 Q133.149 652.835 127.917 652.835 Q121.922 652.835 118.751 648.252 Q115.58 643.646 115.58 634.919 Q115.58 626.724 119.468 621.863 Q123.357 616.979 129.908 616.979 Q131.667 616.979 133.45 617.326 Q135.255 617.673 137.2 618.368 Z" fill="#000000" fill-rule="nonzero" fill-opacity="1" /><path clip-path="url(#clip600)" d="M127.593 336.01 Q124.26 336.01 122.339 337.793 Q120.441 339.575 120.441 342.7 Q120.441 345.825 122.339 347.608 Q124.26 349.39 127.593 349.39 Q130.927 349.39 132.848 347.608 Q134.769 345.802 134.769 342.7 Q134.769 339.575 132.848 337.793 Q130.95 336.01 127.593 336.01 M122.918 334.02 Q119.908 333.279 118.218 331.219 Q116.552 329.159 116.552 326.196 Q116.552 322.052 119.492 319.645 Q122.455 317.237 127.593 317.237 Q132.755 317.237 135.695 319.645 Q138.635 322.052 138.635 326.196 Q138.635 329.159 136.945 331.219 Q135.279 333.279 132.292 334.02 Q135.672 334.807 137.547 337.098 Q139.445 339.39 139.445 342.7 Q139.445 347.723 136.367 350.408 Q133.311 353.094 127.593 353.094 Q121.876 353.094 118.797 350.408 Q115.742 347.723 115.742 342.7 Q115.742 339.39 117.64 337.098 Q119.538 334.807 122.918 334.02 M121.205 326.635 Q121.205 329.321 122.871 330.825 Q124.561 332.33 127.593 332.33 Q130.603 332.33 132.292 330.825 Q134.005 329.321 134.005 326.635 Q134.005 323.95 132.292 322.446 Q130.603 320.941 127.593 320.941 Q124.561 320.941 122.871 322.446 Q121.205 323.95 121.205 326.635 Z" fill="#000000" fill-rule="nonzero" fill-opacity="1" /><path clip-path="url(#clip600)" d="M29.4065 801.463 L34.9447 801.463 Q33.6716 803.946 33.035 806.619 Q32.3984 809.293 32.3984 812.157 Q32.3984 816.518 33.7352 818.714 Q35.072 820.878 37.7456 820.878 Q39.7826 820.878 40.9603 819.319 Q42.1061 817.759 43.1565 813.049 L43.6021 811.043 Q44.9389 804.805 47.3897 802.195 Q49.8086 799.553 54.1691 799.553 Q59.1344 799.553 62.0308 803.5 Q64.9272 807.415 64.9272 814.29 Q64.9272 817.155 64.3543 820.274 Q63.8132 823.361 62.6992 826.799 L56.6518 826.799 Q58.3387 823.552 59.198 820.401 Q60.0256 817.25 60.0256 814.163 Q60.0256 810.025 58.6251 807.797 Q57.1929 805.569 54.6147 805.569 Q52.2276 805.569 50.9545 807.192 Q49.6813 808.784 48.5037 814.226 L48.0262 816.263 Q46.8804 821.706 44.5251 824.125 Q42.138 826.544 38.0002 826.544 Q32.9713 826.544 30.2341 822.979 Q27.4968 819.414 27.4968 812.858 Q27.4968 809.611 27.9743 806.747 Q28.4517 803.882 29.4065 801.463 Z" fill="#000000" fill-rule="nonzero" fill-opacity="1" /><path clip-path="url(#clip600)" d="M28.3562 790.228 L28.3562 784.371 L64.0042 784.371 L64.0042 790.228 L28.3562 790.228 M14.479 790.228 L14.479 784.371 L21.895 784.371 L21.895 790.228 L14.479 790.228 Z" fill="#000000" fill-rule="nonzero" fill-opacity="1" /><path clip-path="url(#clip600)" d="M45.7664 748.66 Q39.4007 748.66 35.8996 751.301 Q32.3984 753.911 32.3984 758.654 Q32.3984 763.364 35.8996 766.006 Q39.4007 768.616 45.7664 768.616 Q52.1003 768.616 55.6014 766.006 Q59.1026 763.364 59.1026 758.654 Q59.1026 753.911 55.6014 751.301 Q52.1003 748.66 45.7664 748.66 M59.58 742.803 Q68.683 742.803 73.1071 746.845 Q77.5631 750.888 77.5631 759.227 Q77.5631 762.314 77.0857 765.051 Q76.6401 767.788 75.6852 770.367 L69.9879 770.367 Q71.3884 767.788 72.0568 765.274 Q72.7252 762.76 72.7252 760.15 Q72.7252 754.389 69.7015 751.524 Q66.7096 748.66 60.6303 748.66 L57.7339 748.66 Q60.885 750.474 62.4446 753.306 Q64.0042 756.139 64.0042 760.086 Q64.0042 766.643 59.0071 770.653 Q54.01 774.663 45.7664 774.663 Q37.491 774.663 32.4939 770.653 Q27.4968 766.643 27.4968 760.086 Q27.4968 756.139 29.0564 753.306 Q30.616 750.474 33.7671 748.66 L28.3562 748.66 L28.3562 742.803 L59.58 742.803 Z" fill="#000000" fill-rule="nonzero" fill-opacity="1" /><path clip-path="url(#clip600)" d="M42.4881 701.108 L64.0042 701.108 L64.0042 706.964 L42.679 706.964 Q37.6183 706.964 35.1038 708.938 Q32.5894 710.911 32.5894 714.858 Q32.5894 719.6 35.6131 722.337 Q38.6368 725.075 43.8567 725.075 L64.0042 725.075 L64.0042 730.963 L28.3562 730.963 L28.3562 725.075 L33.8944 725.075 Q30.6797 722.974 29.0883 720.141 Q27.4968 717.277 27.4968 713.553 Q27.4968 707.41 31.3163 704.259 Q35.1038 701.108 42.4881 701.108 Z" fill="#000000" fill-rule="nonzero" fill-opacity="1" /><path clip-path="url(#clip600)" d="M46.0847 673.226 Q46.0847 680.324 47.7079 683.061 Q49.3312 685.798 53.2461 685.798 Q56.3653 685.798 58.2114 683.761 Q60.0256 681.692 60.0256 678.159 Q60.0256 673.29 56.5881 670.361 Q53.1188 667.401 47.3897 667.401 L46.0847 667.401 L46.0847 673.226 M43.6657 661.545 L64.0042 661.545 L64.0042 667.401 L58.5933 667.401 Q61.8398 669.406 63.3994 672.398 Q64.9272 675.39 64.9272 679.719 Q64.9272 685.193 61.8716 688.44 Q58.7843 691.655 53.6281 691.655 Q47.6125 691.655 44.5569 687.644 Q41.5014 683.602 41.5014 675.613 L41.5014 667.401 L40.9285 667.401 Q36.8862 667.401 34.6901 670.075 Q32.4621 672.717 32.4621 677.523 Q32.4621 680.578 33.1941 683.475 Q33.9262 686.371 35.3903 689.045 L29.9795 689.045 Q28.7381 685.83 28.1334 682.806 Q27.4968 679.783 27.4968 676.918 Q27.4968 669.184 31.5072 665.364 Q35.5176 661.545 43.6657 661.545 Z" fill="#000000" fill-rule="nonzero" fill-opacity="1" /><path clip-path="url(#clip600)" d="M14.479 649.482 L14.479 643.625 L64.0042 643.625 L64.0042 649.482 L14.479 649.482 Z" fill="#000000" fill-rule="nonzero" fill-opacity="1" /><circle clip-path="url(#clip602)" cx="237.067" cy="1384.24" r="14.4" fill="#009af9" fill-rule="evenodd" fill-opacity="1" stroke="#000000" stroke-opacity="1" stroke-width="3.2"/>
<circle clip-path="url(#clip602)" cx="452.893" cy="1234.37" r="14.4" fill="#009af9" fill-rule="evenodd" fill-opacity="1" stroke="#000000" stroke-opacity="1" stroke-width="3.2"/>
<circle clip-path="url(#clip602)" cx="461.315" cy="1234.37" r="14.4" fill="#009af9" fill-rule="evenodd" fill-opacity="1" stroke="#000000" stroke-opacity="1" stroke-width="3.2"/>
<circle clip-path="url(#clip602)" cx="571.219" cy="1084.5" r="14.4" fill="#009af9" fill-rule="evenodd" fill-opacity="1" stroke="#000000" stroke-opacity="1" stroke-width="3.2"/>
<circle clip-path="url(#clip602)" cx="785.356" cy="934.626" r="14.4" fill="#009af9" fill-rule="evenodd" fill-opacity="1" stroke="#000000" stroke-opacity="1" stroke-width="3.2"/>
<circle clip-path="url(#clip602)" cx="802.742" cy="934.626" r="14.4" fill="#009af9" fill-rule="evenodd" fill-opacity="1" stroke="#000000" stroke-opacity="1" stroke-width="3.2"/>
<circle clip-path="url(#clip602)" cx="1042.6" cy="784.755" r="14.4" fill="#009af9" fill-rule="evenodd" fill-opacity="1" stroke="#000000" stroke-opacity="1" stroke-width="3.2"/>
<circle clip-path="url(#clip602)" cx="1225.49" cy="634.884" r="14.4" fill="#009af9" fill-rule="evenodd" fill-opacity="1" stroke="#000000" stroke-opacity="1" stroke-width="3.2"/>
<circle clip-path="url(#clip602)" cx="1281.78" cy="634.884" r="14.4" fill="#009af9" fill-rule="evenodd" fill-opacity="1" stroke="#000000" stroke-opacity="1" stroke-width="3.2"/>
<circle clip-path="url(#clip602)" cx="2291.13" cy="185.271" r="14.4" fill="#009af9" fill-rule="evenodd" fill-opacity="1" stroke="#000000" stroke-opacity="1" stroke-width="3.2"/>
<polyline clip-path="url(#clip602)" style="stroke:#e26f46; stroke-linecap:round; stroke-linejoin:round; stroke-width:4; stroke-opacity:1; fill:none" points="237.067,1308 452.893,1179.62 461.315,1174.61 571.219,1109.24 785.356,981.862 802.742,971.521 1042.6,828.844 1225.49,720.058 1281.78,686.577 2291.13,86.1857 "/>
<path clip-path="url(#clip600)" d="M248.022 248.629 L815.844 248.629 L815.844 93.1086 L248.022 93.1086  Z" fill="#ffffff" fill-rule="evenodd" fill-opacity="1"/>
<polyline clip-path="url(#clip600)" style="stroke:#000000; stroke-linecap:round; stroke-linejoin:round; stroke-width:4; stroke-opacity:1; fill:none" points="248.022,248.629 815.844,248.629 815.844,93.1086 248.022,93.1086 248.022,248.629 "/>
<circle clip-path="url(#clip600)" cx="344.792" cy="144.949" r="20.48" fill="#009af9" fill-rule="evenodd" fill-opacity="1" stroke="#000000" stroke-opacity="1" stroke-width="4.55111"/>
<path clip-path="url(#clip600)" d="M461.908 141.28 Q463.505 138.409 465.727 137.044 Q467.95 135.678 470.959 135.678 Q475.01 135.678 477.209 138.525 Q479.408 141.349 479.408 146.581 L479.408 162.229 L475.126 162.229 L475.126 146.719 Q475.126 142.993 473.806 141.187 Q472.487 139.382 469.778 139.382 Q466.468 139.382 464.547 141.581 Q462.626 143.78 462.626 147.576 L462.626 162.229 L458.343 162.229 L458.343 146.719 Q458.343 142.969 457.024 141.187 Q455.704 139.382 452.95 139.382 Q449.686 139.382 447.765 141.604 Q445.843 143.803 445.843 147.576 L445.843 162.229 L441.561 162.229 L441.561 136.303 L445.843 136.303 L445.843 140.331 Q447.302 137.946 449.339 136.812 Q451.376 135.678 454.177 135.678 Q457.001 135.678 458.968 137.113 Q460.959 138.548 461.908 141.28 Z" fill="#000000" fill-rule="nonzero" fill-opacity="1" /><path clip-path="url(#clip600)" d="M510.079 148.201 L510.079 150.284 L490.496 150.284 Q490.774 154.682 493.135 156.997 Q495.519 159.289 499.755 159.289 Q502.209 159.289 504.5 158.687 Q506.815 158.085 509.084 156.881 L509.084 160.909 Q506.792 161.881 504.385 162.391 Q501.977 162.9 499.5 162.9 Q493.297 162.9 489.663 159.289 Q486.051 155.678 486.051 149.52 Q486.051 143.155 489.477 139.428 Q492.926 135.678 498.76 135.678 Q503.991 135.678 507.024 139.057 Q510.079 142.414 510.079 148.201 M505.82 146.951 Q505.774 143.456 503.852 141.372 Q501.954 139.289 498.806 139.289 Q495.241 139.289 493.088 141.303 Q490.959 143.317 490.635 146.974 L505.82 146.951 Z" fill="#000000" fill-rule="nonzero" fill-opacity="1" /><path clip-path="url(#clip600)" d="M528.852 149.196 Q523.69 149.196 521.699 150.377 Q519.709 151.557 519.709 154.405 Q519.709 156.673 521.19 158.016 Q522.695 159.335 525.264 159.335 Q528.806 159.335 530.935 156.835 Q533.088 154.312 533.088 150.145 L533.088 149.196 L528.852 149.196 M537.347 147.437 L537.347 162.229 L533.088 162.229 L533.088 158.293 Q531.63 160.655 529.454 161.789 Q527.278 162.9 524.13 162.9 Q520.149 162.9 517.787 160.678 Q515.449 158.432 515.449 154.682 Q515.449 150.307 518.366 148.085 Q521.306 145.863 527.116 145.863 L533.088 145.863 L533.088 145.446 Q533.088 142.507 531.144 140.909 Q529.223 139.289 525.727 139.289 Q523.505 139.289 521.398 139.821 Q519.292 140.354 517.348 141.419 L517.348 137.483 Q519.686 136.581 521.885 136.141 Q524.084 135.678 526.167 135.678 Q531.792 135.678 534.57 138.594 Q537.347 141.511 537.347 147.437 Z" fill="#000000" fill-rule="nonzero" fill-opacity="1" /><path clip-path="url(#clip600)" d="M562.648 137.067 L562.648 141.094 Q560.843 140.169 558.898 139.706 Q556.954 139.243 554.871 139.243 Q551.699 139.243 550.102 140.215 Q548.528 141.187 548.528 143.131 Q548.528 144.613 549.662 145.469 Q550.796 146.303 554.222 147.067 L555.681 147.391 Q560.218 148.363 562.116 150.145 Q564.037 151.905 564.037 155.076 Q564.037 158.687 561.167 160.793 Q558.32 162.9 553.32 162.9 Q551.236 162.9 548.968 162.483 Q546.722 162.09 544.222 161.28 L544.222 156.881 Q546.584 158.108 548.875 158.733 Q551.167 159.335 553.412 159.335 Q556.421 159.335 558.042 158.317 Q559.662 157.275 559.662 155.4 Q559.662 153.664 558.482 152.738 Q557.324 151.812 553.366 150.956 L551.884 150.608 Q547.926 149.775 546.167 148.062 Q544.408 146.326 544.408 143.317 Q544.408 139.659 547 137.669 Q549.593 135.678 554.361 135.678 Q556.722 135.678 558.806 136.025 Q560.889 136.372 562.648 137.067 Z" fill="#000000" fill-rule="nonzero" fill-opacity="1" /><path clip-path="url(#clip600)" d="M570.38 151.997 L570.38 136.303 L574.639 136.303 L574.639 151.835 Q574.639 155.516 576.074 157.368 Q577.509 159.196 580.38 159.196 Q583.829 159.196 585.819 156.997 Q587.833 154.798 587.833 151.002 L587.833 136.303 L592.093 136.303 L592.093 162.229 L587.833 162.229 L587.833 158.247 Q586.282 160.608 584.222 161.766 Q582.185 162.9 579.477 162.9 Q575.009 162.9 572.695 160.122 Q570.38 157.344 570.38 151.997 M581.097 135.678 L581.097 135.678 Z" fill="#000000" fill-rule="nonzero" fill-opacity="1" /><path clip-path="url(#clip600)" d="M615.889 140.284 Q615.171 139.868 614.315 139.682 Q613.481 139.474 612.463 139.474 Q608.852 139.474 606.907 141.835 Q604.986 144.173 604.986 148.571 L604.986 162.229 L600.704 162.229 L600.704 136.303 L604.986 136.303 L604.986 140.331 Q606.329 137.969 608.481 136.835 Q610.634 135.678 613.713 135.678 Q614.153 135.678 614.685 135.747 Q615.217 135.794 615.866 135.909 L615.889 140.284 Z" fill="#000000" fill-rule="nonzero" fill-opacity="1" /><path clip-path="url(#clip600)" d="M641.49 148.201 L641.49 150.284 L621.907 150.284 Q622.185 154.682 624.546 156.997 Q626.93 159.289 631.166 159.289 Q633.62 159.289 635.912 158.687 Q638.227 158.085 640.495 156.881 L640.495 160.909 Q638.203 161.881 635.796 162.391 Q633.389 162.9 630.912 162.9 Q624.708 162.9 621.074 159.289 Q617.463 155.678 617.463 149.52 Q617.463 143.155 620.889 139.428 Q624.338 135.678 630.171 135.678 Q635.403 135.678 638.435 139.057 Q641.49 142.414 641.49 148.201 M637.231 146.951 Q637.185 143.456 635.264 141.372 Q633.365 139.289 630.217 139.289 Q626.653 139.289 624.5 141.303 Q622.37 143.317 622.046 146.974 L637.231 146.951 Z" fill="#000000" fill-rule="nonzero" fill-opacity="1" /><path clip-path="url(#clip600)" d="M665.541 140.238 L665.541 126.21 L669.8 126.21 L669.8 162.229 L665.541 162.229 L665.541 158.34 Q664.199 160.655 662.138 161.789 Q660.101 162.9 657.231 162.9 Q652.532 162.9 649.569 159.15 Q646.629 155.4 646.629 149.289 Q646.629 143.178 649.569 139.428 Q652.532 135.678 657.231 135.678 Q660.101 135.678 662.138 136.812 Q664.199 137.923 665.541 140.238 M651.027 149.289 Q651.027 153.988 652.949 156.673 Q654.893 159.335 658.273 159.335 Q661.652 159.335 663.597 156.673 Q665.541 153.988 665.541 149.289 Q665.541 144.59 663.597 141.928 Q661.652 139.243 658.273 139.243 Q654.893 139.243 652.949 141.928 Q651.027 144.59 651.027 149.289 Z" fill="#000000" fill-rule="nonzero" fill-opacity="1" /><path clip-path="url(#clip600)" d="M710.703 140.238 L710.703 126.21 L714.962 126.21 L714.962 162.229 L710.703 162.229 L710.703 158.34 Q709.36 160.655 707.3 161.789 Q705.263 162.9 702.393 162.9 Q697.694 162.9 694.731 159.15 Q691.791 155.4 691.791 149.289 Q691.791 143.178 694.731 139.428 Q697.694 135.678 702.393 135.678 Q705.263 135.678 707.3 136.812 Q709.36 137.923 710.703 140.238 M696.189 149.289 Q696.189 153.988 698.111 156.673 Q700.055 159.335 703.435 159.335 Q706.814 159.335 708.759 156.673 Q710.703 153.988 710.703 149.289 Q710.703 144.59 708.759 141.928 Q706.814 139.243 703.435 139.243 Q700.055 139.243 698.111 141.928 Q696.189 144.59 696.189 149.289 Z" fill="#000000" fill-rule="nonzero" fill-opacity="1" /><path clip-path="url(#clip600)" d="M735.518 149.196 Q730.356 149.196 728.365 150.377 Q726.374 151.557 726.374 154.405 Q726.374 156.673 727.856 158.016 Q729.36 159.335 731.93 159.335 Q735.471 159.335 737.601 156.835 Q739.754 154.312 739.754 150.145 L739.754 149.196 L735.518 149.196 M744.013 147.437 L744.013 162.229 L739.754 162.229 L739.754 158.293 Q738.295 160.655 736.12 161.789 Q733.944 162.9 730.796 162.9 Q726.814 162.9 724.453 160.678 Q722.115 158.432 722.115 154.682 Q722.115 150.307 725.032 148.085 Q727.971 145.863 733.782 145.863 L739.754 145.863 L739.754 145.446 Q739.754 142.507 737.809 140.909 Q735.888 139.289 732.393 139.289 Q730.171 139.289 728.064 139.821 Q725.958 140.354 724.013 141.419 L724.013 137.483 Q726.351 136.581 728.55 136.141 Q730.749 135.678 732.833 135.678 Q738.458 135.678 741.235 138.594 Q744.013 141.511 744.013 147.437 Z" fill="#000000" fill-rule="nonzero" fill-opacity="1" /><path clip-path="url(#clip600)" d="M756.999 128.942 L756.999 136.303 L765.772 136.303 L765.772 139.613 L756.999 139.613 L756.999 153.687 Q756.999 156.858 757.856 157.761 Q758.735 158.664 761.397 158.664 L765.772 158.664 L765.772 162.229 L761.397 162.229 Q756.467 162.229 754.592 160.4 Q752.717 158.548 752.717 153.687 L752.717 139.613 L749.592 139.613 L749.592 136.303 L752.717 136.303 L752.717 128.942 L756.999 128.942 Z" fill="#000000" fill-rule="nonzero" fill-opacity="1" /><path clip-path="url(#clip600)" d="M783.156 149.196 Q777.994 149.196 776.004 150.377 Q774.013 151.557 774.013 154.405 Q774.013 156.673 775.494 158.016 Q776.999 159.335 779.568 159.335 Q783.11 159.335 785.24 156.835 Q787.392 154.312 787.392 150.145 L787.392 149.196 L783.156 149.196 M791.652 147.437 L791.652 162.229 L787.392 162.229 L787.392 158.293 Q785.934 160.655 783.758 161.789 Q781.582 162.9 778.434 162.9 Q774.453 162.9 772.092 160.678 Q769.754 158.432 769.754 154.682 Q769.754 150.307 772.67 148.085 Q775.61 145.863 781.42 145.863 L787.392 145.863 L787.392 145.446 Q787.392 142.507 785.448 140.909 Q783.527 139.289 780.031 139.289 Q777.809 139.289 775.703 139.821 Q773.596 140.354 771.652 141.419 L771.652 137.483 Q773.99 136.581 776.189 136.141 Q778.388 135.678 780.471 135.678 Q786.096 135.678 788.874 138.594 Q791.652 141.511 791.652 147.437 Z" fill="#000000" fill-rule="nonzero" fill-opacity="1" /><polyline clip-path="url(#clip600)" style="stroke:#e26f46; stroke-linecap:round; stroke-linejoin:round; stroke-width:4; stroke-opacity:1; fill:none" points="272.215,196.789 417.369,196.789 "/>
<path clip-path="url(#clip600)" d="M461.908 193.12 Q463.505 190.249 465.727 188.884 Q467.95 187.518 470.959 187.518 Q475.01 187.518 477.209 190.365 Q479.408 193.189 479.408 198.421 L479.408 214.069 L475.126 214.069 L475.126 198.559 Q475.126 194.833 473.806 193.027 Q472.487 191.222 469.778 191.222 Q466.468 191.222 464.547 193.421 Q462.626 195.62 462.626 199.416 L462.626 214.069 L458.343 214.069 L458.343 198.559 Q458.343 194.809 457.024 193.027 Q455.704 191.222 452.95 191.222 Q449.686 191.222 447.765 193.444 Q445.843 195.643 445.843 199.416 L445.843 214.069 L441.561 214.069 L441.561 188.143 L445.843 188.143 L445.843 192.171 Q447.302 189.786 449.339 188.652 Q451.376 187.518 454.177 187.518 Q457.001 187.518 458.968 188.953 Q460.959 190.388 461.908 193.12 Z" fill="#000000" fill-rule="nonzero" fill-opacity="1" /><path clip-path="url(#clip600)" d="M497.95 191.129 Q494.524 191.129 492.533 193.814 Q490.542 196.476 490.542 201.129 Q490.542 205.782 492.51 208.467 Q494.5 211.129 497.95 211.129 Q501.352 211.129 503.343 208.444 Q505.334 205.758 505.334 201.129 Q505.334 196.522 503.343 193.837 Q501.352 191.129 497.95 191.129 M497.95 187.518 Q503.505 187.518 506.676 191.129 Q509.848 194.74 509.848 201.129 Q509.848 207.495 506.676 211.129 Q503.505 214.74 497.95 214.74 Q492.371 214.74 489.2 211.129 Q486.051 207.495 486.051 201.129 Q486.051 194.74 489.2 191.129 Q492.371 187.518 497.95 187.518 Z" fill="#000000" fill-rule="nonzero" fill-opacity="1" /><path clip-path="url(#clip600)" d="M533.968 192.078 L533.968 178.05 L538.227 178.05 L538.227 214.069 L533.968 214.069 L533.968 210.18 Q532.625 212.495 530.565 213.629 Q528.528 214.74 525.658 214.74 Q520.959 214.74 517.996 210.99 Q515.056 207.24 515.056 201.129 Q515.056 195.018 517.996 191.268 Q520.959 187.518 525.658 187.518 Q528.528 187.518 530.565 188.652 Q532.625 189.763 533.968 192.078 M519.454 201.129 Q519.454 205.828 521.375 208.513 Q523.32 211.175 526.699 211.175 Q530.079 211.175 532.023 208.513 Q533.968 205.828 533.968 201.129 Q533.968 196.43 532.023 193.768 Q530.079 191.083 526.699 191.083 Q523.32 191.083 521.375 193.768 Q519.454 196.43 519.454 201.129 Z" fill="#000000" fill-rule="nonzero" fill-opacity="1" /><path clip-path="url(#clip600)" d="M569.176 200.041 L569.176 202.124 L549.593 202.124 Q549.871 206.522 552.232 208.837 Q554.616 211.129 558.852 211.129 Q561.306 211.129 563.597 210.527 Q565.912 209.925 568.181 208.721 L568.181 212.749 Q565.889 213.721 563.482 214.231 Q561.074 214.74 558.597 214.74 Q552.394 214.74 548.759 211.129 Q545.148 207.518 545.148 201.36 Q545.148 194.995 548.574 191.268 Q552.023 187.518 557.857 187.518 Q563.088 187.518 566.12 190.897 Q569.176 194.254 569.176 200.041 M564.917 198.791 Q564.87 195.296 562.949 193.212 Q561.051 191.129 557.903 191.129 Q554.338 191.129 552.185 193.143 Q550.056 195.157 549.732 198.814 L564.917 198.791 Z" fill="#000000" fill-rule="nonzero" fill-opacity="1" /><path clip-path="url(#clip600)" d="M576.167 178.05 L580.426 178.05 L580.426 214.069 L576.167 214.069 L576.167 178.05 Z" fill="#000000" fill-rule="nonzero" fill-opacity="1" /></svg>
