<?xml version="1.0" encoding="utf-8"?>
<svg xmlns="http://www.w3.org/2000/svg" xmlns:xlink="http://www.w3.org/1999/xlink" width="600" height="400" viewBox="0 0 2400 1600">
<defs>
  <clipPath id="clip170">
    <rect x="0" y="0" width="2400" height="1600"/>
  </clipPath>
</defs>
<path clip-path="url(#clip170)" d="M0 1600 L2400 1600 L2400 0 L0 0  Z" fill="#ffffff" fill-rule="evenodd" fill-opacity="1"/>
<defs>
  <clipPath id="clip171">
    <rect x="480" y="0" width="1681" height="1600"/>
  </clipPath>
</defs>
<path clip-path="url(#clip170)" d="M340.699 1423.18 L2352.76 1423.18 L2352.76 47.2441 L340.699 47.2441  Z" fill="#ffffff" fill-rule="evenodd" fill-opacity="1"/>
<defs>
  <clipPath id="clip172">
    <rect x="340" y="47" width="2013" height="1377"/>
  </clipPath>
</defs>
<polyline clip-path="url(#clip172)" style="stroke:#000000; stroke-linecap:round; stroke-linejoin:round; stroke-width:2; stroke-opacity:0.1; fill:none" points="608.551,1423.18 608.551,47.2441 "/>
<polyline clip-path="url(#clip172)" style="stroke:#000000; stroke-linecap:round; stroke-linejoin:round; stroke-width:2; stroke-opacity:0.1; fill:none" points="1030.37,1423.18 1030.37,47.2441 "/>
<polyline clip-path="url(#clip172)" style="stroke:#000000; stroke-linecap:round; stroke-linejoin:round; stroke-width:2; stroke-opacity:0.1; fill:none" points="1452.18,1423.18 1452.18,47.2441 "/>
<polyline clip-path="url(#clip172)" style="stroke:#000000; stroke-linecap:round; stroke-linejoin:round; stroke-width:2; stroke-opacity:0.1; fill:none" points="1874,1423.18 1874,47.2441 "/>
<polyline clip-path="url(#clip172)" style="stroke:#000000; stroke-linecap:round; stroke-linejoin:round; stroke-width:2; stroke-opacity:0.1; fill:none" points="2295.81,1423.18 2295.81,47.2441 "/>
<polyline clip-path="url(#clip170)" style="stroke:#000000; stroke-linecap:round; stroke-linejoin:round; stroke-width:4; stroke-opacity:1; fill:none" points="340.699,1423.18 2352.76,1423.18 "/>
<polyline clip-path="url(#clip170)" style="stroke:#000000; stroke-linecap:round; stroke-linejoin:round; stroke-width:4; stroke-opacity:1; fill:none" points="608.551,1423.18 608.551,1404.28 "/>
<polyline clip-path="url(#clip170)" style="stroke:#000000; stroke-linecap:round; stroke-linejoin:round; stroke-width:4; stroke-opacity:1; fill:none" points="1030.37,1423.18 1030.37,1404.28 "/>
<polyline clip-path="url(#clip170)" style="stroke:#000000; stroke-linecap:round; stroke-linejoin:round; stroke-width:4; stroke-opacity:1; fill:none" points="1452.18,1423.18 1452.18,1404.28 "/>
<polyline clip-path="url(#clip170)" style="stroke:#000000; stroke-linecap:round; stroke-linejoin:round; stroke-width:4; stroke-opacity:1; fill:none" points="1874,1423.18 1874,1404.28 "/>
<polyline clip-path="url(#clip170)" style="stroke:#000000; stroke-linecap:round; stroke-linejoin:round; stroke-width:4; stroke-opacity:1; fill:none" points="2295.81,1423.18 2295.81,1404.28 "/>
<path clip-path="url(#clip170)" d="M603.204 1481.64 L619.524 1481.64 L619.524 1485.58 L597.579 1485.58 L597.579 1481.64 Q600.241 1478.89 604.825 1474.26 Q609.431 1469.61 610.612 1468.27 Q612.857 1465.74 613.737 1464.01 Q614.639 1462.25 614.639 1460.56 Q614.639 1457.8 612.695 1456.07 Q610.774 1454.33 607.672 1454.33 Q605.473 1454.33 603.019 1455.09 Q600.588 1455.86 597.811 1457.41 L597.811 1452.69 Q600.635 1451.55 603.088 1450.97 Q605.542 1450.39 607.579 1450.39 Q612.95 1450.39 616.144 1453.08 Q619.338 1455.77 619.338 1460.26 Q619.338 1462.39 618.528 1464.31 Q617.741 1466.2 615.635 1468.8 Q615.056 1469.47 611.954 1472.69 Q608.852 1475.88 603.204 1481.64 Z" fill="#000000" fill-rule="nonzero" fill-opacity="1" /><path clip-path="url(#clip170)" d="M1033.38 1455.09 L1021.57 1473.54 L1033.38 1473.54 L1033.38 1455.09 M1032.15 1451.02 L1038.03 1451.02 L1038.03 1473.54 L1042.96 1473.54 L1042.96 1477.43 L1038.03 1477.43 L1038.03 1485.58 L1033.38 1485.58 L1033.38 1477.43 L1017.77 1477.43 L1017.77 1472.92 L1032.15 1451.02 Z" fill="#000000" fill-rule="nonzero" fill-opacity="1" /><path clip-path="url(#clip170)" d="M1452.59 1466.44 Q1449.44 1466.44 1447.59 1468.59 Q1445.76 1470.74 1445.76 1474.49 Q1445.76 1478.22 1447.59 1480.39 Q1449.44 1482.55 1452.59 1482.55 Q1455.73 1482.55 1457.56 1480.39 Q1459.41 1478.22 1459.41 1474.49 Q1459.41 1470.74 1457.56 1468.59 Q1455.73 1466.44 1452.59 1466.44 M1461.87 1451.78 L1461.87 1456.04 Q1460.11 1455.21 1458.3 1454.77 Q1456.52 1454.33 1454.76 1454.33 Q1450.13 1454.33 1447.68 1457.45 Q1445.25 1460.58 1444.9 1466.9 Q1446.27 1464.89 1448.33 1463.82 Q1450.39 1462.73 1452.86 1462.73 Q1458.07 1462.73 1461.08 1465.9 Q1464.11 1469.05 1464.11 1474.49 Q1464.11 1479.82 1460.97 1483.03 Q1457.82 1486.25 1452.59 1486.25 Q1446.59 1486.25 1443.42 1481.67 Q1440.25 1477.06 1440.25 1468.33 Q1440.25 1460.14 1444.14 1455.28 Q1448.03 1450.39 1454.58 1450.39 Q1456.34 1450.39 1458.12 1450.74 Q1459.92 1451.09 1461.87 1451.78 Z" fill="#000000" fill-rule="nonzero" fill-opacity="1" /><path clip-path="url(#clip170)" d="M1874 1469.17 Q1870.66 1469.17 1868.74 1470.95 Q1866.84 1472.73 1866.84 1475.86 Q1866.84 1478.98 1868.74 1480.77 Q1870.66 1482.55 1874 1482.55 Q1877.33 1482.55 1879.25 1480.77 Q1881.17 1478.96 1881.17 1475.86 Q1881.17 1472.73 1879.25 1470.95 Q1877.35 1469.17 1874 1469.17 M1869.32 1467.18 Q1866.31 1466.44 1864.62 1464.38 Q1862.95 1462.32 1862.95 1459.35 Q1862.95 1455.21 1865.89 1452.8 Q1868.86 1450.39 1874 1450.39 Q1879.16 1450.39 1882.1 1452.8 Q1885.04 1455.21 1885.04 1459.35 Q1885.04 1462.32 1883.35 1464.38 Q1881.68 1466.44 1878.7 1467.18 Q1882.07 1467.96 1883.95 1470.26 Q1885.85 1472.55 1885.85 1475.86 Q1885.85 1480.88 1882.77 1483.57 Q1879.71 1486.25 1874 1486.25 Q1868.28 1486.25 1865.2 1483.57 Q1862.14 1480.88 1862.14 1475.86 Q1862.14 1472.55 1864.04 1470.26 Q1865.94 1467.96 1869.32 1467.18 M1867.61 1459.79 Q1867.61 1462.48 1869.27 1463.98 Q1870.96 1465.49 1874 1465.49 Q1877.01 1465.49 1878.7 1463.98 Q1880.41 1462.48 1880.41 1459.79 Q1880.41 1457.11 1878.7 1455.6 Q1877.01 1454.1 1874 1454.1 Q1870.96 1454.1 1869.27 1455.6 Q1867.61 1457.11 1867.61 1459.79 Z" fill="#000000" fill-rule="nonzero" fill-opacity="1" /><path clip-path="url(#clip170)" d="M2270.5 1481.64 L2278.14 1481.64 L2278.14 1455.28 L2269.83 1456.95 L2269.83 1452.69 L2278.09 1451.02 L2282.77 1451.02 L2282.77 1481.64 L2290.41 1481.64 L2290.41 1485.58 L2270.5 1485.58 L2270.5 1481.64 Z" fill="#000000" fill-rule="nonzero" fill-opacity="1" /><path clip-path="url(#clip170)" d="M2309.85 1454.1 Q2306.24 1454.1 2304.41 1457.66 Q2302.6 1461.2 2302.6 1468.33 Q2302.6 1475.44 2304.41 1479.01 Q2306.24 1482.55 2309.85 1482.55 Q2313.48 1482.55 2315.29 1479.01 Q2317.12 1475.44 2317.12 1468.33 Q2317.12 1461.2 2315.29 1457.66 Q2313.48 1454.1 2309.85 1454.1 M2309.85 1450.39 Q2315.66 1450.39 2318.72 1455 Q2321.79 1459.58 2321.79 1468.33 Q2321.79 1477.06 2318.72 1481.67 Q2315.66 1486.25 2309.85 1486.25 Q2304.04 1486.25 2300.96 1481.67 Q2297.91 1477.06 2297.91 1468.33 Q2297.91 1459.58 2300.96 1455 Q2304.04 1450.39 2309.85 1450.39 Z" fill="#000000" fill-rule="nonzero" fill-opacity="1" /><path clip-path="url(#clip170)" d="M1313.29 1522.27 L1313.29 1532.4 L1325.35 1532.4 L1325.35 1536.95 L1313.29 1536.95 L1313.29 1556.3 Q1313.29 1560.66 1314.47 1561.9 Q1315.68 1563.14 1319.34 1563.14 L1325.35 1563.14 L1325.35 1568.04 L1319.34 1568.04 Q1312.56 1568.04 1309.98 1565.53 Q1307.4 1562.98 1307.4 1556.3 L1307.4 1536.95 L1303.11 1536.95 L1303.11 1532.4 L1307.4 1532.4 L1307.4 1522.27 L1313.29 1522.27 Z" fill="#000000" fill-rule="nonzero" fill-opacity="1" /><path clip-path="url(#clip170)" d="M1353.71 1537.87 Q1352.73 1537.3 1351.55 1537.04 Q1350.4 1536.76 1349 1536.76 Q1344.04 1536.76 1341.36 1540 Q1338.72 1543.22 1338.72 1549.27 L1338.72 1568.04 L1332.83 1568.04 L1332.83 1532.4 L1338.72 1532.4 L1338.72 1537.93 Q1340.57 1534.69 1343.53 1533.13 Q1346.49 1531.54 1350.72 1531.54 Q1351.33 1531.54 1352.06 1531.63 Q1352.79 1531.7 1353.68 1531.85 L1353.71 1537.87 Z" fill="#000000" fill-rule="nonzero" fill-opacity="1" /><path clip-path="url(#clip170)" d="M1374.69 1571.35 Q1372.21 1577.72 1369.85 1579.66 Q1367.5 1581.6 1363.55 1581.6 L1358.87 1581.6 L1358.87 1576.7 L1362.31 1576.7 Q1364.73 1576.7 1366.06 1575.56 Q1367.4 1574.41 1369.02 1570.14 L1370.07 1567.47 L1355.66 1532.4 L1361.86 1532.4 L1373 1560.28 L1384.14 1532.4 L1390.35 1532.4 L1374.69 1571.35 Z" fill="#000000" fill-rule="nonzero" fill-opacity="1" /><polyline clip-path="url(#clip172)" style="stroke:#000000; stroke-linecap:round; stroke-linejoin:round; stroke-width:2; stroke-opacity:0.1; fill:none" points="340.699,1390.17 2352.76,1390.17 "/>
<polyline clip-path="url(#clip172)" style="stroke:#000000; stroke-linecap:round; stroke-linejoin:round; stroke-width:2; stroke-opacity:0.1; fill:none" points="340.699,1090.43 2352.76,1090.43 "/>
<polyline clip-path="url(#clip172)" style="stroke:#000000; stroke-linecap:round; stroke-linejoin:round; stroke-width:2; stroke-opacity:0.1; fill:none" points="340.699,790.686 2352.76,790.686 "/>
<polyline clip-path="url(#clip172)" style="stroke:#000000; stroke-linecap:round; stroke-linejoin:round; stroke-width:2; stroke-opacity:0.1; fill:none" points="340.699,490.944 2352.76,490.944 "/>
<polyline clip-path="url(#clip172)" style="stroke:#000000; stroke-linecap:round; stroke-linejoin:round; stroke-width:2; stroke-opacity:0.1; fill:none" points="340.699,191.202 2352.76,191.202 "/>
<polyline clip-path="url(#clip170)" style="stroke:#000000; stroke-linecap:round; stroke-linejoin:round; stroke-width:4; stroke-opacity:1; fill:none" points="340.699,1423.18 340.699,47.2441 "/>
<polyline clip-path="url(#clip170)" style="stroke:#000000; stroke-linecap:round; stroke-linejoin:round; stroke-width:4; stroke-opacity:1; fill:none" points="340.699,1390.17 359.597,1390.17 "/>
<polyline clip-path="url(#clip170)" style="stroke:#000000; stroke-linecap:round; stroke-linejoin:round; stroke-width:4; stroke-opacity:1; fill:none" points="340.699,1090.43 359.597,1090.43 "/>
<polyline clip-path="url(#clip170)" style="stroke:#000000; stroke-linecap:round; stroke-linejoin:round; stroke-width:4; stroke-opacity:1; fill:none" points="340.699,790.686 359.597,790.686 "/>
<polyline clip-path="url(#clip170)" style="stroke:#000000; stroke-linecap:round; stroke-linejoin:round; stroke-width:4; stroke-opacity:1; fill:none" points="340.699,490.944 359.597,490.944 "/>
<polyline clip-path="url(#clip170)" style="stroke:#000000; stroke-linecap:round; stroke-linejoin:round; stroke-width:4; stroke-opacity:1; fill:none" points="340.699,191.202 359.597,191.202 "/>
<path clip-path="url(#clip170)" d="M292.755 1375.97 Q289.143 1375.97 287.315 1379.53 Q285.509 1383.07 285.509 1390.2 Q285.509 1397.31 287.315 1400.88 Q289.143 1404.42 292.755 1404.42 Q296.389 1404.42 298.194 1400.88 Q300.023 1397.31 300.023 1390.2 Q300.023 1383.07 298.194 1379.53 Q296.389 1375.97 292.755 1375.97 M292.755 1372.26 Q298.565 1372.26 301.62 1376.87 Q304.699 1381.45 304.699 1390.2 Q304.699 1398.93 301.62 1403.54 Q298.565 1408.12 292.755 1408.12 Q286.944 1408.12 283.866 1403.54 Q280.81 1398.93 280.81 1390.2 Q280.81 1381.45 283.866 1376.87 Q286.944 1372.26 292.755 1372.26 Z" fill="#000000" fill-rule="nonzero" fill-opacity="1" /><path clip-path="url(#clip170)" d="M121.043 1110.22 L137.362 1110.22 L137.362 1114.16 L115.418 1114.16 L115.418 1110.22 Q118.08 1107.47 122.663 1102.84 Q127.269 1098.18 128.45 1096.84 Q130.695 1094.32 131.575 1092.58 Q132.478 1090.82 132.478 1089.13 Q132.478 1086.38 130.533 1084.64 Q128.612 1082.91 125.51 1082.91 Q123.311 1082.91 120.857 1083.67 Q118.427 1084.43 115.649 1085.98 L115.649 1081.26 Q118.473 1080.13 120.927 1079.55 Q123.38 1078.97 125.418 1078.97 Q130.788 1078.97 133.982 1081.66 Q137.177 1084.34 137.177 1088.83 Q137.177 1090.96 136.367 1092.88 Q135.579 1094.78 133.473 1097.37 Q132.894 1098.04 129.792 1101.26 Q126.691 1104.46 121.043 1110.22 Z" fill="#000000" fill-rule="nonzero" fill-opacity="1" /><path clip-path="url(#clip170)" d="M147.177 1108.28 L152.061 1108.28 L152.061 1114.16 L147.177 1114.16 L147.177 1108.28 Z" fill="#000000" fill-rule="nonzero" fill-opacity="1" /><path clip-path="url(#clip170)" d="M172.246 1082.67 Q168.635 1082.67 166.806 1086.24 Q165.001 1089.78 165.001 1096.91 Q165.001 1104.02 166.806 1107.58 Q168.635 1111.12 172.246 1111.12 Q175.88 1111.12 177.686 1107.58 Q179.514 1104.02 179.514 1096.91 Q179.514 1089.78 177.686 1086.24 Q175.88 1082.67 172.246 1082.67 M172.246 1078.97 Q178.056 1078.97 181.112 1083.58 Q184.19 1088.16 184.19 1096.91 Q184.19 1105.64 181.112 1110.24 Q178.056 1114.83 172.246 1114.83 Q166.436 1114.83 163.357 1110.24 Q160.302 1105.64 160.302 1096.91 Q160.302 1088.16 163.357 1083.58 Q166.436 1078.97 172.246 1078.97 Z" fill="#000000" fill-rule="nonzero" fill-opacity="1" /><path clip-path="url(#clip170)" d="M220.579 1088.69 L210 1099.32 L220.579 1109.9 L217.824 1112.7 L207.199 1102.07 L196.575 1112.7 L193.843 1109.9 L204.399 1099.32 L193.843 1088.69 L196.575 1085.89 L207.199 1096.52 L217.824 1085.89 L220.579 1088.69 Z" fill="#000000" fill-rule="nonzero" fill-opacity="1" /><path clip-path="url(#clip170)" d="M232.94 1110.22 L240.579 1110.22 L240.579 1083.85 L232.269 1085.52 L232.269 1081.26 L240.533 1079.6 L245.209 1079.6 L245.209 1110.22 L252.847 1110.22 L252.847 1114.16 L232.94 1114.16 L232.94 1110.22 Z" fill="#000000" fill-rule="nonzero" fill-opacity="1" /><path clip-path="url(#clip170)" d="M272.292 1082.67 Q268.681 1082.67 266.852 1086.24 Q265.046 1089.78 265.046 1096.91 Q265.046 1104.02 266.852 1107.58 Q268.681 1111.12 272.292 1111.12 Q275.926 1111.12 277.732 1107.58 Q279.56 1104.02 279.56 1096.91 Q279.56 1089.78 277.732 1086.24 Q275.926 1082.67 272.292 1082.67 M272.292 1078.97 Q278.102 1078.97 281.157 1083.58 Q284.236 1088.16 284.236 1096.91 Q284.236 1105.64 281.157 1110.24 Q278.102 1114.83 272.292 1114.83 Q266.482 1114.83 263.403 1110.24 Q260.347 1105.64 260.347 1096.91 Q260.347 1088.16 263.403 1083.58 Q266.482 1078.97 272.292 1078.97 Z" fill="#000000" fill-rule="nonzero" fill-opacity="1" /><path clip-path="url(#clip170)" d="M296.913 1061.98 L287.321 1076.96 L296.913 1076.96 L296.913 1061.98 M295.916 1058.66 L300.693 1058.66 L300.693 1076.96 L304.699 1076.96 L304.699 1080.12 L300.693 1080.12 L300.693 1086.74 L296.913 1086.74 L296.913 1080.12 L284.236 1080.12 L284.236 1076.46 L295.916 1058.66 Z" fill="#000000" fill-rule="nonzero" fill-opacity="1" /><path clip-path="url(#clip170)" d="M129.862 783.927 L118.056 802.376 L129.862 802.376 L129.862 783.927 M128.635 779.853 L134.515 779.853 L134.515 802.376 L139.445 802.376 L139.445 806.265 L134.515 806.265 L134.515 814.413 L129.862 814.413 L129.862 806.265 L114.26 806.265 L114.26 801.751 L128.635 779.853 Z" fill="#000000" fill-rule="nonzero" fill-opacity="1" /><path clip-path="url(#clip170)" d="M147.177 808.534 L152.061 808.534 L152.061 814.413 L147.177 814.413 L147.177 808.534 Z" fill="#000000" fill-rule="nonzero" fill-opacity="1" /><path clip-path="url(#clip170)" d="M172.246 782.932 Q168.635 782.932 166.806 786.497 Q165.001 790.038 165.001 797.168 Q165.001 804.275 166.806 807.839 Q168.635 811.381 172.246 811.381 Q175.88 811.381 177.686 807.839 Q179.514 804.275 179.514 797.168 Q179.514 790.038 177.686 786.497 Q175.88 782.932 172.246 782.932 M172.246 779.228 Q178.056 779.228 181.112 783.835 Q184.19 788.418 184.19 797.168 Q184.19 805.895 181.112 810.501 Q178.056 815.085 172.246 815.085 Q166.436 815.085 163.357 810.501 Q160.302 805.895 160.302 797.168 Q160.302 788.418 163.357 783.835 Q166.436 779.228 172.246 779.228 Z" fill="#000000" fill-rule="nonzero" fill-opacity="1" /><path clip-path="url(#clip170)" d="M220.579 788.951 L210 799.575 L220.579 810.154 L217.824 812.955 L207.199 802.33 L196.575 812.955 L193.843 810.154 L204.399 799.575 L193.843 788.951 L196.575 786.15 L207.199 796.775 L217.824 786.15 L220.579 788.951 Z" fill="#000000" fill-rule="nonzero" fill-opacity="1" /><path clip-path="url(#clip170)" d="M232.94 810.478 L240.579 810.478 L240.579 784.113 L232.269 785.779 L232.269 781.52 L240.533 779.853 L245.209 779.853 L245.209 810.478 L252.847 810.478 L252.847 814.413 L232.94 814.413 L232.94 810.478 Z" fill="#000000" fill-rule="nonzero" fill-opacity="1" /><path clip-path="url(#clip170)" d="M272.292 782.932 Q268.681 782.932 266.852 786.497 Q265.046 790.038 265.046 797.168 Q265.046 804.275 266.852 807.839 Q268.681 811.381 272.292 811.381 Q275.926 811.381 277.732 807.839 Q279.56 804.275 279.56 797.168 Q279.56 790.038 277.732 786.497 Q275.926 782.932 272.292 782.932 M272.292 779.228 Q278.102 779.228 281.157 783.835 Q284.236 788.418 284.236 797.168 Q284.236 805.895 281.157 810.501 Q278.102 815.085 272.292 815.085 Q266.482 815.085 263.403 810.501 Q260.347 805.895 260.347 797.168 Q260.347 788.418 263.403 783.835 Q266.482 779.228 272.292 779.228 Z" fill="#000000" fill-rule="nonzero" fill-opacity="1" /><path clip-path="url(#clip170)" d="M296.913 762.233 L287.321 777.223 L296.913 777.223 L296.913 762.233 M295.916 758.923 L300.693 758.923 L300.693 777.223 L304.699 777.223 L304.699 780.383 L300.693 780.383 L300.693 787.003 L296.913 787.003 L296.913 780.383 L284.236 780.383 L284.236 776.715 L295.916 758.923 Z" fill="#000000" fill-rule="nonzero" fill-opacity="1" /><path clip-path="url(#clip170)" d="M127.593 495.528 Q124.445 495.528 122.593 497.681 Q120.765 499.833 120.765 503.583 Q120.765 507.31 122.593 509.486 Q124.445 511.639 127.593 511.639 Q130.742 511.639 132.57 509.486 Q134.422 507.31 134.422 503.583 Q134.422 499.833 132.57 497.681 Q130.742 495.528 127.593 495.528 M136.876 480.875 L136.876 485.134 Q135.117 484.301 133.311 483.861 Q131.529 483.421 129.769 483.421 Q125.14 483.421 122.686 486.546 Q120.255 489.671 119.908 495.991 Q121.274 493.977 123.334 492.912 Q125.394 491.824 127.871 491.824 Q133.08 491.824 136.089 494.995 Q139.121 498.144 139.121 503.583 Q139.121 508.907 135.973 512.125 Q132.825 515.343 127.593 515.343 Q121.598 515.343 118.427 510.759 Q115.256 506.153 115.256 497.426 Q115.256 489.232 119.144 484.371 Q123.033 479.486 129.584 479.486 Q131.343 479.486 133.126 479.834 Q134.931 480.181 136.876 480.875 Z" fill="#000000" fill-rule="nonzero" fill-opacity="1" /><path clip-path="url(#clip170)" d="M147.177 508.792 L152.061 508.792 L152.061 514.671 L147.177 514.671 L147.177 508.792 Z" fill="#000000" fill-rule="nonzero" fill-opacity="1" /><path clip-path="url(#clip170)" d="M172.246 483.19 Q168.635 483.19 166.806 486.755 Q165.001 490.296 165.001 497.426 Q165.001 504.532 166.806 508.097 Q168.635 511.639 172.246 511.639 Q175.88 511.639 177.686 508.097 Q179.514 504.532 179.514 497.426 Q179.514 490.296 177.686 486.755 Q175.88 483.19 172.246 483.19 M172.246 479.486 Q178.056 479.486 181.112 484.093 Q184.19 488.676 184.19 497.426 Q184.19 506.153 181.112 510.759 Q178.056 515.343 172.246 515.343 Q166.436 515.343 163.357 510.759 Q160.302 506.153 160.302 497.426 Q160.302 488.676 163.357 484.093 Q166.436 479.486 172.246 479.486 Z" fill="#000000" fill-rule="nonzero" fill-opacity="1" /><path clip-path="url(#clip170)" d="M220.579 489.208 L210 499.833 L220.579 510.412 L217.824 513.213 L207.199 502.588 L196.575 513.213 L193.843 510.412 L204.399 499.833 L193.843 489.208 L196.575 486.408 L207.199 497.033 L217.824 486.408 L220.579 489.208 Z" fill="#000000" fill-rule="nonzero" fill-opacity="1" /><path clip-path="url(#clip170)" d="M232.94 510.736 L240.579 510.736 L240.579 484.371 L232.269 486.037 L232.269 481.778 L240.533 480.111 L245.209 480.111 L245.209 510.736 L252.847 510.736 L252.847 514.671 L232.94 514.671 L232.94 510.736 Z" fill="#000000" fill-rule="nonzero" fill-opacity="1" /><path clip-path="url(#clip170)" d="M272.292 483.19 Q268.681 483.19 266.852 486.755 Q265.046 490.296 265.046 497.426 Q265.046 504.532 266.852 508.097 Q268.681 511.639 272.292 511.639 Q275.926 511.639 277.732 508.097 Q279.56 504.532 279.56 497.426 Q279.56 490.296 277.732 486.755 Q275.926 483.19 272.292 483.19 M272.292 479.486 Q278.102 479.486 281.157 484.093 Q284.236 488.676 284.236 497.426 Q284.236 506.153 281.157 510.759 Q278.102 515.343 272.292 515.343 Q266.482 515.343 263.403 510.759 Q260.347 506.153 260.347 497.426 Q260.347 488.676 263.403 484.093 Q266.482 479.486 272.292 479.486 Z" fill="#000000" fill-rule="nonzero" fill-opacity="1" /><path clip-path="url(#clip170)" d="M296.913 462.491 L287.321 477.481 L296.913 477.481 L296.913 462.491 M295.916 459.181 L300.693 459.181 L300.693 477.481 L304.699 477.481 L304.699 480.641 L300.693 480.641 L300.693 487.261 L296.913 487.261 L296.913 480.641 L284.236 480.641 L284.236 476.973 L295.916 459.181 Z" fill="#000000" fill-rule="nonzero" fill-opacity="1" /><path clip-path="url(#clip170)" d="M127.015 198.517 Q123.681 198.517 121.76 200.3 Q119.862 202.082 119.862 205.207 Q119.862 208.332 121.76 210.114 Q123.681 211.897 127.015 211.897 Q130.348 211.897 132.269 210.114 Q134.191 208.309 134.191 205.207 Q134.191 202.082 132.269 200.3 Q130.371 198.517 127.015 198.517 M122.339 196.527 Q119.33 195.786 117.64 193.726 Q115.973 191.666 115.973 188.703 Q115.973 184.559 118.913 182.152 Q121.876 179.744 127.015 179.744 Q132.177 179.744 135.117 182.152 Q138.056 184.559 138.056 188.703 Q138.056 191.666 136.367 193.726 Q134.7 195.786 131.714 196.527 Q135.093 197.314 136.968 199.605 Q138.867 201.897 138.867 205.207 Q138.867 210.23 135.788 212.915 Q132.732 215.601 127.015 215.601 Q121.297 215.601 118.218 212.915 Q115.163 210.23 115.163 205.207 Q115.163 201.897 117.061 199.605 Q118.959 197.314 122.339 196.527 M120.626 189.142 Q120.626 191.828 122.293 193.332 Q123.982 194.837 127.015 194.837 Q130.024 194.837 131.714 193.332 Q133.427 191.828 133.427 189.142 Q133.427 186.457 131.714 184.953 Q130.024 183.448 127.015 183.448 Q123.982 183.448 122.293 184.953 Q120.626 186.457 120.626 189.142 Z" fill="#000000" fill-rule="nonzero" fill-opacity="1" /><path clip-path="url(#clip170)" d="M147.177 209.05 L152.061 209.05 L152.061 214.929 L147.177 214.929 L147.177 209.05 Z" fill="#000000" fill-rule="nonzero" fill-opacity="1" /><path clip-path="url(#clip170)" d="M172.246 183.448 Q168.635 183.448 166.806 187.013 Q165.001 190.554 165.001 197.684 Q165.001 204.79 166.806 208.355 Q168.635 211.897 172.246 211.897 Q175.88 211.897 177.686 208.355 Q179.514 204.79 179.514 197.684 Q179.514 190.554 177.686 187.013 Q175.88 183.448 172.246 183.448 M172.246 179.744 Q178.056 179.744 181.112 184.351 Q184.19 188.934 184.19 197.684 Q184.19 206.411 181.112 211.017 Q178.056 215.601 172.246 215.601 Q166.436 215.601 163.357 211.017 Q160.302 206.411 160.302 197.684 Q160.302 188.934 163.357 184.351 Q166.436 179.744 172.246 179.744 Z" fill="#000000" fill-rule="nonzero" fill-opacity="1" /><path clip-path="url(#clip170)" d="M220.579 189.466 L210 200.091 L220.579 210.67 L217.824 213.471 L207.199 202.846 L196.575 213.471 L193.843 210.67 L204.399 200.091 L193.843 189.466 L196.575 186.666 L207.199 197.29 L217.824 186.666 L220.579 189.466 Z" fill="#000000" fill-rule="nonzero" fill-opacity="1" /><path clip-path="url(#clip170)" d="M232.94 210.994 L240.579 210.994 L240.579 184.629 L232.269 186.295 L232.269 182.036 L240.533 180.369 L245.209 180.369 L245.209 210.994 L252.847 210.994 L252.847 214.929 L232.94 214.929 L232.94 210.994 Z" fill="#000000" fill-rule="nonzero" fill-opacity="1" /><path clip-path="url(#clip170)" d="M272.292 183.448 Q268.681 183.448 266.852 187.013 Q265.046 190.554 265.046 197.684 Q265.046 204.79 266.852 208.355 Q268.681 211.897 272.292 211.897 Q275.926 211.897 277.732 208.355 Q279.56 204.79 279.56 197.684 Q279.56 190.554 277.732 187.013 Q275.926 183.448 272.292 183.448 M272.292 179.744 Q278.102 179.744 281.157 184.351 Q284.236 188.934 284.236 197.684 Q284.236 206.411 281.157 211.017 Q278.102 215.601 272.292 215.601 Q266.482 215.601 263.403 211.017 Q260.347 206.411 260.347 197.684 Q260.347 188.934 263.403 184.351 Q266.482 179.744 272.292 179.744 Z" fill="#000000" fill-rule="nonzero" fill-opacity="1" /><path clip-path="url(#clip170)" d="M296.913 162.749 L287.321 177.739 L296.913 177.739 L296.913 162.749 M295.916 159.439 L300.693 159.439 L300.693 177.739 L304.699 177.739 L304.699 180.899 L300.693 180.899 L300.693 187.519 L296.913 187.519 L296.913 180.899 L284.236 180.899 L284.236 177.231 L295.916 159.439 Z" fill="#000000" fill-rule="nonzero" fill-opacity="1" /><path clip-path="url(#clip170)" d="M18.0438 765.56 L24.314 765.56 Q22.5634 769.221 21.704 772.467 Q20.8447 775.714 20.8447 778.737 Q20.8447 783.989 22.8817 786.854 Q24.9187 789.687 28.6745 789.687 Q31.8255 789.687 33.4488 787.809 Q35.0402 785.899 36.0269 780.615 L36.8226 776.732 Q38.1912 769.539 41.6605 766.133 Q45.098 762.696 50.8908 762.696 Q57.7976 762.696 61.3624 767.343 Q64.9272 771.958 64.9272 780.902 Q64.9272 784.276 64.1633 788.095 Q63.3994 791.883 61.9035 795.957 L55.2831 795.957 Q57.4793 792.042 58.5933 788.286 Q59.7073 784.53 59.7073 780.902 Q59.7073 775.395 57.543 772.404 Q55.3786 769.412 51.3682 769.412 Q47.8671 769.412 45.8937 771.576 Q43.9204 773.709 42.9337 778.61 L42.1698 782.525 Q40.7375 789.718 37.682 792.933 Q34.6264 796.148 29.1837 796.148 Q22.8817 796.148 19.2532 791.724 Q15.6248 787.268 15.6248 779.47 Q15.6248 776.128 16.2295 772.658 Q16.8343 769.189 18.0438 765.56 Z" fill="#000000" fill-rule="nonzero" fill-opacity="1" /><path clip-path="url(#clip170)" d="M18.0438 724.183 L24.314 724.183 Q22.5634 727.844 21.704 731.09 Q20.8447 734.337 20.8447 737.36 Q20.8447 742.612 22.8817 745.477 Q24.9187 748.309 28.6745 748.309 Q31.8255 748.309 33.4488 746.432 Q35.0402 744.522 36.0269 739.238 L36.8226 735.355 Q38.1912 728.162 41.6605 724.756 Q45.098 721.319 50.8908 721.319 Q57.7976 721.319 61.3624 725.966 Q64.9272 730.581 64.9272 739.525 Q64.9272 742.899 64.1633 746.718 Q63.3994 750.506 61.9035 754.58 L55.2831 754.58 Q57.4793 750.665 58.5933 746.909 Q59.7073 743.153 59.7073 739.525 Q59.7073 734.018 57.543 731.027 Q55.3786 728.035 51.3682 728.035 Q47.8671 728.035 45.8937 730.199 Q43.9204 732.331 42.9337 737.233 L42.1698 741.148 Q40.7375 748.341 37.682 751.556 Q34.6264 754.771 29.1837 754.771 Q22.8817 754.771 19.2532 750.346 Q15.6248 745.89 15.6248 738.092 Q15.6248 734.75 16.2295 731.281 Q16.8343 727.812 18.0438 724.183 Z" fill="#000000" fill-rule="nonzero" fill-opacity="1" /><path clip-path="url(#clip170)" d="M41.7242 688.758 Q42.4244 686.689 44.7161 684.748 Q47.0077 682.774 51.0181 680.801 L64.0042 674.276 L64.0042 681.183 L51.8138 687.262 Q47.0395 689.618 45.48 691.846 Q43.9204 694.042 43.9204 697.861 L43.9204 704.863 L64.0042 704.863 L64.0042 711.293 L16.4842 711.293 L16.4842 696.779 Q16.4842 688.631 19.8898 684.621 Q23.2955 680.61 30.1704 680.61 Q34.6582 680.61 37.6183 682.711 Q40.5784 684.78 41.7242 688.758 M21.7677 704.863 L38.6368 704.863 L38.6368 696.779 Q38.6368 692.132 36.5043 689.777 Q34.34 687.39 30.1704 687.39 Q26.0009 687.39 23.9002 689.777 Q21.7677 692.132 21.7677 696.779 L21.7677 704.863 Z" fill="#000000" fill-rule="nonzero" fill-opacity="1" /><circle clip-path="url(#clip172)" cx="397.644" cy="922.534" r="14.4" fill="#009af9" fill-rule="evenodd" fill-opacity="1" stroke="#000000" stroke-opacity="1" stroke-width="3.2"/>
<circle clip-path="url(#clip172)" cx="608.551" cy="1158.71" r="14.4" fill="#009af9" fill-rule="evenodd" fill-opacity="1" stroke="#000000" stroke-opacity="1" stroke-width="3.2"/>
<circle clip-path="url(#clip172)" cx="819.459" cy="1312.61" r="14.4" fill="#009af9" fill-rule="evenodd" fill-opacity="1" stroke="#000000" stroke-opacity="1" stroke-width="3.2"/>
<circle clip-path="url(#clip172)" cx="1030.37" cy="1384.24" r="14.4" fill="#009af9" fill-rule="evenodd" fill-opacity="1" stroke="#000000" stroke-opacity="1" stroke-width="3.2"/>
<circle clip-path="url(#clip172)" cx="1241.27" cy="1373.59" r="14.4" fill="#009af9" fill-rule="evenodd" fill-opacity="1" stroke="#000000" stroke-opacity="1" stroke-width="3.2"/>
<circle clip-path="url(#clip172)" cx="1452.18" cy="1280.66" r="14.4" fill="#009af9" fill-rule="evenodd" fill-opacity="1" stroke="#000000" stroke-opacity="1" stroke-width="3.2"/>
<circle clip-path="url(#clip172)" cx="1663.09" cy="1105.46" r="14.4" fill="#009af9" fill-rule="evenodd" fill-opacity="1" stroke="#000000" stroke-opacity="1" stroke-width="3.2"/>
<circle clip-path="url(#clip172)" cx="1874" cy="847.975" r="14.4" fill="#009af9" fill-rule="evenodd" fill-opacity="1" stroke="#000000" stroke-opacity="1" stroke-width="3.2"/>
<circle clip-path="url(#clip172)" cx="2084.9" cy="508.219" r="14.4" fill="#009af9" fill-rule="evenodd" fill-opacity="1" stroke="#000000" stroke-opacity="1" stroke-width="3.2"/>
<circle clip-path="url(#clip172)" cx="2295.81" cy="86.1857" r="14.4" fill="#009af9" fill-rule="evenodd" fill-opacity="1" stroke="#000000" stroke-opacity="1" stroke-width="3.2"/>
</svg>
