<?xml version="1.0" encoding="utf-8"?>
<svg xmlns="http://www.w3.org/2000/svg" xmlns:xlink="http://www.w3.org/1999/xlink" width="600" height="400" viewBox="0 0 2400 1600">
<defs>
  <clipPath id="clip350">
    <rect x="0" y="0" width="2400" height="1600"/>
  </clipPath>
</defs>
<path clip-path="url(#clip350)" d="M0 1600 L2400 1600 L2400 0 L0 0  Z" fill="#ffffff" fill-rule="evenodd" fill-opacity="1"/>
<defs>
  <clipPath id="clip351">
    <rect x="480" y="0" width="1681" height="1600"/>
  </clipPath>
</defs>
<path clip-path="url(#clip350)" d="M247.459 1423.18 L2352.76 1423.18 L2352.76 47.2441 L247.459 47.2441  Z" fill="#ffffff" fill-rule="evenodd" fill-opacity="1"/>
<defs>
  <clipPath id="clip352">
    <rect x="247" y="47" width="2106" height="1377"/>
  </clipPath>
</defs>
<polyline clip-path="url(#clip352)" style="stroke:#000000; stroke-linecap:round; stroke-linejoin:round; stroke-width:2; stroke-opacity:0.1; fill:none" points="591.844,1423.18 591.844,47.2441 "/>
<polyline clip-path="url(#clip352)" style="stroke:#000000; stroke-linecap:round; stroke-linejoin:round; stroke-width:2; stroke-opacity:0.1; fill:none" points="994.988,1423.18 994.988,47.2441 "/>
<polyline clip-path="url(#clip352)" style="stroke:#000000; stroke-linecap:round; stroke-linejoin:round; stroke-width:2; stroke-opacity:0.1; fill:none" points="1398.13,1423.18 1398.13,47.2441 "/>
<polyline clip-path="url(#clip352)" style="stroke:#000000; stroke-linecap:round; stroke-linejoin:round; stroke-width:2; stroke-opacity:0.1; fill:none" points="1801.28,1423.18 1801.28,47.2441 "/>
<polyline clip-path="url(#clip352)" style="stroke:#000000; stroke-linecap:round; stroke-linejoin:round; stroke-width:2; stroke-opacity:0.1; fill:none" points="2204.42,1423.18 2204.42,47.2441 "/>
<polyline clip-path="url(#clip350)" style="stroke:#000000; stroke-linecap:round; stroke-linejoin:round; stroke-width:4; stroke-opacity:1; fill:none" points="247.459,1423.18 2352.76,1423.18 "/>
<polyline clip-path="url(#clip350)" style="stroke:#000000; stroke-linecap:round; stroke-linejoin:round; stroke-width:4; stroke-opacity:1; fill:none" points="591.844,1423.18 591.844,1404.28 "/>
<polyline clip-path="url(#clip350)" style="stroke:#000000; stroke-linecap:round; stroke-linejoin:round; stroke-width:4; stroke-opacity:1; fill:none" points="994.988,1423.18 994.988,1404.28 "/>
<polyline clip-path="url(#clip350)" style="stroke:#000000; stroke-linecap:round; stroke-linejoin:round; stroke-width:4; stroke-opacity:1; fill:none" points="1398.13,1423.18 1398.13,1404.28 "/>
<polyline clip-path="url(#clip350)" style="stroke:#000000; stroke-linecap:round; stroke-linejoin:round; stroke-width:4; stroke-opacity:1; fill:none" points="1801.28,1423.18 1801.28,1404.28 "/>
<polyline clip-path="url(#clip350)" style="stroke:#000000; stroke-linecap:round; stroke-linejoin:round; stroke-width:4; stroke-opacity:1; fill:none" points="2204.42,1423.18 2204.42,1404.28 "/>
<path clip-path="url(#clip350)" d="M570.617 1481.64 L586.936 1481.64 L586.936 1485.58 L564.992 1485.58 L564.992 1481.64 Q567.654 1478.89 572.237 1474.26 Q576.844 1469.61 578.024 1468.27 Q580.27 1465.74 581.149 1464.01 Q582.052 1462.25 582.052 1460.56 Q582.052 1457.8 580.108 1456.07 Q578.186 1454.33 575.085 1454.33 Q572.885 1454.33 570.432 1455.09 Q568.001 1455.86 565.223 1457.41 L565.223 1452.69 Q568.048 1451.55 570.501 1450.97 Q572.955 1450.39 574.992 1450.39 Q580.362 1450.39 583.557 1453.08 Q586.751 1455.77 586.751 1460.26 Q586.751 1462.39 585.941 1464.31 Q585.154 1466.2 583.047 1468.8 Q582.469 1469.47 579.367 1472.69 Q576.265 1475.88 570.617 1481.64 Z" fill="#000000" fill-rule="nonzero" fill-opacity="1" /><path clip-path="url(#clip350)" d="M606.751 1454.1 Q603.14 1454.1 601.311 1457.66 Q599.506 1461.2 599.506 1468.33 Q599.506 1475.44 601.311 1479.01 Q603.14 1482.55 606.751 1482.55 Q610.385 1482.55 612.191 1479.01 Q614.02 1475.44 614.02 1468.33 Q614.02 1461.2 612.191 1457.66 Q610.385 1454.1 606.751 1454.1 M606.751 1450.39 Q612.561 1450.39 615.617 1455 Q618.695 1459.58 618.695 1468.33 Q618.695 1477.06 615.617 1481.67 Q612.561 1486.25 606.751 1486.25 Q600.941 1486.25 597.862 1481.67 Q594.807 1477.06 594.807 1468.33 Q594.807 1459.58 597.862 1455 Q600.941 1450.39 606.751 1450.39 Z" fill="#000000" fill-rule="nonzero" fill-opacity="1" /><path clip-path="url(#clip350)" d="M983.159 1455.09 L971.354 1473.54 L983.159 1473.54 L983.159 1455.09 M981.932 1451.02 L987.812 1451.02 L987.812 1473.54 L992.742 1473.54 L992.742 1477.43 L987.812 1477.43 L987.812 1485.58 L983.159 1485.58 L983.159 1477.43 L967.557 1477.43 L967.557 1472.92 L981.932 1451.02 Z" fill="#000000" fill-rule="nonzero" fill-opacity="1" /><path clip-path="url(#clip350)" d="M1010.47 1454.1 Q1006.86 1454.1 1005.03 1457.66 Q1003.23 1461.2 1003.23 1468.33 Q1003.23 1475.44 1005.03 1479.01 Q1006.86 1482.55 1010.47 1482.55 Q1014.11 1482.55 1015.91 1479.01 Q1017.74 1475.44 1017.74 1468.33 Q1017.74 1461.2 1015.91 1457.66 Q1014.11 1454.1 1010.47 1454.1 M1010.47 1450.39 Q1016.28 1450.39 1019.34 1455 Q1022.42 1459.58 1022.42 1468.33 Q1022.42 1477.06 1019.34 1481.67 Q1016.28 1486.25 1010.47 1486.25 Q1004.66 1486.25 1001.58 1481.67 Q998.529 1477.06 998.529 1468.33 Q998.529 1459.58 1001.58 1455 Q1004.66 1450.39 1010.47 1450.39 Z" fill="#000000" fill-rule="nonzero" fill-opacity="1" /><path clip-path="url(#clip350)" d="M1383.54 1466.44 Q1380.39 1466.44 1378.54 1468.59 Q1376.71 1470.74 1376.71 1474.49 Q1376.71 1478.22 1378.54 1480.39 Q1380.39 1482.55 1383.54 1482.55 Q1386.69 1482.55 1388.51 1480.39 Q1390.37 1478.22 1390.37 1474.49 Q1390.37 1470.74 1388.51 1468.59 Q1386.69 1466.44 1383.54 1466.44 M1392.82 1451.78 L1392.82 1456.04 Q1391.06 1455.21 1389.25 1454.77 Q1387.47 1454.33 1385.71 1454.33 Q1381.08 1454.33 1378.63 1457.45 Q1376.2 1460.58 1375.85 1466.9 Q1377.22 1464.89 1379.28 1463.82 Q1381.34 1462.73 1383.81 1462.73 Q1389.02 1462.73 1392.03 1465.9 Q1395.06 1469.05 1395.06 1474.49 Q1395.06 1479.82 1391.92 1483.03 Q1388.77 1486.25 1383.54 1486.25 Q1377.54 1486.25 1374.37 1481.67 Q1371.2 1477.06 1371.2 1468.33 Q1371.2 1460.14 1375.09 1455.28 Q1378.98 1450.39 1385.53 1450.39 Q1387.29 1450.39 1389.07 1450.74 Q1390.87 1451.09 1392.82 1451.78 Z" fill="#000000" fill-rule="nonzero" fill-opacity="1" /><path clip-path="url(#clip350)" d="M1413.12 1454.1 Q1409.51 1454.1 1407.68 1457.66 Q1405.87 1461.2 1405.87 1468.33 Q1405.87 1475.44 1407.68 1479.01 Q1409.51 1482.55 1413.12 1482.55 Q1416.75 1482.55 1418.56 1479.01 Q1420.39 1475.44 1420.39 1468.33 Q1420.39 1461.2 1418.56 1457.66 Q1416.75 1454.1 1413.12 1454.1 M1413.12 1450.39 Q1418.93 1450.39 1421.99 1455 Q1425.06 1459.58 1425.06 1468.33 Q1425.06 1477.06 1421.99 1481.67 Q1418.93 1486.25 1413.12 1486.25 Q1407.31 1486.25 1404.23 1481.67 Q1401.18 1477.06 1401.18 1468.33 Q1401.18 1459.58 1404.23 1455 Q1407.31 1450.39 1413.12 1450.39 Z" fill="#000000" fill-rule="nonzero" fill-opacity="1" /><path clip-path="url(#clip350)" d="M1786.15 1469.17 Q1782.82 1469.17 1780.89 1470.95 Q1779 1472.73 1779 1475.86 Q1779 1478.98 1780.89 1480.77 Q1782.82 1482.55 1786.15 1482.55 Q1789.48 1482.55 1791.4 1480.77 Q1793.32 1478.96 1793.32 1475.86 Q1793.32 1472.73 1791.4 1470.95 Q1789.51 1469.17 1786.15 1469.17 M1781.47 1467.18 Q1778.46 1466.44 1776.77 1464.38 Q1775.11 1462.32 1775.11 1459.35 Q1775.11 1455.21 1778.05 1452.8 Q1781.01 1450.39 1786.15 1450.39 Q1791.31 1450.39 1794.25 1452.8 Q1797.19 1455.21 1797.19 1459.35 Q1797.19 1462.32 1795.5 1464.38 Q1793.83 1466.44 1790.85 1467.18 Q1794.23 1467.96 1796.1 1470.26 Q1798 1472.55 1798 1475.86 Q1798 1480.88 1794.92 1483.57 Q1791.87 1486.25 1786.15 1486.25 Q1780.43 1486.25 1777.35 1483.57 Q1774.3 1480.88 1774.3 1475.86 Q1774.3 1472.55 1776.19 1470.26 Q1778.09 1467.96 1781.47 1467.18 M1779.76 1459.79 Q1779.76 1462.48 1781.43 1463.98 Q1783.12 1465.49 1786.15 1465.49 Q1789.16 1465.49 1790.85 1463.98 Q1792.56 1462.48 1792.56 1459.79 Q1792.56 1457.11 1790.85 1455.6 Q1789.16 1454.1 1786.15 1454.1 Q1783.12 1454.1 1781.43 1455.6 Q1779.76 1457.11 1779.76 1459.79 Z" fill="#000000" fill-rule="nonzero" fill-opacity="1" /><path clip-path="url(#clip350)" d="M1816.31 1454.1 Q1812.7 1454.1 1810.87 1457.66 Q1809.07 1461.2 1809.07 1468.33 Q1809.07 1475.44 1810.87 1479.01 Q1812.7 1482.55 1816.31 1482.55 Q1819.94 1482.55 1821.75 1479.01 Q1823.58 1475.44 1823.58 1468.33 Q1823.58 1461.2 1821.75 1457.66 Q1819.94 1454.1 1816.31 1454.1 M1816.31 1450.39 Q1822.12 1450.39 1825.18 1455 Q1828.25 1459.58 1828.25 1468.33 Q1828.25 1477.06 1825.18 1481.67 Q1822.12 1486.25 1816.31 1486.25 Q1810.5 1486.25 1807.42 1481.67 Q1804.37 1477.06 1804.37 1468.33 Q1804.37 1459.58 1807.42 1455 Q1810.5 1450.39 1816.31 1450.39 Z" fill="#000000" fill-rule="nonzero" fill-opacity="1" /><path clip-path="url(#clip350)" d="M2164.03 1481.64 L2171.67 1481.64 L2171.67 1455.28 L2163.36 1456.95 L2163.36 1452.69 L2171.62 1451.02 L2176.3 1451.02 L2176.3 1481.64 L2183.93 1481.64 L2183.93 1485.58 L2164.03 1485.58 L2164.03 1481.64 Z" fill="#000000" fill-rule="nonzero" fill-opacity="1" /><path clip-path="url(#clip350)" d="M2203.38 1454.1 Q2199.77 1454.1 2197.94 1457.66 Q2196.13 1461.2 2196.13 1468.33 Q2196.13 1475.44 2197.94 1479.01 Q2199.77 1482.55 2203.38 1482.55 Q2207.01 1482.55 2208.82 1479.01 Q2210.65 1475.44 2210.65 1468.33 Q2210.65 1461.2 2208.82 1457.66 Q2207.01 1454.1 2203.38 1454.1 M2203.38 1450.39 Q2209.19 1450.39 2212.24 1455 Q2215.32 1459.58 2215.32 1468.33 Q2215.32 1477.06 2212.24 1481.67 Q2209.19 1486.25 2203.38 1486.25 Q2197.57 1486.25 2194.49 1481.67 Q2191.43 1477.06 2191.43 1468.33 Q2191.43 1459.58 2194.49 1455 Q2197.57 1450.39 2203.38 1450.39 Z" fill="#000000" fill-rule="nonzero" fill-opacity="1" /><path clip-path="url(#clip350)" d="M2233.54 1454.1 Q2229.93 1454.1 2228.1 1457.66 Q2226.29 1461.2 2226.29 1468.33 Q2226.29 1475.44 2228.1 1479.01 Q2229.93 1482.55 2233.54 1482.55 Q2237.17 1482.55 2238.98 1479.01 Q2240.81 1475.44 2240.81 1468.33 Q2240.81 1461.2 2238.98 1457.66 Q2237.17 1454.1 2233.54 1454.1 M2233.54 1450.39 Q2239.35 1450.39 2242.41 1455 Q2245.48 1459.58 2245.48 1468.33 Q2245.48 1477.06 2242.41 1481.67 Q2239.35 1486.25 2233.54 1486.25 Q2227.73 1486.25 2224.65 1481.67 Q2221.6 1477.06 2221.6 1468.33 Q2221.6 1459.58 2224.65 1455 Q2227.73 1450.39 2233.54 1450.39 Z" fill="#000000" fill-rule="nonzero" fill-opacity="1" /><path clip-path="url(#clip350)" d="M1107.15 1533.76 L1107.15 1539.24 Q1104.66 1537.87 1102.15 1537.2 Q1099.67 1536.5 1097.12 1536.5 Q1091.42 1536.5 1088.27 1540.13 Q1085.12 1543.73 1085.12 1550.25 Q1085.12 1556.78 1088.27 1560.4 Q1091.42 1564 1097.12 1564 Q1099.67 1564 1102.15 1563.33 Q1104.66 1562.63 1107.15 1561.26 L1107.15 1566.68 Q1104.7 1567.82 1102.05 1568.39 Q1099.44 1568.97 1096.48 1568.97 Q1088.43 1568.97 1083.69 1563.91 Q1078.95 1558.85 1078.95 1550.25 Q1078.95 1541.53 1083.72 1536.53 Q1088.53 1531.54 1096.87 1531.54 Q1099.57 1531.54 1102.15 1532.11 Q1104.73 1532.65 1107.15 1533.76 Z" fill="#000000" fill-rule="nonzero" fill-opacity="1" /><path clip-path="url(#clip350)" d="M1131.15 1536.5 Q1126.43 1536.5 1123.7 1540.19 Q1120.96 1543.85 1120.96 1550.25 Q1120.96 1556.65 1123.67 1560.34 Q1126.4 1564 1131.15 1564 Q1135.82 1564 1138.56 1560.31 Q1141.3 1556.62 1141.3 1550.25 Q1141.3 1543.92 1138.56 1540.23 Q1135.82 1536.5 1131.15 1536.5 M1131.15 1531.54 Q1138.78 1531.54 1143.14 1536.5 Q1147.51 1541.47 1147.51 1550.25 Q1147.51 1559 1143.14 1564 Q1138.78 1568.97 1131.15 1568.97 Q1123.47 1568.97 1119.11 1564 Q1114.79 1559 1114.79 1550.25 Q1114.79 1541.47 1119.11 1536.5 Q1123.47 1531.54 1131.15 1531.54 Z" fill="#000000" fill-rule="nonzero" fill-opacity="1" /><path clip-path="url(#clip350)" d="M1186.85 1546.53 L1186.85 1568.04 L1180.99 1568.04 L1180.99 1546.72 Q1180.99 1541.66 1179.02 1539.14 Q1177.04 1536.63 1173.1 1536.63 Q1168.35 1536.63 1165.62 1539.65 Q1162.88 1542.68 1162.88 1547.9 L1162.88 1568.04 L1156.99 1568.04 L1156.99 1532.4 L1162.88 1532.4 L1162.88 1537.93 Q1164.98 1534.72 1167.81 1533.13 Q1170.68 1531.54 1174.4 1531.54 Q1180.54 1531.54 1183.69 1535.36 Q1186.85 1539.14 1186.85 1546.53 Z" fill="#000000" fill-rule="nonzero" fill-opacity="1" /><path clip-path="url(#clip350)" d="M1224.18 1533.76 L1224.18 1539.24 Q1221.7 1537.87 1219.18 1537.2 Q1216.7 1536.5 1214.15 1536.5 Q1208.46 1536.5 1205.31 1540.13 Q1202.15 1543.73 1202.15 1550.25 Q1202.15 1556.78 1205.31 1560.4 Q1208.46 1564 1214.15 1564 Q1216.7 1564 1219.18 1563.33 Q1221.7 1562.63 1224.18 1561.26 L1224.18 1566.68 Q1221.73 1567.82 1219.09 1568.39 Q1216.48 1568.97 1213.52 1568.97 Q1205.47 1568.97 1200.72 1563.91 Q1195.98 1558.85 1195.98 1550.25 Q1195.98 1541.53 1200.75 1536.53 Q1205.56 1531.54 1213.9 1531.54 Q1216.61 1531.54 1219.18 1532.11 Q1221.76 1532.65 1224.18 1533.76 Z" fill="#000000" fill-rule="nonzero" fill-opacity="1" /><path clip-path="url(#clip350)" d="M1264.86 1548.76 L1264.86 1551.62 L1237.93 1551.62 Q1238.31 1557.67 1241.56 1560.85 Q1244.84 1564 1250.66 1564 Q1254.04 1564 1257.19 1563.17 Q1260.37 1562.35 1263.49 1560.69 L1263.49 1566.23 Q1260.34 1567.57 1257.03 1568.27 Q1253.72 1568.97 1250.31 1568.97 Q1241.78 1568.97 1236.78 1564 Q1231.82 1559.04 1231.82 1550.57 Q1231.82 1541.82 1236.53 1536.69 Q1241.27 1531.54 1249.29 1531.54 Q1256.49 1531.54 1260.66 1536.18 Q1264.86 1540.8 1264.86 1548.76 M1259 1547.04 Q1258.94 1542.23 1256.3 1539.37 Q1253.69 1536.5 1249.36 1536.5 Q1244.46 1536.5 1241.5 1539.27 Q1238.57 1542.04 1238.12 1547.07 L1259 1547.04 Z" fill="#000000" fill-rule="nonzero" fill-opacity="1" /><path clip-path="url(#clip350)" d="M1304.1 1546.53 L1304.1 1568.04 L1298.25 1568.04 L1298.25 1546.72 Q1298.25 1541.66 1296.27 1539.14 Q1294.3 1536.63 1290.35 1536.63 Q1285.61 1536.63 1282.87 1539.65 Q1280.13 1542.68 1280.13 1547.9 L1280.13 1568.04 L1274.25 1568.04 L1274.25 1532.4 L1280.13 1532.4 L1280.13 1537.93 Q1282.24 1534.72 1285.07 1533.13 Q1287.93 1531.54 1291.66 1531.54 Q1297.8 1531.54 1300.95 1535.36 Q1304.1 1539.14 1304.1 1546.53 Z" fill="#000000" fill-rule="nonzero" fill-opacity="1" /><path clip-path="url(#clip350)" d="M1321.58 1522.27 L1321.58 1532.4 L1333.64 1532.4 L1333.64 1536.95 L1321.58 1536.95 L1321.58 1556.3 Q1321.58 1560.66 1322.75 1561.9 Q1323.96 1563.14 1327.62 1563.14 L1333.64 1563.14 L1333.64 1568.04 L1327.62 1568.04 Q1320.84 1568.04 1318.27 1565.53 Q1315.69 1562.98 1315.69 1556.3 L1315.69 1536.95 L1311.39 1536.95 L1311.39 1532.4 L1315.69 1532.4 L1315.69 1522.27 L1321.58 1522.27 Z" fill="#000000" fill-rule="nonzero" fill-opacity="1" /><path clip-path="url(#clip350)" d="M1362 1537.87 Q1361.01 1537.3 1359.83 1537.04 Q1358.69 1536.76 1357.29 1536.76 Q1352.32 1536.76 1349.65 1540 Q1347.01 1543.22 1347.01 1549.27 L1347.01 1568.04 L1341.12 1568.04 L1341.12 1532.4 L1347.01 1532.4 L1347.01 1537.93 Q1348.85 1534.69 1351.81 1533.13 Q1354.77 1531.54 1359.01 1531.54 Q1359.61 1531.54 1360.34 1531.63 Q1361.07 1531.7 1361.97 1531.85 L1362 1537.87 Z" fill="#000000" fill-rule="nonzero" fill-opacity="1" /><path clip-path="url(#clip350)" d="M1384.34 1550.12 Q1377.24 1550.12 1374.51 1551.75 Q1371.77 1553.37 1371.77 1557.29 Q1371.77 1560.4 1373.81 1562.25 Q1375.88 1564.07 1379.41 1564.07 Q1384.28 1564.07 1387.21 1560.63 Q1390.17 1557.16 1390.17 1551.43 L1390.17 1550.12 L1384.34 1550.12 M1396.02 1547.71 L1396.02 1568.04 L1390.17 1568.04 L1390.17 1562.63 Q1388.16 1565.88 1385.17 1567.44 Q1382.18 1568.97 1377.85 1568.97 Q1372.37 1568.97 1369.13 1565.91 Q1365.91 1562.82 1365.91 1557.67 Q1365.91 1551.65 1369.92 1548.6 Q1373.97 1545.54 1381.95 1545.54 L1390.17 1545.54 L1390.17 1544.97 Q1390.17 1540.93 1387.49 1538.73 Q1384.85 1536.5 1380.04 1536.5 Q1376.99 1536.5 1374.09 1537.23 Q1371.2 1537.97 1368.52 1539.43 L1368.52 1534.02 Q1371.74 1532.78 1374.76 1532.17 Q1377.78 1531.54 1380.65 1531.54 Q1388.38 1531.54 1392.2 1535.55 Q1396.02 1539.56 1396.02 1547.71 Z" fill="#000000" fill-rule="nonzero" fill-opacity="1" /><path clip-path="url(#clip350)" d="M1413.88 1522.27 L1413.88 1532.4 L1425.94 1532.4 L1425.94 1536.95 L1413.88 1536.95 L1413.88 1556.3 Q1413.88 1560.66 1415.06 1561.9 Q1416.27 1563.14 1419.93 1563.14 L1425.94 1563.14 L1425.94 1568.04 L1419.93 1568.04 Q1413.15 1568.04 1410.57 1565.53 Q1407.99 1562.98 1407.99 1556.3 L1407.99 1536.95 L1403.69 1536.95 L1403.69 1532.4 L1407.99 1532.4 L1407.99 1522.27 L1413.88 1522.27 Z" fill="#000000" fill-rule="nonzero" fill-opacity="1" /><path clip-path="url(#clip350)" d="M1433.64 1532.4 L1439.5 1532.4 L1439.5 1568.04 L1433.64 1568.04 L1433.64 1532.4 M1433.64 1518.52 L1439.5 1518.52 L1439.5 1525.93 L1433.64 1525.93 L1433.64 1518.52 Z" fill="#000000" fill-rule="nonzero" fill-opacity="1" /><path clip-path="url(#clip350)" d="M1465.57 1536.5 Q1460.86 1536.5 1458.12 1540.19 Q1455.38 1543.85 1455.38 1550.25 Q1455.38 1556.65 1458.09 1560.34 Q1460.83 1564 1465.57 1564 Q1470.25 1564 1472.98 1560.31 Q1475.72 1556.62 1475.72 1550.25 Q1475.72 1543.92 1472.98 1540.23 Q1470.25 1536.5 1465.57 1536.5 M1465.57 1531.54 Q1473.21 1531.54 1477.57 1536.5 Q1481.93 1541.47 1481.93 1550.25 Q1481.93 1559 1477.57 1564 Q1473.21 1568.97 1465.57 1568.97 Q1457.9 1568.97 1453.54 1564 Q1449.21 1559 1449.21 1550.25 Q1449.21 1541.47 1453.54 1536.5 Q1457.9 1531.54 1465.57 1531.54 Z" fill="#000000" fill-rule="nonzero" fill-opacity="1" /><path clip-path="url(#clip350)" d="M1521.27 1546.53 L1521.27 1568.04 L1515.41 1568.04 L1515.41 1546.72 Q1515.41 1541.66 1513.44 1539.14 Q1511.46 1536.63 1507.52 1536.63 Q1502.78 1536.63 1500.04 1539.65 Q1497.3 1542.68 1497.3 1547.9 L1497.3 1568.04 L1491.41 1568.04 L1491.41 1532.4 L1497.3 1532.4 L1497.3 1537.93 Q1499.4 1534.72 1502.23 1533.13 Q1505.1 1531.54 1508.82 1531.54 Q1514.97 1531.54 1518.12 1535.36 Q1521.27 1539.14 1521.27 1546.53 Z" fill="#000000" fill-rule="nonzero" fill-opacity="1" /><polyline clip-path="url(#clip352)" style="stroke:#000000; stroke-linecap:round; stroke-linejoin:round; stroke-width:2; stroke-opacity:0.1; fill:none" points="247.459,1327.17 2352.76,1327.17 "/>
<polyline clip-path="url(#clip352)" style="stroke:#000000; stroke-linecap:round; stroke-linejoin:round; stroke-width:2; stroke-opacity:0.1; fill:none" points="247.459,1059.67 2352.76,1059.67 "/>
<polyline clip-path="url(#clip352)" style="stroke:#000000; stroke-linecap:round; stroke-linejoin:round; stroke-width:2; stroke-opacity:0.1; fill:none" points="247.459,792.176 2352.76,792.176 "/>
<polyline clip-path="url(#clip352)" style="stroke:#000000; stroke-linecap:round; stroke-linejoin:round; stroke-width:2; stroke-opacity:0.1; fill:none" points="247.459,524.681 2352.76,524.681 "/>
<polyline clip-path="url(#clip352)" style="stroke:#000000; stroke-linecap:round; stroke-linejoin:round; stroke-width:2; stroke-opacity:0.1; fill:none" points="247.459,257.186 2352.76,257.186 "/>
<polyline clip-path="url(#clip350)" style="stroke:#000000; stroke-linecap:round; stroke-linejoin:round; stroke-width:4; stroke-opacity:1; fill:none" points="247.459,1423.18 247.459,47.2441 "/>
<polyline clip-path="url(#clip350)" style="stroke:#000000; stroke-linecap:round; stroke-linejoin:round; stroke-width:4; stroke-opacity:1; fill:none" points="247.459,1327.17 266.356,1327.17 "/>
<polyline clip-path="url(#clip350)" style="stroke:#000000; stroke-linecap:round; stroke-linejoin:round; stroke-width:4; stroke-opacity:1; fill:none" points="247.459,1059.67 266.356,1059.67 "/>
<polyline clip-path="url(#clip350)" style="stroke:#000000; stroke-linecap:round; stroke-linejoin:round; stroke-width:4; stroke-opacity:1; fill:none" points="247.459,792.176 266.356,792.176 "/>
<polyline clip-path="url(#clip350)" style="stroke:#000000; stroke-linecap:round; stroke-linejoin:round; stroke-width:4; stroke-opacity:1; fill:none" points="247.459,524.681 266.356,524.681 "/>
<polyline clip-path="url(#clip350)" style="stroke:#000000; stroke-linecap:round; stroke-linejoin:round; stroke-width:4; stroke-opacity:1; fill:none" points="247.459,257.186 266.356,257.186 "/>
<path clip-path="url(#clip350)" d="M154.283 1312.96 Q150.672 1312.96 148.843 1316.53 Q147.038 1320.07 147.038 1327.2 Q147.038 1334.31 148.843 1337.87 Q150.672 1341.41 154.283 1341.41 Q157.917 1341.41 159.723 1337.87 Q161.552 1334.31 161.552 1327.2 Q161.552 1320.07 159.723 1316.53 Q157.917 1312.96 154.283 1312.96 M154.283 1309.26 Q160.093 1309.26 163.149 1313.87 Q166.227 1318.45 166.227 1327.2 Q166.227 1335.93 163.149 1340.53 Q160.093 1345.12 154.283 1345.12 Q148.473 1345.12 145.394 1340.53 Q142.339 1335.93 142.339 1327.2 Q142.339 1318.45 145.394 1313.87 Q148.473 1309.26 154.283 1309.26 Z" fill="#000000" fill-rule="nonzero" fill-opacity="1" /><path clip-path="url(#clip350)" d="M174.445 1338.57 L179.329 1338.57 L179.329 1344.45 L174.445 1344.45 L174.445 1338.57 Z" fill="#000000" fill-rule="nonzero" fill-opacity="1" /><path clip-path="url(#clip350)" d="M199.514 1312.96 Q195.903 1312.96 194.075 1316.53 Q192.269 1320.07 192.269 1327.2 Q192.269 1334.31 194.075 1337.87 Q195.903 1341.41 199.514 1341.41 Q203.149 1341.41 204.954 1337.87 Q206.783 1334.31 206.783 1327.2 Q206.783 1320.07 204.954 1316.53 Q203.149 1312.96 199.514 1312.96 M199.514 1309.26 Q205.324 1309.26 208.38 1313.87 Q211.459 1318.45 211.459 1327.2 Q211.459 1335.93 208.38 1340.53 Q205.324 1345.12 199.514 1345.12 Q193.704 1345.12 190.625 1340.53 Q187.57 1335.93 187.57 1327.2 Q187.57 1318.45 190.625 1313.87 Q193.704 1309.26 199.514 1309.26 Z" fill="#000000" fill-rule="nonzero" fill-opacity="1" /><path clip-path="url(#clip350)" d="M149.306 1073.02 L165.626 1073.02 L165.626 1076.95 L143.681 1076.95 L143.681 1073.02 Q146.343 1070.26 150.927 1065.63 Q155.533 1060.98 156.714 1059.64 Q158.959 1057.11 159.839 1055.38 Q160.741 1053.62 160.741 1051.93 Q160.741 1049.17 158.797 1047.44 Q156.876 1045.7 153.774 1045.7 Q151.575 1045.7 149.121 1046.46 Q146.691 1047.23 143.913 1048.78 L143.913 1044.06 Q146.737 1042.92 149.191 1042.34 Q151.644 1041.77 153.681 1041.77 Q159.052 1041.77 162.246 1044.45 Q165.44 1047.14 165.44 1051.63 Q165.44 1053.76 164.63 1055.68 Q163.843 1057.58 161.737 1060.17 Q161.158 1060.84 158.056 1064.06 Q154.954 1067.25 149.306 1073.02 Z" fill="#000000" fill-rule="nonzero" fill-opacity="1" /><path clip-path="url(#clip350)" d="M175.44 1071.07 L180.325 1071.07 L180.325 1076.95 L175.44 1076.95 L175.44 1071.07 Z" fill="#000000" fill-rule="nonzero" fill-opacity="1" /><path clip-path="url(#clip350)" d="M190.556 1042.39 L208.912 1042.39 L208.912 1046.33 L194.838 1046.33 L194.838 1054.8 Q195.857 1054.45 196.875 1054.29 Q197.894 1054.1 198.912 1054.1 Q204.699 1054.1 208.079 1057.27 Q211.459 1060.45 211.459 1065.86 Q211.459 1071.44 207.987 1074.54 Q204.514 1077.62 198.195 1077.62 Q196.019 1077.62 193.75 1077.25 Q191.505 1076.88 189.098 1076.14 L189.098 1071.44 Q191.181 1072.58 193.403 1073.13 Q195.625 1073.69 198.102 1073.69 Q202.107 1073.69 204.445 1071.58 Q206.783 1069.47 206.783 1065.86 Q206.783 1062.25 204.445 1060.15 Q202.107 1058.04 198.102 1058.04 Q196.227 1058.04 194.352 1058.46 Q192.5 1058.87 190.556 1059.75 L190.556 1042.39 Z" fill="#000000" fill-rule="nonzero" fill-opacity="1" /><path clip-path="url(#clip350)" d="M144.329 774.896 L162.686 774.896 L162.686 778.831 L148.612 778.831 L148.612 787.303 Q149.63 786.956 150.649 786.794 Q151.667 786.609 152.686 786.609 Q158.473 786.609 161.852 789.78 Q165.232 792.951 165.232 798.368 Q165.232 803.947 161.76 807.048 Q158.288 810.127 151.968 810.127 Q149.792 810.127 147.524 809.757 Q145.279 809.386 142.871 808.646 L142.871 803.947 Q144.954 805.081 147.177 805.636 Q149.399 806.192 151.876 806.192 Q155.88 806.192 158.218 804.086 Q160.556 801.979 160.556 798.368 Q160.556 794.757 158.218 792.65 Q155.88 790.544 151.876 790.544 Q150.001 790.544 148.126 790.961 Q146.274 791.377 144.329 792.257 L144.329 774.896 Z" fill="#000000" fill-rule="nonzero" fill-opacity="1" /><path clip-path="url(#clip350)" d="M174.445 803.576 L179.329 803.576 L179.329 809.456 L174.445 809.456 L174.445 803.576 Z" fill="#000000" fill-rule="nonzero" fill-opacity="1" /><path clip-path="url(#clip350)" d="M199.514 777.975 Q195.903 777.975 194.075 781.539 Q192.269 785.081 192.269 792.211 Q192.269 799.317 194.075 802.882 Q195.903 806.423 199.514 806.423 Q203.149 806.423 204.954 802.882 Q206.783 799.317 206.783 792.211 Q206.783 785.081 204.954 781.539 Q203.149 777.975 199.514 777.975 M199.514 774.271 Q205.324 774.271 208.38 778.877 Q211.459 783.461 211.459 792.211 Q211.459 800.937 208.38 805.544 Q205.324 810.127 199.514 810.127 Q193.704 810.127 190.625 805.544 Q187.57 800.937 187.57 792.211 Q187.57 783.461 190.625 778.877 Q193.704 774.271 199.514 774.271 Z" fill="#000000" fill-rule="nonzero" fill-opacity="1" /><path clip-path="url(#clip350)" d="M144.098 507.401 L166.32 507.401 L166.32 509.392 L153.774 541.961 L148.89 541.961 L160.695 511.336 L144.098 511.336 L144.098 507.401 Z" fill="#000000" fill-rule="nonzero" fill-opacity="1" /><path clip-path="url(#clip350)" d="M175.44 536.081 L180.325 536.081 L180.325 541.961 L175.44 541.961 L175.44 536.081 Z" fill="#000000" fill-rule="nonzero" fill-opacity="1" /><path clip-path="url(#clip350)" d="M190.556 507.401 L208.912 507.401 L208.912 511.336 L194.838 511.336 L194.838 519.808 Q195.857 519.461 196.875 519.299 Q197.894 519.114 198.912 519.114 Q204.699 519.114 208.079 522.285 Q211.459 525.457 211.459 530.873 Q211.459 536.452 207.987 539.554 Q204.514 542.632 198.195 542.632 Q196.019 542.632 193.75 542.262 Q191.505 541.892 189.098 541.151 L189.098 536.452 Q191.181 537.586 193.403 538.142 Q195.625 538.697 198.102 538.697 Q202.107 538.697 204.445 536.591 Q206.783 534.484 206.783 530.873 Q206.783 527.262 204.445 525.156 Q202.107 523.049 198.102 523.049 Q196.227 523.049 194.352 523.466 Q192.5 523.882 190.556 524.762 L190.556 507.401 Z" fill="#000000" fill-rule="nonzero" fill-opacity="1" /><path clip-path="url(#clip350)" d="M114.931 270.531 L122.57 270.531 L122.57 244.165 L114.26 245.832 L114.26 241.573 L122.524 239.906 L127.2 239.906 L127.2 270.531 L134.839 270.531 L134.839 274.466 L114.931 274.466 L114.931 270.531 Z" fill="#000000" fill-rule="nonzero" fill-opacity="1" /><path clip-path="url(#clip350)" d="M154.283 242.985 Q150.672 242.985 148.843 246.55 Q147.038 250.091 147.038 257.221 Q147.038 264.327 148.843 267.892 Q150.672 271.434 154.283 271.434 Q157.917 271.434 159.723 267.892 Q161.552 264.327 161.552 257.221 Q161.552 250.091 159.723 246.55 Q157.917 242.985 154.283 242.985 M154.283 239.281 Q160.093 239.281 163.149 243.888 Q166.227 248.471 166.227 257.221 Q166.227 265.948 163.149 270.554 Q160.093 275.138 154.283 275.138 Q148.473 275.138 145.394 270.554 Q142.339 265.948 142.339 257.221 Q142.339 248.471 145.394 243.888 Q148.473 239.281 154.283 239.281 Z" fill="#000000" fill-rule="nonzero" fill-opacity="1" /><path clip-path="url(#clip350)" d="M174.445 268.587 L179.329 268.587 L179.329 274.466 L174.445 274.466 L174.445 268.587 Z" fill="#000000" fill-rule="nonzero" fill-opacity="1" /><path clip-path="url(#clip350)" d="M199.514 242.985 Q195.903 242.985 194.075 246.55 Q192.269 250.091 192.269 257.221 Q192.269 264.327 194.075 267.892 Q195.903 271.434 199.514 271.434 Q203.149 271.434 204.954 267.892 Q206.783 264.327 206.783 257.221 Q206.783 250.091 204.954 246.55 Q203.149 242.985 199.514 242.985 M199.514 239.281 Q205.324 239.281 208.38 243.888 Q211.459 248.471 211.459 257.221 Q211.459 265.948 208.38 270.554 Q205.324 275.138 199.514 275.138 Q193.704 275.138 190.625 270.554 Q187.57 265.948 187.57 257.221 Q187.57 248.471 190.625 243.888 Q193.704 239.281 199.514 239.281 Z" fill="#000000" fill-rule="nonzero" fill-opacity="1" /><path clip-path="url(#clip350)" d="M29.4065 801.463 L34.9447 801.463 Q33.6716 803.946 33.035 806.619 Q32.3984 809.293 32.3984 812.157 Q32.3984 816.518 33.7352 818.714 Q35.072 820.878 37.7456 820.878 Q39.7826 820.878 40.9603 819.319 Q42.1061 817.759 43.1565 813.049 L43.6021 811.043 Q44.9389 804.805 47.3897 802.195 Q49.8086 799.553 54.1691 799.553 Q59.1344 799.553 62.0308 803.5 Q64.9272 807.415 64.9272 814.29 Q64.9272 817.155 64.3543 820.274 Q63.8132 823.361 62.6992 826.799 L56.6518 826.799 Q58.3387 823.552 59.198 820.401 Q60.0256 817.25 60.0256 814.163 Q60.0256 810.025 58.6251 807.797 Q57.1929 805.569 54.6147 805.569 Q52.2276 805.569 50.9545 807.192 Q49.6813 808.784 48.5037 814.226 L48.0262 816.263 Q46.8804 821.706 44.5251 824.125 Q42.138 826.544 38.0002 826.544 Q32.9713 826.544 30.2341 822.979 Q27.4968 819.414 27.4968 812.858 Q27.4968 809.611 27.9743 806.747 Q28.4517 803.882 29.4065 801.463 Z" fill="#000000" fill-rule="nonzero" fill-opacity="1" /><path clip-path="url(#clip350)" d="M28.3562 790.228 L28.3562 784.371 L64.0042 784.371 L64.0042 790.228 L28.3562 790.228 M14.479 790.228 L14.479 784.371 L21.895 784.371 L21.895 790.228 L14.479 790.228 Z" fill="#000000" fill-rule="nonzero" fill-opacity="1" /><path clip-path="url(#clip350)" d="M45.7664 748.66 Q39.4007 748.66 35.8996 751.301 Q32.3984 753.911 32.3984 758.654 Q32.3984 763.364 35.8996 766.006 Q39.4007 768.616 45.7664 768.616 Q52.1003 768.616 55.6014 766.006 Q59.1026 763.364 59.1026 758.654 Q59.1026 753.911 55.6014 751.301 Q52.1003 748.66 45.7664 748.66 M59.58 742.803 Q68.683 742.803 73.1071 746.845 Q77.5631 750.888 77.5631 759.227 Q77.5631 762.314 77.0857 765.051 Q76.6401 767.788 75.6852 770.367 L69.9879 770.367 Q71.3884 767.788 72.0568 765.274 Q72.7252 762.76 72.7252 760.15 Q72.7252 754.389 69.7015 751.524 Q66.7096 748.66 60.6303 748.66 L57.7339 748.66 Q60.885 750.474 62.4446 753.306 Q64.0042 756.139 64.0042 760.086 Q64.0042 766.643 59.0071 770.653 Q54.01 774.663 45.7664 774.663 Q37.491 774.663 32.4939 770.653 Q27.4968 766.643 27.4968 760.086 Q27.4968 756.139 29.0564 753.306 Q30.616 750.474 33.7671 748.66 L28.3562 748.66 L28.3562 742.803 L59.58 742.803 Z" fill="#000000" fill-rule="nonzero" fill-opacity="1" /><path clip-path="url(#clip350)" d="M42.4881 701.108 L64.0042 701.108 L64.0042 706.964 L42.679 706.964 Q37.6183 706.964 35.1038 708.938 Q32.5894 710.911 32.5894 714.858 Q32.5894 719.6 35.6131 722.337 Q38.6368 725.075 43.8567 725.075 L64.0042 725.075 L64.0042 730.963 L28.3562 730.963 L28.3562 725.075 L33.8944 725.075 Q30.6797 722.974 29.0883 720.141 Q27.4968 717.277 27.4968 713.553 Q27.4968 707.41 31.3163 704.259 Q35.1038 701.108 42.4881 701.108 Z" fill="#000000" fill-rule="nonzero" fill-opacity="1" /><path clip-path="url(#clip350)" d="M46.0847 673.226 Q46.0847 680.324 47.7079 683.061 Q49.3312 685.798 53.2461 685.798 Q56.3653 685.798 58.2114 683.761 Q60.0256 681.692 60.0256 678.159 Q60.0256 673.29 56.5881 670.361 Q53.1188 667.401 47.3897 667.401 L46.0847 667.401 L46.0847 673.226 M43.6657 661.545 L64.0042 661.545 L64.0042 667.401 L58.5933 667.401 Q61.8398 669.406 63.3994 672.398 Q64.9272 675.39 64.9272 679.719 Q64.9272 685.193 61.8716 688.44 Q58.7843 691.655 53.6281 691.655 Q47.6125 691.655 44.5569 687.644 Q41.5014 683.602 41.5014 675.613 L41.5014 667.401 L40.9285 667.401 Q36.8862 667.401 34.6901 670.075 Q32.4621 672.717 32.4621 677.523 Q32.4621 680.578 33.1941 683.475 Q33.9262 686.371 35.3903 689.045 L29.9795 689.045 Q28.7381 685.83 28.1334 682.806 Q27.4968 679.783 27.4968 676.918 Q27.4968 669.184 31.5072 665.364 Q35.5176 661.545 43.6657 661.545 Z" fill="#000000" fill-rule="nonzero" fill-opacity="1" /><path clip-path="url(#clip350)" d="M14.479 649.482 L14.479 643.625 L64.0042 643.625 L64.0042 649.482 L14.479 649.482 Z" fill="#000000" fill-rule="nonzero" fill-opacity="1" /><circle clip-path="url(#clip352)" cx="307.043" cy="1220.17" r="14.4" fill="#009af9" fill-rule="evenodd" fill-opacity="1" stroke="#000000" stroke-opacity="1" stroke-width="3.2"/>
<circle clip-path="url(#clip352)" cx="515.73" cy="1113.17" r="14.4" fill="#009af9" fill-rule="evenodd" fill-opacity="1" stroke="#000000" stroke-opacity="1" stroke-width="3.2"/>
<circle clip-path="url(#clip352)" cx="523.874" cy="1113.17" r="14.4" fill="#009af9" fill-rule="evenodd" fill-opacity="1" stroke="#000000" stroke-opacity="1" stroke-width="3.2"/>
<circle clip-path="url(#clip352)" cx="630.142" cy="1006.17" r="14.4" fill="#009af9" fill-rule="evenodd" fill-opacity="1" stroke="#000000" stroke-opacity="1" stroke-width="3.2"/>
<circle clip-path="url(#clip352)" cx="837.197" cy="899.174" r="14.4" fill="#009af9" fill-rule="evenodd" fill-opacity="1" stroke="#000000" stroke-opacity="1" stroke-width="3.2"/>
<circle clip-path="url(#clip352)" cx="854.008" cy="899.174" r="14.4" fill="#009af9" fill-rule="evenodd" fill-opacity="1" stroke="#000000" stroke-opacity="1" stroke-width="3.2"/>
<circle clip-path="url(#clip352)" cx="1085.94" cy="792.176" r="14.4" fill="#009af9" fill-rule="evenodd" fill-opacity="1" stroke="#000000" stroke-opacity="1" stroke-width="3.2"/>
<circle clip-path="url(#clip352)" cx="1262.78" cy="685.178" r="14.4" fill="#009af9" fill-rule="evenodd" fill-opacity="1" stroke="#000000" stroke-opacity="1" stroke-width="3.2"/>
<circle clip-path="url(#clip352)" cx="1317.2" cy="685.178" r="14.4" fill="#009af9" fill-rule="evenodd" fill-opacity="1" stroke="#000000" stroke-opacity="1" stroke-width="3.2"/>
<circle clip-path="url(#clip352)" cx="2293.17" cy="364.184" r="14.4" fill="#009af9" fill-rule="evenodd" fill-opacity="1" stroke="#000000" stroke-opacity="1" stroke-width="3.2"/>
<polyline clip-path="url(#clip352)" style="stroke:#e26f46; stroke-linecap:round; stroke-linejoin:round; stroke-width:4; stroke-opacity:1; fill:none" points="307.043,1165.74 515.73,1074.08 523.874,1070.51 630.142,1023.83 837.197,932.898 854.008,925.514 1085.94,823.653 1262.78,745.986 1317.2,722.083 2293.17,293.443 "/>
<polyline clip-path="url(#clip352)" style="stroke:#3da44d; stroke-linecap:round; stroke-linejoin:round; stroke-width:12; stroke-opacity:1; fill:none" stroke-dasharray="6, 12" points="307.043,1384.24 515.73,1247.85 523.874,1242.53 630.142,1173.07 837.197,1037.75 854.008,1026.76 1085.94,875.185 1262.78,759.61 1317.2,724.04 2293.17,86.1857 "/>
<path clip-path="url(#clip350)" d="M317.635 300.469 L1198.65 300.469 L1198.65 93.1086 L317.635 93.1086  Z" fill="#ffffff" fill-rule="evenodd" fill-opacity="1"/>
<polyline clip-path="url(#clip350)" style="stroke:#000000; stroke-linecap:round; stroke-linejoin:round; stroke-width:4; stroke-opacity:1; fill:none" points="317.635,300.469 1198.65,300.469 1198.65,93.1086 317.635,93.1086 317.635,300.469 "/>
<circle clip-path="url(#clip350)" cx="411.204" cy="144.949" r="20.48" fill="#009af9" fill-rule="evenodd" fill-opacity="1" stroke="#000000" stroke-opacity="1" stroke-width="4.55111"/>
<path clip-path="url(#clip350)" d="M525.12 141.28 Q526.717 138.409 528.939 137.044 Q531.162 135.678 534.171 135.678 Q538.222 135.678 540.421 138.525 Q542.62 141.349 542.62 146.581 L542.62 162.229 L538.337 162.229 L538.337 146.719 Q538.337 142.993 537.018 141.187 Q535.699 139.382 532.99 139.382 Q529.68 139.382 527.759 141.581 Q525.838 143.78 525.838 147.576 L525.838 162.229 L521.555 162.229 L521.555 146.719 Q521.555 142.969 520.236 141.187 Q518.916 139.382 516.162 139.382 Q512.898 139.382 510.976 141.604 Q509.055 143.803 509.055 147.576 L509.055 162.229 L504.773 162.229 L504.773 136.303 L509.055 136.303 L509.055 140.331 Q510.514 137.946 512.551 136.812 Q514.588 135.678 517.388 135.678 Q520.213 135.678 522.18 137.113 Q524.171 138.548 525.12 141.28 Z" fill="#000000" fill-rule="nonzero" fill-opacity="1" /><path clip-path="url(#clip350)" d="M573.291 148.201 L573.291 150.284 L553.708 150.284 Q553.986 154.682 556.347 156.997 Q558.731 159.289 562.967 159.289 Q565.421 159.289 567.712 158.687 Q570.027 158.085 572.296 156.881 L572.296 160.909 Q570.004 161.881 567.597 162.391 Q565.189 162.9 562.712 162.9 Q556.509 162.9 552.874 159.289 Q549.263 155.678 549.263 149.52 Q549.263 143.155 552.689 139.428 Q556.138 135.678 561.972 135.678 Q567.203 135.678 570.235 139.057 Q573.291 142.414 573.291 148.201 M569.032 146.951 Q568.985 143.456 567.064 141.372 Q565.166 139.289 562.018 139.289 Q558.453 139.289 556.3 141.303 Q554.171 143.317 553.847 146.974 L569.032 146.951 Z" fill="#000000" fill-rule="nonzero" fill-opacity="1" /><path clip-path="url(#clip350)" d="M592.064 149.196 Q586.902 149.196 584.911 150.377 Q582.921 151.557 582.921 154.405 Q582.921 156.673 584.402 158.016 Q585.907 159.335 588.476 159.335 Q592.018 159.335 594.147 156.835 Q596.3 154.312 596.3 150.145 L596.3 149.196 L592.064 149.196 M600.559 147.437 L600.559 162.229 L596.3 162.229 L596.3 158.293 Q594.842 160.655 592.666 161.789 Q590.49 162.9 587.342 162.9 Q583.36 162.9 580.999 160.678 Q578.661 158.432 578.661 154.682 Q578.661 150.307 581.578 148.085 Q584.518 145.863 590.328 145.863 L596.3 145.863 L596.3 145.446 Q596.3 142.507 594.356 140.909 Q592.434 139.289 588.939 139.289 Q586.717 139.289 584.61 139.821 Q582.504 140.354 580.559 141.419 L580.559 137.483 Q582.897 136.581 585.096 136.141 Q587.296 135.678 589.379 135.678 Q595.004 135.678 597.782 138.594 Q600.559 141.511 600.559 147.437 Z" fill="#000000" fill-rule="nonzero" fill-opacity="1" /><path clip-path="url(#clip350)" d="M625.86 137.067 L625.86 141.094 Q624.055 140.169 622.11 139.706 Q620.166 139.243 618.082 139.243 Q614.911 139.243 613.314 140.215 Q611.74 141.187 611.74 143.131 Q611.74 144.613 612.874 145.469 Q614.008 146.303 617.434 147.067 L618.893 147.391 Q623.43 148.363 625.328 150.145 Q627.249 151.905 627.249 155.076 Q627.249 158.687 624.379 160.793 Q621.531 162.9 616.531 162.9 Q614.448 162.9 612.18 162.483 Q609.934 162.09 607.434 161.28 L607.434 156.881 Q609.795 158.108 612.087 158.733 Q614.379 159.335 616.624 159.335 Q619.633 159.335 621.254 158.317 Q622.874 157.275 622.874 155.4 Q622.874 153.664 621.693 152.738 Q620.536 151.812 616.578 150.956 L615.096 150.608 Q611.138 149.775 609.379 148.062 Q607.619 146.326 607.619 143.317 Q607.619 139.659 610.212 137.669 Q612.805 135.678 617.573 135.678 Q619.934 135.678 622.018 136.025 Q624.101 136.372 625.86 137.067 Z" fill="#000000" fill-rule="nonzero" fill-opacity="1" /><path clip-path="url(#clip350)" d="M633.592 151.997 L633.592 136.303 L637.851 136.303 L637.851 151.835 Q637.851 155.516 639.286 157.368 Q640.721 159.196 643.592 159.196 Q647.041 159.196 649.031 156.997 Q651.045 154.798 651.045 151.002 L651.045 136.303 L655.304 136.303 L655.304 162.229 L651.045 162.229 L651.045 158.247 Q649.494 160.608 647.434 161.766 Q645.397 162.9 642.689 162.9 Q638.221 162.9 635.906 160.122 Q633.592 157.344 633.592 151.997 M644.309 135.678 L644.309 135.678 Z" fill="#000000" fill-rule="nonzero" fill-opacity="1" /><path clip-path="url(#clip350)" d="M679.101 140.284 Q678.383 139.868 677.527 139.682 Q676.693 139.474 675.675 139.474 Q672.064 139.474 670.119 141.835 Q668.198 144.173 668.198 148.571 L668.198 162.229 L663.915 162.229 L663.915 136.303 L668.198 136.303 L668.198 140.331 Q669.54 137.969 671.693 136.835 Q673.846 135.678 676.925 135.678 Q677.364 135.678 677.897 135.747 Q678.429 135.794 679.077 135.909 L679.101 140.284 Z" fill="#000000" fill-rule="nonzero" fill-opacity="1" /><path clip-path="url(#clip350)" d="M704.702 148.201 L704.702 150.284 L685.119 150.284 Q685.397 154.682 687.758 156.997 Q690.142 159.289 694.378 159.289 Q696.832 159.289 699.124 158.687 Q701.438 158.085 703.707 156.881 L703.707 160.909 Q701.415 161.881 699.008 162.391 Q696.6 162.9 694.124 162.9 Q687.92 162.9 684.286 159.289 Q680.675 155.678 680.675 149.52 Q680.675 143.155 684.101 139.428 Q687.55 135.678 693.383 135.678 Q698.614 135.678 701.647 139.057 Q704.702 142.414 704.702 148.201 M700.443 146.951 Q700.397 143.456 698.475 141.372 Q696.577 139.289 693.429 139.289 Q689.864 139.289 687.712 141.303 Q685.582 143.317 685.258 146.974 L700.443 146.951 Z" fill="#000000" fill-rule="nonzero" fill-opacity="1" /><path clip-path="url(#clip350)" d="M728.753 140.238 L728.753 126.21 L733.012 126.21 L733.012 162.229 L728.753 162.229 L728.753 158.34 Q727.411 160.655 725.35 161.789 Q723.313 162.9 720.443 162.9 Q715.744 162.9 712.781 159.15 Q709.841 155.4 709.841 149.289 Q709.841 143.178 712.781 139.428 Q715.744 135.678 720.443 135.678 Q723.313 135.678 725.35 136.812 Q727.411 137.923 728.753 140.238 M714.239 149.289 Q714.239 153.988 716.161 156.673 Q718.105 159.335 721.485 159.335 Q724.864 159.335 726.809 156.673 Q728.753 153.988 728.753 149.289 Q728.753 144.59 726.809 141.928 Q724.864 139.243 721.485 139.243 Q718.105 139.243 716.161 141.928 Q714.239 144.59 714.239 149.289 Z" fill="#000000" fill-rule="nonzero" fill-opacity="1" /><path clip-path="url(#clip350)" d="M773.915 140.238 L773.915 126.21 L778.174 126.21 L778.174 162.229 L773.915 162.229 L773.915 158.34 Q772.572 160.655 770.512 161.789 Q768.475 162.9 765.605 162.9 Q760.906 162.9 757.943 159.15 Q755.003 155.4 755.003 149.289 Q755.003 143.178 757.943 139.428 Q760.906 135.678 765.605 135.678 Q768.475 135.678 770.512 136.812 Q772.572 137.923 773.915 140.238 M759.401 149.289 Q759.401 153.988 761.322 156.673 Q763.267 159.335 766.646 159.335 Q770.026 159.335 771.97 156.673 Q773.915 153.988 773.915 149.289 Q773.915 144.59 771.97 141.928 Q770.026 139.243 766.646 139.243 Q763.267 139.243 761.322 141.928 Q759.401 144.59 759.401 149.289 Z" fill="#000000" fill-rule="nonzero" fill-opacity="1" /><path clip-path="url(#clip350)" d="M798.73 149.196 Q793.568 149.196 791.577 150.377 Q789.586 151.557 789.586 154.405 Q789.586 156.673 791.068 158.016 Q792.572 159.335 795.142 159.335 Q798.683 159.335 800.813 156.835 Q802.966 154.312 802.966 150.145 L802.966 149.196 L798.73 149.196 M807.225 147.437 L807.225 162.229 L802.966 162.229 L802.966 158.293 Q801.507 160.655 799.331 161.789 Q797.156 162.9 794.007 162.9 Q790.026 162.9 787.665 160.678 Q785.327 158.432 785.327 154.682 Q785.327 150.307 788.244 148.085 Q791.183 145.863 796.993 145.863 L802.966 145.863 L802.966 145.446 Q802.966 142.507 801.021 140.909 Q799.1 139.289 795.605 139.289 Q793.382 139.289 791.276 139.821 Q789.169 140.354 787.225 141.419 L787.225 137.483 Q789.563 136.581 791.762 136.141 Q793.961 135.678 796.044 135.678 Q801.669 135.678 804.447 138.594 Q807.225 141.511 807.225 147.437 Z" fill="#000000" fill-rule="nonzero" fill-opacity="1" /><path clip-path="url(#clip350)" d="M820.211 128.942 L820.211 136.303 L828.984 136.303 L828.984 139.613 L820.211 139.613 L820.211 153.687 Q820.211 156.858 821.067 157.761 Q821.947 158.664 824.609 158.664 L828.984 158.664 L828.984 162.229 L824.609 162.229 Q819.679 162.229 817.804 160.4 Q815.929 158.548 815.929 153.687 L815.929 139.613 L812.804 139.613 L812.804 136.303 L815.929 136.303 L815.929 128.942 L820.211 128.942 Z" fill="#000000" fill-rule="nonzero" fill-opacity="1" /><path clip-path="url(#clip350)" d="M846.368 149.196 Q841.206 149.196 839.215 150.377 Q837.225 151.557 837.225 154.405 Q837.225 156.673 838.706 158.016 Q840.211 159.335 842.78 159.335 Q846.322 159.335 848.452 156.835 Q850.604 154.312 850.604 150.145 L850.604 149.196 L846.368 149.196 M854.864 147.437 L854.864 162.229 L850.604 162.229 L850.604 158.293 Q849.146 160.655 846.97 161.789 Q844.794 162.9 841.646 162.9 Q837.665 162.9 835.303 160.678 Q832.965 158.432 832.965 154.682 Q832.965 150.307 835.882 148.085 Q838.822 145.863 844.632 145.863 L850.604 145.863 L850.604 145.446 Q850.604 142.507 848.66 140.909 Q846.739 139.289 843.243 139.289 Q841.021 139.289 838.915 139.821 Q836.808 140.354 834.864 141.419 L834.864 137.483 Q837.202 136.581 839.401 136.141 Q841.6 135.678 843.683 135.678 Q849.308 135.678 852.086 138.594 Q854.864 141.511 854.864 147.437 Z" fill="#000000" fill-rule="nonzero" fill-opacity="1" /><polyline clip-path="url(#clip350)" style="stroke:#e26f46; stroke-linecap:round; stroke-linejoin:round; stroke-width:4; stroke-opacity:1; fill:none" points="341.027,196.789 481.381,196.789 "/>
<path clip-path="url(#clip350)" d="M518.176 201.036 Q513.014 201.036 511.023 202.217 Q509.032 203.397 509.032 206.245 Q509.032 208.513 510.514 209.856 Q512.018 211.175 514.588 211.175 Q518.129 211.175 520.259 208.675 Q522.412 206.152 522.412 201.985 L522.412 201.036 L518.176 201.036 M526.671 199.277 L526.671 214.069 L522.412 214.069 L522.412 210.133 Q520.953 212.495 518.777 213.629 Q516.601 214.74 513.453 214.74 Q509.472 214.74 507.111 212.518 Q504.773 210.272 504.773 206.522 Q504.773 202.147 507.689 199.925 Q510.629 197.703 516.439 197.703 L522.412 197.703 L522.412 197.286 Q522.412 194.347 520.467 192.749 Q518.546 191.129 515.051 191.129 Q512.828 191.129 510.722 191.661 Q508.615 192.194 506.671 193.259 L506.671 189.323 Q509.009 188.421 511.208 187.981 Q513.407 187.518 515.49 187.518 Q521.115 187.518 523.893 190.434 Q526.671 193.351 526.671 199.277 Z" fill="#000000" fill-rule="nonzero" fill-opacity="1" /><path clip-path="url(#clip350)" d="M556.995 198.421 L556.995 214.069 L552.736 214.069 L552.736 198.559 Q552.736 194.879 551.3 193.05 Q549.865 191.222 546.995 191.222 Q543.546 191.222 541.555 193.421 Q539.564 195.62 539.564 199.416 L539.564 214.069 L535.282 214.069 L535.282 188.143 L539.564 188.143 L539.564 192.171 Q541.092 189.833 543.152 188.675 Q545.236 187.518 547.944 187.518 Q552.411 187.518 554.703 190.296 Q556.995 193.05 556.995 198.421 Z" fill="#000000" fill-rule="nonzero" fill-opacity="1" /><path clip-path="url(#clip350)" d="M577.272 201.036 Q572.11 201.036 570.12 202.217 Q568.129 203.397 568.129 206.245 Q568.129 208.513 569.61 209.856 Q571.115 211.175 573.684 211.175 Q577.226 211.175 579.356 208.675 Q581.509 206.152 581.509 201.985 L581.509 201.036 L577.272 201.036 M585.768 199.277 L585.768 214.069 L581.509 214.069 L581.509 210.133 Q580.05 212.495 577.874 213.629 Q575.698 214.74 572.55 214.74 Q568.569 214.74 566.208 212.518 Q563.87 210.272 563.87 206.522 Q563.87 202.147 566.786 199.925 Q569.726 197.703 575.536 197.703 L581.509 197.703 L581.509 197.286 Q581.509 194.347 579.564 192.749 Q577.643 191.129 574.147 191.129 Q571.925 191.129 569.819 191.661 Q567.712 192.194 565.768 193.259 L565.768 189.323 Q568.106 188.421 570.305 187.981 Q572.504 187.518 574.587 187.518 Q580.212 187.518 582.99 190.434 Q585.768 193.351 585.768 199.277 Z" fill="#000000" fill-rule="nonzero" fill-opacity="1" /><path clip-path="url(#clip350)" d="M594.541 178.05 L598.8 178.05 L598.8 214.069 L594.541 214.069 L594.541 178.05 Z" fill="#000000" fill-rule="nonzero" fill-opacity="1" /><path clip-path="url(#clip350)" d="M618.499 216.476 Q616.694 221.106 614.981 222.518 Q613.268 223.93 610.397 223.93 L606.994 223.93 L606.994 220.365 L609.494 220.365 Q611.254 220.365 612.226 219.532 Q613.198 218.698 614.379 215.596 L615.143 213.652 L604.657 188.143 L609.17 188.143 L617.272 208.421 L625.374 188.143 L629.888 188.143 L618.499 216.476 Z" fill="#000000" fill-rule="nonzero" fill-opacity="1" /><path clip-path="url(#clip350)" d="M639.98 180.782 L639.98 188.143 L648.754 188.143 L648.754 191.453 L639.98 191.453 L639.98 205.527 Q639.98 208.698 640.837 209.601 Q641.717 210.504 644.379 210.504 L648.754 210.504 L648.754 214.069 L644.379 214.069 Q639.448 214.069 637.573 212.24 Q635.698 210.388 635.698 205.527 L635.698 191.453 L632.573 191.453 L632.573 188.143 L635.698 188.143 L635.698 180.782 L639.98 180.782 Z" fill="#000000" fill-rule="nonzero" fill-opacity="1" /><path clip-path="url(#clip350)" d="M654.355 188.143 L658.615 188.143 L658.615 214.069 L654.355 214.069 L654.355 188.143 M654.355 178.05 L658.615 178.05 L658.615 183.444 L654.355 183.444 L654.355 178.05 Z" fill="#000000" fill-rule="nonzero" fill-opacity="1" /><path clip-path="url(#clip350)" d="M686.184 189.138 L686.184 193.12 Q684.378 192.124 682.55 191.638 Q680.744 191.129 678.892 191.129 Q674.749 191.129 672.457 193.768 Q670.165 196.384 670.165 201.129 Q670.165 205.874 672.457 208.513 Q674.749 211.129 678.892 211.129 Q680.744 211.129 682.55 210.643 Q684.378 210.133 686.184 209.138 L686.184 213.073 Q684.401 213.907 682.48 214.323 Q680.582 214.74 678.429 214.74 Q672.573 214.74 669.124 211.059 Q665.675 207.379 665.675 201.129 Q665.675 194.786 669.147 191.152 Q672.642 187.518 678.707 187.518 Q680.675 187.518 682.55 187.935 Q684.425 188.328 686.184 189.138 Z" fill="#000000" fill-rule="nonzero" fill-opacity="1" /><path clip-path="url(#clip350)" d="M705.374 201.036 Q700.212 201.036 698.221 202.217 Q696.23 203.397 696.23 206.245 Q696.23 208.513 697.712 209.856 Q699.216 211.175 701.786 211.175 Q705.327 211.175 707.457 208.675 Q709.61 206.152 709.61 201.985 L709.61 201.036 L705.374 201.036 M713.869 199.277 L713.869 214.069 L709.61 214.069 L709.61 210.133 Q708.151 212.495 705.975 213.629 Q703.8 214.74 700.651 214.74 Q696.67 214.74 694.309 212.518 Q691.971 210.272 691.971 206.522 Q691.971 202.147 694.888 199.925 Q697.827 197.703 703.637 197.703 L709.61 197.703 L709.61 197.286 Q709.61 194.347 707.665 192.749 Q705.744 191.129 702.249 191.129 Q700.026 191.129 697.92 191.661 Q695.813 192.194 693.869 193.259 L693.869 189.323 Q696.207 188.421 698.406 187.981 Q700.605 187.518 702.688 187.518 Q708.313 187.518 711.091 190.434 Q713.869 193.351 713.869 199.277 Z" fill="#000000" fill-rule="nonzero" fill-opacity="1" /><path clip-path="url(#clip350)" d="M722.642 178.05 L726.901 178.05 L726.901 214.069 L722.642 214.069 L722.642 178.05 Z" fill="#000000" fill-rule="nonzero" fill-opacity="1" /><path clip-path="url(#clip350)" d="M771.068 193.12 Q772.665 190.249 774.887 188.884 Q777.109 187.518 780.119 187.518 Q784.169 187.518 786.369 190.365 Q788.568 193.189 788.568 198.421 L788.568 214.069 L784.285 214.069 L784.285 198.559 Q784.285 194.833 782.966 193.027 Q781.646 191.222 778.938 191.222 Q775.628 191.222 773.707 193.421 Q771.785 195.62 771.785 199.416 L771.785 214.069 L767.503 214.069 L767.503 198.559 Q767.503 194.809 766.183 193.027 Q764.864 191.222 762.109 191.222 Q758.846 191.222 756.924 193.444 Q755.003 195.643 755.003 199.416 L755.003 214.069 L750.721 214.069 L750.721 188.143 L755.003 188.143 L755.003 192.171 Q756.461 189.786 758.498 188.652 Q760.535 187.518 763.336 187.518 Q766.16 187.518 768.128 188.953 Q770.119 190.388 771.068 193.12 Z" fill="#000000" fill-rule="nonzero" fill-opacity="1" /><path clip-path="url(#clip350)" d="M807.109 191.129 Q803.683 191.129 801.693 193.814 Q799.702 196.476 799.702 201.129 Q799.702 205.782 801.669 208.467 Q803.66 211.129 807.109 211.129 Q810.512 211.129 812.503 208.444 Q814.493 205.758 814.493 201.129 Q814.493 196.522 812.503 193.837 Q810.512 191.129 807.109 191.129 M807.109 187.518 Q812.665 187.518 815.836 191.129 Q819.007 194.74 819.007 201.129 Q819.007 207.495 815.836 211.129 Q812.665 214.74 807.109 214.74 Q801.53 214.74 798.359 211.129 Q795.211 207.495 795.211 201.129 Q795.211 194.74 798.359 191.129 Q801.53 187.518 807.109 187.518 Z" fill="#000000" fill-rule="nonzero" fill-opacity="1" /><path clip-path="url(#clip350)" d="M843.127 192.078 L843.127 178.05 L847.387 178.05 L847.387 214.069 L843.127 214.069 L843.127 210.18 Q841.785 212.495 839.725 213.629 Q837.688 214.74 834.817 214.74 Q830.118 214.74 827.155 210.99 Q824.216 207.24 824.216 201.129 Q824.216 195.018 827.155 191.268 Q830.118 187.518 834.817 187.518 Q837.688 187.518 839.725 188.652 Q841.785 189.763 843.127 192.078 M828.614 201.129 Q828.614 205.828 830.535 208.513 Q832.479 211.175 835.859 211.175 Q839.239 211.175 841.183 208.513 Q843.127 205.828 843.127 201.129 Q843.127 196.43 841.183 193.768 Q839.239 191.083 835.859 191.083 Q832.479 191.083 830.535 193.768 Q828.614 196.43 828.614 201.129 Z" fill="#000000" fill-rule="nonzero" fill-opacity="1" /><path clip-path="url(#clip350)" d="M878.336 200.041 L878.336 202.124 L858.752 202.124 Q859.03 206.522 861.391 208.837 Q863.776 211.129 868.012 211.129 Q870.465 211.129 872.757 210.527 Q875.072 209.925 877.34 208.721 L877.34 212.749 Q875.049 213.721 872.641 214.231 Q870.234 214.74 867.757 214.74 Q861.553 214.74 857.919 211.129 Q854.308 207.518 854.308 201.36 Q854.308 194.995 857.734 191.268 Q861.183 187.518 867.016 187.518 Q872.248 187.518 875.28 190.897 Q878.336 194.254 878.336 200.041 M874.076 198.791 Q874.03 195.296 872.109 193.212 Q870.211 191.129 867.063 191.129 Q863.498 191.129 861.345 193.143 Q859.215 195.157 858.891 198.814 L874.076 198.791 Z" fill="#000000" fill-rule="nonzero" fill-opacity="1" /><path clip-path="url(#clip350)" d="M885.326 178.05 L889.586 178.05 L889.586 214.069 L885.326 214.069 L885.326 178.05 Z" fill="#000000" fill-rule="nonzero" fill-opacity="1" /><polyline clip-path="url(#clip350)" style="stroke:#3da44d; stroke-linecap:round; stroke-linejoin:round; stroke-width:12; stroke-opacity:1; fill:none" stroke-dasharray="6, 12" points="341.027,248.629 481.381,248.629 "/>
<path clip-path="url(#clip350)" d="M526.486 250.261 L526.486 265.909 L522.226 265.909 L522.226 250.399 Q522.226 246.719 520.791 244.89 Q519.356 243.062 516.486 243.062 Q513.037 243.062 511.046 245.261 Q509.055 247.46 509.055 251.256 L509.055 265.909 L504.773 265.909 L504.773 239.983 L509.055 239.983 L509.055 244.011 Q510.583 241.673 512.643 240.515 Q514.726 239.358 517.435 239.358 Q521.902 239.358 524.194 242.136 Q526.486 244.89 526.486 250.261 Z" fill="#000000" fill-rule="nonzero" fill-opacity="1" /><path clip-path="url(#clip350)" d="M534.541 255.677 L534.541 239.983 L538.8 239.983 L538.8 255.515 Q538.8 259.196 540.236 261.048 Q541.671 262.876 544.541 262.876 Q547.99 262.876 549.981 260.677 Q551.995 258.478 551.995 254.682 L551.995 239.983 L556.254 239.983 L556.254 265.909 L551.995 265.909 L551.995 261.927 Q550.444 264.288 548.384 265.446 Q546.347 266.58 543.638 266.58 Q539.171 266.58 536.856 263.802 Q534.541 261.024 534.541 255.677 M545.259 239.358 L545.259 239.358 Z" fill="#000000" fill-rule="nonzero" fill-opacity="1" /><path clip-path="url(#clip350)" d="M585.212 244.96 Q586.809 242.089 589.032 240.724 Q591.254 239.358 594.263 239.358 Q598.314 239.358 600.513 242.205 Q602.712 245.029 602.712 250.261 L602.712 265.909 L598.43 265.909 L598.43 250.399 Q598.43 246.673 597.11 244.867 Q595.791 243.062 593.083 243.062 Q589.772 243.062 587.851 245.261 Q585.93 247.46 585.93 251.256 L585.93 265.909 L581.647 265.909 L581.647 250.399 Q581.647 246.649 580.328 244.867 Q579.009 243.062 576.254 243.062 Q572.99 243.062 571.069 245.284 Q569.147 247.483 569.147 251.256 L569.147 265.909 L564.865 265.909 L564.865 239.983 L569.147 239.983 L569.147 244.011 Q570.606 241.626 572.643 240.492 Q574.68 239.358 577.481 239.358 Q580.305 239.358 582.272 240.793 Q584.263 242.228 585.212 244.96 Z" fill="#000000" fill-rule="nonzero" fill-opacity="1" /><path clip-path="url(#clip350)" d="M633.383 251.881 L633.383 253.964 L613.8 253.964 Q614.078 258.362 616.439 260.677 Q618.823 262.969 623.059 262.969 Q625.513 262.969 627.805 262.367 Q630.119 261.765 632.388 260.561 L632.388 264.589 Q630.096 265.561 627.689 266.071 Q625.281 266.58 622.805 266.58 Q616.601 266.58 612.967 262.969 Q609.356 259.358 609.356 253.2 Q609.356 246.835 612.781 243.108 Q616.231 239.358 622.064 239.358 Q627.295 239.358 630.328 242.737 Q633.383 246.094 633.383 251.881 M629.124 250.631 Q629.078 247.136 627.156 245.052 Q625.258 242.969 622.11 242.969 Q618.545 242.969 616.393 244.983 Q614.263 246.997 613.939 250.654 L629.124 250.631 Z" fill="#000000" fill-rule="nonzero" fill-opacity="1" /><path clip-path="url(#clip350)" d="M655.397 243.964 Q654.679 243.548 653.823 243.362 Q652.99 243.154 651.971 243.154 Q648.36 243.154 646.416 245.515 Q644.494 247.853 644.494 252.251 L644.494 265.909 L640.212 265.909 L640.212 239.983 L644.494 239.983 L644.494 244.011 Q645.837 241.649 647.99 240.515 Q650.142 239.358 653.221 239.358 Q653.661 239.358 654.193 239.427 Q654.726 239.474 655.374 239.589 L655.397 243.964 Z" fill="#000000" fill-rule="nonzero" fill-opacity="1" /><path clip-path="url(#clip350)" d="M659.865 239.983 L664.124 239.983 L664.124 265.909 L659.865 265.909 L659.865 239.983 M659.865 229.89 L664.124 229.89 L664.124 235.284 L659.865 235.284 L659.865 229.89 Z" fill="#000000" fill-rule="nonzero" fill-opacity="1" /><path clip-path="url(#clip350)" d="M691.693 240.978 L691.693 244.96 Q689.888 243.964 688.059 243.478 Q686.253 242.969 684.401 242.969 Q680.258 242.969 677.966 245.608 Q675.675 248.224 675.675 252.969 Q675.675 257.714 677.966 260.353 Q680.258 262.969 684.401 262.969 Q686.253 262.969 688.059 262.483 Q689.888 261.973 691.693 260.978 L691.693 264.913 Q689.911 265.747 687.989 266.163 Q686.091 266.58 683.939 266.58 Q678.082 266.58 674.633 262.899 Q671.184 259.219 671.184 252.969 Q671.184 246.626 674.656 242.992 Q678.152 239.358 684.216 239.358 Q686.184 239.358 688.059 239.775 Q689.934 240.168 691.693 240.978 Z" fill="#000000" fill-rule="nonzero" fill-opacity="1" /><path clip-path="url(#clip350)" d="M710.883 252.876 Q705.721 252.876 703.73 254.057 Q701.739 255.237 701.739 258.085 Q701.739 260.353 703.221 261.696 Q704.725 263.015 707.295 263.015 Q710.837 263.015 712.966 260.515 Q715.119 257.992 715.119 253.825 L715.119 252.876 L710.883 252.876 M719.378 251.117 L719.378 265.909 L715.119 265.909 L715.119 261.973 Q713.661 264.335 711.485 265.469 Q709.309 266.58 706.161 266.58 Q702.179 266.58 699.818 264.358 Q697.48 262.112 697.48 258.362 Q697.48 253.987 700.397 251.765 Q703.337 249.543 709.147 249.543 L715.119 249.543 L715.119 249.126 Q715.119 246.187 713.174 244.589 Q711.253 242.969 707.758 242.969 Q705.536 242.969 703.429 243.501 Q701.323 244.034 699.378 245.099 L699.378 241.163 Q701.716 240.261 703.915 239.821 Q706.114 239.358 708.198 239.358 Q713.823 239.358 716.6 242.274 Q719.378 245.191 719.378 251.117 Z" fill="#000000" fill-rule="nonzero" fill-opacity="1" /><path clip-path="url(#clip350)" d="M728.151 229.89 L732.41 229.89 L732.41 265.909 L728.151 265.909 L728.151 229.89 Z" fill="#000000" fill-rule="nonzero" fill-opacity="1" /><path clip-path="url(#clip350)" d="M776.577 244.96 Q778.174 242.089 780.396 240.724 Q782.619 239.358 785.628 239.358 Q789.679 239.358 791.878 242.205 Q794.077 245.029 794.077 250.261 L794.077 265.909 L789.794 265.909 L789.794 250.399 Q789.794 246.673 788.475 244.867 Q787.156 243.062 784.447 243.062 Q781.137 243.062 779.216 245.261 Q777.295 247.46 777.295 251.256 L777.295 265.909 L773.012 265.909 L773.012 250.399 Q773.012 246.649 771.693 244.867 Q770.373 243.062 767.619 243.062 Q764.355 243.062 762.433 245.284 Q760.512 247.483 760.512 251.256 L760.512 265.909 L756.23 265.909 L756.23 239.983 L760.512 239.983 L760.512 244.011 Q761.971 241.626 764.008 240.492 Q766.045 239.358 768.845 239.358 Q771.67 239.358 773.637 240.793 Q775.628 242.228 776.577 244.96 Z" fill="#000000" fill-rule="nonzero" fill-opacity="1" /><path clip-path="url(#clip350)" d="M812.618 242.969 Q809.192 242.969 807.202 245.654 Q805.211 248.316 805.211 252.969 Q805.211 257.622 807.179 260.307 Q809.169 262.969 812.618 262.969 Q816.021 262.969 818.012 260.284 Q820.003 257.598 820.003 252.969 Q820.003 248.362 818.012 245.677 Q816.021 242.969 812.618 242.969 M812.618 239.358 Q818.174 239.358 821.345 242.969 Q824.516 246.58 824.516 252.969 Q824.516 259.335 821.345 262.969 Q818.174 266.58 812.618 266.58 Q807.04 266.58 803.868 262.969 Q800.72 259.335 800.72 252.969 Q800.72 246.58 803.868 242.969 Q807.04 239.358 812.618 239.358 Z" fill="#000000" fill-rule="nonzero" fill-opacity="1" /><path clip-path="url(#clip350)" d="M848.637 243.918 L848.637 229.89 L852.896 229.89 L852.896 265.909 L848.637 265.909 L848.637 262.02 Q847.294 264.335 845.234 265.469 Q843.197 266.58 840.327 266.58 Q835.628 266.58 832.665 262.83 Q829.725 259.08 829.725 252.969 Q829.725 246.858 832.665 243.108 Q835.628 239.358 840.327 239.358 Q843.197 239.358 845.234 240.492 Q847.294 241.603 848.637 243.918 M834.123 252.969 Q834.123 257.668 836.044 260.353 Q837.989 263.015 841.368 263.015 Q844.748 263.015 846.692 260.353 Q848.637 257.668 848.637 252.969 Q848.637 248.27 846.692 245.608 Q844.748 242.923 841.368 242.923 Q837.989 242.923 836.044 245.608 Q834.123 248.27 834.123 252.969 Z" fill="#000000" fill-rule="nonzero" fill-opacity="1" /><path clip-path="url(#clip350)" d="M883.845 251.881 L883.845 253.964 L864.262 253.964 Q864.539 258.362 866.901 260.677 Q869.285 262.969 873.521 262.969 Q875.975 262.969 878.266 262.367 Q880.581 261.765 882.849 260.561 L882.849 264.589 Q880.558 265.561 878.15 266.071 Q875.743 266.58 873.266 266.58 Q867.063 266.58 863.428 262.969 Q859.817 259.358 859.817 253.2 Q859.817 246.835 863.243 243.108 Q866.692 239.358 872.525 239.358 Q877.757 239.358 880.789 242.737 Q883.845 246.094 883.845 251.881 M879.586 250.631 Q879.539 247.136 877.618 245.052 Q875.72 242.969 872.572 242.969 Q869.007 242.969 866.854 244.983 Q864.725 246.997 864.401 250.654 L879.586 250.631 Z" fill="#000000" fill-rule="nonzero" fill-opacity="1" /><path clip-path="url(#clip350)" d="M890.836 229.89 L895.095 229.89 L895.095 265.909 L890.836 265.909 L890.836 229.89 Z" fill="#000000" fill-rule="nonzero" fill-opacity="1" /><path clip-path="url(#clip350)" d="M920.488 261.973 L928.127 261.973 L928.127 235.608 L919.817 237.275 L919.817 233.015 L928.081 231.349 L932.757 231.349 L932.757 261.973 L940.395 261.973 L940.395 265.909 L920.488 265.909 L920.488 261.973 Z" fill="#000000" fill-rule="nonzero" fill-opacity="1" /><path clip-path="url(#clip350)" d="M959.84 234.427 Q956.229 234.427 954.4 237.992 Q952.594 241.534 952.594 248.663 Q952.594 255.77 954.4 259.335 Q956.229 262.876 959.84 262.876 Q963.474 262.876 965.28 259.335 Q967.108 255.77 967.108 248.663 Q967.108 241.534 965.28 237.992 Q963.474 234.427 959.84 234.427 M959.84 230.724 Q965.65 230.724 968.706 235.33 Q971.784 239.913 971.784 248.663 Q971.784 257.39 968.706 261.997 Q965.65 266.58 959.84 266.58 Q954.03 266.58 950.951 261.997 Q947.895 257.39 947.895 248.663 Q947.895 239.913 950.951 235.33 Q954.03 230.724 959.84 230.724 Z" fill="#000000" fill-rule="nonzero" fill-opacity="1" /><path clip-path="url(#clip350)" d="M990.002 234.427 Q986.391 234.427 984.562 237.992 Q982.756 241.534 982.756 248.663 Q982.756 255.77 984.562 259.335 Q986.391 262.876 990.002 262.876 Q993.636 262.876 995.441 259.335 Q997.27 255.77 997.27 248.663 Q997.27 241.534 995.441 237.992 Q993.636 234.427 990.002 234.427 M990.002 230.724 Q995.812 230.724 998.867 235.33 Q1001.95 239.913 1001.95 248.663 Q1001.95 257.39 998.867 261.997 Q995.812 266.58 990.002 266.58 Q984.192 266.58 981.113 261.997 Q978.057 257.39 978.057 248.663 Q978.057 239.913 981.113 235.33 Q984.192 230.724 990.002 230.724 Z" fill="#000000" fill-rule="nonzero" fill-opacity="1" /><path clip-path="url(#clip350)" d="M1020.16 234.427 Q1016.55 234.427 1014.72 237.992 Q1012.92 241.534 1012.92 248.663 Q1012.92 255.77 1014.72 259.335 Q1016.55 262.876 1020.16 262.876 Q1023.8 262.876 1025.6 259.335 Q1027.43 255.77 1027.43 248.663 Q1027.43 241.534 1025.6 237.992 Q1023.8 234.427 1020.16 234.427 M1020.16 230.724 Q1025.97 230.724 1029.03 235.33 Q1032.11 239.913 1032.11 248.663 Q1032.11 257.39 1029.03 261.997 Q1025.97 266.58 1020.16 266.58 Q1014.35 266.58 1011.27 261.997 Q1008.22 257.39 1008.22 248.663 Q1008.22 239.913 1011.27 235.33 Q1014.35 230.724 1020.16 230.724 Z" fill="#000000" fill-rule="nonzero" fill-opacity="1" /><path clip-path="url(#clip350)" d="M1071.32 240.747 L1071.32 244.774 Q1069.52 243.849 1067.57 243.386 Q1065.63 242.923 1063.54 242.923 Q1060.37 242.923 1058.77 243.895 Q1057.2 244.867 1057.2 246.811 Q1057.2 248.293 1058.33 249.149 Q1059.47 249.983 1062.89 250.747 L1064.35 251.071 Q1068.89 252.043 1070.79 253.825 Q1072.71 255.585 1072.71 258.756 Q1072.71 262.367 1069.84 264.473 Q1066.99 266.58 1061.99 266.58 Q1059.91 266.58 1057.64 266.163 Q1055.39 265.77 1052.89 264.96 L1052.89 260.561 Q1055.26 261.788 1057.55 262.413 Q1059.84 263.015 1062.08 263.015 Q1065.09 263.015 1066.71 261.997 Q1068.33 260.955 1068.33 259.08 Q1068.33 257.344 1067.15 256.418 Q1066 255.492 1062.04 254.636 L1060.56 254.288 Q1056.6 253.455 1054.84 251.742 Q1053.08 250.006 1053.08 246.997 Q1053.08 243.339 1055.67 241.349 Q1058.27 239.358 1063.03 239.358 Q1065.39 239.358 1067.48 239.705 Q1069.56 240.052 1071.32 240.747 Z" fill="#000000" fill-rule="nonzero" fill-opacity="1" /><path clip-path="url(#clip350)" d="M1083.7 232.622 L1083.7 239.983 L1092.48 239.983 L1092.48 243.293 L1083.7 243.293 L1083.7 257.367 Q1083.7 260.538 1084.56 261.441 Q1085.44 262.344 1088.1 262.344 L1092.48 262.344 L1092.48 265.909 L1088.1 265.909 Q1083.17 265.909 1081.3 264.08 Q1079.42 262.228 1079.42 257.367 L1079.42 243.293 L1076.3 243.293 L1076.3 239.983 L1079.42 239.983 L1079.42 232.622 L1083.7 232.622 Z" fill="#000000" fill-rule="nonzero" fill-opacity="1" /><path clip-path="url(#clip350)" d="M1120.26 251.881 L1120.26 253.964 L1100.67 253.964 Q1100.95 258.362 1103.31 260.677 Q1105.7 262.969 1109.93 262.969 Q1112.39 262.969 1114.68 262.367 Q1116.99 261.765 1119.26 260.561 L1119.26 264.589 Q1116.97 265.561 1114.56 266.071 Q1112.15 266.58 1109.68 266.58 Q1103.47 266.58 1099.84 262.969 Q1096.23 259.358 1096.23 253.2 Q1096.23 246.835 1099.65 243.108 Q1103.1 239.358 1108.94 239.358 Q1114.17 239.358 1117.2 242.737 Q1120.26 246.094 1120.26 251.881 M1116 250.631 Q1115.95 247.136 1114.03 245.052 Q1112.13 242.969 1108.98 242.969 Q1105.42 242.969 1103.26 244.983 Q1101.14 246.997 1100.81 250.654 L1116 250.631 Z" fill="#000000" fill-rule="nonzero" fill-opacity="1" /><path clip-path="url(#clip350)" d="M1131.37 262.02 L1131.37 275.77 L1127.08 275.77 L1127.08 239.983 L1131.37 239.983 L1131.37 243.918 Q1132.71 241.603 1134.75 240.492 Q1136.81 239.358 1139.65 239.358 Q1144.38 239.358 1147.32 243.108 Q1150.28 246.858 1150.28 252.969 Q1150.28 259.08 1147.32 262.83 Q1144.38 266.58 1139.65 266.58 Q1136.81 266.58 1134.75 265.469 Q1132.71 264.335 1131.37 262.02 M1145.86 252.969 Q1145.86 248.27 1143.91 245.608 Q1141.99 242.923 1138.61 242.923 Q1135.23 242.923 1133.29 245.608 Q1131.37 248.27 1131.37 252.969 Q1131.37 257.668 1133.29 260.353 Q1135.23 263.015 1138.61 263.015 Q1141.99 263.015 1143.91 260.353 Q1145.86 257.668 1145.86 252.969 Z" fill="#000000" fill-rule="nonzero" fill-opacity="1" /><path clip-path="url(#clip350)" d="M1173.87 240.747 L1173.87 244.774 Q1172.06 243.849 1170.12 243.386 Q1168.17 242.923 1166.09 242.923 Q1162.92 242.923 1161.32 243.895 Q1159.75 244.867 1159.75 246.811 Q1159.75 248.293 1160.88 249.149 Q1162.01 249.983 1165.44 250.747 L1166.9 251.071 Q1171.44 252.043 1173.33 253.825 Q1175.26 255.585 1175.26 258.756 Q1175.26 262.367 1172.38 264.473 Q1169.54 266.58 1164.54 266.58 Q1162.45 266.58 1160.19 266.163 Q1157.94 265.77 1155.44 264.96 L1155.44 260.561 Q1157.8 261.788 1160.09 262.413 Q1162.39 263.015 1164.63 263.015 Q1167.64 263.015 1169.26 261.997 Q1170.88 260.955 1170.88 259.08 Q1170.88 257.344 1169.7 256.418 Q1168.54 255.492 1164.58 254.636 L1163.1 254.288 Q1159.14 253.455 1157.39 251.742 Q1155.63 250.006 1155.63 246.997 Q1155.63 243.339 1158.22 241.349 Q1160.81 239.358 1165.58 239.358 Q1167.94 239.358 1170.02 239.705 Q1172.11 240.052 1173.87 240.747 Z" fill="#000000" fill-rule="nonzero" fill-opacity="1" /></svg>
