<?xml version="1.0" encoding="utf-8"?>
<svg xmlns="http://www.w3.org/2000/svg" xmlns:xlink="http://www.w3.org/1999/xlink" width="600" height="400" viewBox="0 0 2400 1600">
<defs>
  <clipPath id="clip070">
    <rect x="0" y="0" width="2400" height="1600"/>
  </clipPath>
</defs>
<path clip-path="url(#clip070)" d="M0 1600 L2400 1600 L2400 0 L0 0  Z" fill="#ffffff" fill-rule="evenodd" fill-opacity="1"/>
<defs>
  <clipPath id="clip071">
    <rect x="480" y="0" width="1681" height="1600"/>
  </clipPath>
</defs>
<path clip-path="url(#clip070)" d="M287.366 1423.18 L2352.76 1423.18 L2352.76 47.2441 L287.366 47.2441  Z" fill="#ffffff" fill-rule="evenodd" fill-opacity="1"/>
<defs>
  <clipPath id="clip072">
    <rect x="287" y="47" width="2066" height="1377"/>
  </clipPath>
</defs>
<polyline clip-path="url(#clip072)" style="stroke:#000000; stroke-linecap:round; stroke-linejoin:round; stroke-width:2; stroke-opacity:0.1; fill:none" points="345.82,1423.18 345.82,47.2441 "/>
<polyline clip-path="url(#clip072)" style="stroke:#000000; stroke-linecap:round; stroke-linejoin:round; stroke-width:2; stroke-opacity:0.1; fill:none" points="809.744,1423.18 809.744,47.2441 "/>
<polyline clip-path="url(#clip072)" style="stroke:#000000; stroke-linecap:round; stroke-linejoin:round; stroke-width:2; stroke-opacity:0.1; fill:none" points="1273.67,1423.18 1273.67,47.2441 "/>
<polyline clip-path="url(#clip072)" style="stroke:#000000; stroke-linecap:round; stroke-linejoin:round; stroke-width:2; stroke-opacity:0.1; fill:none" points="1737.59,1423.18 1737.59,47.2441 "/>
<polyline clip-path="url(#clip072)" style="stroke:#000000; stroke-linecap:round; stroke-linejoin:round; stroke-width:2; stroke-opacity:0.1; fill:none" points="2201.52,1423.18 2201.52,47.2441 "/>
<polyline clip-path="url(#clip072)" style="stroke:#000000; stroke-linecap:round; stroke-linejoin:round; stroke-width:2; stroke-opacity:0.1; fill:none" points="287.366,1312.11 2352.76,1312.11 "/>
<polyline clip-path="url(#clip072)" style="stroke:#000000; stroke-linecap:round; stroke-linejoin:round; stroke-width:2; stroke-opacity:0.1; fill:none" points="287.366,1048.16 2352.76,1048.16 "/>
<polyline clip-path="url(#clip072)" style="stroke:#000000; stroke-linecap:round; stroke-linejoin:round; stroke-width:2; stroke-opacity:0.1; fill:none" points="287.366,784.215 2352.76,784.215 "/>
<polyline clip-path="url(#clip072)" style="stroke:#000000; stroke-linecap:round; stroke-linejoin:round; stroke-width:2; stroke-opacity:0.1; fill:none" points="287.366,520.267 2352.76,520.267 "/>
<polyline clip-path="url(#clip072)" style="stroke:#000000; stroke-linecap:round; stroke-linejoin:round; stroke-width:2; stroke-opacity:0.1; fill:none" points="287.366,256.318 2352.76,256.318 "/>
<polyline clip-path="url(#clip070)" style="stroke:#000000; stroke-linecap:round; stroke-linejoin:round; stroke-width:4; stroke-opacity:1; fill:none" points="287.366,1423.18 2352.76,1423.18 "/>
<polyline clip-path="url(#clip070)" style="stroke:#000000; stroke-linecap:round; stroke-linejoin:round; stroke-width:4; stroke-opacity:1; fill:none" points="345.82,1423.18 345.82,1404.28 "/>
<polyline clip-path="url(#clip070)" style="stroke:#000000; stroke-linecap:round; stroke-linejoin:round; stroke-width:4; stroke-opacity:1; fill:none" points="809.744,1423.18 809.744,1404.28 "/>
<polyline clip-path="url(#clip070)" style="stroke:#000000; stroke-linecap:round; stroke-linejoin:round; stroke-width:4; stroke-opacity:1; fill:none" points="1273.67,1423.18 1273.67,1404.28 "/>
<polyline clip-path="url(#clip070)" style="stroke:#000000; stroke-linecap:round; stroke-linejoin:round; stroke-width:4; stroke-opacity:1; fill:none" points="1737.59,1423.18 1737.59,1404.28 "/>
<polyline clip-path="url(#clip070)" style="stroke:#000000; stroke-linecap:round; stroke-linejoin:round; stroke-width:4; stroke-opacity:1; fill:none" points="2201.52,1423.18 2201.52,1404.28 "/>
<path clip-path="url(#clip070)" d="M345.82 1454.1 Q342.209 1454.1 340.381 1457.66 Q338.575 1461.2 338.575 1468.33 Q338.575 1475.44 340.381 1479.01 Q342.209 1482.55 345.82 1482.55 Q349.455 1482.55 351.26 1479.01 Q353.089 1475.44 353.089 1468.33 Q353.089 1461.2 351.26 1457.66 Q349.455 1454.1 345.82 1454.1 M345.82 1450.39 Q351.63 1450.39 354.686 1455 Q357.765 1459.58 357.765 1468.33 Q357.765 1477.06 354.686 1481.67 Q351.63 1486.25 345.82 1486.25 Q340.01 1486.25 336.931 1481.67 Q333.876 1477.06 333.876 1468.33 Q333.876 1459.58 336.931 1455 Q340.01 1450.39 345.82 1450.39 Z" fill="#000000" fill-rule="nonzero" fill-opacity="1" /><path clip-path="url(#clip070)" d="M789.015 1481.64 L805.335 1481.64 L805.335 1485.58 L783.39 1485.58 L783.39 1481.64 Q786.052 1478.89 790.636 1474.26 Q795.242 1469.61 796.423 1468.27 Q798.668 1465.74 799.548 1464.01 Q800.45 1462.25 800.45 1460.56 Q800.45 1457.8 798.506 1456.07 Q796.585 1454.33 793.483 1454.33 Q791.284 1454.33 788.83 1455.09 Q786.4 1455.86 783.622 1457.41 L783.622 1452.69 Q786.446 1451.55 788.9 1450.97 Q791.353 1450.39 793.39 1450.39 Q798.761 1450.39 801.955 1453.08 Q805.15 1455.77 805.15 1460.26 Q805.15 1462.39 804.339 1464.31 Q803.552 1466.2 801.446 1468.8 Q800.867 1469.47 797.765 1472.69 Q794.663 1475.88 789.015 1481.64 Z" fill="#000000" fill-rule="nonzero" fill-opacity="1" /><path clip-path="url(#clip070)" d="M815.196 1451.02 L833.552 1451.02 L833.552 1454.96 L819.478 1454.96 L819.478 1463.43 Q820.497 1463.08 821.515 1462.92 Q822.534 1462.73 823.552 1462.73 Q829.339 1462.73 832.719 1465.9 Q836.098 1469.08 836.098 1474.49 Q836.098 1480.07 832.626 1483.17 Q829.154 1486.25 822.835 1486.25 Q820.659 1486.25 818.39 1485.88 Q816.145 1485.51 813.737 1484.77 L813.737 1480.07 Q815.821 1481.2 818.043 1481.76 Q820.265 1482.32 822.742 1482.32 Q826.747 1482.32 829.085 1480.21 Q831.423 1478.1 831.423 1474.49 Q831.423 1470.88 829.085 1468.77 Q826.747 1466.67 822.742 1466.67 Q820.867 1466.67 818.992 1467.08 Q817.14 1467.5 815.196 1468.38 L815.196 1451.02 Z" fill="#000000" fill-rule="nonzero" fill-opacity="1" /><path clip-path="url(#clip070)" d="M1248.37 1451.02 L1266.72 1451.02 L1266.72 1454.96 L1252.65 1454.96 L1252.65 1463.43 Q1253.67 1463.08 1254.69 1462.92 Q1255.71 1462.73 1256.72 1462.73 Q1262.51 1462.73 1265.89 1465.9 Q1269.27 1469.08 1269.27 1474.49 Q1269.27 1480.07 1265.8 1483.17 Q1262.33 1486.25 1256.01 1486.25 Q1253.83 1486.25 1251.56 1485.88 Q1249.32 1485.51 1246.91 1484.77 L1246.91 1480.07 Q1248.99 1481.2 1251.21 1481.76 Q1253.44 1482.32 1255.91 1482.32 Q1259.92 1482.32 1262.26 1480.21 Q1264.59 1478.1 1264.59 1474.49 Q1264.59 1470.88 1262.26 1468.77 Q1259.92 1466.67 1255.91 1466.67 Q1254.04 1466.67 1252.16 1467.08 Q1250.31 1467.5 1248.37 1468.38 L1248.37 1451.02 Z" fill="#000000" fill-rule="nonzero" fill-opacity="1" /><path clip-path="url(#clip070)" d="M1288.48 1454.1 Q1284.87 1454.1 1283.04 1457.66 Q1281.24 1461.2 1281.24 1468.33 Q1281.24 1475.44 1283.04 1479.01 Q1284.87 1482.55 1288.48 1482.55 Q1292.12 1482.55 1293.92 1479.01 Q1295.75 1475.44 1295.75 1468.33 Q1295.75 1461.2 1293.92 1457.66 Q1292.12 1454.1 1288.48 1454.1 M1288.48 1450.39 Q1294.29 1450.39 1297.35 1455 Q1300.43 1459.58 1300.43 1468.33 Q1300.43 1477.06 1297.35 1481.67 Q1294.29 1486.25 1288.48 1486.25 Q1282.67 1486.25 1279.59 1481.67 Q1276.54 1477.06 1276.54 1468.33 Q1276.54 1459.58 1279.59 1455 Q1282.67 1450.39 1288.48 1450.39 Z" fill="#000000" fill-rule="nonzero" fill-opacity="1" /><path clip-path="url(#clip070)" d="M1711.45 1451.02 L1733.67 1451.02 L1733.67 1453.01 L1721.12 1485.58 L1716.24 1485.58 L1728.04 1454.96 L1711.45 1454.96 L1711.45 1451.02 Z" fill="#000000" fill-rule="nonzero" fill-opacity="1" /><path clip-path="url(#clip070)" d="M1742.84 1451.02 L1761.19 1451.02 L1761.19 1454.96 L1747.12 1454.96 L1747.12 1463.43 Q1748.14 1463.08 1749.16 1462.92 Q1750.17 1462.73 1751.19 1462.73 Q1756.98 1462.73 1760.36 1465.9 Q1763.74 1469.08 1763.74 1474.49 Q1763.74 1480.07 1760.27 1483.17 Q1756.79 1486.25 1750.47 1486.25 Q1748.3 1486.25 1746.03 1485.88 Q1743.78 1485.51 1741.38 1484.77 L1741.38 1480.07 Q1743.46 1481.2 1745.68 1481.76 Q1747.91 1482.32 1750.38 1482.32 Q1754.39 1482.32 1756.72 1480.21 Q1759.06 1478.1 1759.06 1474.49 Q1759.06 1470.88 1756.72 1468.77 Q1754.39 1466.67 1750.38 1466.67 Q1748.51 1466.67 1746.63 1467.08 Q1744.78 1467.5 1742.84 1468.38 L1742.84 1451.02 Z" fill="#000000" fill-rule="nonzero" fill-opacity="1" /><path clip-path="url(#clip070)" d="M2161.12 1481.64 L2168.76 1481.64 L2168.76 1455.28 L2160.45 1456.95 L2160.45 1452.69 L2168.72 1451.02 L2173.39 1451.02 L2173.39 1481.64 L2181.03 1481.64 L2181.03 1485.58 L2161.12 1485.58 L2161.12 1481.64 Z" fill="#000000" fill-rule="nonzero" fill-opacity="1" /><path clip-path="url(#clip070)" d="M2200.47 1454.1 Q2196.86 1454.1 2195.04 1457.66 Q2193.23 1461.2 2193.23 1468.33 Q2193.23 1475.44 2195.04 1479.01 Q2196.86 1482.55 2200.47 1482.55 Q2204.11 1482.55 2205.91 1479.01 Q2207.74 1475.44 2207.74 1468.33 Q2207.74 1461.2 2205.91 1457.66 Q2204.11 1454.1 2200.47 1454.1 M2200.47 1450.39 Q2206.29 1450.39 2209.34 1455 Q2212.42 1459.58 2212.42 1468.33 Q2212.42 1477.06 2209.34 1481.67 Q2206.29 1486.25 2200.47 1486.25 Q2194.66 1486.25 2191.59 1481.67 Q2188.53 1477.06 2188.53 1468.33 Q2188.53 1459.58 2191.59 1455 Q2194.66 1450.39 2200.47 1450.39 Z" fill="#000000" fill-rule="nonzero" fill-opacity="1" /><path clip-path="url(#clip070)" d="M2230.64 1454.1 Q2227.03 1454.1 2225.2 1457.66 Q2223.39 1461.2 2223.39 1468.33 Q2223.39 1475.44 2225.2 1479.01 Q2227.03 1482.55 2230.64 1482.55 Q2234.27 1482.55 2236.08 1479.01 Q2237.91 1475.44 2237.91 1468.33 Q2237.91 1461.2 2236.08 1457.66 Q2234.27 1454.1 2230.64 1454.1 M2230.64 1450.39 Q2236.45 1450.39 2239.5 1455 Q2242.58 1459.58 2242.58 1468.33 Q2242.58 1477.06 2239.5 1481.67 Q2236.45 1486.25 2230.64 1486.25 Q2224.83 1486.25 2221.75 1481.67 Q2218.69 1477.06 2218.69 1468.33 Q2218.69 1459.58 2221.75 1455 Q2224.83 1450.39 2230.64 1450.39 Z" fill="#000000" fill-rule="nonzero" fill-opacity="1" /><path clip-path="url(#clip070)" d="M1186.09 1520.52 L1193 1520.52 L1204.81 1538.19 L1216.68 1520.52 L1223.59 1520.52 L1208.31 1543.34 L1224.61 1568.04 L1217.7 1568.04 L1204.33 1547.83 L1190.87 1568.04 L1183.93 1568.04 L1200.89 1542.68 L1186.09 1520.52 Z" fill="#000000" fill-rule="nonzero" fill-opacity="1" /><path clip-path="url(#clip070)" d="M1249.31 1532.4 L1255.51 1532.4 L1266.65 1562.31 L1277.79 1532.4 L1284 1532.4 L1270.63 1568.04 L1262.67 1568.04 L1249.31 1532.4 Z" fill="#000000" fill-rule="nonzero" fill-opacity="1" /><path clip-path="url(#clip070)" d="M1308.28 1550.12 Q1301.19 1550.12 1298.45 1551.75 Q1295.71 1553.37 1295.71 1557.29 Q1295.71 1560.4 1297.75 1562.25 Q1299.82 1564.07 1303.35 1564.07 Q1308.22 1564.07 1311.15 1560.63 Q1314.11 1557.16 1314.11 1551.43 L1314.11 1550.12 L1308.28 1550.12 M1319.97 1547.71 L1319.97 1568.04 L1314.11 1568.04 L1314.11 1562.63 Q1312.1 1565.88 1309.11 1567.44 Q1306.12 1568.97 1301.79 1568.97 Q1296.32 1568.97 1293.07 1565.91 Q1289.86 1562.82 1289.86 1557.67 Q1289.86 1551.65 1293.87 1548.6 Q1297.91 1545.54 1305.9 1545.54 L1314.11 1545.54 L1314.11 1544.97 Q1314.11 1540.93 1311.44 1538.73 Q1308.79 1536.5 1303.99 1536.5 Q1300.93 1536.5 1298.04 1537.23 Q1295.14 1537.97 1292.47 1539.43 L1292.47 1534.02 Q1295.68 1532.78 1298.7 1532.17 Q1301.73 1531.54 1304.59 1531.54 Q1312.33 1531.54 1316.15 1535.55 Q1319.97 1539.56 1319.97 1547.71 Z" fill="#000000" fill-rule="nonzero" fill-opacity="1" /><path clip-path="url(#clip070)" d="M1332.03 1518.52 L1337.88 1518.52 L1337.88 1568.04 L1332.03 1568.04 L1332.03 1518.52 Z" fill="#000000" fill-rule="nonzero" fill-opacity="1" /><path clip-path="url(#clip070)" d="M1349.53 1553.98 L1349.53 1532.4 L1355.39 1532.4 L1355.39 1553.75 Q1355.39 1558.81 1357.36 1561.36 Q1359.34 1563.87 1363.28 1563.87 Q1368.03 1563.87 1370.76 1560.85 Q1373.53 1557.83 1373.53 1552.61 L1373.53 1532.4 L1379.39 1532.4 L1379.39 1568.04 L1373.53 1568.04 L1373.53 1562.57 Q1371.4 1565.82 1368.57 1567.41 Q1365.77 1568.97 1362.04 1568.97 Q1355.9 1568.97 1352.72 1565.15 Q1349.53 1561.33 1349.53 1553.98 M1364.27 1531.54 L1364.27 1531.54 Z" fill="#000000" fill-rule="nonzero" fill-opacity="1" /><path clip-path="url(#clip070)" d="M1421.94 1548.76 L1421.94 1551.62 L1395.02 1551.62 Q1395.4 1557.67 1398.65 1560.85 Q1401.92 1564 1407.75 1564 Q1411.12 1564 1414.27 1563.17 Q1417.46 1562.35 1420.58 1560.69 L1420.58 1566.23 Q1417.42 1567.57 1414.11 1568.27 Q1410.8 1568.97 1407.4 1568.97 Q1398.87 1568.97 1393.87 1564 Q1388.91 1559.04 1388.91 1550.57 Q1388.91 1541.82 1393.62 1536.69 Q1398.36 1531.54 1406.38 1531.54 Q1413.57 1531.54 1417.74 1536.18 Q1421.94 1540.8 1421.94 1548.76 M1416.09 1547.04 Q1416.02 1542.23 1413.38 1539.37 Q1410.77 1536.5 1406.44 1536.5 Q1401.54 1536.5 1398.58 1539.27 Q1395.65 1542.04 1395.21 1547.07 L1416.09 1547.04 Z" fill="#000000" fill-rule="nonzero" fill-opacity="1" /><path clip-path="url(#clip070)" d="M1454.28 1533.45 L1454.28 1538.98 Q1451.8 1537.71 1449.13 1537.07 Q1446.45 1536.44 1443.59 1536.44 Q1439.23 1536.44 1437.03 1537.77 Q1434.87 1539.11 1434.87 1541.79 Q1434.87 1543.82 1436.43 1545 Q1437.99 1546.15 1442.7 1547.2 L1444.7 1547.64 Q1450.94 1548.98 1453.55 1551.43 Q1456.19 1553.85 1456.19 1558.21 Q1456.19 1563.17 1452.24 1566.07 Q1448.33 1568.97 1441.45 1568.97 Q1438.59 1568.97 1435.47 1568.39 Q1432.38 1567.85 1428.95 1566.74 L1428.95 1560.69 Q1432.19 1562.38 1435.34 1563.24 Q1438.49 1564.07 1441.58 1564.07 Q1445.72 1564.07 1447.95 1562.66 Q1450.18 1561.23 1450.18 1558.65 Q1450.18 1556.27 1448.55 1554.99 Q1446.96 1553.72 1441.52 1552.54 L1439.48 1552.07 Q1434.04 1550.92 1431.62 1548.56 Q1429.2 1546.18 1429.2 1542.04 Q1429.2 1537.01 1432.77 1534.27 Q1436.33 1531.54 1442.89 1531.54 Q1446.13 1531.54 1449 1532.01 Q1451.86 1532.49 1454.28 1533.45 Z" fill="#000000" fill-rule="nonzero" fill-opacity="1" /><polyline clip-path="url(#clip070)" style="stroke:#000000; stroke-linecap:round; stroke-linejoin:round; stroke-width:4; stroke-opacity:1; fill:none" points="287.366,1423.18 287.366,47.2441 "/>
<polyline clip-path="url(#clip070)" style="stroke:#000000; stroke-linecap:round; stroke-linejoin:round; stroke-width:4; stroke-opacity:1; fill:none" points="287.366,1312.11 306.264,1312.11 "/>
<polyline clip-path="url(#clip070)" style="stroke:#000000; stroke-linecap:round; stroke-linejoin:round; stroke-width:4; stroke-opacity:1; fill:none" points="287.366,1048.16 306.264,1048.16 "/>
<polyline clip-path="url(#clip070)" style="stroke:#000000; stroke-linecap:round; stroke-linejoin:round; stroke-width:4; stroke-opacity:1; fill:none" points="287.366,784.215 306.264,784.215 "/>
<polyline clip-path="url(#clip070)" style="stroke:#000000; stroke-linecap:round; stroke-linejoin:round; stroke-width:4; stroke-opacity:1; fill:none" points="287.366,520.267 306.264,520.267 "/>
<polyline clip-path="url(#clip070)" style="stroke:#000000; stroke-linecap:round; stroke-linejoin:round; stroke-width:4; stroke-opacity:1; fill:none" points="287.366,256.318 306.264,256.318 "/>
<path clip-path="url(#clip070)" d="M114.26 1312.56 L143.936 1312.56 L143.936 1316.5 L114.26 1316.5 L114.26 1312.56 Z" fill="#000000" fill-rule="nonzero" fill-opacity="1" /><path clip-path="url(#clip070)" d="M164.028 1297.91 Q160.417 1297.91 158.589 1301.48 Q156.783 1305.02 156.783 1312.15 Q156.783 1319.25 158.589 1322.82 Q160.417 1326.36 164.028 1326.36 Q167.663 1326.36 169.468 1322.82 Q171.297 1319.25 171.297 1312.15 Q171.297 1305.02 169.468 1301.48 Q167.663 1297.91 164.028 1297.91 M164.028 1294.21 Q169.839 1294.21 172.894 1298.81 Q175.973 1303.4 175.973 1312.15 Q175.973 1320.87 172.894 1325.48 Q169.839 1330.06 164.028 1330.06 Q158.218 1330.06 155.14 1325.48 Q152.084 1320.87 152.084 1312.15 Q152.084 1303.4 155.14 1298.81 Q158.218 1294.21 164.028 1294.21 Z" fill="#000000" fill-rule="nonzero" fill-opacity="1" /><path clip-path="url(#clip070)" d="M184.19 1323.51 L189.075 1323.51 L189.075 1329.39 L184.19 1329.39 L184.19 1323.51 Z" fill="#000000" fill-rule="nonzero" fill-opacity="1" /><path clip-path="url(#clip070)" d="M199.306 1294.83 L217.662 1294.83 L217.662 1298.77 L203.588 1298.77 L203.588 1307.24 Q204.607 1306.89 205.625 1306.73 Q206.644 1306.55 207.662 1306.55 Q213.449 1306.55 216.829 1309.72 Q220.209 1312.89 220.209 1318.31 Q220.209 1323.88 216.736 1326.99 Q213.264 1330.06 206.945 1330.06 Q204.769 1330.06 202.5 1329.69 Q200.255 1329.32 197.848 1328.58 L197.848 1323.88 Q199.931 1325.02 202.153 1325.57 Q204.375 1326.13 206.852 1326.13 Q210.857 1326.13 213.195 1324.02 Q215.533 1321.92 215.533 1318.31 Q215.533 1314.69 213.195 1312.59 Q210.857 1310.48 206.852 1310.48 Q204.977 1310.48 203.102 1310.9 Q201.25 1311.31 199.306 1312.19 L199.306 1294.83 Z" fill="#000000" fill-rule="nonzero" fill-opacity="1" /><path clip-path="url(#clip070)" d="M239.422 1297.91 Q235.81 1297.91 233.982 1301.48 Q232.176 1305.02 232.176 1312.15 Q232.176 1319.25 233.982 1322.82 Q235.81 1326.36 239.422 1326.36 Q243.056 1326.36 244.861 1322.82 Q246.69 1319.25 246.69 1312.15 Q246.69 1305.02 244.861 1301.48 Q243.056 1297.91 239.422 1297.91 M239.422 1294.21 Q245.232 1294.21 248.287 1298.81 Q251.366 1303.4 251.366 1312.15 Q251.366 1320.87 248.287 1325.48 Q245.232 1330.06 239.422 1330.06 Q233.611 1330.06 230.533 1325.48 Q227.477 1320.87 227.477 1312.15 Q227.477 1303.4 230.533 1298.81 Q233.611 1294.21 239.422 1294.21 Z" fill="#000000" fill-rule="nonzero" fill-opacity="1" /><path clip-path="url(#clip070)" d="M115.256 1048.62 L144.931 1048.62 L144.931 1052.55 L115.256 1052.55 L115.256 1048.62 Z" fill="#000000" fill-rule="nonzero" fill-opacity="1" /><path clip-path="url(#clip070)" d="M165.024 1033.96 Q161.413 1033.96 159.584 1037.53 Q157.778 1041.07 157.778 1048.2 Q157.778 1055.31 159.584 1058.87 Q161.413 1062.41 165.024 1062.41 Q168.658 1062.41 170.464 1058.87 Q172.292 1055.31 172.292 1048.2 Q172.292 1041.07 170.464 1037.53 Q168.658 1033.96 165.024 1033.96 M165.024 1030.26 Q170.834 1030.26 173.889 1034.87 Q176.968 1039.45 176.968 1048.2 Q176.968 1056.93 173.889 1061.53 Q170.834 1066.12 165.024 1066.12 Q159.214 1066.12 156.135 1061.53 Q153.079 1056.93 153.079 1048.2 Q153.079 1039.45 156.135 1034.87 Q159.214 1030.26 165.024 1030.26 Z" fill="#000000" fill-rule="nonzero" fill-opacity="1" /><path clip-path="url(#clip070)" d="M185.186 1059.56 L190.07 1059.56 L190.07 1065.44 L185.186 1065.44 L185.186 1059.56 Z" fill="#000000" fill-rule="nonzero" fill-opacity="1" /><path clip-path="url(#clip070)" d="M204.283 1061.51 L220.602 1061.51 L220.602 1065.44 L198.658 1065.44 L198.658 1061.51 Q201.32 1058.75 205.903 1054.12 Q210.51 1049.47 211.69 1048.13 Q213.936 1045.61 214.815 1043.87 Q215.718 1042.11 215.718 1040.42 Q215.718 1037.67 213.774 1035.93 Q211.852 1034.19 208.75 1034.19 Q206.551 1034.19 204.098 1034.96 Q201.667 1035.72 198.889 1037.27 L198.889 1032.55 Q201.713 1031.42 204.167 1030.84 Q206.621 1030.26 208.658 1030.26 Q214.028 1030.26 217.223 1032.94 Q220.417 1035.63 220.417 1040.12 Q220.417 1042.25 219.607 1044.17 Q218.82 1046.07 216.713 1048.66 Q216.135 1049.33 213.033 1052.55 Q209.931 1055.75 204.283 1061.51 Z" fill="#000000" fill-rule="nonzero" fill-opacity="1" /><path clip-path="url(#clip070)" d="M230.463 1030.88 L248.82 1030.88 L248.82 1034.82 L234.746 1034.82 L234.746 1043.29 Q235.764 1042.94 236.783 1042.78 Q237.801 1042.6 238.82 1042.6 Q244.607 1042.6 247.986 1045.77 Q251.366 1048.94 251.366 1054.36 Q251.366 1059.94 247.894 1063.04 Q244.421 1066.12 238.102 1066.12 Q235.926 1066.12 233.658 1065.75 Q231.412 1065.37 229.005 1064.63 L229.005 1059.94 Q231.088 1061.07 233.31 1061.62 Q235.533 1062.18 238.009 1062.18 Q242.014 1062.18 244.352 1060.07 Q246.69 1057.97 246.69 1054.36 Q246.69 1050.75 244.352 1048.64 Q242.014 1046.53 238.009 1046.53 Q236.135 1046.53 234.26 1046.95 Q232.408 1047.37 230.463 1048.25 L230.463 1030.88 Z" fill="#000000" fill-rule="nonzero" fill-opacity="1" /><path clip-path="url(#clip070)" d="M164.028 770.014 Q160.417 770.014 158.589 773.579 Q156.783 777.121 156.783 784.25 Q156.783 791.357 158.589 794.921 Q160.417 798.463 164.028 798.463 Q167.663 798.463 169.468 794.921 Q171.297 791.357 171.297 784.25 Q171.297 777.121 169.468 773.579 Q167.663 770.014 164.028 770.014 M164.028 766.31 Q169.839 766.31 172.894 770.917 Q175.973 775.5 175.973 784.25 Q175.973 792.977 172.894 797.583 Q169.839 802.167 164.028 802.167 Q158.218 802.167 155.14 797.583 Q152.084 792.977 152.084 784.25 Q152.084 775.5 155.14 770.917 Q158.218 766.31 164.028 766.31 Z" fill="#000000" fill-rule="nonzero" fill-opacity="1" /><path clip-path="url(#clip070)" d="M184.19 795.616 L189.075 795.616 L189.075 801.495 L184.19 801.495 L184.19 795.616 Z" fill="#000000" fill-rule="nonzero" fill-opacity="1" /><path clip-path="url(#clip070)" d="M209.26 770.014 Q205.649 770.014 203.82 773.579 Q202.014 777.121 202.014 784.25 Q202.014 791.357 203.82 794.921 Q205.649 798.463 209.26 798.463 Q212.894 798.463 214.699 794.921 Q216.528 791.357 216.528 784.25 Q216.528 777.121 214.699 773.579 Q212.894 770.014 209.26 770.014 M209.26 766.31 Q215.07 766.31 218.125 770.917 Q221.204 775.5 221.204 784.25 Q221.204 792.977 218.125 797.583 Q215.07 802.167 209.26 802.167 Q203.449 802.167 200.371 797.583 Q197.315 792.977 197.315 784.25 Q197.315 775.5 200.371 770.917 Q203.449 766.31 209.26 766.31 Z" fill="#000000" fill-rule="nonzero" fill-opacity="1" /><path clip-path="url(#clip070)" d="M239.422 770.014 Q235.81 770.014 233.982 773.579 Q232.176 777.121 232.176 784.25 Q232.176 791.357 233.982 794.921 Q235.81 798.463 239.422 798.463 Q243.056 798.463 244.861 794.921 Q246.69 791.357 246.69 784.25 Q246.69 777.121 244.861 773.579 Q243.056 770.014 239.422 770.014 M239.422 766.31 Q245.232 766.31 248.287 770.917 Q251.366 775.5 251.366 784.25 Q251.366 792.977 248.287 797.583 Q245.232 802.167 239.422 802.167 Q233.611 802.167 230.533 797.583 Q227.477 792.977 227.477 784.25 Q227.477 775.5 230.533 770.917 Q233.611 766.31 239.422 766.31 Z" fill="#000000" fill-rule="nonzero" fill-opacity="1" /><path clip-path="url(#clip070)" d="M165.024 506.065 Q161.413 506.065 159.584 509.63 Q157.778 513.172 157.778 520.301 Q157.778 527.408 159.584 530.973 Q161.413 534.514 165.024 534.514 Q168.658 534.514 170.464 530.973 Q172.292 527.408 172.292 520.301 Q172.292 513.172 170.464 509.63 Q168.658 506.065 165.024 506.065 M165.024 502.362 Q170.834 502.362 173.889 506.968 Q176.968 511.551 176.968 520.301 Q176.968 529.028 173.889 533.635 Q170.834 538.218 165.024 538.218 Q159.214 538.218 156.135 533.635 Q153.079 529.028 153.079 520.301 Q153.079 511.551 156.135 506.968 Q159.214 502.362 165.024 502.362 Z" fill="#000000" fill-rule="nonzero" fill-opacity="1" /><path clip-path="url(#clip070)" d="M185.186 531.667 L190.07 531.667 L190.07 537.547 L185.186 537.547 L185.186 531.667 Z" fill="#000000" fill-rule="nonzero" fill-opacity="1" /><path clip-path="url(#clip070)" d="M204.283 533.611 L220.602 533.611 L220.602 537.547 L198.658 537.547 L198.658 533.611 Q201.32 530.857 205.903 526.227 Q210.51 521.574 211.69 520.232 Q213.936 517.709 214.815 515.973 Q215.718 514.213 215.718 512.524 Q215.718 509.769 213.774 508.033 Q211.852 506.297 208.75 506.297 Q206.551 506.297 204.098 507.061 Q201.667 507.824 198.889 509.375 L198.889 504.653 Q201.713 503.519 204.167 502.94 Q206.621 502.362 208.658 502.362 Q214.028 502.362 217.223 505.047 Q220.417 507.732 220.417 512.223 Q220.417 514.352 219.607 516.274 Q218.82 518.172 216.713 520.764 Q216.135 521.436 213.033 524.653 Q209.931 527.848 204.283 533.611 Z" fill="#000000" fill-rule="nonzero" fill-opacity="1" /><path clip-path="url(#clip070)" d="M230.463 502.987 L248.82 502.987 L248.82 506.922 L234.746 506.922 L234.746 515.394 Q235.764 515.047 236.783 514.885 Q237.801 514.699 238.82 514.699 Q244.607 514.699 247.986 517.871 Q251.366 521.042 251.366 526.459 Q251.366 532.037 247.894 535.139 Q244.421 538.218 238.102 538.218 Q235.926 538.218 233.658 537.847 Q231.412 537.477 229.005 536.736 L229.005 532.037 Q231.088 533.172 233.31 533.727 Q235.533 534.283 238.009 534.283 Q242.014 534.283 244.352 532.176 Q246.69 530.07 246.69 526.459 Q246.69 522.848 244.352 520.741 Q242.014 518.635 238.009 518.635 Q236.135 518.635 234.26 519.051 Q232.408 519.468 230.463 520.348 L230.463 502.987 Z" fill="#000000" fill-rule="nonzero" fill-opacity="1" /><path clip-path="url(#clip070)" d="M164.028 242.116 Q160.417 242.116 158.589 245.681 Q156.783 249.223 156.783 256.352 Q156.783 263.459 158.589 267.024 Q160.417 270.565 164.028 270.565 Q167.663 270.565 169.468 267.024 Q171.297 263.459 171.297 256.352 Q171.297 249.223 169.468 245.681 Q167.663 242.116 164.028 242.116 M164.028 238.413 Q169.839 238.413 172.894 243.019 Q175.973 247.602 175.973 256.352 Q175.973 265.079 172.894 269.686 Q169.839 274.269 164.028 274.269 Q158.218 274.269 155.14 269.686 Q152.084 265.079 152.084 256.352 Q152.084 247.602 155.14 243.019 Q158.218 238.413 164.028 238.413 Z" fill="#000000" fill-rule="nonzero" fill-opacity="1" /><path clip-path="url(#clip070)" d="M184.19 267.718 L189.075 267.718 L189.075 273.598 L184.19 273.598 L184.19 267.718 Z" fill="#000000" fill-rule="nonzero" fill-opacity="1" /><path clip-path="url(#clip070)" d="M199.306 239.038 L217.662 239.038 L217.662 242.973 L203.588 242.973 L203.588 251.445 Q204.607 251.098 205.625 250.936 Q206.644 250.751 207.662 250.751 Q213.449 250.751 216.829 253.922 Q220.209 257.093 220.209 262.51 Q220.209 268.088 216.736 271.19 Q213.264 274.269 206.945 274.269 Q204.769 274.269 202.5 273.899 Q200.255 273.528 197.848 272.787 L197.848 268.088 Q199.931 269.223 202.153 269.778 Q204.375 270.334 206.852 270.334 Q210.857 270.334 213.195 268.227 Q215.533 266.121 215.533 262.51 Q215.533 258.899 213.195 256.792 Q210.857 254.686 206.852 254.686 Q204.977 254.686 203.102 255.102 Q201.25 255.519 199.306 256.399 L199.306 239.038 Z" fill="#000000" fill-rule="nonzero" fill-opacity="1" /><path clip-path="url(#clip070)" d="M239.422 242.116 Q235.81 242.116 233.982 245.681 Q232.176 249.223 232.176 256.352 Q232.176 263.459 233.982 267.024 Q235.81 270.565 239.422 270.565 Q243.056 270.565 244.861 267.024 Q246.69 263.459 246.69 256.352 Q246.69 249.223 244.861 245.681 Q243.056 242.116 239.422 242.116 M239.422 238.413 Q245.232 238.413 248.287 243.019 Q251.366 247.602 251.366 256.352 Q251.366 265.079 248.287 269.686 Q245.232 274.269 239.422 274.269 Q233.611 274.269 230.533 269.686 Q227.477 265.079 227.477 256.352 Q227.477 247.602 230.533 243.019 Q233.611 238.413 239.422 238.413 Z" fill="#000000" fill-rule="nonzero" fill-opacity="1" /><path clip-path="url(#clip070)" d="M33.8307 855.906 Q33.2578 856.892 33.0032 858.07 Q32.7167 859.216 32.7167 860.616 Q32.7167 865.582 35.9632 868.255 Q39.1779 870.897 45.2253 870.897 L64.0042 870.897 L64.0042 876.785 L28.3562 876.785 L28.3562 870.897 L33.8944 870.897 Q30.6479 869.051 29.0883 866.091 Q27.4968 863.131 27.4968 858.898 Q27.4968 858.293 27.5923 857.561 Q27.656 856.829 27.8151 855.938 L33.8307 855.906 Z" fill="#000000" fill-rule="nonzero" fill-opacity="1" /><path clip-path="url(#clip070)" d="M44.7161 820.703 L47.5806 820.703 L47.5806 847.63 Q53.6281 847.248 56.8109 844.002 Q59.9619 840.724 59.9619 834.899 Q59.9619 831.525 59.1344 828.374 Q58.3069 825.191 56.6518 822.072 L62.1899 822.072 Q63.5267 825.223 64.227 828.533 Q64.9272 831.843 64.9272 835.249 Q64.9272 843.779 59.9619 848.776 Q54.9967 853.741 46.5303 853.741 Q37.7774 853.741 32.6531 849.031 Q27.4968 844.288 27.4968 836.268 Q27.4968 829.074 32.1438 824.905 Q36.7589 820.703 44.7161 820.703 M42.9973 826.56 Q38.1912 826.624 35.3266 829.265 Q32.4621 831.875 32.4621 836.204 Q32.4621 841.105 35.2312 844.066 Q38.0002 846.994 43.0292 847.439 L42.9973 826.56 Z" fill="#000000" fill-rule="nonzero" fill-opacity="1" /><path clip-path="url(#clip070)" d="M29.4065 788.366 L34.9447 788.366 Q33.6716 790.848 33.035 793.522 Q32.3984 796.195 32.3984 799.06 Q32.3984 803.421 33.7352 805.617 Q35.072 807.781 37.7456 807.781 Q39.7826 807.781 40.9603 806.221 Q42.1061 804.662 43.1565 799.951 L43.6021 797.946 Q44.9389 791.708 47.3897 789.098 Q49.8086 786.456 54.1691 786.456 Q59.1344 786.456 62.0308 790.403 Q64.9272 794.318 64.9272 801.193 Q64.9272 804.057 64.3543 807.176 Q63.8132 810.264 62.6992 813.701 L56.6518 813.701 Q58.3387 810.455 59.198 807.304 Q60.0256 804.153 60.0256 801.065 Q60.0256 796.927 58.6251 794.699 Q57.1929 792.471 54.6147 792.471 Q52.2276 792.471 50.9545 794.095 Q49.6813 795.686 48.5037 801.129 L48.0262 803.166 Q46.8804 808.609 44.5251 811.028 Q42.138 813.447 38.0002 813.447 Q32.9713 813.447 30.2341 809.882 Q27.4968 806.317 27.4968 799.76 Q27.4968 796.514 27.9743 793.649 Q28.4517 790.785 29.4065 788.366 Z" fill="#000000" fill-rule="nonzero" fill-opacity="1" /><path clip-path="url(#clip070)" d="M28.3562 777.13 L28.3562 771.274 L64.0042 771.274 L64.0042 777.13 L28.3562 777.13 M14.479 777.13 L14.479 771.274 L21.895 771.274 L21.895 777.13 L14.479 777.13 Z" fill="#000000" fill-rule="nonzero" fill-opacity="1" /><path clip-path="url(#clip070)" d="M33.7671 735.562 L14.479 735.562 L14.479 729.706 L64.0042 729.706 L64.0042 735.562 L58.657 735.562 Q61.8398 737.408 63.3994 740.241 Q64.9272 743.042 64.9272 746.989 Q64.9272 753.45 59.771 757.524 Q54.6147 761.566 46.212 761.566 Q37.8093 761.566 32.6531 757.524 Q27.4968 753.45 27.4968 746.989 Q27.4968 743.042 29.0564 740.241 Q30.5842 737.408 33.7671 735.562 M46.212 755.519 Q52.6732 755.519 56.3653 752.877 Q60.0256 750.203 60.0256 745.556 Q60.0256 740.909 56.3653 738.236 Q52.6732 735.562 46.212 735.562 Q39.7508 735.562 36.0905 738.236 Q32.3984 740.909 32.3984 745.556 Q32.3984 750.203 36.0905 752.877 Q39.7508 755.519 46.212 755.519 Z" fill="#000000" fill-rule="nonzero" fill-opacity="1" /><path clip-path="url(#clip070)" d="M49.9359 718.247 L28.3562 718.247 L28.3562 712.391 L49.7131 712.391 Q54.7739 712.391 57.3202 710.418 Q59.8346 708.444 59.8346 704.497 Q59.8346 699.755 56.8109 697.018 Q53.7872 694.249 48.5673 694.249 L28.3562 694.249 L28.3562 688.392 L64.0042 688.392 L64.0042 694.249 L58.5296 694.249 Q61.7762 696.381 63.3676 699.214 Q64.9272 702.015 64.9272 705.739 Q64.9272 711.882 61.1078 715.065 Q57.2883 718.247 49.9359 718.247 M27.4968 703.511 L27.4968 703.511 Z" fill="#000000" fill-rule="nonzero" fill-opacity="1" /><path clip-path="url(#clip070)" d="M46.0847 660.128 Q46.0847 667.226 47.7079 669.963 Q49.3312 672.701 53.2461 672.701 Q56.3653 672.701 58.2114 670.664 Q60.0256 668.595 60.0256 665.062 Q60.0256 660.192 56.5881 657.264 Q53.1188 654.304 47.3897 654.304 L46.0847 654.304 L46.0847 660.128 M43.6657 648.447 L64.0042 648.447 L64.0042 654.304 L58.5933 654.304 Q61.8398 656.309 63.3994 659.301 Q64.9272 662.293 64.9272 666.621 Q64.9272 672.096 61.8716 675.342 Q58.7843 678.557 53.6281 678.557 Q47.6125 678.557 44.5569 674.547 Q41.5014 670.505 41.5014 662.516 L41.5014 654.304 L40.9285 654.304 Q36.8862 654.304 34.6901 656.977 Q32.4621 659.619 32.4621 664.425 Q32.4621 667.481 33.1941 670.377 Q33.9262 673.274 35.3903 675.947 L29.9795 675.947 Q28.7381 672.733 28.1334 669.709 Q27.4968 666.685 27.4968 663.821 Q27.4968 656.086 31.5072 652.267 Q35.5176 648.447 43.6657 648.447 Z" fill="#000000" fill-rule="nonzero" fill-opacity="1" /><path clip-path="url(#clip070)" d="M14.479 636.384 L14.479 630.528 L64.0042 630.528 L64.0042 636.384 L14.479 636.384 Z" fill="#000000" fill-rule="nonzero" fill-opacity="1" /><path clip-path="url(#clip070)" d="M29.4065 595.548 L34.9447 595.548 Q33.6716 598.031 33.035 600.705 Q32.3984 603.378 32.3984 606.243 Q32.3984 610.603 33.7352 612.799 Q35.072 614.964 37.7456 614.964 Q39.7826 614.964 40.9603 613.404 Q42.1061 611.845 43.1565 607.134 L43.6021 605.129 Q44.9389 598.89 47.3897 596.28 Q49.8086 593.639 54.1691 593.639 Q59.1344 593.639 62.0308 597.585 Q64.9272 601.5 64.9272 608.375 Q64.9272 611.24 64.3543 614.359 Q63.8132 617.446 62.6992 620.884 L56.6518 620.884 Q58.3387 617.637 59.198 614.486 Q60.0256 611.335 60.0256 608.248 Q60.0256 604.11 58.6251 601.882 Q57.1929 599.654 54.6147 599.654 Q52.2276 599.654 50.9545 601.278 Q49.6813 602.869 48.5037 608.312 L48.0262 610.349 Q46.8804 615.791 44.5251 618.21 Q42.138 620.629 38.0002 620.629 Q32.9713 620.629 30.2341 617.064 Q27.4968 613.5 27.4968 606.943 Q27.4968 603.696 27.9743 600.832 Q28.4517 597.967 29.4065 595.548 Z" fill="#000000" fill-rule="nonzero" fill-opacity="1" /><circle clip-path="url(#clip072)" cx="454.768" cy="247.135" r="14.4" fill="#009af9" fill-rule="evenodd" fill-opacity="1" stroke="#000000" stroke-opacity="1" stroke-width="3.2"/>
<circle clip-path="url(#clip072)" cx="646.889" cy="398.539" r="14.4" fill="#009af9" fill-rule="evenodd" fill-opacity="1" stroke="#000000" stroke-opacity="1" stroke-width="3.2"/>
<circle clip-path="url(#clip072)" cx="654.386" cy="363.247" r="14.4" fill="#009af9" fill-rule="evenodd" fill-opacity="1" stroke="#000000" stroke-opacity="1" stroke-width="3.2"/>
<circle clip-path="url(#clip072)" cx="752.218" cy="958.504" r="14.4" fill="#009af9" fill-rule="evenodd" fill-opacity="1" stroke="#000000" stroke-opacity="1" stroke-width="3.2"/>
<circle clip-path="url(#clip072)" cx="942.835" cy="1116.98" r="14.4" fill="#009af9" fill-rule="evenodd" fill-opacity="1" stroke="#000000" stroke-opacity="1" stroke-width="3.2"/>
<circle clip-path="url(#clip072)" cx="958.311" cy="1044.13" r="14.4" fill="#009af9" fill-rule="evenodd" fill-opacity="1" stroke="#000000" stroke-opacity="1" stroke-width="3.2"/>
<circle clip-path="url(#clip072)" cx="1171.83" cy="1094.81" r="14.4" fill="#009af9" fill-rule="evenodd" fill-opacity="1" stroke="#000000" stroke-opacity="1" stroke-width="3.2"/>
<circle clip-path="url(#clip072)" cx="1334.63" cy="1384.24" r="14.4" fill="#009af9" fill-rule="evenodd" fill-opacity="1" stroke="#000000" stroke-opacity="1" stroke-width="3.2"/>
<circle clip-path="url(#clip072)" cx="1384.73" cy="1148.38" r="14.4" fill="#009af9" fill-rule="evenodd" fill-opacity="1" stroke="#000000" stroke-opacity="1" stroke-width="3.2"/>
<circle clip-path="url(#clip072)" cx="2283.22" cy="86.1857" r="14.4" fill="#009af9" fill-rule="evenodd" fill-opacity="1" stroke="#000000" stroke-opacity="1" stroke-width="3.2"/>
<polyline clip-path="url(#clip072)" style="stroke:#e26f46; stroke-linecap:round; stroke-linejoin:round; stroke-width:4; stroke-opacity:1; fill:none" points="345.82,784.215 2294.3,784.215 "/>
</svg>
